<svg width="24" height="24" viewBox="0 0 24 24" fill="none" xmlns="http://www.w3.org/2000/svg">
<path fill-rule="evenodd" clip-rule="evenodd" d="M12 7C9.243 7 7 9.243 7 12C7 14.757 9.243 17 12 17C14.757 17 17 14.757 17 12C17 9.243 14.757 7 12 7ZM12 20.0001C7.58897 20.0001 3.99997 16.4111 3.99997 12.0001C3.99997 7.58905 7.58897 4.00005 12 4.00005C16.411 4.00005 20 7.58905 20 12.0001C20 16.4111 16.411 20.0001 12 20.0001ZM12 2C6.486 2 2 6.486 2 12C2 17.514 6.486 22 12 22C17.514 22 22 17.514 22 12C22 6.486 17.514 2 12 2Z" fill="#475A88"/>
</svg>
