<svg width="24" height="25" viewBox="0 0 24 25" fill="none" xmlns="http://www.w3.org/2000/svg">
<g clip-path="url(#clip0_2273_50276)">
<path d="M12 2.78516C6.48 2.78516 2 7.26516 2 12.7852C2 18.3052 6.48 22.7852 12 22.7852C17.52 22.7852 22 18.3052 22 12.7852C22 7.26516 17.52 2.78516 12 2.78516ZM12 5.78516C13.66 5.78516 15 7.12516 15 8.78516C15 10.4452 13.66 11.7852 12 11.7852C10.34 11.7852 9 10.4452 9 8.78516C9 7.12516 10.34 5.78516 12 5.78516ZM12 19.9852C9.5 19.9852 7.29 18.7052 6 16.7652C6.03 14.7752 10 13.6852 12 13.6852C13.99 13.6852 17.97 14.7752 18 16.7652C16.71 18.7052 14.5 19.9852 12 19.9852Z" fill="#B9D3EB"/>
</g>
<defs>
<clipPath id="clip0_2273_50276">
<rect width="24" height="24" fill="white" transform="translate(0 0.785156)"/>
</clipPath>
</defs>
</svg>
