<svg width="21" height="20" viewBox="0 0 21 20" fill="none" xmlns="http://www.w3.org/2000/svg">
<g clip-path="url(#clip0_2377_93404)">
<path d="M10.5 4.58398C11.2735 4.58398 12.0154 4.89128 12.5624 5.43826C13.1094 5.98524 13.4167 6.7271 13.4167 7.50065C13.4167 8.2742 13.1094 9.01606 12.5624 9.56305C12.0154 10.11 11.2735 10.4173 10.5 10.4173C9.72645 10.4173 8.98459 10.11 8.43761 9.56305C7.89062 9.01606 7.58333 8.2742 7.58333 7.50065C7.58333 6.7271 7.89062 5.98524 8.43761 5.43826C8.98459 4.89128 9.72645 4.58398 10.5 4.58398ZM4.66667 6.66732C5.13333 6.66732 5.56667 6.79232 5.94167 7.01732C5.81667 8.20898 6.16667 9.39232 6.88333 10.3173C6.46667 11.1173 5.63333 11.6673 4.66667 11.6673C4.00363 11.6673 3.36774 11.4039 2.8989 10.9351C2.43006 10.4662 2.16667 9.83036 2.16667 9.16732C2.16667 8.50428 2.43006 7.86839 2.8989 7.39955C3.36774 6.93071 4.00363 6.66732 4.66667 6.66732ZM16.3333 6.66732C16.9964 6.66732 17.6323 6.93071 18.1011 7.39955C18.5699 7.86839 18.8333 8.50428 18.8333 9.16732C18.8333 9.83036 18.5699 10.4662 18.1011 10.9351C17.6323 11.4039 16.9964 11.6673 16.3333 11.6673C15.3667 11.6673 14.5333 11.1173 14.1167 10.3173C14.8333 9.39232 15.1833 8.20898 15.0583 7.01732C15.4333 6.79232 15.8667 6.66732 16.3333 6.66732ZM5.08333 15.209C5.08333 13.484 7.50833 12.084 10.5 12.084C13.4917 12.084 15.9167 13.484 15.9167 15.209V16.6673H5.08333V15.209ZM0.5 16.6673V15.4173C0.5 14.259 2.075 13.284 4.20833 13.0007C3.71667 13.5673 3.41667 14.3507 3.41667 15.209V16.6673H0.5ZM20.5 16.6673H17.5833V15.209C17.5833 14.3507 17.2833 13.5673 16.7917 13.0007C18.925 13.284 20.5 14.259 20.5 15.4173V16.6673Z" fill="white"/>
</g>
<defs>
<clipPath id="clip0_2377_93404">
<rect width="20" height="20" fill="white" transform="translate(0.5)"/>
</clipPath>
</defs>
</svg>
