<svg width="24" height="24" viewBox="0 0 24 24" fill="none" xmlns="http://www.w3.org/2000/svg">
<g clip-path="url(#clip0_2085_95401)">
<path d="M11.9998 0L11.3398 0.03L15.1498 3.84L16.4998 2.5C19.7498 4.07 22.0898 7.24 22.4498 11H23.9498C23.4398 4.84 18.2898 0 11.9998 0ZM11.9998 4C10.0698 4 8.4998 5.57 8.4998 7.5C8.4998 9.43 10.0698 11 11.9998 11C13.9298 11 15.4998 9.43 15.4998 7.5C15.4998 5.57 13.9298 4 11.9998 4ZM0.0498047 13C0.559805 19.16 5.7098 24 11.9998 24L12.6598 23.97L8.8498 20.16L7.4998 21.5C4.2498 19.94 1.9098 16.76 1.5498 13H0.0498047ZM11.9998 13C8.1298 13 4.9998 14.57 4.9998 16.5V18H18.9998V16.5C18.9998 14.57 15.8698 13 11.9998 13Z" fill="black"/>
</g>
<defs>
<clipPath id="clip0_2085_95401">
<rect width="24" height="24" fill="white"/>
</clipPath>
</defs>
</svg>
