<svg width="25" height="25" viewBox="0 0 25 25" fill="none" xmlns="http://www.w3.org/2000/svg">
<g clip-path="url(#clip0_1921_159447)">
<path d="M12.0088 2.78516C6.48879 2.78516 2.00879 7.26516 2.00879 12.7852C2.00879 18.3052 6.48879 22.7852 12.0088 22.7852C17.5288 22.7852 22.0088 18.3052 22.0088 12.7852C22.0088 7.26516 17.5288 2.78516 12.0088 2.78516ZM12.0088 5.78516C13.6688 5.78516 15.0088 7.12516 15.0088 8.78516C15.0088 10.4452 13.6688 11.7852 12.0088 11.7852C10.3488 11.7852 9.00879 10.4452 9.00879 8.78516C9.00879 7.12516 10.3488 5.78516 12.0088 5.78516ZM12.0088 19.9852C9.50879 19.9852 7.29879 18.7052 6.00879 16.7652C6.03879 14.7752 10.0088 13.6852 12.0088 13.6852C13.9988 13.6852 17.9788 14.7752 18.0088 16.7652C16.7188 18.7052 14.5088 19.9852 12.0088 19.9852Z" fill="#B9D3EB"/>
</g>
<defs>
<clipPath id="clip0_1921_159447">
<rect width="24" height="24" fill="white" transform="translate(0.00878906 0.785156)"/>
</clipPath>
</defs>
</svg>
