<svg width="21" height="20" viewBox="0 0 21 20" fill="none" xmlns="http://www.w3.org/2000/svg">
<g clip-path="url(#clip0_1875_102296)">
<path d="M10.5 4.58203C11.2735 4.58203 12.0154 4.88932 12.5624 5.4363C13.1094 5.98328 13.4167 6.72515 13.4167 7.4987C13.4167 8.27225 13.1094 9.01411 12.5624 9.56109C12.0154 10.1081 11.2735 10.4154 10.5 10.4154C9.72645 10.4154 8.98459 10.1081 8.43761 9.56109C7.89062 9.01411 7.58333 8.27225 7.58333 7.4987C7.58333 6.72515 7.89062 5.98328 8.43761 5.4363C8.98459 4.88932 9.72645 4.58203 10.5 4.58203ZM4.66667 6.66536C5.13333 6.66536 5.56667 6.79036 5.94167 7.01536C5.81667 8.20703 6.16667 9.39036 6.88333 10.3154C6.46667 11.1154 5.63333 11.6654 4.66667 11.6654C4.00363 11.6654 3.36774 11.402 2.8989 10.9331C2.43006 10.4643 2.16667 9.82841 2.16667 9.16536C2.16667 8.50232 2.43006 7.86644 2.8989 7.3976C3.36774 6.92876 4.00363 6.66536 4.66667 6.66536ZM16.3333 6.66536C16.9964 6.66536 17.6323 6.92876 18.1011 7.3976C18.5699 7.86644 18.8333 8.50232 18.8333 9.16536C18.8333 9.82841 18.5699 10.4643 18.1011 10.9331C17.6323 11.402 16.9964 11.6654 16.3333 11.6654C15.3667 11.6654 14.5333 11.1154 14.1167 10.3154C14.8333 9.39036 15.1833 8.20703 15.0583 7.01536C15.4333 6.79036 15.8667 6.66536 16.3333 6.66536ZM5.08333 15.207C5.08333 13.482 7.50833 12.082 10.5 12.082C13.4917 12.082 15.9167 13.482 15.9167 15.207V16.6654H5.08333V15.207ZM0.5 16.6654V15.4154C0.5 14.257 2.075 13.282 4.20833 12.9987C3.71667 13.5654 3.41667 14.3487 3.41667 15.207V16.6654H0.5ZM20.5 16.6654H17.5833V15.207C17.5833 14.3487 17.2833 13.5654 16.7917 12.9987C18.925 13.282 20.5 14.257 20.5 15.4154V16.6654Z" fill="#8D7CF6"/>
</g>
<defs>
<clipPath id="clip0_1875_102296">
<rect width="20" height="20" fill="white" transform="translate(0.5)"/>
</clipPath>
</defs>
</svg>
