<svg width="24" height="25" viewBox="0 0 24 25" fill="none" xmlns="http://www.w3.org/2000/svg">
<path d="M11 4.82031C8.8 4.82031 7 6.62031 7 8.82031C7 11.0203 8.8 12.8203 11 12.8203C13.2 12.8203 15 11.0203 15 8.82031C15 6.62031 13.2 4.82031 11 4.82031ZM11 6.82031C12.1 6.82031 13 7.72031 13 8.82031C13 9.92031 12.1 10.8203 11 10.8203C9.9 10.8203 9 9.92031 9 8.82031C9 7.72031 9.9 6.82031 11 6.82031ZM11 13.8203C8.3 13.8203 3 15.1203 3 17.8203V20.8203H12.5C12.2 20.2203 12.1 19.6203 12 18.9203H4.9V17.8203C4.9 17.2203 8 15.7203 11 15.7203C11.5 15.7203 12 15.8203 12.5 15.8203C12.8 15.2203 13.1 14.6203 13.6 14.1203C12.6 13.9203 11.7 13.8203 11 13.8203ZM18 20.8203C16.6 20.8203 15.5 19.7203 15.5 18.3203C15.5 17.9203 15.6 17.5203 15.8 17.2203L14.7 16.1203C14.3 16.7203 14 17.5203 14 18.3203C14 20.5203 15.8 22.3203 18 22.3203V23.8203L20.2 21.6203L18 19.3203V20.8203ZM18 14.3203V12.8203L15.8 15.0203L18 17.2203V15.8203C19.4 15.8203 20.5 16.9203 20.5 18.3203C20.5 18.7203 20.4 19.1203 20.2 19.4203L21.3 20.5203C21.7 19.9203 22 19.1203 22 18.3203C22 16.1203 20.2 14.3203 18 14.3203Z" fill="#475A88"/>
</svg>
