<svg width="16" height="16" viewBox="0 0 16 16" fill="none" xmlns="http://www.w3.org/2000/svg">
<path d="M7.99992 1.33301C4.31992 1.33301 1.33325 4.31967 1.33325 7.99967C1.33325 11.6797 4.31992 14.6663 7.99992 14.6663C11.6799 14.6663 14.6666 11.6797 14.6666 7.99967C14.6666 4.31967 11.6799 1.33301 7.99992 1.33301ZM10.6666 8.66634H8.66658V10.6663C8.66658 11.033 8.36658 11.333 7.99992 11.333C7.63325 11.333 7.33325 11.033 7.33325 10.6663V8.66634H5.33325C4.96659 8.66634 4.66658 8.36634 4.66658 7.99967C4.66658 7.63301 4.96659 7.33301 5.33325 7.33301H7.33325V5.33301C7.33325 4.96634 7.63325 4.66634 7.99992 4.66634C8.36658 4.66634 8.66658 4.96634 8.66658 5.33301V7.33301H10.6666C11.0333 7.33301 11.3333 7.63301 11.3333 7.99967C11.3333 8.36634 11.0333 8.66634 10.6666 8.66634Z" fill="white"/>
</svg>
