<svg width="16" height="16" viewBox="0 0 16 16" fill="none" xmlns="http://www.w3.org/2000/svg">
<path d="M7.99992 1.33398C4.31992 1.33398 1.33325 4.32065 1.33325 8.00065C1.33325 11.6807 4.31992 14.6673 7.99992 14.6673C11.6799 14.6673 14.6666 11.6807 14.6666 8.00065C14.6666 4.32065 11.6799 1.33398 7.99992 1.33398ZM10.6666 8.66732H8.66658V10.6673C8.66658 11.034 8.36658 11.334 7.99992 11.334C7.63325 11.334 7.33325 11.034 7.33325 10.6673V8.66732H5.33325C4.96659 8.66732 4.66658 8.36732 4.66658 8.00065C4.66658 7.63398 4.96659 7.33398 5.33325 7.33398H7.33325V5.33398C7.33325 4.96732 7.63325 4.66732 7.99992 4.66732C8.36658 4.66732 8.66658 4.96732 8.66658 5.33398V7.33398H10.6666C11.0333 7.33398 11.3333 7.63398 11.3333 8.00065C11.3333 8.36732 11.0333 8.66732 10.6666 8.66732Z" fill="white"/>
</svg>
