<svg width="1772" height="1157" viewBox="0 0 1772 1157" fill="none" xmlns="http://www.w3.org/2000/svg">
<g opacity="0.7">
<mask id="mask0_2556_93400" style="mask-type:alpha" maskUnits="userSpaceOnUse" x="209" y="59" width="1457" height="1081">
<rect x="209.586" y="59" width="1456" height="1081" fill="white"/>
</mask>
<g mask="url(#mask0_2556_93400)">
<g filter="url(#filter0_f_2556_93400)">
<path d="M175.281 489.037L429.642 489.037C429.642 489.037 938.363 1085.65 175.281 1220.64L175.281 489.037Z" fill="#EEF3FF"/>
</g>
<g filter="url(#filter1_f_2556_93400)">
<path d="M1686.86 1165.13L210.06 1165.13C210.06 1165.13 1293.32 316.237 1536.66 677.353C1766.89 1019.02 1686.86 1165.13 1686.86 1165.13Z" fill="#5280FF" fill-opacity="0.06"/>
</g>
<g filter="url(#filter2_f_2556_93400)">
<path d="M886.095 795.106L1398.47 1305.55C1398.47 1305.55 1025.01 994.675 690.305 1285.2L886.095 795.106Z" fill="#00FFFF" fill-opacity="0.04"/>
</g>
<g filter="url(#filter3_f_2556_93400)">
<path d="M444.678 601.353L-184.841 238.464C-184.841 238.464 257.871 443.873 504.56 78.219L444.678 601.353Z" fill="#00FFFF" fill-opacity="0.04"/>
</g>
<g filter="url(#filter4_f_2556_93400)">
<path d="M199.417 461.65L199.417 56.5926C199.417 56.5926 458.302 353.709 348.174 420.452C243.976 483.601 199.417 461.65 199.417 461.65Z" fill="#5280FF" fill-opacity="0.08"/>
</g>
</g>
<g opacity="0.6">
<path d="M1.17188 1156.66C43.0015 1111.19 212.502 871.264 517.07 871.264C897.78 871.264 1110.57 1430.31 1684.66 968.488" stroke="white" stroke-width="0.987317"/>
<path d="M1.17188 655.175C43.0015 609.699 212.502 369.773 517.07 369.773C897.78 369.773 1110.57 928.815 1684.66 466.998" stroke="white" stroke-width="0.987317"/>
<path d="M1.17188 1140.49C43.0015 1095.01 212.502 855.086 517.07 855.086C897.78 855.086 1110.57 1414.13 1684.66 952.311" stroke="white" stroke-width="0.987317"/>
<path d="M1.17188 1124.31C43.0015 1078.84 212.502 838.91 517.07 838.91C897.78 838.91 1110.57 1397.95 1684.66 936.135" stroke="white" stroke-width="0.987317"/>
<path d="M1.17188 1108.13C43.0015 1062.66 212.502 822.732 517.07 822.732C897.78 822.732 1110.57 1381.77 1684.66 919.957" stroke="white" stroke-width="0.987317"/>
<path d="M1.17188 1091.96C43.0015 1046.48 212.502 806.555 517.07 806.555C897.78 806.555 1110.57 1365.6 1684.66 903.779" stroke="white" stroke-width="0.987317"/>
<path d="M1.17188 1075.78C43.0015 1030.3 212.502 790.379 517.07 790.379C897.78 790.379 1110.57 1349.42 1684.66 887.603" stroke="white" stroke-width="0.987317"/>
<path d="M1.17188 1059.6C43.0015 1014.13 212.502 774.201 517.07 774.201C897.78 774.201 1110.57 1333.24 1684.66 871.426" stroke="white" stroke-width="0.987317"/>
<path d="M1.17188 1043.42C43.0015 997.949 212.502 758.023 517.07 758.023C897.78 758.023 1110.57 1317.06 1684.66 855.248" stroke="white" stroke-width="0.987317"/>
<path d="M1.17188 1027.25C43.0015 981.773 212.502 741.848 517.07 741.848C897.78 741.848 1110.57 1300.89 1684.66 839.072" stroke="white" stroke-width="0.987317"/>
<path d="M1.17188 1011.07C43.0015 965.595 212.502 725.67 517.07 725.67C897.78 725.67 1110.57 1284.71 1684.66 822.895" stroke="white" stroke-width="0.987317"/>
<path d="M1.17188 994.893C43.0015 949.417 212.502 709.492 517.07 709.492C897.78 709.492 1110.57 1268.53 1684.66 806.717" stroke="white" stroke-width="0.987317"/>
<path d="M1.17188 978.718C43.0015 933.242 212.502 693.316 517.07 693.316C897.78 693.316 1110.57 1252.36 1684.66 790.541" stroke="white" stroke-width="0.987317"/>
<path d="M1.17188 962.54C43.0015 917.064 212.502 677.139 517.07 677.139C897.78 677.139 1110.57 1236.18 1684.66 774.363" stroke="white" stroke-width="0.987317"/>
<path d="M1.17188 946.362C43.0015 900.886 212.502 660.961 517.07 660.961C897.78 660.961 1110.57 1220 1684.66 758.186" stroke="white" stroke-width="0.987317"/>
<path d="M1.17188 930.186C43.0015 884.71 212.502 644.785 517.07 644.785C897.78 644.785 1110.57 1203.83 1684.66 742.01" stroke="white" stroke-width="0.987317"/>
<path d="M1.17188 914.009C43.0015 868.533 212.502 628.607 517.07 628.607C897.78 628.607 1110.57 1187.65 1684.66 725.832" stroke="white" stroke-width="0.987317"/>
<path d="M1.17188 897.831C43.0015 852.355 212.502 612.43 517.07 612.43C897.78 612.43 1110.57 1171.47 1684.66 709.654" stroke="white" stroke-width="0.987317"/>
<path d="M1.17188 881.653C43.0015 836.177 212.502 596.252 517.07 596.252C897.78 596.252 1110.57 1155.29 1684.66 693.477" stroke="white" stroke-width="0.987317"/>
<path d="M1.17188 865.477C43.0015 820.001 212.502 580.076 517.07 580.076C897.78 580.076 1110.57 1139.12 1684.66 677.301" stroke="white" stroke-width="0.987317"/>
<path d="M1.17188 849.3C43.0015 803.824 212.502 563.898 517.07 563.898C897.78 563.898 1110.57 1122.94 1684.66 661.123" stroke="white" stroke-width="0.987317"/>
<path d="M1.17188 833.122C43.0015 787.646 212.502 547.721 517.07 547.721C897.78 547.721 1110.57 1106.76 1684.66 644.945" stroke="white" stroke-width="0.987317"/>
<path d="M1.17188 816.946C43.0015 771.47 212.502 531.545 517.07 531.545C897.78 531.545 1110.57 1090.59 1684.66 628.77" stroke="white" stroke-width="0.987317"/>
<path d="M1.17188 800.768C43.0015 755.292 212.502 515.367 517.07 515.367C897.78 515.367 1110.57 1074.41 1684.66 612.592" stroke="white" stroke-width="0.987317"/>
<path d="M1.17188 784.591C43.0015 739.115 212.502 499.189 517.07 499.189C897.78 499.189 1110.57 1058.23 1684.66 596.414" stroke="white" stroke-width="0.987317"/>
<path d="M1.17188 768.415C43.0015 722.939 212.502 483.014 517.07 483.014C897.78 483.014 1110.57 1042.06 1684.66 580.238" stroke="white" stroke-width="0.987317"/>
<path d="M1.17188 752.237C43.0015 706.761 212.502 466.836 517.07 466.836C897.78 466.836 1110.57 1025.88 1684.66 564.061" stroke="white" stroke-width="0.987317"/>
<path d="M1.17188 736.061C43.0015 690.585 212.502 450.66 517.07 450.66C897.78 450.66 1110.57 1009.7 1684.66 547.885" stroke="white" stroke-width="0.987317"/>
<path d="M1.17188 719.884C43.0015 674.408 212.502 434.482 517.07 434.482C897.78 434.482 1110.57 993.524 1684.66 531.707" stroke="white" stroke-width="0.987317"/>
<path d="M1.17188 703.706C43.0015 658.23 212.502 418.305 517.07 418.305C897.78 418.305 1110.57 977.346 1684.66 515.529" stroke="white" stroke-width="0.987317"/>
<path d="M1.17188 687.528C43.0015 642.052 212.502 402.127 517.07 402.127C897.78 402.127 1110.57 961.168 1684.66 499.352" stroke="white" stroke-width="0.987317"/>
<path d="M1.17188 671.352C43.0015 625.876 212.502 385.951 517.07 385.951C897.78 385.951 1110.57 944.993 1684.66 483.176" stroke="white" stroke-width="0.987317"/>
</g>
<g opacity="0.8">
<path d="M87.6797 466.073C129.509 439.168 299.01 297.219 603.578 297.219C984.288 297.219 1197.07 627.969 1771.17 354.741" stroke="white" stroke-width="0.987317"/>
<path d="M87.6797 169.372C129.509 142.466 299.01 0.517578 603.578 0.517578C984.288 0.517578 1197.07 331.268 1771.17 58.0394" stroke="white" stroke-width="0.987317"/>
<path d="M87.6797 456.503C129.509 429.597 299.01 287.648 603.578 287.648C984.288 287.648 1197.07 618.399 1771.17 345.17" stroke="white" stroke-width="0.987317"/>
<path d="M87.6797 446.93C129.509 420.025 299.01 278.076 603.578 278.076C984.288 278.076 1197.07 608.826 1771.17 335.598" stroke="white" stroke-width="0.987317"/>
<path d="M87.6797 437.36C129.509 410.455 299.01 268.506 603.578 268.506C984.288 268.506 1197.07 599.256 1771.17 326.028" stroke="white" stroke-width="0.987317"/>
<path d="M87.6797 427.788C129.509 400.882 299.01 258.934 603.578 258.934C984.288 258.934 1197.07 589.684 1771.17 316.455" stroke="white" stroke-width="0.987317"/>
<path d="M87.6797 418.218C129.509 391.312 299.01 249.363 603.578 249.363C984.288 249.363 1197.07 580.114 1771.17 306.885" stroke="white" stroke-width="0.987317"/>
<path d="M87.6797 408.647C129.509 381.742 299.01 239.793 603.578 239.793C984.288 239.793 1197.07 570.543 1771.17 297.315" stroke="white" stroke-width="0.987317"/>
<path d="M87.6797 399.075C129.509 372.17 299.01 230.221 603.578 230.221C984.288 230.221 1197.07 560.971 1771.17 287.742" stroke="white" stroke-width="0.987317"/>
<path d="M87.6797 389.505C129.509 362.599 299.01 220.65 603.578 220.65C984.288 220.65 1197.07 551.401 1771.17 278.172" stroke="white" stroke-width="0.987317"/>
<path d="M87.6797 379.932C129.509 353.027 299.01 211.078 603.578 211.078C984.288 211.078 1197.07 541.828 1771.17 268.6" stroke="white" stroke-width="0.987317"/>
<path d="M87.6797 370.362C129.509 343.457 299.01 201.508 603.578 201.508C984.288 201.508 1197.07 532.258 1771.17 259.03" stroke="white" stroke-width="0.987317"/>
<path d="M87.6797 360.792C129.509 333.886 299.01 191.938 603.578 191.938C984.288 191.938 1197.07 522.688 1771.17 249.459" stroke="white" stroke-width="0.987317"/>
<path d="M87.6797 351.221C129.509 324.316 299.01 182.367 603.578 182.367C984.288 182.367 1197.07 513.117 1771.17 239.889" stroke="white" stroke-width="0.987317"/>
<path d="M87.6797 341.651C129.509 314.746 299.01 172.797 603.578 172.797C984.288 172.797 1197.07 503.547 1771.17 230.319" stroke="white" stroke-width="0.987317"/>
<path d="M87.6797 332.079C129.509 305.174 299.01 163.225 603.578 163.225C984.288 163.225 1197.07 493.975 1771.17 220.746" stroke="white" stroke-width="0.987317"/>
<path d="M87.6797 322.507C129.509 295.601 299.01 153.652 603.578 153.652C984.288 153.652 1197.07 484.403 1771.17 211.174" stroke="white" stroke-width="0.987317"/>
<path d="M87.6797 312.936C129.509 286.031 299.01 144.082 603.578 144.082C984.288 144.082 1197.07 474.832 1771.17 201.604" stroke="white" stroke-width="0.987317"/>
<path d="M87.6797 303.366C129.509 276.461 299.01 134.512 603.578 134.512C984.288 134.512 1197.07 465.262 1771.17 192.033" stroke="white" stroke-width="0.987317"/>
<path d="M87.6797 293.796C129.509 266.89 299.01 124.941 603.578 124.941C984.288 124.941 1197.07 455.692 1771.17 182.463" stroke="white" stroke-width="0.987317"/>
<path d="M87.6797 284.223C129.509 257.318 299.01 115.369 603.578 115.369C984.288 115.369 1197.07 446.119 1771.17 172.891" stroke="white" stroke-width="0.987317"/>
<path d="M87.6797 274.653C129.509 247.748 299.01 105.799 603.578 105.799C984.288 105.799 1197.07 436.549 1771.17 163.321" stroke="white" stroke-width="0.987317"/>
<path d="M87.6797 265.081C129.509 238.175 299.01 96.2266 603.578 96.2266C984.288 96.2266 1197.07 426.977 1771.17 153.748" stroke="white" stroke-width="0.987317"/>
<path d="M87.6797 255.51C129.509 228.605 299.01 86.6562 603.578 86.6562C984.288 86.6562 1197.07 417.406 1771.17 144.178" stroke="white" stroke-width="0.987317"/>
<path d="M87.6797 245.94C129.509 219.035 299.01 77.0859 603.578 77.0859C984.288 77.0859 1197.07 407.836 1771.17 134.608" stroke="white" stroke-width="0.987317"/>
<path d="M87.6797 236.368C129.509 209.463 299.01 67.5137 603.578 67.5137C984.288 67.5137 1197.07 398.264 1771.17 125.035" stroke="white" stroke-width="0.987317"/>
<path d="M87.6797 226.798C129.509 199.892 299.01 57.9434 603.578 57.9434C984.288 57.9434 1197.07 388.694 1771.17 115.465" stroke="white" stroke-width="0.987317"/>
<path d="M87.6797 217.227C129.509 190.322 299.01 48.373 603.578 48.373C984.288 48.373 1197.07 379.123 1771.17 105.895" stroke="white" stroke-width="0.987317"/>
<path d="M87.6797 207.655C129.509 180.75 299.01 38.8008 603.578 38.8008C984.288 38.8008 1197.07 369.551 1771.17 96.3226" stroke="white" stroke-width="0.987317"/>
<path d="M87.6797 198.085C129.509 171.179 299.01 29.2305 603.578 29.2305C984.288 29.2305 1197.07 359.981 1771.17 86.7522" stroke="white" stroke-width="0.987317"/>
<path d="M87.6797 188.514C129.509 161.609 299.01 19.6602 603.578 19.6602C984.288 19.6602 1197.07 350.41 1771.17 77.1819" stroke="white" stroke-width="0.987317"/>
<path d="M87.6797 178.942C129.509 152.037 299.01 10.0879 603.578 10.0879C984.288 10.0879 1197.07 340.838 1771.17 67.6097" stroke="white" stroke-width="0.987317"/>
</g>
</g>
<defs>
<filter id="filter0_f_2556_93400" x="7.43736" y="321.193" width="756.161" height="1067.29" filterUnits="userSpaceOnUse" color-interpolation-filters="sRGB">
<feFlood flood-opacity="0" result="BackgroundImageFix"/>
<feBlend mode="normal" in="SourceGraphic" in2="BackgroundImageFix" result="shape"/>
<feGaussianBlur stdDeviation="83.9219" result="effect1_foregroundBlur_2556_93400"/>
</filter>
<filter id="filter1_f_2556_93400" x="42.2157" y="420.058" width="1825.95" height="912.92" filterUnits="userSpaceOnUse" color-interpolation-filters="sRGB">
<feFlood flood-opacity="0" result="BackgroundImageFix"/>
<feBlend mode="normal" in="SourceGraphic" in2="BackgroundImageFix" result="shape"/>
<feGaussianBlur stdDeviation="83.9219" result="effect1_foregroundBlur_2556_93400"/>
</filter>
<filter id="filter2_f_2556_93400" x="522.461" y="627.262" width="1043.85" height="846.131" filterUnits="userSpaceOnUse" color-interpolation-filters="sRGB">
<feFlood flood-opacity="0" result="BackgroundImageFix"/>
<feBlend mode="normal" in="SourceGraphic" in2="BackgroundImageFix" result="shape"/>
<feGaussianBlur stdDeviation="83.9219" result="effect1_foregroundBlur_2556_93400"/>
</filter>
<filter id="filter3_f_2556_93400" x="-352.685" y="-89.6251" width="1025.09" height="858.823" filterUnits="userSpaceOnUse" color-interpolation-filters="sRGB">
<feFlood flood-opacity="0" result="BackgroundImageFix"/>
<feBlend mode="normal" in="SourceGraphic" in2="BackgroundImageFix" result="shape"/>
<feGaussianBlur stdDeviation="83.9219" result="effect1_foregroundBlur_2556_93400"/>
</filter>
<filter id="filter4_f_2556_93400" x="31.5736" y="-111.252" width="511.723" height="744.438" filterUnits="userSpaceOnUse" color-interpolation-filters="sRGB">
<feFlood flood-opacity="0" result="BackgroundImageFix"/>
<feBlend mode="normal" in="SourceGraphic" in2="BackgroundImageFix" result="shape"/>
<feGaussianBlur stdDeviation="83.9219" result="effect1_foregroundBlur_2556_93400"/>
</filter>
</defs>
</svg>
