<svg width="1772" height="1157" viewBox="0 0 1772 1157" fill="none" xmlns="http://www.w3.org/2000/svg">
<g opacity="0.7">
<mask id="mask0_2412_105352" style="mask-type:alpha" maskUnits="userSpaceOnUse" x="209" y="2" width="1457" height="1081">
<rect x="209.581" y="2" width="1456" height="1081" fill="white"/>
</mask>
<g mask="url(#mask0_2412_105352)">
<g filter="url(#filter0_f_2412_105352)">
<path d="M175.278 432.037L429.638 432.037C429.638 432.037 938.36 1028.65 175.278 1163.64L175.278 432.037Z" fill="#EEF3FF"/>
</g>
<g filter="url(#filter1_f_2412_105352)">
<path d="M1686.85 1108.13L210.051 1108.13C210.051 1108.13 1293.31 259.237 1536.65 620.353C1766.89 962.023 1686.85 1108.13 1686.85 1108.13Z" fill="#5280FF" fill-opacity="0.06"/>
</g>
<g filter="url(#filter2_f_2412_105352)">
<path d="M886.087 738.106L1398.46 1248.55C1398.46 1248.55 1025 937.675 690.297 1228.2L886.087 738.106Z" fill="#00FFFF" fill-opacity="0.04"/>
</g>
<g filter="url(#filter3_f_2412_105352)">
<path d="M444.669 544.353L-184.849 181.464C-184.849 181.464 257.862 386.873 504.552 21.219L444.669 544.353Z" fill="#00FFFF" fill-opacity="0.04"/>
</g>
<g filter="url(#filter4_f_2412_105352)">
<path d="M199.412 404.65L199.412 -0.407395C199.412 -0.407395 458.296 296.709 348.168 363.452C243.971 426.601 199.412 404.65 199.412 404.65Z" fill="#5280FF" fill-opacity="0.08"/>
</g>
</g>
<g opacity="0.6">
<path d="M1.16895 1156.66C42.9985 1111.19 212.499 871.264 517.067 871.264C897.777 871.264 1110.56 1430.31 1684.66 968.488" stroke="white" stroke-width="0.987317"/>
<path d="M1.16895 655.175C42.9985 609.699 212.499 369.773 517.067 369.773C897.777 369.773 1110.56 928.815 1684.66 466.998" stroke="white" stroke-width="0.987317"/>
<path d="M1.16895 1140.49C42.9985 1095.01 212.499 855.086 517.067 855.086C897.777 855.086 1110.56 1414.13 1684.66 952.311" stroke="white" stroke-width="0.987317"/>
<path d="M1.16895 1124.31C42.9985 1078.84 212.499 838.91 517.067 838.91C897.777 838.91 1110.56 1397.95 1684.66 936.135" stroke="white" stroke-width="0.987317"/>
<path d="M1.16895 1108.13C42.9985 1062.66 212.499 822.732 517.067 822.732C897.777 822.732 1110.56 1381.77 1684.66 919.957" stroke="white" stroke-width="0.987317"/>
<path d="M1.16895 1091.96C42.9985 1046.48 212.499 806.555 517.067 806.555C897.777 806.555 1110.56 1365.6 1684.66 903.779" stroke="white" stroke-width="0.987317"/>
<path d="M1.16895 1075.78C42.9985 1030.3 212.499 790.379 517.067 790.379C897.777 790.379 1110.56 1349.42 1684.66 887.603" stroke="white" stroke-width="0.987317"/>
<path d="M1.16895 1059.6C42.9985 1014.13 212.499 774.201 517.067 774.201C897.777 774.201 1110.56 1333.24 1684.66 871.426" stroke="white" stroke-width="0.987317"/>
<path d="M1.16895 1043.42C42.9985 997.949 212.499 758.023 517.067 758.023C897.777 758.023 1110.56 1317.06 1684.66 855.248" stroke="white" stroke-width="0.987317"/>
<path d="M1.16895 1027.25C42.9985 981.773 212.499 741.848 517.067 741.848C897.777 741.848 1110.56 1300.89 1684.66 839.072" stroke="white" stroke-width="0.987317"/>
<path d="M1.16895 1011.07C42.9985 965.595 212.499 725.67 517.067 725.67C897.777 725.67 1110.56 1284.71 1684.66 822.895" stroke="white" stroke-width="0.987317"/>
<path d="M1.16895 994.893C42.9985 949.417 212.499 709.492 517.067 709.492C897.777 709.492 1110.56 1268.53 1684.66 806.717" stroke="white" stroke-width="0.987317"/>
<path d="M1.16895 978.718C42.9985 933.242 212.499 693.316 517.067 693.316C897.777 693.316 1110.56 1252.36 1684.66 790.541" stroke="white" stroke-width="0.987317"/>
<path d="M1.16895 962.54C42.9985 917.064 212.499 677.139 517.067 677.139C897.777 677.139 1110.56 1236.18 1684.66 774.363" stroke="white" stroke-width="0.987317"/>
<path d="M1.16895 946.362C42.9985 900.886 212.499 660.961 517.067 660.961C897.777 660.961 1110.56 1220 1684.66 758.186" stroke="white" stroke-width="0.987317"/>
<path d="M1.16895 930.186C42.9985 884.71 212.499 644.785 517.067 644.785C897.777 644.785 1110.56 1203.83 1684.66 742.01" stroke="white" stroke-width="0.987317"/>
<path d="M1.16895 914.009C42.9985 868.533 212.499 628.607 517.067 628.607C897.777 628.607 1110.56 1187.65 1684.66 725.832" stroke="white" stroke-width="0.987317"/>
<path d="M1.16895 897.831C42.9985 852.355 212.499 612.43 517.067 612.43C897.777 612.43 1110.56 1171.47 1684.66 709.654" stroke="white" stroke-width="0.987317"/>
<path d="M1.16895 881.653C42.9985 836.177 212.499 596.252 517.067 596.252C897.777 596.252 1110.56 1155.29 1684.66 693.477" stroke="white" stroke-width="0.987317"/>
<path d="M1.16895 865.477C42.9985 820.001 212.499 580.076 517.067 580.076C897.777 580.076 1110.56 1139.12 1684.66 677.301" stroke="white" stroke-width="0.987317"/>
<path d="M1.16895 849.3C42.9985 803.824 212.499 563.898 517.067 563.898C897.777 563.898 1110.56 1122.94 1684.66 661.123" stroke="white" stroke-width="0.987317"/>
<path d="M1.16895 833.122C42.9985 787.646 212.499 547.721 517.067 547.721C897.777 547.721 1110.56 1106.76 1684.66 644.945" stroke="white" stroke-width="0.987317"/>
<path d="M1.16895 816.946C42.9985 771.47 212.499 531.545 517.067 531.545C897.777 531.545 1110.56 1090.59 1684.66 628.77" stroke="white" stroke-width="0.987317"/>
<path d="M1.16895 800.768C42.9985 755.292 212.499 515.367 517.067 515.367C897.777 515.367 1110.56 1074.41 1684.66 612.592" stroke="white" stroke-width="0.987317"/>
<path d="M1.16895 784.591C42.9985 739.115 212.499 499.189 517.067 499.189C897.777 499.189 1110.56 1058.23 1684.66 596.414" stroke="white" stroke-width="0.987317"/>
<path d="M1.16895 768.415C42.9985 722.939 212.499 483.014 517.067 483.014C897.777 483.014 1110.56 1042.06 1684.66 580.238" stroke="white" stroke-width="0.987317"/>
<path d="M1.16895 752.237C42.9985 706.761 212.499 466.836 517.067 466.836C897.777 466.836 1110.56 1025.88 1684.66 564.061" stroke="white" stroke-width="0.987317"/>
<path d="M1.16895 736.061C42.9985 690.585 212.499 450.66 517.067 450.66C897.777 450.66 1110.56 1009.7 1684.66 547.885" stroke="white" stroke-width="0.987317"/>
<path d="M1.16895 719.884C42.9985 674.408 212.499 434.482 517.067 434.482C897.777 434.482 1110.56 993.524 1684.66 531.707" stroke="white" stroke-width="0.987317"/>
<path d="M1.16895 703.706C42.9985 658.23 212.499 418.305 517.067 418.305C897.777 418.305 1110.56 977.346 1684.66 515.529" stroke="white" stroke-width="0.987317"/>
<path d="M1.16895 687.528C42.9985 642.052 212.499 402.127 517.067 402.127C897.777 402.127 1110.56 961.168 1684.66 499.352" stroke="white" stroke-width="0.987317"/>
<path d="M1.16895 671.352C42.9985 625.876 212.499 385.951 517.067 385.951C897.777 385.951 1110.56 944.993 1684.66 483.176" stroke="white" stroke-width="0.987317"/>
</g>
<g opacity="0.8">
<path d="M87.6792 466.073C129.509 439.168 299.01 297.219 603.578 297.219C984.287 297.219 1197.07 627.969 1771.17 354.741" stroke="white" stroke-width="0.987317"/>
<path d="M87.6792 169.372C129.509 142.466 299.01 0.517578 603.578 0.517578C984.287 0.517578 1197.07 331.268 1771.17 58.0394" stroke="white" stroke-width="0.987317"/>
<path d="M87.6792 456.503C129.509 429.597 299.01 287.648 603.578 287.648C984.288 287.648 1197.07 618.399 1771.17 345.17" stroke="white" stroke-width="0.987317"/>
<path d="M87.6792 446.93C129.509 420.025 299.01 278.076 603.578 278.076C984.288 278.076 1197.07 608.826 1771.17 335.598" stroke="white" stroke-width="0.987317"/>
<path d="M87.6792 437.36C129.509 410.455 299.01 268.506 603.578 268.506C984.288 268.506 1197.07 599.256 1771.17 326.028" stroke="white" stroke-width="0.987317"/>
<path d="M87.6792 427.788C129.509 400.882 299.01 258.934 603.578 258.934C984.288 258.934 1197.07 589.684 1771.17 316.455" stroke="white" stroke-width="0.987317"/>
<path d="M87.6792 418.218C129.509 391.312 299.01 249.363 603.578 249.363C984.288 249.363 1197.07 580.114 1771.17 306.885" stroke="white" stroke-width="0.987317"/>
<path d="M87.6792 408.647C129.509 381.742 299.01 239.793 603.578 239.793C984.288 239.793 1197.07 570.543 1771.17 297.315" stroke="white" stroke-width="0.987317"/>
<path d="M87.6792 399.075C129.509 372.17 299.01 230.221 603.578 230.221C984.288 230.221 1197.07 560.971 1771.17 287.742" stroke="white" stroke-width="0.987317"/>
<path d="M87.6792 389.505C129.509 362.599 299.01 220.65 603.578 220.65C984.288 220.65 1197.07 551.401 1771.17 278.172" stroke="white" stroke-width="0.987317"/>
<path d="M87.6792 379.934C129.509 353.029 299.01 211.08 603.578 211.08C984.288 211.08 1197.07 541.83 1771.17 268.602" stroke="white" stroke-width="0.987317"/>
<path d="M87.6792 370.362C129.509 343.457 299.01 201.508 603.578 201.508C984.288 201.508 1197.07 532.258 1771.17 259.03" stroke="white" stroke-width="0.987317"/>
<path d="M87.6792 360.792C129.509 333.886 299.01 191.938 603.578 191.938C984.288 191.938 1197.07 522.688 1771.17 249.459" stroke="white" stroke-width="0.987317"/>
<path d="M87.6792 351.221C129.509 324.316 299.01 182.367 603.578 182.367C984.288 182.367 1197.07 513.117 1771.17 239.889" stroke="white" stroke-width="0.987317"/>
<path d="M87.6792 341.649C129.509 314.744 299.01 172.795 603.578 172.795C984.288 172.795 1197.07 503.545 1771.17 230.317" stroke="white" stroke-width="0.987317"/>
<path d="M87.6792 332.079C129.509 305.174 299.01 163.225 603.578 163.225C984.288 163.225 1197.07 493.975 1771.17 220.746" stroke="white" stroke-width="0.987317"/>
<path d="M87.6792 322.509C129.509 295.603 299.01 153.654 603.578 153.654C984.288 153.654 1197.07 484.405 1771.17 211.176" stroke="white" stroke-width="0.987317"/>
<path d="M87.6792 312.936C129.509 286.031 299.01 144.082 603.578 144.082C984.288 144.082 1197.07 474.832 1771.17 201.604" stroke="white" stroke-width="0.987317"/>
<path d="M87.6792 303.366C129.509 276.461 299.01 134.512 603.578 134.512C984.288 134.512 1197.07 465.262 1771.17 192.033" stroke="white" stroke-width="0.987317"/>
<path d="M87.6792 293.796C129.509 266.89 299.01 124.941 603.578 124.941C984.288 124.941 1197.07 455.692 1771.17 182.463" stroke="white" stroke-width="0.987317"/>
<path d="M87.6792 284.223C129.509 257.318 299.01 115.369 603.578 115.369C984.288 115.369 1197.07 446.119 1771.17 172.891" stroke="white" stroke-width="0.987317"/>
<path d="M87.6792 274.653C129.509 247.748 299.01 105.799 603.578 105.799C984.288 105.799 1197.07 436.549 1771.17 163.321" stroke="white" stroke-width="0.987317"/>
<path d="M87.6792 265.081C129.509 238.175 299.01 96.2266 603.578 96.2266C984.288 96.2266 1197.07 426.977 1771.17 153.748" stroke="white" stroke-width="0.987317"/>
<path d="M87.6792 255.51C129.509 228.605 299.01 86.6562 603.578 86.6562C984.288 86.6562 1197.07 417.406 1771.17 144.178" stroke="white" stroke-width="0.987317"/>
<path d="M87.6792 245.94C129.509 219.035 299.01 77.0859 603.578 77.0859C984.288 77.0859 1197.07 407.836 1771.17 134.608" stroke="white" stroke-width="0.987317"/>
<path d="M87.6792 236.368C129.509 209.463 299.01 67.5137 603.578 67.5137C984.288 67.5137 1197.07 398.264 1771.17 125.035" stroke="white" stroke-width="0.987317"/>
<path d="M87.6792 226.798C129.509 199.892 299.01 57.9434 603.578 57.9434C984.288 57.9434 1197.07 388.694 1771.17 115.465" stroke="white" stroke-width="0.987317"/>
<path d="M87.6792 217.227C129.509 190.322 299.01 48.373 603.578 48.373C984.288 48.373 1197.07 379.123 1771.17 105.895" stroke="white" stroke-width="0.987317"/>
<path d="M87.6792 207.655C129.509 180.75 299.01 38.8008 603.578 38.8008C984.288 38.8008 1197.07 369.551 1771.17 96.3226" stroke="white" stroke-width="0.987317"/>
<path d="M87.6792 198.085C129.509 171.179 299.01 29.2305 603.578 29.2305C984.288 29.2305 1197.07 359.981 1771.17 86.7522" stroke="white" stroke-width="0.987317"/>
<path d="M87.6792 188.514C129.509 161.609 299.01 19.6602 603.578 19.6602C984.288 19.6602 1197.07 350.41 1771.17 77.1819" stroke="white" stroke-width="0.987317"/>
<path d="M87.6792 178.942C129.509 152.037 299.01 10.0879 603.578 10.0879C984.288 10.0879 1197.07 340.838 1771.17 67.6097" stroke="white" stroke-width="0.987317"/>
</g>
</g>
<defs>
<filter id="filter0_f_2412_105352" x="7.43394" y="264.193" width="756.161" height="1067.29" filterUnits="userSpaceOnUse" color-interpolation-filters="sRGB">
<feFlood flood-opacity="0" result="BackgroundImageFix"/>
<feBlend mode="normal" in="SourceGraphic" in2="BackgroundImageFix" result="shape"/>
<feGaussianBlur stdDeviation="83.9219" result="effect1_foregroundBlur_2412_105352"/>
</filter>
<filter id="filter1_f_2412_105352" x="42.2074" y="363.058" width="1825.95" height="912.92" filterUnits="userSpaceOnUse" color-interpolation-filters="sRGB">
<feFlood flood-opacity="0" result="BackgroundImageFix"/>
<feBlend mode="normal" in="SourceGraphic" in2="BackgroundImageFix" result="shape"/>
<feGaussianBlur stdDeviation="83.9219" result="effect1_foregroundBlur_2412_105352"/>
</filter>
<filter id="filter2_f_2412_105352" x="522.453" y="570.262" width="1043.85" height="846.131" filterUnits="userSpaceOnUse" color-interpolation-filters="sRGB">
<feFlood flood-opacity="0" result="BackgroundImageFix"/>
<feBlend mode="normal" in="SourceGraphic" in2="BackgroundImageFix" result="shape"/>
<feGaussianBlur stdDeviation="83.9219" result="effect1_foregroundBlur_2412_105352"/>
</filter>
<filter id="filter3_f_2412_105352" x="-352.693" y="-146.625" width="1025.09" height="858.823" filterUnits="userSpaceOnUse" color-interpolation-filters="sRGB">
<feFlood flood-opacity="0" result="BackgroundImageFix"/>
<feBlend mode="normal" in="SourceGraphic" in2="BackgroundImageFix" result="shape"/>
<feGaussianBlur stdDeviation="83.9219" result="effect1_foregroundBlur_2412_105352"/>
</filter>
<filter id="filter4_f_2412_105352" x="31.5677" y="-168.252" width="511.723" height="744.438" filterUnits="userSpaceOnUse" color-interpolation-filters="sRGB">
<feFlood flood-opacity="0" result="BackgroundImageFix"/>
<feBlend mode="normal" in="SourceGraphic" in2="BackgroundImageFix" result="shape"/>
<feGaussianBlur stdDeviation="83.9219" result="effect1_foregroundBlur_2412_105352"/>
</filter>
</defs>
</svg>
