<svg width="70" height="70" viewBox="0 0 70 70" fill="none" xmlns="http://www.w3.org/2000/svg">
<path d="M36.9986 61.5513C36.9782 62.1663 35.7499 64.2582 34.1858 63.1687C33.3615 62.5412 32.9905 61.7043 33.0563 60.6791C33.2336 57.9942 36.2393 55.1046 35.3506 52.3491C35.2 51.8682 35.0149 51.658 34.7404 51.0117C33.8329 48.8539 33.5544 46.0702 34.4509 43.8394C34.5451 43.586 34.7435 43.2072 34.76 43.1742C35.964 40.8211 35.8581 37.4664 35.1851 35.2521C34.9686 34.5461 34.8337 34.3265 34.6117 33.8935C33.6289 31.9765 33.2281 30.2376 34.2376 28.3292C34.7027 27.4233 35.233 27.0585 35.6879 25.7721C36.0017 24.8513 35.9883 23.9971 35.7985 23.3578C35.7616 23.3165 35.7188 23.2808 35.6714 23.252C35.942 24.1061 35.8581 25.3745 35.062 26.6883C34.5702 27.5127 33.2014 28.8767 33.4548 31.1647C33.6274 32.7287 34.447 33.9885 34.7333 34.6426C35.5428 36.5628 35.8017 40.0548 34.88 42.4307C34.5663 43.2739 33.3764 44.8787 33.8085 48.1997C33.9318 49.1901 34.1894 50.1591 34.5741 51.0799C34.9608 51.9914 35.8158 52.8958 34.9835 55.1704C34.2996 57.0435 32.9646 58.8311 32.8289 60.6611C32.7426 61.8431 33.2501 62.8048 34.0321 63.375C34.9953 64.0872 36.0205 63.7876 36.848 62.9044C37.1225 62.6102 37.6096 61.9631 37.6363 61.5521L36.9986 61.5513Z" fill="#006F8C"/>
<path d="M35.5467 23.0391C34.3606 23.4289 33.15 23.7396 31.9229 23.9693C32.7982 23.8909 34.0713 23.6485 35.5012 23.2069C36.6542 24.5121 38.4394 26.4142 40.0301 27.1476C38.4998 26.2879 36.7303 24.3435 35.5467 23.0391Z" fill="#C96706"/>
<path d="M36.4104 36.1819C35.6009 37.8479 34.2722 41.045 34.3153 42.9016C34.3483 44.5323 35.8943 48.7444 35.3421 50.6669C34.24 54.4586 30.8562 57.5694 34.1231 60.9038C34.9711 61.747 35.9703 62.5337 36.2998 63.6812C36.5265 64.4342 36.3633 65.3755 36.1029 66.0281C35.4621 67.6368 33.8 68.9263 31.25 69.0259V68.3145C33.4321 68.7985 35.8817 67.447 36.1916 64.8437C36.492 62.1697 33.396 61.5799 32.643 58.9797C31.8587 56.3065 34.2118 53.5118 35.062 50.5916C35.5146 49.0119 34.4424 45.7959 34.0745 43.5322C34.0808 43.475 33.5176 41.7902 35.7876 37.1875C35.9633 36.8306 36.1562 36.4658 36.3523 36.1191L36.4104 36.1819Z" fill="#069EC1"/>
<path d="M35.563 29.168C33.6358 35.9787 37.8785 38.9891 44.0123 37.1043C44.7168 36.8928 45.4021 36.6222 46.0611 36.2956C44.3864 37.2164 42.453 37.7302 40.7713 37.7592C36.4808 37.8549 34.41 35.0359 35.1238 30.8818C35.2265 30.2951 35.4015 29.739 35.563 29.168Z" fill="#E03405"/>
<path d="M32.5863 33.2578C33.3652 35.5599 34.5229 39.2457 35.0288 41.6302C35.3912 43.2923 35.3481 43.9143 35.1136 44.8901C34.4453 47.6864 31.6866 51.8592 33.3095 56.4282C33.6515 57.3592 34.268 58.5225 35.1504 58.9955C35.5372 59.2064 35.9865 59.2727 36.4177 59.1824C36.8489 59.0922 37.2338 58.8512 37.5035 58.5029C38.3209 57.3592 37.6541 55.4156 36.203 54.6696L36.6289 54.1245C37.8604 55.0932 38.5318 56.7521 38.0079 58.164C37.5373 59.3782 35.6069 60.1759 34.1778 58.448C33.0075 56.9882 32.34 54.6155 32.6875 52.133C32.8655 50.8388 33.377 49.1257 33.8405 47.9044C35.0955 44.5967 35.3379 44.0688 34.8061 41.6796C34.257 39.2104 33.1306 35.7396 32.3008 33.3606L32.5863 33.2578Z" fill="#00A0C8"/>
<path d="M36.6243 54.1245C37.8055 55.0516 38.5067 56.6408 38.0589 58.0463C37.8118 58.9939 36.5521 59.7822 35.3394 59.3359C33.3001 58.597 32.784 55.5873 32.7181 55.2783C32.6679 54.8657 31.9376 53.0554 33.6797 48.2236C34.9167 44.8681 35.3387 44.3512 34.8108 41.8389C34.2696 39.3391 33.1283 35.7772 32.3008 33.3574C33.0961 35.6101 34.7582 40.5556 35.0563 42.9197C35.3449 45.1771 34.0539 46.7184 33.0954 50.3579C32.2043 53.7543 32.7659 54.9332 32.8922 55.6697L33.0012 56.0689C33.4224 57.3239 34.1072 58.8339 35.3583 59.2912C36.5176 59.7218 37.7435 59.0002 38.0251 58.0362C38.2557 57.3302 38.1922 56.5709 37.9247 55.8791C37.6526 55.1903 37.2041 54.5852 36.6243 54.1245Z" fill="#097189"/>
<path d="M34.6014 25.6523C34.6014 25.6712 34.6595 26.2398 34.6563 26.2014C34.6563 26.2092 34.6924 26.7913 34.69 26.7544C34.69 26.7622 34.7034 27.345 34.7026 27.3082C34.7026 27.7521 34.6524 28.4196 34.6524 28.4126C34.6524 28.4282 34.5842 28.9961 34.5881 28.9616C34.5328 29.3251 34.4593 29.6856 34.3677 30.0417C32.3895 37.4391 22.4899 34.2914 18.7422 29.8605C22.4413 34.5589 32.5754 37.5474 34.461 30.066C34.6493 29.3962 34.7308 28.3404 34.723 28.4188C34.723 28.411 34.7504 27.8266 34.7481 27.8635C34.734 27.5497 34.803 27.1395 34.6014 25.6523Z" fill="#643596"/>
<g opacity="0.74">
<path d="M47.31 16.9325C47.5618 18.6244 42.043 20.5838 42.043 20.5838C42.043 20.5838 42.9544 26.6384 41.4155 27.1882C39.8765 27.7381 35.5711 22.8938 35.5711 22.8938C35.5711 22.8938 30.0601 24.8712 28.8553 23.5213C27.6505 22.1714 30.5103 17.2157 30.5103 17.2157C30.5103 17.2157 26.1963 12.3824 26.9901 10.9964C27.7839 9.61042 33.8573 11.3941 33.8573 11.3941C33.8573 11.3941 36.699 6.42978 38.3964 6.92315C40.0938 7.41652 40.9849 13.4742 40.9849 13.4742C40.9849 13.4742 47.0575 15.2399 47.31 16.9325Z" fill="url(#paint0_linear_2388_193899)"/>
<g style="mix-blend-mode:multiply">
<path d="M40.2257 19.2339C40.2257 19.2339 38.8138 21.1485 34.2072 19.5704C31.5301 18.6542 28.9519 14.2562 27.2631 10.7266C27.1499 10.7906 27.0551 10.8827 26.9878 10.994C26.1909 12.38 30.5081 17.2133 30.5081 17.2133C30.5081 17.2133 27.6483 22.1659 28.8531 23.5189C30.0578 24.8719 35.5681 22.8914 35.5681 22.8914C35.5681 22.8914 39.8719 27.7365 41.4132 27.1858C42.9545 26.6352 42.0407 20.5814 42.0407 20.5814C42.0407 20.5814 47.5596 18.6205 47.3078 16.9302C44.6762 20.0543 40.2257 19.2339 40.2257 19.2339Z" fill="#FCEE21"/>
</g>
<path d="M47.0296 17.6893C46.8574 17.8993 46.6598 18.0872 46.4413 18.2486C44.9259 19.4079 41.8543 20.4276 41.8276 20.4393C42.0998 26.6241 42.7265 30.2385 35.6036 22.6615C34.2247 23.1415 30.004 24.6475 28.8525 23.518C29.9201 24.7448 34.1274 23.5698 35.5197 23.1258C41.5202 29.9091 43.4419 28.4298 42.2583 20.7217C43.6333 20.1805 45.4499 19.3216 46.5339 18.3592C46.745 18.1779 46.9323 17.9708 47.0916 17.7427C47.2422 17.5113 47.3543 17.2313 47.3065 16.9355C47.3316 17.2265 47.1967 17.4807 47.0296 17.6893Z" fill="#F4A811"/>
<g style="mix-blend-mode:screen">
<path d="M33.8073 12.6722C30.742 11.6408 28.672 13.0181 28.4163 12.1231C28.1049 11.0274 32.7492 12.1428 33.8073 12.6722Z" fill="#FCEE21"/>
</g>
<g style="mix-blend-mode:screen">
<path d="M34.9414 12.1426C35.2999 11.2131 36.8239 7.70696 37.6083 8.48741C38.2068 9.09217 37.0043 8.84823 34.9414 12.1426Z" fill="#FCEE21"/>
</g>
<g style="mix-blend-mode:screen">
<path d="M39.5674 14.8959C41.2067 14.8081 46.1396 15.3516 45.7851 16.4066C45.6588 16.7823 45.2141 16.5572 45.2431 16.5635C43.5261 15.5681 41.4413 15.0371 39.5674 14.8959Z" fill="#FCEE21"/>
</g>
</g>
<path d="M32.0174 19.1892C34.9109 22.7879 36.1071 30.3618 32.4417 33.3079C28.7763 36.254 21.6354 33.4608 18.7418 29.8614C15.8483 26.2619 16.4742 20.9556 20.1404 18.0079C23.8065 15.0602 29.1238 15.5897 32.0174 19.1892Z" fill="url(#paint1_linear_2388_193899)"/>
<path d="M25.86 18.5447L25.2082 18.4631L25.016 19.0906L24.8929 18.4459L24.2363 18.4576L24.8113 18.1408L24.5979 17.5195L25.0764 17.969L25.6011 17.5737L25.3219 18.1682L25.86 18.5447Z" fill="#F5DD7D"/>
<path d="M27.3686 20.082L27.6525 21.5527L29.1499 21.5253L27.8392 22.25L28.3279 23.665L27.2337 22.6422L26.0383 23.545L26.6728 22.1881L25.4453 21.33L26.9317 21.5151L27.3686 20.082Z" fill="#F5DD7D"/>
<path d="M26.1893 27.8714L25.4081 27.011L24.4269 27.633L25.0034 26.6243L24.1084 25.883L25.2465 26.1191L25.6748 25.0391L25.8011 26.1944L26.9612 26.2682L25.9015 26.7459L26.1893 27.8714Z" fill="#FFF0B0"/>
<path d="M23.7302 22.1934L23.0125 22.4052L23.098 23.1488L22.6744 22.5315L21.9944 22.8429L22.4501 22.2491L21.9434 21.6985L22.6493 21.9487L23.0164 21.2969L22.9968 22.0452L23.7302 22.1934Z" fill="#FFF0B0"/>
<path d="M31.1041 21.0768L30.3793 20.4297L29.6185 21.0321L30.0091 20.1434L29.2012 19.6053L30.1675 19.7033L30.4287 18.7676L30.635 19.7167L31.6053 19.6774L30.766 20.1661L31.1041 21.0768Z" fill="#FFF0B0"/>
<path d="M31.25 24.7471L30.7534 24.8295L30.7495 25.3331L30.5173 24.886L30.0381 25.0382L30.3911 24.6797L30.0977 24.2703L30.5479 24.4946L30.8468 24.0898L30.7723 24.5879L31.25 24.7471Z" fill="#FFF0B0"/>
<path d="M19.4756 27.2329L18.9273 27.1458L18.7469 27.6714L18.6606 27.1223L18.1045 27.1137L18.6002 26.8611L18.4371 26.3301L18.8293 26.7238L19.2842 26.4038L19.0316 26.8987L19.4756 27.2329Z" fill="#FFF0B0"/>
<path d="M27.881 32.2783L26.6982 31.9237L26.1452 33.0281L26.1177 31.7928L24.8965 31.6084L26.0621 31.2006L25.8605 29.9824L26.608 30.9645L27.7045 30.3966L27.0017 31.4115L27.881 32.2783Z" fill="#F7DE00"/>
<path d="M31.2499 28.8977L30.5157 28.5118L30.0098 29.1691L30.1494 28.3518L29.3682 28.0741L30.1886 27.9541L30.2114 27.125L30.5792 27.8686L31.3746 27.6341L30.7808 28.2129L31.2499 28.8977Z" fill="#F7DE00"/>
<path d="M23.2172 29.4179L22.5473 29.3347L22.3512 29.9795L22.2234 29.3175L21.5488 29.3292L22.1395 29.0029L21.9191 28.3652L22.4116 28.8264L22.9505 28.4201L22.6642 29.0312L23.2172 29.4179Z" fill="#F7DE00"/>
<path d="M23.2172 31.9723L22.9882 32.0287L23.0047 32.264L22.88 32.064L22.6611 32.1527L22.8125 31.9723L22.6611 31.7911L22.88 31.8797L23.0047 31.6797L22.9882 31.915L23.2172 31.9723Z" fill="#F7DE00"/>
<path d="M31.9288 31.2538L31.4903 31.1197L31.2825 31.5283L31.2746 31.0695L30.8213 30.9989L31.2558 30.8499L31.1829 30.3965L31.459 30.7628L31.8676 30.5541L31.6041 30.9299L31.9288 31.2538Z" fill="#F7DE00"/>
<g style="mix-blend-mode:multiply" opacity="0.42">
<path d="M31.5833 30.5806C27.9171 33.5275 20.777 30.7335 17.8834 27.1341C17.5424 26.7104 17.2442 26.254 16.9932 25.7716C17.1877 27.2707 17.7928 28.6868 18.7415 29.8637C21.6351 33.4632 28.7752 36.2579 32.4414 33.3102C35.3585 30.9642 35.1969 25.6892 33.5505 21.8184C34.2596 25.1512 33.8517 28.7538 31.5833 30.5806Z" fill="#9657CE"/>
</g>
<path style="mix-blend-mode:screen" opacity="0.23" d="M20.1405 18.0085C19.2079 18.7537 18.4414 19.6857 17.8901 20.7446C17.3389 21.8034 17.015 22.9659 16.9395 24.1572C17.0153 24.2566 17.0937 24.356 17.1748 24.4553C21.0355 29.2572 26.9426 30.917 30.3687 28.1623C32.6693 26.3127 33.2654 22.9422 32.2402 19.4738C32.1681 19.376 32.0946 19.2808 32.0198 19.1882C29.1239 15.5887 23.8059 15.0609 20.1405 18.0085Z" fill="url(#paint2_linear_2388_193899)"/>
<g style="mix-blend-mode:screen">
<path d="M20.2469 19.7767C21.7733 17.8605 24.4637 16.9569 26.0513 17.3279C27.9832 17.6958 29.7379 19.5759 30.6791 21.2568C29.5182 19.965 27.6522 18.3139 25.9085 18.1303C25.1352 18.0111 23.5852 18.2825 21.9922 19.4151C21.5989 19.6942 21.2291 20.0048 20.8862 20.3438C20.5034 20.7305 19.9057 20.2042 20.2469 19.7767Z" fill="#AC78EF"/>
</g>
<g opacity="0.81">
<path d="M48.1538 34.8365C45.3426 37.4994 39.0943 39.014 36.3819 36.1511C33.6695 33.2881 35.5191 27.1308 38.3295 24.4639C41.1399 21.797 45.6187 21.9626 48.331 24.8263C51.0434 27.69 50.965 32.1727 48.1538 34.8365Z" fill="#FF7B0F"/>
<path d="M38.6044 35.2487C35.8912 32.3857 37.7415 26.2284 40.552 23.5615C40.8831 23.2478 41.2443 22.9674 41.6305 22.7246C40.3907 22.9891 39.2481 23.5912 38.3291 24.4643C35.5179 27.1273 33.6683 33.2846 36.3814 36.1515C38.54 38.4301 42.938 37.936 46.0606 36.2966C43.3239 37.1163 40.2837 37.0229 38.6044 35.2487Z" fill="#FE490F"/>
<g style="mix-blend-mode:screen" opacity="0.64">
<path d="M48.3305 24.8297C47.644 24.1015 46.8129 23.5247 45.8905 23.1365C44.968 22.7483 43.9747 22.5572 42.974 22.5754C42.8956 22.646 42.8172 22.7174 42.7387 22.7903C38.9886 26.3435 38.0035 31.3933 40.5425 34.0688C42.2446 35.8658 45.102 36.1349 47.9305 35.0422C48.0089 34.9748 48.0827 34.9073 48.1548 34.8391C50.9644 32.173 51.0437 27.6927 48.3305 24.8297Z" fill="#F15A24"/>
</g>
<g style="mix-blend-mode:screen" opacity="0.58">
<path d="M46.8607 25.0397C48.5659 26.1849 49.504 28.3717 49.3024 29.7264C49.126 31.3657 47.6741 32.9572 46.3336 33.8624C47.3337 32.805 48.5871 31.1327 48.6216 29.6628C48.6695 29.0087 48.3369 27.7317 47.2819 26.4775C47.0221 26.167 46.7372 25.8785 46.4301 25.6147C46.081 25.3213 46.4803 24.784 46.8607 25.0397Z" fill="#FFA694"/>
</g>
</g>
<path d="M52.2842 13.6328L51.0165 14.326L50.3232 15.5937L49.63 14.326L48.3623 13.6328L49.63 12.9396L50.3232 11.6719L51.0165 12.9396L52.2842 13.6328Z" fill="#FFCD02" fill-opacity="0.3"/>
<path d="M25.5371 39.2832L24.2694 39.9764L23.5762 41.2441L22.8829 39.9764L21.6152 39.2832L22.8829 38.59L23.5762 37.3223L24.2694 38.59L25.5371 39.2832Z" fill="#FFCD02" fill-opacity="0.3"/>
<path d="M53.4607 38.891L52.4466 39.4456L51.892 40.4598L51.3374 39.4456L50.3232 38.891L51.3374 38.3364L51.892 37.3223L52.4466 38.3364L53.4607 38.891Z" fill="#FFCD02"/>
<path d="M24.6746 12.6918L23.6604 13.2464L23.1059 14.2605L22.5513 13.2464L21.5371 12.6918L22.5513 12.1372L23.1059 11.123L23.6604 12.1372L24.6746 12.6918Z" fill="#FFCD02"/>
<path d="M39.4205 1.94609L38.6599 2.36202L38.2439 3.12265L37.828 2.36202L37.0674 1.94609L37.828 1.53016L38.2439 0.769531L38.6599 1.53016L39.4205 1.94609Z" fill="#FFCD02"/>
<defs>
<linearGradient id="paint0_linear_2388_193899" x1="35.7429" y1="24.541" x2="38.6051" y2="2.83029" gradientUnits="userSpaceOnUse">
<stop stop-color="#F2E417"/>
<stop offset="1" stop-color="#FFFC9E"/>
</linearGradient>
<linearGradient id="paint1_linear_2388_193899" x1="31.1859" y1="34.1731" x2="21.2707" y2="17.6855" gradientUnits="userSpaceOnUse">
<stop stop-color="#A35AD9"/>
<stop offset="1" stop-color="#C48CED"/>
</linearGradient>
<linearGradient id="paint2_linear_2388_193899" x1="28.4878" y1="29.6141" x2="20.8778" y2="14.3949" gradientUnits="userSpaceOnUse">
<stop stop-color="#A35AD9"/>
<stop offset="1" stop-color="#C48CED"/>
</linearGradient>
</defs>
</svg>
