<svg width="20" height="22" viewBox="0 0 20 22" fill="none" xmlns="http://www.w3.org/2000/svg">
<path d="M19.0175 14.3862C17.8146 13.2476 16.8962 12.0501 16.8962 7.9888C16.8614 6.32419 16.2088 4.73201 15.0653 3.52183C13.9218 2.31164 12.3691 1.56994 10.7092 1.44093V0.68851C10.7092 0.505906 10.6366 0.330781 10.5075 0.20166C10.3784 0.0725393 10.2033 0 10.0207 0C9.83806 0 9.66293 0.0725393 9.53381 0.20166C9.40469 0.330781 9.33215 0.505906 9.33215 0.68851V1.44002C7.66779 1.56718 6.10977 2.30725 4.95964 3.517C3.80951 4.72674 3.14906 6.32014 3.1061 7.9888C3.1061 12.0492 2.18778 13.2467 0.984817 14.3862C0.691871 14.6624 0.489052 15.0206 0.402851 15.4139C0.316651 15.8073 0.351078 16.2174 0.501636 16.5909C0.666913 16.9727 0.940093 17.2979 1.28762 17.5265C1.63516 17.7552 2.04191 17.8774 2.45793 17.8781H17.5816C17.9887 17.8815 18.3877 17.7646 18.7288 17.5423C19.0698 17.3199 19.3377 17.0019 19.4989 16.628C19.6526 16.2492 19.6889 15.8328 19.603 15.4331C19.5172 15.0333 19.3132 14.6686 19.0175 14.3862ZM17.5816 16.5002H2.45702C2.32903 16.5076 2.20181 16.476 2.09212 16.4097C1.98242 16.3433 1.8954 16.2453 1.8425 16.1285C1.78961 16.0117 1.77333 15.8817 1.7958 15.7555C1.81827 15.6292 1.87845 15.5128 1.9684 15.4214C3.4669 13.9928 4.51938 12.3973 4.51938 8.02688C4.52871 7.3177 4.67899 6.61746 4.96149 5.96691C5.24398 5.31636 5.65303 4.72849 6.16485 4.23751C6.67667 3.74653 7.28102 3.36224 7.94275 3.10702C8.60447 2.8518 9.31035 2.73073 10.0193 2.75087C10.7244 2.73339 11.4261 2.85504 12.0842 3.10887C12.7423 3.36269 13.3439 3.74371 13.8547 4.23015C14.3654 4.71659 14.7753 5.29891 15.0609 5.94384C15.3466 6.58877 15.5023 7.28366 15.5192 7.9888C15.5192 12.3456 16.5608 13.9529 18.0702 15.3834C18.1638 15.4763 18.2271 15.5953 18.2518 15.7249C18.2764 15.8544 18.2614 15.9884 18.2085 16.1092C18.1557 16.23 18.0675 16.332 17.9556 16.4018C17.8437 16.4716 17.7133 16.5059 17.5816 16.5002ZM12.0862 19.2497C11.9322 19.2453 11.7805 19.2876 11.651 19.3711C11.5216 19.4546 11.4204 19.5754 11.361 19.7175C11.2518 19.9917 11.061 20.2258 10.8143 20.3879C10.5677 20.5501 10.2772 20.6325 9.98213 20.624C9.69178 20.6317 9.40628 20.5485 9.16556 20.3859C8.92485 20.2234 8.74094 19.9897 8.63956 19.7175C8.59334 19.5737 8.50029 19.4495 8.37526 19.3647C8.25022 19.2799 8.10041 19.2394 7.94969 19.2497C7.8455 19.2467 7.74207 19.2685 7.64796 19.3133C7.55384 19.3581 7.47174 19.4246 7.40842 19.5074C7.3451 19.5902 7.30238 19.6869 7.28379 19.7895C7.26521 19.8921 7.27128 19.9976 7.30152 20.0973C7.50002 20.6541 7.8659 21.1359 8.34898 21.4765C8.83207 21.8171 9.4087 22 9.99981 22C10.5909 22 11.1676 21.8171 11.6506 21.4765C12.1337 21.1359 12.4996 20.6541 12.6981 20.0973C12.7392 20.0006 12.7546 19.8949 12.7429 19.7905C12.7312 19.6861 12.6927 19.5865 12.6311 19.5013C12.5696 19.4161 12.4871 19.3483 12.3916 19.3044C12.2961 19.2605 12.1909 19.241 12.0862 19.2497Z" fill="#283754"/>
</svg>
