<svg width="20" height="23" viewBox="0 0 20 23" fill="none" xmlns="http://www.w3.org/2000/svg">
<path d="M19.0151 14.4253C17.8121 13.2866 16.8938 12.0891 16.8938 8.02786C16.859 6.36325 16.2064 4.77107 15.0629 3.56089C13.9194 2.3507 12.3667 1.609 10.7067 1.47999V0.727573C10.7067 0.544968 10.6342 0.369843 10.5051 0.240722C10.3759 0.111602 10.2008 0.0390625 10.0182 0.0390625C9.83561 0.0390625 9.66049 0.111602 9.53137 0.240722C9.40225 0.369843 9.32971 0.544968 9.32971 0.727573V1.47909C7.66534 1.60624 6.10733 2.34631 4.9572 3.55606C3.80707 4.7658 3.14661 6.3592 3.10366 8.02786C3.10366 12.0882 2.18534 13.2857 0.982375 14.4253C0.68943 14.7015 0.48661 15.0597 0.40041 15.453C0.31421 15.8463 0.348637 16.2565 0.499194 16.6299C0.664472 17.0117 0.937651 17.3369 1.28518 17.5656C1.63271 17.7943 2.03947 17.9165 2.45549 17.9172H17.5791C17.9863 17.9205 18.3853 17.8037 18.7263 17.5813C19.0674 17.359 19.3353 17.041 19.4965 16.6671C19.6502 16.2882 19.6864 15.8719 19.6006 15.4721C19.5148 15.0724 19.3108 14.7076 19.0151 14.4253ZM17.5791 16.5393H2.45458C2.32659 16.5467 2.19937 16.5151 2.08968 16.4487C1.97998 16.3824 1.89296 16.2844 1.84006 16.1676C1.78717 16.0508 1.77089 15.9207 1.79336 15.7945C1.81583 15.6683 1.87601 15.5519 1.96596 15.4605C3.46446 14.0318 4.51694 12.4363 4.51694 8.06594C4.52627 7.35676 4.67655 6.65652 4.95904 6.00597C5.24154 5.35542 5.65059 4.76755 6.16241 4.27657C6.67423 3.78559 7.27858 3.40131 7.94031 3.14608C8.60203 2.89086 9.30791 2.76979 10.0169 2.78993C10.722 2.77246 11.4236 2.89411 12.0817 3.14793C12.7398 3.40175 13.3414 3.78277 13.8522 4.26921C14.363 4.75565 14.7729 5.33798 15.0585 5.9829C15.3441 6.62783 15.4998 7.32272 15.5168 8.02786C15.5168 12.3847 16.5584 13.9919 18.0678 15.4224C18.1613 15.5153 18.2246 15.6344 18.2493 15.7639C18.274 15.8935 18.2589 16.0274 18.2061 16.1483C18.1532 16.2691 18.0651 16.3711 17.9532 16.4409C17.8413 16.5106 17.7109 16.545 17.5791 16.5393ZM12.0837 19.2888C11.9298 19.2844 11.778 19.3267 11.6486 19.4102C11.5191 19.4937 11.418 19.6144 11.3585 19.7566C11.2494 20.0308 11.0585 20.2648 10.8119 20.427C10.5653 20.5891 10.2747 20.6716 9.97969 20.6631C9.68934 20.6708 9.40384 20.5875 9.16312 20.425C8.9224 20.2624 8.7385 20.0287 8.63712 19.7566C8.5909 19.6127 8.49785 19.4885 8.37282 19.4038C8.24778 19.319 8.09796 19.2785 7.94725 19.2888C7.84306 19.2857 7.73963 19.3075 7.64552 19.3523C7.5514 19.3972 7.4693 19.4637 7.40598 19.5465C7.34266 19.6293 7.29994 19.726 7.28135 19.8286C7.26277 19.9311 7.26884 20.0366 7.29908 20.1364C7.49758 20.6932 7.86346 21.1749 8.34654 21.5156C8.82963 21.8562 9.40626 22.0391 9.99737 22.0391C10.5885 22.0391 11.1651 21.8562 11.6482 21.5156C12.1313 21.1749 12.4972 20.6932 12.6957 20.1364C12.7368 20.0397 12.7522 19.934 12.7405 19.8296C12.7287 19.7251 12.6902 19.6255 12.6287 19.5403C12.5671 19.4552 12.4846 19.3873 12.3891 19.3434C12.2937 19.2995 12.1885 19.2801 12.0837 19.2888Z" fill="#283754"/>
</svg>
