<svg width="20" height="22" viewBox="0 0 20 22" fill="none" xmlns="http://www.w3.org/2000/svg">
<path d="M19.0151 14.3862C17.8121 13.2476 16.8938 12.0501 16.8938 7.9888C16.859 6.32419 16.2064 4.73201 15.0629 3.52183C13.9194 2.31164 12.3667 1.56994 10.7067 1.44093V0.68851C10.7067 0.505906 10.6342 0.330781 10.5051 0.20166C10.3759 0.0725393 10.2008 0 10.0182 0C9.83561 0 9.66049 0.0725393 9.53137 0.20166C9.40225 0.330781 9.32971 0.505906 9.32971 0.68851V1.44002C7.66534 1.56718 6.10733 2.30725 4.9572 3.517C3.80707 4.72674 3.14661 6.32014 3.10366 7.9888C3.10366 12.0492 2.18534 13.2467 0.982375 14.3862C0.68943 14.6624 0.48661 15.0206 0.40041 15.4139C0.31421 15.8073 0.348637 16.2174 0.499194 16.5909C0.664472 16.9727 0.937651 17.2979 1.28518 17.5265C1.63271 17.7552 2.03947 17.8774 2.45549 17.8781H17.5791C17.9863 17.8815 18.3853 17.7646 18.7263 17.5423C19.0674 17.3199 19.3353 17.0019 19.4965 16.628C19.6502 16.2492 19.6864 15.8328 19.6006 15.4331C19.5148 15.0333 19.3108 14.6686 19.0151 14.3862ZM17.5791 16.5002H2.45458C2.32659 16.5076 2.19937 16.476 2.08968 16.4097C1.97998 16.3433 1.89296 16.2453 1.84006 16.1285C1.78717 16.0117 1.77089 15.8817 1.79336 15.7555C1.81583 15.6292 1.87601 15.5128 1.96596 15.4214C3.46446 13.9928 4.51694 12.3973 4.51694 8.02688C4.52627 7.3177 4.67655 6.61746 4.95904 5.96691C5.24154 5.31636 5.65059 4.72849 6.16241 4.23751C6.67423 3.74653 7.27858 3.36224 7.94031 3.10702C8.60203 2.8518 9.30791 2.73073 10.0169 2.75087C10.722 2.73339 11.4236 2.85504 12.0817 3.10887C12.7398 3.36269 13.3414 3.74371 13.8522 4.23015C14.363 4.71659 14.7729 5.29891 15.0585 5.94384C15.3441 6.58877 15.4998 7.28366 15.5168 7.9888C15.5168 12.3456 16.5584 13.9529 18.0678 15.3834C18.1613 15.4763 18.2246 15.5953 18.2493 15.7249C18.274 15.8544 18.2589 15.9884 18.2061 16.1092C18.1532 16.23 18.0651 16.332 17.9532 16.4018C17.8413 16.4716 17.7109 16.5059 17.5791 16.5002ZM12.0837 19.2497C11.9298 19.2453 11.778 19.2876 11.6486 19.3711C11.5191 19.4546 11.418 19.5754 11.3585 19.7175C11.2494 19.9917 11.0585 20.2258 10.8119 20.3879C10.5653 20.5501 10.2747 20.6325 9.97969 20.624C9.68934 20.6317 9.40384 20.5485 9.16312 20.3859C8.9224 20.2234 8.7385 19.9897 8.63712 19.7175C8.5909 19.5737 8.49785 19.4495 8.37282 19.3647C8.24778 19.2799 8.09796 19.2394 7.94725 19.2497C7.84306 19.2467 7.73963 19.2685 7.64552 19.3133C7.5514 19.3581 7.4693 19.4246 7.40598 19.5074C7.34266 19.5902 7.29994 19.6869 7.28135 19.7895C7.26277 19.8921 7.26884 19.9976 7.29908 20.0973C7.49758 20.6541 7.86346 21.1359 8.34654 21.4765C8.82963 21.8171 9.40626 22 9.99737 22C10.5885 22 11.1651 21.8171 11.6482 21.4765C12.1313 21.1359 12.4972 20.6541 12.6957 20.0973C12.7368 20.0006 12.7522 19.8949 12.7405 19.7905C12.7287 19.6861 12.6902 19.5865 12.6287 19.5013C12.5671 19.4161 12.4846 19.3483 12.3891 19.3044C12.2937 19.2605 12.1885 19.241 12.0837 19.2497Z" fill="#283754"/>
</svg>
