<svg width="375" height="489" viewBox="0 0 375 489" fill="none" xmlns="http://www.w3.org/2000/svg">
<g opacity="0.3" clip-path="url(#clip0_1262_45430)">
<path d="M170.514 357.843C170.034 353.115 169.413 348.401 168.693 343.708C167.973 339.015 167.162 334.343 166.202 329.7C165.722 327.378 163.605 318.147 163.047 315.847C161.932 311.245 160.761 306.658 159.589 302.064C159.484 301.641 159.738 301.21 160.161 301.097C160.563 300.999 160.973 301.224 161.107 301.606C162.673 306.115 163.986 310.709 165.101 315.353C165.658 317.674 166.16 320.01 166.625 322.346C167.084 324.689 167.486 327.039 167.867 329.396C168.629 334.103 169.265 338.831 169.745 343.574C170.217 348.316 170.528 353.072 170.725 357.822C170.725 357.878 170.683 357.928 170.627 357.935C170.563 357.942 170.521 357.899 170.514 357.843Z" fill="#CD9F52"/>
<path d="M184.712 347.896C184.881 344.791 185.156 341.679 185.559 338.581C185.961 335.483 186.497 332.406 187.139 329.343C187.774 326.28 188.48 323.224 189.447 320.246C190.414 317.268 191.486 314.318 192.813 311.482C192.997 311.086 193.469 310.91 193.872 311.1C194.239 311.27 194.408 311.686 194.288 312.06C193.357 315.01 192.362 317.932 191.458 320.882C190.555 323.831 189.602 326.767 188.777 329.745C187.951 332.723 187.238 335.737 186.596 338.764C185.954 341.799 185.375 344.847 184.916 347.917C184.909 347.973 184.853 348.016 184.796 348.009C184.747 347.995 184.705 347.945 184.712 347.896Z" fill="#CD9F52"/>
<path d="M152.469 348.459C150.5 343.512 148.263 338.699 145.708 334.077C144.431 331.762 143.034 329.525 141.693 327.26C140.352 324.987 138.941 322.771 137.579 320.499C137.353 320.125 137.473 319.631 137.854 319.405C138.193 319.201 138.63 319.285 138.877 319.582C140.599 321.649 142.095 323.886 143.507 326.166C144.918 328.452 146.096 330.88 147.218 333.315C149.47 338.184 151.312 343.23 152.674 348.396C152.688 348.452 152.652 348.508 152.596 348.523C152.539 348.53 152.483 348.508 152.469 348.459Z" fill="#CD9F52"/>
<path d="M194.649 355.862C195.926 351.875 197.465 347.965 199.292 344.176C201.12 340.393 203.223 336.731 205.573 333.23C206.745 331.48 207.958 329.751 209.264 328.086C210.562 326.42 211.931 324.804 213.364 323.259C216.229 320.154 219.355 317.288 222.729 314.755C223.082 314.494 223.576 314.564 223.837 314.917C224.084 315.249 224.034 315.708 223.738 315.983C220.682 318.785 217.711 321.657 214.91 324.698C212.108 327.733 209.433 330.887 206.956 334.211C204.479 337.535 202.256 341.042 200.231 344.677C198.206 348.304 196.392 352.065 194.846 355.947C194.825 356.003 194.762 356.024 194.712 356.003C194.656 355.975 194.635 355.912 194.649 355.862Z" fill="#CD9F52"/>
<path d="M149.42 366.193C147.147 362.869 144.642 359.714 141.96 356.729C139.279 353.744 136.428 350.928 133.386 348.339C130.344 345.749 127.112 343.406 123.831 341.154C120.542 338.903 117.112 336.878 113.612 334.937C113.231 334.725 113.09 334.239 113.302 333.857C113.499 333.498 113.944 333.356 114.311 333.512C118.051 335.121 121.615 337.146 125.009 339.404C128.411 341.663 131.551 344.288 134.515 347.082C137.479 349.877 140.245 352.869 142.765 356.045C145.291 359.22 147.557 362.594 149.596 366.08C149.624 366.129 149.61 366.193 149.561 366.221C149.518 366.256 149.455 366.242 149.42 366.193Z" fill="#CD9F52"/>
<path d="M237.075 297.565L235.445 304.079L239.891 309.117L233.194 309.583L229.778 315.363L227.266 309.139L220.71 307.678L225.855 303.359L225.219 296.676L230.914 300.233L237.075 297.565Z" fill="#CD9F52"/>
<path d="M166.992 296.992L158.248 294.303L151.078 299.984L150.93 290.838L143.315 285.771L151.967 282.807L154.43 274L159.921 281.311L169.059 280.93L163.802 288.418L166.992 296.992Z" fill="#CD9F52"/>
<path d="M95.5465 320.187L102.307 322.022L107.649 317.484L108.002 324.485L113.965 328.169L107.416 330.66L105.758 337.47L101.361 332.015L94.375 332.537L98.207 326.673L95.5465 320.187Z" fill="#CD9F52"/>
<path d="M225.933 338.403C225.933 335.99 227.887 334.035 230.301 334.035C232.714 334.035 234.669 335.99 234.669 338.403C234.669 340.817 232.714 342.772 230.301 342.772C227.887 342.765 225.933 340.81 225.933 338.403Z" fill="#CD9F52"/>
<path d="M116.471 355.897C116.471 354.217 117.833 352.855 119.512 352.855C121.192 352.855 122.554 354.217 122.554 355.897C122.554 357.577 121.192 358.939 119.512 358.939C117.833 358.939 116.471 357.577 116.471 355.897Z" fill="#CD9F52"/>
<path d="M16 407.251C16 404.838 17.9548 402.883 20.3683 402.883C22.7818 402.883 24.7366 404.838 24.7366 407.251C24.7366 409.665 22.7818 411.619 20.3683 411.619C17.9548 411.612 16 409.658 16 407.251Z" fill="#CD9F52"/>
<path d="M267.414 336.518C267.414 334.839 268.776 333.477 270.456 333.477C272.135 333.477 273.497 334.839 273.497 336.518C273.497 338.198 272.135 339.56 270.456 339.56C268.776 339.56 267.414 338.198 267.414 336.518Z" fill="#CD9F52"/>
<path d="M201.529 411.268C201.529 409.589 202.891 408.227 204.571 408.227C206.25 408.227 207.612 409.589 207.612 411.268C207.612 412.948 206.25 414.31 204.571 414.31C202.891 414.31 201.529 412.948 201.529 411.268Z" fill="#CD9F52"/>
<path d="M30.8458 346.779C31.1114 345.12 29.9821 343.56 28.3234 343.295C26.6648 343.029 25.1049 344.158 24.8393 345.817C24.5737 347.476 25.703 349.036 27.3617 349.301C29.0203 349.567 30.5802 348.437 30.8458 346.779Z" fill="#CD9F52"/>
<path d="M352.924 414.549C352.924 412.87 354.286 411.508 355.965 411.508C357.645 411.508 359.007 412.87 359.007 414.549C359.007 416.229 357.645 417.591 355.965 417.591C354.286 417.591 352.924 416.229 352.924 414.549Z" fill="#CD9F52"/>
<path d="M237.894 433.278C239.574 433.278 240.936 431.917 240.936 430.237C240.936 428.557 239.574 427.195 237.894 427.195C236.214 427.195 234.853 428.557 234.853 430.237C234.853 431.917 236.214 433.278 237.894 433.278Z" fill="#CD9F52"/>
<path d="M315.303 427.397C315.303 425.717 316.665 424.355 318.344 424.355C320.024 424.355 321.386 425.717 321.386 427.397C321.386 429.077 320.024 430.439 318.344 430.439C316.665 430.439 315.303 429.077 315.303 427.397Z" fill="#CD9F52"/>
<path d="M48.8648 428.802C50.5446 428.802 51.9064 427.44 51.9064 425.76C51.9064 424.081 50.5446 422.719 48.8648 422.719C47.185 422.719 45.8232 424.081 45.8232 425.76C45.8232 427.44 47.185 428.802 48.8648 428.802Z" fill="#CD9F52"/>
<path d="M342.437 349.849C344.117 349.849 345.479 348.487 345.479 346.807C345.479 345.127 344.117 343.766 342.437 343.766C340.757 343.766 339.396 345.127 339.396 346.807C339.396 348.487 340.757 349.849 342.437 349.849Z" fill="#CD9F52"/>
<path d="M81.4395 352.306C81.4395 349.892 83.3943 347.938 85.8078 347.938C88.2213 347.938 90.1761 349.892 90.1761 352.306C90.1761 354.719 88.2213 356.674 85.8078 356.674C83.3943 356.674 81.4395 354.712 81.4395 352.306Z" fill="#CD9F52"/>
<path d="M154.17 421.943C154.17 419.529 156.125 417.574 158.538 417.574C160.952 417.574 162.907 419.529 162.907 421.943C162.907 424.356 160.952 426.311 158.538 426.311C156.125 426.311 154.17 424.356 154.17 421.943Z" fill="#CD9F52"/>
<path d="M309.227 345.027L309.531 350.334L314.082 353.101L309.121 355.027L307.9 360.207L304.534 356.086L299.234 356.53L302.107 352.049L300.053 347.144L305.198 348.499L309.227 345.027Z" fill="#CD9F52"/>
<path d="M87.2899 412.715L87.5933 418.022L92.138 420.788L87.184 422.715L85.9631 427.895L82.5969 423.773L77.29 424.218L80.1693 419.737L78.1157 414.832L83.2603 416.187L87.2899 412.715Z" fill="#CD9F52"/>
<path d="M275.205 409.648L278.754 413.607L284.033 412.923L281.365 417.531L283.645 422.337L278.444 421.222L274.576 424.87L274.026 419.578L269.361 417.03L274.224 414.878L275.205 409.648Z" fill="#CD9F52"/>
<path d="M122.378 445.565C122.378 443.885 123.74 442.523 125.42 442.523C127.099 442.523 128.461 443.885 128.461 445.565C128.461 447.245 127.099 448.607 125.42 448.607C123.74 448.607 122.378 447.245 122.378 445.565Z" fill="#CD9F52"/>
<path d="M181.17 439.008L184.719 442.967L189.998 442.289L187.323 446.891L189.603 451.696L184.402 450.581L180.534 454.23L179.991 448.944L175.319 446.389L180.182 444.237L181.17 439.008Z" fill="#CD9F52"/>
</g>
<defs>
<clipPath id="clip0_1262_45430">
<rect width="343" height="180.23" fill="white" transform="translate(16 274)"/>
</clipPath>
</defs>
</svg>
