<svg width="40" height="40" viewBox="0 0 40 40" fill="none" xmlns="http://www.w3.org/2000/svg">
<path d="M20.0002 3.33203C10.8102 3.33203 3.3335 10.8087 3.3335 19.9987C3.3335 29.1887 10.8102 36.6654 20.0002 36.6654C29.1902 36.6654 36.6668 29.1887 36.6668 19.9987C36.6668 10.8087 29.1902 3.33203 20.0002 3.33203ZM20.0002 33.332C12.6485 33.332 6.66683 27.3504 6.66683 19.9987C6.66683 12.647 12.6485 6.66536 20.0002 6.66536C27.3518 6.66536 33.3335 12.647 33.3335 19.9987C33.3335 27.3504 27.3518 33.332 20.0002 33.332Z" fill="url(#paint0_linear_2437_101666)"/>
<path d="M14.1665 20C15.5472 20 16.6665 18.8807 16.6665 17.5C16.6665 16.1193 15.5472 15 14.1665 15C12.7858 15 11.6665 16.1193 11.6665 17.5C11.6665 18.8807 12.7858 20 14.1665 20Z" fill="url(#paint1_linear_2437_101666)"/>
<path d="M25.8218 19.9767C27.1961 19.9767 28.3102 18.8626 28.3102 17.4883C28.3102 16.1141 27.1961 15 25.8218 15C24.4476 15 23.3335 16.1141 23.3335 17.4883C23.3335 18.8626 24.4476 19.9767 25.8218 19.9767Z" fill="url(#paint2_linear_2437_101666)"/>
<path d="M20.0002 23.332C15.0002 23.332 13.3335 28.332 13.3335 28.332H26.6668C26.6668 28.332 25.0002 23.332 20.0002 23.332Z" fill="url(#paint3_linear_2437_101666)"/>
<defs>
<linearGradient id="paint0_linear_2437_101666" x1="36.6668" y1="36.6654" x2="2.79765" y2="36.1117" gradientUnits="userSpaceOnUse">
<stop stop-color="#B83AF3"/>
<stop offset="0.98" stop-color="#5E50FB"/>
</linearGradient>
<linearGradient id="paint1_linear_2437_101666" x1="16.6665" y1="20" x2="11.5861" y2="19.917" gradientUnits="userSpaceOnUse">
<stop stop-color="#B83AF3"/>
<stop offset="0.98" stop-color="#5E50FB"/>
</linearGradient>
<linearGradient id="paint2_linear_2437_101666" x1="28.3102" y1="19.9767" x2="23.2535" y2="19.894" gradientUnits="userSpaceOnUse">
<stop stop-color="#B83AF3"/>
<stop offset="0.98" stop-color="#5E50FB"/>
</linearGradient>
<linearGradient id="paint3_linear_2437_101666" x1="26.6668" y1="28.332" x2="13.1412" y2="27.7424" gradientUnits="userSpaceOnUse">
<stop stop-color="#B83AF3"/>
<stop offset="0.98" stop-color="#5E50FB"/>
</linearGradient>
</defs>
</svg>
