<svg width="24" height="25" viewBox="0 0 24 25" fill="none" xmlns="http://www.w3.org/2000/svg">
<path d="M22 3.82031H2C0.91 3.86031 0.04 4.73031 0 5.82031V19.8203C0.04 20.9103 0.91 21.7803 2 21.8203H22C23.09 21.7803 23.96 20.9103 24 19.8203V5.82031C23.96 4.73031 23.09 3.86031 22 3.82031ZM22 19.8203H2V5.82031H22V19.8203ZM14 17.8203V16.5703C14 14.9103 10.66 14.0703 9 14.0703C7.34 14.0703 4 14.9103 4 16.5703V17.8203H14ZM9 7.82031C8.33696 7.82031 7.70107 8.0837 7.23223 8.55255C6.76339 9.02139 6.5 9.65727 6.5 10.3203C6.5 10.6486 6.56466 10.9737 6.6903 11.277C6.81594 11.5803 7.00009 11.8559 7.23223 12.0881C7.70107 12.5569 8.33696 12.8203 9 12.8203C9.3283 12.8203 9.65339 12.7556 9.95671 12.63C10.26 12.5044 10.5356 12.3202 10.7678 12.0881C10.9999 11.8559 11.1841 11.5803 11.3097 11.277C11.4353 10.9737 11.5 10.6486 11.5 10.3203C11.5 9.99201 11.4353 9.66692 11.3097 9.3636C11.1841 9.06029 10.9999 8.78469 10.7678 8.55255C10.5356 8.3204 10.26 8.13625 9.95671 8.01061C9.65339 7.88498 9.3283 7.82031 9 7.82031ZM14 7.82031V8.82031H20V7.82031H14ZM14 9.82031V10.8203H20V9.82031H14ZM14 11.8203V12.8203H18V11.8203H14Z" fill="#7778E5"/>
</svg>
