<svg width="28" height="32" viewBox="0 0 28 32" fill="none" xmlns="http://www.w3.org/2000/svg">
<path fill-rule="evenodd" clip-rule="evenodd" d="M21.0936 1.99805C17.282 1.99805 14.1924 4.19833 14.1924 8.44301C14.1924 12.6877 17.282 16.128 21.0936 16.128C24.9047 16.128 27.9941 12.6877 27.9941 8.44301C27.9941 4.19833 24.9047 1.99805 21.0936 1.99805V1.99805Z" fill="#FBC4AC"/>
<path fill-rule="evenodd" clip-rule="evenodd" d="M15.555 8.44305C15.555 4.45442 18.2832 1.1761 21.7748 0.795197C21.5507 0.770509 21.3235 0.757812 21.0936 0.757812C17.282 0.757812 14.1924 4.19837 14.1924 8.44305C14.1924 12.6877 17.282 16.128 21.0936 16.128C21.3235 16.128 21.5507 16.1154 21.7748 16.0909C18.2832 15.7098 15.555 12.4314 15.555 8.44305V8.44305Z" fill="#E3B098"/>
<path fill-rule="evenodd" clip-rule="evenodd" d="M24.7716 10.055C24.5362 10.055 24.3457 9.84689 24.3457 9.5899V8.80882C24.3457 8.55207 24.5362 8.34375 24.7716 8.34375C25.0069 8.34375 25.1975 8.55207 25.1975 8.80882V9.5899C25.1975 9.84689 25.0069 10.055 24.7716 10.055Z" fill="#3A484A"/>
<path fill-rule="evenodd" clip-rule="evenodd" d="M25.2583 11.2036H24.2843C24.0489 11.2036 23.8584 10.9953 23.8584 10.7385C23.8584 10.4818 24.0489 10.2734 24.2843 10.2734H25.2583C25.4936 10.2734 25.6842 10.4818 25.6842 10.7385C25.6842 10.9953 25.4936 11.2036 25.2583 11.2036Z" fill="#F98084"/>
<path fill-rule="evenodd" clip-rule="evenodd" d="M17.4142 10.055C17.1788 10.055 16.9883 9.84689 16.9883 9.5899V8.80882C16.9883 8.55207 17.1788 8.34375 17.4142 8.34375C17.6495 8.34375 17.84 8.55207 17.84 8.80882V9.5899C17.84 9.84689 17.6495 10.055 17.4142 10.055Z" fill="#3A484A"/>
<path fill-rule="evenodd" clip-rule="evenodd" d="M17.9019 11.2036H16.9278C16.6925 11.2036 16.502 10.9953 16.502 10.7385C16.502 10.4818 16.6925 10.2734 16.9278 10.2734H17.9019C18.1372 10.2734 18.3277 10.4818 18.3277 10.7385C18.3277 10.9953 18.1372 11.2036 17.9019 11.2036Z" fill="#F98084"/>
<path fill-rule="evenodd" clip-rule="evenodd" d="M21.0935 11.1582C20.7141 11.1582 20.3576 10.9844 20.1149 10.6813C19.9601 10.4878 19.9784 10.1941 20.1554 10.0251C20.3326 9.85604 20.6015 9.87579 20.7563 10.0693C20.8371 10.1702 20.96 10.228 21.0935 10.228C21.227 10.228 21.3501 10.1702 21.4309 10.0691C21.5857 9.87579 21.8546 9.85604 22.0318 10.0251C22.209 10.1941 22.2271 10.4881 22.072 10.6813C21.8296 10.9844 21.4729 11.1582 21.0935 11.1582V11.1582Z" fill="#3A484A"/>
<path fill-rule="evenodd" clip-rule="evenodd" d="M27.6638 6.08827C27.1899 -0.212087 24.8636 0.758031 21.0936 0.758031C18.2433 0.758031 16.8747 0.446493 16.2916 0.247814C16.0584 0.168107 15.8074 0.282847 15.6965 0.520557C15.231 1.51818 14.1924 4.21693 14.1924 8.44327C14.1924 8.44327 15.8429 5.19739 21.0933 5.19739C23.536 5.19739 23.3317 6.08827 27.6638 6.08827V6.08827Z" fill="#C86D5C"/>
<path fill-rule="evenodd" clip-rule="evenodd" d="M17.0594 0.520557C17.0702 0.497515 17.0824 0.475884 17.0958 0.455428C16.7358 0.383715 16.4748 0.310122 16.2916 0.247814C16.0584 0.168107 15.8074 0.282847 15.6965 0.520557C15.231 1.51818 14.1924 4.21693 14.1924 8.44327C14.1924 8.44327 14.5875 7.66713 15.6046 6.87405C15.8158 3.54495 16.6542 1.3884 17.0594 0.520557V0.520557Z" fill="#AD4F3D"/>
<path fill-rule="evenodd" clip-rule="evenodd" d="M0.0322266 23.0586V28.0129C0.0322266 29.247 0.882036 30.2842 2.0055 30.4205L5.26629 30.8167L0.0322266 23.0586Z" fill="#3A484A"/>
<path fill-rule="evenodd" clip-rule="evenodd" d="M13.8237 23.0586V28.0129C13.8237 29.247 12.9741 30.2842 11.8506 30.4205L8.58984 30.8167L13.8237 23.0586Z" fill="#3A484A"/>
<path fill-rule="evenodd" clip-rule="evenodd" d="M13.8239 23.0586C13.8234 23.0593 13.8235 23.0593 13.8235 23.0593L6.77501 17.2402L0.0329417 23.0593L0.0322958 23.0586C0.0290662 23.1576 0.0273438 23.2563 0.0273438 23.356C0.0273438 27.6007 3.11676 31.0415 6.92809 31.0415C10.7396 31.0415 13.829 27.6007 13.829 23.356C13.829 23.2566 13.8273 23.1576 13.8239 23.0586V23.0586Z" fill="#FBC4AC"/>
<path fill-rule="evenodd" clip-rule="evenodd" d="M1.17384 22.8125C0.80115 22.9263 0.419845 23.0112 0.0329417 23.058L0.0322958 23.0573C0.0290662 23.1563 0.0273438 23.255 0.0273438 23.3547C0.0273438 27.5994 3.11676 31.0402 6.92809 31.0402C7.12509 31.0402 7.31994 31.0305 7.51264 31.0124C4.08563 30.6706 1.36374 27.1677 1.17384 22.8125V22.8125Z" fill="#E3B098"/>
<path fill-rule="evenodd" clip-rule="evenodd" d="M3.24912 24.9671C3.014 24.9671 2.82324 24.759 2.82324 24.502V23.7209C2.82324 23.4642 3.014 23.2559 3.24912 23.2559C3.48444 23.2559 3.67499 23.4642 3.67499 23.7209V24.502C3.67499 24.759 3.48444 24.9671 3.24912 24.9671Z" fill="#3A484A"/>
<path fill-rule="evenodd" clip-rule="evenodd" d="M3.73683 26.1137H2.76279C2.52746 26.1137 2.33691 25.9057 2.33691 25.6487C2.33691 25.3919 2.52746 25.1836 2.76279 25.1836H3.73683C3.97216 25.1836 4.1627 25.3919 4.1627 25.6487C4.1627 25.9057 3.97216 26.1137 3.73683 26.1137Z" fill="#F98084"/>
<path fill-rule="evenodd" clip-rule="evenodd" d="M10.6065 24.9671C10.3714 24.9671 10.1807 24.759 10.1807 24.502V23.7209C10.1807 23.4642 10.3714 23.2559 10.6065 23.2559C10.8419 23.2559 11.0324 23.4642 11.0324 23.7209V24.502C11.0324 24.759 10.8419 24.9671 10.6065 24.9671Z" fill="#3A484A"/>
<path fill-rule="evenodd" clip-rule="evenodd" d="M11.0942 26.1137H10.1202C9.88488 26.1137 9.69434 25.9057 9.69434 25.6487C9.69434 25.3919 9.88488 25.1836 10.1202 25.1836H11.0942C11.3296 25.1836 11.5201 25.3919 11.5201 25.6487C11.5201 25.9057 11.3296 26.1137 11.0942 26.1137Z" fill="#F98084"/>
<path fill-rule="evenodd" clip-rule="evenodd" d="M6.92844 26.0703C6.54908 26.0703 6.19253 25.8965 5.94988 25.5932C5.79508 25.4 5.81338 25.1061 5.99036 24.937C6.16734 24.7682 6.43647 24.7879 6.59128 24.9812C6.67202 25.0823 6.79495 25.1402 6.92844 25.1402C7.06193 25.1402 7.18509 25.0823 7.26583 24.9812C7.42063 24.7879 7.68976 24.7682 7.86674 24.9372C8.04394 25.1063 8.06203 25.4 7.90722 25.5935C7.66457 25.8965 7.30781 26.0703 6.92844 26.0703V26.0703Z" fill="#3A484A"/>
<path fill-rule="evenodd" clip-rule="evenodd" d="M0.0322266 23.0575L0.0328724 23.0582C3.73655 22.6108 6.92802 18.7042 6.92802 18.7042C6.92802 18.7042 10.1197 22.6108 13.8234 23.0582C13.8234 23.0582 13.8234 23.0582 13.8238 23.0575C13.6836 18.9508 10.6502 15.6699 6.92802 15.6699C3.20604 15.6699 0.172605 18.9508 0.0322266 23.0575Z" fill="#3A484A"/>
<path fill-rule="evenodd" clip-rule="evenodd" d="M7.52441 15.6988C7.32784 15.68 7.12911 15.6699 6.92802 15.6699C3.20604 15.6699 0.172605 18.9508 0.0322266 23.0577L0.0328724 23.0582C0.442168 23.0088 0.780627 22.9366 1.17377 22.8127C1.41815 19.0503 4.15812 16.0196 7.52441 15.6988Z" fill="#323E40"/>
<path fill-rule="evenodd" clip-rule="evenodd" d="M11.2019 10.699V6.0537C11.2019 4.3942 9.97013 3.04883 8.4503 3.04883H2.77894C1.25932 3.04883 0.0273438 4.3942 0.0273438 6.0537V10.2989C0.0273438 11.9584 1.25932 13.3035 2.77894 13.3035H12.5198L11.2019 10.699Z" fill="#58B78C"/>
<path fill-rule="evenodd" clip-rule="evenodd" d="M8.58511 6.51804H2.64462C2.40951 6.51804 2.21875 6.30972 2.21875 6.05296C2.21875 5.79597 2.40951 5.58789 2.64462 5.58789H8.58511C8.82044 5.58789 9.01098 5.79597 9.01098 6.05296C9.01098 6.30972 8.82044 6.51804 8.58511 6.51804Z" fill="#EFEDEE"/>
<path fill-rule="evenodd" clip-rule="evenodd" d="M8.58511 8.64108H2.64462C2.40951 8.64108 2.21875 8.433 2.21875 8.17601C2.21875 7.91926 2.40951 7.71094 2.64462 7.71094H8.58511C8.82044 7.71094 9.01098 7.91926 9.01098 8.17601C9.01098 8.433 8.82044 8.64108 8.58511 8.64108Z" fill="#EFEDEE"/>
<path fill-rule="evenodd" clip-rule="evenodd" d="M6.34938 10.7641H2.64462C2.40951 10.7641 2.21875 10.5558 2.21875 10.2991C2.21875 10.0421 2.40951 9.83398 2.64462 9.83398H6.34938C6.58449 9.83398 6.77525 10.0421 6.77525 10.2991C6.77525 10.5558 6.58449 10.7641 6.34938 10.7641Z" fill="#EFEDEE"/>
<path fill-rule="evenodd" clip-rule="evenodd" d="M16.8198 25.8787V21.2332C16.8198 19.5737 18.0518 18.2285 19.5714 18.2285H25.2428C26.7624 18.2285 27.9944 19.5737 27.9944 21.2332V25.4783C27.9944 27.1378 26.7624 28.4832 25.2428 28.4832H15.502L16.8198 25.8787Z" fill="#F2C42C"/>
<path fill-rule="evenodd" clip-rule="evenodd" d="M25.3771 21.6977H19.4366C19.2013 21.6977 19.0107 21.4894 19.0107 21.2327C19.0107 20.9757 19.2013 20.7676 19.4366 20.7676H25.3771C25.6124 20.7676 25.803 20.9757 25.803 21.2327C25.803 21.4894 25.6122 21.6977 25.3771 21.6977V21.6977Z" fill="#EFEDEE"/>
<path fill-rule="evenodd" clip-rule="evenodd" d="M25.3771 23.8208H19.4366C19.2013 23.8208 19.0107 23.6125 19.0107 23.3557C19.0107 23.0989 19.2013 22.8906 19.4366 22.8906H25.3771C25.6124 22.8906 25.803 23.0989 25.803 23.3557C25.803 23.6125 25.6122 23.8208 25.3771 23.8208V23.8208Z" fill="#EFEDEE"/>
<path fill-rule="evenodd" clip-rule="evenodd" d="M25.3767 25.9438H21.672C21.4369 25.9438 21.2461 25.7355 21.2461 25.4787C21.2461 25.2218 21.4369 25.0137 21.672 25.0137H25.3767C25.6118 25.0137 25.8026 25.2218 25.8026 25.4787C25.8026 25.7355 25.6118 25.9438 25.3767 25.9438V25.9438Z" fill="#EFEDEE"/>
</svg>
