<svg width="24" height="25" viewBox="0 0 24 25" fill="none" xmlns="http://www.w3.org/2000/svg">
<g clip-path="url(#clip0_126_43297)">
<path d="M19 3.5H5C3.9 3.5 3 4.4 3 5.5V19.5C3 20.6 3.9 21.5 5 21.5H19C20.1 21.5 21 20.6 21 19.5V5.5C21 4.4 20.1 3.5 19 3.5ZM10.71 16.79C10.32 17.18 9.69 17.18 9.3 16.79L5.71 13.2C5.32 12.81 5.32 12.18 5.71 11.79C6.1 11.4 6.73 11.4 7.12 11.79L10 14.67L16.88 7.79C17.27 7.4 17.9 7.4 18.29 7.79C18.68 8.18 18.68 8.81 18.29 9.2L10.71 16.79Z" fill="#475A88"/>
</g>
<defs>
<clipPath id="clip0_126_43297">
<rect width="24" height="24" fill="white" transform="translate(0 0.5)"/>
</clipPath>
</defs>
</svg>
