<svg width="25" height="24" viewBox="0 0 25 24" fill="none" xmlns="http://www.w3.org/2000/svg">
<g clip-path="url(#clip0_1966_21477)">
<path d="M18.5 19H6.5C5.95 19 5.5 18.55 5.5 18V6C5.5 5.45 5.95 5 6.5 5H18.5C19.05 5 19.5 5.45 19.5 6V18C19.5 18.55 19.05 19 18.5 19ZM19.5 3H5.5C4.4 3 3.5 3.9 3.5 5V19C3.5 20.1 4.4 21 5.5 21H19.5C20.6 21 21.5 20.1 21.5 19V5C21.5 3.9 20.6 3 19.5 3Z" fill="#7778E5"/>
</g>
<defs>
<clipPath id="clip0_1966_21477">
<rect width="24" height="24" fill="white" transform="translate(0.5)"/>
</clipPath>
</defs>
</svg>
