<svg width="25" height="24" viewBox="0 0 25 24" fill="none" xmlns="http://www.w3.org/2000/svg">
<path d="M22.458 21.4605L2.73801 1.73047L1.45801 3.00047L4.40801 5.95047C3.12801 7.63047 2.34801 9.72047 2.34801 12.0005C2.34801 17.5005 6.84801 22.0005 12.348 22.0005C14.628 22.0005 16.718 21.2305 18.398 19.9405L21.188 22.7305L22.458 21.4605ZM12.348 20.0005C7.92801 20.0005 4.34801 16.4205 4.34801 12.0005C4.34801 10.2705 4.90801 8.68047 5.84801 7.38047L16.968 18.5005C15.668 19.4505 14.078 20.0005 12.348 20.0005ZM8.51801 4.97047L7.06801 3.50047C8.59801 2.56047 10.408 2.00047 12.348 2.00047C17.848 2.00047 22.348 6.50047 22.348 12.0005C22.348 13.9405 21.788 15.7505 20.848 17.2805L19.378 15.8305C19.998 14.6905 20.348 13.3905 20.348 12.0005C20.348 7.58047 16.768 4.00047 12.348 4.00047C10.958 4.00047 9.65801 4.35047 8.51801 4.97047Z" fill="#7778E5"/>
</svg>
