<svg width="24" height="24" viewBox="0 0 24 24" fill="none" xmlns="http://www.w3.org/2000/svg">
<g clip-path="url(#clip0_2085_85730)">
<path d="M21.1039 4H19.0275V5.33333H20.9442V20H3.05529V5.33333H4.97195V4H2.89556C2.74622 4.0026 2.59882 4.03588 2.4618 4.09794C2.32478 4.15999 2.20082 4.24961 2.09699 4.36166C1.99317 4.47371 1.91151 4.60601 1.8567 4.751C1.80188 4.89599 1.77497 5.05083 1.77751 5.20667V20.1267C1.77497 20.2825 1.80188 20.4373 1.8567 20.5823C1.91151 20.7273 1.99317 20.8596 2.09699 20.9717C2.20082 21.0837 2.32478 21.1733 2.4618 21.2354C2.59882 21.2974 2.74622 21.3307 2.89556 21.3333H21.1039C21.2532 21.3307 21.4006 21.2974 21.5377 21.2354C21.6747 21.1733 21.7986 21.0837 21.9025 20.9717C22.0063 20.8596 22.0879 20.7273 22.1428 20.5823C22.1976 20.4373 22.2245 20.2825 22.222 20.1267V5.20667C22.2245 5.05083 22.1976 4.89599 22.1428 4.751C22.0879 4.60601 22.0063 4.47371 21.9025 4.36166C21.7986 4.24961 21.6747 4.15999 21.5377 4.09794C21.4006 4.03588 21.2532 4.0026 21.1039 4Z" fill="#8646F7"/>
<path d="M5.61133 9.33203H6.88911V10.6654H5.61133V9.33203Z" fill="#8646F7"/>
<path d="M9.44434 9.33203H10.7221V10.6654H9.44434V9.33203Z" fill="#8646F7"/>
<path d="M13.2773 9.33203H14.5551V10.6654H13.2773V9.33203Z" fill="#8646F7"/>
<path d="M17.1113 9.33203H18.3891V10.6654H17.1113V9.33203Z" fill="#8646F7"/>
<path d="M5.61133 12.668H6.88911V14.0013H5.61133V12.668Z" fill="#8646F7"/>
<path d="M9.44434 12.668H10.7221V14.0013H9.44434V12.668Z" fill="#8646F7"/>
<path d="M13.2773 12.668H14.5551V14.0013H13.2773V12.668Z" fill="#8646F7"/>
<path d="M17.1113 12.668H18.3891V14.0013H17.1113V12.668Z" fill="#8646F7"/>
<path d="M5.61133 16H6.88911V17.3333H5.61133V16Z" fill="#8646F7"/>
<path d="M9.44434 16H10.7221V17.3333H9.44434V16Z" fill="#8646F7"/>
<path d="M13.2773 16H14.5551V17.3333H13.2773V16Z" fill="#8646F7"/>
<path d="M17.1113 16H18.3891V17.3333H17.1113V16Z" fill="#8646F7"/>
<path d="M6.88889 6.66536C7.05833 6.66536 7.22084 6.59513 7.34065 6.4701C7.46047 6.34508 7.52778 6.17551 7.52778 5.9987V1.9987C7.52778 1.82189 7.46047 1.65232 7.34065 1.52729C7.22084 1.40227 7.05833 1.33203 6.88889 1.33203C6.71944 1.33203 6.55694 1.40227 6.43713 1.52729C6.31731 1.65232 6.25 1.82189 6.25 1.9987V5.9987C6.25 6.17551 6.31731 6.34508 6.43713 6.4701C6.55694 6.59513 6.71944 6.66536 6.88889 6.66536Z" fill="#8646F7"/>
<path d="M17.1115 6.66536C17.281 6.66536 17.4435 6.59513 17.5633 6.4701C17.6831 6.34508 17.7504 6.17551 17.7504 5.9987V1.9987C17.7504 1.82189 17.6831 1.65232 17.5633 1.52729C17.4435 1.40227 17.281 1.33203 17.1115 1.33203C16.9421 1.33203 16.7796 1.40227 16.6598 1.52729C16.54 1.65232 16.4727 1.82189 16.4727 1.9987V5.9987C16.4727 6.17551 16.54 6.34508 16.6598 6.4701C16.7796 6.59513 16.9421 6.66536 17.1115 6.66536Z" fill="#8646F7"/>
<path d="M8.80566 4H15.1946V5.33333H8.80566V4Z" fill="#8646F7"/>
</g>
<defs>
<clipPath id="clip0_2085_85730">
<rect width="23" height="24" fill="white" transform="translate(0.5)"/>
</clipPath>
</defs>
</svg>
