<svg width="24" height="25" viewBox="0 0 24 25" fill="none" xmlns="http://www.w3.org/2000/svg">
<g clip-path="url(#clip0_1318_63154)">
<path d="M18.2997 5.9607C17.9097 5.5707 17.2797 5.5707 16.8897 5.9607L11.9997 10.8407L7.10973 5.9507C6.71973 5.5607 6.08973 5.5607 5.69973 5.9507C5.30973 6.3407 5.30973 6.9707 5.69973 7.3607L10.5897 12.2507L5.69973 17.1407C5.30973 17.5307 5.30973 18.1607 5.69973 18.5507C6.08973 18.9407 6.71973 18.9407 7.10973 18.5507L11.9997 13.6607L16.8897 18.5507C17.2797 18.9407 17.9097 18.9407 18.2997 18.5507C18.6897 18.1607 18.6897 17.5307 18.2997 17.1407L13.4097 12.2507L18.2997 7.3607C18.6797 6.9807 18.6797 6.3407 18.2997 5.9607V5.9607Z" fill="#475A88"/>
</g>
<defs>
<clipPath id="clip0_1318_63154">
<rect width="24" height="24" fill="white" transform="translate(0 0.25)"/>
</clipPath>
</defs>
</svg>
