<svg width="25" height="24" viewBox="0 0 25 24" fill="none" xmlns="http://www.w3.org/2000/svg">
<path d="M3.5 15H1.5V3C1.5 2.46957 1.71071 1.96086 2.08579 1.58579C2.46086 1.21071 2.96957 1 3.5 1H19.5V3H3.5V15ZM12.5 23C12.2348 23 11.9804 22.8946 11.7929 22.7071C11.6054 22.5196 11.5 22.2652 11.5 22V19H7.5C6.96957 19 6.46086 18.7893 6.08579 18.4142C5.71071 18.0391 5.5 17.5304 5.5 17V7C5.5 6.46957 5.71071 5.96086 6.08579 5.58579C6.46086 5.21071 6.96957 5 7.5 5H21.5C22.0304 5 22.5391 5.21071 22.9142 5.58579C23.2893 5.96086 23.5 6.46957 23.5 7V17C23.5 17.5304 23.2893 18.0391 22.9142 18.4142C22.5391 18.7893 22.0304 19 21.5 19H17.4L13.7 22.71C13.5 22.89 13.26 23 13 23H12.5ZM9.5 9V11H19.5V9H9.5ZM9.5 13V15H17.5V13H9.5Z" fill="#8D7CF6"/>
</svg>
