<svg width="24" height="24" viewBox="0 0 24 24" fill="none" xmlns="http://www.w3.org/2000/svg">
<g filter="url(#filter0_ii_1753_60630)">
<path d="M3 15H1V3C1 2.46957 1.21071 1.96086 1.58579 1.58579C1.96086 1.21071 2.46957 1 3 1H19V3H3V15ZM12 23C11.7348 23 11.4804 22.8946 11.2929 22.7071C11.1054 22.5196 11 22.2652 11 22V19H7C6.46957 19 5.96086 18.7893 5.58579 18.4142C5.21071 18.0391 5 17.5304 5 17V7C5 6.46957 5.21071 5.96086 5.58579 5.58579C5.96086 5.21071 6.46957 5 7 5H21C21.5304 5 22.0391 5.21071 22.4142 5.58579C22.7893 5.96086 23 6.46957 23 7V17C23 17.5304 22.7893 18.0391 22.4142 18.4142C22.0391 18.7893 21.5304 19 21 19H16.9L13.2 22.71C13 22.89 12.76 23 12.5 23H12ZM9 9V11H19V9H9ZM9 13V15H17V13H9Z" fill="#E1F0FE"/>
</g>
<defs>
<filter id="filter0_ii_1753_60630" x="1" y="-11" width="22" height="46" filterUnits="userSpaceOnUse" color-interpolation-filters="sRGB">
<feFlood flood-opacity="0" result="BackgroundImageFix"/>
<feBlend mode="normal" in="SourceGraphic" in2="BackgroundImageFix" result="shape"/>
<feColorMatrix in="SourceAlpha" type="matrix" values="0 0 0 0 0 0 0 0 0 0 0 0 0 0 0 0 0 0 127 0" result="hardAlpha"/>
<feOffset dy="12"/>
<feGaussianBlur stdDeviation="11"/>
<feComposite in2="hardAlpha" operator="arithmetic" k2="-1" k3="1"/>
<feColorMatrix type="matrix" values="0 0 0 0 1 0 0 0 0 1 0 0 0 0 1 0 0 0 0.5 0"/>
<feBlend mode="normal" in2="shape" result="effect1_innerShadow_1753_60630"/>
<feColorMatrix in="SourceAlpha" type="matrix" values="0 0 0 0 0 0 0 0 0 0 0 0 0 0 0 0 0 0 127 0" result="hardAlpha"/>
<feOffset dy="-12"/>
<feGaussianBlur stdDeviation="6"/>
<feComposite in2="hardAlpha" operator="arithmetic" k2="-1" k3="1"/>
<feColorMatrix type="matrix" values="0 0 0 0 0.613533 0 0 0 0 0.732716 0 0 0 0 0.842731 0 0 0 1 0"/>
<feBlend mode="normal" in2="effect1_innerShadow_1753_60630" result="effect2_innerShadow_1753_60630"/>
</filter>
</defs>
</svg>
