<svg width="25" height="18" viewBox="0 0 25 18" fill="none" xmlns="http://www.w3.org/2000/svg">
<path d="M21.4997 0H3.49971C2.81784 0 2.1639 0.270873 1.68174 0.753029C1.19958 1.23518 0.928711 1.88913 0.928711 2.571L0.928711 15.429C0.928711 16.1109 1.19958 16.7648 1.68174 17.247C2.1639 17.7291 2.81784 18 3.49971 18H21.4997C22.1816 18 22.8355 17.7291 23.3177 17.247C23.7998 16.7648 24.0707 16.1109 24.0707 15.429V2.571C24.0702 1.88929 23.7991 1.23565 23.3171 0.753613C22.8351 0.271571 22.1814 0.000529689 21.4997 0V0ZM3.46371 9.643C3.46371 9.47247 3.53146 9.30892 3.65204 9.18833C3.77263 9.06775 3.93618 9 4.10671 9H7.96371C8.13424 9 8.29779 9.06775 8.41838 9.18833C8.53897 9.30892 8.60671 9.47247 8.60671 9.643V10.929C8.60671 11.0995 8.53897 11.2631 8.41838 11.3837C8.29779 11.5043 8.13424 11.572 7.96371 11.572H4.10671C3.93618 11.572 3.77263 11.5043 3.65204 11.3837C3.53146 11.2631 3.46371 11.0995 3.46371 10.929V9.643ZM7.35671 15.107C7.35645 15.1921 7.32254 15.2735 7.2624 15.3337C7.20226 15.3938 7.12076 15.4277 7.03571 15.428H3.82171C3.73666 15.4277 3.65516 15.3938 3.59502 15.3337C3.53488 15.2735 3.50097 15.1921 3.50071 15.107V14.464C3.50071 14.3789 3.53453 14.2972 3.59473 14.237C3.65493 14.1768 3.73658 14.143 3.82171 14.143H7.03571C7.12085 14.143 7.20249 14.1768 7.26269 14.237C7.32289 14.2972 7.35671 14.3789 7.35671 14.464V15.107ZM15.0707 15.107C15.0707 15.1921 15.0369 15.2738 14.9767 15.334C14.9165 15.3942 14.8348 15.428 14.7497 15.428H8.96471C8.87966 15.4277 8.79816 15.3938 8.73802 15.3337C8.67788 15.2735 8.64397 15.1921 8.64371 15.107V14.464C8.64371 14.3789 8.67753 14.2972 8.73773 14.237C8.79793 14.1768 8.87958 14.143 8.96471 14.143H14.7147C14.7998 14.143 14.8815 14.1768 14.9417 14.237C15.0019 14.2972 15.0357 14.3789 15.0357 14.464L15.0707 15.107ZM16.3567 10.928C16.3567 11.0124 16.3401 11.0961 16.3078 11.1741C16.2755 11.2521 16.2281 11.323 16.1684 11.3827C16.1087 11.4424 16.0378 11.4897 15.9598 11.5221C15.8818 11.5544 15.7982 11.571 15.7137 11.571H10.5717C10.4013 11.571 10.238 11.5034 10.1174 11.383C9.99684 11.2627 9.92898 11.0994 9.92871 10.929V9.643C9.92672 9.47802 9.98893 9.31873 10.1022 9.19875C10.2154 9.07878 10.3709 9.00751 10.5357 9H15.6787C15.8492 9 16.0128 9.06775 16.1334 9.18833C16.254 9.30892 16.3217 9.47247 16.3217 9.643L16.3567 10.928ZM21.4997 10.928C21.4997 11.0124 21.4831 11.0961 21.4508 11.1741C21.4185 11.2521 21.3711 11.323 21.3114 11.3827C21.2517 11.4424 21.1808 11.4897 21.1028 11.5221C21.0248 11.5544 20.9412 11.571 20.8567 11.571H18.2857C18.1153 11.5705 17.9521 11.5026 17.8316 11.3821C17.7112 11.2616 17.6432 11.0984 17.6427 10.928V9.643C17.6427 9.47247 17.7105 9.30892 17.831 9.18833C17.9516 9.06775 18.1152 9 18.2857 9H20.8567C21.0271 9.00053 21.1903 9.06844 21.3108 9.18891C21.4313 9.30938 21.4992 9.47263 21.4997 9.643V10.928ZM21.4997 5.785C21.4992 5.95537 21.4313 6.11861 21.3108 6.23909C21.1903 6.35956 21.0271 6.42747 20.8567 6.428H16.9997C16.8292 6.428 16.6656 6.36026 16.545 6.23967C16.4245 6.11908 16.3567 5.95553 16.3567 5.785V3.214C16.3567 3.04347 16.4245 2.87992 16.545 2.75933C16.6656 2.63874 16.8292 2.571 16.9997 2.571H20.8567C21.0271 2.57153 21.1903 2.63944 21.3108 2.75991C21.4313 2.88039 21.4992 3.04363 21.4997 3.214V5.785Z" fill="#99A4B9"/>
</svg>
