<svg width="41" height="40" viewBox="0 0 41 40" fill="none" xmlns="http://www.w3.org/2000/svg">
<path d="M20.4997 3.33301C18.311 3.33301 16.1437 3.7641 14.1216 4.60168C12.0995 5.43926 10.2622 6.66692 8.71456 8.21456C5.58896 11.3402 3.83301 15.5794 3.83301 19.9997C3.83301 24.4199 5.58896 28.6592 8.71456 31.7848C10.2622 33.3324 12.0995 34.5601 14.1216 35.3977C16.1437 36.2352 18.311 36.6663 20.4997 36.6663C24.9199 36.6663 29.1592 34.9104 32.2848 31.7848C35.4104 28.6592 37.1663 24.4199 37.1663 19.9997C37.1663 17.811 36.7352 15.6437 35.8977 13.6216C35.0601 11.5995 33.8324 9.7622 32.2848 8.21456C30.7371 6.66692 28.8998 5.43926 26.8777 4.60168C24.8556 3.7641 22.6884 3.33301 20.4997 3.33301ZM20.4997 33.333C16.9635 33.333 13.5721 31.9282 11.0716 29.4278C8.5711 26.9273 7.16634 23.5359 7.16634 19.9997C7.16634 16.4635 8.5711 13.0721 11.0716 10.5716C13.5721 8.0711 16.9635 6.66634 20.4997 6.66634C24.0359 6.66634 27.4273 8.0711 29.9278 10.5716C32.4282 13.0721 33.833 16.4635 33.833 19.9997C33.833 23.5359 32.4282 26.9273 29.9278 29.4278C27.4273 31.9282 24.0359 33.333 20.4997 33.333ZM14.6663 18.333C14.0033 18.333 13.3674 18.0696 12.8986 17.6008C12.4297 17.1319 12.1663 16.496 12.1663 15.833C12.1663 15.17 12.4297 14.5341 12.8986 14.0652C13.3674 13.5964 14.0033 13.333 14.6663 13.333C15.3294 13.333 15.9653 13.5964 16.4341 14.0652C16.9029 14.5341 17.1663 15.17 17.1663 15.833C17.1663 16.496 16.9029 17.1319 16.4341 17.6008C15.9653 18.0696 15.3294 18.333 14.6663 18.333ZM28.833 15.833C28.833 16.496 28.5696 17.1319 28.1008 17.6008C27.6319 18.0696 26.996 18.333 26.333 18.333C25.67 18.333 25.0341 18.0696 24.5652 17.6008C24.0964 17.1319 23.833 16.496 23.833 15.833C23.833 15.17 24.0964 14.5341 24.5652 14.0652C25.0341 13.5964 25.67 13.333 26.333 13.333C26.996 13.333 27.6319 13.5964 28.1008 14.0652C28.5696 14.5341 28.833 15.17 28.833 15.833ZM27.1663 23.333V26.6663H13.833V23.333H27.1663Z" fill="#8D7CF6"/>
</svg>
