<svg width="32" height="32" viewBox="0 0 32 32" fill="none" xmlns="http://www.w3.org/2000/svg">
<path d="M26.6665 16C26.6665 13.171 25.5427 10.4579 23.5423 8.45752C21.5419 6.45713 18.8288 5.33332 15.9998 5.33332C13.1709 5.33332 10.4578 6.45713 8.45736 8.45752C6.45698 10.4579 5.33317 13.171 5.33317 16C5.33317 18.829 6.45698 21.5421 8.45736 23.5425C10.4578 25.5428 13.1709 26.6667 15.9998 26.6667C18.8288 26.6667 21.5419 25.5428 23.5423 23.5425C25.5427 21.5421 26.6665 18.829 26.6665 16ZM29.3332 16C29.3332 19.5362 27.9284 22.9276 25.4279 25.4281C22.9274 27.9286 19.5361 29.3333 15.9998 29.3333C14.2489 29.3333 12.5151 28.9884 10.8974 28.3184C9.27972 27.6483 7.80986 26.6662 6.57175 25.4281C4.07126 22.9276 2.6665 19.5362 2.6665 16C2.6665 12.4638 4.07126 9.07238 6.57175 6.5719C9.07223 4.07141 12.4636 2.66666 15.9998 2.66666C17.7508 2.66666 19.4846 3.01153 21.1023 3.6816C22.72 4.35166 24.1898 5.33378 25.4279 6.5719C26.666 7.81001 27.6482 9.27987 28.3182 10.8975C28.9883 12.5152 29.3332 14.249 29.3332 16ZM13.3332 12.6667C13.3332 13.7333 12.3998 14.6667 11.3332 14.6667C10.2665 14.6667 9.33317 13.7333 9.33317 12.6667C9.33317 11.6 10.2665 10.6667 11.3332 10.6667C12.3998 10.6667 13.3332 11.6 13.3332 12.6667ZM22.6665 12.6667C22.6665 13.7333 21.7332 14.6667 20.6665 14.6667C19.5998 14.6667 18.6665 13.7333 18.6665 12.6667C18.6665 11.6 19.5998 10.6667 20.6665 10.6667C21.7332 10.6667 22.6665 11.6 22.6665 12.6667ZM15.9998 22.9733C13.6665 22.9733 11.6132 22 10.4132 20.56L12.3065 18.6667C12.9065 19.6267 14.3332 20.3067 15.9998 20.3067C17.6665 20.3067 19.0932 19.6267 19.6932 18.6667L21.5865 20.56C20.3865 22 18.3332 22.9733 15.9998 22.9733Z" fill="black"/>
</svg>
