<svg width="40" height="40" viewBox="0 0 40 40" fill="none" xmlns="http://www.w3.org/2000/svg">
<path d="M19.9997 3.33398C17.811 3.33398 15.6437 3.76508 13.6216 4.60266C11.5995 5.44024 9.7622 6.66789 8.21456 8.21554C5.08896 11.3411 3.33301 15.5804 3.33301 20.0007C3.33301 24.4209 5.08896 28.6602 8.21456 31.7858C9.7622 33.3334 11.5995 34.5611 13.6216 35.3986C15.6437 36.2362 17.811 36.6673 19.9997 36.6673C24.4199 36.6673 28.6592 34.9114 31.7848 31.7858C34.9104 28.6602 36.6663 24.4209 36.6663 20.0007C36.6663 17.812 36.2352 15.6447 35.3977 13.6226C34.5601 11.6005 33.3324 9.76318 31.7848 8.21554C30.2371 6.66789 28.3998 5.44024 26.3777 4.60266C24.3556 3.76508 22.1884 3.33398 19.9997 3.33398ZM19.9997 33.334C16.4635 33.334 13.0721 31.9292 10.5716 29.4287C8.0711 26.9283 6.66634 23.5369 6.66634 20.0007C6.66634 16.4644 8.0711 13.073 10.5716 10.5726C13.0721 8.07208 16.4635 6.66732 19.9997 6.66732C23.5359 6.66732 26.9273 8.07208 29.4278 10.5726C31.9282 13.073 33.333 16.4644 33.333 20.0007C33.333 23.5369 31.9282 26.9283 29.4278 29.4287C26.9273 31.9292 23.5359 33.334 19.9997 33.334ZM14.1663 18.334C13.5033 18.334 12.8674 18.0706 12.3986 17.6018C11.9297 17.1329 11.6663 16.497 11.6663 15.834C11.6663 15.1709 11.9297 14.5351 12.3986 14.0662C12.8674 13.5974 13.5033 13.334 14.1663 13.334C14.8294 13.334 15.4653 13.5974 15.9341 14.0662C16.4029 14.5351 16.6663 15.1709 16.6663 15.834C16.6663 16.497 16.4029 17.1329 15.9341 17.6018C15.4653 18.0706 14.8294 18.334 14.1663 18.334ZM28.333 15.834C28.333 16.497 28.0696 17.1329 27.6008 17.6018C27.1319 18.0706 26.496 18.334 25.833 18.334C25.17 18.334 24.5341 18.0706 24.0652 17.6018C23.5964 17.1329 23.333 16.497 23.333 15.834C23.333 15.1709 23.5964 14.5351 24.0652 14.0662C24.5341 13.5974 25.17 13.334 25.833 13.334C26.496 13.334 27.1319 13.5974 27.6008 14.0662C28.0696 14.5351 28.333 15.1709 28.333 15.834ZM26.6663 23.334V26.6673H13.333V23.334H26.6663Z" fill="#2D3556"/>
</svg>
