<svg width="40" height="40" viewBox="0 0 40 40" fill="none" xmlns="http://www.w3.org/2000/svg">
<path d="M20.0007 3.33325C17.812 3.33325 15.6447 3.76435 13.6226 4.60193C11.6005 5.4395 9.76318 6.66716 8.21554 8.21481C5.08993 11.3404 3.33398 15.5796 3.33398 19.9999C3.33398 24.4202 5.08993 28.6594 8.21554 31.785C9.76318 33.3327 11.6005 34.5603 13.6226 35.3979C15.6447 36.2355 17.812 36.6666 20.0007 36.6666C24.4209 36.6666 28.6602 34.9106 31.7858 31.785C34.9114 28.6594 36.6673 24.4202 36.6673 19.9999C36.6673 17.8112 36.2362 15.644 35.3986 13.6219C34.5611 11.5998 33.3334 9.76245 31.7858 8.21481C30.2381 6.66716 28.4008 5.4395 26.3787 4.60193C24.3566 3.76435 22.1893 3.33325 20.0007 3.33325ZM20.0007 33.3333C16.4644 33.3333 13.073 31.9285 10.5726 29.428C8.07208 26.9275 6.66732 23.5361 6.66732 19.9999C6.66732 16.4637 8.07208 13.0723 10.5726 10.5718C13.073 8.07134 16.4644 6.66659 20.0007 6.66659C23.5369 6.66659 26.9283 8.07134 29.4287 10.5718C31.9292 13.0723 33.334 16.4637 33.334 19.9999C33.334 23.5361 31.9292 26.9275 29.4287 29.428C26.9283 31.9285 23.5369 33.3333 20.0007 33.3333ZM14.1673 18.3333C13.5043 18.3333 12.8684 18.0699 12.3996 17.601C11.9307 17.1322 11.6673 16.4963 11.6673 15.8333C11.6673 15.1702 11.9307 14.5343 12.3996 14.0655C12.8684 13.5966 13.5043 13.3333 14.1673 13.3333C14.8304 13.3333 15.4662 13.5966 15.9351 14.0655C16.4039 14.5343 16.6673 15.1702 16.6673 15.8333C16.6673 16.4963 16.4039 17.1322 15.9351 17.601C15.4662 18.0699 14.8304 18.3333 14.1673 18.3333ZM28.334 15.8333C28.334 16.4963 28.0706 17.1322 27.6017 17.601C27.1329 18.0699 26.497 18.3333 25.834 18.3333C25.1709 18.3333 24.5351 18.0699 24.0662 17.601C23.5974 17.1322 23.334 16.4963 23.334 15.8333C23.334 15.1702 23.5974 14.5343 24.0662 14.0655C24.5351 13.5966 25.1709 13.3333 25.834 13.3333C26.497 13.3333 27.1329 13.5966 27.6017 14.0655C28.0706 14.5343 28.334 15.1702 28.334 15.8333ZM26.6673 23.3333V26.6666H13.334V23.3333H26.6673Z" fill="#283754"/>
</svg>
