<svg width="40" height="40" viewBox="0 0 40 40" fill="none" xmlns="http://www.w3.org/2000/svg">
<path d="M19.9997 3.3335C17.811 3.3335 15.6437 3.76459 13.6216 4.60217C11.5995 5.43975 9.7622 6.66741 8.21456 8.21505C5.08896 11.3407 3.33301 15.5799 3.33301 20.0002C3.33301 24.4204 5.08896 28.6597 8.21456 31.7853C9.7622 33.3329 11.5995 34.5606 13.6216 35.3982C15.6437 36.2357 17.811 36.6668 19.9997 36.6668C24.4199 36.6668 28.6592 34.9109 31.7848 31.7853C34.9104 28.6597 36.6663 24.4204 36.6663 20.0002C36.6663 17.8115 36.2352 15.6442 35.3977 13.6221C34.5601 11.6 33.3324 9.76269 31.7848 8.21505C30.2371 6.66741 28.3998 5.43975 26.3777 4.60217C24.3556 3.76459 22.1884 3.3335 19.9997 3.3335ZM19.9997 33.3335C16.4635 33.3335 13.0721 31.9287 10.5716 29.4283C8.0711 26.9278 6.66634 23.5364 6.66634 20.0002C6.66634 16.4639 8.0711 13.0726 10.5716 10.5721C13.0721 8.07159 16.4635 6.66683 19.9997 6.66683C23.5359 6.66683 26.9273 8.07159 29.4278 10.5721C31.9282 13.0726 33.333 16.4639 33.333 20.0002C33.333 23.5364 31.9282 26.9278 29.4278 29.4283C26.9273 31.9287 23.5359 33.3335 19.9997 33.3335ZM14.1663 18.3335C13.5033 18.3335 12.8674 18.0701 12.3986 17.6013C11.9297 17.1324 11.6663 16.4965 11.6663 15.8335C11.6663 15.1705 11.9297 14.5346 12.3986 14.0657C12.8674 13.5969 13.5033 13.3335 14.1663 13.3335C14.8294 13.3335 15.4653 13.5969 15.9341 14.0657C16.4029 14.5346 16.6663 15.1705 16.6663 15.8335C16.6663 16.4965 16.4029 17.1324 15.9341 17.6013C15.4653 18.0701 14.8294 18.3335 14.1663 18.3335ZM28.333 15.8335C28.333 16.4965 28.0696 17.1324 27.6008 17.6013C27.1319 18.0701 26.496 18.3335 25.833 18.3335C25.17 18.3335 24.5341 18.0701 24.0652 17.6013C23.5964 17.1324 23.333 16.4965 23.333 15.8335C23.333 15.1705 23.5964 14.5346 24.0652 14.0657C24.5341 13.5969 25.17 13.3335 25.833 13.3335C26.496 13.3335 27.1319 13.5969 27.6008 14.0657C28.0696 14.5346 28.333 15.1705 28.333 15.8335ZM26.6663 23.3335V26.6668H13.333V23.3335H26.6663Z" fill="#283754"/>
</svg>
