<svg width="41" height="40" viewBox="0 0 41 40" fill="none" xmlns="http://www.w3.org/2000/svg">
<path d="M20.4997 3.3335C18.311 3.3335 16.1437 3.76459 14.1216 4.60217C12.0995 5.43975 10.2622 6.66741 8.71456 8.21505C5.58896 11.3407 3.83301 15.5799 3.83301 20.0002C3.83301 24.4204 5.58896 28.6597 8.71456 31.7853C10.2622 33.3329 12.0995 34.5606 14.1216 35.3982C16.1437 36.2357 18.311 36.6668 20.4997 36.6668C24.9199 36.6668 29.1592 34.9109 32.2848 31.7853C35.4104 28.6597 37.1663 24.4204 37.1663 20.0002C37.1663 17.8115 36.7352 15.6442 35.8977 13.6221C35.0601 11.6 33.8324 9.76269 32.2848 8.21505C30.7371 6.66741 28.8998 5.43975 26.8777 4.60217C24.8556 3.76459 22.6884 3.3335 20.4997 3.3335ZM20.4997 33.3335C16.9635 33.3335 13.5721 31.9287 11.0716 29.4283C8.5711 26.9278 7.16634 23.5364 7.16634 20.0002C7.16634 16.4639 8.5711 13.0726 11.0716 10.5721C13.5721 8.07159 16.9635 6.66683 20.4997 6.66683C24.0359 6.66683 27.4273 8.07159 29.9278 10.5721C32.4282 13.0726 33.833 16.4639 33.833 20.0002C33.833 23.5364 32.4282 26.9278 29.9278 29.4283C27.4273 31.9287 24.0359 33.3335 20.4997 33.3335ZM14.6663 18.3335C14.0033 18.3335 13.3674 18.0701 12.8986 17.6013C12.4297 17.1324 12.1663 16.4965 12.1663 15.8335C12.1663 15.1705 12.4297 14.5346 12.8986 14.0657C13.3674 13.5969 14.0033 13.3335 14.6663 13.3335C15.3294 13.3335 15.9653 13.5969 16.4341 14.0657C16.9029 14.5346 17.1663 15.1705 17.1663 15.8335C17.1663 16.4965 16.9029 17.1324 16.4341 17.6013C15.9653 18.0701 15.3294 18.3335 14.6663 18.3335ZM28.833 15.8335C28.833 16.4965 28.5696 17.1324 28.1008 17.6013C27.6319 18.0701 26.996 18.3335 26.333 18.3335C25.67 18.3335 25.0341 18.0701 24.5652 17.6013C24.0964 17.1324 23.833 16.4965 23.833 15.8335C23.833 15.1705 24.0964 14.5346 24.5652 14.0657C25.0341 13.5969 25.67 13.3335 26.333 13.3335C26.996 13.3335 27.6319 13.5969 28.1008 14.0657C28.5696 14.5346 28.833 15.1705 28.833 15.8335ZM27.1663 23.3335V26.6668H13.833V23.3335H27.1663Z" fill="#8D7CF6"/>
</svg>
