<svg width="41" height="40" viewBox="0 0 41 40" fill="none" xmlns="http://www.w3.org/2000/svg">
<path d="M20.4997 3.33325C18.311 3.33325 16.1437 3.76435 14.1216 4.60193C12.0995 5.4395 10.2622 6.66716 8.71456 8.21481C5.58896 11.3404 3.83301 15.5796 3.83301 19.9999C3.83301 24.4202 5.58896 28.6594 8.71456 31.785C10.2622 33.3327 12.0995 34.5603 14.1216 35.3979C16.1437 36.2355 18.311 36.6666 20.4997 36.6666C24.9199 36.6666 29.1592 34.9106 32.2848 31.785C35.4104 28.6594 37.1663 24.4202 37.1663 19.9999C37.1663 17.8112 36.7352 15.644 35.8977 13.6219C35.0601 11.5998 33.8324 9.76245 32.2848 8.21481C30.7371 6.66716 28.8998 5.4395 26.8777 4.60193C24.8556 3.76435 22.6884 3.33325 20.4997 3.33325ZM20.4997 33.3333C16.9635 33.3333 13.5721 31.9285 11.0716 29.428C8.5711 26.9275 7.16634 23.5361 7.16634 19.9999C7.16634 16.4637 8.5711 13.0723 11.0716 10.5718C13.5721 8.07134 16.9635 6.66659 20.4997 6.66659C24.0359 6.66659 27.4273 8.07134 29.9278 10.5718C32.4282 13.0723 33.833 16.4637 33.833 19.9999C33.833 23.5361 32.4282 26.9275 29.9278 29.428C27.4273 31.9285 24.0359 33.3333 20.4997 33.3333ZM14.6663 18.3333C14.0033 18.3333 13.3674 18.0699 12.8986 17.601C12.4297 17.1322 12.1663 16.4963 12.1663 15.8333C12.1663 15.1702 12.4297 14.5343 12.8986 14.0655C13.3674 13.5966 14.0033 13.3333 14.6663 13.3333C15.3294 13.3333 15.9653 13.5966 16.4341 14.0655C16.9029 14.5343 17.1663 15.1702 17.1663 15.8333C17.1663 16.4963 16.9029 17.1322 16.4341 17.601C15.9653 18.0699 15.3294 18.3333 14.6663 18.3333ZM28.833 15.8333C28.833 16.4963 28.5696 17.1322 28.1008 17.601C27.6319 18.0699 26.996 18.3333 26.333 18.3333C25.67 18.3333 25.0341 18.0699 24.5652 17.601C24.0964 17.1322 23.833 16.4963 23.833 15.8333C23.833 15.1702 24.0964 14.5343 24.5652 14.0655C25.0341 13.5966 25.67 13.3333 26.333 13.3333C26.996 13.3333 27.6319 13.5966 28.1008 14.0655C28.5696 14.5343 28.833 15.1702 28.833 15.8333ZM27.1663 23.3333V26.6666H13.833V23.3333H27.1663Z" fill="#8D7CF6"/>
</svg>
