<svg width="41" height="40" viewBox="0 0 41 40" fill="none" xmlns="http://www.w3.org/2000/svg">
<path d="M20.4997 3.33398C18.311 3.33398 16.1437 3.76508 14.1216 4.60266C12.0995 5.44024 10.2622 6.66789 8.71456 8.21554C5.58896 11.3411 3.83301 15.5804 3.83301 20.0007C3.83301 24.4209 5.58896 28.6602 8.71456 31.7858C10.2622 33.3334 12.0995 34.5611 14.1216 35.3986C16.1437 36.2362 18.311 36.6673 20.4997 36.6673C24.9199 36.6673 29.1592 34.9114 32.2848 31.7858C35.4104 28.6602 37.1663 24.4209 37.1663 20.0007C37.1663 17.812 36.7352 15.6447 35.8977 13.6226C35.0601 11.6005 33.8324 9.76318 32.2848 8.21554C30.7371 6.66789 28.8998 5.44024 26.8777 4.60266C24.8556 3.76508 22.6884 3.33398 20.4997 3.33398ZM20.4997 33.334C16.9635 33.334 13.5721 31.9292 11.0716 29.4287C8.5711 26.9283 7.16634 23.5369 7.16634 20.0007C7.16634 16.4644 8.5711 13.073 11.0716 10.5726C13.5721 8.07208 16.9635 6.66732 20.4997 6.66732C24.0359 6.66732 27.4273 8.07208 29.9278 10.5726C32.4282 13.073 33.833 16.4644 33.833 20.0007C33.833 23.5369 32.4282 26.9283 29.9278 29.4287C27.4273 31.9292 24.0359 33.334 20.4997 33.334ZM14.6663 18.334C14.0033 18.334 13.3674 18.0706 12.8986 17.6018C12.4297 17.1329 12.1663 16.497 12.1663 15.834C12.1663 15.1709 12.4297 14.5351 12.8986 14.0662C13.3674 13.5974 14.0033 13.334 14.6663 13.334C15.3294 13.334 15.9653 13.5974 16.4341 14.0662C16.9029 14.5351 17.1663 15.1709 17.1663 15.834C17.1663 16.497 16.9029 17.1329 16.4341 17.6018C15.9653 18.0706 15.3294 18.334 14.6663 18.334ZM28.833 15.834C28.833 16.497 28.5696 17.1329 28.1008 17.6018C27.6319 18.0706 26.996 18.334 26.333 18.334C25.67 18.334 25.0341 18.0706 24.5652 17.6018C24.0964 17.1329 23.833 16.497 23.833 15.834C23.833 15.1709 24.0964 14.5351 24.5652 14.0662C25.0341 13.5974 25.67 13.334 26.333 13.334C26.996 13.334 27.6319 13.5974 28.1008 14.0662C28.5696 14.5351 28.833 15.1709 28.833 15.834ZM27.1663 23.334V26.6673H13.833V23.334H27.1663Z" fill="#2D3556"/>
</svg>
