<svg width="32" height="32" viewBox="0 0 32 32" fill="none" xmlns="http://www.w3.org/2000/svg">
<path d="M15.9993 2.66675C14.2484 2.66675 12.5146 3.01162 10.8969 3.68169C9.27923 4.35175 7.80937 5.33388 6.57126 6.57199C4.07077 9.07248 2.66602 12.4639 2.66602 16.0001C2.66602 19.5363 4.07077 22.9277 6.57126 25.4282C7.80937 26.6663 9.27923 27.6484 10.8969 28.3185C12.5146 28.9885 14.2484 29.3334 15.9993 29.3334C19.5356 29.3334 22.927 27.9287 25.4274 25.4282C27.9279 22.9277 29.3327 19.5363 29.3327 16.0001C29.3327 14.2491 28.9878 12.5153 28.3177 10.8976C27.6477 9.27996 26.6656 7.81011 25.4274 6.57199C24.1893 5.33388 22.7195 4.35175 21.1018 3.68169C19.4841 3.01162 17.7503 2.66675 15.9993 2.66675ZM15.9993 26.6667C13.1704 26.6667 10.4573 25.5429 8.45688 23.5426C6.45649 21.5422 5.33268 18.8291 5.33268 16.0001C5.33268 13.1711 6.45649 10.458 8.45688 8.45761C10.4573 6.45722 13.1704 5.33341 15.9993 5.33341C18.8283 5.33341 21.5414 6.45722 23.5418 8.45761C25.5422 10.458 26.666 13.1711 26.666 16.0001C26.666 18.8291 25.5422 21.5422 23.5418 23.5426C21.5414 25.5429 18.8283 26.6667 15.9993 26.6667ZM11.3327 14.6667C10.8022 14.6667 10.2935 14.456 9.91847 14.081C9.5434 13.7059 9.33268 13.1972 9.33268 12.6667C9.33268 12.1363 9.5434 11.6276 9.91847 11.2525C10.2935 10.8775 10.8022 10.6667 11.3327 10.6667C11.8631 10.6667 12.3718 10.8775 12.7469 11.2525C13.122 11.6276 13.3327 12.1363 13.3327 12.6667C13.3327 13.1972 13.122 13.7059 12.7469 14.081C12.3718 14.456 11.8631 14.6667 11.3327 14.6667ZM22.666 12.6667C22.666 13.1972 22.4553 13.7059 22.0802 14.081C21.7052 14.456 21.1964 14.6667 20.666 14.6667C20.1356 14.6667 19.6269 14.456 19.2518 14.081C18.8767 13.7059 18.666 13.1972 18.666 12.6667C18.666 12.1363 18.8767 11.6276 19.2518 11.2525C19.6269 10.8775 20.1356 10.6667 20.666 10.6667C21.1964 10.6667 21.7052 10.8775 22.0802 11.2525C22.4553 11.6276 22.666 12.1363 22.666 12.6667ZM21.3327 18.6667V21.3334H10.666V18.6667H21.3327Z" fill="black"/>
</svg>
