<svg width="17" height="22" viewBox="0 0 17 22" fill="none" xmlns="http://www.w3.org/2000/svg">
<g clip-path="url(#clip0_2013_82354)">
<path d="M8.5 0C4.65273 0 0.5 2.89162 0.5 7.5625C0.5 9.86769 1.47018 11.8071 3.33345 13.277C3.3528 13.2999 3.37531 13.3202 3.40036 13.3375C4.78291 14.7551 4.85273 15.0246 4.86218 15.6482C4.86655 15.895 4.86436 15.9679 4.86218 16.0078L4.85927 16.1514C4.84836 16.4622 4.83164 16.9826 5.51309 17.1793L11.3996 18.4037C11.4463 18.4133 11.4945 18.4142 11.5415 18.4063C11.5885 18.3983 11.6334 18.3817 11.6736 18.3573C11.7139 18.333 11.7486 18.3014 11.7759 18.2643C11.8032 18.2273 11.8225 18.1855 11.8327 18.1414C11.8429 18.0973 11.8439 18.0517 11.8355 18.0073C11.8271 17.9628 11.8095 17.9204 11.7837 17.8824C11.7579 17.8444 11.7245 17.8115 11.6853 17.7857C11.6461 17.7599 11.6019 17.7417 11.5553 17.732L5.69709 16.5144C5.58436 16.4821 5.57491 16.4794 5.58509 16.1721L5.58727 16.0408C5.58727 16.0408 5.59455 15.9871 5.58873 15.6379C5.57491 14.7654 5.37418 14.344 3.90945 12.8473C3.88152 12.8147 3.8475 12.7872 3.80909 12.7662C2.09564 11.3891 1.22727 9.63875 1.22727 7.5625C1.22727 3.31581 5.00182 0.6875 8.5 0.6875C12.0753 0.6875 15.7727 3.25944 15.7727 7.5625C15.7727 10.2974 14.3705 11.8051 13.2142 12.7538C13.1738 12.7722 13.1376 12.7976 13.1073 12.8287C11.6258 14.344 11.4251 14.7654 11.4113 15.6379V15.7087L11.4105 15.7328C11.4084 15.785 11.4004 15.8139 11.4011 15.8249C11.3727 15.8208 11.3444 15.8167 11.316 15.8125L8.26509 15.1339C8.21858 15.1236 8.17037 15.122 8.12321 15.1293C8.07606 15.1366 8.03088 15.1526 7.99026 15.1763C7.94964 15.2001 7.91437 15.2312 7.88646 15.2679C7.85856 15.3046 7.83857 15.3461 7.82764 15.39C7.8167 15.434 7.81503 15.4796 7.82273 15.5242C7.83043 15.5687 7.84734 15.6114 7.87249 15.6498C7.89765 15.6882 7.93056 15.7216 7.96934 15.748C8.00813 15.7743 8.05203 15.7932 8.09855 15.8036L11.1124 16.4718C11.1524 16.4856 11.5145 16.5969 11.82 16.3941C11.9531 16.3054 12.108 16.1315 12.1356 15.7987L12.1378 15.7664L12.1393 15.6984L12.1385 15.6805L12.1393 15.6489C12.1487 15.0287 12.2171 14.7593 13.5975 13.3416C13.604 13.3368 13.6113 13.332 13.6171 13.3265C15.5567 11.7858 16.5 9.9 16.5 7.5625C16.5 2.82906 12.4324 0 8.5 0ZM11.4091 20.2812C11.4916 20.2814 11.5717 20.2549 11.6361 20.2061C11.7005 20.1574 11.7454 20.0893 11.7633 20.0131C11.7739 19.9691 11.7753 19.9235 11.7672 19.879C11.7592 19.8345 11.7419 19.7919 11.7165 19.7538C11.691 19.7156 11.6578 19.6825 11.6188 19.6564C11.5798 19.6304 11.5357 19.6119 11.4891 19.602L5.67091 18.3549C5.57781 18.3371 5.48103 18.3544 5.40127 18.4031C5.32151 18.4519 5.2651 18.5282 5.2441 18.6158C5.2231 18.7034 5.23919 18.7952 5.28891 18.8717C5.33864 18.9482 5.41805 19.0033 5.51018 19.0252L11.3284 20.2723C11.3548 20.2783 11.3819 20.2813 11.4091 20.2812V20.2812ZM6.03382 20.3184C5.98654 20.3066 5.93722 20.3039 5.88882 20.3105C5.84042 20.3171 5.79393 20.3329 5.75212 20.3569C5.71032 20.3809 5.67407 20.4126 5.64553 20.4501C5.61699 20.4877 5.59676 20.5303 5.58604 20.5754C5.57533 20.6205 5.57434 20.6672 5.58315 20.7126C5.59197 20.7581 5.61039 20.8014 5.63732 20.84C5.66426 20.8786 5.69915 20.9117 5.73991 20.9372C5.78067 20.9627 5.82646 20.9803 5.87455 20.9887L10.6018 21.9911C10.6491 22.0029 10.6984 22.0056 10.7468 21.999C10.7952 21.9923 10.8417 21.9766 10.8835 21.9526C10.9253 21.9286 10.9616 21.8969 10.9901 21.8593C11.0186 21.8218 11.0389 21.7792 11.0496 21.7341C11.0603 21.689 11.0613 21.6423 11.0525 21.5968C11.0437 21.5513 11.0252 21.508 10.9983 21.4694C10.9714 21.4308 10.9365 21.3978 10.8957 21.3722C10.855 21.3467 10.8092 21.3292 10.7611 21.3207L6.03382 20.3184Z" fill="black"/>
</g>
<defs>
<clipPath id="clip0_2013_82354">
<rect width="16" height="22" fill="white" transform="translate(0.5)"/>
</clipPath>
</defs>
</svg>
