<svg width="18" height="18" viewBox="0 0 18 18" fill="none" xmlns="http://www.w3.org/2000/svg">
<g clip-path="url(#clip0_2898_21702)">
<mask id="mask0_2898_21702" style="mask-type:luminance" maskUnits="userSpaceOnUse" x="0" y="0" width="18" height="18">
<path d="M0 1.90735e-06H18V18H0V1.90735e-06Z" fill="white"/>
</mask>
<g mask="url(#mask0_2898_21702)">
<path d="M14.8385 1.44141H3.18628C1.7203 1.44141 0.520874 2.6376 0.520874 4.09961V16.0133C0.520874 16.2294 0.660022 16.425 0.858198 16.5123C1.05641 16.5993 1.29315 16.5617 1.45318 16.4161C3.00779 15.0094 5.03184 14.2302 7.13099 14.2303L14.8406 14.2309C16.2978 14.2309 17.4662 13.0516 17.4662 11.5983V4.06202C17.4662 2.61471 16.2898 1.44141 14.8385 1.44141Z" stroke="#475A88" stroke-width="1.5" stroke-miterlimit="10"/>
<path d="M3.67188 10.366V6.08773C3.67188 5.63784 4.03662 5.27313 4.48652 5.27313H6.18948" stroke="#475A88" stroke-miterlimit="10" stroke-linecap="round"/>
<path d="M3.67188 8.55151H6.18948" stroke="#475A88" stroke-miterlimit="10" stroke-linecap="round"/>
<path d="M7.74121 10.366V6.5319C7.74121 5.83668 8.30477 5.27313 9.00002 5.27313C9.69523 5.27313 10.2588 5.83668 10.2588 6.5319V10.366" stroke="#475A88" stroke-miterlimit="10" stroke-linecap="round"/>
<path d="M7.74121 8.52271H10.2588" stroke="#475A88" stroke-miterlimit="10" stroke-linecap="round"/>
<path d="M13.2626 5.27313C13.9578 5.27313 14.5214 5.83668 14.5214 6.53193V10.366H13.2626C12.5674 10.366 12.0038 9.80241 12.0038 9.1072V6.53193C12.0038 5.83668 12.5674 5.27313 13.2626 5.27313Z" stroke="#475A88" stroke-miterlimit="10" stroke-linecap="round"/>
<path d="M14.5215 10.366H15.4665" stroke="#475A88" stroke-miterlimit="10" stroke-linecap="round"/>
</g>
</g>
<defs>
<clipPath id="clip0_2898_21702">
<rect width="18" height="18" fill="white"/>
</clipPath>
</defs>
</svg>
