<svg width="18" height="19" viewBox="0 0 18 19" fill="none" xmlns="http://www.w3.org/2000/svg">
<g clip-path="url(#clip0_3186_25978)">
<mask id="mask0_3186_25978" style="mask-type:luminance" maskUnits="userSpaceOnUse" x="0" y="0" width="18" height="19">
<path d="M0 0.820314H18V18.8203H0V0.820314Z" fill="white"/>
</mask>
<g mask="url(#mask0_3186_25978)">
<path d="M14.8386 2.26172H3.1864C1.72042 2.26172 0.520996 3.45791 0.520996 4.91992V16.8336C0.520996 17.0497 0.660145 17.2453 0.85832 17.3326C1.05653 17.4197 1.29327 17.382 1.4533 17.2364C3.00791 15.8297 5.03196 15.0505 7.13111 15.0506L14.8407 15.0512C16.2979 15.0512 17.4663 13.8719 17.4663 12.4186V4.88234C17.4663 3.43502 16.2899 2.26172 14.8386 2.26172Z" stroke="#5D5FEF" stroke-width="1.5" stroke-miterlimit="10"/>
<path d="M3.67188 11.1855V6.90731C3.67188 6.45742 4.03662 6.09271 4.48652 6.09271H6.18948" stroke="#5D5FEF" stroke-miterlimit="10" stroke-linecap="round"/>
<path d="M3.67188 9.37109H6.18948" stroke="#5D5FEF" stroke-miterlimit="10" stroke-linecap="round"/>
<path d="M7.74121 11.1855V7.35148C7.74121 6.65626 8.30477 6.09271 9.00002 6.09271C9.69523 6.09271 10.2588 6.65626 10.2588 7.35148V11.1855" stroke="#5D5FEF" stroke-miterlimit="10" stroke-linecap="round"/>
<path d="M7.74121 9.34375H10.2588" stroke="#5D5FEF" stroke-miterlimit="10" stroke-linecap="round"/>
<path d="M13.2627 6.09271C13.9579 6.09271 14.5216 6.65626 14.5216 7.35151V11.1855H13.2627C12.5675 11.1855 12.0039 10.622 12.0039 9.92678V7.35151C12.0039 6.65626 12.5675 6.09271 13.2627 6.09271Z" stroke="#5D5FEF" stroke-miterlimit="10" stroke-linecap="round"/>
<path d="M14.5215 11.1855H15.4665" stroke="#5D5FEF" stroke-miterlimit="10" stroke-linecap="round"/>
</g>
</g>
<defs>
<clipPath id="clip0_3186_25978">
<rect width="18" height="18" fill="white" transform="translate(0 0.820312)"/>
</clipPath>
</defs>
</svg>
