<svg width="24" height="24" viewBox="0 0 24 24" fill="none" xmlns="http://www.w3.org/2000/svg">
<g clip-path="url(#clip0_1212_41826)">
<g filter="url(#filter0_ii_1212_41826)">
<path fill-rule="evenodd" clip-rule="evenodd" d="M9.81081 3.60211C9.47984 3.72934 9.13579 4.0647 8.96717 4.42449L8.83491 4.70667L8.80886 12.0819C8.78523 18.7627 8.77512 19.4819 8.70107 19.7208C8.56773 20.1512 8.3004 20.668 8.02739 21.0234L7.7715 21.3564H13.5227C19.9856 21.3564 19.6203 21.376 20.428 20.9852C21.4122 20.5091 22.0686 19.7156 22.3859 18.6184L22.5 18.2238V11.4652V4.70667L22.3677 4.42449C22.1945 4.05489 21.8556 3.729 21.51 3.5997C21.2414 3.49916 21.1758 3.49807 15.6532 3.50059C10.1845 3.5031 10.0628 3.50523 9.81081 3.60211ZM18.6289 6.4703C18.9523 6.63369 19.0849 6.85806 19.0609 7.20116C19.0383 7.52459 18.9061 7.74012 18.6579 7.85788C18.5083 7.92887 18.1687 7.93794 15.6675 7.93794C13.1662 7.93794 12.8266 7.92887 12.677 7.85788C12.4288 7.74012 12.2966 7.52459 12.274 7.20116C12.25 6.85806 12.3826 6.63369 12.706 6.4703L12.9258 6.3593H15.6675H18.4092L18.6289 6.4703ZM3.65501 7.7603C3.54647 7.79463 3.38994 7.85802 3.30711 7.90119C3.1308 7.99315 2.78251 8.35855 2.67733 8.5619C2.49781 8.9091 2.48958 9.18097 2.50546 14.2525L2.521 19.2104L2.63096 19.5346C3.26173 21.3947 5.61193 21.9736 6.97977 20.6058C7.14311 20.4424 7.35035 20.165 7.44833 19.9786C7.78699 19.3341 7.77274 19.6248 7.77352 13.3522L7.77426 7.69128L5.8133 7.69459C4.37699 7.697 3.79955 7.71457 3.65501 7.7603ZM19.7108 10.6749C20.0209 10.8352 20.2007 11.2419 20.1102 11.5779C20.049 11.8054 19.7907 12.0664 19.5619 12.132C19.3287 12.1989 12.0039 12.1969 11.7627 12.13C11.5173 12.0618 11.2477 11.7552 11.2036 11.4942C11.1593 11.2319 11.3267 10.8727 11.5678 10.7129L11.7355 10.6019H15.6526C19.0144 10.6019 19.5896 10.6123 19.7108 10.6749ZM19.7108 13.8322C20.0209 13.9925 20.2007 14.3992 20.1102 14.7352C20.049 14.9627 19.7907 15.2237 19.5619 15.2893C19.3287 15.3562 12.0039 15.3542 11.7627 15.2872C11.5173 15.2191 11.2477 14.9125 11.2036 14.6515C11.1593 14.3892 11.3267 14.03 11.5678 13.8702L11.7355 13.7592H15.6526C19.0144 13.7592 19.5896 13.7695 19.7108 13.8322ZM19.7108 16.9895C20.0209 17.1498 20.2007 17.5564 20.1102 17.8925C20.049 18.12 19.7907 18.3809 19.5619 18.4466C19.3287 18.5134 12.0039 18.5115 11.7627 18.4445C11.5173 18.3763 11.2477 18.0697 11.2036 17.8088C11.1593 17.5465 11.3267 17.1872 11.5678 17.0275L11.7355 16.9164H15.6526C19.0144 16.9164 19.5896 16.9268 19.7108 16.9895Z" fill="#B9D3EB"/>
</g>
</g>
<defs>
<filter id="filter0_ii_1212_41826" x="2.5" y="-8.5" width="20" height="41.8594" filterUnits="userSpaceOnUse" color-interpolation-filters="sRGB">
<feFlood flood-opacity="0" result="BackgroundImageFix"/>
<feBlend mode="normal" in="SourceGraphic" in2="BackgroundImageFix" result="shape"/>
<feColorMatrix in="SourceAlpha" type="matrix" values="0 0 0 0 0 0 0 0 0 0 0 0 0 0 0 0 0 0 127 0" result="hardAlpha"/>
<feOffset dy="12"/>
<feGaussianBlur stdDeviation="11"/>
<feComposite in2="hardAlpha" operator="arithmetic" k2="-1" k3="1"/>
<feColorMatrix type="matrix" values="0 0 0 0 1 0 0 0 0 1 0 0 0 0 1 0 0 0 0.5 0"/>
<feBlend mode="normal" in2="shape" result="effect1_innerShadow_1212_41826"/>
<feColorMatrix in="SourceAlpha" type="matrix" values="0 0 0 0 0 0 0 0 0 0 0 0 0 0 0 0 0 0 127 0" result="hardAlpha"/>
<feOffset dy="-12"/>
<feGaussianBlur stdDeviation="6"/>
<feComposite in2="hardAlpha" operator="arithmetic" k2="-1" k3="1"/>
<feColorMatrix type="matrix" values="0 0 0 0 0.552941 0 0 0 0 0.486275 0 0 0 0 0.964706 0 0 0 1 0"/>
<feBlend mode="normal" in2="effect1_innerShadow_1212_41826" result="effect2_innerShadow_1212_41826"/>
</filter>
<clipPath id="clip0_1212_41826">
<rect width="24" height="24" fill="white"/>
</clipPath>
</defs>
</svg>
