<svg width="25" height="24" viewBox="0 0 25 24" fill="none" xmlns="http://www.w3.org/2000/svg">
<g clip-path="url(#clip0_1909_61555)">
<g filter="url(#filter0_ii_1909_61555)">
<path fill-rule="evenodd" clip-rule="evenodd" d="M10.3108 3.60211C9.97984 3.72934 9.63579 4.0647 9.46717 4.42449L9.33491 4.70667L9.30886 12.0819C9.28523 18.7627 9.27512 19.4819 9.20107 19.7208C9.06773 20.1512 8.8004 20.668 8.52739 21.0234L8.2715 21.3564H14.0227C20.4856 21.3564 20.1203 21.376 20.928 20.9852C21.9122 20.5091 22.5686 19.7156 22.8859 18.6184L23 18.2238V11.4652V4.70667L22.8677 4.42449C22.6945 4.05489 22.3556 3.729 22.01 3.5997C21.7414 3.49916 21.6758 3.49807 16.1532 3.50059C10.6845 3.5031 10.5628 3.50523 10.3108 3.60211ZM19.1289 6.4703C19.4523 6.63369 19.5849 6.85806 19.5609 7.20116C19.5383 7.52459 19.4061 7.74012 19.1579 7.85788C19.0083 7.92887 18.6687 7.93794 16.1675 7.93794C13.6662 7.93794 13.3266 7.92887 13.177 7.85788C12.9288 7.74012 12.7966 7.52459 12.774 7.20116C12.75 6.85806 12.8826 6.63369 13.206 6.4703L13.4258 6.3593H16.1675H18.9092L19.1289 6.4703ZM4.15501 7.7603C4.04647 7.79463 3.88994 7.85802 3.80711 7.90119C3.6308 7.99315 3.28251 8.35855 3.17733 8.5619C2.99781 8.9091 2.98958 9.18097 3.00546 14.2525L3.021 19.2104L3.13096 19.5346C3.76173 21.3947 6.11193 21.9736 7.47977 20.6058C7.64311 20.4424 7.85035 20.165 7.94833 19.9786C8.28699 19.3341 8.27274 19.6248 8.27352 13.3522L8.27426 7.69128L6.3133 7.69459C4.87699 7.697 4.29955 7.71457 4.15501 7.7603ZM20.2108 10.6749C20.5209 10.8352 20.7007 11.2419 20.6102 11.5779C20.549 11.8054 20.2907 12.0664 20.0619 12.132C19.8287 12.1989 12.5039 12.1969 12.2627 12.13C12.0173 12.0618 11.7477 11.7552 11.7036 11.4942C11.6593 11.2319 11.8267 10.8727 12.0678 10.7129L12.2355 10.6019H16.1526C19.5144 10.6019 20.0896 10.6123 20.2108 10.6749ZM20.2108 13.8322C20.5209 13.9925 20.7007 14.3992 20.6102 14.7352C20.549 14.9627 20.2907 15.2237 20.0619 15.2893C19.8287 15.3562 12.5039 15.3542 12.2627 15.2872C12.0173 15.2191 11.7477 14.9125 11.7036 14.6515C11.6593 14.3892 11.8267 14.03 12.0678 13.8702L12.2355 13.7592H16.1526C19.5144 13.7592 20.0896 13.7695 20.2108 13.8322ZM20.2108 16.9895C20.5209 17.1498 20.7007 17.5564 20.6102 17.8925C20.549 18.12 20.2907 18.3809 20.0619 18.4466C19.8287 18.5134 12.5039 18.5115 12.2627 18.4445C12.0173 18.3763 11.7477 18.0697 11.7036 17.8088C11.6593 17.5465 11.8267 17.1872 12.0678 17.0275L12.2355 16.9164H16.1526C19.5144 16.9164 20.0896 16.9268 20.2108 16.9895Z" fill="#B9D3EB"/>
</g>
</g>
<defs>
<filter id="filter0_ii_1909_61555" x="3" y="-8.5" width="20" height="41.8594" filterUnits="userSpaceOnUse" color-interpolation-filters="sRGB">
<feFlood flood-opacity="0" result="BackgroundImageFix"/>
<feBlend mode="normal" in="SourceGraphic" in2="BackgroundImageFix" result="shape"/>
<feColorMatrix in="SourceAlpha" type="matrix" values="0 0 0 0 0 0 0 0 0 0 0 0 0 0 0 0 0 0 127 0" result="hardAlpha"/>
<feOffset dy="12"/>
<feGaussianBlur stdDeviation="11"/>
<feComposite in2="hardAlpha" operator="arithmetic" k2="-1" k3="1"/>
<feColorMatrix type="matrix" values="0 0 0 0 1 0 0 0 0 1 0 0 0 0 1 0 0 0 0.5 0"/>
<feBlend mode="normal" in2="shape" result="effect1_innerShadow_1909_61555"/>
<feColorMatrix in="SourceAlpha" type="matrix" values="0 0 0 0 0 0 0 0 0 0 0 0 0 0 0 0 0 0 127 0" result="hardAlpha"/>
<feOffset dy="-12"/>
<feGaussianBlur stdDeviation="6"/>
<feComposite in2="hardAlpha" operator="arithmetic" k2="-1" k3="1"/>
<feColorMatrix type="matrix" values="0 0 0 0 0.613533 0 0 0 0 0.732716 0 0 0 0 0.842731 0 0 0 1 0"/>
<feBlend mode="normal" in2="effect1_innerShadow_1909_61555" result="effect2_innerShadow_1909_61555"/>
</filter>
<clipPath id="clip0_1909_61555">
<rect width="24" height="24" fill="white" transform="translate(0.5)"/>
</clipPath>
</defs>
</svg>
