<svg width="24" height="24" viewBox="0 0 24 24" fill="none" xmlns="http://www.w3.org/2000/svg">
<g clip-path="url(#clip0_2103_64090)">
<g filter="url(#filter0_ii_2103_64090)">
<path fill-rule="evenodd" clip-rule="evenodd" d="M12.0104 2.83011C11.7853 3.28667 11.5674 3.68831 11.5262 3.72255C11.485 3.75685 11.0468 3.84225 10.5524 3.91236C10.0581 3.98255 9.62097 4.07019 9.5812 4.10727C9.53633 4.14906 9.78315 4.45101 10.2324 4.90382L10.956 5.63296L10.7937 6.58382C10.7044 7.10682 10.6553 7.5585 10.6843 7.58764C10.7135 7.6167 11.1371 7.43386 11.6258 7.18127L12.5142 6.7221L13.3867 7.17483C13.8664 7.42382 14.2879 7.60974 14.3232 7.58794C14.3584 7.56614 14.3139 7.11101 14.224 6.57655L14.0608 5.60487L14.7599 4.90876C15.1443 4.52592 15.4588 4.17663 15.4588 4.13251C15.4588 4.08667 15.0515 3.99626 14.5067 3.9212C13.9831 3.84899 13.5196 3.76082 13.4768 3.72509C13.4339 3.68944 13.2147 3.28667 12.9896 2.83011C12.7645 2.37356 12.5442 2 12.5 2C12.4558 2 12.2355 2.37356 12.0104 2.83011ZM9.69101 10.067C9.38914 10.1748 9.39139 10.1312 9.39139 15.9326C9.39139 20.6411 9.40816 21.5449 9.49768 21.6673C9.5997 21.8069 9.71955 21.8127 12.4824 21.8127C14.812 21.8127 15.3844 21.7931 15.4847 21.71C15.598 21.616 15.6086 21.1199 15.6086 15.9276V10.2482L15.4421 10.1316C15.2984 10.0309 14.9012 10.0158 12.5395 10.0209C11.0346 10.0241 9.75281 10.0449 9.69101 10.067ZM2.79963 13.9621C2.50367 14.0679 2.5 14.1156 2.5 17.8828C2.5 21.4928 2.5015 21.5287 2.65768 21.67C2.80689 21.8051 2.96779 21.8127 5.66052 21.8127H8.50577L8.64891 21.6359C8.78547 21.4673 8.79213 21.2921 8.79213 17.8685V14.2778L8.60824 14.094L8.42442 13.9101L5.66816 13.916C4.15228 13.9193 2.86142 13.94 2.79963 13.9621ZM16.4139 16.6876C16.2933 16.7579 16.2828 16.9584 16.2828 19.1855C16.2828 21.3467 16.2961 21.6182 16.4067 21.71C16.5069 21.7931 17.0793 21.8127 19.4089 21.8127C22.1718 21.8127 22.2916 21.8069 22.3937 21.6673C22.4801 21.5491 22.5 21.0855 22.5 19.1883C22.5 17.0226 22.4901 16.8458 22.363 16.7307C22.2405 16.6199 21.9255 16.607 19.3855 16.609C17.5959 16.6105 16.4965 16.6396 16.4139 16.6876Z" fill="#B9D3EB"/>
</g>
</g>
<defs>
<filter id="filter0_ii_2103_64090" x="2.5" y="-10" width="20" height="43.8125" filterUnits="userSpaceOnUse" color-interpolation-filters="sRGB">
<feFlood flood-opacity="0" result="BackgroundImageFix"/>
<feBlend mode="normal" in="SourceGraphic" in2="BackgroundImageFix" result="shape"/>
<feColorMatrix in="SourceAlpha" type="matrix" values="0 0 0 0 0 0 0 0 0 0 0 0 0 0 0 0 0 0 127 0" result="hardAlpha"/>
<feOffset dy="12"/>
<feGaussianBlur stdDeviation="11"/>
<feComposite in2="hardAlpha" operator="arithmetic" k2="-1" k3="1"/>
<feColorMatrix type="matrix" values="0 0 0 0 1 0 0 0 0 1 0 0 0 0 1 0 0 0 0.5 0"/>
<feBlend mode="normal" in2="shape" result="effect1_innerShadow_2103_64090"/>
<feColorMatrix in="SourceAlpha" type="matrix" values="0 0 0 0 0 0 0 0 0 0 0 0 0 0 0 0 0 0 127 0" result="hardAlpha"/>
<feOffset dy="-12"/>
<feGaussianBlur stdDeviation="6"/>
<feComposite in2="hardAlpha" operator="arithmetic" k2="-1" k3="1"/>
<feColorMatrix type="matrix" values="0 0 0 0 0.431373 0 0 0 0 0.435294 0 0 0 0 0.976471 0 0 0 1 0"/>
<feBlend mode="normal" in2="effect1_innerShadow_2103_64090" result="effect2_innerShadow_2103_64090"/>
</filter>
<clipPath id="clip0_2103_64090">
<rect width="24" height="24" fill="white"/>
</clipPath>
</defs>
</svg>
