<svg width="24" height="25" viewBox="0 0 24 25" fill="none" xmlns="http://www.w3.org/2000/svg">
<g clip-path="url(#clip0_1277_54072)">
<path d="M11.0549 19.9754L11.0538 19.9744C8.46371 17.6257 6.37476 15.7297 4.92429 13.9564C3.48243 12.1936 2.75 10.6436 2.75 9C2.75 6.33421 4.83421 4.25 7.5 4.25C9.01291 4.25 10.4767 4.95795 11.429 6.07625L12 6.7468L12.571 6.07625C13.5233 4.95795 14.9871 4.25 16.5 4.25C19.1658 4.25 21.25 6.33421 21.25 9C21.25 10.6436 20.5176 12.1936 19.0756 13.9579C17.6251 15.7324 15.5363 17.6307 12.9464 19.9842C12.9461 19.9845 12.9459 19.9847 12.9456 19.9849L12.0019 20.8375L11.0549 19.9754Z" stroke="#8C8C8C" stroke-width="1.5"/>
</g>
<defs>
<clipPath id="clip0_1277_54072">
<rect width="24" height="24" fill="white" transform="translate(0 0.5)"/>
</clipPath>
</defs>
</svg>
