<svg width="25" height="25" viewBox="0 0 25 25" fill="none" xmlns="http://www.w3.org/2000/svg">
<g clip-path="url(#clip0_2080_81814)">
<path fill-rule="evenodd" clip-rule="evenodd" d="M5.10063 2.55752C4.75025 2.63275 4.26043 2.88362 3.98185 3.13043C3.25135 3.77768 2.82094 4.65852 2.57268 6.01418C2.47568 6.54402 2.4758 8.1126 2.57288 8.7695C2.88019 10.8486 3.72089 12.8406 4.84608 14.1558C5.1501 14.5112 5.29619 14.612 5.50744 14.6122C5.68944 14.6124 10.2853 13.3897 10.5201 13.2786C10.7175 13.1852 10.7838 13.0903 10.8613 12.7902C11.0399 12.0988 11.0919 10.8152 10.9806 9.84427C10.4821 5.4934 7.668 2.0061 5.10063 2.55752ZM6.43119 3.92779C8.14028 4.74896 9.62241 7.63685 9.78616 10.4647C9.81915 11.0348 9.7796 11.9929 9.71613 12.1598C9.68443 12.2432 9.50774 12.2976 7.72362 12.7739C5.45018 13.3807 5.75827 13.383 5.33891 12.7559C4.61432 11.6723 4.09354 10.3133 3.84826 8.866C3.74387 8.24998 3.70319 7.05174 3.76791 6.50048C3.92682 5.14764 4.41152 4.19813 5.11708 3.85756C5.33778 3.75102 5.38116 3.74379 5.72771 3.75595C6.07015 3.76798 6.12787 3.78209 6.43119 3.92779ZM18.2803 5.05873C17.6381 5.24863 17.0731 5.6069 16.4692 6.20733C15.0519 7.61645 14.0095 9.99846 13.7516 12.4173C13.6719 13.1652 13.6983 14.2099 13.8135 14.8649C13.9039 15.379 13.9773 15.5647 14.1361 15.6807C14.2004 15.7277 15.1939 16.0137 16.696 16.4176C19.5412 17.1827 19.3648 17.16 19.7172 16.8074C20.0325 16.492 20.5135 15.8277 20.827 15.2748C21.4667 14.1464 21.9251 12.7848 22.1487 11.349C22.2749 10.5384 22.2746 9.05782 22.148 8.35214C21.9292 7.13233 21.5426 6.30957 20.901 5.69788C20.3596 5.18172 19.7912 4.95739 19.0344 4.96102C18.6961 4.96266 18.5343 4.98361 18.2803 5.05873ZM19.629 6.30832C19.9215 6.43959 20.0897 6.57978 20.2879 6.85758C20.768 7.53043 21.0157 8.51547 21.019 9.76611C21.0233 11.3463 20.6489 12.8917 19.9112 14.339C19.6802 14.7921 19.3097 15.3816 19.1051 15.6213L18.9945 15.7508L17.7634 15.4193C17.0863 15.2369 16.2 14.9988 15.7939 14.8901C15.3879 14.7814 15.0504 14.6872 15.0439 14.6808C15.0036 14.6405 14.9494 13.9178 14.9494 13.4202C14.9494 10.4894 16.4744 7.28206 18.2844 6.40594C18.8031 6.15488 19.2197 6.12463 19.629 6.30832ZM8.44219 15.1441C7.28144 15.4549 6.25681 15.7437 6.16524 15.7858C5.98741 15.8676 5.85852 16.0371 5.82021 16.2398C5.78242 16.4398 6.26935 18.1718 6.47563 18.5709C6.71958 19.0429 7.18541 19.5003 7.66788 19.7416C8.15517 19.9853 8.50652 20.0595 9.06157 20.0358C9.78706 20.0049 10.3424 19.7682 10.8603 19.2693C11.4853 18.6671 11.7883 17.8311 11.699 16.9554C11.6645 16.6171 11.2189 14.9729 11.1276 14.8474C11.0451 14.734 10.7492 14.5719 10.6323 14.5762C10.5885 14.5778 9.60294 14.8334 8.44219 15.1441ZM10.3242 16.4646C10.4861 17.0665 10.509 17.2492 10.4575 17.5285C10.3049 18.3569 9.52075 18.9228 8.70592 18.7926C8.21946 18.7149 7.75867 18.3803 7.55079 17.9539C7.44832 17.7437 7.18818 16.8108 7.2225 16.7766C7.25627 16.7427 10.0783 15.9857 10.1415 15.9935C10.1807 15.9983 10.2397 16.1503 10.3242 16.4646ZM13.8727 17.0905C13.5997 17.2094 13.5558 17.3168 13.1691 18.8137C13.0375 19.3232 13.0289 19.3918 13.0444 19.8103C13.0576 20.1659 13.0832 20.3251 13.1672 20.5725C13.7348 22.2439 15.5831 22.9834 17.1489 22.1656C17.6497 21.904 18.1639 21.3391 18.3757 20.8179C18.5538 20.3797 18.9443 18.867 18.9225 18.6999C18.9007 18.5328 18.8115 18.3916 18.653 18.2733C18.5392 18.1883 14.3041 17.0369 14.1092 17.0379C14.0447 17.0382 13.9383 17.0619 13.8727 17.0905ZM16.2001 18.852C16.8987 19.0375 17.4902 19.1957 17.5146 19.2037C17.5708 19.2221 17.3109 20.1801 17.1772 20.4471C17.0536 20.6942 16.7239 21.0011 16.4452 21.1287C15.9687 21.3469 15.3099 21.2725 14.8915 20.9532C14.3295 20.5245 14.1619 19.9012 14.3843 19.0678C14.4388 18.8636 14.5007 18.6316 14.5219 18.5523L14.5604 18.4081L14.7451 18.4614C14.8468 18.4907 15.5015 18.6665 16.2001 18.852Z" fill="#8C8C8C"/>
</g>
<defs>
<clipPath id="clip0_2080_81814">
<rect width="24" height="24" fill="white" transform="translate(0.5 0.5)"/>
</clipPath>
</defs>
</svg>
