<svg width="25" height="25" viewBox="0 0 25 25" fill="none" xmlns="http://www.w3.org/2000/svg">
<g clip-path="url(#clip0_1921_159431)">
<g filter="url(#filter0_ii_1921_159431)">
<path fill-rule="evenodd" clip-rule="evenodd" d="M9.8196 4.38727C9.48862 4.5145 9.14458 4.84986 8.97596 5.20964L8.8437 5.49182L8.81765 12.867C8.79402 19.5478 8.78391 20.267 8.70986 20.506C8.57652 20.9363 8.30918 21.4532 8.03618 21.8085L7.78029 22.1415H13.5315C19.9944 22.1415 19.6291 22.1612 20.4368 21.7704C21.421 21.2943 22.0774 20.5008 22.3947 19.4036L22.5088 19.0089V12.2504V5.49182L22.3765 5.20964C22.2033 4.84004 21.8644 4.51415 21.5188 4.38485C21.2502 4.28431 21.1846 4.28323 15.662 4.28574C10.1933 4.28826 10.0716 4.29038 9.8196 4.38727ZM18.6377 7.25546C18.9611 7.41885 19.0937 7.64321 19.0697 7.98632C19.0471 8.30974 18.9149 8.52528 18.6667 8.64303C18.5171 8.71402 18.1775 8.7231 15.6762 8.7231C13.175 8.7231 12.8354 8.71402 12.6858 8.64303C12.4376 8.52528 12.3054 8.30974 12.2828 7.98632C12.2588 7.64321 12.3914 7.41885 12.7148 7.25546L12.9345 7.14446H15.6762H18.4179L18.6377 7.25546ZM3.66379 8.54545C3.55526 8.57979 3.39873 8.64318 3.3159 8.68635C3.13959 8.7783 2.7913 9.14371 2.68612 9.34706C2.5066 9.69426 2.49836 9.96613 2.51425 15.0377L2.52979 19.9956L2.63975 20.3198C3.27052 22.1799 5.62071 22.7588 6.98855 21.3909C7.15189 21.2276 7.35914 20.9501 7.45711 20.7637C7.79578 20.1193 7.78152 20.41 7.78231 14.1373L7.78305 8.47644L5.82209 8.47974C4.38577 8.48216 3.80834 8.49972 3.66379 8.54545ZM19.7196 11.4601C20.0297 11.6204 20.2095 12.027 20.119 12.3631C20.0578 12.5906 19.7995 12.8515 19.5706 12.9172C19.3375 12.984 12.0127 12.9821 11.7715 12.9151C11.5261 12.8469 11.2565 12.5403 11.2124 12.2794C11.1681 12.0171 11.3355 11.6578 11.5766 11.4981L11.7443 11.3871H15.6613C19.0232 11.3871 19.5984 11.3974 19.7196 11.4601ZM19.7196 14.6173C20.0297 14.7777 20.2095 15.1843 20.119 15.5204C20.0578 15.7478 19.7995 16.0088 19.5706 16.0745C19.3375 16.1413 12.0127 16.1393 11.7715 16.0724C11.5261 16.0042 11.2565 15.6976 11.2124 15.4367C11.1681 15.1744 11.3355 14.8151 11.5766 14.6554L11.7443 14.5443H15.6613C19.0232 14.5443 19.5984 14.5547 19.7196 14.6173ZM19.7196 17.7746C20.0297 17.9349 20.2095 18.3416 20.119 18.6776C20.0578 18.9051 19.7995 19.1661 19.5706 19.2317C19.3375 19.2986 12.0127 19.2966 11.7715 19.2297C11.5261 19.1615 11.2565 18.8549 11.2124 18.5939C11.1681 18.3316 11.3355 17.9724 11.5766 17.8127L11.7443 17.7016H15.6613C19.0232 17.7016 19.5984 17.712 19.7196 17.7746Z" fill="#B9D3EB"/>
</g>
</g>
<defs>
<filter id="filter0_ii_1921_159431" x="2.50879" y="-7.71484" width="20" height="41.8594" filterUnits="userSpaceOnUse" color-interpolation-filters="sRGB">
<feFlood flood-opacity="0" result="BackgroundImageFix"/>
<feBlend mode="normal" in="SourceGraphic" in2="BackgroundImageFix" result="shape"/>
<feColorMatrix in="SourceAlpha" type="matrix" values="0 0 0 0 0 0 0 0 0 0 0 0 0 0 0 0 0 0 127 0" result="hardAlpha"/>
<feOffset dy="12"/>
<feGaussianBlur stdDeviation="11"/>
<feComposite in2="hardAlpha" operator="arithmetic" k2="-1" k3="1"/>
<feColorMatrix type="matrix" values="0 0 0 0 1 0 0 0 0 1 0 0 0 0 1 0 0 0 0.5 0"/>
<feBlend mode="normal" in2="shape" result="effect1_innerShadow_1921_159431"/>
<feColorMatrix in="SourceAlpha" type="matrix" values="0 0 0 0 0 0 0 0 0 0 0 0 0 0 0 0 0 0 127 0" result="hardAlpha"/>
<feOffset dy="-12"/>
<feGaussianBlur stdDeviation="6"/>
<feComposite in2="hardAlpha" operator="arithmetic" k2="-1" k3="1"/>
<feColorMatrix type="matrix" values="0 0 0 0 0.613533 0 0 0 0 0.732716 0 0 0 0 0.842731 0 0 0 1 0"/>
<feBlend mode="normal" in2="effect1_innerShadow_1921_159431" result="effect2_innerShadow_1921_159431"/>
</filter>
<clipPath id="clip0_1921_159431">
<rect width="24" height="24" fill="white" transform="translate(0.00878906 0.785156)"/>
</clipPath>
</defs>
</svg>
