<svg width="46" height="45" viewBox="0 0 46 45" fill="none" xmlns="http://www.w3.org/2000/svg">
<path d="M19.8459 16.6661L18.7737 22.9341C18.7403 23.1281 18.7617 23.3277 18.8355 23.5102C18.9093 23.6927 19.0327 23.8508 19.1915 23.9667C19.3504 24.0825 19.5384 24.1515 19.7343 24.1657C19.9302 24.1799 20.1262 24.1388 20.3 24.0471L25.9139 21.088L31.5281 24.0471C31.7019 24.1388 31.8977 24.1799 32.0935 24.1658C32.2893 24.1516 32.4773 24.0828 32.6361 23.9672C32.795 23.8515 32.9184 23.6936 32.9924 23.5113C33.0663 23.3289 33.088 23.1295 33.0548 22.9355L31.9822 16.6661L36.5242 12.2269C36.6647 12.0895 36.764 11.9155 36.811 11.7244C36.8579 11.5334 36.8507 11.333 36.79 11.1459C36.7294 10.9588 36.6177 10.7925 36.4677 10.6657C36.3177 10.5388 36.1353 10.4566 35.9411 10.4283L29.6649 9.51423L26.8567 3.81048C26.7704 3.63359 26.6362 3.48464 26.4694 3.38069C26.3026 3.27673 26.1099 3.22197 25.9135 3.22266V3.22266C25.7171 3.22198 25.5244 3.27675 25.3576 3.3807C25.1907 3.48465 25.0564 3.63359 24.97 3.81048L22.1639 9.51352L15.8877 10.4276C15.6935 10.4559 15.5111 10.5381 15.3611 10.665C15.2111 10.7918 15.0995 10.9581 15.0388 11.1452C14.9782 11.3323 14.9709 11.5327 15.0179 11.7237C15.0648 11.9147 15.1642 12.0888 15.3046 12.2262L19.8459 16.6661Z" fill="#E6E7E8"/>
<path d="M42.9504 23.1329C42.5392 22.6952 41.9791 22.4283 41.3809 22.3851C40.7827 22.3419 40.1902 22.5256 39.7208 22.8998L33.4526 27.8522C33.2419 27.5746 32.9701 27.3496 32.6583 27.1947C32.3465 27.0399 32.0032 26.9594 31.6553 26.9596H26.5137C25.2372 26.9596 23.9673 26.7769 22.7423 26.4168L21.5418 26.0653C20.4325 25.7255 19.2692 25.5989 18.113 25.6919C15.0541 25.9573 13.7824 27.5903 13.099 28.4664C12.9851 28.627 12.8559 28.7762 12.7133 28.9119C12.6025 28.9948 11.3476 29.8147 10.3536 30.4605C10.0518 30.1062 9.6318 29.8739 9.17189 29.807C8.71198 29.7401 8.24349 29.843 7.85363 30.0966L4.8158 32.0562C4.38558 32.335 4.0831 32.7735 3.9746 33.2754C3.8661 33.7774 3.96042 34.302 4.23691 34.7344L9.08399 42.293C9.22103 42.5074 9.39893 42.6925 9.60747 42.8379C9.81601 42.9832 10.0511 43.0858 10.2993 43.1398C10.5474 43.1939 10.8038 43.1983 11.0537 43.1528C11.3036 43.1074 11.542 43.0129 11.7554 42.8749L14.795 40.9149C15.2256 40.6367 15.5285 40.1986 15.6373 39.6967C15.7461 39.1947 15.6519 38.6701 15.3753 38.2378L15.0797 37.7772C16.6085 36.8354 17.7831 36.1516 17.9826 36.0897C18.7939 35.8615 20.5516 36.2437 22.4117 36.6504C24.2178 37.0453 26.0849 37.4534 27.636 37.4534C29.6557 37.4534 31.2959 36.4226 32.3162 35.5574C33.1788 34.8213 42.7831 26.6133 42.7856 26.6098C43.0304 26.3963 43.2296 26.1354 43.3711 25.8426C43.5125 25.5499 43.5934 25.2314 43.6088 24.9065C43.6242 24.5815 43.5738 24.2568 43.4607 23.9519C43.3475 23.647 43.1739 23.3683 42.9504 23.1325V23.1329Z" fill="#E6E7E8"/>
<path d="M41.2943 21.9689C40.942 21.5969 40.4639 21.3702 39.9536 21.3334C39.4433 21.2966 38.9377 21.4523 38.5359 21.7699L31.9627 26.9635C31.8031 26.646 31.5589 26.379 31.2572 26.1922C30.9555 26.0054 30.608 25.9061 30.2534 25.9053H25.1118C23.802 25.9051 22.4989 25.7175 21.2419 25.3481L20.0407 24.9965C18.9731 24.6703 17.8539 24.5481 16.7413 24.6362C13.0499 24.9564 12.1246 27.3365 11.5218 27.7879C11.3567 27.9117 9.27537 29.2645 8.87109 29.5271L13.188 36.2609C13.6323 35.9857 16.1231 34.4483 16.4839 34.3456C18.188 33.8619 23.0428 35.696 26.2331 35.696C28.1675 35.696 29.7464 34.6807 30.6861 33.8837C31.55 33.1486 41.1537 24.9399 41.1537 24.9399C41.3629 24.7575 41.5331 24.5345 41.6539 24.2844C41.7748 24.0343 41.8439 23.7622 41.8571 23.4845C41.8702 23.2069 41.8271 22.9294 41.7304 22.6689C41.6337 22.4085 41.4853 22.1703 41.2943 21.9689V21.9689Z" fill="#FFD7E5"/>
<path d="M25.1402 2.55993L28.029 8.42857L34.4879 9.3697C34.6174 9.38855 34.739 9.44335 34.839 9.5279C34.9391 9.61244 35.0135 9.72337 35.054 9.84812C35.0945 9.97288 35.0993 10.1065 35.068 10.2339C35.0366 10.3612 34.9704 10.4773 34.8767 10.5689L30.2029 15.1371L31.3063 21.5861C31.3283 21.7154 31.3138 21.8482 31.2646 21.9696C31.2153 22.091 31.1331 22.1962 31.0274 22.2732C30.9216 22.3503 30.7965 22.3962 30.6661 22.4057C30.5357 22.4153 30.4053 22.3881 30.2895 22.3272L24.5115 19.2831L18.7342 22.3283C18.6184 22.3892 18.488 22.4163 18.3576 22.4068C18.2272 22.3973 18.1021 22.3514 17.9963 22.2743C17.8906 22.1972 17.8084 22.092 17.7591 21.9706C17.7098 21.8492 17.6954 21.7164 17.7174 21.5872L18.8201 15.1371L14.1462 10.5689C14.0526 10.4773 13.9863 10.3613 13.955 10.2339C13.9237 10.1066 13.9285 9.97301 13.9689 9.84826C14.0093 9.72351 14.0837 9.61258 14.1837 9.52801C14.2837 9.44345 14.4053 9.38861 14.5347 9.3697L20.994 8.42857L23.8825 2.55993C23.9404 2.44228 24.03 2.34322 24.1411 2.27395C24.2522 2.20468 24.3805 2.16797 24.5113 2.16797C24.6422 2.16797 24.7704 2.20468 24.8815 2.27395C24.9927 2.34322 25.0823 2.44228 25.1402 2.55993V2.55993Z" fill="#FA759E"/>
<path d="M11.5218 28.843C12.1246 28.3916 13.0499 26.0115 16.7413 25.6913C17.8539 25.6032 18.9731 25.7254 20.0407 26.0516L21.2419 26.4032C22.4989 26.7724 23.802 26.96 25.1118 26.9601H30.2534C30.608 26.9609 30.9555 27.0602 31.2572 27.247C31.5589 27.4338 31.8031 27.7007 31.9627 28.0183L38.5359 22.8246C38.803 22.6134 39.1183 22.4721 39.4534 22.4135C39.7885 22.3548 40.1329 22.3805 40.4556 22.4885C40.7783 22.5964 41.0692 22.783 41.3021 23.0316C41.535 23.2803 41.7026 23.583 41.7898 23.9127C41.9001 23.4954 41.8767 23.0539 41.7229 22.6506C41.5691 22.2474 41.2927 21.9029 40.9328 21.6659C40.5729 21.4289 40.1478 21.3114 39.7176 21.3301C39.2875 21.3487 38.874 21.5026 38.5359 21.7699L31.9627 26.965C31.8031 26.6475 31.5589 26.3805 31.2572 26.1937C30.9555 26.0069 30.608 25.9076 30.2534 25.9068H25.1118C23.802 25.9066 22.4989 25.7189 21.2419 25.3495L20.0407 24.998C18.9731 24.6718 17.8539 24.5495 16.7413 24.6376C13.0499 24.9579 12.1246 27.338 11.5218 27.7894C11.3567 27.9131 9.27537 29.266 8.87109 29.5286L9.3483 30.2714C10.1039 29.7792 11.3946 28.9394 11.5218 28.843Z" fill="white"/>
<path d="M6.64084 28.9864L3.60288 30.9464C2.86811 31.4204 2.65573 32.4019 3.12851 33.1387L7.97887 40.6969C8.45166 41.4336 9.43057 41.6466 10.1653 41.1725L13.2033 39.2126C13.9381 38.7385 14.1504 37.757 13.6777 37.0203L8.8273 29.462C8.35452 28.7253 7.3756 28.5123 6.64084 28.9864Z" fill="#0089EF"/>
<path d="M9.49571 38.9062C9.97982 38.9062 10.3723 38.5128 10.3723 38.0273C10.3723 37.5419 9.97982 37.1484 9.49571 37.1484C9.01159 37.1484 8.61914 37.5419 8.61914 38.0273C8.61914 38.5128 9.01159 38.9062 9.49571 38.9062Z" fill="#D4FBFF"/>
<path d="M18.4439 15.2602L17.3717 21.5282C17.3375 21.7224 17.3584 21.9223 17.4321 22.1052C17.5057 22.2881 17.6291 22.4466 17.7882 22.5626C17.9472 22.6786 18.1356 22.7475 18.3318 22.7614C18.528 22.7753 18.7242 22.7336 18.898 22.6412L24.5122 19.6821L30.1261 22.6412C30.2998 22.7328 30.4956 22.7738 30.6914 22.7596C30.8871 22.7455 31.075 22.6767 31.2338 22.561C31.3926 22.4454 31.516 22.2875 31.5899 22.1052C31.6639 21.9229 31.6855 21.7235 31.6524 21.5296L30.5802 15.2602L35.1222 10.821C35.2626 10.6836 35.3619 10.5096 35.4089 10.3185C35.4559 10.1275 35.4486 9.92714 35.388 9.74004C35.3273 9.55294 35.2157 9.38658 35.0657 9.25976C34.9157 9.13294 34.7333 9.05072 34.5391 9.02239L28.2629 8.10833L25.4547 2.40458C25.3684 2.22765 25.2342 2.07865 25.0674 1.97464C24.9006 1.87062 24.7079 1.81579 24.5115 1.81641C24.315 1.81581 24.1224 1.87064 23.9555 1.97465C23.7887 2.07866 23.6544 2.22765 23.568 2.40458L20.7619 8.10762L14.4857 9.02168C14.2915 9.04996 14.109 9.13215 13.959 9.25894C13.8089 9.38574 13.6972 9.55209 13.6365 9.7392C13.5758 9.92631 13.5686 10.1267 13.6155 10.3178C13.6625 10.5088 13.7618 10.6829 13.9022 10.8203L18.4439 15.2602ZM14.3026 9.95719C14.3223 9.89444 14.3594 9.83861 14.4096 9.79622C14.4598 9.75382 14.5209 9.72662 14.5859 9.71778L21.0448 8.77665C21.1012 8.76851 21.1547 8.74675 21.2007 8.71324C21.2468 8.67974 21.284 8.6355 21.3092 8.58434L24.1977 2.71571C24.2261 2.65619 24.2709 2.60609 24.3268 2.57132C24.3828 2.53655 24.4475 2.51858 24.5133 2.51954V2.51954C24.5791 2.51858 24.6437 2.53655 24.6997 2.57132C24.7556 2.60609 24.8004 2.65619 24.8288 2.71571L27.7176 8.58434C27.7428 8.63545 27.78 8.67967 27.826 8.71317C27.872 8.74667 27.9254 8.76845 27.9817 8.77665L34.4385 9.71778C34.5032 9.72726 34.564 9.75471 34.614 9.79703C34.664 9.83935 34.7011 9.89484 34.7213 9.95724C34.7415 10.0196 34.7438 10.0865 34.7281 10.1501C34.7124 10.2138 34.6792 10.2718 34.6324 10.3175L29.9585 14.8857C29.9178 14.9255 29.8874 14.9747 29.8699 15.0289C29.8524 15.0831 29.8482 15.1407 29.8579 15.1969L30.9613 21.647C30.9723 21.7116 30.9651 21.7781 30.9405 21.8389C30.9158 21.8996 30.8747 21.9523 30.8218 21.9908C30.7688 22.0294 30.7062 22.0523 30.641 22.057C30.5757 22.0617 30.5104 22.0481 30.4525 22.0175L24.6752 18.9723C24.6249 18.9458 24.5689 18.9319 24.512 18.9319C24.4552 18.9319 24.3991 18.9458 24.3488 18.9723L18.5719 22.0175C18.514 22.0481 18.4487 22.0617 18.3835 22.057C18.3182 22.0523 18.2556 22.0294 18.2026 21.9908C18.1497 21.9523 18.1086 21.8996 18.0839 21.8389C18.0593 21.7781 18.0521 21.7116 18.0631 21.647L19.1665 15.1969C19.1761 15.1407 19.1719 15.083 19.1543 15.0288C19.1368 14.9746 19.1063 14.9255 19.0656 14.8857L14.3917 10.3175C14.3441 10.2722 14.3105 10.2143 14.2947 10.1504C14.2789 10.0866 14.2817 10.0195 14.3026 9.95719V9.95719Z" fill="#3A2C60"/>
<path d="M41.5486 21.7265C41.1374 21.2888 40.5772 21.0219 39.979 20.9788C39.3809 20.9357 38.7884 21.1195 38.319 21.4938L32.0508 26.4459C31.8401 26.1683 31.5683 25.9432 31.2565 25.7884C30.9447 25.6335 30.6014 25.5531 30.2535 25.5533H25.1119C23.8354 25.5533 22.5655 25.3705 21.3405 25.0105L20.1396 24.6589C19.0304 24.3192 17.8673 24.1925 16.7112 24.2856C13.6527 24.5506 12.3806 26.184 11.6972 27.0597C11.5831 27.2204 11.4539 27.3698 11.3115 27.5059C11.2063 27.5846 10.0626 28.3328 8.95251 29.0545C8.65057 28.7003 8.23057 28.468 7.77065 28.401C7.31072 28.334 6.84218 28.4368 6.45218 28.6903L3.41505 30.6492C2.98417 30.9276 2.68109 31.3661 2.57236 31.8684C2.46362 32.3706 2.55812 32.8956 2.83511 33.3281L7.68219 40.8867C7.81929 41.101 7.99722 41.2861 8.20578 41.4313C8.41434 41.5766 8.64942 41.6792 8.89758 41.7332C9.14573 41.7872 9.40207 41.7916 9.65193 41.7461C9.90178 41.7006 10.1402 41.6062 10.3536 41.4682L13.3932 39.5086C13.8237 39.2302 14.1265 38.7921 14.2352 38.2903C14.344 37.7884 14.2499 37.2638 13.9735 36.8314L13.6779 36.3705C15.1856 35.4424 16.3844 34.7442 16.5811 34.683C17.3918 34.4542 19.1491 34.8367 21.0099 35.2434C22.816 35.6386 24.6834 36.0467 26.2342 36.0467C28.2549 36.0467 29.8944 35.016 30.9148 34.1508C31.1234 33.9732 31.8422 33.3597 32.8117 32.5311C32.8467 32.5011 32.8755 32.4645 32.8964 32.4233C32.9173 32.3821 32.93 32.3372 32.9336 32.2912C32.9372 32.2451 32.9317 32.1988 32.9175 32.1548C32.9032 32.1109 32.8805 32.0702 32.8506 32.0351C32.8206 31.9999 32.7841 31.971 32.743 31.9501C32.702 31.9291 32.6572 31.9164 32.6113 31.9128C32.5653 31.9092 32.5191 31.9147 32.4753 31.9289C32.4315 31.9432 32.3909 31.966 32.3558 31.996C31.3867 32.8243 30.6686 33.4374 30.4603 33.6132C29.5301 34.4021 28.041 35.3426 26.2332 35.3426C24.7577 35.3426 22.9278 34.9425 21.1582 34.5554C19.1246 34.111 17.3714 33.7268 16.3897 34.0056C16.051 34.1019 14.4198 35.0877 13.2989 35.7788L9.35468 29.63C10.1194 29.1329 11.5829 28.1795 11.7316 28.0677C11.9273 27.8979 12.1013 27.7046 12.2498 27.4922C12.9107 26.6438 14.0173 25.2239 16.7729 24.9852C17.8419 24.9005 18.9172 25.0185 19.9426 25.3329L21.1442 25.6844C22.4331 26.0631 23.7694 26.2554 25.1126 26.2554H30.2535C30.5436 26.256 30.8278 26.3373 31.0745 26.4903C31.3212 26.6433 31.5207 26.862 31.6507 27.122V27.122C31.763 27.3427 31.821 27.5872 31.8201 27.8349C31.8195 28.2538 31.6533 28.6553 31.358 28.9515C31.0626 29.2477 30.6621 29.4143 30.2444 29.4149H21.0737C20.9807 29.4149 20.8915 29.4519 20.8258 29.5178C20.76 29.5838 20.7231 29.6732 20.7231 29.7664C20.7231 29.8597 20.76 29.9491 20.8258 30.015C20.8915 30.0809 20.9807 30.118 21.0737 30.118H30.2444C30.8481 30.1174 31.4269 29.8767 31.8538 29.4487C32.2807 29.0206 32.5208 28.4403 32.5213 27.8349C32.5216 27.5748 32.4771 27.3166 32.3899 27.0717L38.753 22.0444C39.1014 21.7655 39.5449 21.6347 39.9884 21.6803C40.4318 21.7258 40.8398 21.9439 41.1245 22.2878C41.4092 22.6317 41.5481 23.0739 41.5111 23.5193C41.4742 23.9647 41.2644 24.3778 40.9269 24.6698L36.7261 28.2607C36.691 28.2907 36.6622 28.3273 36.6413 28.3685C36.6204 28.4097 36.6078 28.4546 36.6041 28.5006C36.6005 28.5467 36.606 28.593 36.6202 28.637C36.6345 28.6809 36.6572 28.7216 36.6871 28.7567C36.7171 28.7919 36.7536 28.8207 36.7947 28.8417C36.8357 28.8627 36.8805 28.8754 36.9264 28.879C37.0192 28.8863 37.1111 28.8564 37.1819 28.7958L41.3838 25.2035C41.6285 24.99 41.8276 24.729 41.969 24.4362C42.1105 24.1435 42.1913 23.825 42.2067 23.5001C42.2221 23.1752 42.1717 22.8505 42.0586 22.5457C41.9455 22.2408 41.772 21.962 41.5486 21.7262V21.7265ZM13.0121 38.9179L9.97424 40.8779C9.8382 40.9656 9.68627 41.0256 9.52711 41.0544C9.36795 41.0833 9.20469 41.0804 9.04664 41.0459C8.88859 41.0115 8.73886 40.9462 8.606 40.8537C8.47314 40.7612 8.35974 40.6434 8.27229 40.507L3.42522 32.946C3.24909 32.6706 3.18904 32.3364 3.25826 32.0167C3.32747 31.697 3.52028 31.4179 3.79443 31.2405L6.83226 29.2806C7.03004 29.1521 7.26068 29.0837 7.49635 29.0837C7.585 29.0838 7.67339 29.0933 7.76002 29.1122C7.91829 29.1461 8.06826 29.2112 8.20122 29.3037C8.33418 29.3962 8.44749 29.5143 8.53456 29.6511L13.3816 37.2118C13.558 37.4873 13.6181 37.8217 13.5488 38.1415C13.4795 38.4614 13.2865 38.7406 13.0121 38.9179V38.9179Z" fill="#3A2C60"/>
<path d="M35.59 29.2328L33.5616 30.9656C33.5265 30.9957 33.4977 31.0323 33.4768 31.0735C33.4558 31.1146 33.4432 31.1596 33.4396 31.2056C33.4359 31.2517 33.4414 31.2981 33.4556 31.342C33.4699 31.386 33.4926 31.4267 33.5225 31.4619C33.5524 31.497 33.589 31.5259 33.6301 31.5469C33.6711 31.5679 33.7159 31.5806 33.7619 31.5842C33.8078 31.5879 33.8541 31.5824 33.8979 31.5681C33.9418 31.5539 33.9824 31.5311 34.0174 31.5011L36.0437 29.7675C36.1144 29.7069 36.1582 29.6206 36.1655 29.5276C36.1728 29.4346 36.1429 29.3425 36.0824 29.2716C36.022 29.2007 35.9359 29.1568 35.8432 29.1495C35.7504 29.1422 35.6586 29.1722 35.5879 29.2328H35.59Z" fill="#3A2C60"/>
<path d="M9.49575 36.7969C9.25303 36.7969 9.01577 36.869 8.81396 37.0042C8.61215 37.1395 8.45485 37.3316 8.36197 37.5565C8.26909 37.7813 8.24478 38.0287 8.29214 38.2674C8.33949 38.5061 8.45637 38.7253 8.62799 38.8974C8.79962 39.0695 9.01828 39.1867 9.25634 39.2342C9.49439 39.2816 9.74114 39.2573 9.96538 39.1641C10.1896 39.071 10.3813 38.9133 10.5161 38.711C10.651 38.5086 10.7229 38.2707 10.7229 38.0273C10.7229 37.701 10.5937 37.388 10.3635 37.1573C10.1334 36.9265 9.82122 36.7969 9.49575 36.7969V36.7969ZM9.49575 38.5547C9.39173 38.5547 9.29004 38.5238 9.20355 38.4658C9.11706 38.4079 9.04965 38.3255 9.00984 38.2291C8.97004 38.1328 8.95962 38.0268 8.97992 37.9245C9.00021 37.8222 9.0503 37.7282 9.12385 37.6545C9.19741 37.5807 9.29112 37.5305 9.39315 37.5101C9.49517 37.4898 9.60092 37.5002 9.69702 37.5401C9.79312 37.5801 9.87526 37.6476 9.93306 37.7344C9.99085 37.8211 10.0217 37.923 10.0217 38.0273C10.0217 38.1672 9.96628 38.3013 9.86765 38.4002C9.76901 38.4991 9.63524 38.5547 9.49575 38.5547Z" fill="#3A2C60"/>
</svg>
