<svg width="71" height="71" viewBox="0 0 71 71" fill="none" xmlns="http://www.w3.org/2000/svg">
<path d="M37.4986 62.3345C37.4782 62.9495 36.2499 65.0414 34.6858 63.9519C33.8615 63.3244 33.4905 62.4875 33.5563 61.4623C33.7336 58.7774 36.7393 55.8878 35.8506 53.1323C35.7 52.6514 35.5149 52.4412 35.2404 51.7949C34.3329 49.6371 34.0544 46.8534 34.9509 44.6226C35.0451 44.3692 35.2435 43.9904 35.26 43.9574C36.464 41.6043 36.3581 38.2496 35.6851 36.0353C35.4686 35.3293 35.3337 35.1097 35.1117 34.6767C34.1289 32.7597 33.7281 31.0208 34.7376 29.1124C35.2027 28.2065 35.733 27.8417 36.1879 26.5553C36.5017 25.6345 36.4883 24.7803 36.2985 24.141C36.2616 24.0997 36.2188 24.064 36.1714 24.0352C36.442 24.8893 36.3581 26.1577 35.562 27.4715C35.0702 28.2959 33.7014 29.6599 33.9548 31.9479C34.1274 33.512 34.947 34.7717 35.2333 35.4258C36.0428 37.346 36.3017 40.838 35.38 43.2139C35.0663 44.0571 33.8764 45.6619 34.3085 48.9829C34.4318 49.9733 34.6894 50.9423 35.0741 51.8631C35.4608 52.7746 36.3158 53.679 35.4835 55.9537C34.7996 57.8267 33.4646 59.6143 33.3289 61.4443C33.2426 62.6263 33.7501 63.588 34.5321 64.1582C35.4953 64.8704 36.5205 64.5708 37.348 63.6876C37.6225 63.3934 38.1096 62.7463 38.1363 62.3353L37.4986 62.3345Z" fill="#006F8C"/>
<path d="M36.0467 23.8203C34.8606 24.2101 33.65 24.5209 32.4229 24.7506C33.2982 24.6721 34.5713 24.4298 36.0012 23.9882C37.1542 25.2934 38.9394 27.1955 40.5301 27.9289C38.9998 27.0692 37.2303 25.1247 36.0467 23.8203Z" fill="#C96706"/>
<path d="M36.9104 36.9651C36.1009 38.6311 34.7722 41.8282 34.8153 43.6848C34.8483 45.3155 36.3943 49.5276 35.8421 51.4501C34.74 55.2418 31.3562 58.3526 34.6231 61.687C35.4711 62.5302 36.4703 63.3169 36.7998 64.4644C37.0265 65.2174 36.8633 66.1587 36.6029 66.8113C35.9621 68.42 34.3 69.7095 31.75 69.8091V69.0977C33.9321 69.5817 36.3817 68.2302 36.6916 65.6269C36.992 62.9529 33.896 62.3631 33.143 59.7629C32.3587 57.0898 34.7118 54.295 35.562 51.3748C36.0146 49.7951 34.9424 46.5792 34.5745 44.3155C34.5808 44.2582 34.0176 42.5734 36.2876 37.9707C36.4633 37.6138 36.6562 37.249 36.8523 36.9023L36.9104 36.9651Z" fill="#069EC1"/>
<path d="M36.063 29.9531C34.1358 36.7638 38.3785 39.7743 44.5123 37.8894C45.2168 37.6779 45.9021 37.4074 46.5611 37.0807C44.8864 38.0016 42.953 38.5153 41.2713 38.5444C36.9808 38.6401 34.91 35.821 35.6238 31.667C35.7265 31.0803 35.9015 30.5241 36.063 29.9531Z" fill="#E03405"/>
<path d="M33.0863 34.0391C33.8652 36.3412 35.0229 40.027 35.5288 42.4115C35.8912 44.0735 35.8481 44.6956 35.6136 45.6713C34.9453 48.4676 32.1866 52.6405 33.8095 57.2094C34.1515 58.1405 34.768 59.3037 35.6504 59.7767C36.0372 59.9877 36.4865 60.0539 36.9177 59.9637C37.3489 59.8734 37.7338 59.6325 38.0035 59.2841C38.8209 58.1405 38.1541 56.1968 36.703 55.4509L37.1289 54.9057C38.3604 55.8744 39.0318 57.5334 38.5079 58.9453C38.0373 60.1595 36.1069 60.9572 34.6778 59.2292C33.5075 57.7695 32.84 55.3968 33.1875 52.9142C33.3655 51.62 33.877 49.9069 34.3405 48.6857C35.5955 45.378 35.8379 44.8501 35.3061 42.4609C34.757 39.9917 33.6306 36.5208 32.8008 34.1418L33.0863 34.0391Z" fill="#00A0C8"/>
<path d="M37.1243 54.9077C38.3055 55.8348 39.0067 57.424 38.5589 58.8296C38.3118 59.7771 37.0521 60.5654 35.8394 60.1191C33.8001 59.3802 33.284 56.3705 33.2181 56.0615C33.1679 55.6489 32.4376 53.8386 34.1797 49.0068C35.4167 45.6513 35.8387 45.1344 35.3108 42.6221C34.7696 40.1223 33.6283 36.5604 32.8008 34.1406C33.5961 36.3933 35.2582 41.3388 35.5563 43.7029C35.8449 45.9603 34.5539 47.5016 33.5954 51.1411C32.7043 54.5375 33.2659 55.7164 33.3922 56.4529L33.5012 56.8522C33.9224 58.1071 34.6072 59.6171 35.8583 60.0744C37.0176 60.505 38.2435 59.7834 38.5251 58.8194C38.7557 58.1134 38.6922 57.3542 38.4247 56.6623C38.1526 55.9735 37.7041 55.3684 37.1243 54.9077Z" fill="#097189"/>
<path d="M35.1014 26.4375C35.1014 26.4563 35.1595 27.025 35.1563 26.9866C35.1563 26.9944 35.1924 27.5764 35.19 27.5395C35.19 27.5474 35.2034 28.1302 35.2026 28.0933C35.2026 28.5373 35.1524 29.2048 35.1524 29.1977C35.1524 29.2134 35.0842 29.7813 35.0881 29.7468C35.0328 30.1103 34.9593 30.4708 34.8677 30.8269C32.8895 38.2243 22.9899 35.0766 19.2422 30.6457C22.9413 35.3441 33.0754 38.3325 34.961 30.8512C35.1493 30.1813 35.2308 29.1255 35.223 29.204C35.223 29.1961 35.2504 28.6118 35.2481 28.6486C35.234 28.3349 35.303 27.9247 35.1014 26.4375Z" fill="#643596"/>
<g opacity="0.74">
<path d="M47.81 17.7157C48.0618 19.4076 42.543 21.367 42.543 21.367C42.543 21.367 43.4544 27.4216 41.9155 27.9714C40.3765 28.5213 36.0711 23.677 36.0711 23.677C36.0711 23.677 30.5601 25.6544 29.3553 24.3045C28.1505 22.9546 31.0103 17.9989 31.0103 17.9989C31.0103 17.9989 26.6963 13.1656 27.4901 11.7796C28.2839 10.3936 34.3573 12.1773 34.3573 12.1773C34.3573 12.1773 37.199 7.21299 38.8964 7.70636C40.5938 8.19973 41.4849 14.2574 41.4849 14.2574C41.4849 14.2574 47.5575 16.0231 47.81 17.7157Z" fill="url(#paint0_linear_2248_87368)"/>
<g style="mix-blend-mode:multiply">
<path d="M40.7257 20.019C40.7257 20.019 39.3138 21.9337 34.7072 20.3555C32.0301 19.4394 29.4519 15.0414 27.7631 11.5117C27.6499 11.5758 27.5551 11.6679 27.4878 11.7792C26.6909 13.1652 31.0081 17.9985 31.0081 17.9985C31.0081 17.9985 28.1483 22.951 29.3531 24.3041C30.5578 25.6571 36.0681 23.6766 36.0681 23.6766C36.0681 23.6766 40.3719 28.5216 41.9132 27.971C43.4545 27.4204 42.5407 21.3666 42.5407 21.3666C42.5407 21.3666 48.0596 19.4056 47.8078 17.7153C45.1762 20.8395 40.7257 20.019 40.7257 20.019Z" fill="#FCEE21"/>
</g>
<path d="M47.5296 18.4725C47.3574 18.6825 47.1598 18.8704 46.9413 19.0318C45.4259 20.1911 42.3543 21.2108 42.3276 21.2225C42.5998 27.4073 43.2265 31.0217 36.1036 23.4447C34.7247 23.9247 30.504 25.4307 29.3525 24.3012C30.4201 25.528 34.6274 24.353 36.0197 23.909C42.0202 30.6923 43.9419 29.213 42.7583 21.5049C44.1333 20.9637 45.9499 20.1048 47.0339 19.1424C47.245 18.9611 47.4323 18.754 47.5916 18.5259C47.7422 18.2945 47.8543 18.0145 47.8065 17.7188C47.8316 18.0098 47.6967 18.2639 47.5296 18.4725Z" fill="#F4A811"/>
<g style="mix-blend-mode:screen">
<path d="M34.3073 13.4554C31.242 12.424 29.172 13.8013 28.9163 12.9063C28.6049 11.8106 33.2492 12.926 34.3073 13.4554Z" fill="#FCEE21"/>
</g>
<g style="mix-blend-mode:screen">
<path d="M35.4414 12.9278C35.7999 11.9983 37.3239 8.49212 38.1083 9.27257C38.7068 9.87732 37.5043 9.63338 35.4414 12.9278Z" fill="#FCEE21"/>
</g>
<g style="mix-blend-mode:screen">
<path d="M40.0674 15.6772C41.7067 15.5893 46.6396 16.1329 46.2851 17.1879C46.1588 17.5636 45.7141 17.3385 45.7431 17.3448C44.0261 16.3494 41.9413 15.8184 40.0674 15.6772Z" fill="#FCEE21"/>
</g>
</g>
<path d="M32.5174 19.9704C35.4109 23.5691 36.6071 31.143 32.9417 34.0891C29.2763 37.0352 22.1354 34.2421 19.2418 30.6426C16.3483 27.0431 16.9742 21.7368 20.6404 18.7892C24.3065 15.8415 29.6238 16.3709 32.5174 19.9704Z" fill="url(#paint1_linear_2248_87368)"/>
<path d="M26.36 19.3299L25.7082 19.2483L25.516 19.8758L25.3929 19.231L24.7363 19.2428L25.3113 18.9259L25.0979 18.3047L25.5764 18.7541L26.1011 18.3588L25.8219 18.9534L26.36 19.3299Z" fill="#F5DD7D"/>
<path d="M27.8686 20.8672L28.1525 22.3379L29.6499 22.3104L28.3392 23.0352L28.8279 24.4502L27.7337 23.4274L26.5383 24.3302L27.1728 22.9732L25.9453 22.1151L27.4317 22.3002L27.8686 20.8672Z" fill="#F5DD7D"/>
<path d="M26.6893 28.6566L25.9081 27.7961L24.9269 28.4181L25.5034 27.4094L24.6084 26.6682L25.7465 26.9043L26.1748 25.8242L26.3011 26.9796L27.4612 27.0533L26.4015 27.531L26.6893 28.6566Z" fill="#FFF0B0"/>
<path d="M24.2302 22.9747L23.5125 23.1864L23.598 23.93L23.1744 23.3127L22.4944 23.6241L22.9501 23.0304L22.4434 22.4797L23.1493 22.7299L23.5164 22.0781L23.4968 22.8264L24.2302 22.9747Z" fill="#FFF0B0"/>
<path d="M31.6041 21.86L30.8793 21.2129L30.1185 21.8153L30.5091 20.9266L29.7012 20.3885L30.6675 20.4865L30.9287 19.5508L31.135 20.4999L32.1053 20.4607L31.266 20.9493L31.6041 21.86Z" fill="#FFF0B0"/>
<path d="M31.75 25.5284L31.2534 25.6108L31.2495 26.1143L31.0173 25.6672L30.5381 25.8194L30.8911 25.4609L30.5977 25.0515L31.0479 25.2758L31.3468 24.8711L31.2723 25.3692L31.75 25.5284Z" fill="#FFF0B0"/>
<path d="M19.9756 28.0161L19.4273 27.929L19.2469 28.4546L19.1606 27.9055L18.6045 27.8969L19.1002 27.6443L18.9371 27.1133L19.3293 27.507L19.7842 27.187L19.5316 27.682L19.9756 28.0161Z" fill="#FFF0B0"/>
<path d="M28.381 33.0615L27.1982 32.7069L26.6452 33.8113L26.6177 32.576L25.3965 32.3916L26.5621 31.9838L26.3605 30.7656L27.108 31.7477L28.2045 31.1798L27.5017 32.1948L28.381 33.0615Z" fill="#F7DE00"/>
<path d="M31.7499 29.6789L31.0157 29.293L30.5098 29.9503L30.6494 29.133L29.8682 28.8553L30.6886 28.7353L30.7114 27.9062L31.0792 28.6498L31.8746 28.4153L31.2808 28.9942L31.7499 29.6789Z" fill="#F7DE00"/>
<path d="M23.7172 30.2011L23.0473 30.1179L22.8512 30.7627L22.7234 30.1007L22.0488 30.1124L22.6395 29.7861L22.4191 29.1484L22.9116 29.6096L23.4505 29.2033L23.1642 29.8144L23.7172 30.2011Z" fill="#F7DE00"/>
<path d="M23.7172 32.7535L23.4882 32.81L23.5047 33.0453L23.38 32.8453L23.1611 32.9339L23.3125 32.7535L23.1611 32.5723L23.38 32.661L23.5047 32.4609L23.4882 32.6962L23.7172 32.7535Z" fill="#F7DE00"/>
<path d="M32.4288 32.037L31.9903 31.9029L31.7825 32.3115L31.7746 31.8527L31.3213 31.7821L31.7558 31.6331L31.6829 31.1797L31.959 31.546L32.3676 31.3373L32.1041 31.7131L32.4288 32.037Z" fill="#F7DE00"/>
<g style="mix-blend-mode:multiply" opacity="0.42">
<path d="M32.0833 31.3638C28.4171 34.3107 21.277 31.5167 18.3834 27.9173C18.0424 27.4936 17.7442 27.0372 17.4932 26.5548C17.6877 28.0539 18.2928 29.47 19.2415 30.6469C22.1351 34.2464 29.2752 37.0411 32.9414 34.0934C35.8585 31.7474 35.6969 26.4724 34.0505 22.6016C34.7596 25.9344 34.3517 29.537 32.0833 31.3638Z" fill="#9657CE"/>
</g>
<path style="mix-blend-mode:screen" opacity="0.23" d="M20.6405 18.7937C19.7079 19.5389 18.9414 20.4708 18.3901 21.5297C17.8389 22.5886 17.515 23.751 17.4395 24.9424C17.5153 25.0418 17.5937 25.1411 17.6748 25.2405C21.5355 30.0424 27.4426 31.7021 30.8687 28.9474C33.1693 27.0979 33.7654 23.7274 32.7402 20.2589C32.6681 20.1611 32.5946 20.066 32.5198 19.9734C29.6239 16.3739 24.3059 15.846 20.6405 18.7937Z" fill="url(#paint2_linear_2248_87368)"/>
<g style="mix-blend-mode:screen">
<path d="M20.7469 20.5619C22.2733 18.6457 24.9637 17.7421 26.5513 18.1131C28.4832 18.4809 30.2379 20.3611 31.1791 22.042C30.0182 20.7501 28.1522 19.099 26.4085 18.9155C25.6352 18.7963 24.0852 19.0677 22.4922 20.2003C22.0989 20.4793 21.7291 20.7899 21.3862 21.129C21.0034 21.5157 20.4057 20.9894 20.7469 20.5619Z" fill="#AC78EF"/>
</g>
<g opacity="0.81">
<path d="M48.6538 35.6216C45.8426 38.2846 39.5943 39.7992 36.8819 36.9362C34.1695 34.0733 36.0191 27.9159 38.8295 25.2491C41.6399 22.5822 46.1187 22.7477 48.831 25.6115C51.5434 28.4752 51.465 32.9579 48.6538 35.6216Z" fill="#FF7B0F"/>
<path d="M39.1044 36.0319C36.3912 33.1689 38.2415 27.0116 41.052 24.3447C41.3831 24.031 41.7443 23.7506 42.1305 23.5078C40.8907 23.7723 39.7481 24.3744 38.8291 25.2476C36.0179 27.9105 34.1683 34.0678 36.8814 36.9347C39.04 39.2133 43.438 38.7192 46.5606 37.0798C43.8239 37.8995 40.7837 37.8062 39.1044 36.0319Z" fill="#FE490F"/>
<g style="mix-blend-mode:screen" opacity="0.64">
<path d="M48.8305 25.6149C48.144 24.8866 47.3129 24.3099 46.3905 23.9217C45.468 23.5335 44.4747 23.3424 43.474 23.3606C43.3956 23.4312 43.3172 23.5025 43.2387 23.5755C39.4886 27.1287 38.5035 32.1785 41.0425 34.854C42.7446 36.651 45.602 36.92 48.4305 35.8274C48.5089 35.7599 48.5827 35.6925 48.6548 35.6242C51.4644 32.9582 51.5437 28.4778 48.8305 25.6149Z" fill="#F15A24"/>
</g>
<g style="mix-blend-mode:screen" opacity="0.58">
<path d="M47.3607 25.8249C49.0659 26.9701 50.004 29.1569 49.8024 30.5115C49.626 32.1508 48.1741 33.7423 46.8336 34.6475C47.8337 33.5902 49.0871 31.9179 49.1216 30.448C49.1695 29.7938 48.8369 28.5168 47.7819 27.2626C47.5221 26.9522 47.2372 26.6636 46.9301 26.3998C46.581 26.1065 46.9803 25.5692 47.3607 25.8249Z" fill="#FFA694"/>
</g>
</g>
<path d="M52.7842 14.418L51.5165 15.1112L50.8232 16.3789L50.13 15.1112L48.8623 14.418L50.13 13.7247L50.8232 12.457L51.5165 13.7247L52.7842 14.418Z" fill="#FFCD02" fill-opacity="0.3"/>
<path d="M26.0371 40.0664L24.7694 40.7596L24.0762 42.0273L23.3829 40.7596L22.1152 40.0664L23.3829 39.3732L24.0762 38.1055L24.7694 39.3732L26.0371 40.0664Z" fill="#FFCD02" fill-opacity="0.3"/>
<path d="M53.9607 39.6742L52.9466 40.2288L52.392 41.243L51.8374 40.2288L50.8232 39.6742L51.8374 39.1196L52.392 38.1055L52.9466 39.1196L53.9607 39.6742Z" fill="#FFCD02"/>
<path d="M25.1746 13.4789L24.1604 14.0335L23.6059 15.0476L23.0513 14.0335L22.0371 13.4789L23.0513 12.9243L23.6059 11.9102L24.1604 12.9243L25.1746 13.4789Z" fill="#FFCD02"/>
<path d="M39.9205 2.73125L39.1599 3.14718L38.7439 3.90781L38.328 3.14718L37.5674 2.73125L38.328 2.31532L38.7439 1.55469L39.1599 2.31532L39.9205 2.73125Z" fill="#FFCD02"/>
<defs>
<linearGradient id="paint0_linear_2248_87368" x1="36.2429" y1="25.3242" x2="39.1051" y2="3.6135" gradientUnits="userSpaceOnUse">
<stop stop-color="#F2E417"/>
<stop offset="1" stop-color="#FFFC9E"/>
</linearGradient>
<linearGradient id="paint1_linear_2248_87368" x1="31.6859" y1="34.9543" x2="21.7707" y2="18.4668" gradientUnits="userSpaceOnUse">
<stop stop-color="#A35AD9"/>
<stop offset="1" stop-color="#C48CED"/>
</linearGradient>
<linearGradient id="paint2_linear_2248_87368" x1="28.9878" y1="30.3993" x2="21.3778" y2="15.1801" gradientUnits="userSpaceOnUse">
<stop stop-color="#A35AD9"/>
<stop offset="1" stop-color="#C48CED"/>
</linearGradient>
</defs>
</svg>
