<svg width="54" height="29" viewBox="0 0 54 29" fill="none" xmlns="http://www.w3.org/2000/svg">
<g filter="url(#filter0_i_2460_21538)">
<path d="M3 20H1V8C1 7.46957 1.21071 6.96086 1.58579 6.58579C1.96086 6.21071 2.46957 6 3 6H19V8H3V20ZM12 28C11.7348 28 11.4804 27.8946 11.2929 27.7071C11.1054 27.5196 11 27.2652 11 27V24H7C6.46957 24 5.96086 23.7893 5.58579 23.4142C5.21071 23.0391 5 22.5304 5 22V12C5 11.4696 5.21071 10.9609 5.58579 10.5858C5.96086 10.2107 6.46957 10 7 10H21C21.5304 10 22.0391 10.2107 22.4142 10.5858C22.7893 10.9609 23 11.4696 23 12V22C23 22.5304 22.7893 23.0391 22.4142 23.4142C22.0391 23.7893 21.5304 24 21 24H16.9L13.2 27.71C13 27.89 12.76 28 12.5 28H12ZM9 14V16H19V14H9ZM9 18V20H17V18H9Z" fill="#210EF5"/>
</g>
<g filter="url(#filter1_ii_2460_21538)">
<path d="M32.9173 17.4154H30.4173V19.9154H29.584V17.4154H27.084V16.582H29.584V14.082H30.4173V16.582H32.9173V17.4154Z" fill="#B9D3EB"/>
</g>
<path d="M50.666 16.9987V22.332C50.666 22.6857 50.5255 23.0248 50.2755 23.2748C50.0254 23.5249 49.6863 23.6654 49.3327 23.6654H38.666C38.3124 23.6654 37.9733 23.5249 37.7232 23.2748C37.4732 23.0248 37.3327 22.6857 37.3327 22.332V16.9987C37.1559 16.9987 36.9863 16.9285 36.8613 16.8034C36.7363 16.6784 36.666 16.5088 36.666 16.332V14.332C36.666 13.9784 36.8065 13.6393 37.0565 13.3892C37.3066 13.1392 37.6457 12.9987 37.9993 12.9987H40.1127C40.0393 12.792 39.9993 12.5654 39.9993 12.332C39.9993 11.8016 40.2101 11.2929 40.5851 10.9178C40.9602 10.5427 41.4689 10.332 41.9993 10.332C42.666 10.332 43.2527 10.6654 43.6193 11.1587V11.152L43.9993 11.6654L44.3793 11.152V11.1587C44.746 10.6654 45.3327 10.332 45.9993 10.332C46.5298 10.332 47.0385 10.5427 47.4136 10.9178C47.7886 11.2929 47.9993 11.8016 47.9993 12.332C47.9993 12.5654 47.9593 12.792 47.886 12.9987H49.9993C50.353 12.9987 50.6921 13.1392 50.9422 13.3892C51.1922 13.6393 51.3327 13.9784 51.3327 14.332V16.332C51.3327 16.5088 51.2624 16.6784 51.1374 16.8034C51.0124 16.9285 50.8428 16.9987 50.666 16.9987ZM38.666 22.332H43.3327V16.9987H38.666V22.332ZM49.3327 22.332V16.9987H44.666V22.332H49.3327ZM41.9993 11.6654C41.8225 11.6654 41.653 11.7356 41.5279 11.8606C41.4029 11.9857 41.3327 12.1552 41.3327 12.332C41.3327 12.5088 41.4029 12.6784 41.5279 12.8034C41.653 12.9285 41.8225 12.9987 41.9993 12.9987C42.1762 12.9987 42.3457 12.9285 42.4708 12.8034C42.5958 12.6784 42.666 12.5088 42.666 12.332C42.666 12.1552 42.5958 11.9857 42.4708 11.8606C42.3457 11.7356 42.1762 11.6654 41.9993 11.6654ZM45.9993 11.6654C45.8225 11.6654 45.653 11.7356 45.5279 11.8606C45.4029 11.9857 45.3327 12.1552 45.3327 12.332C45.3327 12.5088 45.4029 12.6784 45.5279 12.8034C45.653 12.9285 45.8225 12.9987 45.9993 12.9987C46.1762 12.9987 46.3457 12.9285 46.4708 12.8034C46.5958 12.6784 46.666 12.5088 46.666 12.332C46.666 12.1552 46.5958 11.9857 46.4708 11.8606C46.3457 11.7356 46.1762 11.6654 45.9993 11.6654ZM37.9993 14.332V15.6654H43.3327V14.332H37.9993ZM44.666 14.332V15.6654H49.9993V14.332H44.666Z" fill="#796EF9"/>
<circle cx="23" cy="10" r="6" fill="#FF2424" stroke="white"/>
<path d="M19.6999 12V11.544H20.6779V8.268H19.8919V7.914C20.2879 7.848 20.5699 7.746 20.8039 7.602H21.2239V11.544H22.1119V12H19.6999ZM22.764 12V11.682C24.144 10.476 24.774 9.594 24.774 8.844C24.774 8.34 24.516 7.968 23.97 7.968C23.61 7.968 23.298 8.19 23.052 8.478L22.734 8.172C23.094 7.782 23.478 7.524 24.036 7.524C24.822 7.524 25.314 8.034 25.314 8.82C25.314 9.702 24.624 10.596 23.586 11.574C23.82 11.55 24.084 11.532 24.306 11.532H25.524V12H22.764Z" fill="white"/>
<circle cx="51" cy="13" r="2" fill="#FF2424" stroke="white"/>
<defs>
<filter id="filter0_i_2460_21538" x="1" y="6" width="22" height="34" filterUnits="userSpaceOnUse" color-interpolation-filters="sRGB">
<feFlood flood-opacity="0" result="BackgroundImageFix"/>
<feBlend mode="normal" in="SourceGraphic" in2="BackgroundImageFix" result="shape"/>
<feColorMatrix in="SourceAlpha" type="matrix" values="0 0 0 0 0 0 0 0 0 0 0 0 0 0 0 0 0 0 127 0" result="hardAlpha"/>
<feOffset dy="12"/>
<feGaussianBlur stdDeviation="15"/>
<feComposite in2="hardAlpha" operator="arithmetic" k2="-1" k3="1"/>
<feColorMatrix type="matrix" values="0 0 0 0 1 0 0 0 0 1 0 0 0 0 1 0 0 0 0.5 0"/>
<feBlend mode="normal" in2="shape" result="effect1_innerShadow_2460_21538"/>
</filter>
<filter id="filter1_ii_2460_21538" x="27.084" y="14.082" width="5.83398" height="9.83203" filterUnits="userSpaceOnUse" color-interpolation-filters="sRGB">
<feFlood flood-opacity="0" result="BackgroundImageFix"/>
<feBlend mode="normal" in="SourceGraphic" in2="BackgroundImageFix" result="shape"/>
<feColorMatrix in="SourceAlpha" type="matrix" values="0 0 0 0 0 0 0 0 0 0 0 0 0 0 0 0 0 0 127 0" result="hardAlpha"/>
<feOffset dy="4"/>
<feGaussianBlur stdDeviation="2"/>
<feComposite in2="hardAlpha" operator="arithmetic" k2="-1" k3="1"/>
<feColorMatrix type="matrix" values="0 0 0 0 0 0 0 0 0 0 0 0 0 0 0 0 0 0 0.25 0"/>
<feBlend mode="normal" in2="shape" result="effect1_innerShadow_2460_21538"/>
<feColorMatrix in="SourceAlpha" type="matrix" values="0 0 0 0 0 0 0 0 0 0 0 0 0 0 0 0 0 0 127 0" result="hardAlpha"/>
<feOffset dy="4"/>
<feGaussianBlur stdDeviation="2"/>
<feComposite in2="hardAlpha" operator="arithmetic" k2="-1" k3="1"/>
<feColorMatrix type="matrix" values="0 0 0 0 0 0 0 0 0 0 0 0 0 0 0 0 0 0 0.25 0"/>
<feBlend mode="normal" in2="effect1_innerShadow_2460_21538" result="effect2_innerShadow_2460_21538"/>
</filter>
</defs>
</svg>
