<svg width="71" height="71" viewBox="0 0 71 71" fill="none" xmlns="http://www.w3.org/2000/svg">
<path d="M37.5074 62.3345C37.487 62.9495 36.2587 65.0414 34.6946 63.9519C33.8702 63.3244 33.4992 62.4875 33.5651 61.4623C33.7424 58.7774 36.7481 55.8878 35.8594 53.1323C35.7088 52.6514 35.5237 52.4412 35.2492 51.7949C34.3417 49.6371 34.0632 46.8534 34.9597 44.6226C35.0539 44.3692 35.2523 43.9904 35.2688 43.9574C36.4728 41.6043 36.3669 38.2496 35.6939 36.0353C35.4774 35.3293 35.3425 35.1097 35.1205 34.6767C34.1377 32.7597 33.7369 31.0208 34.7464 29.1124C35.2115 28.2065 35.7418 27.8417 36.1967 26.5553C36.5104 25.6345 36.4971 24.7803 36.3073 24.141C36.2704 24.0997 36.2276 24.064 36.1802 24.0352C36.4508 24.8893 36.3669 26.1577 35.5708 27.4715C35.079 28.2959 33.7102 29.6599 33.9636 31.9479C34.1361 33.512 34.9558 34.7717 35.2421 35.4258C36.0516 37.346 36.3104 40.838 35.3888 43.2139C35.0751 44.0571 33.8851 45.6619 34.3173 48.9829C34.4406 49.9733 34.6982 50.9423 35.0829 51.8631C35.4696 52.7746 36.3245 53.679 35.4923 55.9537C34.8084 57.8267 33.4734 59.6143 33.3377 61.4443C33.2514 62.6263 33.7589 63.588 34.5409 64.1582C35.5041 64.8704 36.5293 64.5708 37.3568 63.6876C37.6313 63.3934 38.1184 62.7463 38.1451 62.3353L37.5074 62.3345Z" fill="#006F8C"/>
<path d="M36.0555 23.8203C34.8694 24.2101 33.6588 24.5209 32.4316 24.7506C33.307 24.6721 34.58 24.4298 36.01 23.9882C37.163 25.2934 38.9482 27.1955 40.5389 27.9289C39.0086 27.0692 37.2391 25.1247 36.0555 23.8203Z" fill="#C96706"/>
<path d="M36.9202 36.9651C36.1107 38.6311 34.7819 41.8282 34.8251 43.6848C34.858 45.3155 36.404 49.5276 35.8518 51.4501C34.7498 55.2418 31.366 58.3526 34.6329 61.687C35.4808 62.5302 36.4801 63.3169 36.8096 64.4644C37.0362 65.2174 36.8731 66.1587 36.6127 66.8113C35.9718 68.42 34.3098 69.7095 31.7598 69.8091V69.0977C33.9419 69.5817 36.3915 68.2302 36.7013 65.6269C37.0017 62.9529 33.9058 62.3631 33.1528 59.7629C32.3684 57.0898 34.7215 54.295 35.5718 51.3748C36.0244 49.7951 34.9522 46.5792 34.5843 44.3155C34.5906 44.2582 34.0274 42.5734 36.2974 37.9707C36.4731 37.6138 36.666 37.249 36.8621 36.9023L36.9202 36.9651Z" fill="#069EC1"/>
<path d="M36.0718 29.9531C34.1446 36.7638 38.3873 39.7743 44.5211 37.8894C45.2255 37.6779 45.9109 37.4074 46.5699 37.0807C44.8952 38.0016 42.9618 38.5153 41.2801 38.5444C36.9895 38.6401 34.9188 35.821 35.6326 31.667C35.7353 31.0803 35.9103 30.5241 36.0718 29.9531Z" fill="#E03405"/>
<path d="M33.0941 34.0391C33.873 36.3412 35.0307 40.027 35.5366 42.4115C35.899 44.0735 35.8559 44.6956 35.6214 45.6713C34.9531 48.4676 32.1944 52.6405 33.8173 57.2094C34.1593 58.1405 34.7758 59.3037 35.6582 59.7767C36.045 59.9877 36.4943 60.0539 36.9255 59.9637C37.3567 59.8734 37.7417 59.6325 38.0113 59.2841C38.8287 58.1405 38.1619 56.1968 36.7109 55.4509L37.1368 54.9057C38.3682 55.8744 39.0397 57.5334 38.5157 58.9453C38.0451 60.1595 36.1147 60.9572 34.6856 59.2292C33.5153 57.7695 32.8478 55.3968 33.1953 52.9142C33.3733 51.62 33.8848 49.9069 34.3483 48.6857C35.6033 45.378 35.8457 44.8501 35.3139 42.4609C34.7648 39.9917 33.6385 36.5208 32.8086 34.1418L33.0941 34.0391Z" fill="#00A0C8"/>
<path d="M37.1321 54.9077C38.3133 55.8348 39.0145 57.424 38.5667 58.8296C38.3196 59.7771 37.0599 60.5654 35.8473 60.1191C33.8079 59.3802 33.2918 56.3705 33.2259 56.0615C33.1757 55.6489 32.4454 53.8386 34.1875 49.0068C35.4245 45.6513 35.8465 45.1344 35.3186 42.6221C34.7774 40.1223 33.6361 36.5604 32.8086 34.1406C33.6039 36.3933 35.266 41.3388 35.5641 43.7029C35.8528 45.9603 34.5617 47.5016 33.6032 51.1411C32.7121 54.5375 33.2737 55.7164 33.4 56.4529L33.509 56.8522C33.9302 58.1071 34.615 59.6171 35.8661 60.0744C37.0254 60.505 38.2514 59.7834 38.5329 58.8194C38.7636 58.1134 38.7 57.3542 38.4325 56.6623C38.1604 55.9735 37.712 55.3684 37.1321 54.9077Z" fill="#097189"/>
<path d="M35.1092 26.4375C35.1092 26.4563 35.1673 27.025 35.1641 26.9866C35.1641 26.9944 35.2002 27.5764 35.1979 27.5395C35.1979 27.5474 35.2112 28.1302 35.2104 28.0933C35.2104 28.5373 35.1602 29.2048 35.1602 29.1977C35.1602 29.2134 35.092 29.7813 35.0959 29.7468C35.0406 30.1103 34.9671 30.4708 34.8755 30.8269C32.8973 38.2243 22.9977 35.0766 19.25 30.6457C22.9491 35.3441 33.0832 38.3325 34.9688 30.8512C35.1571 30.1813 35.2387 29.1255 35.2308 29.204C35.2308 29.1961 35.2583 28.6118 35.2559 28.6486C35.2418 28.3349 35.3108 27.9247 35.1092 26.4375Z" fill="#643596"/>
<g opacity="0.74">
<path d="M47.8198 17.7157C48.0716 19.4076 42.5527 21.367 42.5527 21.367C42.5527 21.367 43.4642 27.4216 41.9252 27.9714C40.3863 28.5213 36.0809 23.677 36.0809 23.677C36.0809 23.677 30.5699 25.6544 29.3651 24.3045C28.1603 22.9546 31.0201 17.9989 31.0201 17.9989C31.0201 17.9989 26.7061 13.1656 27.4998 11.7796C28.2936 10.3936 34.367 12.1773 34.367 12.1773C34.367 12.1773 37.2088 7.21299 38.9062 7.70636C40.6036 8.19973 41.4946 14.2574 41.4946 14.2574C41.4946 14.2574 47.5672 16.0231 47.8198 17.7157Z" fill="url(#paint0_linear_2248_83506)"/>
<g style="mix-blend-mode:multiply">
<path d="M40.7345 20.019C40.7345 20.019 39.3226 21.9337 34.716 20.3555C32.0389 19.4394 29.4607 15.0414 27.7719 11.5117C27.6587 11.5758 27.5639 11.6679 27.4966 11.7792C26.6997 13.1652 31.0169 17.9985 31.0169 17.9985C31.0169 17.9985 28.157 22.951 29.3618 24.3041C30.5666 25.6571 36.0768 23.6766 36.0768 23.6766C36.0768 23.6766 40.3807 28.5216 41.922 27.971C43.4633 27.4204 42.5495 21.3666 42.5495 21.3666C42.5495 21.3666 48.0684 19.4056 47.8166 17.7153C45.185 20.8395 40.7345 20.019 40.7345 20.019Z" fill="#FCEE21"/>
</g>
<path d="M47.5384 18.4725C47.3661 18.6825 47.1685 18.8704 46.9501 19.0318C45.4347 20.1911 42.3631 21.2108 42.3364 21.2225C42.6086 27.4073 43.2353 31.0217 36.1124 23.4447C34.7335 23.9247 30.5128 25.4307 29.3613 24.3012C30.4289 25.528 34.6362 24.353 36.0285 23.909C42.029 30.6923 43.9507 29.213 42.767 21.5049C44.142 20.9637 45.9587 20.1048 47.0427 19.1424C47.2537 18.9611 47.4411 18.754 47.6004 18.5259C47.751 18.2945 47.8631 18.0145 47.8153 17.7188C47.8404 18.0098 47.7055 18.2639 47.5384 18.4725Z" fill="#F4A811"/>
<g style="mix-blend-mode:screen">
<path d="M34.3161 13.4554C31.2508 12.424 29.1808 13.8013 28.9251 12.9063C28.6137 11.8106 33.258 12.926 34.3161 13.4554Z" fill="#FCEE21"/>
</g>
<g style="mix-blend-mode:screen">
<path d="M35.4492 12.9278C35.8077 11.9983 37.3317 8.49212 38.1161 9.27257C38.7146 9.87732 37.5121 9.63338 35.4492 12.9278Z" fill="#FCEE21"/>
</g>
<g style="mix-blend-mode:screen">
<path d="M40.0762 15.6772C41.7155 15.5893 46.6484 16.1329 46.2939 17.1879C46.1676 17.5636 45.7229 17.3385 45.7519 17.3448C44.0349 16.3494 41.95 15.8184 40.0762 15.6772Z" fill="#FCEE21"/>
</g>
</g>
<path d="M32.5261 19.9704C35.4197 23.5691 36.6159 31.143 32.9505 34.0891C29.2851 37.0352 22.1442 34.2421 19.2506 30.6426C16.3571 27.0431 16.983 21.7368 20.6492 18.7892C24.3153 15.8415 29.6326 16.3709 32.5261 19.9704Z" fill="url(#paint1_linear_2248_83506)"/>
<path d="M26.3678 19.3299L25.716 19.2483L25.5238 19.8758L25.4007 19.231L24.7441 19.2428L25.3191 18.9259L25.1057 18.3047L25.5842 18.7541L26.109 18.3588L25.8297 18.9534L26.3678 19.3299Z" fill="#F5DD7D"/>
<path d="M27.8764 20.8672L28.1603 22.3379L29.6577 22.3104L28.347 23.0352L28.8357 24.4502L27.7415 23.4274L26.5461 24.3302L27.1807 22.9732L25.9531 22.1151L27.4395 22.3002L27.8764 20.8672Z" fill="#F5DD7D"/>
<path d="M26.6981 28.6566L25.9169 27.7961L24.9356 28.4181L25.5122 27.4094L24.6172 26.6682L25.7553 26.9043L26.1836 25.8242L26.3099 26.9796L27.4699 27.0533L26.4103 27.531L26.6981 28.6566Z" fill="#FFF0B0"/>
<path d="M24.238 22.9747L23.5203 23.1864L23.6058 23.93L23.1822 23.3127L22.5022 23.6241L22.9579 23.0304L22.4512 22.4797L23.1571 22.7299L23.5242 22.0781L23.5046 22.8264L24.238 22.9747Z" fill="#FFF0B0"/>
<path d="M31.6138 21.86L30.8891 21.2129L30.1282 21.8153L30.5188 20.9266L29.7109 20.3885L30.6773 20.4865L30.9385 19.5508L31.1448 20.4999L32.1151 20.4607L31.2758 20.9493L31.6138 21.86Z" fill="#FFF0B0"/>
<path d="M31.7587 25.5284L31.2622 25.6108L31.2583 26.1143L31.0261 25.6672L30.5469 25.8194L30.8998 25.4609L30.6065 25.0515L31.0567 25.2758L31.3556 24.8711L31.2811 25.3692L31.7587 25.5284Z" fill="#FFF0B0"/>
<path d="M19.9844 28.0161L19.4361 27.929L19.2557 28.4546L19.1694 27.9055L18.6133 27.8969L19.109 27.6443L18.9459 27.1133L19.338 27.507L19.793 27.187L19.5404 27.682L19.9844 28.0161Z" fill="#FFF0B0"/>
<path d="M28.3888 33.0615L27.206 32.7069L26.653 33.8113L26.6256 32.576L25.4043 32.3916L26.5699 31.9838L26.3683 30.7656L27.1158 31.7477L28.2124 31.1798L27.5095 32.1948L28.3888 33.0615Z" fill="#F7DE00"/>
<path d="M31.7587 29.6789L31.0245 29.293L30.5186 29.9503L30.6582 29.133L29.877 28.8553L30.6974 28.7353L30.7202 27.9062L31.088 28.6498L31.8834 28.4153L31.2896 28.9942L31.7587 29.6789Z" fill="#F7DE00"/>
<path d="M23.727 30.2011L23.0571 30.1179L22.861 30.7627L22.7332 30.1007L22.0586 30.1124L22.6492 29.7861L22.4288 29.1484L22.9214 29.6096L23.4603 29.2033L23.174 29.8144L23.727 30.2011Z" fill="#F7DE00"/>
<path d="M23.726 32.7535L23.497 32.81L23.5135 33.0453L23.3888 32.8453L23.1699 32.9339L23.3213 32.7535L23.1699 32.5723L23.3888 32.661L23.5135 32.4609L23.497 32.6962L23.726 32.7535Z" fill="#F7DE00"/>
<path d="M32.4376 32.037L31.9991 31.9029L31.7913 32.3115L31.7834 31.8527L31.3301 31.7821L31.7646 31.6331L31.6917 31.1797L31.9678 31.546L32.3764 31.3373L32.1129 31.7131L32.4376 32.037Z" fill="#F7DE00"/>
<g style="mix-blend-mode:multiply" opacity="0.42">
<path d="M32.0921 31.3638C28.4259 34.3107 21.2858 31.5167 18.3922 27.9173C18.0512 27.4936 17.753 27.0372 17.502 26.5548C17.6965 28.0539 18.3016 29.47 19.2503 30.6469C22.1439 34.2464 29.284 37.0411 32.9502 34.0934C35.8673 31.7474 35.7057 26.4724 34.0593 22.6016C34.7683 25.9344 34.3605 29.537 32.0921 31.3638Z" fill="#9657CE"/>
</g>
<path style="mix-blend-mode:screen" opacity="0.23" d="M20.6483 18.7937C19.7157 19.5389 18.9492 20.4708 18.3979 21.5297C17.8467 22.5886 17.5228 23.751 17.4473 24.9424C17.5231 25.0418 17.6015 25.1411 17.6826 25.2405C21.5433 30.0424 27.4504 31.7021 30.8765 28.9474C33.1771 27.0979 33.7732 23.7274 32.748 20.2589C32.6759 20.1611 32.6024 20.066 32.5276 19.9734C29.6317 16.3739 24.3137 15.846 20.6483 18.7937Z" fill="url(#paint2_linear_2248_83506)"/>
<g style="mix-blend-mode:screen">
<path d="M20.7557 20.5619C22.2821 18.6457 24.9725 17.7421 26.5601 18.1131C28.492 18.4809 30.2466 20.3611 31.1879 22.042C30.027 20.7501 28.161 19.099 26.4173 18.9155C25.6439 18.7963 24.094 19.0677 22.501 20.2003C22.1077 20.4793 21.7378 20.7899 21.395 21.129C21.0122 21.5157 20.4145 20.9894 20.7557 20.5619Z" fill="#AC78EF"/>
</g>
<g opacity="0.81">
<path d="M48.6626 35.6216C45.8514 38.2846 39.603 39.7992 36.8907 36.9362C34.1783 34.0733 36.0279 27.9159 38.8383 25.2491C41.6487 22.5822 46.1275 22.7477 48.8398 25.6115C51.5522 28.4752 51.4738 32.9579 48.6626 35.6216Z" fill="#FF7B0F"/>
<path d="M39.1141 36.0319C36.401 33.1689 38.2513 27.0116 41.0617 24.3447C41.3928 24.031 41.7541 23.7506 42.1402 23.5078C40.9004 23.7723 39.7579 24.3744 38.8388 25.2476C36.0276 27.9105 34.1781 34.0678 36.8912 36.9347C39.0498 39.2133 43.4478 38.7192 46.5704 37.0798C43.8337 37.8995 40.7935 37.8062 39.1141 36.0319Z" fill="#FE490F"/>
<g style="mix-blend-mode:screen" opacity="0.64">
<path d="M48.8403 25.6149C48.1538 24.8866 47.3227 24.3099 46.4002 23.9217C45.4778 23.5335 44.4844 23.3424 43.4838 23.3606C43.4054 23.4312 43.3269 23.5025 43.2485 23.5755C39.4984 27.1287 38.5132 32.1785 41.0522 34.854C42.7543 36.651 45.6118 36.92 48.4403 35.8274C48.5187 35.7599 48.5924 35.6925 48.6646 35.6242C51.4742 32.9582 51.5534 28.4778 48.8403 25.6149Z" fill="#F15A24"/>
</g>
<g style="mix-blend-mode:screen" opacity="0.58">
<path d="M47.3714 25.8249C49.0767 26.9701 50.0148 29.1569 49.8132 30.5115C49.6367 32.1508 48.1848 33.7423 46.8443 34.6475C47.8444 33.5902 49.0978 31.9179 49.1324 30.448C49.1802 29.7938 48.8476 28.5168 47.7926 27.2626C47.5328 26.9522 47.2479 26.6636 46.9408 26.3998C46.5918 26.1065 46.991 25.5692 47.3714 25.8249Z" fill="#FFA694"/>
</g>
</g>
<path d="M52.793 14.418L51.5252 15.1112L50.832 16.3789L50.1388 15.1112L48.8711 14.418L50.1388 13.7247L50.832 12.457L51.5252 13.7247L52.793 14.418Z" fill="#FFCD02" fill-opacity="0.3"/>
<path d="M26.0469 40.0664L24.7792 40.7596L24.0859 42.0273L23.3927 40.7596L22.125 40.0664L23.3927 39.3732L24.0859 38.1055L24.7792 39.3732L26.0469 40.0664Z" fill="#FFCD02" fill-opacity="0.3"/>
<path d="M53.9695 39.6742L52.9554 40.2288L52.4008 41.243L51.8462 40.2288L50.832 39.6742L51.8462 39.1196L52.4008 38.1055L52.9554 39.1196L53.9695 39.6742Z" fill="#FFCD02"/>
<path d="M25.1844 13.4789L24.1702 14.0335L23.6156 15.0476L23.061 14.0335L22.0469 13.4789L23.061 12.9243L23.6156 11.9102L24.1702 12.9243L25.1844 13.4789Z" fill="#FFCD02"/>
<path d="M39.9293 2.73125L39.1687 3.14718L38.7527 3.90781L38.3368 3.14718L37.5762 2.73125L38.3368 2.31532L38.7527 1.55469L39.1687 2.31532L39.9293 2.73125Z" fill="#FFCD02"/>
<defs>
<linearGradient id="paint0_linear_2248_83506" x1="36.2527" y1="25.3242" x2="39.1148" y2="3.6135" gradientUnits="userSpaceOnUse">
<stop stop-color="#F2E417"/>
<stop offset="1" stop-color="#FFFC9E"/>
</linearGradient>
<linearGradient id="paint1_linear_2248_83506" x1="31.6947" y1="34.9543" x2="21.7794" y2="18.4668" gradientUnits="userSpaceOnUse">
<stop stop-color="#A35AD9"/>
<stop offset="1" stop-color="#C48CED"/>
</linearGradient>
<linearGradient id="paint2_linear_2248_83506" x1="28.9956" y1="30.3993" x2="21.3856" y2="15.1801" gradientUnits="userSpaceOnUse">
<stop stop-color="#A35AD9"/>
<stop offset="1" stop-color="#C48CED"/>
</linearGradient>
</defs>
</svg>
