<svg width="40" height="40" viewBox="0 0 40 40" fill="none" xmlns="http://www.w3.org/2000/svg">
<g clip-path="url(#clip0_2264_90204)">
<path d="M19.9997 6.33398C17.811 6.33398 15.6437 6.76508 13.6216 7.60266C11.5995 8.44024 9.7622 9.66789 8.21456 11.2155C5.08896 14.3411 3.33301 18.5804 3.33301 23.0007C3.33301 27.4209 5.08896 31.6602 8.21456 34.7858C9.7622 36.3334 11.5995 37.5611 13.6216 38.3986C15.6437 39.2362 17.811 39.6673 19.9997 39.6673C24.4199 39.6673 28.6592 37.9114 31.7848 34.7858C34.9104 31.6602 36.6663 27.4209 36.6663 23.0007C36.6663 20.812 36.2352 18.6447 35.3977 16.6226C34.5601 14.6005 33.3324 12.7632 31.7848 11.2155C30.2371 9.66789 28.3998 8.44024 26.3777 7.60266C24.3556 6.76508 22.1884 6.33398 19.9997 6.33398ZM19.9997 36.334C16.4635 36.334 13.0721 34.9292 10.5716 32.4287C8.0711 29.9283 6.66634 26.5369 6.66634 23.0007C6.66634 19.4644 8.0711 16.073 10.5716 13.5726C13.0721 11.0721 16.4635 9.66732 19.9997 9.66732C23.5359 9.66732 26.9273 11.0721 29.4278 13.5726C31.9282 16.073 33.333 19.4644 33.333 23.0007C33.333 26.5369 31.9282 29.9283 29.4278 32.4287C26.9273 34.9292 23.5359 36.334 19.9997 36.334ZM14.1663 21.334C13.5033 21.334 12.8674 21.0706 12.3986 20.6018C11.9297 20.1329 11.6663 19.497 11.6663 18.834C11.6663 18.1709 11.9297 17.5351 12.3986 17.0662C12.8674 16.5974 13.5033 16.334 14.1663 16.334C14.8294 16.334 15.4653 16.5974 15.9341 17.0662C16.4029 17.5351 16.6663 18.1709 16.6663 18.834C16.6663 19.497 16.4029 20.1329 15.9341 20.6018C15.4653 21.0706 14.8294 21.334 14.1663 21.334ZM28.333 18.834C28.333 19.497 28.0696 20.1329 27.6008 20.6018C27.1319 21.0706 26.496 21.334 25.833 21.334C25.17 21.334 24.5341 21.0706 24.0652 20.6018C23.5964 20.1329 23.333 19.497 23.333 18.834C23.333 18.1709 23.5964 17.5351 24.0652 17.0662C24.5341 16.5974 25.17 16.334 25.833 16.334C26.496 16.334 27.1319 16.5974 27.6008 17.0662C28.0696 17.5351 28.333 18.1709 28.333 18.834ZM26.6663 26.334V29.6673H13.333V26.334H26.6663Z" fill="#2D3556"/>
</g>
<defs>
<clipPath id="clip0_2264_90204">
<rect width="40" height="40" fill="white"/>
</clipPath>
</defs>
</svg>
