<svg width="128" height="128" viewBox="0 0 128 128" fill="none" xmlns="http://www.w3.org/2000/svg">
<path d="M67.6558 112.549C67.6185 113.673 65.3724 117.498 62.5124 115.506C61.005 114.359 60.3266 112.828 60.4471 110.954C60.7712 106.044 66.2674 100.76 64.6423 95.7218C64.367 94.8425 64.0285 94.4582 63.5265 93.2763C61.867 89.3306 61.3578 84.2403 62.9972 80.1612C63.1693 79.698 63.5322 79.0052 63.5623 78.945C65.7639 74.6421 65.5703 68.5077 64.3397 64.4587C63.9438 63.1679 63.6971 62.7663 63.2912 61.9745C61.4941 58.4691 60.7611 55.2893 62.6071 51.7997C63.4576 50.1431 64.4272 49.4762 65.259 47.124C65.8328 45.4401 65.8084 43.8782 65.4613 42.7093C65.3938 42.6336 65.3155 42.5684 65.2289 42.5156C65.7238 44.0776 65.5703 46.3968 64.1145 48.7992C63.2152 50.3066 60.7124 52.8009 61.1757 56.9847C61.4912 59.8446 62.99 62.1481 63.5135 63.3443C64.9937 66.8554 65.467 73.2408 63.7818 77.5853C63.2081 79.1271 61.0322 82.0617 61.8225 88.1344C62.0479 89.9454 62.5189 91.7172 63.2224 93.4011C63.9295 95.0677 65.4928 96.7215 63.9711 100.881C62.7204 104.306 60.2792 107.575 60.0311 110.921C59.8733 113.082 60.8013 114.841 62.2313 115.883C63.9926 117.186 65.8672 116.638 67.3804 115.023C67.8824 114.485 68.7731 113.302 68.8218 112.55L67.6558 112.549Z" fill="#006F8C"/>
<path d="M64.9995 42.125C62.8307 42.8378 60.617 43.406 58.373 43.8261C59.9737 43.6826 62.3016 43.2394 64.9163 42.4319C67.0247 44.8186 70.2891 48.2967 73.1978 49.6378C70.3995 48.0658 67.1638 44.5102 64.9995 42.125Z" fill="#C96706"/>
<path d="M66.5807 66.1577C65.1005 69.2041 62.6708 75.0503 62.7497 78.4452C62.8099 81.4271 65.6369 89.1292 64.6272 92.6446C62.612 99.5779 56.4245 105.266 62.3983 111.363C63.9488 112.905 65.776 114.344 66.3784 116.442C66.7929 117.819 66.4946 119.54 66.0184 120.734C64.8466 123.675 61.8074 126.033 57.1445 126.215V124.915C61.1347 125.799 65.614 123.328 66.1805 118.568C66.7298 113.678 61.0687 112.6 59.6918 107.845C58.2575 102.957 62.5604 97.8467 64.1151 92.5069C64.9427 89.6183 62.9821 83.7377 62.3094 79.5984C62.3209 79.4937 61.291 76.4128 65.4418 67.9965C65.7631 67.3439 66.1159 66.6769 66.4745 66.043L66.5807 66.1577Z" fill="#069EC1"/>
<path d="M65.029 53.3359C61.505 65.7898 69.263 71.2946 80.4791 67.848C81.7672 67.4613 83.0204 66.9666 84.2254 66.3693C81.1632 68.0531 77.6277 68.9926 74.5526 69.0456C66.7071 69.2206 62.9206 64.0658 64.2258 56.4698C64.4137 55.397 64.7336 54.3801 65.029 53.3359Z" fill="#E03405"/>
<path d="M59.5866 60.8125C61.0108 65.0221 63.1278 71.7618 64.0529 76.122C64.7155 79.1613 64.6367 80.2987 64.2078 82.0829C62.9858 87.1961 57.9414 94.8265 60.909 103.181C61.5343 104.884 62.6616 107.011 64.2752 107.876C64.9825 108.261 65.804 108.383 66.5925 108.217C67.381 108.052 68.0849 107.612 68.5781 106.975C70.0726 104.884 68.8534 101.33 66.2 99.9655L66.9788 98.9687C69.2306 100.74 70.4584 103.774 69.5003 106.355C68.6397 108.576 65.1099 110.034 62.4967 106.874C60.3567 104.205 59.1362 99.8666 59.7715 95.3271C60.0971 92.9605 61.0323 89.828 61.88 87.5949C64.1748 81.5465 64.618 80.5812 63.6455 76.2124C62.6415 71.6973 60.5819 65.3506 59.0645 61.0004L59.5866 60.8125Z" fill="#00A0C8"/>
<path d="M66.9702 98.9662C69.1303 100.662 70.4125 103.567 69.5935 106.138C69.1417 107.87 66.8383 109.312 64.6209 108.496C60.8917 107.145 59.948 101.641 59.8275 101.076C59.7357 100.322 58.4004 97.0113 61.5859 88.1761C63.8478 82.0403 64.6194 81.0951 63.6542 76.5011C62.6645 71.93 60.5776 65.4169 59.0645 60.9922C60.5188 65.1114 63.5581 74.1546 64.1031 78.4775C64.6309 82.6054 62.2701 85.4238 60.5174 92.0788C58.8881 98.2893 59.915 100.445 60.1459 101.792L60.3453 102.522C61.1155 104.817 62.3676 107.578 64.6553 108.414C66.7752 109.201 69.0169 107.882 69.5318 106.119C69.9535 104.828 69.8373 103.44 69.3483 102.175C68.8507 100.915 68.0306 99.8087 66.9702 98.9662Z" fill="#097189"/>
<path d="M63.2712 46.9062C63.2712 46.9407 63.3774 47.9805 63.3716 47.9102C63.3716 47.9246 63.4376 48.9888 63.4333 48.9214C63.4333 48.9358 63.4577 50.0014 63.4563 49.934C63.4563 50.7458 63.3644 51.9664 63.3644 51.9535C63.3644 51.9822 63.2397 53.0206 63.2468 52.9575C63.1458 53.6222 63.0113 54.2814 62.8438 54.9325C59.2266 68.4592 41.1245 62.7034 34.2715 54.6012C41.0356 63.1925 59.5665 68.6571 63.0145 54.977C63.3587 53.7521 63.5079 51.8215 63.4936 51.965C63.4936 51.9506 63.5437 50.8821 63.5394 50.9495C63.5136 50.3758 63.6398 49.6256 63.2712 46.9062Z" fill="#643596"/>
<g opacity="0.74">
<path d="M86.5106 30.9597C86.971 34.0534 76.8794 37.6363 76.8794 37.6363C76.8794 37.6363 78.546 48.7075 75.7319 49.7129C72.9179 50.7184 65.0451 41.8602 65.0451 41.8602C65.0451 41.8602 54.9678 45.4761 52.7648 43.0077C50.5617 40.5393 55.7911 31.4775 55.7911 31.4775C55.7911 31.4775 47.9026 22.6394 49.3541 20.105C50.8056 17.5707 61.9112 20.8322 61.9112 20.8322C61.9112 20.8322 67.1076 11.7546 70.2114 12.6568C73.3152 13.559 74.9445 24.6359 74.9445 24.6359C74.9445 24.6359 86.0487 27.8645 86.5106 30.9597Z" fill="url(#paint0_linear_2248_83269)"/>
<g style="mix-blend-mode:multiply">
<path d="M73.5558 35.1695C73.5558 35.1695 70.9741 38.6706 62.5506 35.7848C57.6554 34.1096 52.9409 26.0676 49.8529 19.6133C49.6459 19.7305 49.4725 19.8989 49.3494 20.1024C47.8922 22.6367 55.7865 31.4748 55.7865 31.4748C55.7865 31.4748 50.5571 40.5309 52.7601 43.005C54.9632 45.4791 65.039 41.8576 65.039 41.8576C65.039 41.8576 72.9089 50.7171 75.7273 49.7103C78.5457 48.7034 76.8747 37.6336 76.8747 37.6336C76.8747 37.6336 86.9663 34.0479 86.5059 30.957C81.6939 36.6698 73.5558 35.1695 73.5558 35.1695Z" fill="#FCEE21"/>
</g>
<path d="M85.9959 32.3471C85.6809 32.7311 85.3196 33.0746 84.9202 33.3697C82.1491 35.4896 76.5325 37.3542 76.4837 37.3757C76.9814 48.685 78.1274 55.2942 65.1027 41.439C62.5812 42.3168 54.8633 45.0706 52.7578 43.0052C54.7099 45.2485 62.4034 43.0999 64.9492 42.2881C75.9215 54.6918 79.4354 51.9867 77.2711 37.892C79.7854 36.9024 83.1072 35.3318 85.0894 33.572C85.4754 33.2406 85.818 32.8618 86.1092 32.4446C86.3846 32.0215 86.5897 31.5095 86.5022 30.9688C86.5481 31.5009 86.3014 31.9656 85.9959 32.3471Z" fill="#F4A811"/>
<g style="mix-blend-mode:screen">
<path d="M61.8188 23.1706C56.2136 21.2845 52.4285 23.8031 51.9609 22.1666C51.3915 20.1629 59.8839 22.2024 61.8188 23.1706Z" fill="#FCEE21"/>
</g>
<g style="mix-blend-mode:screen">
<path d="M63.8926 22.2018C64.548 20.5022 67.3349 14.0909 68.7691 15.5181C69.8635 16.6239 67.6647 16.1778 63.8926 22.2018Z" fill="#FCEE21"/>
</g>
<g style="mix-blend-mode:screen">
<path d="M72.3516 27.2356C75.3492 27.0749 84.3694 28.0689 83.7211 29.998C83.4902 30.685 82.6769 30.2734 82.73 30.2849C79.5904 28.4648 75.7781 27.4938 72.3516 27.2356Z" fill="#FCEE21"/>
</g>
</g>
<path d="M58.5467 35.0873C63.8378 41.6678 66.025 55.5172 59.3226 60.9044C52.6202 66.2916 39.5625 61.1841 34.2715 54.6022C28.9804 48.0203 30.1249 38.3173 36.8288 32.9273C43.5326 27.5373 53.2556 28.5054 58.5467 35.0873Z" fill="url(#paint1_linear_2248_83269)"/>
<path d="M47.2874 33.9098L46.0955 33.7606L45.7441 34.908L45.5189 33.729L44.3184 33.7506L45.3697 33.1711L44.9796 32.0352L45.8545 32.857L46.814 32.1341L46.3034 33.2213L47.2874 33.9098Z" fill="#F5DD7D"/>
<path d="M50.0462 36.7188L50.5654 39.408L53.3034 39.3578L50.9067 40.6831L51.8003 43.2706L49.7995 41.4002L47.6136 43.0511L48.7739 40.5698L46.5293 39.0007L49.2473 39.3392L50.0462 36.7188Z" fill="#F5DD7D"/>
<path d="M47.8911 50.9643L46.4626 49.3909L44.6683 50.5283L45.7224 48.6838L44.0859 47.3284L46.1671 47.7602L46.9502 45.7852L47.1811 47.8979L49.3024 48.0327L47.3647 48.9062L47.8911 50.9643Z" fill="#FFF0B0"/>
<path d="M43.3923 40.5769L42.0799 40.9641L42.2363 42.3238L41.4618 41.1951L40.2182 41.7645L41.0515 40.6787L40.125 39.6719L41.4159 40.1294L42.0871 38.9375L42.0513 40.3058L43.3923 40.5769Z" fill="#FFF0B0"/>
<path d="M56.878 38.535L55.5527 37.3517L54.1615 38.4533L54.8758 36.8282L53.3984 35.8443L55.1655 36.0236L55.6431 34.3125L56.0203 36.048L57.7945 35.9763L56.2598 36.8698L56.878 38.535Z" fill="#FFF0B0"/>
<path d="M57.1437 45.2488L56.2358 45.3994L56.2286 46.3202L55.8041 45.5027L54.9277 45.7809L55.5732 45.1255L55.0367 44.3768L55.86 44.787L56.4065 44.0469L56.2702 44.9576L57.1437 45.2488Z" fill="#FFF0B0"/>
<path d="M35.6145 49.7915L34.612 49.6323L34.2821 50.5932L34.1243 49.5893L33.1074 49.5735L34.0139 49.1116L33.7156 48.1406L34.4327 48.8606L35.2646 48.2754L34.8028 49.1805L35.6145 49.7915Z" fill="#FFF0B0"/>
<path d="M50.9828 59.0224L48.8199 58.3741L47.8088 60.3935L47.7585 58.1345L45.5254 57.7975L47.6567 57.0517L47.2881 54.8242L48.655 56.6199L50.6601 55.5815L49.375 57.4375L50.9828 59.0224Z" fill="#F7DE00"/>
<path d="M57.144 52.8391L55.8015 52.1335L54.8764 53.3354L55.1317 51.8409L53.7031 51.3331L55.2034 51.1137L55.245 49.5977L55.9176 50.9574L57.372 50.5285L56.2863 51.587L57.144 52.8391Z" fill="#F7DE00"/>
<path d="M42.455 53.7881L41.2301 53.6361L40.8716 54.815L40.6378 53.6045L39.4043 53.626L40.4843 53.0294L40.0813 51.8633L40.982 52.7066L41.9674 51.9637L41.4439 53.081L42.455 53.7881Z" fill="#F7DE00"/>
<path d="M42.4563 58.4608L42.0375 58.564L42.0677 58.9943L41.8396 58.6286L41.4395 58.7907L41.7163 58.4608L41.4395 58.1294L41.8396 58.2915L42.0677 57.9258L42.0375 58.3561L42.4563 58.4608Z" fill="#F7DE00"/>
<path d="M58.3846 57.1497L57.5828 56.9044L57.2027 57.6517L57.1884 56.8126L56.3594 56.6836L57.1539 56.411L57.0206 55.582L57.5254 56.2518L58.2727 55.8703L57.7908 56.5573L58.3846 57.1497Z" fill="#F7DE00"/>
<g style="mix-blend-mode:multiply" opacity="0.42">
<path d="M57.7533 55.913C51.0495 61.3016 37.9932 56.1927 32.7021 49.6108C32.0785 48.8361 31.5333 48.0016 31.0742 47.1194C31.43 49.8606 32.5364 52.4501 34.2712 54.6021C39.5623 61.184 52.6186 66.2943 59.3224 60.9043C64.6565 56.6144 64.361 46.9688 61.3505 39.8906C62.6471 45.9849 61.9012 52.5725 57.7533 55.913Z" fill="#9657CE"/>
</g>
<path style="mix-blend-mode:screen" opacity="0.23" d="M36.8279 32.9285C35.1226 34.2911 33.7209 35.9952 32.7129 37.9315C31.7049 39.8677 31.1128 41.9933 30.9746 44.1718C31.1133 44.3535 31.2567 44.5351 31.4049 44.7168C38.4644 53.4975 49.266 56.5324 55.531 51.4952C59.7377 48.1132 60.8278 41.9501 58.9532 35.6077C58.8212 35.4289 58.6869 35.2549 58.5501 35.0856C53.2548 28.5037 43.5303 27.5384 36.8279 32.9285Z" fill="url(#paint2_linear_2248_83269)"/>
<g style="mix-blend-mode:screen">
<path d="M37.0234 36.1626C39.8145 32.6586 44.7341 31.0064 47.6371 31.6848C51.1697 32.3574 54.3782 35.7954 56.0993 38.8691C53.9766 36.5068 50.5644 33.4877 47.376 33.152C45.9618 32.934 43.1277 33.4303 40.2146 35.5014C39.4956 36.0117 38.8192 36.5796 38.1923 37.1996C37.4924 37.9067 36.3995 36.9443 37.0234 36.1626Z" fill="#AC78EF"/>
</g>
<g opacity="0.81">
<path d="M88.0543 63.6984C82.9139 68.5678 71.4884 71.3374 66.5286 66.1023C61.5689 60.8671 64.9509 49.608 70.09 44.7315C75.229 39.8549 83.4187 40.1575 88.3785 45.3941C93.3382 50.6307 93.1948 58.8276 88.0543 63.6984Z" fill="#FF7B0F"/>
<path d="M70.5924 64.452C65.6312 59.2168 69.0147 47.9577 74.1537 43.0812C74.7592 42.5074 75.4197 41.9948 76.1258 41.5508C73.8588 42.0345 71.7696 43.1354 70.089 44.732C64.9485 49.6014 61.5665 60.8605 66.5276 66.1028C70.4748 70.2694 78.5168 69.3658 84.2267 66.3682C79.2225 67.867 73.6632 67.6963 70.5924 64.452Z" fill="#FE490F"/>
<g style="mix-blend-mode:screen" opacity="0.64">
<path d="M88.3773 45.4016C87.122 44.07 85.6022 43.0155 83.9155 42.3056C82.2287 41.5957 80.4123 41.2462 78.5825 41.2795C78.4391 41.4086 78.2957 41.5391 78.1523 41.6725C71.295 48.1698 69.4935 57.4037 74.1363 62.2961C77.2487 65.582 82.4737 66.074 87.6458 64.076C87.7892 63.9527 87.924 63.8293 88.056 63.7045C93.1936 58.8294 93.3384 50.6368 88.3773 45.4016Z" fill="#F15A24"/>
</g>
<g style="mix-blend-mode:screen" opacity="0.58">
<path d="M85.689 45.7828C88.8072 47.8768 90.5225 51.8756 90.1539 54.3526C89.8312 57.3503 87.1763 60.2604 84.7252 61.9156C86.5539 59.9822 88.8459 56.9243 88.909 54.2365C88.9965 53.0403 88.3883 50.7052 86.4592 48.4118C85.9841 47.8442 85.4631 47.3165 84.9016 46.8341C84.2633 46.2977 84.9934 45.3152 85.689 45.7828Z" fill="#FFA694"/>
</g>
</g>
<path d="M95.607 24.9295L93.2889 26.1971L92.0213 28.5152L90.7537 26.1971L88.4355 24.9295L90.7537 23.6619L92.0213 21.3438L93.2889 23.6619L95.607 24.9295Z" fill="#FFCD02" fill-opacity="0.3"/>
<path d="M46.6988 71.8279L44.3807 73.0955L43.113 75.4136L41.8454 73.0955L39.5273 71.8279L41.8454 70.5603L43.113 68.2422L44.3807 70.5603L46.6988 71.8279Z" fill="#FFCD02" fill-opacity="0.3"/>
<path d="M97.7586 71.1108L95.9041 72.1248L94.89 73.9793L93.876 72.1248L92.0215 71.1108L93.876 70.0967L94.89 68.2422L95.9041 70.0967L97.7586 71.1108Z" fill="#FFCD02"/>
<path d="M45.1199 23.2084L43.2655 24.2225L42.2514 26.077L41.2373 24.2225L39.3828 23.2084L41.2373 22.1943L42.2514 20.3398L43.2655 22.1943L45.1199 23.2084Z" fill="#FFCD02"/>
<path d="M72.0841 3.55767L70.6932 4.31823L69.9327 5.7091L69.1721 4.31823L67.7812 3.55767L69.1721 2.79711L69.9327 1.40625L70.6932 2.79711L72.0841 3.55767Z" fill="#FFCD02"/>
<defs>
<linearGradient id="paint0_linear_2248_83269" x1="65.3592" y1="44.8722" x2="70.5929" y2="5.17272" gradientUnits="userSpaceOnUse">
<stop stop-color="#F2E417"/>
<stop offset="1" stop-color="#FFFC9E"/>
</linearGradient>
<linearGradient id="paint1_linear_2248_83269" x1="57.0263" y1="62.4864" x2="38.8956" y2="32.3378" gradientUnits="userSpaceOnUse">
<stop stop-color="#A35AD9"/>
<stop offset="1" stop-color="#C48CED"/>
</linearGradient>
<linearGradient id="paint2_linear_2248_83269" x1="52.0916" y1="54.1501" x2="38.1762" y2="26.3207" gradientUnits="userSpaceOnUse">
<stop stop-color="#A35AD9"/>
<stop offset="1" stop-color="#C48CED"/>
</linearGradient>
</defs>
</svg>
