<svg width="129" height="128" viewBox="0 0 129 128" fill="none" xmlns="http://www.w3.org/2000/svg">
<path d="M59.0049 94.6842C59.0049 101.034 47.2996 100.5 46.6143 81.0469C55.8996 86.3282 59.0049 91.4229 59.0049 94.6842Z" fill="#FB7B76"/>
<path d="M34.1621 67.2934C34.1621 60.9441 45.8674 61.4774 46.5528 80.9307C37.2674 75.6494 34.1621 70.5547 34.1621 67.2934Z" fill="#FF5364"/>
<path d="M46.6592 80.9772C75.0018 67.0799 75.0018 94.9039 46.6592 81.0065V80.9772Z" fill="#FF5364"/>
<path d="M55.6249 63.6719C60.3289 63.6719 62.2623 72.0279 46.6143 80.9319C47.0556 68.3332 52.1249 63.6719 55.6249 63.6719Z" fill="#FB7B76"/>
<path d="M37.542 98.3069C32.838 98.3069 30.9047 89.9509 46.5527 81.0469C46.1114 93.6455 41.042 98.3069 37.542 98.3069Z" fill="#FF5364"/>
<path d="M46.507 81.0026C18.1643 94.9 18.1643 67.076 46.507 80.9733V81.0026Z" fill="#FB7B76"/>
<path d="M91.9995 59.2102C91.9995 67.0328 78.0995 66.3742 77.2861 42.4102C88.3128 48.9168 91.9995 55.1928 91.9995 59.2102Z" fill="#2FA8CC"/>
<path d="M62.501 25.4694C62.501 17.6467 76.401 18.3054 77.2143 42.2694C66.1876 35.7627 62.501 29.4867 62.501 25.4694Z" fill="#67B9CC"/>
<path d="M77.3408 42.3208C110.998 25.2008 110.998 59.4768 77.3408 42.3568V42.3208Z" fill="#67B9CC"/>
<path d="M87.9875 21.0039C93.5728 21.0039 95.8688 31.2972 77.2861 42.2666C77.8101 26.7466 83.8301 21.0039 87.9875 21.0039Z" fill="#2FA8CC"/>
<path d="M66.5129 63.6728C60.9276 63.6728 58.6315 53.3795 77.2142 42.4102C76.6902 57.9302 70.6702 63.6728 66.5129 63.6728Z" fill="#67B9CC"/>
<path d="M77.159 42.3568C43.5017 59.4768 43.5017 25.2008 77.159 42.3208V42.3568Z" fill="#2FA8CC"/>
<path d="M97.0604 96.1268C97.0604 100.043 89.7444 99.7135 89.3164 87.7148C95.1191 90.9722 97.0604 94.1148 97.0604 96.1268Z" fill="#F29C1F"/>
<path d="M81.5342 79.2335C81.5342 75.3175 88.8502 75.6468 89.2782 87.6455C83.4755 84.3881 81.5342 81.2455 81.5342 79.2335Z" fill="#E57E25"/>
<path d="M89.3447 87.6717C107.059 79.0997 107.059 96.2611 89.3447 87.6891V87.6717Z" fill="#E57E25"/>
<path d="M94.9484 77C97.8884 77 99.0964 82.1533 89.3164 87.6453C89.5924 79.8747 92.7604 77 94.9484 77Z" fill="#F29C1F"/>
<path d="M83.646 98.3602C80.706 98.3602 79.498 93.2068 89.278 87.7148C89.002 95.4855 85.834 98.3602 83.646 98.3602Z" fill="#E57E25"/>
<path d="M89.2499 87.6891C71.5352 96.2611 71.5352 79.0997 89.2499 87.6717V87.6891Z" fill="#F29C1F"/>
<path d="M46.3566 40.1058C46.3566 44.0178 39.054 43.6885 38.626 31.7031C44.4193 34.9578 46.3566 38.0965 46.3566 40.1058Z" fill="#F3D55B"/>
<path d="M30.8584 23.2315C30.8584 19.3195 38.1611 19.6475 38.5891 31.6329C32.7957 28.3795 30.8584 25.2409 30.8584 23.2315Z" fill="#F0C419"/>
<path d="M38.6543 31.6612C56.337 23.0986 56.337 40.2412 38.6543 31.6786V31.6612Z" fill="#F0C419"/>
<path d="M44.2486 21C47.1833 21 48.3886 26.148 38.626 31.6333C38.902 23.8707 42.0633 21 44.2486 21Z" fill="#F3D55B"/>
<path d="M32.9662 42.3404C30.0315 42.3404 28.8262 37.1924 38.5889 31.707C38.3129 39.4697 35.1515 42.3404 32.9662 42.3404Z" fill="#F0C419"/>
<path d="M38.5589 31.6786C20.8762 40.2412 20.8762 23.0986 38.5589 31.6612V31.6786Z" fill="#F3D55B"/>
<path d="M45.2497 58.3372C46.7224 58.3372 47.9163 57.1433 47.9163 55.6706C47.9163 54.1978 46.7224 53.0039 45.2497 53.0039C43.7769 53.0039 42.583 54.1978 42.583 55.6706C42.583 57.1433 43.7769 58.3372 45.2497 58.3372Z" fill="#24AE5F"/>
<path d="M75.9167 73.0052C77.3894 73.0052 78.5833 71.8113 78.5833 70.3385C78.5833 68.8658 77.3894 67.6719 75.9167 67.6719C74.4439 67.6719 73.25 68.8658 73.25 70.3385C73.25 71.8113 74.4439 73.0052 75.9167 73.0052Z" fill="#24AE5F"/>
<path d="M99.9167 62.3372C101.389 62.3372 102.583 61.1433 102.583 59.6706C102.583 58.1978 101.389 57.0039 99.9167 57.0039C98.4439 57.0039 97.25 58.1978 97.25 59.6706C97.25 61.1433 98.4439 62.3372 99.9167 62.3372Z" fill="#24AE5F"/>
<path d="M69.2497 98.3372C70.7224 98.3372 71.9163 97.1433 71.9163 95.6706C71.9163 94.1978 70.7224 93.0039 69.2497 93.0039C67.7769 93.0039 66.583 94.1978 66.583 95.6706C66.583 97.1433 67.7769 98.3372 69.2497 98.3372Z" fill="#24AE5F"/>
<path d="M27.9167 53.0052C29.3894 53.0052 30.5833 51.8113 30.5833 50.3385C30.5833 48.8658 29.3894 47.6719 27.9167 47.6719C26.4439 47.6719 25.25 48.8658 25.25 50.3385C25.25 51.8113 26.4439 53.0052 27.9167 53.0052Z" fill="#24AE5F"/>
<path d="M27.9163 63.6706C28.6527 63.6706 29.2497 63.0736 29.2497 62.3372C29.2497 61.6009 28.6527 61.0039 27.9163 61.0039C27.18 61.0039 26.583 61.6009 26.583 62.3372C26.583 63.0736 27.18 63.6706 27.9163 63.6706Z" fill="#7ED09E"/>
<path d="M38.5833 49.0026C39.3197 49.0026 39.9167 48.4057 39.9167 47.6693C39.9167 46.9329 39.3197 46.3359 38.5833 46.3359C37.847 46.3359 37.25 46.9329 37.25 47.6693C37.25 48.4057 37.847 49.0026 38.5833 49.0026Z" fill="#7ED09E"/>
<path d="M55.9163 59.6706C56.6527 59.6706 57.2497 59.0736 57.2497 58.3372C57.2497 57.6009 56.6527 57.0039 55.9163 57.0039C55.18 57.0039 54.583 57.6009 54.583 58.3372C54.583 59.0736 55.18 59.6706 55.9163 59.6706Z" fill="#7ED09E"/>
<path d="M90.5833 71.6706C91.3197 71.6706 91.9167 71.0736 91.9167 70.3372C91.9167 69.6009 91.3197 69.0039 90.5833 69.0039C89.847 69.0039 89.25 69.6009 89.25 70.3372C89.25 71.0736 89.847 71.6706 90.5833 71.6706Z" fill="#7ED09E"/>
<path d="M55.9163 27.6706C56.6527 27.6706 57.2497 27.0736 57.2497 26.3372C57.2497 25.6009 56.6527 25.0039 55.9163 25.0039C55.18 25.0039 54.583 25.6009 54.583 26.3372C54.583 27.0736 55.18 27.6706 55.9163 27.6706Z" fill="#7ED09E"/>
<path d="M74.5833 82.3385C75.3197 82.3385 75.9167 81.7416 75.9167 81.0052C75.9167 80.2688 75.3197 79.6719 74.5833 79.6719C73.847 79.6719 73.25 80.2688 73.25 81.0052C73.25 81.7416 73.847 82.3385 74.5833 82.3385Z" fill="#7ED09E"/>
</svg>
