<svg width="16" height="16" viewBox="0 0 16 16" fill="none" xmlns="http://www.w3.org/2000/svg">
<g filter="url(#filter0_ii_1966_47174)">
<path d="M14.6665 8.00065V13.334C14.6665 13.6876 14.526 14.0267 14.276 14.2768C14.0259 14.5268 13.6868 14.6673 13.3332 14.6673H2.6665C2.31288 14.6673 1.97374 14.5268 1.72369 14.2768C1.47365 14.0267 1.33317 13.6876 1.33317 13.334V8.00065C1.15636 8.00065 0.98679 7.93041 0.861766 7.80539C0.736742 7.68036 0.666504 7.5108 0.666504 7.33398V5.33398C0.666504 4.98036 0.80698 4.64122 1.05703 4.39118C1.30708 4.14113 1.64622 4.00065 1.99984 4.00065H4.11317C4.03984 3.79398 3.99984 3.56732 3.99984 3.33398C3.99984 2.80355 4.21055 2.29484 4.58562 1.91977C4.9607 1.5447 5.4694 1.33398 5.99984 1.33398C6.6665 1.33398 7.25317 1.66732 7.61984 2.16065V2.15398L7.99984 2.66732L8.37984 2.15398V2.16065C8.7465 1.66732 9.33317 1.33398 9.99984 1.33398C10.5303 1.33398 11.039 1.5447 11.4141 1.91977C11.7891 2.29484 11.9998 2.80355 11.9998 3.33398C11.9998 3.56732 11.9598 3.79398 11.8865 4.00065H13.9998C14.3535 4.00065 14.6926 4.14113 14.9426 4.39118C15.1927 4.64122 15.3332 4.98036 15.3332 5.33398V7.33398C15.3332 7.5108 15.2629 7.68036 15.1379 7.80539C15.0129 7.93041 14.8433 8.00065 14.6665 8.00065ZM2.6665 13.334H7.33317V8.00065H2.6665V13.334ZM13.3332 13.334V8.00065H8.6665V13.334H13.3332ZM5.99984 2.66732C5.82303 2.66732 5.65346 2.73756 5.52843 2.86258C5.40341 2.9876 5.33317 3.15717 5.33317 3.33398C5.33317 3.5108 5.40341 3.68036 5.52843 3.80539C5.65346 3.93041 5.82303 4.00065 5.99984 4.00065C6.17665 4.00065 6.34622 3.93041 6.47124 3.80539C6.59627 3.68036 6.6665 3.5108 6.6665 3.33398C6.6665 3.15717 6.59627 2.9876 6.47124 2.86258C6.34622 2.73756 6.17665 2.66732 5.99984 2.66732ZM9.99984 2.66732C9.82303 2.66732 9.65346 2.73756 9.52843 2.86258C9.40341 2.9876 9.33317 3.15717 9.33317 3.33398C9.33317 3.5108 9.40341 3.68036 9.52843 3.80539C9.65346 3.93041 9.82303 4.00065 9.99984 4.00065C10.1766 4.00065 10.3462 3.93041 10.4712 3.80539C10.5963 3.68036 10.6665 3.5108 10.6665 3.33398C10.6665 3.15717 10.5963 2.9876 10.4712 2.86258C10.3462 2.73756 10.1766 2.66732 9.99984 2.66732ZM1.99984 5.33398V6.66732H7.33317V5.33398H1.99984ZM8.6665 5.33398V6.66732H13.9998V5.33398H8.6665Z" fill="#E1F0FE"/>
</g>
<defs>
<filter id="filter0_ii_1966_47174" x="0" y="0" width="16" height="20" filterUnits="userSpaceOnUse" color-interpolation-filters="sRGB">
<feFlood flood-opacity="0" result="BackgroundImageFix"/>
<feBlend mode="normal" in="SourceGraphic" in2="BackgroundImageFix" result="shape"/>
<feColorMatrix in="SourceAlpha" type="matrix" values="0 0 0 0 0 0 0 0 0 0 0 0 0 0 0 0 0 0 127 0" result="hardAlpha"/>
<feOffset dy="4"/>
<feGaussianBlur stdDeviation="2"/>
<feComposite in2="hardAlpha" operator="arithmetic" k2="-1" k3="1"/>
<feColorMatrix type="matrix" values="0 0 0 0 0.611765 0 0 0 0 0.733333 0 0 0 0 0.843137 0 0 0 1 0"/>
<feBlend mode="normal" in2="shape" result="effect1_innerShadow_1966_47174"/>
<feColorMatrix in="SourceAlpha" type="matrix" values="0 0 0 0 0 0 0 0 0 0 0 0 0 0 0 0 0 0 127 0" result="hardAlpha"/>
<feOffset dy="4"/>
<feGaussianBlur stdDeviation="2"/>
<feComposite in2="hardAlpha" operator="arithmetic" k2="-1" k3="1"/>
<feColorMatrix type="matrix" values="0 0 0 0 0.611765 0 0 0 0 0.733333 0 0 0 0 0.843137 0 0 0 1 0"/>
<feBlend mode="normal" in2="effect1_innerShadow_1966_47174" result="effect2_innerShadow_1966_47174"/>
</filter>
</defs>
</svg>
