<svg width="20" height="20" viewBox="0 0 20 20" fill="none" xmlns="http://www.w3.org/2000/svg">
<path d="M7.54968 1.60746C5.97468 1.59912 4.44134 3.11579 5.14134 4.99912H2.49967C2.05765 4.99912 1.63372 5.17472 1.32116 5.48728C1.0086 5.79984 0.833008 6.22376 0.833008 6.66579V8.33246C0.833008 8.55347 0.920805 8.76543 1.07709 8.92171C1.23337 9.07799 1.44533 9.16579 1.66634 9.16579H9.16634V6.66579H10.833V9.16579H18.333C18.554 9.16579 18.766 9.07799 18.9223 8.92171C19.0785 8.76543 19.1663 8.55347 19.1663 8.33246V6.66579C19.1663 6.22376 18.9907 5.79984 18.6782 5.48728C18.3656 5.17472 17.9417 4.99912 17.4997 4.99912H14.858C15.833 2.27412 12.1663 0.349123 10.4747 2.69912L9.99967 3.33246L9.52468 2.68246C8.99968 1.94079 8.27468 1.61579 7.54968 1.60746ZM7.49967 3.33246C8.24134 3.33246 8.61634 4.23246 8.09134 4.75746C7.56634 5.28246 6.66634 4.90746 6.66634 4.16579C6.66634 3.94478 6.75414 3.73281 6.91042 3.57653C7.0667 3.42025 7.27866 3.33246 7.49967 3.33246ZM12.4997 3.33246C13.2413 3.33246 13.6163 4.23246 13.0913 4.75746C12.5663 5.28246 11.6663 4.90746 11.6663 4.16579C11.6663 3.94478 11.7541 3.73281 11.9104 3.57653C12.0667 3.42025 12.2787 3.33246 12.4997 3.33246ZM1.66634 9.99912V16.6658C1.66634 17.1078 1.84194 17.5317 2.1545 17.8443C2.46706 18.1569 2.89098 18.3325 3.33301 18.3325H16.6663C17.1084 18.3325 17.5323 18.1569 17.8449 17.8443C18.1574 17.5317 18.333 17.1078 18.333 16.6658V9.99912H10.833V16.6658H9.16634V9.99912H1.66634Z" fill="#283754"/>
</svg>
