<svg width="30" height="30" viewBox="0 0 30 30" fill="none" xmlns="http://www.w3.org/2000/svg">
<path d="M11.325 2.41216C8.9625 2.39966 6.6625 4.67466 7.7125 7.49966H3.75C3.08696 7.49966 2.45107 7.76305 1.98223 8.23189C1.51339 8.70073 1.25 9.33662 1.25 9.99966V12.4997C1.25 12.8312 1.3817 13.1491 1.61612 13.3835C1.85054 13.618 2.16848 13.7497 2.5 13.7497H13.75V9.99966H16.25V13.7497H27.5C27.8315 13.7497 28.1495 13.618 28.3839 13.3835C28.6183 13.1491 28.75 12.8312 28.75 12.4997V9.99966C28.75 9.33662 28.4866 8.70073 28.0178 8.23189C27.5489 7.76305 26.913 7.49966 26.25 7.49966H22.2875C23.75 3.41216 18.25 0.524661 15.7125 4.04966L15 4.99966L14.2875 4.02466C13.5 2.91216 12.4125 2.42466 11.325 2.41216ZM11.25 4.99966C12.3625 4.99966 12.925 6.34966 12.1375 7.13716C11.35 7.92466 10 7.36216 10 6.24966C10 5.91814 10.1317 5.6002 10.3661 5.36578C10.6005 5.13136 10.9185 4.99966 11.25 4.99966ZM18.75 4.99966C19.8625 4.99966 20.425 6.34966 19.6375 7.13716C18.85 7.92466 17.5 7.36216 17.5 6.24966C17.5 5.91814 17.6317 5.6002 17.8661 5.36578C18.1005 5.13136 18.4185 4.99966 18.75 4.99966ZM2.5 14.9997V24.9997C2.5 25.6627 2.76339 26.2986 3.23223 26.7674C3.70107 27.2363 4.33696 27.4997 5 27.4997H25C25.663 27.4997 26.2989 27.2363 26.7678 26.7674C27.2366 26.2986 27.5 25.6627 27.5 24.9997V14.9997H16.25V24.9997H13.75V14.9997H2.5Z" fill="#283754"/>
</svg>
