<svg width="16" height="16" viewBox="0 0 16 16" fill="none" xmlns="http://www.w3.org/2000/svg">
<g filter="url(#filter0_ii_2159_34535)">
<path d="M14.667 8.00016V13.3335C14.667 13.6871 14.5265 14.0263 14.2765 14.2763C14.0264 14.5264 13.6873 14.6668 13.3337 14.6668H2.66699C2.31337 14.6668 1.97423 14.5264 1.72418 14.2763C1.47413 14.0263 1.33366 13.6871 1.33366 13.3335V8.00016C1.15685 8.00016 0.987279 7.92992 0.862254 7.8049C0.73723 7.67988 0.666992 7.51031 0.666992 7.3335V5.3335C0.666992 4.97987 0.807468 4.64074 1.05752 4.39069C1.30757 4.14064 1.6467 4.00016 2.00033 4.00016H4.11366C4.04033 3.7935 4.00033 3.56683 4.00033 3.3335C4.00033 2.80306 4.21104 2.29436 4.58611 1.91928C4.96118 1.54421 5.46989 1.3335 6.00033 1.3335C6.66699 1.3335 7.25366 1.66683 7.62033 2.16016V2.1535L8.00033 2.66683L8.38033 2.1535V2.16016C8.74699 1.66683 9.33366 1.3335 10.0003 1.3335C10.5308 1.3335 11.0395 1.54421 11.4145 1.91928C11.7896 2.29436 12.0003 2.80306 12.0003 3.3335C12.0003 3.56683 11.9603 3.7935 11.887 4.00016H14.0003C14.3539 4.00016 14.6931 4.14064 14.9431 4.39069C15.1932 4.64074 15.3337 4.97987 15.3337 5.3335V7.3335C15.3337 7.51031 15.2634 7.67988 15.1384 7.8049C15.0134 7.92992 14.8438 8.00016 14.667 8.00016ZM2.66699 13.3335H7.33366V8.00016H2.66699V13.3335ZM13.3337 13.3335V8.00016H8.66699V13.3335H13.3337ZM6.00033 2.66683C5.82351 2.66683 5.65395 2.73707 5.52892 2.86209C5.4039 2.98712 5.33366 3.15668 5.33366 3.3335C5.33366 3.51031 5.4039 3.67988 5.52892 3.8049C5.65395 3.92992 5.82351 4.00016 6.00033 4.00016C6.17714 4.00016 6.34671 3.92992 6.47173 3.8049C6.59675 3.67988 6.66699 3.51031 6.66699 3.3335C6.66699 3.15668 6.59675 2.98712 6.47173 2.86209C6.34671 2.73707 6.17714 2.66683 6.00033 2.66683ZM10.0003 2.66683C9.82351 2.66683 9.65395 2.73707 9.52892 2.86209C9.4039 2.98712 9.33366 3.15668 9.33366 3.3335C9.33366 3.51031 9.4039 3.67988 9.52892 3.8049C9.65395 3.92992 9.82351 4.00016 10.0003 4.00016C10.1771 4.00016 10.3467 3.92992 10.4717 3.8049C10.5968 3.67988 10.667 3.51031 10.667 3.3335C10.667 3.15668 10.5968 2.98712 10.4717 2.86209C10.3467 2.73707 10.1771 2.66683 10.0003 2.66683ZM2.00033 5.3335V6.66683H7.33366V5.3335H2.00033ZM8.66699 5.3335V6.66683H14.0003V5.3335H8.66699Z" fill="#E1F0FE"/>
</g>
<defs>
<filter id="filter0_ii_2159_34535" x="0" y="0" width="16" height="20" filterUnits="userSpaceOnUse" color-interpolation-filters="sRGB">
<feFlood flood-opacity="0" result="BackgroundImageFix"/>
<feBlend mode="normal" in="SourceGraphic" in2="BackgroundImageFix" result="shape"/>
<feColorMatrix in="SourceAlpha" type="matrix" values="0 0 0 0 0 0 0 0 0 0 0 0 0 0 0 0 0 0 127 0" result="hardAlpha"/>
<feOffset dy="4"/>
<feGaussianBlur stdDeviation="2"/>
<feComposite in2="hardAlpha" operator="arithmetic" k2="-1" k3="1"/>
<feColorMatrix type="matrix" values="0 0 0 0 0.611765 0 0 0 0 0.733333 0 0 0 0 0.843137 0 0 0 1 0"/>
<feBlend mode="normal" in2="shape" result="effect1_innerShadow_2159_34535"/>
<feColorMatrix in="SourceAlpha" type="matrix" values="0 0 0 0 0 0 0 0 0 0 0 0 0 0 0 0 0 0 127 0" result="hardAlpha"/>
<feOffset dy="4"/>
<feGaussianBlur stdDeviation="2"/>
<feComposite in2="hardAlpha" operator="arithmetic" k2="-1" k3="1"/>
<feColorMatrix type="matrix" values="0 0 0 0 0.611765 0 0 0 0 0.733333 0 0 0 0 0.843137 0 0 0 1 0"/>
<feBlend mode="normal" in2="effect1_innerShadow_2159_34535" result="effect2_innerShadow_2159_34535"/>
</filter>
</defs>
</svg>
