<svg width="31" height="30" viewBox="0 0 31 30" fill="none" xmlns="http://www.w3.org/2000/svg">
<path d="M11.825 2.41216C9.4625 2.39966 7.1625 4.67466 8.2125 7.49966H4.25C3.58696 7.49966 2.95107 7.76305 2.48223 8.23189C2.01339 8.70073 1.75 9.33662 1.75 9.99966V12.4997C1.75 12.8312 1.8817 13.1491 2.11612 13.3835C2.35054 13.618 2.66848 13.7497 3 13.7497H14.25V9.99966H16.75V13.7497H28C28.3315 13.7497 28.6495 13.618 28.8839 13.3835C29.1183 13.1491 29.25 12.8312 29.25 12.4997V9.99966C29.25 9.33662 28.9866 8.70073 28.5178 8.23189C28.0489 7.76305 27.413 7.49966 26.75 7.49966H22.7875C24.25 3.41216 18.75 0.524661 16.2125 4.04966L15.5 4.99966L14.7875 4.02466C14 2.91216 12.9125 2.42466 11.825 2.41216ZM11.75 4.99966C12.8625 4.99966 13.425 6.34966 12.6375 7.13716C11.85 7.92466 10.5 7.36216 10.5 6.24966C10.5 5.91814 10.6317 5.6002 10.8661 5.36578C11.1005 5.13136 11.4185 4.99966 11.75 4.99966ZM19.25 4.99966C20.3625 4.99966 20.925 6.34966 20.1375 7.13716C19.35 7.92466 18 7.36216 18 6.24966C18 5.91814 18.1317 5.6002 18.3661 5.36578C18.6005 5.13136 18.9185 4.99966 19.25 4.99966ZM3 14.9997V24.9997C3 25.6627 3.26339 26.2986 3.73223 26.7674C4.20107 27.2363 4.83696 27.4997 5.5 27.4997H25.5C26.163 27.4997 26.7989 27.2363 27.2678 26.7674C27.7366 26.2986 28 25.6627 28 24.9997V14.9997H16.75V24.9997H14.25V14.9997H3Z" fill="#283754"/>
</svg>
