<svg width="16" height="16" viewBox="0 0 16 16" fill="none" xmlns="http://www.w3.org/2000/svg">
<g filter="url(#filter0_ii_1875_81736)">
<path d="M14.667 7.9987V13.332C14.667 13.6857 14.5265 14.0248 14.2765 14.2748C14.0264 14.5249 13.6873 14.6654 13.3337 14.6654H2.66699C2.31337 14.6654 1.97423 14.5249 1.72418 14.2748C1.47413 14.0248 1.33366 13.6857 1.33366 13.332V7.9987C1.15685 7.9987 0.987279 7.92846 0.862254 7.80344C0.73723 7.67841 0.666992 7.50884 0.666992 7.33203V5.33203C0.666992 4.97841 0.807468 4.63927 1.05752 4.38922C1.30757 4.13917 1.6467 3.9987 2.00033 3.9987H4.11366C4.04033 3.79203 4.00033 3.56536 4.00033 3.33203C4.00033 2.8016 4.21104 2.29289 4.58611 1.91782C4.96118 1.54274 5.46989 1.33203 6.00033 1.33203C6.66699 1.33203 7.25366 1.66536 7.62033 2.1587V2.15203L8.00033 2.66536L8.38033 2.15203V2.1587C8.74699 1.66536 9.33366 1.33203 10.0003 1.33203C10.5308 1.33203 11.0395 1.54274 11.4145 1.91782C11.7896 2.29289 12.0003 2.8016 12.0003 3.33203C12.0003 3.56536 11.9603 3.79203 11.887 3.9987H14.0003C14.3539 3.9987 14.6931 4.13917 14.9431 4.38922C15.1932 4.63927 15.3337 4.97841 15.3337 5.33203V7.33203C15.3337 7.50884 15.2634 7.67841 15.1384 7.80344C15.0134 7.92846 14.8438 7.9987 14.667 7.9987ZM2.66699 13.332H7.33366V7.9987H2.66699V13.332ZM13.3337 13.332V7.9987H8.66699V13.332H13.3337ZM6.00033 2.66536C5.82351 2.66536 5.65395 2.7356 5.52892 2.86063C5.4039 2.98565 5.33366 3.15522 5.33366 3.33203C5.33366 3.50884 5.4039 3.67841 5.52892 3.80344C5.65395 3.92846 5.82351 3.9987 6.00033 3.9987C6.17714 3.9987 6.34671 3.92846 6.47173 3.80344C6.59675 3.67841 6.66699 3.50884 6.66699 3.33203C6.66699 3.15522 6.59675 2.98565 6.47173 2.86063C6.34671 2.7356 6.17714 2.66536 6.00033 2.66536ZM10.0003 2.66536C9.82351 2.66536 9.65395 2.7356 9.52892 2.86063C9.4039 2.98565 9.33366 3.15522 9.33366 3.33203C9.33366 3.50884 9.4039 3.67841 9.52892 3.80344C9.65395 3.92846 9.82351 3.9987 10.0003 3.9987C10.1771 3.9987 10.3467 3.92846 10.4717 3.80344C10.5968 3.67841 10.667 3.50884 10.667 3.33203C10.667 3.15522 10.5968 2.98565 10.4717 2.86063C10.3467 2.7356 10.1771 2.66536 10.0003 2.66536ZM2.00033 5.33203V6.66536H7.33366V5.33203H2.00033ZM8.66699 5.33203V6.66536H14.0003V5.33203H8.66699Z" fill="#E1F0FE"/>
</g>
<defs>
<filter id="filter0_ii_1875_81736" x="0" y="0" width="16" height="20" filterUnits="userSpaceOnUse" color-interpolation-filters="sRGB">
<feFlood flood-opacity="0" result="BackgroundImageFix"/>
<feBlend mode="normal" in="SourceGraphic" in2="BackgroundImageFix" result="shape"/>
<feColorMatrix in="SourceAlpha" type="matrix" values="0 0 0 0 0 0 0 0 0 0 0 0 0 0 0 0 0 0 127 0" result="hardAlpha"/>
<feOffset dy="4"/>
<feGaussianBlur stdDeviation="2"/>
<feComposite in2="hardAlpha" operator="arithmetic" k2="-1" k3="1"/>
<feColorMatrix type="matrix" values="0 0 0 0 0.611765 0 0 0 0 0.733333 0 0 0 0 0.843137 0 0 0 1 0"/>
<feBlend mode="normal" in2="shape" result="effect1_innerShadow_1875_81736"/>
<feColorMatrix in="SourceAlpha" type="matrix" values="0 0 0 0 0 0 0 0 0 0 0 0 0 0 0 0 0 0 127 0" result="hardAlpha"/>
<feOffset dy="4"/>
<feGaussianBlur stdDeviation="2"/>
<feComposite in2="hardAlpha" operator="arithmetic" k2="-1" k3="1"/>
<feColorMatrix type="matrix" values="0 0 0 0 0.611765 0 0 0 0 0.733333 0 0 0 0 0.843137 0 0 0 1 0"/>
<feBlend mode="normal" in2="effect1_innerShadow_1875_81736" result="effect2_innerShadow_1875_81736"/>
</filter>
</defs>
</svg>
