<svg width="16" height="16" viewBox="0 0 16 16" fill="none" xmlns="http://www.w3.org/2000/svg">
<g filter="url(#filter0_ii_1966_48759)">
<path d="M14.667 8.00065V13.334C14.667 13.6876 14.5265 14.0267 14.2765 14.2768C14.0264 14.5268 13.6873 14.6673 13.3337 14.6673H2.66699C2.31337 14.6673 1.97423 14.5268 1.72418 14.2768C1.47413 14.0267 1.33366 13.6876 1.33366 13.334V8.00065C1.15685 8.00065 0.987279 7.93041 0.862254 7.80539C0.73723 7.68036 0.666992 7.5108 0.666992 7.33398V5.33398C0.666992 4.98036 0.807468 4.64122 1.05752 4.39118C1.30757 4.14113 1.6467 4.00065 2.00033 4.00065H4.11366C4.04033 3.79398 4.00033 3.56732 4.00033 3.33398C4.00033 2.80355 4.21104 2.29484 4.58611 1.91977C4.96118 1.5447 5.46989 1.33398 6.00033 1.33398C6.66699 1.33398 7.25366 1.66732 7.62033 2.16065V2.15398L8.00033 2.66732L8.38033 2.15398V2.16065C8.74699 1.66732 9.33366 1.33398 10.0003 1.33398C10.5308 1.33398 11.0395 1.5447 11.4145 1.91977C11.7896 2.29484 12.0003 2.80355 12.0003 3.33398C12.0003 3.56732 11.9603 3.79398 11.887 4.00065H14.0003C14.3539 4.00065 14.6931 4.14113 14.9431 4.39118C15.1932 4.64122 15.3337 4.98036 15.3337 5.33398V7.33398C15.3337 7.5108 15.2634 7.68036 15.1384 7.80539C15.0134 7.93041 14.8438 8.00065 14.667 8.00065ZM2.66699 13.334H7.33366V8.00065H2.66699V13.334ZM13.3337 13.334V8.00065H8.66699V13.334H13.3337ZM6.00033 2.66732C5.82351 2.66732 5.65395 2.73756 5.52892 2.86258C5.4039 2.9876 5.33366 3.15717 5.33366 3.33398C5.33366 3.5108 5.4039 3.68036 5.52892 3.80539C5.65395 3.93041 5.82351 4.00065 6.00033 4.00065C6.17714 4.00065 6.34671 3.93041 6.47173 3.80539C6.59675 3.68036 6.66699 3.5108 6.66699 3.33398C6.66699 3.15717 6.59675 2.9876 6.47173 2.86258C6.34671 2.73756 6.17714 2.66732 6.00033 2.66732ZM10.0003 2.66732C9.82351 2.66732 9.65395 2.73756 9.52892 2.86258C9.4039 2.9876 9.33366 3.15717 9.33366 3.33398C9.33366 3.5108 9.4039 3.68036 9.52892 3.80539C9.65395 3.93041 9.82351 4.00065 10.0003 4.00065C10.1771 4.00065 10.3467 3.93041 10.4717 3.80539C10.5968 3.68036 10.667 3.5108 10.667 3.33398C10.667 3.15717 10.5968 2.9876 10.4717 2.86258C10.3467 2.73756 10.1771 2.66732 10.0003 2.66732ZM2.00033 5.33398V6.66732H7.33366V5.33398H2.00033ZM8.66699 5.33398V6.66732H14.0003V5.33398H8.66699Z" fill="#E1F0FE"/>
</g>
<defs>
<filter id="filter0_ii_1966_48759" x="0" y="0" width="16" height="20" filterUnits="userSpaceOnUse" color-interpolation-filters="sRGB">
<feFlood flood-opacity="0" result="BackgroundImageFix"/>
<feBlend mode="normal" in="SourceGraphic" in2="BackgroundImageFix" result="shape"/>
<feColorMatrix in="SourceAlpha" type="matrix" values="0 0 0 0 0 0 0 0 0 0 0 0 0 0 0 0 0 0 127 0" result="hardAlpha"/>
<feOffset dy="4"/>
<feGaussianBlur stdDeviation="2"/>
<feComposite in2="hardAlpha" operator="arithmetic" k2="-1" k3="1"/>
<feColorMatrix type="matrix" values="0 0 0 0 0.611765 0 0 0 0 0.733333 0 0 0 0 0.843137 0 0 0 1 0"/>
<feBlend mode="normal" in2="shape" result="effect1_innerShadow_1966_48759"/>
<feColorMatrix in="SourceAlpha" type="matrix" values="0 0 0 0 0 0 0 0 0 0 0 0 0 0 0 0 0 0 127 0" result="hardAlpha"/>
<feOffset dy="4"/>
<feGaussianBlur stdDeviation="2"/>
<feComposite in2="hardAlpha" operator="arithmetic" k2="-1" k3="1"/>
<feColorMatrix type="matrix" values="0 0 0 0 0.611765 0 0 0 0 0.733333 0 0 0 0 0.843137 0 0 0 1 0"/>
<feBlend mode="normal" in2="effect1_innerShadow_1966_48759" result="effect2_innerShadow_1966_48759"/>
</filter>
</defs>
</svg>
