<svg width="16" height="16" viewBox="0 0 16 16" fill="none" xmlns="http://www.w3.org/2000/svg">
<g filter="url(#filter0_ii_2086_21953)">
<path d="M14.667 7.99967V13.333C14.667 13.6866 14.5265 14.0258 14.2765 14.2758C14.0264 14.5259 13.6873 14.6663 13.3337 14.6663H2.66699C2.31337 14.6663 1.97423 14.5259 1.72418 14.2758C1.47413 14.0258 1.33366 13.6866 1.33366 13.333V7.99967C1.15685 7.99967 0.987279 7.92944 0.862254 7.80441C0.73723 7.67939 0.666992 7.50982 0.666992 7.33301V5.33301C0.666992 4.97939 0.807468 4.64025 1.05752 4.3902C1.30757 4.14015 1.6467 3.99967 2.00033 3.99967H4.11366C4.04033 3.79301 4.00033 3.56634 4.00033 3.33301C4.00033 2.80257 4.21104 2.29387 4.58611 1.91879C4.96118 1.54372 5.46989 1.33301 6.00033 1.33301C6.66699 1.33301 7.25366 1.66634 7.62033 2.15967V2.15301L8.00033 2.66634L8.38033 2.15301V2.15967C8.74699 1.66634 9.33366 1.33301 10.0003 1.33301C10.5308 1.33301 11.0395 1.54372 11.4145 1.91879C11.7896 2.29387 12.0003 2.80257 12.0003 3.33301C12.0003 3.56634 11.9603 3.79301 11.887 3.99967H14.0003C14.3539 3.99967 14.6931 4.14015 14.9431 4.3902C15.1932 4.64025 15.3337 4.97939 15.3337 5.33301V7.33301C15.3337 7.50982 15.2634 7.67939 15.1384 7.80441C15.0134 7.92944 14.8438 7.99967 14.667 7.99967ZM2.66699 13.333H7.33366V7.99967H2.66699V13.333ZM13.3337 13.333V7.99967H8.66699V13.333H13.3337ZM6.00033 2.66634C5.82351 2.66634 5.65395 2.73658 5.52892 2.8616C5.4039 2.98663 5.33366 3.1562 5.33366 3.33301C5.33366 3.50982 5.4039 3.67939 5.52892 3.80441C5.65395 3.92944 5.82351 3.99967 6.00033 3.99967C6.17714 3.99967 6.34671 3.92944 6.47173 3.80441C6.59675 3.67939 6.66699 3.50982 6.66699 3.33301C6.66699 3.1562 6.59675 2.98663 6.47173 2.8616C6.34671 2.73658 6.17714 2.66634 6.00033 2.66634ZM10.0003 2.66634C9.82351 2.66634 9.65395 2.73658 9.52892 2.8616C9.4039 2.98663 9.33366 3.1562 9.33366 3.33301C9.33366 3.50982 9.4039 3.67939 9.52892 3.80441C9.65395 3.92944 9.82351 3.99967 10.0003 3.99967C10.1771 3.99967 10.3467 3.92944 10.4717 3.80441C10.5968 3.67939 10.667 3.50982 10.667 3.33301C10.667 3.1562 10.5968 2.98663 10.4717 2.8616C10.3467 2.73658 10.1771 2.66634 10.0003 2.66634ZM2.00033 5.33301V6.66634H7.33366V5.33301H2.00033ZM8.66699 5.33301V6.66634H14.0003V5.33301H8.66699Z" fill="#E1F0FE"/>
</g>
<defs>
<filter id="filter0_ii_2086_21953" x="0" y="0" width="16" height="20" filterUnits="userSpaceOnUse" color-interpolation-filters="sRGB">
<feFlood flood-opacity="0" result="BackgroundImageFix"/>
<feBlend mode="normal" in="SourceGraphic" in2="BackgroundImageFix" result="shape"/>
<feColorMatrix in="SourceAlpha" type="matrix" values="0 0 0 0 0 0 0 0 0 0 0 0 0 0 0 0 0 0 127 0" result="hardAlpha"/>
<feOffset dy="4"/>
<feGaussianBlur stdDeviation="2"/>
<feComposite in2="hardAlpha" operator="arithmetic" k2="-1" k3="1"/>
<feColorMatrix type="matrix" values="0 0 0 0 0.611765 0 0 0 0 0.733333 0 0 0 0 0.843137 0 0 0 1 0"/>
<feBlend mode="normal" in2="shape" result="effect1_innerShadow_2086_21953"/>
<feColorMatrix in="SourceAlpha" type="matrix" values="0 0 0 0 0 0 0 0 0 0 0 0 0 0 0 0 0 0 127 0" result="hardAlpha"/>
<feOffset dy="4"/>
<feGaussianBlur stdDeviation="2"/>
<feComposite in2="hardAlpha" operator="arithmetic" k2="-1" k3="1"/>
<feColorMatrix type="matrix" values="0 0 0 0 0.611765 0 0 0 0 0.733333 0 0 0 0 0.843137 0 0 0 1 0"/>
<feBlend mode="normal" in2="effect1_innerShadow_2086_21953" result="effect2_innerShadow_2086_21953"/>
</filter>
</defs>
</svg>
