<svg width="16" height="16" viewBox="0 0 16 16" fill="none" xmlns="http://www.w3.org/2000/svg">
<g filter="url(#filter0_ii_2103_33546)">
<path d="M14.6665 7.99967V13.333C14.6665 13.6866 14.526 14.0258 14.276 14.2758C14.0259 14.5259 13.6868 14.6663 13.3332 14.6663H2.6665C2.31288 14.6663 1.97374 14.5259 1.72369 14.2758C1.47365 14.0258 1.33317 13.6866 1.33317 13.333V7.99967C1.15636 7.99967 0.98679 7.92944 0.861766 7.80441C0.736742 7.67939 0.666504 7.50982 0.666504 7.33301V5.33301C0.666504 4.97939 0.80698 4.64025 1.05703 4.3902C1.30708 4.14015 1.64622 3.99967 1.99984 3.99967H4.11317C4.03984 3.79301 3.99984 3.56634 3.99984 3.33301C3.99984 2.80257 4.21055 2.29387 4.58562 1.91879C4.9607 1.54372 5.4694 1.33301 5.99984 1.33301C6.6665 1.33301 7.25317 1.66634 7.61984 2.15967V2.15301L7.99984 2.66634L8.37984 2.15301V2.15967C8.7465 1.66634 9.33317 1.33301 9.99984 1.33301C10.5303 1.33301 11.039 1.54372 11.4141 1.91879C11.7891 2.29387 11.9998 2.80257 11.9998 3.33301C11.9998 3.56634 11.9598 3.79301 11.8865 3.99967H13.9998C14.3535 3.99967 14.6926 4.14015 14.9426 4.3902C15.1927 4.64025 15.3332 4.97939 15.3332 5.33301V7.33301C15.3332 7.50982 15.2629 7.67939 15.1379 7.80441C15.0129 7.92944 14.8433 7.99967 14.6665 7.99967ZM2.6665 13.333H7.33317V7.99967H2.6665V13.333ZM13.3332 13.333V7.99967H8.6665V13.333H13.3332ZM5.99984 2.66634C5.82303 2.66634 5.65346 2.73658 5.52843 2.8616C5.40341 2.98663 5.33317 3.1562 5.33317 3.33301C5.33317 3.50982 5.40341 3.67939 5.52843 3.80441C5.65346 3.92944 5.82303 3.99967 5.99984 3.99967C6.17665 3.99967 6.34622 3.92944 6.47124 3.80441C6.59627 3.67939 6.6665 3.50982 6.6665 3.33301C6.6665 3.1562 6.59627 2.98663 6.47124 2.8616C6.34622 2.73658 6.17665 2.66634 5.99984 2.66634ZM9.99984 2.66634C9.82303 2.66634 9.65346 2.73658 9.52843 2.8616C9.40341 2.98663 9.33317 3.1562 9.33317 3.33301C9.33317 3.50982 9.40341 3.67939 9.52843 3.80441C9.65346 3.92944 9.82303 3.99967 9.99984 3.99967C10.1766 3.99967 10.3462 3.92944 10.4712 3.80441C10.5963 3.67939 10.6665 3.50982 10.6665 3.33301C10.6665 3.1562 10.5963 2.98663 10.4712 2.8616C10.3462 2.73658 10.1766 2.66634 9.99984 2.66634ZM1.99984 5.33301V6.66634H7.33317V5.33301H1.99984ZM8.6665 5.33301V6.66634H13.9998V5.33301H8.6665Z" fill="#E1F0FE"/>
</g>
<defs>
<filter id="filter0_ii_2103_33546" x="0" y="0" width="16" height="20" filterUnits="userSpaceOnUse" color-interpolation-filters="sRGB">
<feFlood flood-opacity="0" result="BackgroundImageFix"/>
<feBlend mode="normal" in="SourceGraphic" in2="BackgroundImageFix" result="shape"/>
<feColorMatrix in="SourceAlpha" type="matrix" values="0 0 0 0 0 0 0 0 0 0 0 0 0 0 0 0 0 0 127 0" result="hardAlpha"/>
<feOffset dy="4"/>
<feGaussianBlur stdDeviation="2"/>
<feComposite in2="hardAlpha" operator="arithmetic" k2="-1" k3="1"/>
<feColorMatrix type="matrix" values="0 0 0 0 0.611765 0 0 0 0 0.733333 0 0 0 0 0.843137 0 0 0 1 0"/>
<feBlend mode="normal" in2="shape" result="effect1_innerShadow_2103_33546"/>
<feColorMatrix in="SourceAlpha" type="matrix" values="0 0 0 0 0 0 0 0 0 0 0 0 0 0 0 0 0 0 127 0" result="hardAlpha"/>
<feOffset dy="4"/>
<feGaussianBlur stdDeviation="2"/>
<feComposite in2="hardAlpha" operator="arithmetic" k2="-1" k3="1"/>
<feColorMatrix type="matrix" values="0 0 0 0 0.611765 0 0 0 0 0.733333 0 0 0 0 0.843137 0 0 0 1 0"/>
<feBlend mode="normal" in2="effect1_innerShadow_2103_33546" result="effect2_innerShadow_2103_33546"/>
</filter>
</defs>
</svg>
