<svg width="251" height="167" viewBox="0 0 251 167" fill="none" xmlns="http://www.w3.org/2000/svg">
<circle opacity="0.1" cx="126.5" cy="88.5" r="78.5" fill="url(#paint0_linear_1805_76929)"/>
<circle opacity="0.3" cx="127" cy="88" r="61" fill="url(#paint1_linear_1805_76929)"/>
<circle cx="127" cy="88" r="48" fill="url(#paint2_linear_1805_76929)"/>
<path fill-rule="evenodd" clip-rule="evenodd" d="M119.141 56.1375C117.729 56.2789 115.741 56.6768 114.176 57.1313C105.695 59.5939 98.5791 66.7087 96.1212 75.1826C94.2706 81.5632 94.714 87.9693 97.4279 94.0558L98.0785 95.5148L96.9673 102.175C96.356 105.838 95.8779 108.857 95.9048 108.884C95.9316 108.911 98.8315 108.453 102.349 107.866C105.867 107.279 108.792 106.798 108.851 106.798C108.909 106.798 109.298 107.319 109.715 107.956C113.88 114.31 120.423 118.489 128.215 119.769C129.916 120.048 134.029 120.081 135.724 119.829C138.375 119.435 140.883 118.705 143.315 117.621L144.775 116.971L151.436 118.082C155.1 118.693 158.12 119.171 158.147 119.144C158.173 119.117 157.695 116.098 157.084 112.435L155.973 105.775L156.623 104.316C157.708 101.884 158.438 99.3744 158.832 96.7259C159.08 95.056 159.048 91.0546 158.773 89.281C157.557 81.4554 153.384 74.9684 146.737 70.5711C145.395 69.6834 145.338 69.6262 144.468 68.3033C143.297 66.5231 142.54 65.5834 141.068 64.0825C135.293 58.1983 127.34 55.3165 119.141 56.1375ZM125.461 60.053C130.303 60.8021 134.708 63.0504 138.228 66.5693C141.274 69.6144 143.313 73.213 144.345 77.3634C144.816 79.2548 144.975 80.6575 144.975 82.8996C144.975 85.1417 144.816 86.5443 144.345 88.4357C143.313 92.5861 141.274 96.1847 138.228 99.2299C131.127 106.329 120.485 108.041 111.444 103.538L109.942 102.789L105.218 103.585C102.62 104.022 100.475 104.361 100.452 104.338C100.428 104.314 100.767 102.17 101.205 99.572L102 94.849L101.252 93.3475C98.3647 87.5534 97.9795 81.0251 100.168 74.9798C101.309 71.8285 103.111 69.019 105.561 66.5693C108.606 63.525 112.198 61.4898 116.357 60.4523C117.413 60.1889 118.254 60.0536 120.267 59.8234C121.065 59.7322 124.316 59.876 125.461 60.053ZM113.609 73.2563C111.593 73.9008 109.866 75.6333 109.246 77.6353C109.07 78.2028 108.99 78.8109 108.988 79.5969C108.984 80.8933 109.116 81.4867 109.667 82.6461C110.017 83.3829 110.632 84.0427 115.974 89.4061L121.894 95.3495L127.814 89.4061C133.157 84.0427 133.772 83.3829 134.122 82.6461C134.673 81.4867 134.805 80.8933 134.801 79.5969C134.795 77.2313 133.747 75.3225 131.728 73.9982C130.673 73.3061 129.632 73.0147 128.215 73.0147C126.142 73.0147 124.819 73.6101 123.004 75.3597L121.894 76.4287L120.785 75.3597C118.95 73.5913 117.643 73.0097 115.53 73.0215C114.723 73.026 114.086 73.1038 113.609 73.2563Z" fill="white"/>
<circle cx="245.375" cy="9.5" r="5.125" fill="#FFEACC"/>
<circle cx="5" cy="83.5" r="4.5" fill="#FFEACC"/>
<circle cx="214.25" cy="121.875" r="3.125" fill="#FFA726"/>
<circle cx="54.875" cy="6.875" r="5.375" stroke="#FFB74D" stroke-width="3"/>
<circle cx="238.125" cy="67" r="6.25" stroke="#FFCC33" stroke-width="2"/>
<defs>
<linearGradient id="paint0_linear_1805_76929" x1="48" y1="10" x2="48" y2="167" gradientUnits="userSpaceOnUse">
<stop stop-color="#FFB75E"/>
<stop offset="1" stop-color="#ED8F03"/>
</linearGradient>
<linearGradient id="paint1_linear_1805_76929" x1="66" y1="27" x2="66" y2="149" gradientUnits="userSpaceOnUse">
<stop stop-color="#FFB75E"/>
<stop offset="1" stop-color="#ED8F03"/>
</linearGradient>
<linearGradient id="paint2_linear_1805_76929" x1="79" y1="40" x2="79" y2="136" gradientUnits="userSpaceOnUse">
<stop stop-color="#FFB75E"/>
<stop offset="1" stop-color="#ED8F03"/>
</linearGradient>
</defs>
</svg>
