<svg width="24" height="24" viewBox="0 0 24 24" fill="none" xmlns="http://www.w3.org/2000/svg">
<path d="M2.12 13.526C2.862 18.307 7.022 21.996 12.001 21.996C17.5 21.996 21.999 17.497 21.999 11.998C21.999 6.499 17.501 2 12.002 2C8.704 2 5.802 3.601 4 6V2.001L2.003 2L2 9H9V7L5.801 6.999C7.2 5.201 9.502 4 12.002 4C16.4 4 20 7.6 20 11.998C20 16.396 16.4 19.997 12.001 19.997C8.123 19.997 4.869 17.203 4.152 13.526H2.12Z" fill="black"/>
<path d="M11.002 7V12.302L14.203 16.599L15.803 15.402L13.002 11.701V7H11.002Z" fill="black"/>
</svg>
