<svg width="10" height="13" viewBox="0 0 10 13" fill="none" xmlns="http://www.w3.org/2000/svg">
<path fill-rule="evenodd" clip-rule="evenodd" d="M2.29215 4.62109H7.27302L9.04207 7.54737C9.38387 8.11217 9.56549 8.77071 9.56517 9.44357V9.50765C9.56315 11.4344 8.10437 12.9958 6.30432 12.998H3.26085C1.4608 12.9958 0.00201829 11.4344 0 9.50765V9.44357C-0.000423108 8.77083 0.181302 8.11229 0.52299 7.5476L2.29215 4.62109ZM5 8.34474V8.22021C5 8.22021 6.00915 7.12821 6.45804 6.64772L6.15064 6.31867C5.38691 7.13583 4.99236 7.55838 4.78824 7.78903L3.41458 6.31867L3.10718 6.64772C3.10718 6.64772 4.42277 8.05546 4.56522 8.19113V8.34474H3.69566V8.81013H4.56522V9.04282H3.69566V9.50821H4.56522V11.1371H5V9.50821H5.86956V9.04282H5V8.81013H5.86956V8.34474H5Z" fill="#FFA600"/>
<path d="M7.00452 3.2268L7.71433 0.187813L7.32975 0.407213C7.26585 0.443571 7.18932 0.443571 7.12542 0.407213L6.41126 0L5.69869 0.406986C5.63479 0.443799 5.55794 0.443799 5.49414 0.406986L4.78147 0L4.06911 0.406986C4.00511 0.443571 3.92836 0.443571 3.86435 0.406986L3.15263 0L2.43932 0.406986C2.37542 0.443571 2.29857 0.443571 2.23456 0.406986L1.88672 0.208947L2.76891 3.2268H7.00452Z" fill="#FFA600"/>
<path d="M9.74315 3.23008L8.03661 3.56219L9.39233 2.11115C9.4747 2.0198 9.47353 1.87471 9.38967 1.78495C9.30582 1.69519 9.17016 1.69394 9.08492 1.78211L7.3008 3.69183H2.17344C2.05339 3.69183 1.95605 3.79602 1.95605 3.92452C1.95605 4.05303 2.05339 4.15721 2.17344 4.15721H7.39081C7.40387 4.15721 7.41682 4.15597 7.42966 4.15347L9.82095 3.68808C9.93909 3.66501 10.0175 3.5439 9.99599 3.41744C9.97455 3.29098 9.86129 3.20713 9.74315 3.23008Z" fill="#FFA600"/>
</svg>
