<svg width="10" height="14" viewBox="0 0 10 14" fill="none" xmlns="http://www.w3.org/2000/svg">
<path fill-rule="evenodd" clip-rule="evenodd" d="M2.29215 5.125H7.27301L9.04207 8.0514C9.38386 8.61623 9.56548 9.2748 9.56516 9.94768V10.0118C9.56314 11.9386 8.10436 13.5 6.30431 13.5023H3.26085C1.4608 13.5 0.00201829 11.9386 0 10.0118V9.94768C-0.000423108 9.27491 0.181301 8.61634 0.52299 8.05163L2.29215 5.125ZM4.99998 8.84881V8.72427C4.99998 8.72427 6.00912 7.63223 6.45802 7.15171L6.15062 6.82265C5.38689 7.63984 4.99234 8.06241 4.78822 8.29307L3.41456 6.82265L3.10716 7.15171C3.10716 7.15171 4.42275 8.55952 4.5652 8.69518V8.84881H3.69564V9.31421H4.5652V9.54691H3.69564V10.0123H4.5652V11.6412H4.99998V10.0123H5.86954V9.54691H4.99998V9.31421H5.86954V8.84881H4.99998Z" fill="#01CD3B"/>
<path d="M7.26919 3.5L8 0.674613L7.60405 0.878592C7.53826 0.912394 7.45946 0.912394 7.39367 0.878592L6.65839 0.5L5.92474 0.87838C5.85895 0.912606 5.77982 0.912606 5.71414 0.87838L4.98038 0.5L4.24695 0.87838C4.18105 0.912394 4.10204 0.912394 4.03614 0.87838L3.30336 0.5L2.56895 0.87838C2.50316 0.912394 2.42404 0.912394 2.35814 0.87838L2 0.694261L2.90829 3.5H7.26919Z" fill="#01CD3B"/>
<path d="M9.74498 3.74018L8.04768 4.01236L9.39606 2.82319C9.47799 2.74832 9.47682 2.62941 9.39342 2.55585C9.31002 2.48229 9.1751 2.48127 9.09032 2.55353L7.31584 4.1186H2.21621C2.09681 4.1186 2 4.20399 2 4.3093C2 4.41461 2.09681 4.5 2.21621 4.5H7.40537C7.41835 4.5 7.43123 4.49898 7.44401 4.49693L9.82237 4.11553C9.93987 4.09663 10.0179 3.99737 9.99646 3.89373C9.97513 3.79009 9.86248 3.72137 9.74498 3.74018Z" fill="#01CD3B"/>
</svg>
