<svg width="10" height="14" viewBox="0 0 10 14" fill="none" xmlns="http://www.w3.org/2000/svg">
<path fill-rule="evenodd" clip-rule="evenodd" d="M2.29215 4.625H7.27301L9.04207 7.5514C9.38386 8.11623 9.56548 8.7748 9.56516 9.44768V9.51177C9.56315 11.4386 8.10436 13 6.30431 13.0023H3.26085C1.4608 13 0.00201903 11.4386 7.37158e-07 9.51177V9.44768C-0.000422371 8.77491 0.181302 8.11634 0.522991 7.55163L2.29215 4.625ZM4.99998 8.34881V8.22427C4.99998 8.22427 6.00912 7.13223 6.45802 6.65171L6.15062 6.32265C5.38689 7.13984 4.99234 7.56241 4.78822 7.79307L3.41456 6.32265L3.10716 6.65171C3.10716 6.65171 4.42275 8.05952 4.5652 8.19518V8.34881H3.69564V8.81421H4.5652V9.04691H3.69564V9.51232H4.5652V11.1412H4.99998V9.51232H5.86954V9.04691H4.99998V8.81421H5.86954V8.34881H4.99998Z" fill="#01CD3B"/>
<path d="M7.26919 3L8 0.174613L7.60405 0.378592C7.53826 0.412394 7.45946 0.412394 7.39367 0.378592L6.65839 0L5.92474 0.37838C5.85895 0.412606 5.77982 0.412606 5.71414 0.37838L4.98038 0L4.24695 0.37838C4.18105 0.412394 4.10204 0.412394 4.03614 0.37838L3.30336 0L2.56895 0.37838C2.50316 0.412394 2.42404 0.412394 2.35814 0.37838L2 0.194261L2.90829 3H7.26919Z" fill="#01CD3B"/>
<path d="M9.74498 3.24018L8.04768 3.51236L9.39606 2.32319C9.47799 2.24832 9.47682 2.12941 9.39342 2.05585C9.31002 1.98229 9.1751 1.98127 9.09032 2.05353L7.31584 3.6186H2.21621C2.09681 3.6186 2 3.70399 2 3.8093C2 3.91461 2.09681 4 2.21621 4H7.40537C7.41835 4 7.43123 3.99898 7.44401 3.99693L9.82237 3.61553C9.93987 3.59663 10.0179 3.49737 9.99646 3.39373C9.97513 3.29009 9.86248 3.22137 9.74498 3.24018Z" fill="#01CD3B"/>
</svg>
