<svg width="69" height="68" viewBox="0 0 69 68" fill="none" xmlns="http://www.w3.org/2000/svg">
<circle cx="34.957" cy="34" r="33.5" fill="#A5A6F6" stroke="#E7E0EC"/>
<path d="M59.8036 36.8658H52.3485C54.4046 33.2448 53.7996 28.6373 50.5361 25.6116C46.7591 22.1093 40.802 21.8384 36.6787 24.9808C36.6787 24.9808 36.6787 24.9808 36.6782 24.9808C36.4686 25.141 36.1643 25.141 35.9534 24.9808C31.8305 21.8388 25.8725 22.1101 22.0959 25.6116C18.8093 28.6592 18.221 33.311 20.3312 36.9435H12.8289C12.1762 36.9435 11.6455 37.4356 11.6455 38.0408C11.6455 38.6457 12.1762 39.1377 12.8289 39.1377H22.068L35.3024 51.4092C35.5731 51.6606 35.9336 51.7989 36.3164 51.7989C36.6993 51.7989 37.0598 51.6606 37.3305 51.4092L50.5357 39.1648L50.6276 39.08C50.6341 39.074 50.6392 39.0668 50.6452 39.0604H59.804C60.4567 39.0604 60.9874 38.5684 60.9874 37.9631C60.9874 37.3579 60.4563 36.8658 59.8036 36.8658Z" fill="#E6E7E8"/>
<path d="M35.2331 23.6966C34.8627 23.9787 34.3325 23.9787 33.9625 23.6966C30.0721 20.7314 24.3169 20.9302 20.6817 24.301C16.8446 27.8591 16.8188 33.6077 20.5949 37.2008L20.5898 37.2052L20.6813 37.2901L33.8873 49.5357C34.2796 49.8994 34.916 49.8994 35.3083 49.5357L48.5143 37.2901L48.6058 37.2052L48.6011 37.2008C52.3772 33.6077 52.3514 27.8591 48.5143 24.301C44.8787 20.9302 39.1235 20.7314 35.2331 23.6966Z" fill="#FA759E"/>
<path d="M20.6807 25.4928C24.3158 22.122 30.071 21.9232 33.9614 24.888C34.3318 25.1701 34.8621 25.1701 35.232 24.888C39.1224 21.9228 44.8776 22.122 48.5128 25.4928C50.2866 27.1375 51.2353 29.2509 51.381 31.4028C51.5649 28.8532 50.6148 26.247 48.5128 24.2975C44.8776 20.9267 39.1224 20.7275 35.232 23.6926C34.8616 23.9747 34.3314 23.9747 33.9614 23.6926C30.071 20.7275 24.3158 20.9263 20.6807 24.2975C18.5786 26.2466 17.6282 28.8532 17.8125 31.4028C17.9582 29.2513 18.9069 27.1375 20.6807 25.4928Z" fill="white"/>
<path d="M40.4616 41.8835C40.4492 41.8835 40.4367 41.8831 40.4238 41.8827C40.1213 41.8687 39.8575 41.6878 39.7535 41.4245L38.3437 37.8409L38.012 39.0992C37.9286 39.4163 37.6205 39.6391 37.2669 39.6323C36.9146 39.6263 36.6134 39.3952 36.5425 39.0753L35.4953 34.3861L34.3223 38.3421C34.2355 38.635 33.954 38.8426 33.6266 38.8549C33.3022 38.8681 33.0001 38.682 32.8875 38.3967L31.9465 36.0065L31.708 36.6699C31.6054 36.9548 31.3183 37.1472 30.9948 37.1476C30.6802 37.1687 30.3825 36.9568 30.2793 36.6723L28.6951 32.3202L26.9261 36.6946C26.8156 36.9671 26.5346 37.148 26.2205 37.148H11.1101C10.6942 37.148 10.3564 36.8352 10.3564 36.4492C10.3564 36.0631 10.6942 35.7503 11.1101 35.7503H25.6989L28.0273 29.9925C28.1378 29.7196 28.4192 29.5391 28.7329 29.5391C28.7368 29.5391 28.7411 29.5391 28.7458 29.5391C29.0642 29.5442 29.3452 29.7343 29.447 30.0144L30.9896 34.2514L31.2002 33.6661C31.3011 33.384 31.5839 33.1923 31.904 33.1884C31.9079 33.1884 31.9113 33.1884 31.9147 33.1884C32.2305 33.1884 32.5137 33.3716 32.6229 33.6474L33.4951 35.8627L34.8727 31.2169C34.9651 30.9061 35.274 30.6818 35.6234 30.7041C35.9718 30.7145 36.2666 30.9444 36.3371 31.2607L37.3413 35.7591L37.4693 35.2738C37.5484 34.9745 37.8285 34.759 38.1594 34.7419C38.4894 34.7271 38.7953 34.9108 38.9092 35.2001L40.5596 39.394L42.2955 36.0671C42.4214 35.826 42.6853 35.6726 42.974 35.6726H58.0848C58.5008 35.6726 58.8385 35.9854 58.8385 36.3715C58.8385 36.7576 58.5008 37.0703 58.0848 37.0703H43.4463L41.1405 41.4898C41.0138 41.7313 40.7495 41.8835 40.4616 41.8835Z" fill="#6DC9F7"/>
<path d="M39.0518 45.4997L38.3321 46.167C38.1641 46.3228 38.1641 46.575 38.3321 46.7304C38.4158 46.8081 38.5258 46.8472 38.6358 46.8472C38.7458 46.8472 38.8559 46.8081 38.9396 46.7304L39.6594 46.063C39.8274 45.9073 39.8274 45.655 39.6594 45.4997C39.4918 45.3439 39.2198 45.3439 39.0518 45.4997Z" fill="#3A2C60"/>
<path d="M58.0844 35.272H50.616C52.6759 31.6506 52.0817 27.045 48.8173 24.0177C45.0408 20.5158 39.0836 20.2445 34.9595 23.387C34.7498 23.5471 34.4456 23.5471 34.2346 23.387C30.1118 20.2445 24.1541 20.5158 20.3772 24.0177C17.0896 27.0661 16.5083 31.7167 18.6206 35.3496H11.1101C10.4574 35.3496 9.92676 35.8417 9.92676 36.4469C9.92676 37.0518 10.4574 37.5438 11.1101 37.5438H20.3488L33.5832 49.8153C33.8539 50.0671 34.214 50.2054 34.5973 50.2054C34.9805 50.2054 35.3406 50.0671 35.6113 49.8157L37.8075 47.7793C37.9755 47.6235 37.9755 47.3717 37.8075 47.2159C37.6395 47.0601 37.3679 47.0601 37.1999 47.2159L35.0038 49.2523C34.7863 49.4539 34.4078 49.4539 34.1904 49.2523L21.564 37.5438H26.2209C26.7112 37.5438 27.1564 37.2578 27.3287 36.8318L28.674 33.5049L29.8724 36.7964C30.0409 37.2621 30.526 37.5777 30.9956 37.5434C31.3682 37.543 31.7093 37.3809 31.9285 37.1191L32.4841 38.5308C32.6589 38.9758 33.1441 39.2786 33.6438 39.2507C34.1603 39.2316 34.5998 38.9081 34.7365 38.4455L35.4364 36.0856L36.1214 39.1535C36.2344 39.6591 36.7023 40.0189 37.2583 40.0281C37.8143 40.0189 38.287 39.7022 38.4254 39.2077L39.3505 41.5581C39.5137 41.9733 39.9271 42.2558 40.3959 42.2777C40.4054 42.2781 40.4526 42.2797 40.4621 42.2797C40.9124 42.2797 41.3305 42.0366 41.5273 41.6601L43.7157 37.4658H47.7143L40.2661 44.3727C40.0981 44.5285 40.0981 44.7803 40.2661 44.9361C40.4341 45.0918 40.7057 45.0918 40.8737 44.9361L48.8165 37.5709L48.9084 37.4861C48.9149 37.4801 48.92 37.4729 48.9261 37.4665H58.0848C58.7375 37.4665 59.2682 36.9745 59.2682 36.3692C59.2682 35.764 58.7371 35.272 58.0844 35.272ZM20.9848 24.5811C24.4472 21.3705 29.9089 21.1214 33.6885 24.0025C34.2157 24.4038 34.9788 24.4038 35.5052 24.0025C39.286 21.1218 44.7478 21.3709 48.2093 24.5811C51.3155 27.461 51.7882 31.9008 49.6363 35.272H42.9736C42.5229 35.272 42.1048 35.515 41.9084 35.8911L40.6146 38.3706L39.3127 35.0616C39.1343 34.6078 38.6608 34.3229 38.1362 34.342C37.9033 34.354 37.688 34.4269 37.5097 34.5456L36.7577 31.178C36.6464 30.6796 36.1858 30.3202 35.653 30.3046C35.0979 30.2668 34.6063 30.6086 34.4585 31.1095L33.4371 34.5528L33.0263 33.5089C32.8562 33.0778 32.4097 32.7881 31.898 32.7881C31.5645 32.7929 31.2569 32.9271 31.0412 33.1459L29.8539 29.8851C29.6945 29.4464 29.2524 29.1464 28.7329 29.138C28.2422 29.138 27.7975 29.4241 27.6252 29.85L25.4011 35.3492H19.6115C17.4012 31.9697 17.8545 27.4837 20.9848 24.5811ZM58.0844 36.6697H43.4463C43.2813 36.6697 43.1313 36.7569 43.0595 36.8944L40.7543 41.3131C40.7001 41.4163 40.5854 41.4832 40.4621 41.4832L40.4457 41.4828C40.3155 41.4768 40.2025 41.3995 40.1579 41.2856L38.7476 37.702C38.6853 37.5442 38.5238 37.4402 38.3441 37.4402C38.3364 37.4402 38.3287 37.4402 38.3205 37.4406C38.1314 37.4502 37.9712 37.5733 37.9265 37.7439L37.5952 39.0021C37.5587 39.1404 37.4173 39.2356 37.2751 39.2312C37.1247 39.2288 36.9941 39.128 36.9636 38.9918L35.916 34.3037C35.8756 34.1233 35.7076 33.9922 35.5091 33.9862C35.3114 33.9778 35.1335 34.1013 35.0811 34.2786L33.9085 38.2347C33.8707 38.361 33.7508 38.4495 33.6081 38.4551C33.4521 38.4591 33.3391 38.3794 33.2919 38.2582L32.3513 35.868C32.2886 35.709 32.1167 35.607 31.9418 35.6062C31.7588 35.6086 31.598 35.7178 31.54 35.8788L31.3007 36.5422C31.2569 36.6649 31.1336 36.7474 30.9643 36.7486C30.8624 36.7573 30.7309 36.6645 30.6871 36.5434L29.1024 32.1912C29.0444 32.0315 28.8841 31.9231 28.7024 31.9203C28.5279 31.9263 28.3569 32.0211 28.2929 32.1789L26.5239 36.5533C26.477 36.6697 26.355 36.7482 26.2209 36.7482H11.1101C10.9314 36.7482 10.7861 36.6135 10.7861 36.4481C10.7861 36.2828 10.9314 36.1477 11.1101 36.1477H25.6989C25.878 36.1477 26.0383 36.0445 26.1015 35.8891L28.43 30.1313C28.4768 30.015 28.5988 29.9365 28.7385 29.9365C28.8751 29.9385 28.9963 30.0205 29.0397 30.1409L30.5823 34.3779C30.6411 34.54 30.8053 34.6488 30.9892 34.6488C30.9896 34.6488 30.9896 34.6488 30.99 34.6488C31.1748 34.6484 31.3385 34.5388 31.3965 34.3763L31.6075 33.7906C31.6509 33.6698 31.7725 33.5874 31.9143 33.5854C32.0496 33.5854 32.1721 33.6647 32.2185 33.7826L33.0908 35.9983C33.1548 36.1613 33.3202 36.2649 33.5119 36.2597C33.6988 36.2525 33.8591 36.1346 33.9085 35.9672L35.2861 31.3214C35.3273 31.1844 35.4584 31.0931 35.6087 31.1011C35.7591 31.1055 35.8855 31.2039 35.9155 31.3402L36.9202 35.8389C36.961 36.0214 37.1324 36.1533 37.3335 36.1565C37.5337 36.1537 37.7104 36.0334 37.7585 35.8525L37.8865 35.3672C37.9205 35.2377 38.0395 35.146 38.18 35.1389C38.3386 35.1281 38.4567 35.2118 38.5053 35.3357L40.1557 39.5297C40.215 39.6799 40.3654 39.7831 40.5377 39.791C40.7212 39.801 40.8711 39.7105 40.9463 39.5667L42.6823 36.2398C42.736 36.1366 42.8507 36.07 42.974 36.07H58.0848C58.2636 36.07 58.4088 36.2047 58.4088 36.3704C58.4088 36.5362 58.2632 36.6697 58.0844 36.6697Z" fill="#3A2C60"/>
</svg>
