<svg width="58" height="45" viewBox="0 0 58 45" fill="none" xmlns="http://www.w3.org/2000/svg">
<path fill-rule="evenodd" clip-rule="evenodd" d="M22.356 4.09215C24.096 3.99215 25.834 4.00015 27.574 4.00015C27.586 4.00015 36.391 4.00015 36.391 4.00015C38.165 4.00015 39.903 3.99215 41.642 4.09215C43.223 4.18215 44.763 4.37415 46.296 4.80315C49.523 5.70515 52.341 7.58915 54.378 10.2602C56.403 12.9142 57.499 16.1632 57.499 19.4992C57.499 22.8392 56.403 26.0862 54.378 28.7402C52.341 31.4102 49.523 33.2952 46.296 34.1972C44.763 34.6262 43.223 34.8172 41.642 34.9082C39.903 35.0082 38.165 34.9992 36.425 34.9992C36.413 34.9992 27.606 35.0002 27.606 35.0002C25.834 34.9992 24.096 35.0082 22.356 34.9082C20.776 34.8172 19.236 34.6262 17.703 34.1972C14.476 33.2952 11.658 31.4102 9.62102 28.7402C7.59602 26.0862 6.49902 22.8392 6.49902 19.5002C6.49902 16.1632 7.59602 12.9142 9.62102 10.2602C11.658 7.58915 14.476 5.70515 17.703 4.80315C19.236 4.37415 20.776 4.18215 22.356 4.09215Z" fill="#787880" fill-opacity="0.16"/>
<g filter="url(#filter0_dd_2103_106754)">
<path fill-rule="evenodd" clip-rule="evenodd" d="M21.999 33C29.4549 33 35.499 26.9558 35.499 19.5C35.499 12.0442 29.4549 6 21.999 6C14.5432 6 8.49902 12.0442 8.49902 19.5C8.49902 26.9558 14.5432 33 21.999 33Z" fill="white"/>
<path d="M21.999 33.25C29.5929 33.25 35.749 27.0939 35.749 19.5C35.749 11.9061 29.5929 5.75 21.999 5.75C14.4051 5.75 8.24902 11.9061 8.24902 19.5C8.24902 27.0939 14.4051 33.25 21.999 33.25Z" stroke="black" stroke-opacity="0.04" stroke-width="0.5"/>
</g>
<defs>
<filter id="filter0_dd_2103_106754" x="-0.000976562" y="0.5" width="44" height="44" filterUnits="userSpaceOnUse" color-interpolation-filters="sRGB">
<feFlood flood-opacity="0" result="BackgroundImageFix"/>
<feColorMatrix in="SourceAlpha" type="matrix" values="0 0 0 0 0 0 0 0 0 0 0 0 0 0 0 0 0 0 127 0" result="hardAlpha"/>
<feOffset dy="3"/>
<feGaussianBlur stdDeviation="0.5"/>
<feColorMatrix type="matrix" values="0 0 0 0 0 0 0 0 0 0 0 0 0 0 0 0 0 0 0.06 0"/>
<feBlend mode="normal" in2="BackgroundImageFix" result="effect1_dropShadow_2103_106754"/>
<feColorMatrix in="SourceAlpha" type="matrix" values="0 0 0 0 0 0 0 0 0 0 0 0 0 0 0 0 0 0 127 0" result="hardAlpha"/>
<feOffset dy="3"/>
<feGaussianBlur stdDeviation="4"/>
<feColorMatrix type="matrix" values="0 0 0 0 0 0 0 0 0 0 0 0 0 0 0 0 0 0 0.15 0"/>
<feBlend mode="normal" in2="effect1_dropShadow_2103_106754" result="effect2_dropShadow_2103_106754"/>
<feBlend mode="normal" in="SourceGraphic" in2="effect2_dropShadow_2103_106754" result="shape"/>
</filter>
</defs>
</svg>
