<svg width="33" height="35" viewBox="0 0 33 35" fill="none" xmlns="http://www.w3.org/2000/svg">
<g filter="url(#filter0_d_2103_37682)">
<path fill-rule="evenodd" clip-rule="evenodd" d="M19.5825 4.78598C18.5765 4.28204 17.4433 4 16.2502 4C12.4548 4 9.2664 6.85376 8.84728 10.6259L8.51154 13.6475C8.44331 14.2616 8.40919 14.5686 8.35231 14.8691C8.21475 15.5959 7.97707 16.3 7.64606 16.9614C7.50919 17.2349 7.35025 17.4998 7.03236 18.0297L6.06755 19.6377C5.26179 20.9806 4.85892 21.6521 5.14614 22.1594C5.43337 22.6667 6.21643 22.6667 7.78253 22.6667H24.7178C26.2839 22.6667 27.0669 22.6667 27.3542 22.1594C27.6414 21.6521 27.2385 20.9806 26.4328 19.6377L25.4679 18.0297L25.4679 18.0295C25.15 17.4998 24.9911 17.2349 24.8542 16.9614C24.5232 16.3 24.2856 15.5959 24.148 14.8691C24.0915 14.5708 24.0575 14.266 23.9902 13.6608C20.9813 13.525 18.5835 11.0425 18.5835 8C18.5835 6.80655 18.9524 5.69926 19.5825 4.78598ZM21.9489 6.65177C22.8646 7.73842 23.4774 9.09513 23.65 10.5989C22.4662 10.3266 21.5835 9.26639 21.5835 8C21.5835 7.50812 21.7167 7.04735 21.9489 6.65177Z" fill="#B9D3EB"/>
<path d="M12.25 22.668C12.25 23.1933 12.3535 23.7134 12.5545 24.1987C12.7555 24.684 13.0501 25.125 13.4216 25.4964C13.793 25.8678 14.234 26.1625 14.7193 26.3635C15.2046 26.5645 15.7247 26.668 16.25 26.668C16.7753 26.668 17.2954 26.5645 17.7807 26.3635C18.266 26.1625 18.707 25.8678 19.0784 25.4964C19.4499 25.125 19.7445 24.684 19.9455 24.1987C20.1465 23.7134 20.25 23.1933 20.25 22.668L16.25 22.668H12.25Z" fill="#B9D3EB"/>
<circle cx="24.2497" cy="7.9987" r="2.66667" fill="#E1F0FE"/>
</g>
<circle cx="24.25" cy="8" r="4" fill="#FF671E"/>
<defs>
<filter id="filter0_d_2103_37682" x="-3.75" y="0" width="40" height="40" filterUnits="userSpaceOnUse" color-interpolation-filters="sRGB">
<feFlood flood-opacity="0" result="BackgroundImageFix"/>
<feColorMatrix in="SourceAlpha" type="matrix" values="0 0 0 0 0 0 0 0 0 0 0 0 0 0 0 0 0 0 127 0" result="hardAlpha"/>
<feOffset dy="4"/>
<feGaussianBlur stdDeviation="2"/>
<feComposite in2="hardAlpha" operator="out"/>
<feColorMatrix type="matrix" values="0 0 0 0 0 0 0 0 0 0 0 0 0 0 0 0 0 0 0.25 0"/>
<feBlend mode="normal" in2="BackgroundImageFix" result="effect1_dropShadow_2103_37682"/>
<feBlend mode="normal" in="SourceGraphic" in2="effect1_dropShadow_2103_37682" result="shape"/>
</filter>
</defs>
</svg>
