<svg width="26" height="24" viewBox="0 0 26 24" fill="none" xmlns="http://www.w3.org/2000/svg">
<mask id="mask0_1966_128211" style="mask-type:luminance" maskUnits="userSpaceOnUse" x="1" y="0" width="24" height="24">
<path d="M25 0H1V24H25V0Z" fill="white"/>
</mask>
<g mask="url(#mask0_1966_128211)">
<path d="M13 2C7.48 2 3 6.48 3 12C3 17.52 7.48 22 13 22C18.52 22 23 17.52 23 12C23 6.48 18.52 2 13 2ZM13 20C8.58 20 5 16.42 5 12C5 7.58 8.58 4 13 4C17.42 4 21 7.58 21 12C21 16.42 17.42 20 13 20Z" fill="#7778E5"/>
</g>
<path d="M13 17C15.7614 17 18 14.7614 18 12C18 9.23858 15.7614 7 13 7C10.2386 7 8 9.23858 8 12C8 14.7614 10.2386 17 13 17Z" fill="#595ADF"/>
</svg>
