<svg width="34" height="34" viewBox="0 0 34 34" fill="none" xmlns="http://www.w3.org/2000/svg">
<path d="M30.5 16.6667C30.5 13.1304 29.0952 9.73906 26.5948 7.23858C24.0943 4.73809 20.7029 3.33333 17.1667 3.33333C13.6304 3.33333 10.2391 4.73809 7.73858 7.23858C5.23809 9.73906 3.83333 13.1304 3.83333 16.6667C3.83333 20.2029 5.23809 23.5943 7.73858 26.0948C10.2391 28.5952 13.6304 30 17.1667 30C20.7029 30 24.0943 28.5952 26.5948 26.0948C29.0952 23.5943 30.5 20.2029 30.5 16.6667ZM33.8333 16.6667C33.8333 21.0869 32.0774 25.3262 28.9518 28.4518C25.8262 31.5774 21.5869 33.3333 17.1667 33.3333C14.978 33.3333 12.8107 32.9022 10.7886 32.0647C8.76652 31.2271 6.9292 29.9994 5.38155 28.4518C2.25595 25.3262 0.5 21.0869 0.5 16.6667C0.5 12.2464 2.25595 8.00716 5.38155 4.88155C8.50716 1.75595 12.7464 0 17.1667 0C19.3554 0 21.5226 0.431096 23.5447 1.26867C25.5668 2.10625 27.4041 3.33391 28.9518 4.88155C30.4994 6.4292 31.7271 8.26652 32.5647 10.2886C33.4022 12.3107 33.8333 14.478 33.8333 16.6667ZM13.8333 12.5C13.8333 13.8333 12.6667 15 11.3333 15C10 15 8.83333 13.8333 8.83333 12.5C8.83333 11.1667 10 10 11.3333 10C12.6667 10 13.8333 11.1667 13.8333 12.5ZM25.5 12.5C25.5 13.8333 24.3333 15 23 15C21.6667 15 20.5 13.8333 20.5 12.5C20.5 11.1667 21.6667 10 23 10C24.3333 10 25.5 11.1667 25.5 12.5ZM17.1667 25.3833C14.25 25.3833 11.6833 24.1667 10.1833 22.3667L12.55 20C13.3 21.2 15.0833 22.05 17.1667 22.05C19.25 22.05 21.0333 21.2 21.7833 20L24.15 22.3667C22.65 24.1667 20.0833 25.3833 17.1667 25.3833Z" fill="#8D7CF6"/>
<g clip-path="url(#clip0_2525_14410)">
<path d="M11.667 16.46C11.6265 16.46 11.5861 16.4495 11.5498 16.4286C11.5104 16.4058 10.575 15.8627 9.62606 15.0443C9.06365 14.5592 8.61472 14.0781 8.29175 13.6144C7.87381 13.0143 7.66364 12.4371 7.66703 11.8988C7.671 11.2724 7.89536 10.6833 8.29883 10.24C8.70911 9.78923 9.25664 9.54102 9.84059 9.54102C10.589 9.54102 11.2732 9.96023 11.667 10.6243C12.0608 9.96025 12.745 9.54102 13.4934 9.54102C14.0451 9.54102 14.5715 9.76498 14.9756 10.1717C15.4191 10.618 15.6711 11.2486 15.667 11.9017C15.6635 12.4391 15.4494 13.0155 15.0306 13.6147C14.7066 14.0782 14.2583 14.5591 13.6981 15.044C12.7527 15.8623 11.8239 16.4055 11.7848 16.4282C11.7484 16.4494 11.7077 16.46 11.667 16.46Z" fill="#8D7CF6"/>
</g>
<g clip-path="url(#clip1_2525_14410)">
<path d="M22.667 16.46C22.6265 16.46 22.5861 16.4495 22.5498 16.4286C22.5104 16.4058 21.575 15.8627 20.6261 15.0443C20.0637 14.5592 19.6147 14.0781 19.2918 13.6144C18.8738 13.0143 18.6636 12.4371 18.667 11.8988C18.671 11.2724 18.8954 10.6833 19.2988 10.24C19.7091 9.78923 20.2566 9.54102 20.8406 9.54102C21.589 9.54102 22.2732 9.96023 22.667 10.6243C23.0608 9.96025 23.745 9.54102 24.4934 9.54102C25.0451 9.54102 25.5715 9.76498 25.9756 10.1717C26.4191 10.618 26.6711 11.2486 26.667 11.9017C26.6635 12.4391 26.4494 13.0155 26.0306 13.6147C25.7066 14.0782 25.2583 14.5591 24.6981 15.044C23.7527 15.8623 22.8239 16.4055 22.7848 16.4282C22.7484 16.4494 22.7077 16.46 22.667 16.46Z" fill="#8D7CF6"/>
</g>
<defs>
<clipPath id="clip0_2525_14410">
<rect width="8" height="8" fill="white" transform="translate(7.66699 9)"/>
</clipPath>
<clipPath id="clip1_2525_14410">
<rect width="8" height="8" fill="white" transform="translate(18.667 9)"/>
</clipPath>
</defs>
</svg>
