<svg width="25" height="24" viewBox="0 0 25 24" fill="none" xmlns="http://www.w3.org/2000/svg">
<path fill-rule="evenodd" clip-rule="evenodd" d="M14.2944 3.29494C13.7298 3.10345 13.126 3 12.5002 3C9.65366 3 7.26235 5.14032 6.94801 7.96942L6.69621 10.2356L6.68975 10.2933C6.5608 11.417 6.19505 12.5005 5.61661 13.4725L5.58682 13.5222L5.00879 14.4856C4.48423 15.3599 4.22196 15.797 4.27858 16.1559C4.31625 16.3946 4.43914 16.6117 4.6245 16.7668C4.90307 17 5.41285 17 6.4324 17H18.5679C19.5875 17 20.0973 17 20.3758 16.7668C20.5612 16.6117 20.6841 16.3946 20.7218 16.1559C20.7784 15.797 20.5161 15.3599 19.9915 14.4856L19.4135 13.5222L19.3837 13.4725C18.9275 12.7059 18.6036 11.8698 18.4238 10.9994C15.6976 10.9586 13.5002 8.73592 13.5002 6C13.5002 5.00331 13.7918 4.07473 14.2944 3.29494ZM16.7742 4.98883C17.461 5.80382 17.9206 6.82135 18.05 7.94914C17.1622 7.74494 16.5002 6.94979 16.5002 6C16.5002 5.63109 16.6 5.28551 16.7742 4.98883Z" fill="#B9D3EB"/>
<path d="M9.5 17C9.5 17.394 9.5776 17.7841 9.72836 18.1481C9.87913 18.512 10.1001 18.8427 10.3787 19.1213C10.6573 19.3999 10.988 19.6209 11.3519 19.7716C11.7159 19.9224 12.106 20 12.5 20C12.894 20 13.2841 19.9224 13.6481 19.7716C14.012 19.6209 14.3427 19.3999 14.6213 19.1213C14.8999 18.8427 15.1209 18.512 15.2716 18.1481C15.4224 17.7841 15.5 17.394 15.5 17L12.5 17H9.5Z" fill="#B9D3EB"/>
<circle cx="18.5" cy="6" r="2" fill="#E1F0FE"/>
<circle cx="18.5" cy="6" r="3" fill="#FF671E"/>
</svg>
