<svg width="23" height="25" viewBox="0 0 23 25" fill="none" xmlns="http://www.w3.org/2000/svg">
<path d="M21.0522 11.2773H1.92231C1.72192 11.2773 1.55957 11.4561 1.55957 11.6766V24.0647C1.55957 24.2852 1.72192 24.464 1.92231 24.464H21.0523C21.2527 24.464 21.415 24.2852 21.415 24.0647V11.6766C21.415 11.4561 21.2526 11.2773 21.0522 11.2773Z" fill="#F7434C"/>
<path d="M21.0522 11.2773H1.92231C1.72192 11.2773 1.55957 11.4561 1.55957 11.6766V13.2737H21.415V11.6766C21.415 11.4561 21.2526 11.2773 21.0522 11.2773Z" fill="#DB2E37"/>
<path d="M13.3405 11.2773H9.63423C9.43383 11.2773 9.27148 11.4561 9.27148 11.6766V24.0647C9.27148 24.2852 9.43383 24.464 9.63423 24.464H13.3405C13.5409 24.464 13.7033 24.2852 13.7033 24.0647V11.6766C13.7033 11.4561 13.5409 11.2773 13.3405 11.2773Z" fill="#FFDB57"/>
<path d="M13.3405 11.2773H9.63423C9.43383 11.2773 9.27148 11.4561 9.27148 11.6766V13.2651H13.7033V11.6766C13.7033 11.4561 13.5409 11.2773 13.3405 11.2773Z" fill="#F5BA3D"/>
<path d="M20.3453 3.90218C19.9896 2.88177 19.4283 1.88517 18.844 1.23617C18.6295 0.998067 18.3408 0.877363 18.0121 0.885117C16.923 0.913021 15.1482 2.41753 12.7371 5.3568C12.6769 5.43014 12.6436 5.52551 12.6436 5.62438V7.73626C12.6436 7.95678 12.8059 8.13551 13.0063 8.13551H18.5862C19.8295 8.13551 20.3427 7.46976 20.5542 6.91123C20.8363 6.16671 20.7621 5.09801 20.3453 3.90218Z" fill="#FFDB57"/>
<path d="M20.5528 4.59801C20.5426 4.55701 20.5266 4.51805 20.5053 4.48264C19.9576 3.57108 18.774 3.91216 17.8776 4.35877C15.2733 5.65629 14.1978 7.44359 14.1533 7.519C14.0808 7.64183 14.0752 7.79834 14.1387 7.927C14.2022 8.05565 14.3245 8.13571 14.4575 8.13571H18.5862C19.3774 8.13571 19.9641 7.86842 20.33 7.34131C20.7648 6.71507 20.8418 5.76643 20.5528 4.59801Z" fill="#EF9325"/>
<path d="M10.2374 5.3568C7.82631 2.41753 6.05155 0.913025 4.96242 0.885121C4.63288 0.877318 4.34494 0.998071 4.13054 1.23617C3.54622 1.88513 2.98496 2.88178 2.62931 3.90218C2.21249 5.09801 2.13823 6.16667 2.42021 6.91129C2.63173 7.46982 3.14484 8.13557 4.38819 8.13557H9.96814C10.1685 8.13557 10.3309 7.95678 10.3309 7.73631V5.62439C10.3309 5.52551 10.2977 5.43014 10.2374 5.3568Z" fill="#FFDB57"/>
<path d="M8.82124 7.51895C8.77673 7.44354 7.70124 5.65619 5.09693 4.35872C4.20043 3.9121 3.01689 3.57118 2.46914 4.48253C2.44787 4.51799 2.43185 4.55691 2.42171 4.59795C2.1326 5.76637 2.20969 6.71502 2.64446 7.34121C3.01039 7.86832 3.59709 8.13561 4.38827 8.13561H8.51701C8.65001 8.13561 8.77233 8.05555 8.83578 7.9269C8.89923 7.79829 8.89366 7.64178 8.82124 7.51895Z" fill="#EF9325"/>
<path d="M13.007 4.83008H9.96821C9.76781 4.83008 9.60547 5.00886 9.60547 5.22933V7.73592C9.60547 7.95643 9.76781 8.13517 9.96821 8.13517H13.007C13.2074 8.13517 13.3698 7.95638 13.3698 7.73592V5.22933C13.3698 5.00881 13.2074 4.83008 13.007 4.83008Z" fill="#F5BA3D"/>
<path d="M22.6116 7.33789H0.362744C0.162346 7.33789 0 7.51667 0 7.73714V11.677C0 11.8975 0.162346 12.0762 0.362744 12.0762H22.6116C22.812 12.0762 22.9744 11.8974 22.9744 11.677V7.73714C22.9744 7.51663 22.812 7.33789 22.6116 7.33789Z" fill="#F7434C"/>
<rect x="8.70117" y="7.33789" width="5.57285" height="4.73843" fill="#FFDB57"/>
</svg>
