<svg width="33" height="32" viewBox="0 0 33 32" fill="none" xmlns="http://www.w3.org/2000/svg">
<path d="M8.94493 10.6259C9.36406 6.85376 12.5525 4 16.3478 4C20.1432 4 23.3316 6.85376 23.7507 10.6259L24.0864 13.6475C24.1547 14.2616 24.1888 14.5686 24.2457 14.8691C24.3832 15.5959 24.6209 16.3 24.9519 16.9614C25.0888 17.2349 25.2477 17.4998 25.5656 18.0297L26.5304 19.6377C27.3362 20.9806 27.739 21.6521 27.4518 22.1594C27.1646 22.6667 26.3815 22.6667 24.8154 22.6667H7.88019C6.31408 22.6667 5.53103 22.6667 5.2438 22.1594C4.95657 21.6521 5.35945 20.9806 6.16521 19.6377L7.13002 18.0297C7.4479 17.4998 7.60685 17.2349 7.74372 16.9614C8.07472 16.3 8.3124 15.5959 8.44997 14.8691C8.50685 14.5686 8.54097 14.2616 8.6092 13.6475L8.94493 10.6259Z" fill="white"/>
<path d="M8.6092 13.6475L9.35461 13.7303L8.6092 13.6475ZM8.44997 14.8691L7.71306 14.7296L8.44997 14.8691ZM7.13002 18.0297L7.77314 18.4155L7.13002 18.0297ZM7.74372 16.9614L8.41442 17.2971L7.74372 16.9614ZM24.0864 13.6475L23.341 13.7303L24.0864 13.6475ZM24.2457 14.8691L24.9826 14.7296L24.2457 14.8691ZM25.5656 18.0297L24.9225 18.4155L25.5656 18.0297ZM24.9519 16.9614L24.2812 17.2971L24.9519 16.9614ZM6.16521 19.6377L5.52209 19.2518L6.16521 19.6377ZM5.2438 22.1594L4.59115 22.5289L5.2438 22.1594ZM26.5304 19.6377L27.1735 19.2518L26.5304 19.6377ZM27.4518 22.1594L26.7992 21.7898L27.4518 22.1594ZM23.7507 10.6259L24.4961 10.5431L23.7507 10.6259ZM8.94493 10.6259L8.19952 10.5431L8.94493 10.6259ZM24.8154 21.9167H7.88019V23.4167H24.8154V21.9167ZM23.0053 10.7087L23.341 13.7303L24.8318 13.5647L24.4961 10.5431L23.0053 10.7087ZM9.35461 13.7303L9.69035 10.7087L8.19952 10.5431L7.86379 13.5647L9.35461 13.7303ZM6.80832 20.0235L7.77314 18.4155L6.4869 17.6438L5.52209 19.2518L6.80832 20.0235ZM24.9225 18.4155L25.8873 20.0235L27.1735 19.2518L26.2087 17.6438L24.9225 18.4155ZM7.86379 13.5647C7.79435 14.1896 7.76339 14.4638 7.71306 14.7296L9.18688 15.0086C9.25032 14.6735 9.28759 14.3336 9.35461 13.7303L7.86379 13.5647ZM7.77314 18.4155C8.08541 17.8951 8.26179 17.6021 8.41442 17.2971L7.07302 16.6258C6.95191 16.8678 6.8104 17.1046 6.4869 17.6438L7.77314 18.4155ZM7.71306 14.7296C7.58839 15.3882 7.37299 16.0264 7.07302 16.6258L8.41442 17.2971C8.77646 16.5736 9.03642 15.8035 9.18688 15.0086L7.71306 14.7296ZM23.341 13.7303C23.408 14.3336 23.4453 14.6735 23.5087 15.0086L24.9826 14.7296C24.9322 14.4638 24.9013 14.1896 24.8318 13.5647L23.341 13.7303ZM26.2087 17.6438C25.8852 17.1046 25.7437 16.8678 25.6226 16.6258L24.2812 17.2971C24.4338 17.6021 24.6102 17.8951 24.9225 18.4155L26.2087 17.6438ZM23.5087 15.0086C23.6592 15.8035 23.9192 16.5736 24.2812 17.2971L25.6226 16.6258C25.3226 16.0264 25.1072 15.3882 24.9826 14.7296L23.5087 15.0086ZM7.88019 21.9167C7.07176 21.9167 6.5517 21.9147 6.19248 21.8614C5.8386 21.8089 5.86657 21.7371 5.89645 21.7898L4.59115 22.5289C4.90826 23.089 5.47137 23.2708 5.97235 23.3451C6.468 23.4187 7.12252 23.4167 7.88019 23.4167V21.9167ZM5.52209 19.2518C5.13227 19.9015 4.7938 20.4617 4.60185 20.9246C4.40783 21.3924 4.27404 21.9688 4.59115 22.5289L5.89645 21.7898C5.92633 21.8426 5.85037 21.8297 5.98742 21.4992C6.12654 21.1637 6.39239 20.7168 6.80832 20.0235L5.52209 19.2518ZM24.8154 23.4167C25.5731 23.4167 26.2276 23.4187 26.7233 23.3451C27.2242 23.2708 27.7874 23.089 28.1045 22.5289L26.7992 21.7898C26.8291 21.7371 26.857 21.8089 26.5031 21.8614C26.1439 21.9147 25.6239 21.9167 24.8154 21.9167V23.4167ZM25.8873 20.0235C26.3032 20.7168 26.5691 21.1637 26.7082 21.4992C26.8453 21.8297 26.7693 21.8426 26.7992 21.7898L28.1045 22.5289C28.4216 21.9688 28.2878 21.3924 28.0938 20.9246C27.9018 20.4617 27.5634 19.9015 27.1735 19.2518L25.8873 20.0235ZM16.3478 4.75C19.761 4.75 22.6284 7.31641 23.0053 10.7087L24.4961 10.5431C24.0348 6.39111 20.5253 3.25 16.3478 3.25V4.75ZM16.3478 3.25C12.1703 3.25 8.66085 6.39111 8.19952 10.5431L9.69035 10.7087C10.0673 7.31641 12.9346 4.75 16.3478 4.75V3.25Z" fill="#7778E5"/>
<path d="M12.3477 22.668C12.3477 23.1933 12.4511 23.7134 12.6521 24.1987C12.8532 24.684 13.1478 25.125 13.5192 25.4964C13.8907 25.8678 14.3316 26.1625 14.8169 26.3635C15.3022 26.5645 15.8224 26.668 16.3477 26.668C16.8729 26.668 17.3931 26.5645 17.8784 26.3635C18.3637 26.1625 18.8046 25.8678 19.1761 25.4964C19.5475 25.125 19.8422 24.684 20.0432 24.1987C20.2442 23.7134 20.3477 23.1933 20.3477 22.668L16.3477 22.668H12.3477Z" fill="white" stroke="#7778E5" stroke-width="1.5"/>
</svg>
