<svg width="335" height="109" viewBox="0 0 335 109" fill="none" xmlns="http://www.w3.org/2000/svg">
<rect width="335" height="109" rx="12" fill="url(#paint0_linear_1318_60708)"/>
<mask id="mask0_1318_60708" style="mask-type:luminance" maskUnits="userSpaceOnUse" x="0" y="0" width="335" height="109">
<rect width="335" height="109" rx="12" fill="white"/>
</mask>
<g mask="url(#mask0_1318_60708)">
<g opacity="0.15">
<path fill-rule="evenodd" clip-rule="evenodd" d="M336.287 45.7831L332.669 49.422L332.91 54.325L327.96 52.3184L322.889 54.025L323.449 49.146L320.073 45.2976L325.369 44.2887L328.354 40.2041L331.066 44.4596L336.287 45.7831Z" fill="#026363"/>
<path fill-rule="evenodd" clip-rule="evenodd" d="M312.343 31.5997C311.379 33.2458 309.122 33.8682 307.301 32.9889C305.48 32.1093 304.785 30.0611 305.749 28.415C306.713 26.7682 308.97 26.1465 310.792 27.0261C312.612 27.9054 313.307 29.953 312.343 31.5997" fill="white"/>
<path fill-rule="evenodd" clip-rule="evenodd" d="M312 24.9625C311.689 24.8126 311.572 24.4642 311.736 24.1836L314.562 19.3556C314.726 19.075 315.11 18.9688 315.42 19.1186C315.732 19.2689 315.849 19.6173 315.685 19.8979L312.859 24.7259C312.695 25.0065 312.311 25.1127 312 24.9625" fill="white"/>
<path fill-rule="evenodd" clip-rule="evenodd" d="M320.23 36.0611L314.891 33.4826C314.581 33.333 314.462 32.9839 314.626 32.7033C314.791 32.422 315.176 32.3171 315.486 32.4666L320.825 35.0452C321.136 35.1954 321.254 35.5432 321.089 35.8245C320.925 36.1051 320.541 36.2113 320.23 36.0611" fill="white"/>
<path fill-rule="evenodd" clip-rule="evenodd" d="M302.672 40.8967C302.362 40.7469 302.244 40.3984 302.409 40.1178L305.234 35.2912C305.398 35.0106 305.782 34.9043 306.092 35.0542C306.403 35.2044 306.521 35.5529 306.357 35.8335L303.531 40.6601C303.367 40.9407 302.983 41.047 302.672 40.8967" fill="white"/>
<path fill-rule="evenodd" clip-rule="evenodd" d="M302.607 27.5494L297.267 24.9705C296.958 24.821 296.839 24.4722 297.003 24.1916C297.168 23.9103 297.552 23.805 297.862 23.9546L303.202 26.5335C303.513 26.6837 303.631 27.0315 303.466 27.3128C303.302 27.5934 302.918 27.6996 302.607 27.5494" fill="white"/>
<path fill-rule="evenodd" clip-rule="evenodd" d="M314.899 28.822C314.755 28.7525 314.641 28.633 314.589 28.4808C314.485 28.177 314.674 27.855 315.009 27.7626L318.728 26.7379C319.063 26.6461 319.418 26.8178 319.522 27.1216C319.624 27.4263 319.436 27.7477 319.101 27.8405L315.384 28.8648C315.216 28.911 315.042 28.8911 314.899 28.822" fill="white"/>
<path fill-rule="evenodd" clip-rule="evenodd" d="M311.787 39.4654C311.643 39.3962 311.528 39.2764 311.477 39.1246L310.332 35.753C310.23 35.4489 310.418 35.1275 310.753 35.0347C311.088 34.9423 311.444 35.1139 311.548 35.4187L312.692 38.79C312.795 39.0944 312.607 39.4164 312.271 39.5082C312.104 39.5544 311.93 39.5349 311.787 39.4654" fill="white"/>
<path fill-rule="evenodd" clip-rule="evenodd" d="M298.882 33.2333C298.739 33.1641 298.624 33.0443 298.572 32.8921C298.468 32.5883 298.657 32.2663 298.992 32.1738L302.71 31.1509C303.046 31.0584 303.402 31.2301 303.505 31.5345C303.607 31.8386 303.419 32.16 303.084 32.2528L299.367 33.2761C299.199 33.3223 299.026 33.3028 298.882 33.2333" fill="white"/>
<path fill-rule="evenodd" clip-rule="evenodd" d="M306.857 24.9392C306.714 24.8701 306.599 24.7503 306.548 24.5984L305.403 21.2258C305.3 20.9217 305.488 20.6003 305.823 20.5069C306.159 20.4154 306.515 20.5871 306.618 20.8909L307.762 24.2638C307.866 24.5683 307.677 24.8902 307.342 24.982C307.174 25.0283 307.001 25.0087 306.857 24.9392" fill="white"/>
<path fill-rule="evenodd" clip-rule="evenodd" d="M225.14 38.5356C223.579 38.6974 222.164 37.6811 221.982 36.2669C221.797 34.8521 222.913 33.5753 224.473 33.4134C226.035 33.2529 227.449 34.2679 227.633 35.6828C227.816 37.0973 226.7 38.3748 225.14 38.5356" fill="white"/>
<path fill-rule="evenodd" clip-rule="evenodd" d="M229.59 35.4799C229.558 35.2389 229.749 35.0216 230.014 34.9937L234.59 34.521C234.856 34.4935 235.097 34.6663 235.129 34.9074C235.16 35.1494 234.97 35.3661 234.704 35.3935L230.128 35.8663C229.862 35.8938 229.621 35.722 229.59 35.4799" fill="white"/>
<path fill-rule="evenodd" clip-rule="evenodd" d="M225.486 44.942L224.946 40.7947C224.916 40.554 225.105 40.336 225.372 40.3089C225.638 40.2807 225.878 40.4542 225.91 40.6953L226.449 44.8426C226.48 45.0833 226.29 45.3009 226.024 45.3284C225.758 45.3559 225.518 45.1834 225.486 44.942" fill="white"/>
<path fill-rule="evenodd" clip-rule="evenodd" d="M214.487 37.0401C214.455 36.7987 214.645 36.5814 214.911 36.5539L219.487 36.0814C219.752 36.0539 219.993 36.2267 220.025 36.4678C220.056 36.7088 219.866 36.9261 219.6 36.954L215.025 37.4265C214.759 37.454 214.518 37.2811 214.487 37.0401" fill="white"/>
<path fill-rule="evenodd" clip-rule="evenodd" d="M223.704 31.2527L223.165 27.1053C223.135 26.864 223.324 26.6463 223.59 26.6188C223.856 26.5913 224.097 26.7649 224.128 27.0059L224.668 31.1532C224.699 31.3943 224.509 31.6119 224.243 31.6391C223.978 31.6669 223.737 31.4941 223.704 31.2527" fill="white"/>
<path fill-rule="evenodd" clip-rule="evenodd" d="M228.177 38.7908C228.163 38.6791 228.195 38.5626 228.278 38.4676C228.444 38.2774 228.749 38.2465 228.959 38.397L231.289 40.0702C231.499 40.2213 231.535 40.4974 231.369 40.687C231.202 40.8772 230.898 40.9088 230.688 40.7577L228.359 39.0848C228.253 39.0096 228.192 38.9031 228.177 38.7908" fill="white"/>
<path fill-rule="evenodd" clip-rule="evenodd" d="M219.449 41.6066C219.435 41.4953 219.467 41.3784 219.55 41.2835L221.388 39.1805C221.554 38.9903 221.858 38.9594 222.069 39.1098C222.279 39.2609 222.315 39.537 222.149 39.7276L220.311 41.83C220.146 42.0205 219.84 42.0517 219.63 41.9006C219.525 41.8254 219.464 41.7183 219.449 41.6066" fill="white"/>
<path fill-rule="evenodd" clip-rule="evenodd" d="M218.146 31.5839C218.132 31.4726 218.164 31.3557 218.247 31.2607C218.414 31.0709 218.718 31.039 218.928 31.1904L221.256 32.8636C221.467 33.015 221.503 33.2912 221.336 33.4804C221.171 33.671 220.866 33.7025 220.656 33.5515L218.327 31.8779C218.222 31.802 218.161 31.6956 218.146 31.5839" fill="white"/>
<path fill-rule="evenodd" clip-rule="evenodd" d="M227.365 32.5448C227.35 32.4331 227.383 32.3166 227.466 32.2217L229.305 30.1184C229.47 29.9278 229.775 29.8969 229.985 30.0477C230.195 30.1988 230.231 30.4749 230.065 30.6652L228.227 32.7682C228.061 32.9587 227.756 32.9899 227.546 32.8388C227.441 32.7636 227.379 32.6571 227.365 32.5448" fill="white"/>
<path fill-rule="evenodd" clip-rule="evenodd" d="M254.822 15.3692C253.97 16.8247 251.974 17.3745 250.364 16.597C248.753 15.8192 248.14 14.0093 248.992 12.5537C249.844 11.0982 251.839 10.5477 253.45 11.3255C255.059 12.103 255.674 13.9136 254.822 15.3692" fill="white"/>
<path fill-rule="evenodd" clip-rule="evenodd" d="M254.517 9.49986C254.243 9.36753 254.138 9.05903 254.284 8.81064L256.782 4.54257C256.927 4.29483 257.267 4.20116 257.541 4.33349C257.816 4.46617 257.921 4.77467 257.776 5.0224L255.277 9.29047C255.132 9.53887 254.792 9.63254 254.517 9.49986" fill="white"/>
<path fill-rule="evenodd" clip-rule="evenodd" d="M261.793 19.3124L257.073 17.0329C256.798 16.9002 256.693 16.5917 256.838 16.344C256.984 16.0956 257.324 16.0019 257.599 16.1346L262.318 18.4141C262.593 18.5468 262.698 18.8553 262.552 19.1037C262.407 19.3514 262.067 19.4451 261.793 19.3124" fill="white"/>
<path fill-rule="evenodd" clip-rule="evenodd" d="M246.269 23.589C245.995 23.4567 245.891 23.1482 246.036 22.8998L248.534 18.6331C248.679 18.3847 249.019 18.291 249.293 18.4233C249.568 18.556 249.673 18.8645 249.527 19.1129L247.03 23.3797C246.884 23.6281 246.544 23.7217 246.269 23.589" fill="white"/>
<path fill-rule="evenodd" clip-rule="evenodd" d="M246.213 11.7893L241.493 9.50948C241.218 9.3768 241.113 9.06831 241.258 8.82057C241.404 8.57218 241.744 8.4785 242.019 8.61119L246.739 10.891C247.013 11.0233 247.118 11.3318 246.972 11.5802C246.827 11.828 246.487 11.9216 246.213 11.7893" fill="white"/>
<path fill-rule="evenodd" clip-rule="evenodd" d="M257.079 12.9141C256.952 12.8527 256.85 12.7472 256.805 12.6132C256.713 12.344 256.88 12.0594 257.177 11.9777L260.464 11.0719C260.76 10.9898 261.074 11.1418 261.166 11.4109C261.257 11.6808 261.091 11.9646 260.794 12.0464L257.507 12.9522C257.359 12.9929 257.206 12.9755 257.079 12.9141" fill="white"/>
<path fill-rule="evenodd" clip-rule="evenodd" d="M254.328 22.3225C254.201 22.2611 254.099 22.1556 254.054 22.0215L253.042 19.0405C252.951 18.7713 253.117 18.4874 253.414 18.405C253.711 18.3233 254.026 18.4753 254.116 18.7441L255.128 21.7252C255.219 21.9943 255.053 22.2789 254.756 22.3606C254.608 22.4013 254.455 22.3839 254.328 22.3225" fill="white"/>
<path fill-rule="evenodd" clip-rule="evenodd" d="M242.919 16.8139C242.792 16.7524 242.691 16.647 242.645 16.5129C242.554 16.2437 242.72 15.9592 243.017 15.8774L246.304 14.9726C246.6 14.8905 246.915 15.0425 247.006 15.3113C247.097 15.5815 246.931 15.8654 246.634 15.9468L243.347 16.852C243.199 16.8927 243.046 16.8753 242.919 16.8139" fill="white"/>
<path fill-rule="evenodd" clip-rule="evenodd" d="M249.968 9.47941C249.841 9.41798 249.74 9.31252 249.695 9.17879L248.683 6.1967C248.592 5.92753 248.758 5.64365 249.055 5.56126C249.352 5.47952 249.666 5.63151 249.757 5.90033L250.768 8.88207C250.86 9.1516 250.694 9.43614 250.396 9.51752C250.248 9.55823 250.095 9.54083 249.968 9.47941" fill="white"/>
<path fill-rule="evenodd" clip-rule="evenodd" d="M216.893 77.7037C212.029 78.525 207.336 75.616 206.412 71.2064C205.486 66.7967 208.68 62.5559 213.543 61.7346C218.407 60.9136 223.099 63.8229 224.024 68.2322C224.95 72.6416 221.757 76.8827 216.893 77.7037" fill="#FEBE10"/>
<path fill-rule="evenodd" clip-rule="evenodd" d="M221.335 68.5583C220.775 65.4839 217.575 63.504 214.203 64.143C210.83 64.7833 208.542 67.8043 209.102 70.879C209.662 73.9521 212.861 75.933 216.234 75.2927C219.606 74.6537 221.894 71.632 221.335 68.5583M207.814 71.123C207.137 67.4015 209.906 63.7447 213.989 62.9703C218.071 62.1957 221.944 64.5928 222.621 68.314C223.299 72.0348 220.53 75.6917 216.448 76.4663C212.364 77.2403 208.492 74.8438 207.814 71.123" fill="#BA8000"/>
<path fill-rule="evenodd" clip-rule="evenodd" d="M211.109 69.9122L212.038 69.7549C211.977 69.3098 211.959 68.9445 211.984 68.6591C212.01 68.3735 212.041 68.1353 212.076 67.9459L213.609 67.6864L213.934 69.2316C213.778 69.2575 213.668 69.3048 213.606 69.3743C213.543 69.4424 213.53 69.566 213.567 69.7439C213.599 69.8987 213.648 70.0038 213.714 70.0611C213.779 70.1177 213.863 70.1374 213.966 70.1199C214.039 70.1077 214.096 70.0704 214.14 70.0072C214.182 69.9442 214.222 69.8246 214.261 69.6485C214.333 69.2777 214.408 68.9516 214.485 68.6692C214.561 68.3875 214.662 68.147 214.787 67.9494C214.911 67.7515 215.071 67.5928 215.268 67.4719C215.464 67.3517 215.714 67.2662 216.02 67.2147C216.272 67.1722 216.51 67.164 216.732 67.1921C216.954 67.2202 217.16 67.2909 217.346 67.4044C217.534 67.5186 217.701 67.6813 217.85 67.8946C217.999 68.1065 218.126 68.3779 218.233 68.7094L219.124 68.5589L219.317 69.4781L218.442 69.6264C218.471 69.8487 218.488 70.0474 218.49 70.2211C218.492 70.3958 218.485 70.5565 218.471 70.7048C218.457 70.8525 218.437 70.9886 218.413 71.1143C218.388 71.239 218.358 71.3439 218.322 71.427L216.937 71.6615L216.627 70.1876C216.776 70.1612 216.87 70.1072 216.909 70.0228C216.948 69.9388 216.956 69.8427 216.933 69.7355C216.901 69.5807 216.855 69.4736 216.797 69.4125C216.738 69.3521 216.656 69.3318 216.548 69.3495C216.459 69.365 216.402 69.4116 216.377 69.4913C216.35 69.5709 216.326 69.6877 216.306 69.8411C216.264 70.1297 216.215 70.4035 216.157 70.663C216.099 70.9215 216.009 71.1563 215.888 71.3656C215.766 71.5756 215.603 71.7522 215.397 71.8958C215.193 72.0398 214.924 72.1392 214.594 72.1948C214.001 72.2953 213.508 72.2163 213.114 71.958C212.72 71.7001 212.428 71.2718 212.238 70.6736L211.301 70.8313L211.109 69.9122Z" fill="#BA8000"/>
<path fill-rule="evenodd" clip-rule="evenodd" d="M241.583 72.3166C241.273 72.1671 241.092 71.8477 241.159 71.5194C241.161 71.5112 241.322 70.7223 241.386 69.4031C241.407 68.9924 241.79 68.6761 242.244 68.6956C242.696 68.7156 243.049 69.0641 243.029 69.4759C242.959 70.9102 242.783 71.7651 242.776 71.8006C242.692 72.2041 242.261 72.4682 241.816 72.3907C241.732 72.3763 241.655 72.3514 241.583 72.3166" fill="white"/>
<path fill-rule="evenodd" clip-rule="evenodd" d="M237.967 55.3862C237.832 55.322 237.717 55.2206 237.64 55.088C236.808 53.6475 235.818 52.2661 234.696 50.9805C234.418 50.662 234.483 50.1862 234.841 49.919C235.199 49.6501 235.714 49.6906 235.993 50.0081C237.176 51.3632 238.22 52.821 239.097 54.3403C239.306 54.7023 239.149 55.1629 238.747 55.3691C238.492 55.5 238.2 55.497 237.967 55.3862M241.465 65.0273C241.244 64.9222 241.084 64.7223 241.053 64.4758C240.843 62.828 240.473 61.2018 239.952 59.6397C239.821 59.249 240.064 58.8217 240.496 58.686C240.927 58.5509 241.382 58.7564 241.513 59.1472C242.062 60.7932 242.453 62.507 242.673 64.2423C242.725 64.6511 242.404 65.0347 241.956 65.0983C241.78 65.1241 241.609 65.0961 241.465 65.0273" fill="white"/>
<path fill-rule="evenodd" clip-rule="evenodd" d="M230.989 47.4646C230.933 47.4379 230.88 47.4046 230.83 47.3654C230.241 46.8944 229.612 46.4265 228.963 45.9747C228.602 45.723 228.534 45.2547 228.81 44.9289C229.085 44.6034 229.602 44.5387 229.963 44.7944C230.641 45.2669 231.298 45.7562 231.915 46.2488C232.256 46.5217 232.29 46.9925 231.991 47.3008C231.735 47.5638 231.318 47.6236 230.989 47.4646" fill="white"/>
<path fill-rule="evenodd" clip-rule="evenodd" d="M261.034 69.8995C260.685 69.731 260.511 69.3541 260.64 69.0044C260.643 68.9964 260.922 68.2338 261.322 66.9055C261.441 66.5095 261.893 66.2765 262.332 66.3866C262.767 66.4932 263.028 66.9058 262.908 67.3031C262.495 68.6758 262.211 69.4486 262.199 69.481C262.056 69.8711 261.59 70.08 261.16 69.9482C261.115 69.9344 261.074 69.9184 261.034 69.8995" fill="white"/>
<path fill-rule="evenodd" clip-rule="evenodd" d="M262.076 31.5267C261.899 31.4427 261.759 31.2979 261.694 31.1104C261.251 29.8255 260.736 28.5769 260.162 27.3974C259.98 27.0246 260.169 26.5751 260.583 26.393C260.997 26.2101 261.479 26.3639 261.66 26.7384C262.258 27.968 262.795 29.2682 263.256 30.6036C263.39 30.9943 263.149 31.424 262.718 31.5644C262.495 31.6368 262.265 31.6167 262.076 31.5267M264.125 39.4707C263.904 39.3657 263.744 39.1666 263.712 38.9209C263.538 37.57 263.302 36.2398 263.012 34.9656C262.921 34.5642 263.205 34.1582 263.645 34.0577C264.087 33.9576 264.517 34.2021 264.608 34.6028C264.908 35.9193 265.15 37.2923 265.331 38.6839C265.384 39.0924 265.065 39.4761 264.617 39.542C264.44 39.5685 264.269 39.5395 264.125 39.4707M264.733 47.6119C264.478 47.4905 264.309 47.244 264.317 46.957C264.353 45.589 264.341 44.2302 264.28 42.9176C264.261 42.5065 264.609 42.1451 265.058 42.1111C265.505 42.0771 265.885 42.3829 265.904 42.794C265.966 44.1391 265.978 45.5317 265.941 46.933C265.931 47.3453 265.558 47.6851 265.11 47.6914C264.973 47.694 264.845 47.6653 264.733 47.6119M264.204 55.761C263.921 55.6261 263.75 55.3386 263.797 55.0239C263.999 53.6728 264.163 52.3146 264.283 50.9851C264.321 50.5746 264.712 50.2548 265.159 50.2722C265.607 50.2886 265.937 50.6374 265.9 51.0492C265.776 52.405 265.609 53.7899 265.403 55.168C265.341 55.5783 264.932 55.8784 264.488 55.8386C264.385 55.8294 264.29 55.8019 264.204 55.761M262.739 63.8143C262.431 63.667 262.262 63.3406 262.349 63.0053C262.689 61.6909 262.999 60.3493 263.272 59.0179C263.355 58.6099 263.779 58.3297 264.217 58.3897C264.658 58.4483 264.945 58.829 264.862 59.2353C264.585 60.59 264.268 61.9569 263.922 63.2949C263.818 63.6978 263.38 63.9603 262.945 63.881C262.871 63.8669 262.803 63.8446 262.739 63.8143" fill="white"/>
<path fill-rule="evenodd" clip-rule="evenodd" d="M258.319 24.1211C258.196 24.0614 258.087 23.9724 258.008 23.8569C257.582 23.2389 257.128 22.6293 256.658 22.0443C256.39 21.7118 256.471 21.2459 256.838 21.0042C257.205 20.7626 257.721 20.8388 257.987 21.1713C258.479 21.7842 258.955 22.4236 259.402 23.0717C259.642 23.4205 259.526 23.8803 259.141 24.0972C258.883 24.2425 258.57 24.2422 258.319 24.1211" fill="white"/>
<path fill-rule="evenodd" clip-rule="evenodd" d="M277.184 73.6323C276.878 73.4845 276.697 73.1712 276.759 72.8461C276.764 72.8125 276.919 72.0072 277.258 70.6244C277.358 70.2233 277.796 69.9714 278.241 70.0622C278.683 70.1566 278.963 70.5517 278.864 70.9532C278.533 72.2972 278.38 73.0966 278.379 73.1046C278.302 73.5096 277.877 73.7799 277.43 73.709C277.341 73.6948 277.26 73.6688 277.184 73.6323" fill="white"/>
<path fill-rule="evenodd" clip-rule="evenodd" d="M290.04 44.9857C290.005 44.9688 289.971 44.949 289.939 44.9269C289.587 44.6882 289.523 44.2241 289.796 43.8899C290.764 42.7087 291.772 41.5996 292.794 40.5943C293.104 40.2892 293.616 40.2597 293.935 40.5372C294.255 40.811 294.262 41.2808 293.951 41.5872C292.971 42.5521 292.002 43.6175 291.07 44.7539C290.822 45.0577 290.383 45.1492 290.04 44.9857V44.9857ZM285.249 52.0072C284.866 51.8237 284.726 51.382 284.936 51.0175C285.059 50.8054 285.182 50.5951 285.307 50.384C285.933 49.3282 286.582 48.3034 287.239 47.338C287.479 46.9842 287.976 46.8763 288.35 47.074C288.722 47.281 288.829 47.7358 288.59 48.0889C287.951 49.0289 287.318 50.0262 286.709 51.0549C286.587 51.2607 286.466 51.4677 286.347 51.6738C286.134 52.041 285.647 52.1924 285.257 52.0109L285.249 52.0072ZM281.552 59.5718C281.204 59.4055 281.046 59.017 281.199 58.6611C281.774 57.3271 282.378 56.0185 282.998 54.7712C283.186 54.3928 283.665 54.2143 284.068 54.3722C284.473 54.5235 284.644 54.9659 284.458 55.3442C283.849 56.5671 283.256 57.8504 282.693 59.1592C282.527 59.5457 282.057 59.7471 281.645 59.6094C281.613 59.5983 281.582 59.5862 281.552 59.5718V59.5718ZM278.731 67.4459C278.409 67.2918 278.243 66.9427 278.353 66.5993C278.785 65.2534 279.252 63.9027 279.745 62.5834C279.892 62.1903 280.352 61.9682 280.773 62.0875C281.193 62.2029 281.416 62.6218 281.269 63.0149C280.785 64.3136 280.324 65.6431 279.899 66.9668C279.772 67.3646 279.322 67.6047 278.896 67.503C278.837 67.4894 278.782 67.4701 278.731 67.4459V67.4459Z" fill="white"/>
<path fill-rule="evenodd" clip-rule="evenodd" d="M296.304 38.9339C296.21 38.8887 296.124 38.8269 296.053 38.7468C295.765 38.4276 295.817 37.9586 296.168 37.6992C296.83 37.2095 297.513 36.7486 298.197 36.3264C298.571 36.0949 299.083 36.1847 299.34 36.5243C299.595 36.8644 299.5 37.3284 299.126 37.5588C298.481 37.957 297.837 38.3928 297.211 38.8551C296.946 39.0503 296.588 39.0712 296.304 38.9339" fill="white"/>
<path fill-rule="evenodd" clip-rule="evenodd" d="M306.181 55.3872C306.181 55.3872 311.312 47.5512 317.989 45.6091L320.907 47.9219L320.06 52.1819C320.06 52.1819 311.976 50.7978 306.181 55.3872" fill="#026363"/>
<path fill-rule="evenodd" clip-rule="evenodd" d="M283.394 15.1273L280.223 18.8037L275.107 19.4029L277.998 23.2857L277.065 27.8806L282.023 26.603L286.562 28.8447L286.736 24.1723L290.474 20.9623L285.622 19.3525L283.394 15.1273Z" fill="#026363"/>
<path fill-rule="evenodd" clip-rule="evenodd" d="M276.273 42.8591C276.273 42.8591 283.902 36.9261 284.861 30.6281L281.845 28.4216L277.363 29.9125C277.363 29.9125 280.259 36.8931 276.273 42.8591" fill="#026363"/>
<path fill-rule="evenodd" clip-rule="evenodd" d="M289.812 76.5417C291.136 62.4007 313.97 70.1222 315.294 55.9812C311.31 51.9321 307.328 47.8837 303.344 43.8349C302.02 57.9755 279.186 50.2544 277.862 64.3961C281.845 68.4442 285.829 72.4933 289.812 76.5417" fill="#8CC53F"/>
<path fill-rule="evenodd" clip-rule="evenodd" d="M304.809 49.4974C300.503 57.8526 285.452 55.0496 281.146 63.4045C283.546 65.8958 285.945 68.387 288.344 70.8793C292.649 62.5232 307.7 65.3271 312.006 56.9723C309.608 54.4803 307.208 51.989 304.809 49.4974M279.957 63.7359C283.623 53.6721 300.89 57.7322 304.556 47.6677C307.437 50.6588 310.316 53.6495 313.196 56.6402C309.529 66.7043 292.263 62.6446 288.596 72.7087C285.716 69.718 282.836 66.7273 279.957 63.7359" fill="#517820"/>
<path fill-rule="evenodd" clip-rule="evenodd" d="M292.122 61.482C293.689 63.0753 296.906 63.7381 299.434 63.0916C301.962 62.4455 302.62 60.5097 301.034 58.8966C299.466 57.3029 296.25 56.6405 293.722 57.286C291.193 57.9317 290.534 59.8689 292.122 61.482" fill="#517820"/>
<path fill-rule="evenodd" clip-rule="evenodd" d="M269.233 71.0727L268.296 55.9917L278.097 55.9304L269.233 71.0727Z" fill="#026363"/>
<path fill-rule="evenodd" clip-rule="evenodd" d="M219.878 90.7242L203.844 94.797L201.597 86.1466L219.878 90.7242Z" fill="#026363"/>
<path fill-rule="evenodd" clip-rule="evenodd" d="M295.169 80.5174L309.335 72.6081L314.115 80.3749L295.169 80.5174Z" fill="#026363"/>
<path fill-rule="evenodd" clip-rule="evenodd" d="M314.647 82.7389C309.783 83.5603 305.09 80.6512 304.165 76.2412C303.24 71.8319 306.434 67.5912 311.297 66.7698C316.161 65.9488 320.853 68.8581 321.779 73.2675C322.704 77.6768 319.511 81.9179 314.647 82.7389" fill="#FEBE10"/>
<path fill-rule="evenodd" clip-rule="evenodd" d="M319.088 73.5935C318.529 70.5191 315.329 68.5392 311.957 69.1782C308.584 69.8185 306.295 72.8395 306.856 75.9142C307.415 78.9875 310.615 80.9681 313.988 80.3278C317.36 79.6889 319.648 76.6671 319.088 73.5935M305.568 76.1582C304.891 72.4367 307.659 68.7798 311.743 68.0055C315.825 67.2308 319.698 69.628 320.376 73.3495C321.053 77.0699 318.284 80.7268 314.202 81.5015C310.118 82.2755 306.246 79.879 305.568 76.1582" fill="#BA8000"/>
<path fill-rule="evenodd" clip-rule="evenodd" d="M308.863 74.947L309.792 74.7897C309.731 74.3447 309.713 73.9793 309.738 73.694C309.764 73.4084 309.794 73.1708 309.83 72.9807L311.362 72.7219L311.688 74.2665C311.532 74.2923 311.422 74.3397 311.36 74.4091C311.296 74.4779 311.284 74.6009 311.321 74.7788C311.353 74.9335 311.402 75.0387 311.468 75.0959C311.533 75.1525 311.617 75.1722 311.721 75.1548C311.794 75.1429 311.85 75.1053 311.894 75.042C311.936 74.9791 311.976 74.8594 312.015 74.6841C312.087 74.3126 312.162 73.9871 312.239 73.7041C312.315 73.4223 312.415 73.1825 312.541 72.9843C312.665 72.7863 312.825 72.6276 313.022 72.5068C313.218 72.3866 313.468 72.3011 313.774 72.2495C314.026 72.207 314.264 72.1989 314.486 72.2269C314.708 72.255 314.914 72.3257 315.1 72.4399C315.288 72.5535 315.455 72.7168 315.604 72.9294C315.753 73.1414 315.88 73.4128 315.987 73.7443L316.878 73.5938L317.07 74.5136L316.196 74.6612C316.226 74.8835 316.242 75.0822 316.244 75.2559C316.246 75.4306 316.239 75.5914 316.225 75.7397C316.211 75.8873 316.191 76.0235 316.167 76.1492C316.142 76.2745 316.112 76.3788 316.076 76.4626L314.691 76.6963L314.381 75.2224C314.53 75.1961 314.625 75.142 314.663 75.0577C314.702 74.9736 314.71 74.8782 314.687 74.7703C314.655 74.6162 314.609 74.5085 314.551 74.4474C314.493 74.3873 314.41 74.3666 314.302 74.3843C314.213 74.3998 314.156 74.4464 314.131 74.5261C314.104 74.6058 314.08 74.7225 314.06 74.876C314.018 75.1646 313.969 75.4383 313.911 75.6978C313.853 75.9564 313.763 76.1911 313.642 76.4004C313.52 76.6104 313.357 76.7871 313.151 76.9307C312.947 77.0747 312.678 77.1741 312.348 77.2297C311.755 77.3302 311.262 77.2511 310.868 76.9929C310.474 76.735 310.182 76.3066 309.993 75.7084L309.056 75.8662L308.863 74.947Z" fill="#BA8000"/>
<path fill-rule="evenodd" clip-rule="evenodd" d="M237.569 68.5248L228.398 58.2676L224.89 64.2606L237.569 68.5248Z" fill="#026363"/>
<path fill-rule="evenodd" clip-rule="evenodd" d="M241.047 63.438C253.214 54.5338 233.397 41.6561 245.563 32.7515C251.487 33.4874 257.409 34.2229 263.332 34.9581C251.166 43.863 270.982 56.74 258.815 65.6446C252.893 64.9091 246.97 64.1736 241.047 63.438" fill="#8CC53F"/>
<path fill-rule="evenodd" clip-rule="evenodd" d="M246.572 35.9569C241.214 43.811 252.211 53.4143 246.854 61.2684C250.506 61.6582 254.157 62.0488 257.81 62.4397C263.167 54.5856 252.17 44.9823 257.527 37.1282C253.875 36.7383 250.224 36.3478 246.572 35.9569M245.015 62.1018C252.315 53.7685 238.917 43.2219 246.216 34.8882C250.6 35.3573 254.983 35.8257 259.366 36.2944C252.066 44.6281 265.465 55.174 258.166 63.5077C253.782 63.0386 249.398 62.5706 245.015 62.1018" fill="#517820"/>
<path fill-rule="evenodd" clip-rule="evenodd" d="M253.503 53.277C251.172 52.9875 248.768 50.9355 247.944 48.6716C247.12 46.4062 248.519 44.8274 250.878 45.1196C253.209 45.4098 255.613 47.4611 256.437 49.7261C257.261 51.9904 255.862 53.5703 253.503 53.277" fill="#517820"/>
<path fill-rule="evenodd" clip-rule="evenodd" d="M324.324 66.3104C323.603 67.5432 321.912 68.0088 320.549 67.3503C319.185 66.6918 318.665 65.1584 319.387 63.9256C320.108 62.6929 321.799 62.2272 323.162 62.8857C324.526 63.5442 325.046 65.0776 324.324 66.3104" fill="white"/>
<path fill-rule="evenodd" clip-rule="evenodd" d="M324.068 61.3408C323.836 61.2288 323.747 60.9674 323.87 60.7571L325.986 57.1422C326.109 56.9319 326.398 56.853 326.63 56.965C326.862 57.0773 326.951 57.3384 326.828 57.5487L324.712 61.1636C324.589 61.3738 324.301 61.4531 324.068 61.3408" fill="white"/>
<path fill-rule="evenodd" clip-rule="evenodd" d="M330.231 69.651L326.233 67.7201C326.001 67.6077 325.912 67.3466 326.035 67.1363C326.158 66.9261 326.446 66.8468 326.679 66.9591L330.677 68.89C330.908 69.002 330.997 69.2631 330.874 69.4734C330.751 69.6837 330.463 69.7629 330.231 69.651" fill="white"/>
<path fill-rule="evenodd" clip-rule="evenodd" d="M317.084 73.2718C316.852 73.1598 316.763 72.8983 316.886 72.6881L319.002 69.0738C319.125 68.8636 319.414 68.7846 319.645 68.8966C319.878 69.0089 319.967 69.27 319.844 69.4803L317.728 73.0945C317.605 73.3048 317.317 73.3841 317.084 73.2718" fill="white"/>
<path fill-rule="evenodd" clip-rule="evenodd" d="M317.034 63.2779L313.036 61.347C312.803 61.2347 312.715 60.9736 312.838 60.7633C312.961 60.553 313.249 60.4737 313.481 60.586L317.479 62.517C317.712 62.6293 317.801 62.8904 317.677 63.1007C317.554 63.311 317.266 63.3903 317.034 63.2779" fill="white"/>
<path fill-rule="evenodd" clip-rule="evenodd" d="M326.238 64.2316C326.131 64.18 326.045 64.0902 326.006 63.9769C325.929 63.7484 326.069 63.5079 326.321 63.4387L329.105 62.6713C329.356 62.6017 329.622 62.7305 329.7 62.9584C329.777 63.1869 329.636 63.4274 329.385 63.4966L326.601 64.2644C326.476 64.2983 326.345 64.2835 326.238 64.2316" fill="white"/>
<path fill-rule="evenodd" clip-rule="evenodd" d="M323.909 72.1994C323.801 72.1474 323.714 72.0583 323.677 71.9448L322.819 69.42C322.742 69.1922 322.883 68.951 323.134 68.8818C323.385 68.8126 323.652 68.9415 323.729 69.1693L324.586 71.6937C324.663 71.9215 324.523 72.162 324.271 72.2319C324.145 72.2665 324.016 72.2513 323.909 72.1994" fill="white"/>
<path fill-rule="evenodd" clip-rule="evenodd" d="M314.247 67.5332C314.139 67.4813 314.053 67.3922 314.015 67.2786C313.937 67.0498 314.078 66.8093 314.33 66.7404L317.113 65.9739C317.364 65.9047 317.631 66.0335 317.708 66.2614C317.785 66.4892 317.644 66.7304 317.393 66.7996L314.609 67.5657C314.484 67.6003 314.354 67.5848 314.247 67.5332" fill="white"/>
<path fill-rule="evenodd" clip-rule="evenodd" d="M320.216 61.3236C320.11 61.272 320.023 61.1823 319.984 61.069L319.128 58.5433C319.05 58.3151 319.191 58.0746 319.443 58.0051C319.694 57.9356 319.96 58.0644 320.038 58.2923L320.894 60.8183C320.972 61.0462 320.831 61.2867 320.579 61.3565C320.454 61.3904 320.324 61.3756 320.216 61.3236" fill="white"/>
<path fill-rule="evenodd" clip-rule="evenodd" d="M293.487 79.5407L293.486 79.5403C293.186 79.3947 293.072 79.057 293.231 78.7849C293.244 78.7619 293.571 78.2073 294.188 77.3143C294.368 77.0534 294.749 76.9711 295.036 77.139C295.325 77.303 295.412 77.6478 295.233 77.9083C294.641 78.7647 294.322 79.3068 294.319 79.312C294.159 79.5831 293.787 79.6856 293.487 79.5407" fill="white"/>
<path fill-rule="evenodd" clip-rule="evenodd" d="M306.344 67.1243C306.245 67.0773 306.161 67.0038 306.104 66.9081C305.946 66.64 306.059 66.2967 306.357 66.1406C307.43 65.5785 308.52 65.113 309.599 64.7588C309.92 64.6528 310.262 64.8029 310.364 65.0941C310.466 65.3853 310.29 65.7065 309.968 65.8119C308.96 66.1437 307.938 66.5798 306.929 67.1091C306.738 67.2085 306.519 67.2077 306.344 67.1243M300.863 70.8615C300.807 70.8349 300.756 70.8012 300.711 70.7576C300.485 70.539 300.501 70.1856 300.748 69.9685C301.627 69.1939 302.527 68.4784 303.422 67.8443C303.692 67.6524 304.072 67.6934 304.271 67.9342C304.468 68.1754 304.409 68.5269 304.138 68.7185C303.279 69.3278 302.415 70.0135 301.569 70.7589C301.371 70.9339 301.085 70.9674 300.863 70.8615M296.342 75.5513C296.316 75.5389 296.291 75.5244 296.268 75.508C296.003 75.3307 295.954 74.9829 296.159 74.7315C296.868 73.8593 297.608 73.0158 298.359 72.2252C298.582 71.9896 298.967 71.958 299.212 72.1542C299.459 72.3524 299.478 72.7027 299.253 72.9387C298.524 73.7071 297.804 74.5267 297.114 75.3761C296.929 75.6036 296.599 75.6737 296.342 75.5513" fill="white"/>
<path fill-rule="evenodd" clip-rule="evenodd" d="M312.857 65.1276C312.683 65.0437 312.556 64.8859 312.533 64.6961C312.494 64.3898 312.737 64.1138 313.075 64.0808C313.715 64.0181 314.362 63.9906 314.997 64.0007C315.338 64.0044 315.609 64.2593 315.605 64.5675C315.6 64.8753 315.322 65.1211 314.981 65.1158C314.397 65.1068 313.803 65.1317 313.213 65.1899C313.085 65.2025 312.963 65.1788 312.857 65.1276" fill="white"/>
<path fill-rule="evenodd" clip-rule="evenodd" d="M287.733 43.3896C287.797 48.0169 283.709 51.7995 278.603 51.8401C273.496 51.8804 269.305 48.1628 269.241 43.5355C269.176 38.9079 273.264 35.1252 278.371 35.0847C283.478 35.0444 287.67 38.7624 287.733 43.3896" fill="#FEBE10"/>
<path fill-rule="evenodd" clip-rule="evenodd" d="M278.556 37.5907C275.03 37.6874 272.13 40.3998 272.091 43.6367C272.052 46.8735 274.891 49.4292 278.417 49.3325C281.943 49.2365 284.843 46.5241 284.882 43.2866C284.921 40.0497 282.083 37.4941 278.556 37.5907M278.402 50.568C274.133 50.6855 270.699 47.5922 270.745 43.6733C270.791 39.7548 274.303 36.472 278.571 36.3552C282.84 36.2384 286.274 39.331 286.228 43.2499C286.182 47.1691 282.671 50.4522 278.402 50.568" fill="#BA8000"/>
<path fill-rule="evenodd" clip-rule="evenodd" d="M277.978 47.2795L277.966 46.3954C277.455 46.3696 277.043 46.3195 276.728 46.2432C276.412 46.1675 276.15 46.0958 275.944 46.0281L275.924 44.5695L277.713 44.5552C277.715 44.7029 277.749 44.8127 277.814 44.8823C277.881 44.9533 278.016 44.9876 278.222 44.9859C278.402 44.985 278.528 44.9601 278.603 44.9103C278.679 44.8598 278.716 44.786 278.714 44.6873C278.713 44.6187 278.681 44.5592 278.619 44.5081C278.555 44.4572 278.428 44.3984 278.238 44.3308C277.835 44.196 277.482 44.0671 277.179 43.9443C276.876 43.8216 276.625 43.6852 276.426 43.534C276.226 43.3835 276.075 43.2062 275.975 43.0038C275.875 42.8004 275.824 42.5545 275.818 42.2638C275.815 42.0238 275.848 41.8036 275.92 41.6047C275.99 41.4052 276.105 41.2297 276.266 41.0783C276.426 40.9273 276.639 40.8021 276.903 40.705C277.167 40.6071 277.494 40.5394 277.885 40.502L277.873 39.6552L278.937 39.6465L278.949 40.4783C279.204 40.4919 279.429 40.513 279.625 40.5435C279.821 40.5743 279.999 40.6096 280.164 40.6503C280.327 40.6903 280.476 40.7335 280.612 40.7792C280.748 40.8245 280.86 40.8719 280.947 40.919L280.965 42.2385L279.258 42.2518C279.257 42.1095 279.212 42.0131 279.125 41.9623C279.037 41.9108 278.93 41.8862 278.806 41.8868C278.627 41.8881 278.499 41.9103 278.421 41.9528C278.343 41.9952 278.304 42.0675 278.306 42.1706C278.306 42.2549 278.35 42.3156 278.434 42.3543C278.519 42.3931 278.646 42.4365 278.814 42.4843C279.129 42.5749 279.428 42.6702 279.708 42.771C279.989 42.8722 280.236 42.9982 280.45 43.1487C280.663 43.2996 280.833 43.4827 280.957 43.697C281.083 43.9127 281.147 44.1772 281.151 44.4919C281.16 45.0567 280.984 45.4959 280.625 45.8108C280.265 46.1259 279.734 46.3152 279.03 46.38L279.043 47.2712L277.978 47.2795Z" fill="#BA8000"/>
<mask id="mask1_1318_60708" style="mask-type:luminance" maskUnits="userSpaceOnUse" x="168" y="-7" width="184" height="146">
<path fill-rule="evenodd" clip-rule="evenodd" d="M269.913 -6.59024L211.84 28.0253C208.192 30.2003 208.468 35.1283 212.346 37.0012V37.0012L221.905 41.6178C225.796 43.4973 226.058 48.4491 222.383 50.6119V50.6119L168.102 82.5408L280.845 136.992C287.324 140.121 295.348 137.925 298.766 132.086V132.086L349.503 45.4111C352.921 39.5718 350.438 32.3011 343.959 29.1719V29.1719L269.913 -6.59024Z" fill="white"/>
</mask>
<g mask="url(#mask1_1318_60708)">
<path fill-rule="evenodd" clip-rule="evenodd" d="M303.435 84.3151C303.435 84.3151 302.779 81.6061 301.249 81.3832C296.352 80.669 295.564 82.408 290.718 81.4419C285.872 80.4765 286.711 78.4853 281.865 77.5198C277.022 76.5541 276.184 78.545 271.341 77.5797C266.497 76.615 267.335 74.6234 262.491 73.6573C257.648 72.6926 256.809 74.6839 251.967 73.7185C247.126 72.7539 247.826 71.7632 242.984 70.7982L239.298 71.5611L234.505 71.9621L238.718 80.5145L284.459 89.8682L292.574 84.8643L294.826 84.193L303.435 84.3151Z" fill="#517820"/>
</g>
<mask id="mask2_1318_60708" style="mask-type:luminance" maskUnits="userSpaceOnUse" x="168" y="-7" width="184" height="146">
<path fill-rule="evenodd" clip-rule="evenodd" d="M269.913 -6.59024L211.84 28.0253C208.192 30.2003 208.468 35.1283 212.346 37.0012V37.0012L221.905 41.6178C225.796 43.4973 226.058 48.4491 222.383 50.6119V50.6119L168.102 82.5408L280.845 136.992C287.324 140.121 295.348 137.925 298.766 132.086V132.086L349.503 45.4111C352.921 39.5718 350.438 32.3011 343.959 29.1719V29.1719L269.913 -6.59024Z" fill="white"/>
</mask>
<g mask="url(#mask2_1318_60708)">
<path fill-rule="evenodd" clip-rule="evenodd" d="M210.679 156.62L279.539 177.395L292.575 84.8644C287.733 83.7888 286.695 87.7089 281.853 86.6334C277.012 85.5576 278.05 81.6375 273.209 80.5616C268.371 79.4865 267.332 83.4069 262.495 82.3322C257.655 81.2567 258.694 77.337 253.854 76.2618C249.016 75.1864 247.978 79.1065 243.14 78.0314C238.303 76.9573 239.342 73.0369 234.505 71.9621L210.679 156.62Z" fill="#C1DF65"/>
</g>
<mask id="mask3_1318_60708" style="mask-type:luminance" maskUnits="userSpaceOnUse" x="168" y="-7" width="184" height="146">
<path fill-rule="evenodd" clip-rule="evenodd" d="M269.913 -6.59024L211.84 28.0253C208.192 30.2003 208.468 35.1283 212.346 37.0012V37.0012L221.905 41.6178C225.796 43.4973 226.058 48.4491 222.383 50.6119V50.6119L168.102 82.5408L280.845 136.992C287.324 140.121 295.348 137.925 298.766 132.086V132.086L349.503 45.4111C352.921 39.5718 350.438 32.3011 343.959 29.1719V29.1719L269.913 -6.59024Z" fill="white"/>
</mask>
<g mask="url(#mask3_1318_60708)">
<path fill-rule="evenodd" clip-rule="evenodd" d="M303.559 169.713L303.436 84.3144L294.827 84.1917L292.575 84.8627L279.539 177.394L303.559 169.713Z" fill="#C1DF65"/>
</g>
<mask id="mask4_1318_60708" style="mask-type:luminance" maskUnits="userSpaceOnUse" x="168" y="-7" width="184" height="146">
<path fill-rule="evenodd" clip-rule="evenodd" d="M269.913 -6.59024L211.84 28.0253C208.192 30.2003 208.468 35.1283 212.346 37.0012V37.0012L221.905 41.6178C225.796 43.4973 226.058 48.4491 222.383 50.6119V50.6119L168.102 82.5408L280.845 136.992C287.324 140.121 295.348 137.925 298.766 132.086V132.086L349.503 45.4111C352.921 39.5718 350.438 32.3011 343.959 29.1719V29.1719L269.913 -6.59024Z" fill="white"/>
</mask>
<g mask="url(#mask4_1318_60708)">
<path fill-rule="evenodd" clip-rule="evenodd" d="M294.827 84.1925L290.43 164.217L279.539 177.394L292.574 84.8635L294.827 84.1925Z" fill="#B4C64A"/>
</g>
<mask id="mask5_1318_60708" style="mask-type:luminance" maskUnits="userSpaceOnUse" x="168" y="-7" width="184" height="146">
<path fill-rule="evenodd" clip-rule="evenodd" d="M269.913 -6.59024L211.84 28.0253C208.192 30.2003 208.468 35.1283 212.346 37.0012V37.0012L221.905 41.6178C225.796 43.4973 226.058 48.4491 222.383 50.6119V50.6119L168.102 82.5408L280.845 136.992C287.324 140.121 295.348 137.925 298.766 132.086V132.086L349.503 45.4111C352.921 39.5718 350.438 32.3011 343.959 29.1719V29.1719" fill="white"/>
</mask>
<g mask="url(#mask5_1318_60708)">
<path fill-rule="evenodd" clip-rule="evenodd" d="M248.713 85.1406C248.53 86.4676 247.191 87.401 245.724 87.2267C244.256 87.052 243.214 85.8356 243.398 84.509C243.58 83.1827 244.92 82.2487 246.387 82.423C247.855 82.5983 248.896 83.8147 248.713 85.1406" fill="#517820"/>
</g>
<mask id="mask6_1318_60708" style="mask-type:luminance" maskUnits="userSpaceOnUse" x="168" y="-7" width="184" height="146">
<path fill-rule="evenodd" clip-rule="evenodd" d="M269.913 -6.59024L211.84 28.0253C208.192 30.2003 208.468 35.1283 212.346 37.0012V37.0012L221.905 41.6178C225.796 43.4973 226.058 48.4491 222.383 50.6119V50.6119L168.102 82.5408L280.845 136.992C287.324 140.121 295.348 137.925 298.766 132.086V132.086L349.503 45.4111C352.921 39.5718 350.438 32.3011 343.959 29.1719V29.1719L269.913 -6.59024Z" fill="white"/>
</mask>
<g mask="url(#mask6_1318_60708)">
<path fill-rule="evenodd" clip-rule="evenodd" d="M292.574 84.8642C290.486 84.4 289.106 84.867 287.822 85.4606C285.287 99.6475 271.704 153.545 212.022 151.852L210.68 156.62L279.539 177.395L292.574 84.8642Z" fill="#C1DF65"/>
</g>
<mask id="mask7_1318_60708" style="mask-type:luminance" maskUnits="userSpaceOnUse" x="168" y="-7" width="184" height="146">
<path fill-rule="evenodd" clip-rule="evenodd" d="M269.913 -6.59024L211.84 28.0253C208.192 30.2003 208.468 35.1283 212.346 37.0012V37.0012L221.905 41.6178C225.796 43.4973 226.058 48.4491 222.383 50.6119V50.6119L168.102 82.5408L280.845 136.992C287.324 140.121 295.348 137.925 298.766 132.086V132.086L349.503 45.4111C352.921 39.5718 350.438 32.3011 343.959 29.1719V29.1719" fill="white"/>
</mask>
<g mask="url(#mask7_1318_60708)">
<path fill-rule="evenodd" clip-rule="evenodd" d="M299.02 101.42C298.796 103.033 297.168 104.169 295.382 103.957C293.597 103.745 292.329 102.264 292.552 100.651C292.776 99.0372 294.404 97.9014 296.19 98.114C297.976 98.3259 299.243 99.8059 299.02 101.42" fill="#828C26"/>
</g>
<mask id="mask8_1318_60708" style="mask-type:luminance" maskUnits="userSpaceOnUse" x="168" y="-7" width="184" height="146">
<path fill-rule="evenodd" clip-rule="evenodd" d="M269.913 -6.59024L211.84 28.0253C208.192 30.2003 208.468 35.1283 212.346 37.0012V37.0012L221.905 41.6178C225.796 43.4973 226.058 48.4491 222.383 50.6119V50.6119L168.102 82.5408L280.845 136.992C287.324 140.121 295.348 137.925 298.766 132.086V132.086L349.503 45.4111C352.921 39.5718 350.438 32.3011 343.959 29.1719V29.1719" fill="white"/>
</mask>
<g mask="url(#mask8_1318_60708)">
<path fill-rule="evenodd" clip-rule="evenodd" d="M255.086 99.1663C254.804 101.207 252.745 102.643 250.486 102.374C248.229 102.106 246.627 100.235 246.909 98.1943C247.191 96.1547 249.25 94.7176 251.509 94.9863C253.766 95.2543 255.368 97.1264 255.086 99.1663" fill="#828C26"/>
</g>
<mask id="mask9_1318_60708" style="mask-type:luminance" maskUnits="userSpaceOnUse" x="168" y="-7" width="184" height="146">
<path fill-rule="evenodd" clip-rule="evenodd" d="M269.913 -6.59024L211.84 28.0253C208.192 30.2003 208.468 35.1283 212.346 37.0012V37.0012L221.905 41.6178C225.796 43.4973 226.058 48.4491 222.383 50.6119V50.6119L168.102 82.5408L280.845 136.992C287.324 140.121 295.348 137.925 298.766 132.086V132.086L349.503 45.4111C352.921 39.5718 350.438 32.3011 343.959 29.1719V29.1719" fill="white"/>
</mask>
<g mask="url(#mask9_1318_60708)">
<path fill-rule="evenodd" clip-rule="evenodd" d="M230.462 110.627C230.906 107.41 228.872 104.421 225.709 103.218L221.913 116.709C226.125 117.135 229.935 114.441 230.462 110.627" fill="#828C26"/>
</g>
<mask id="mask10_1318_60708" style="mask-type:luminance" maskUnits="userSpaceOnUse" x="168" y="-7" width="184" height="146">
<path fill-rule="evenodd" clip-rule="evenodd" d="M269.913 -6.59024L211.84 28.0253C208.192 30.2003 208.468 35.1283 212.346 37.0012V37.0012L221.905 41.6178C225.796 43.4973 226.058 48.4491 222.383 50.6119V50.6119L168.102 82.5408L280.845 136.992C287.324 140.121 295.348 137.925 298.766 132.086V132.086L349.503 45.4111C352.921 39.5718 350.438 32.3011 343.959 29.1719V29.1719L269.913 -6.59024Z" fill="white"/>
</mask>
<g mask="url(#mask10_1318_60708)">
<path fill-rule="evenodd" clip-rule="evenodd" d="M289.107 109.472C288.475 109.232 287.803 109.057 287.093 108.973C282.82 108.465 278.923 111.182 278.39 115.044C277.857 118.904 280.888 122.445 285.161 122.953C285.859 123.036 286.543 123.026 287.209 122.945L289.107 109.472Z" fill="#828C26"/>
</g>
<mask id="mask11_1318_60708" style="mask-type:luminance" maskUnits="userSpaceOnUse" x="168" y="-7" width="184" height="146">
<path fill-rule="evenodd" clip-rule="evenodd" d="M269.913 -6.59024L211.84 28.0253C208.192 30.2003 208.468 35.1283 212.346 37.0012V37.0012L221.905 41.6178C225.796 43.4973 226.058 48.4491 222.383 50.6119V50.6119L168.102 82.5408L280.845 136.992C287.324 140.121 295.348 137.925 298.766 132.086V132.086L349.503 45.4111C352.921 39.5718 350.438 32.3011 343.959 29.1719V29.1719L269.913 -6.59024Z" fill="white"/>
</mask>
<g mask="url(#mask11_1318_60708)">
<path fill-rule="evenodd" clip-rule="evenodd" d="M231.305 83.3298C234.435 82.7217 236.939 80.3992 237.36 77.3617C237.607 75.5701 237.079 73.8513 236.024 72.4691C235.589 72.265 235.092 72.0911 234.505 71.9606L231.305 83.3298Z" fill="#828C26"/>
</g>
<mask id="mask12_1318_60708" style="mask-type:luminance" maskUnits="userSpaceOnUse" x="168" y="-7" width="184" height="146">
<path fill-rule="evenodd" clip-rule="evenodd" d="M269.913 -6.59024L211.84 28.0253C208.192 30.2003 208.468 35.1283 212.346 37.0012V37.0012L221.905 41.6178C225.796 43.4973 226.058 48.4491 222.383 50.6119V50.6119L168.102 82.5408L280.845 136.992C287.324 140.121 295.348 137.925 298.766 132.086V132.086L349.503 45.4111C352.921 39.5718 350.438 32.3011 343.959 29.1719V29.1719" fill="white"/>
</mask>
<g mask="url(#mask12_1318_60708)">
<path fill-rule="evenodd" clip-rule="evenodd" d="M270.581 89.4017C270.048 93.2619 273.079 96.8035 277.352 97.3114C281.625 97.8201 285.521 95.1014 286.055 91.2409C286.284 89.5759 285.85 87.9733 284.94 86.6448C284.074 86.8549 283.088 86.907 281.853 86.6325C279.259 86.0564 278.352 84.664 277.325 83.3292C273.879 83.7075 271.032 86.144 270.581 89.4017" fill="#828C26"/>
</g>
<mask id="mask13_1318_60708" style="mask-type:luminance" maskUnits="userSpaceOnUse" x="168" y="-7" width="184" height="146">
<path fill-rule="evenodd" clip-rule="evenodd" d="M269.913 -6.59024L211.84 28.0253C208.192 30.2003 208.468 35.1283 212.346 37.0012V37.0012L221.905 41.6178C225.796 43.4973 226.058 48.4491 222.383 50.6119V50.6119L168.102 82.5408L280.845 136.992C287.324 140.121 295.348 137.925 298.766 132.086V132.086L349.503 45.4111C352.921 39.5718 350.438 32.3011 343.959 29.1719V29.1719" fill="white"/>
</mask>
<g mask="url(#mask13_1318_60708)">
<path fill-rule="evenodd" clip-rule="evenodd" d="M278.274 90.639C278.091 91.9653 276.752 92.8993 275.284 92.725C273.816 92.5503 272.775 91.3339 272.958 90.0073C273.141 88.681 274.48 87.747 275.947 87.9213C277.416 88.0959 278.457 89.313 278.274 90.639" fill="#517820"/>
</g>
<mask id="mask14_1318_60708" style="mask-type:luminance" maskUnits="userSpaceOnUse" x="168" y="-7" width="184" height="146">
<path fill-rule="evenodd" clip-rule="evenodd" d="M269.913 -6.59024L211.84 28.0253C208.192 30.2003 208.468 35.1283 212.346 37.0012V37.0012L221.905 41.6178C225.796 43.4973 226.058 48.4491 222.383 50.6119V50.6119L168.102 82.5408L280.845 136.992C287.324 140.121 295.348 137.925 298.766 132.086V132.086L349.503 45.4111C352.921 39.5718 350.438 32.3011 343.959 29.1719V29.1719L269.913 -6.59024Z" fill="white"/>
</mask>
<g mask="url(#mask14_1318_60708)">
<path fill-rule="evenodd" clip-rule="evenodd" d="M303.558 169.714L290.43 164.217L294.827 84.1925L303.435 84.3152L303.558 169.714Z" fill="#98AA30"/>
</g>
<mask id="mask15_1318_60708" style="mask-type:luminance" maskUnits="userSpaceOnUse" x="168" y="-7" width="184" height="146">
<path fill-rule="evenodd" clip-rule="evenodd" d="M269.913 -6.59024L211.84 28.0253C208.192 30.2003 208.468 35.1283 212.346 37.0012V37.0012L221.905 41.6178C225.796 43.4973 226.058 48.4491 222.383 50.6119V50.6119L168.102 82.5408L280.845 136.992C287.324 140.121 295.348 137.925 298.766 132.086V132.086L349.503 45.4111C352.921 39.5718 350.438 32.3011 343.959 29.1719V29.1719" fill="white"/>
</mask>
<g mask="url(#mask15_1318_60708)">
<path fill-rule="evenodd" clip-rule="evenodd" d="M228.997 106.271C228.997 106.271 231.414 90.1395 242.222 91.7029C253.03 93.2659 276.428 97.026 276.763 101.374C277.096 105.722 249.737 141.439 226.43 145.131C221.281 145.889 228.997 106.271 228.997 106.271" fill="white"/>
</g>
<mask id="mask16_1318_60708" style="mask-type:luminance" maskUnits="userSpaceOnUse" x="168" y="-7" width="184" height="146">
<path fill-rule="evenodd" clip-rule="evenodd" d="M269.913 -6.59024L211.84 28.0253C208.192 30.2003 208.468 35.1283 212.346 37.0012V37.0012L221.905 41.6178C225.796 43.4973 226.058 48.4491 222.383 50.6119V50.6119L168.102 82.5408L280.845 136.992C287.324 140.121 295.348 137.925 298.766 132.086V132.086L349.503 45.4111C352.921 39.5718 350.438 32.3011 343.959 29.1719V29.1719" fill="white"/>
</mask>
<g mask="url(#mask16_1318_60708)">
<path fill-rule="evenodd" clip-rule="evenodd" d="M246.176 84.3826C246.244 84.3906 246.313 84.4046 246.382 84.4252C246.968 84.6004 247.29 85.1706 247.101 85.7009C247.037 85.8766 240.837 103.497 246.829 112.041C248.61 114.579 251.234 116.022 254.855 116.453C258.767 116.918 262.173 116.068 264.98 113.926C273.358 107.536 274.103 91.8216 274.111 91.6629C274.134 91.1062 274.652 90.6747 275.268 90.6988C275.891 90.7095 276.365 91.1948 276.341 91.7515C276.313 92.4339 275.544 108.518 266.426 115.473C263.123 117.992 259.137 118.996 254.578 118.454C250.315 117.947 247.075 116.15 244.945 113.113C238.391 103.763 244.704 85.8258 244.977 85.0666C245.144 84.5987 245.654 84.3205 246.176 84.3826" fill="#594A42"/>
</g>
</g>
</g>
<defs>
<linearGradient id="paint0_linear_1318_60708" x1="335" y1="109" x2="-4.61898" y2="91.9374" gradientUnits="userSpaceOnUse">
<stop stop-color="#8C5898"/>
<stop offset="0.98" stop-color="#6768AB"/>
</linearGradient>
</defs>
</svg>
