<svg width="376" height="398" viewBox="0 0 376 398" fill="none" xmlns="http://www.w3.org/2000/svg">
<rect x="0.5" width="375" height="398" rx="5" fill="#E9ECF1"/>
<path d="M204.682 203.251L199.282 197.801C199.257 197.77 199.224 197.745 199.187 197.73C199.15 197.714 199.109 197.709 199.069 197.713C199.029 197.715 198.989 197.725 198.953 197.742C198.916 197.759 198.884 197.783 198.857 197.813L195.257 201.626C195.024 201.873 194.743 202.071 194.432 202.206C194.12 202.342 193.784 202.412 193.444 202.413C193.104 202.412 192.768 202.342 192.457 202.206C192.145 202.071 191.864 201.873 191.632 201.626L183.907 193.388C183.852 193.339 183.78 193.312 183.707 193.312C183.633 193.312 183.562 193.339 183.507 193.388L171.482 202.763L169.932 200.751L181.907 191.376C182.456 190.949 183.146 190.742 183.84 190.798C184.534 190.853 185.182 191.167 185.657 191.676L193.369 199.913L196.944 196.101C197.2 195.825 197.509 195.604 197.853 195.452C198.197 195.299 198.568 195.218 198.944 195.213C199.32 195.204 199.695 195.272 200.043 195.414C200.392 195.556 200.707 195.769 200.969 196.038L206.369 201.488L204.682 203.251Z" fill="#C0C9D8"/>
<path d="M202.006 216.75H174.306C173.007 216.75 171.76 216.234 170.841 215.315C169.922 214.396 169.406 213.15 169.406 211.85V184.15C169.406 182.85 169.922 181.604 170.841 180.685C171.76 179.766 173.007 179.25 174.306 179.25H202.006C203.306 179.25 204.552 179.766 205.471 180.685C206.39 181.604 206.906 182.85 206.906 184.15V211.85C206.906 213.15 206.39 214.396 205.471 215.315C204.552 216.234 203.306 216.75 202.006 216.75ZM174.306 181.75C173.67 181.75 173.059 182.003 172.609 182.453C172.159 182.903 171.906 183.513 171.906 184.15V211.85C171.906 212.165 171.968 212.477 172.089 212.768C172.21 213.06 172.386 213.324 172.609 213.547C172.832 213.77 173.097 213.947 173.388 214.067C173.679 214.188 173.991 214.25 174.306 214.25H202.006C202.321 214.25 202.634 214.188 202.925 214.067C203.216 213.947 203.48 213.77 203.703 213.547C203.926 213.324 204.103 213.06 204.224 212.768C204.344 212.477 204.406 212.165 204.406 211.85V184.15C204.406 183.835 204.344 183.523 204.224 183.232C204.103 182.94 203.926 182.676 203.703 182.453C203.48 182.23 203.216 182.053 202.925 181.933C202.634 181.812 202.321 181.75 202.006 181.75H174.306Z" fill="#C0C9D8"/>
<path d="M193.568 192.789C194.949 192.789 196.068 191.67 196.068 190.289C196.068 188.908 194.949 187.789 193.568 187.789C192.188 187.789 191.068 188.908 191.068 190.289C191.068 191.67 192.188 192.789 193.568 192.789Z" fill="#C0C9D8"/>
<path d="M170.656 202.373L182.569 192.786L184.769 192.523L191.981 200.223C191.981 200.223 193.231 201.936 194.294 200.761L197.881 196.948C197.881 196.948 198.594 195.386 200.119 196.948C201.644 198.511 205.656 203.623 205.656 203.623L205.569 212.661C205.569 212.661 205.194 215.498 201.519 215.498C197.844 215.498 174.019 215.111 174.019 215.111C174.019 215.111 170.656 215.936 170.656 211.848C170.656 207.761 170.656 202.373 170.656 202.373Z" fill="#C0C9D8"/>
</svg>
