<svg width="71" height="80" viewBox="0 0 71 80" fill="none" xmlns="http://www.w3.org/2000/svg">
<circle cx="34.3643" cy="46" r="33.5" fill="#A5A6F6" stroke="#E7E0EC"/>
<path d="M32.1174 66.9237C31.5106 66.9237 31.0186 66.4318 31.0186 65.8248V64.7266H38.7092L38.7093 65.8248C38.7093 66.4316 38.2173 66.9237 37.6105 66.9237H32.1174Z" fill="#59C3F0"/>
<path d="M38.7095 64.7266H37.0615L37.0617 65.8248C37.0617 66.4316 36.5697 66.9237 35.9629 66.9237H37.6108C38.2176 66.9237 38.7096 66.4316 38.7096 65.8248L38.7095 64.7266Z" fill="#21A0D6"/>
<path d="M31.0187 64.7266H32.6667L32.6665 65.8248C32.6665 66.4316 33.1583 66.9237 33.7653 66.9237H32.1174C31.5106 66.9237 31.0186 66.4316 31.0186 65.8248L31.0187 64.7266Z" fill="#96DCFA"/>
<path d="M33.7646 27.3742C33.7646 27.981 34.2565 28.473 34.8635 28.473C35.4703 28.473 35.9623 27.981 35.9623 27.3742V25.1769C35.9623 24.5701 35.4704 24.0781 34.8635 24.0781C34.2567 24.0781 33.7646 24.5701 33.7646 25.1769V27.3742Z" fill="#59C3F0"/>
<path d="M26.2306 29.9809C26.534 30.5065 27.206 30.6865 27.7314 30.3831C28.257 30.0797 28.437 29.4077 28.1336 28.8821L27.0349 26.9793C26.7316 26.4537 26.0595 26.2737 25.534 26.5771C25.0084 26.8805 24.8284 27.5525 25.1318 28.0779L26.2306 29.9809Z" fill="#59C3F0"/>
<path d="M21.0089 36.0086C21.5345 36.312 22.2065 36.132 22.5099 35.6064C22.8133 35.0808 22.6333 34.409 22.1077 34.1054L20.2049 33.0068C19.6793 32.7034 19.0074 32.8834 18.704 33.409C18.4006 33.9345 18.5806 34.6064 19.1062 34.9099L21.0089 36.0086Z" fill="#59C3F0"/>
<path d="M19.5002 43.8382C20.107 43.8382 20.599 43.3462 20.599 42.7394C20.599 42.1326 20.107 41.6406 19.5002 41.6406H17.3029C16.6961 41.6406 16.2041 42.1326 16.2041 42.7394C16.2041 43.3462 16.6961 43.8382 17.3029 43.8382H19.5002Z" fill="#59C3F0"/>
<path d="M22.108 51.3707C22.6336 51.0673 22.8136 50.3953 22.5102 49.8699C22.2068 49.3443 21.5348 49.1643 21.0092 49.4677L19.1062 50.5663C18.5806 50.8697 18.4006 51.5417 18.704 52.0672C19.0074 52.5927 19.6794 52.7727 20.205 52.4693L22.108 51.3707Z" fill="#59C3F0"/>
<path d="M48.7185 49.4677C48.1929 49.1643 47.5209 49.3443 47.2177 49.8699C46.9143 50.3955 47.0943 51.0673 47.6199 51.3707L49.5227 52.4693C50.0483 52.7727 50.7201 52.5927 51.0235 52.0672C51.3269 51.5416 51.1469 50.8696 50.6214 50.5663L48.7185 49.4677Z" fill="#59C3F0"/>
<path d="M50.2277 41.6406C49.6209 41.6406 49.1289 42.1325 49.1289 42.7394C49.1289 43.3462 49.6207 43.8382 50.2277 43.8382H52.425C53.0318 43.8382 53.5238 43.3462 53.5238 42.7394C53.5238 42.1326 53.032 41.6406 52.425 41.6406H50.2277Z" fill="#59C3F0"/>
<path d="M47.6199 34.1052C47.0943 34.4086 46.9143 35.0806 47.2177 35.6062C47.5211 36.1318 48.1931 36.3118 48.7185 36.0084L50.6215 34.9098C51.1471 34.6064 51.3271 33.9344 51.0237 33.409C50.7203 32.8834 50.0483 32.7034 49.5229 33.0068L47.6199 34.1052Z" fill="#59C3F0"/>
<path d="M41.5937 28.8819C41.2903 29.4075 41.4703 30.0795 41.9959 30.3829C42.5215 30.6863 43.1933 30.5063 43.4967 29.9807L44.5953 28.0779C44.8987 27.5523 44.7187 26.8805 44.1931 26.5771C43.6675 26.2737 42.9955 26.4537 42.6923 26.9793L41.5937 28.8819Z" fill="#59C3F0"/>
<path d="M40.3566 57.0391H29.3703L29.3701 63.631C29.3701 64.2378 29.8621 64.7298 30.4689 64.7298H39.258C39.8648 64.7298 40.3568 64.2378 40.3568 63.631L40.3566 57.0391Z" fill="white"/>
<path d="M40.3566 57.0391H38.1592L38.1594 63.631C38.1594 64.2378 37.6675 64.7298 37.0605 64.7298H39.258C39.8648 64.7298 40.3568 64.2378 40.3568 63.631L40.3566 57.0391Z" fill="#E6E7E8"/>
<path d="M35.4133 57.0391H33.2158L33.216 63.631C33.216 64.2378 32.724 64.7298 32.1172 64.7298H34.3146C34.9214 64.7298 35.4134 64.2378 35.4134 63.631L35.4133 57.0391Z" fill="white"/>
<path d="M29.3703 57.0391H31.5677L31.5676 63.631C31.5676 64.2378 32.0594 64.7298 32.6664 64.7298H30.4689C29.8621 64.7298 29.3701 64.2378 29.3701 63.631L29.3703 57.0391Z" fill="#E6E7E8"/>
<path d="M46.9317 42.7398C46.9317 36.0749 41.5287 30.6719 34.8638 30.6719C28.1989 30.6719 22.7959 36.0749 22.7959 42.7398C22.7959 47.4258 25.4678 51.4861 29.3703 53.4853V57.0392H30.4691H39.2582H40.357V53.4855C44.2597 51.4863 46.9317 47.4258 46.9317 42.7398Z" fill="#FCD64B"/>
<path d="M34.8643 30.6719C34.4939 30.6719 34.1276 30.6895 33.7656 30.7221C39.9155 31.2773 44.7349 36.4452 44.7349 42.7398C44.7349 47.4259 42.0629 51.4863 38.1602 53.4853V57.0391H37.0615H39.2588H40.3576V53.4853C44.2603 51.4863 46.9323 47.4258 46.9323 42.7398C46.9322 36.0749 41.5292 30.6719 34.8643 30.6719Z" fill="#F5AB33"/>
<path d="M34.855 30.6719C35.2254 30.6719 35.5917 30.6895 35.9537 30.7221C29.8038 31.2773 24.9844 36.4452 24.9844 42.7398C24.9844 47.4259 27.6564 51.4863 31.5591 53.4853V57.0391H32.6579H30.4607H29.3619V53.4853C25.4592 51.4863 22.7871 47.4258 22.7871 42.7398C22.7871 36.0749 28.1901 30.6719 34.855 30.6719Z" fill="#FFECA6"/>
<path d="M40.3566 58.1351C40.9634 58.1351 41.4554 57.6431 41.4554 57.0363C41.4554 56.4295 40.9636 55.9375 40.3566 55.9375H29.3703C28.7635 55.9375 28.2715 56.4295 28.2715 57.0363C28.2715 57.6431 28.7635 58.1351 29.3703 58.1351H40.3566Z" fill="#E6E7E8"/>
<path d="M40.3564 55.9375H38.1592C38.766 55.9375 39.258 56.4295 39.258 57.0363C39.258 57.6431 38.766 58.1351 38.1592 58.1351H40.3564C40.9632 58.1351 41.4553 57.6433 41.4553 57.0363C41.4553 56.4293 40.9634 55.9375 40.3564 55.9375Z" fill="#BCBEC0"/>
<path d="M29.3703 58.1351H31.5676C30.9608 58.1351 30.4688 57.6433 30.4688 57.0363C30.4688 56.4293 30.9608 55.9375 31.5676 55.9375H29.3703C28.7635 55.9375 28.2715 56.4295 28.2715 57.0363C28.2715 57.6431 28.7635 58.1351 29.3703 58.1351Z" fill="white"/>
<path d="M34.8638 29.0209C35.7724 29.0209 36.5117 28.2815 36.5117 27.3727V25.1755C36.5117 24.2667 35.7724 23.5273 34.8638 23.5273C33.955 23.5273 33.2158 24.2667 33.2158 25.1755V27.3727C33.2158 28.2815 33.955 29.0209 34.8638 29.0209ZM34.3145 25.1755C34.3145 24.8724 34.5609 24.626 34.8638 24.626C35.1666 24.626 35.4131 24.8724 35.4131 25.1755V27.3727C35.4131 27.6756 35.1666 27.9222 34.8638 27.9222C34.5609 27.9222 34.3145 27.6758 34.3145 27.3727V25.1755Z" fill="#402943"/>
<path d="M25.7545 30.2536C26.0595 30.7817 26.6144 31.0773 27.1846 31.0773C27.464 31.0773 27.747 31.0063 28.0059 30.8569C28.7929 30.4025 29.0636 29.3925 28.6092 28.6055L27.5105 26.7027C27.0561 25.9157 26.0465 25.645 25.2591 26.0994C24.4723 26.5538 24.2016 27.5638 24.656 28.3508L25.7545 30.2536ZM25.8084 27.0507C26.0707 26.8997 26.4075 26.9894 26.559 27.2518L27.6577 29.1546C27.8092 29.4169 27.719 29.7537 27.4566 29.9052C27.1943 30.0566 26.8573 29.9666 26.706 29.7041L25.6073 27.8011C25.4558 27.539 25.546 27.2022 25.8084 27.0507Z" fill="#402943"/>
<path d="M18.8315 35.3836L20.7344 36.4822C20.9884 36.629 21.2701 36.7037 21.5558 36.7037C21.6989 36.7037 21.843 36.6849 21.985 36.6469C22.4101 36.533 22.7655 36.2604 22.9858 35.8791C23.2058 35.4978 23.2644 35.0536 23.1505 34.6286C23.0366 34.2034 22.7638 33.8479 22.3825 33.6279L20.4796 32.5292C19.6923 32.0745 18.6826 32.3455 18.2282 33.1325C18.0082 33.5138 17.9498 33.9578 18.0637 34.383C18.1776 34.808 18.4503 35.1635 18.8315 35.3836ZM19.1797 33.6816C19.2813 33.5055 19.4664 33.4069 19.6565 33.4069C19.7496 33.4069 19.844 33.4306 19.9303 33.4804L21.8333 34.579C21.9604 34.6523 22.0513 34.771 22.0893 34.9126C22.1272 35.0543 22.1077 35.2025 22.0344 35.3296C21.961 35.4567 21.8425 35.5476 21.7008 35.5855C21.5591 35.6237 21.4111 35.6042 21.284 35.5307L19.3812 34.432C19.2541 34.3587 19.1632 34.2401 19.1251 34.0984C19.0869 33.9567 19.1064 33.8086 19.1797 33.6816Z" fill="#402943"/>
<path d="M21.1486 42.738C21.1486 41.8292 20.4093 41.0898 19.5007 41.0898H17.3034C16.3946 41.0898 15.6553 41.8292 15.6553 42.738C15.6553 43.6468 16.3946 44.3859 17.3034 44.3859H19.5007C20.4093 44.3859 21.1486 43.6468 21.1486 42.738ZM16.7537 42.738C16.7537 42.4351 17.0002 42.1885 17.3032 42.1885H19.5005C19.8034 42.1885 20.0498 42.4349 20.0498 42.738C20.0498 43.041 19.8034 43.2873 19.5005 43.2873H17.3032C17.0004 43.2873 16.7537 43.0408 16.7537 42.738Z" fill="#402943"/>
<path d="M21.985 48.8264C21.5598 48.7125 21.1158 48.7709 20.7344 48.9911L18.8315 50.0897C18.4503 50.3098 18.1776 50.6652 18.0637 51.0903C17.9498 51.5155 18.0082 51.9595 18.2282 52.3408C18.5332 52.869 19.0882 53.1645 19.6584 53.1645C19.9377 53.1645 20.2207 53.0935 20.4796 52.9441L22.3825 51.8454C22.7638 51.6254 23.0364 51.2699 23.1505 50.8449C23.2644 50.4197 23.206 49.9755 22.9858 49.5942C22.7655 49.2129 22.4101 48.9403 21.985 48.8264ZM22.0891 50.5605C22.0511 50.7022 21.9603 50.8208 21.833 50.8941L19.9302 51.9927C19.6681 52.1441 19.3311 52.0541 19.1797 51.7917C19.1064 51.6646 19.0869 51.5166 19.1249 51.3749C19.1629 51.233 19.2539 51.1145 19.3808 51.0412L21.2838 49.9426C21.3684 49.8936 21.4624 49.8688 21.5575 49.8688C21.6052 49.8688 21.6533 49.8751 21.7006 49.8878C21.8423 49.9257 21.9608 50.0166 22.0343 50.1437C22.1077 50.2708 22.1272 50.4188 22.0891 50.5605Z" fill="#402943"/>
<path d="M50.8961 50.0897L48.9933 48.991C48.6119 48.7708 48.1682 48.7126 47.7426 48.8263C47.3174 48.9402 46.962 49.2129 46.7421 49.5941C46.5218 49.9754 46.4635 50.4196 46.5774 50.8448C46.6913 51.27 46.9639 51.6253 47.3452 51.8454L49.2482 52.944C49.5022 53.0908 49.784 53.1655 50.0696 53.1655C50.2127 53.1655 50.3569 53.1467 50.4987 53.1085C50.9239 52.9946 51.2793 52.7218 51.4994 52.3405C51.7195 51.9593 51.778 51.5152 51.6641 51.0899C51.5501 50.6652 51.2774 50.3096 50.8961 50.0897ZM50.5479 51.7916C50.3966 52.0538 50.0598 52.1442 49.7973 51.9927L47.8945 50.894C47.7674 50.8207 47.6765 50.7021 47.6386 50.5604C47.6004 50.4187 47.6201 50.2707 47.6934 50.1436C47.7667 50.0165 47.8854 49.9257 48.027 49.8877C48.0743 49.875 48.1223 49.8689 48.1701 49.8689C48.2652 49.8689 48.3593 49.8938 48.4438 49.9427L50.3467 51.0413C50.4737 51.1146 50.5648 51.2333 50.6028 51.375C50.6407 51.5165 50.6212 51.6643 50.5479 51.7916Z" fill="#402943"/>
<path d="M52.4255 41.0898H50.2282C49.3194 41.0898 48.5801 41.8292 48.5801 42.738C48.5801 43.6468 49.3194 44.3859 50.2282 44.3859H52.4255C53.3343 44.3859 54.0736 43.6468 54.0736 42.738C54.0736 41.8294 53.3341 41.0898 52.4255 41.0898ZM52.4255 43.2873H50.2282C49.9252 43.2873 49.6787 43.0408 49.6787 42.738C49.6787 42.4351 49.9252 42.1885 50.2282 42.1885H52.4255C52.7283 42.1885 52.975 42.4349 52.975 42.738C52.975 43.041 52.7283 43.2873 52.4255 43.2873Z" fill="#402943"/>
<path d="M47.7426 36.6468C47.8846 36.6849 48.0287 36.7038 48.1718 36.7038C48.4575 36.7038 48.7392 36.6287 48.9931 36.4823L50.8959 35.3836C51.6829 34.9292 51.9536 33.9194 51.4992 33.1322C51.0448 32.3454 50.0349 32.0747 49.2479 32.5289L47.3451 33.6276C47.3451 33.6276 47.3451 33.6276 47.3449 33.6276C46.5581 34.0821 46.2876 35.092 46.742 35.879C46.9621 36.2601 47.3175 36.5329 47.7426 36.6468ZM47.8946 34.5791L49.7974 33.4804C50.0599 33.3291 50.3967 33.4195 50.548 33.6815C50.6994 33.9438 50.6092 34.2806 50.3469 34.4321L48.4441 35.5308C48.317 35.6041 48.169 35.6234 48.0273 35.5856C47.8855 35.5475 47.767 35.4568 47.6937 35.3297C47.542 35.0674 47.632 34.7306 47.8946 34.5791Z" fill="#402943"/>
<path d="M41.7215 30.8577C41.9753 31.0043 42.2571 31.0792 42.5428 31.0792C42.6859 31.0792 42.83 31.0602 42.972 31.0223C43.3972 30.9084 43.7525 30.6356 43.9726 30.2545L45.0712 28.3516C45.2915 27.9704 45.3498 27.5262 45.2359 27.1011C45.122 26.6759 44.8492 26.3205 44.4679 26.1004C44.0867 25.8801 43.6428 25.822 43.2172 25.9357C42.7922 26.0496 42.4366 26.3224 42.2167 26.7037L41.1181 28.6067C40.8978 28.988 40.8394 29.4322 40.9534 29.8572C41.0674 30.2822 41.3402 30.6377 41.7215 30.8577ZM42.0696 29.1557L43.1682 27.2528C43.2415 27.1257 43.3602 27.0347 43.5018 26.9967C43.5491 26.9839 43.5971 26.9777 43.6449 26.9777C43.74 26.9777 43.8341 27.0027 43.9186 27.0516C44.1809 27.2031 44.2712 27.5399 44.1199 27.8021L43.0212 29.7051C42.8697 29.9674 42.5331 30.0578 42.2708 29.9062C42.0084 29.7547 41.9182 29.4181 42.0696 29.1557Z" fill="#402943"/>
<path d="M47.4815 42.7344C47.4815 35.7773 41.8215 30.1172 34.8643 30.1172C27.9071 30.1172 22.2471 35.7772 22.2471 42.7344C22.2471 47.3794 24.7571 51.5926 28.8215 53.8107V55.4819C28.1825 55.709 27.723 56.3179 27.723 57.0337C27.723 57.7496 28.1827 58.3586 28.8218 58.5857V59.7806H28.7035C28.4001 59.7806 28.1542 60.0265 28.1542 60.3299C28.1542 60.6333 28.4001 60.8793 28.7035 60.8793H28.8218V61.9779H28.7037C28.4003 61.9779 28.1544 62.2238 28.1544 62.5272C28.1544 62.8306 28.4003 63.0765 28.7037 63.0765H28.8218V63.6257C28.8218 64.5345 29.5612 65.2738 30.4698 65.2738V65.8228C30.4698 66.7315 31.2091 67.4707 32.1179 67.4707H37.6112C38.52 67.4707 39.2594 66.7315 39.2594 65.8226V65.2738C40.168 65.2736 40.9071 64.5345 40.9071 63.6257V63.0765H41.0253C41.3287 63.0765 41.5746 62.8306 41.5746 62.5272C41.5746 62.2238 41.3287 61.9779 41.0253 61.9779H40.9071V60.8793H41.0254C41.3288 60.8793 41.5747 60.6333 41.5747 60.3299C41.5747 60.0265 41.3288 59.7806 41.0254 59.7806H40.9071V58.5858C41.5463 58.3589 42.0059 57.7498 42.0059 57.0339C42.0059 56.3179 41.5463 55.7088 40.9073 55.4819V53.8109C44.9708 51.5926 47.4815 47.3794 47.4815 42.7344ZM23.3457 42.7344C23.3457 36.3831 28.513 31.2158 34.8643 31.2158C41.2158 31.2158 46.3829 36.3831 46.3829 42.7344C46.3829 47.078 43.9782 51.0081 40.107 52.9911C39.9235 53.0851 39.808 53.2739 39.808 53.4801V55.3857H36.5122V46.5972H38.1602C39.069 46.5972 39.8083 45.8579 39.8083 44.9491C39.8083 44.0403 39.069 43.3011 38.1602 43.3011C37.2514 43.3011 36.5121 44.0403 36.5121 44.9491C36.5121 45.1419 36.5471 45.3263 36.6082 45.4986H33.1202C33.1814 45.3265 33.2163 45.1421 33.2163 44.9491C33.2163 44.0403 32.477 43.3011 31.5682 43.3011C30.6594 43.3011 29.9203 44.0403 29.9203 44.9491C29.9203 45.8579 30.6596 46.5972 31.5682 46.5972H33.2162V55.3857H29.9201V53.4799C29.9201 53.2737 29.8046 53.0849 29.6213 52.9911C25.7504 51.0079 23.3457 47.078 23.3457 42.7344ZM34.315 55.3857V46.5972H35.4136V55.3857H34.315ZM37.6109 44.9491C37.6109 44.646 37.8573 44.3998 38.1604 44.3998C38.4634 44.3998 38.7099 44.646 38.7099 44.9491C38.7099 45.252 38.4634 45.4986 38.1604 45.4986C37.8573 45.4984 37.6109 45.252 37.6109 44.9491ZM31.0189 44.9491C31.0189 44.646 31.2654 44.3998 31.5682 44.3998C31.8711 44.3998 32.1177 44.646 32.1177 44.9491C32.1177 45.252 31.8713 45.4986 31.5682 45.4986C31.2654 45.4984 31.0189 45.252 31.0189 44.9491ZM37.6109 66.3721H32.1175C31.8147 66.3721 31.568 66.1256 31.568 65.8228V65.2738H38.1602L38.1604 65.8228C38.1604 66.1256 37.9139 66.3721 37.6109 66.3721ZM39.8081 63.6257C39.8081 63.9287 39.5617 64.1752 39.2588 64.1752H38.7111C38.7106 64.1752 38.7102 64.175 38.7097 64.175H31.0189C31.0184 64.175 31.018 64.1752 31.0175 64.1752H30.4696C30.1665 64.1752 29.9201 63.9287 29.9201 63.6257V63.0765H39.808V63.6257H39.8081ZM39.8081 61.9779H29.9203V60.8793H39.8081V61.9779ZM29.9203 59.7806V58.6818H39.808V59.7806H29.9203ZM40.3575 57.5832H29.3711C29.0681 57.5832 28.8216 57.3367 28.8216 57.0337C28.8216 56.7306 29.0681 56.4842 29.3711 56.4842H33.762C33.7634 56.4842 33.7646 56.4846 33.7658 56.4846C33.7671 56.4846 33.7685 56.4842 33.7697 56.4842H35.9591C35.9605 56.4842 35.9617 56.4846 35.9629 56.4846C35.9642 56.4846 35.9656 56.4842 35.9668 56.4842H40.3573C40.6602 56.4842 40.9066 56.7306 40.9066 57.0337C40.9066 57.3367 40.6603 57.5832 40.3575 57.5832Z" fill="#402943"/>
<ellipse cx="56.2157" cy="14" rx="13.9628" ry="14" fill="#404040" fill-opacity="0.7"/>
</svg>
