<svg width="16" height="22" viewBox="0 0 16 22" fill="none" xmlns="http://www.w3.org/2000/svg">
<g clip-path="url(#clip0_2025_100712)">
<path d="M8.12682 0C4.45901 0 0.5 2.89162 0.5 7.5625C0.5 9.86769 1.42493 11.8071 3.20128 13.277C3.21973 13.2999 3.24118 13.3202 3.26507 13.3375C4.58312 14.7551 4.64968 15.0246 4.6587 15.6482C4.66286 15.895 4.66078 15.9679 4.6587 16.0078L4.65592 16.1514C4.64552 16.4622 4.62958 16.9826 5.27924 17.1793L10.8912 18.4037C10.9357 18.4133 10.9816 18.4142 11.0265 18.4063C11.0713 18.3983 11.1141 18.3817 11.1524 18.3573C11.1908 18.333 11.2239 18.3014 11.2499 18.2643C11.2759 18.2273 11.2943 18.1855 11.3041 18.1414C11.3138 18.0973 11.3147 18.0517 11.3067 18.0073C11.2987 17.9628 11.2819 17.9204 11.2573 17.8824C11.2328 17.8444 11.2009 17.8115 11.1635 17.7857C11.1262 17.7599 11.0841 17.7417 11.0396 17.732L5.45466 16.5144C5.34719 16.4821 5.33818 16.4794 5.34789 16.1721L5.34997 16.0408C5.34997 16.0408 5.3569 15.9871 5.35135 15.6379C5.33818 14.7654 5.14681 14.344 3.75041 12.8473C3.72378 12.8147 3.69135 12.7872 3.65473 12.7662C2.0212 11.3891 1.19335 9.63875 1.19335 7.5625C1.19335 3.31581 4.79182 0.6875 8.12682 0.6875C11.5353 0.6875 15.0603 3.25944 15.0603 7.5625C15.0603 10.2974 13.7235 11.8051 12.6211 12.7538C12.5826 12.7722 12.548 12.7976 12.5192 12.8287C11.1068 14.344 10.9155 14.7654 10.9023 15.6379V15.7087L10.9016 15.7328C10.8995 15.785 10.8919 15.8139 10.8926 15.8249C10.8655 15.8208 10.8385 15.8167 10.8115 15.8125L7.90287 15.1339C7.85853 15.1236 7.81257 15.122 7.76761 15.1293C7.72265 15.1366 7.67958 15.1526 7.64086 15.1763C7.60213 15.2001 7.56851 15.2312 7.54191 15.2679C7.51531 15.3046 7.49625 15.3461 7.48582 15.39C7.4754 15.434 7.47381 15.4796 7.48114 15.5242C7.48848 15.5687 7.5046 15.6114 7.52858 15.6498C7.55257 15.6882 7.58394 15.7216 7.62092 15.748C7.6579 15.7743 7.69975 15.7932 7.74409 15.8036L10.6173 16.4718C10.6555 16.4856 11.0007 16.5969 11.292 16.3941C11.4188 16.3054 11.5665 16.1315 11.5929 15.7987L11.5949 15.7664L11.5963 15.6984L11.5956 15.6805L11.5963 15.6489C11.6053 15.0287 11.6705 14.7593 12.9865 13.3416C12.9927 13.3368 12.9997 13.332 13.0052 13.3265C14.8544 11.7858 15.7536 9.9 15.7536 7.5625C15.7536 2.82906 11.8758 0 8.12682 0ZM10.9002 20.2812C10.9789 20.2814 11.0552 20.2549 11.1166 20.2061C11.178 20.1574 11.2208 20.0893 11.2379 20.0131C11.248 19.9691 11.2493 19.9235 11.2416 19.879C11.234 19.8345 11.2175 19.7919 11.1933 19.7538C11.169 19.7156 11.1373 19.6825 11.1001 19.6564C11.0629 19.6304 11.0209 19.6119 10.9765 19.602L5.4297 18.3549C5.34095 18.3371 5.24868 18.3544 5.17264 18.4031C5.0966 18.4519 5.04282 18.5282 5.0228 18.6158C5.00278 18.7034 5.01812 18.7952 5.06552 18.8717C5.11293 18.9482 5.18864 19.0033 5.27647 19.0252L10.8233 20.2723C10.8485 20.2783 10.8743 20.2813 10.9002 20.2812V20.2812ZM5.77568 20.3184C5.73061 20.3066 5.68359 20.3039 5.63745 20.3105C5.5913 20.3171 5.54698 20.3329 5.50713 20.3569C5.46727 20.3809 5.43271 20.4126 5.40551 20.4501C5.3783 20.4877 5.35901 20.5303 5.34879 20.5754C5.33858 20.6205 5.33764 20.6672 5.34604 20.7126C5.35444 20.7581 5.372 20.8014 5.39768 20.84C5.42336 20.8786 5.45662 20.9117 5.49548 20.9372C5.53434 20.9627 5.578 20.9803 5.62384 20.9887L10.1306 21.9911C10.1757 22.0029 10.2227 22.0056 10.2688 21.999C10.315 21.9923 10.3593 21.9766 10.3991 21.9526C10.439 21.9286 10.4736 21.8969 10.5008 21.8593C10.528 21.8218 10.5473 21.7792 10.5575 21.7341C10.5677 21.689 10.5686 21.6423 10.5602 21.5968C10.5518 21.5513 10.5343 21.508 10.5086 21.4694C10.4829 21.4308 10.4497 21.3978 10.4108 21.3722C10.3719 21.3467 10.3283 21.3292 10.2824 21.3207L5.77568 20.3184Z" fill="black"/>
</g>
<defs>
<clipPath id="clip0_2025_100712">
<rect width="15.2536" height="22" fill="white" transform="translate(0.5)"/>
</clipPath>
</defs>
</svg>
