<svg width="335" height="134" viewBox="0 0 335 134" fill="none" xmlns="http://www.w3.org/2000/svg">
<rect width="335" height="134" rx="12" fill="url(#paint0_linear_2085_86829)"/>
<mask id="mask0_2085_86829" style="mask-type:luminance" maskUnits="userSpaceOnUse" x="0" y="0" width="335" height="134">
<rect width="335" height="134" rx="12" fill="white"/>
</mask>
<g mask="url(#mask0_2085_86829)">
<g opacity="0.15">
<path fill-rule="evenodd" clip-rule="evenodd" d="M336.287 56.284L332.669 60.7575L332.91 66.785L327.96 64.3181L322.889 66.4162L323.449 60.4182L320.073 55.6871L325.369 54.4468L328.354 49.4254L331.066 54.657L336.287 56.284Z" fill="#026363"/>
<path fill-rule="evenodd" clip-rule="evenodd" d="M312.343 38.8499C311.379 40.8736 309.122 41.6387 307.301 40.5578C305.48 39.4764 304.785 36.9584 305.749 34.9347C306.713 32.9103 308.97 32.1459 310.792 33.2273C312.612 34.3083 313.307 36.8255 312.343 38.8499Z" fill="white"/>
<path fill-rule="evenodd" clip-rule="evenodd" d="M312 30.6892C311.689 30.505 311.572 30.0766 311.736 29.7316L314.562 23.7963C314.726 23.4514 315.11 23.3207 315.42 23.505C315.732 23.6897 315.849 24.1181 315.685 24.463L312.859 30.3983C312.695 30.7433 312.311 30.8739 312 30.6892Z" fill="white"/>
<path fill-rule="evenodd" clip-rule="evenodd" d="M320.23 44.3306L314.891 41.1606C314.581 40.9768 314.462 40.5475 314.626 40.2026C314.791 39.8568 315.176 39.7279 315.486 39.9117L320.825 43.0816C321.136 43.2663 321.254 43.6939 321.089 44.0397C320.925 44.3846 320.541 44.5153 320.23 44.3306Z" fill="white"/>
<path fill-rule="evenodd" clip-rule="evenodd" d="M302.672 50.2774C302.362 50.0932 302.244 49.6648 302.409 49.3198L305.234 43.3862C305.398 43.0412 305.782 42.9106 306.092 43.0949C306.403 43.2795 306.521 43.7079 306.357 44.0529L303.531 49.9865C303.367 50.3315 302.983 50.4621 302.672 50.2774Z" fill="white"/>
<path fill-rule="evenodd" clip-rule="evenodd" d="M302.606 33.8696L297.266 30.6993C296.957 30.5154 296.838 30.0866 297.002 29.7417C297.167 29.3959 297.551 29.2665 297.861 29.4503L303.201 32.6207C303.512 32.8054 303.63 33.233 303.465 33.5787C303.301 33.9237 302.917 34.0543 302.606 33.8696Z" fill="white"/>
<path fill-rule="evenodd" clip-rule="evenodd" d="M314.898 35.434C314.754 35.3486 314.64 35.2017 314.588 35.0146C314.484 34.6411 314.673 34.2453 315.008 34.1316L318.727 32.872C319.062 32.7591 319.417 32.9702 319.521 33.3436C319.623 33.7183 319.435 34.1133 319.1 34.2274L315.383 35.4867C315.215 35.5435 315.041 35.519 314.898 35.434Z" fill="white"/>
<path fill-rule="evenodd" clip-rule="evenodd" d="M311.786 48.5163C311.642 48.4313 311.527 48.284 311.476 48.0973L310.331 43.9524C310.229 43.5786 310.417 43.1835 310.752 43.0695C311.087 42.9558 311.443 43.1668 311.547 43.5415L312.691 47.686C312.794 48.0603 312.606 48.4561 312.27 48.569C312.103 48.6258 311.929 48.6018 311.786 48.5163Z" fill="white"/>
<path fill-rule="evenodd" clip-rule="evenodd" d="M298.882 40.8549C298.739 40.7699 298.624 40.6226 298.572 40.4355C298.468 40.062 298.657 39.6661 298.992 39.5525L302.71 38.2949C303.046 38.1812 303.402 38.3923 303.505 38.7665C303.607 39.1404 303.419 39.5354 303.084 39.6495L299.367 40.9075C299.199 40.9644 299.026 40.9403 298.882 40.8549Z" fill="white"/>
<path fill-rule="evenodd" clip-rule="evenodd" d="M306.856 30.6584C306.713 30.5734 306.598 30.4261 306.547 30.2394L305.402 26.0933C305.299 25.7194 305.487 25.3244 305.822 25.2095C306.158 25.0971 306.514 25.3081 306.617 25.6816L307.761 29.8281C307.865 30.2023 307.676 30.5982 307.341 30.711C307.173 30.7679 307 30.7438 306.856 30.6584Z" fill="white"/>
<path fill-rule="evenodd" clip-rule="evenodd" d="M225.14 47.3742C223.579 47.5732 222.164 46.3237 221.982 44.5852C221.797 42.8458 222.913 41.2762 224.473 41.0772C226.035 40.8799 227.449 42.1277 227.633 43.8671C227.816 45.606 226.7 47.1765 225.14 47.3742Z" fill="white"/>
<path fill-rule="evenodd" clip-rule="evenodd" d="M229.59 43.6172C229.558 43.3208 229.749 43.0537 230.014 43.0195L234.59 42.4382C234.856 42.4044 235.097 42.6169 235.129 42.9133C235.16 43.2108 234.97 43.4772 234.704 43.511L230.128 44.0922C229.862 44.126 229.621 43.9147 229.59 43.6172Z" fill="white"/>
<path fill-rule="evenodd" clip-rule="evenodd" d="M225.485 55.25L224.945 50.1515C224.915 49.8556 225.104 49.5876 225.371 49.5542C225.637 49.5196 225.877 49.7329 225.909 50.0293L226.448 55.1278C226.479 55.4237 226.289 55.6913 226.023 55.7251C225.757 55.7589 225.517 55.5468 225.485 55.25Z" fill="white"/>
<path fill-rule="evenodd" clip-rule="evenodd" d="M214.486 45.5346C214.454 45.2379 214.644 44.9707 214.91 44.9369L219.486 44.3561C219.751 44.3223 219.992 44.5348 220.024 44.8311C220.055 45.1274 219.865 45.3946 219.599 45.4288L215.024 46.0097C214.758 46.0435 214.517 45.831 214.486 45.5346Z" fill="white"/>
<path fill-rule="evenodd" clip-rule="evenodd" d="M223.704 38.422L223.165 33.3235C223.135 33.0267 223.324 32.7592 223.59 32.7254C223.856 32.6916 224.097 32.9049 224.128 33.2012L224.668 38.2997C224.699 38.5961 224.509 38.8636 224.243 38.897C223.978 38.9312 223.737 38.7187 223.704 38.422Z" fill="white"/>
<path fill-rule="evenodd" clip-rule="evenodd" d="M228.177 47.6905C228.163 47.5532 228.195 47.41 228.278 47.2933C228.444 47.0594 228.749 47.0214 228.959 47.2064L231.289 49.2634C231.499 49.4491 231.535 49.7886 231.369 50.0216C231.202 50.2555 230.898 50.2943 230.688 50.1085L228.359 48.052C228.253 47.9595 228.192 47.8286 228.177 47.6905Z" fill="white"/>
<path fill-rule="evenodd" clip-rule="evenodd" d="M219.448 51.1505C219.434 51.0136 219.466 50.8699 219.549 50.7532L221.387 48.1679C221.553 47.934 221.857 47.896 222.068 48.081C222.278 48.2667 222.314 48.6062 222.148 48.8405L220.31 51.425C220.145 51.6593 219.839 51.6977 219.629 51.5119C219.524 51.4195 219.463 51.2877 219.448 51.1505Z" fill="white"/>
<path fill-rule="evenodd" clip-rule="evenodd" d="M218.145 38.8274C218.131 38.6905 218.163 38.5469 218.246 38.4301C218.413 38.1967 218.717 38.1575 218.927 38.3437L221.255 40.4006C221.466 40.5868 221.502 40.9263 221.335 41.1589C221.17 41.3932 220.865 41.432 220.655 41.2462L218.326 39.1889C218.221 39.0956 218.16 38.9647 218.145 38.8274Z" fill="white"/>
<path fill-rule="evenodd" clip-rule="evenodd" d="M227.365 40.0107C227.35 39.8734 227.383 39.7302 227.466 39.6134L229.305 37.0277C229.47 36.7934 229.775 36.7555 229.985 36.9408C230.195 37.1266 230.231 37.4661 230.065 37.6999L228.227 40.2853C228.061 40.5196 227.756 40.5579 227.546 40.3722C227.441 40.2797 227.379 40.1488 227.365 40.0107Z" fill="white"/>
<path fill-rule="evenodd" clip-rule="evenodd" d="M254.821 18.8968C253.969 20.6862 251.973 21.3621 250.363 20.4063C248.752 19.45 248.139 17.225 248.991 15.4356C249.843 13.6462 251.838 12.9695 253.449 13.9257C255.058 14.8815 255.673 17.1074 254.821 18.8968Z" fill="white"/>
<path fill-rule="evenodd" clip-rule="evenodd" d="M254.516 11.6812C254.242 11.5185 254.137 11.1393 254.283 10.8339L256.781 5.58692C256.926 5.28236 257.266 5.1672 257.54 5.32988C257.815 5.493 257.92 5.87225 257.775 6.17681L255.276 11.4238C255.131 11.7292 254.791 11.8443 254.516 11.6812Z" fill="white"/>
<path fill-rule="evenodd" clip-rule="evenodd" d="M261.793 23.7447L257.073 20.9425C256.798 20.7793 256.693 20.4001 256.838 20.0955C256.984 19.7902 257.324 19.675 257.599 19.8381L262.318 22.6404C262.593 22.8035 262.698 23.1828 262.552 23.4881C262.407 23.7927 262.067 23.9079 261.793 23.7447Z" fill="white"/>
<path fill-rule="evenodd" clip-rule="evenodd" d="M246.269 29.0007C245.995 28.838 245.891 28.4588 246.036 28.1534L248.534 22.908C248.679 22.6027 249.019 22.4875 249.293 22.6502C249.568 22.8133 249.673 23.1926 249.527 23.4979L247.03 28.7433C246.884 29.0487 246.544 29.1638 246.269 29.0007Z" fill="white"/>
<path fill-rule="evenodd" clip-rule="evenodd" d="M246.212 14.4913L241.492 11.6886C241.217 11.5254 241.112 11.1462 241.257 10.8416C241.403 10.5363 241.743 10.4211 242.018 10.5842L246.738 13.3869C247.012 13.5496 247.117 13.9289 246.971 14.2342C246.826 14.5388 246.486 14.654 246.212 14.4913Z" fill="white"/>
<path fill-rule="evenodd" clip-rule="evenodd" d="M257.078 15.8749C256.951 15.7994 256.849 15.6698 256.804 15.5049C256.712 15.174 256.879 14.8242 257.176 14.7237L260.463 13.6101C260.759 13.5092 261.073 13.6961 261.165 14.027C261.256 14.3587 261.09 14.7077 260.793 14.8082L257.506 15.9218C257.358 15.9718 257.205 15.9504 257.078 15.8749Z" fill="white"/>
<path fill-rule="evenodd" clip-rule="evenodd" d="M254.327 27.4431C254.2 27.3676 254.098 27.2379 254.053 27.0731L253.041 23.4083C252.95 23.0774 253.116 22.7284 253.413 22.6271C253.71 22.5266 254.025 22.7135 254.115 23.0439L255.127 26.7088C255.218 27.0397 255.052 27.3895 254.755 27.4899C254.607 27.54 254.454 27.5186 254.327 27.4431Z" fill="white"/>
<path fill-rule="evenodd" clip-rule="evenodd" d="M242.919 20.671C242.792 20.5955 242.691 20.4658 242.645 20.301C242.554 19.9701 242.72 19.6203 243.017 19.5198L246.304 18.4074C246.6 18.3065 246.915 18.4934 247.006 18.8238C247.097 19.156 246.931 19.505 246.634 19.605L243.347 20.7178C243.199 20.7679 243.046 20.7465 242.919 20.671Z" fill="white"/>
<path fill-rule="evenodd" clip-rule="evenodd" d="M249.968 11.6548C249.841 11.5793 249.74 11.4497 249.695 11.2853L248.683 7.61922C248.592 7.28831 248.758 6.93932 249.055 6.83803C249.352 6.73755 249.666 6.9244 249.757 7.25488L250.768 10.9205C250.86 11.2518 250.694 11.6016 250.396 11.7017C250.248 11.7517 250.095 11.7304 249.968 11.6548Z" fill="white"/>
<path fill-rule="evenodd" clip-rule="evenodd" d="M216.893 95.5265C212.029 96.5362 207.336 92.96 206.412 87.539C205.486 82.1179 208.68 76.9045 213.543 75.8947C218.407 74.8854 223.099 78.462 224.024 83.8827C224.95 89.3033 221.757 94.5172 216.893 95.5265Z" fill="#FEBE10"/>
<path fill-rule="evenodd" clip-rule="evenodd" d="M221.369 84.6241C220.636 80.8654 217.279 78.296 213.887 78.8943C210.495 79.4942 208.332 83.0389 209.066 86.7981C209.8 90.5551 213.155 93.1257 216.547 92.5258C219.939 91.9275 222.102 88.382 221.369 84.6241ZM207.771 87.0265C206.884 82.4767 209.501 78.1859 213.607 77.4606C217.713 76.7349 221.776 79.8458 222.663 84.3952C223.551 88.9442 220.934 93.235 216.828 93.9607C212.721 94.6855 208.659 91.5756 207.771 87.0265Z" fill="#BA8000"/>
<path fill-rule="evenodd" clip-rule="evenodd" d="M211.109 85.9458L212.038 85.7525C211.977 85.2053 211.959 84.7561 211.984 84.4054C212.01 84.0542 212.041 83.7614 212.076 83.5285L213.609 83.2095L213.934 85.1092C213.778 85.141 213.668 85.1991 213.606 85.2845C213.543 85.3683 213.53 85.5203 213.567 85.739C213.599 85.9292 213.648 86.0585 213.714 86.1289C213.779 86.1984 213.863 86.2227 213.966 86.2012C214.039 86.1862 214.096 86.1404 214.14 86.0626C214.182 85.9852 214.222 85.8381 214.261 85.6217C214.333 85.1658 214.408 84.765 214.485 84.4178C214.561 84.0714 214.662 83.7758 214.787 83.5329C214.911 83.2896 215.071 83.0944 215.268 82.9459C215.464 82.7981 215.714 82.693 216.02 82.6296C216.272 82.5774 216.51 82.5673 216.732 82.6019C216.954 82.6364 217.16 82.7233 217.346 82.8628C217.534 83.0033 217.701 83.2033 217.85 83.4655C217.999 83.726 218.126 84.0596 218.233 84.4672L219.124 84.2822L219.317 85.4122L218.442 85.5944C218.471 85.8678 218.488 86.1121 218.49 86.3256C218.492 86.5403 218.485 86.738 218.471 86.9203C218.457 87.1018 218.437 87.2691 218.413 87.4237C218.388 87.577 218.358 87.706 218.322 87.8081L216.937 88.0963L216.627 86.2844C216.776 86.252 216.87 86.1856 216.909 86.0818C216.948 85.9785 216.956 85.8604 216.933 85.7286C216.901 85.5383 216.855 85.4067 216.797 85.3316C216.738 85.2573 216.656 85.2323 216.548 85.2541C216.459 85.2731 216.402 85.3304 216.377 85.4284C216.35 85.5263 216.326 85.6698 216.306 85.8585C216.264 86.2133 216.215 86.5498 216.157 86.8688C216.099 87.1867 216.009 87.4753 215.888 87.7326C215.766 87.9907 215.603 88.2079 215.397 88.3844C215.193 88.5614 214.924 88.6837 214.594 88.752C214.001 88.8755 213.508 88.7784 213.114 88.4609C212.72 88.1439 212.428 87.6172 212.238 86.8819L211.301 87.0758L211.109 85.9458Z" fill="#BA8000"/>
<path fill-rule="evenodd" clip-rule="evenodd" d="M241.582 88.9049C241.272 88.7211 241.091 88.3285 241.158 87.9249C241.16 87.9147 241.321 86.9449 241.385 85.3232C241.406 84.8182 241.789 84.4295 242.243 84.4534C242.695 84.478 243.048 84.9065 243.028 85.4127C242.958 87.176 242.782 88.2269 242.775 88.2705C242.691 88.7666 242.26 89.0912 241.815 88.9959C241.731 88.9783 241.654 88.9477 241.582 88.9049Z" fill="white"/>
<path fill-rule="evenodd" clip-rule="evenodd" d="M238.119 68.0632C237.98 67.9793 237.859 67.8517 237.775 67.6887C236.862 65.9184 235.794 64.2108 234.598 62.6112C234.302 62.2149 234.342 61.6477 234.688 61.3459C235.033 61.042 235.553 61.1173 235.85 61.5125C237.111 63.1986 238.237 65.0007 239.2 66.8679C239.429 67.3127 239.296 67.8568 238.902 68.0832C238.653 68.2269 238.359 68.2082 238.119 68.0632ZM241.636 79.9095C241.406 79.7701 241.232 79.5186 241.187 79.2172C240.885 77.2023 240.42 75.2051 239.806 73.2781C239.652 72.796 239.876 72.2891 240.309 72.1468C240.741 72.0052 241.216 72.2791 241.37 72.7612C242.017 74.7917 242.508 76.8964 242.825 79.0184C242.899 79.5182 242.594 79.9679 242.141 80.0217C241.963 80.0439 241.787 80.0008 241.636 79.9095Z" fill="white"/>
<path fill-rule="evenodd" clip-rule="evenodd" d="M230.988 58.3529C230.932 58.3201 230.879 58.2791 230.829 58.2309C230.24 57.652 229.611 57.0767 228.962 56.5213C228.601 56.2118 228.533 55.6362 228.809 55.2356C229.084 54.8354 229.601 54.7559 229.962 55.0703C230.64 55.6511 231.297 56.2526 231.914 56.8582C232.255 57.1938 232.289 57.7725 231.991 58.1515C231.734 58.4748 231.317 58.5484 230.988 58.3529Z" fill="white"/>
<path fill-rule="evenodd" clip-rule="evenodd" d="M261.033 85.9301C260.684 85.723 260.51 85.2597 260.639 84.8297C260.642 84.8199 260.921 83.8823 261.321 82.2494C261.44 81.7626 261.892 81.4762 262.331 81.6115C262.766 81.7426 263.027 82.2498 262.907 82.7383C262.495 84.4257 262.21 85.3759 262.198 85.4157C262.055 85.8952 261.589 86.152 261.159 85.99C261.114 85.9731 261.073 85.9534 261.033 85.9301Z" fill="white"/>
<path fill-rule="evenodd" clip-rule="evenodd" d="M262.217 38.7264C262.034 38.6157 261.884 38.4331 261.808 38.203C261.291 36.6256 260.702 35.0882 260.058 33.6315C259.854 33.171 260.021 32.6372 260.43 32.4385C260.84 32.2389 261.336 32.4501 261.54 32.9126C262.212 34.4313 262.825 36.0321 263.363 37.6715C263.52 38.1512 263.299 38.6583 262.87 38.8057C262.647 38.8815 262.413 38.8452 262.217 38.7264ZM264.267 48.4897C264.037 48.3502 263.862 48.0992 263.817 47.7984C263.566 46.1442 263.255 44.5121 262.89 42.9452C262.776 42.4517 263.043 41.9722 263.487 41.8731C263.932 41.7745 264.384 42.0948 264.498 42.5875C264.875 44.2063 265.196 45.8911 265.455 47.595C265.531 48.0953 265.226 48.5457 264.773 48.6024C264.594 48.6254 264.418 48.581 264.267 48.4897ZM264.869 58.4959C264.601 58.3339 264.414 58.0233 264.407 57.6725C264.369 56.0006 264.284 54.3373 264.151 52.728C264.109 52.2239 264.446 51.8001 264.905 51.7823C265.362 51.7644 265.768 52.1586 265.81 52.6627C265.946 54.3118 266.035 56.0165 266.072 57.7292C266.083 58.2331 265.719 58.6292 265.26 58.6132C265.12 58.6092 264.987 58.5672 264.869 58.4959ZM264.33 68.5124C264.031 68.3316 263.838 67.9694 263.87 67.5854C264.005 65.9368 264.1 64.2773 264.152 62.6508C264.169 62.1487 264.555 61.7767 265.017 61.8218C265.48 61.8659 265.839 62.3117 265.823 62.8156C265.769 64.4742 265.672 66.1663 265.534 67.8478C265.493 68.3485 265.087 68.6953 264.628 68.6229C264.52 68.606 264.42 68.5671 264.33 68.5124ZM262.853 78.4113C262.526 78.2134 262.332 77.8022 262.404 77.3937C262.686 75.7924 262.934 74.156 263.144 72.5301C263.208 72.0319 263.632 71.7093 264.09 71.8066C264.55 71.9025 264.867 72.3868 264.803 72.883C264.59 74.5373 264.336 76.2045 264.05 77.8346C263.964 78.3254 263.524 78.6254 263.07 78.5045C262.993 78.4832 262.921 78.452 262.853 78.4113Z" fill="white"/>
<path fill-rule="evenodd" clip-rule="evenodd" d="M258.318 29.6534C258.195 29.58 258.086 29.4706 258.007 29.3286C257.581 28.5689 257.127 27.8194 256.657 27.1002C256.389 26.6915 256.47 26.1187 256.837 25.8216C257.204 25.5246 257.72 25.6183 257.986 26.027C258.478 26.7804 258.954 27.5666 259.401 28.3634C259.641 28.7922 259.525 29.3573 259.14 29.624C258.882 29.8026 258.569 29.8023 258.318 29.6534Z" fill="white"/>
<path fill-rule="evenodd" clip-rule="evenodd" d="M277.184 90.5195C276.878 90.3378 276.697 89.9526 276.759 89.5529C276.764 89.5117 276.919 88.5216 277.258 86.8217C277.358 86.3286 277.796 86.0189 278.241 86.1305C278.683 86.2466 278.963 86.7324 278.864 87.2259C278.533 88.8782 278.38 89.8609 278.379 89.8708C278.302 90.3687 277.877 90.7009 277.43 90.6137C277.341 90.5963 277.26 90.5643 277.184 90.5195Z" fill="white"/>
<path fill-rule="evenodd" clip-rule="evenodd" d="M290.088 55.2178C290.05 55.1951 290.014 55.1687 289.979 55.1397C289.6 54.8257 289.507 54.2487 289.774 53.8503C290.717 52.4425 291.706 51.1259 292.716 49.9384C293.022 49.578 293.553 49.569 293.901 49.929C294.249 50.2847 294.281 50.8656 293.975 51.2277C293.007 52.3675 292.056 53.6322 291.148 54.9867C290.906 55.3488 290.453 55.4382 290.088 55.2178ZM285.305 63.8864C284.891 63.6375 284.719 63.0807 284.921 62.6389C285.039 62.382 285.157 62.1271 285.277 61.8716C285.877 60.5929 286.505 59.354 287.143 58.1894C287.377 57.7627 287.894 57.6555 288.298 57.9216C288.701 58.1992 288.839 58.7704 288.606 59.1964C287.985 60.3303 287.374 61.536 286.789 62.7818C286.672 63.0309 286.556 63.2818 286.442 63.5316C286.239 63.9765 285.734 64.1383 285.313 63.8914L285.305 63.8864ZM281.633 73.1928C281.259 72.9678 281.072 72.4775 281.214 72.0444C281.742 70.4212 282.303 68.8311 282.885 67.3177C283.061 66.8587 283.553 66.6632 283.984 66.8808C284.416 67.0903 284.62 67.6481 284.445 68.1073C283.874 69.5908 283.323 71.1503 282.805 72.7429C282.652 73.2131 282.172 73.4376 281.732 73.2445C281.698 73.229 281.665 73.2123 281.633 73.1928ZM278.831 82.8744C278.487 82.6666 278.295 82.226 278.391 81.8075C278.767 80.1669 279.181 78.5223 279.622 76.9178C279.753 76.4398 280.221 76.19 280.666 76.3601C281.109 76.5252 281.364 77.0552 281.233 77.5332C280.799 79.1127 280.392 80.7314 280.022 82.3448C279.91 82.8298 279.456 83.1024 279.005 82.9538C278.943 82.9338 278.885 82.907 278.831 82.8744Z" fill="white"/>
<path fill-rule="evenodd" clip-rule="evenodd" d="M296.304 47.8634C296.21 47.8077 296.124 47.7318 296.053 47.6333C295.765 47.2408 295.817 46.6643 296.168 46.3454C296.83 45.7434 297.513 45.1768 298.197 44.6577C298.571 44.3732 299.083 44.4836 299.34 44.901C299.595 45.3192 299.5 45.8895 299.126 46.1728C298.481 46.6623 297.837 47.1981 297.211 47.7664C296.946 48.0064 296.588 48.0321 296.304 47.8634Z" fill="white"/>
<path fill-rule="evenodd" clip-rule="evenodd" d="M306.181 68.0909C306.181 68.0909 311.312 58.4576 317.989 56.07L320.907 58.9132L320.06 64.1504C320.06 64.1504 311.976 62.4488 306.181 68.0909Z" fill="#026363"/>
<path fill-rule="evenodd" clip-rule="evenodd" d="M283.394 18.5956L280.223 23.1152L275.107 23.8519L277.998 28.6252L277.065 34.274L282.023 32.7034L286.562 35.4592L286.736 29.7152L290.474 25.7689L285.622 23.7898L283.394 18.5956Z" fill="#026363"/>
<path fill-rule="evenodd" clip-rule="evenodd" d="M276.273 52.6892C276.273 52.6892 283.902 45.3954 284.861 37.653L281.845 34.9404L277.363 36.7732C277.363 36.7732 280.259 45.3548 276.273 52.6892Z" fill="#026363"/>
<path fill-rule="evenodd" clip-rule="evenodd" d="M289.811 94.0981C291.135 76.7138 313.969 86.2062 315.293 68.8219C311.309 63.8441 307.327 58.8671 303.343 53.8897C302.019 71.2736 279.185 61.7816 277.861 79.1667C281.844 84.1433 285.828 89.1212 289.811 94.0981Z" fill="#8CC53F"/>
<path fill-rule="evenodd" clip-rule="evenodd" d="M304.397 61.4143C300.456 71.3586 284.957 67.1547 281.015 77.0985C283.595 80.2574 286.176 83.4163 288.756 86.5765C292.697 76.6309 308.196 80.8361 312.138 70.8922C309.558 67.7325 306.978 64.5736 304.397 61.4143ZM279.807 77.4417C283.007 65.3756 300.847 71.2305 304.047 59.1636C307.147 62.9588 310.247 66.7535 313.347 70.5483C310.146 82.6147 292.307 76.7602 289.106 88.8267C286.006 85.0319 282.906 81.2372 279.807 77.4417Z" fill="#517820"/>
<path fill-rule="evenodd" clip-rule="evenodd" d="M292.121 75.5811C293.688 77.5398 296.905 78.3546 299.433 77.5599C301.961 76.7656 302.619 74.3858 301.033 72.4027C299.465 70.4436 296.249 69.6292 293.721 70.4227C291.192 71.2166 290.533 73.598 292.121 75.5811Z" fill="#517820"/>
<path fill-rule="evenodd" clip-rule="evenodd" d="M269.232 87.3733L268.295 68.8333L278.096 68.758L269.232 87.3733Z" fill="#026363"/>
<path fill-rule="evenodd" clip-rule="evenodd" d="M219.878 111.534L203.844 116.541L201.597 105.907L219.878 111.534Z" fill="#026363"/>
<path fill-rule="evenodd" clip-rule="evenodd" d="M295.169 98.985L309.335 89.2617L314.115 98.8099L295.169 98.985Z" fill="#026363"/>
<path fill-rule="evenodd" clip-rule="evenodd" d="M314.647 101.714C309.783 102.724 305.09 99.1476 304.165 93.7261C303.24 88.3055 306.434 83.0921 311.297 82.0823C316.161 81.073 320.853 84.6496 321.779 90.0703C322.704 95.4909 319.511 100.705 314.647 101.714Z" fill="#FEBE10"/>
<path fill-rule="evenodd" clip-rule="evenodd" d="M319.123 90.8116C318.39 87.0529 315.033 84.4835 311.641 85.0818C308.249 85.6817 306.086 89.2265 306.82 92.9856C307.552 96.743 310.909 99.3132 314.301 98.7133C317.693 98.115 319.856 94.5695 319.123 90.8116ZM305.525 93.214C304.638 88.6642 307.255 84.3734 311.361 83.6481C315.467 82.9224 319.53 86.0333 320.417 90.5831C321.305 95.1317 318.688 99.4225 314.582 100.148C310.474 100.873 306.413 97.7631 305.525 93.214Z" fill="#BA8000"/>
<path fill-rule="evenodd" clip-rule="evenodd" d="M308.863 92.1368L309.792 91.9435C309.731 91.3963 309.713 90.9472 309.738 90.5964C309.764 90.2453 309.794 89.9532 309.83 89.7196L311.362 89.4013L311.688 91.3002C311.532 91.332 311.422 91.3902 311.36 91.4756C311.296 91.5601 311.284 91.7113 311.321 91.93C311.353 92.1202 311.402 92.2495 311.468 92.3199C311.533 92.3895 311.617 92.4137 311.721 92.3923C311.794 92.3777 311.85 92.3314 311.894 92.2536C311.936 92.1763 311.976 92.0292 312.015 91.8136C312.087 91.3569 312.162 90.9568 312.239 90.6088C312.315 90.2625 312.415 89.9676 312.541 89.7239C312.665 89.4806 312.825 89.2855 313.022 89.1369C313.218 88.9892 313.468 88.884 313.774 88.8207C314.026 88.7684 314.264 88.7584 314.486 88.7929C314.708 88.8274 314.914 88.9143 315.1 89.0547C315.288 89.1943 315.455 89.3952 315.604 89.6565C315.753 89.917 315.88 90.2507 315.987 90.6583L316.878 90.4732L317.07 91.604L316.196 91.7855C316.226 92.0588 316.242 92.3031 316.244 92.5166C316.246 92.7313 316.239 92.929 316.225 93.1113C316.211 93.2928 316.191 93.4602 316.167 93.6147C316.142 93.7689 316.112 93.897 316.076 94L314.691 94.2874L314.381 92.4754C314.53 92.443 314.625 92.3766 314.663 92.2729C314.702 92.1696 314.71 92.0522 314.687 91.9196C314.655 91.7302 314.609 91.5977 314.551 91.5226C314.493 91.4488 314.41 91.4233 314.302 91.4451C314.213 91.4642 314.156 91.5214 314.131 91.6194C314.104 91.7173 314.08 91.8608 314.06 92.0495C314.018 92.4043 313.969 92.7408 313.911 93.0599C313.853 93.3777 313.763 93.6663 313.642 93.9236C313.52 94.1818 313.357 94.3989 313.151 94.5755C312.947 94.7525 312.678 94.8747 312.348 94.943C311.755 95.0666 311.262 94.9694 310.868 94.652C310.474 94.3349 310.182 93.8083 309.993 93.0729L309.056 93.2668L308.863 92.1368Z" fill="#BA8000"/>
<path fill-rule="evenodd" clip-rule="evenodd" d="M237.568 84.2426L228.397 71.6328L224.889 79.0004L237.568 84.2426Z" fill="#026363"/>
<path fill-rule="evenodd" clip-rule="evenodd" d="M241.047 77.9882C253.214 67.0417 233.397 51.2104 245.563 40.2635C251.487 41.1681 257.409 42.0723 263.332 42.9761C251.166 53.9235 270.982 69.7539 258.815 80.7008C252.893 79.7966 246.97 78.8924 241.047 77.9882Z" fill="#8CC53F"/>
<path fill-rule="evenodd" clip-rule="evenodd" d="M245.749 44.0707C240.708 53.3496 252.438 65.6184 247.397 74.8974C251.141 75.5641 254.886 76.2317 258.631 76.8997C263.672 67.6207 251.942 55.3519 256.983 46.073C253.239 45.4062 249.494 44.7387 245.749 44.0707ZM245.561 75.8257C252.563 66.0589 238.322 52.5061 245.324 42.7389C249.823 43.5411 254.32 44.3424 258.819 45.1442C251.817 54.9115 266.058 68.4634 259.057 78.2307C254.558 77.4285 250.059 76.6275 245.561 75.8257Z" fill="#517820"/>
<path fill-rule="evenodd" clip-rule="evenodd" d="M253.502 65.4974C251.171 65.1414 248.767 62.6188 247.943 59.8356C247.119 57.0507 248.518 55.1098 250.877 55.469C253.208 55.8258 255.612 58.3476 256.436 61.1321C257.26 63.9157 255.861 65.8579 253.502 65.4974Z" fill="#517820"/>
<path fill-rule="evenodd" clip-rule="evenodd" d="M324.325 81.5198C323.604 83.0353 321.913 83.6077 320.55 82.7982C319.186 81.9886 318.666 80.1035 319.388 78.588C320.109 77.0725 321.8 76.5001 323.163 77.3096C324.527 78.1192 325.047 80.0042 324.325 81.5198Z" fill="white"/>
<path fill-rule="evenodd" clip-rule="evenodd" d="M324.067 75.4106C323.835 75.2729 323.746 74.9515 323.869 74.693L325.985 70.249C326.108 69.9905 326.397 69.8934 326.629 70.0311C326.861 70.1692 326.95 70.4902 326.827 70.7487L324.711 75.1927C324.588 75.4512 324.3 75.5487 324.067 75.4106Z" fill="white"/>
<path fill-rule="evenodd" clip-rule="evenodd" d="M330.231 85.6255L326.233 83.2517C326.001 83.1137 325.912 82.7927 326.035 82.5342C326.158 82.2756 326.446 82.1782 326.679 82.3163L330.677 84.69C330.908 84.8277 330.997 85.1487 330.874 85.4072C330.751 85.6657 330.463 85.7632 330.231 85.6255Z" fill="white"/>
<path fill-rule="evenodd" clip-rule="evenodd" d="M317.083 90.0777C316.852 89.9401 316.762 89.6186 316.885 89.3601L319.001 84.917C319.124 84.6585 319.413 84.5614 319.644 84.6991C319.877 84.8372 319.966 85.1582 319.843 85.4167L317.727 89.8598C317.604 90.1183 317.316 90.2158 317.083 90.0777Z" fill="white"/>
<path fill-rule="evenodd" clip-rule="evenodd" d="M317.034 77.7896L313.036 75.4158C312.803 75.2777 312.715 74.9567 312.838 74.6982C312.961 74.4397 313.249 74.3422 313.481 74.4803L317.479 76.8541C317.712 76.9922 317.801 77.3132 317.677 77.5717C317.554 77.8302 317.266 77.9277 317.034 77.7896Z" fill="white"/>
<path fill-rule="evenodd" clip-rule="evenodd" d="M326.237 78.9631C326.13 78.8997 326.044 78.7893 326.005 78.6501C325.928 78.3692 326.068 78.0735 326.32 77.9885L329.104 77.0449C329.355 76.9595 329.621 77.1178 329.699 77.3979C329.776 77.6788 329.635 77.9745 329.384 78.0595L326.6 79.0035C326.475 79.0452 326.344 79.027 326.237 78.9631Z" fill="white"/>
<path fill-rule="evenodd" clip-rule="evenodd" d="M323.908 88.7612C323.8 88.6973 323.713 88.5878 323.676 88.4482L322.818 85.3444C322.741 85.0643 322.882 84.7678 323.133 84.6827C323.384 84.5977 323.651 84.756 323.728 85.0361L324.585 88.1395C324.662 88.4196 324.522 88.7153 324.27 88.8012C324.144 88.8437 324.015 88.8251 323.908 88.7612Z" fill="white"/>
<path fill-rule="evenodd" clip-rule="evenodd" d="M314.246 83.0243C314.138 82.9604 314.052 82.8509 314.014 82.7113C313.936 82.43 314.077 82.1343 314.329 82.0497L317.112 81.1073C317.363 81.0223 317.63 81.1806 317.707 81.4607C317.784 81.7408 317.643 82.0373 317.392 82.1224L314.608 83.0643C314.483 83.1068 314.353 83.0877 314.246 83.0243Z" fill="white"/>
<path fill-rule="evenodd" clip-rule="evenodd" d="M320.215 75.3877C320.109 75.3243 320.022 75.2139 319.983 75.0747L319.127 71.9697C319.049 71.6892 319.19 71.3935 319.442 71.3081C319.693 71.2226 319.96 71.3809 320.037 71.661L320.893 74.7665C320.971 75.0466 320.83 75.3422 320.578 75.4281C320.453 75.4698 320.323 75.4516 320.215 75.3877Z" fill="white"/>
<path fill-rule="evenodd" clip-rule="evenodd" d="M293.487 97.7857L293.486 97.7853C293.186 97.6062 293.072 97.191 293.231 96.8566C293.244 96.8283 293.571 96.1465 294.188 95.0486C294.368 94.7279 294.749 94.6267 295.036 94.8332C295.325 95.0349 295.412 95.4586 295.233 95.779C294.641 96.8317 294.322 97.4982 294.319 97.5046C294.159 97.8378 293.787 97.9639 293.487 97.7857Z" fill="white"/>
<path fill-rule="evenodd" clip-rule="evenodd" d="M306.368 82.408C306.265 82.3454 306.175 82.2515 306.112 82.1319C305.936 81.797 306.033 81.3848 306.329 81.2104C307.393 80.5821 308.481 80.0724 309.563 79.6979C309.885 79.5855 310.242 79.7865 310.362 80.1466C310.482 80.5067 310.319 80.8886 309.996 81.0001C308.985 81.3511 307.965 81.8286 306.965 82.4202C306.775 82.5313 306.551 82.5187 306.368 82.408ZM300.893 87.0282C300.834 86.9924 300.78 86.9484 300.731 86.8924C300.486 86.6116 300.484 86.178 300.726 85.9242C301.592 85.0188 302.483 84.1872 303.372 83.4553C303.641 83.2337 304.035 83.3044 304.254 83.6111C304.471 83.9181 304.429 84.347 304.159 84.5682C303.305 85.2714 302.45 86.0683 301.617 86.9397C301.422 87.1443 301.128 87.1702 300.893 87.0282ZM296.378 92.8178C296.35 92.801 296.324 92.7818 296.298 92.7602C296.013 92.5267 295.943 92.0939 296.142 91.794C296.834 90.7535 297.559 89.7501 298.299 88.8128C298.518 88.5334 298.918 88.5151 299.184 88.7709C299.452 89.0293 299.491 89.4636 299.27 89.7433C298.552 90.6543 297.846 91.6293 297.173 92.6426C296.993 92.9141 296.652 92.9829 296.378 92.8178Z" fill="white"/>
<path fill-rule="evenodd" clip-rule="evenodd" d="M312.856 80.0634C312.682 79.9603 312.555 79.7664 312.532 79.533C312.493 79.1565 312.736 78.8172 313.074 78.7766C313.714 78.6995 314.361 78.6656 314.996 78.6782C315.337 78.6827 315.608 78.996 315.604 79.3749C315.599 79.7533 315.321 80.0555 314.98 80.0489C314.396 80.038 313.802 80.0685 313.212 80.1401C313.084 80.1555 312.962 80.1264 312.856 80.0634Z" fill="white"/>
<path fill-rule="evenodd" clip-rule="evenodd" d="M287.733 53.3428C287.797 59.0314 283.709 63.6816 278.603 63.7315C273.496 63.781 269.305 59.2107 269.241 53.5222C269.176 47.8332 273.264 43.183 278.371 43.1331C283.478 43.0836 287.67 47.6543 287.733 53.3428Z" fill="#FEBE10"/>
<path fill-rule="evenodd" clip-rule="evenodd" d="M278.243 46.3108C274.666 46.2432 271.865 49.3815 271.999 53.3059C272.133 57.2303 275.153 60.4792 278.73 60.5468C282.307 60.6151 285.108 57.4769 284.975 53.5517C284.841 49.6273 281.82 46.3784 278.243 46.3108ZM278.781 62.0447C274.451 61.9634 270.797 58.0312 270.633 53.2798C270.471 48.5289 273.862 44.7308 278.192 44.8129C282.522 44.8949 286.176 48.8264 286.34 53.5777C286.502 58.3294 283.112 62.128 278.781 62.0447Z" fill="#BA8000"/>
<path fill-rule="evenodd" clip-rule="evenodd" d="M277.978 58.1219L277.966 57.035C277.455 57.0033 277.043 56.9417 276.728 56.8478C276.412 56.7548 276.15 56.6666 275.944 56.5834L275.924 54.7904L277.713 54.7728C277.715 54.9544 277.749 55.0893 277.814 55.1749C277.881 55.2621 278.016 55.3043 278.222 55.3023C278.402 55.3011 278.528 55.2705 278.603 55.2092C278.679 55.1472 278.716 55.0565 278.714 54.9352C278.713 54.8508 278.681 54.7777 278.619 54.7148C278.555 54.6522 278.428 54.58 278.238 54.4969C277.835 54.3311 277.482 54.1726 277.179 54.0218C276.876 53.8709 276.625 53.7032 276.426 53.5173C276.226 53.3323 276.075 53.1143 275.975 52.8655C275.875 52.6155 275.824 52.3132 275.818 51.9558C275.815 51.6607 275.848 51.3901 275.92 51.1456C275.99 50.9002 276.105 50.6845 276.266 50.4984C276.426 50.3127 276.639 50.1589 276.903 50.0394C277.167 49.9191 277.494 49.8359 277.885 49.7899L277.873 48.7489L278.937 48.7382L278.949 49.7608C279.204 49.7774 279.429 49.8035 279.625 49.8409C279.821 49.8787 279.999 49.9222 280.164 49.9722C280.327 50.0213 280.476 50.0746 280.612 50.1307C280.748 50.1864 280.86 50.2447 280.947 50.3026L280.965 51.9247L279.258 51.9411C279.257 51.7661 279.212 51.6476 279.125 51.5851C279.037 51.5219 278.93 51.4916 278.806 51.4924C278.627 51.494 278.499 51.5213 278.421 51.5734C278.343 51.6256 278.304 51.7145 278.306 51.8412C278.306 51.9448 278.35 52.0195 278.434 52.0671C278.519 52.1147 278.646 52.1681 278.814 52.2268C279.129 52.3383 279.428 52.4554 279.708 52.5794C279.989 52.7037 280.236 52.8587 280.45 53.0437C280.663 53.2291 280.833 53.4542 280.957 53.7177C281.083 53.9829 281.147 54.3081 281.151 54.6949C281.16 55.3892 280.984 55.9293 280.625 56.3163C280.265 56.7037 279.734 56.9365 279.03 57.0161L279.043 58.1116L277.978 58.1219Z" fill="#BA8000"/>
<mask id="mask1_2085_86829" style="mask-type:luminance" maskUnits="userSpaceOnUse" x="168" y="-9" width="184" height="180">
<path fill-rule="evenodd" clip-rule="evenodd" d="M269.912 -8.10258L211.839 34.4522C208.191 37.1261 208.467 43.1845 212.345 45.4869L221.904 51.1623C225.795 53.4729 226.057 59.5605 222.382 62.2192L168.101 101.471L280.844 168.411C287.323 172.258 295.347 169.558 298.765 162.38L349.502 55.8257C352.92 48.6471 350.437 39.7088 343.958 35.8619L269.912 -8.10258Z" fill="white"/>
</mask>
<g mask="url(#mask1_2085_86829)">
<path fill-rule="evenodd" clip-rule="evenodd" d="M303.435 103.653C303.435 103.653 302.779 100.323 301.249 100.049C296.352 99.1705 295.564 101.308 290.718 100.121C285.872 98.9339 286.711 96.4859 281.865 95.2991C277.022 94.1119 276.184 96.5594 271.341 95.3727C266.497 94.1867 267.335 91.7383 262.491 90.5507C257.648 89.3647 256.809 91.8127 251.967 90.6259C247.126 89.44 247.826 88.2221 242.984 87.0357L239.298 87.9737L234.505 88.4667L238.718 98.9806L284.459 110.48L292.574 104.328L294.826 103.503L303.435 103.653Z" fill="#517820"/>
</g>
<mask id="mask2_2085_86829" style="mask-type:luminance" maskUnits="userSpaceOnUse" x="168" y="-9" width="184" height="180">
<path fill-rule="evenodd" clip-rule="evenodd" d="M269.912 -8.10258L211.839 34.4522C208.191 37.1261 208.467 43.1845 212.345 45.4869L221.904 51.1623C225.795 53.4729 226.057 59.5605 222.382 62.2192L168.101 101.471L280.844 168.411C287.323 172.258 295.347 169.558 298.765 162.38L349.502 55.8257C352.92 48.6471 350.437 39.7088 343.958 35.8619L269.912 -8.10258Z" fill="white"/>
</mask>
<g mask="url(#mask2_2085_86829)">
<path fill-rule="evenodd" clip-rule="evenodd" d="M210.679 192.541L279.539 218.082L292.575 104.328C287.733 103.006 286.695 107.825 281.853 106.503C277.012 105.18 278.05 100.361 273.209 99.0386C268.371 97.717 267.332 102.537 262.495 101.215C257.655 99.8931 258.694 95.0744 253.854 93.7526C249.016 92.4305 247.978 97.2497 243.14 95.928C238.303 94.6076 239.342 89.788 234.505 88.4668L210.679 192.541Z" fill="#C1DF65"/>
</g>
<mask id="mask3_2085_86829" style="mask-type:luminance" maskUnits="userSpaceOnUse" x="168" y="-9" width="184" height="180">
<path fill-rule="evenodd" clip-rule="evenodd" d="M269.912 -8.10258L211.839 34.4522C208.191 37.1261 208.467 43.1845 212.345 45.4869L221.904 51.1623C225.795 53.4729 226.057 59.5605 222.382 62.2192L168.101 101.471L280.844 168.411C287.323 172.258 295.347 169.558 298.765 162.38L349.502 55.8257C352.92 48.6471 350.437 39.7088 343.958 35.8619L269.912 -8.10258Z" fill="white"/>
</mask>
<g mask="url(#mask3_2085_86829)">
<path fill-rule="evenodd" clip-rule="evenodd" d="M303.558 208.638L303.435 103.652L294.827 103.502L292.574 104.326L279.538 218.08L303.558 208.638Z" fill="#C1DF65"/>
</g>
<mask id="mask4_2085_86829" style="mask-type:luminance" maskUnits="userSpaceOnUse" x="168" y="-9" width="184" height="180">
<path fill-rule="evenodd" clip-rule="evenodd" d="M269.912 -8.10258L211.839 34.4522C208.191 37.1261 208.467 43.1845 212.345 45.4869L221.904 51.1623C225.795 53.4729 226.057 59.5605 222.382 62.2192L168.101 101.471L280.844 168.411C287.323 172.258 295.347 169.558 298.765 162.38L349.502 55.8257C352.92 48.6471 350.437 39.7088 343.958 35.8619L269.912 -8.10258Z" fill="white"/>
</mask>
<g mask="url(#mask4_2085_86829)">
<path fill-rule="evenodd" clip-rule="evenodd" d="M294.827 103.506L290.43 201.884L279.539 218.084L292.574 104.33L294.827 103.506Z" fill="#B4C64A"/>
</g>
<mask id="mask5_2085_86829" style="mask-type:luminance" maskUnits="userSpaceOnUse" x="168" y="-9" width="184" height="180">
<path fill-rule="evenodd" clip-rule="evenodd" d="M269.912 -8.10258L211.839 34.4522C208.191 37.1261 208.467 43.1845 212.345 45.4869L221.904 51.1623C225.795 53.4729 226.057 59.5605 222.382 62.2192L168.101 101.471L280.844 168.411C287.323 172.258 295.347 169.558 298.765 162.38L349.502 55.8257C352.92 48.6471 350.437 39.7088 343.958 35.8619" fill="white"/>
</mask>
<g mask="url(#mask5_2085_86829)">
<path fill-rule="evenodd" clip-rule="evenodd" d="M248.713 104.667C248.53 106.298 247.191 107.445 245.724 107.231C244.256 107.016 243.214 105.521 243.398 103.89C243.58 102.259 244.92 101.111 246.387 101.326C247.855 101.541 248.896 103.036 248.713 104.667Z" fill="#517820"/>
</g>
<mask id="mask6_2085_86829" style="mask-type:luminance" maskUnits="userSpaceOnUse" x="168" y="-9" width="184" height="180">
<path fill-rule="evenodd" clip-rule="evenodd" d="M269.912 -8.10258L211.839 34.4522C208.191 37.1261 208.467 43.1845 212.345 45.4869L221.904 51.1623C225.795 53.4729 226.057 59.5605 222.382 62.2192L168.101 101.471L280.844 168.411C287.323 172.258 295.347 169.558 298.765 162.38L349.502 55.8257C352.92 48.6471 350.437 39.7088 343.958 35.8619L269.912 -8.10258Z" fill="white"/>
</mask>
<g mask="url(#mask6_2085_86829)">
<path fill-rule="evenodd" clip-rule="evenodd" d="M292.574 104.327C290.486 103.756 289.106 104.33 287.822 105.06C285.287 122.501 271.704 188.76 212.022 186.679L210.68 192.54L279.539 218.08L292.574 104.327Z" fill="#C1DF65"/>
</g>
<mask id="mask7_2085_86829" style="mask-type:luminance" maskUnits="userSpaceOnUse" x="168" y="-9" width="184" height="180">
<path fill-rule="evenodd" clip-rule="evenodd" d="M269.912 -8.10258L211.839 34.4522C208.191 37.1261 208.467 43.1845 212.345 45.4869L221.904 51.1623C225.795 53.4729 226.057 59.5605 222.382 62.2192L168.101 101.471L280.844 168.411C287.323 172.258 295.347 169.558 298.765 162.38L349.502 55.8257C352.92 48.6471 350.437 39.7088 343.958 35.8619" fill="white"/>
</mask>
<g mask="url(#mask7_2085_86829)">
<path fill-rule="evenodd" clip-rule="evenodd" d="M299.02 124.683C298.796 126.666 297.168 128.063 295.382 127.802C293.597 127.541 292.329 125.721 292.552 123.737C292.776 121.754 294.404 120.358 296.19 120.619C297.976 120.879 299.243 122.699 299.02 124.683Z" fill="#828C26"/>
</g>
<mask id="mask8_2085_86829" style="mask-type:luminance" maskUnits="userSpaceOnUse" x="168" y="-9" width="184" height="180">
<path fill-rule="evenodd" clip-rule="evenodd" d="M269.912 -8.10258L211.839 34.4522C208.191 37.1261 208.467 43.1845 212.345 45.4869L221.904 51.1623C225.795 53.4729 226.057 59.5605 222.382 62.2192L168.101 101.471L280.844 168.411C287.323 172.258 295.347 169.558 298.765 162.38L349.502 55.8257C352.92 48.6471 350.437 39.7088 343.958 35.8619" fill="white"/>
</mask>
<g mask="url(#mask8_2085_86829)">
<path fill-rule="evenodd" clip-rule="evenodd" d="M255.086 121.914C254.804 124.422 252.745 126.188 250.486 125.857C248.229 125.528 246.627 123.227 246.909 120.719C247.191 118.211 249.25 116.444 251.509 116.775C253.766 117.104 255.368 119.406 255.086 121.914Z" fill="#828C26"/>
</g>
<mask id="mask9_2085_86829" style="mask-type:luminance" maskUnits="userSpaceOnUse" x="168" y="-9" width="184" height="180">
<path fill-rule="evenodd" clip-rule="evenodd" d="M269.912 -8.10258L211.839 34.4522C208.191 37.1261 208.467 43.1845 212.345 45.4869L221.904 51.1623C225.795 53.4729 226.057 59.5605 222.382 62.2192L168.101 101.471L280.844 168.411C287.323 172.258 295.347 169.558 298.765 162.38L349.502 55.8257C352.92 48.6471 350.437 39.7088 343.958 35.8619" fill="white"/>
</mask>
<g mask="url(#mask9_2085_86829)">
<path fill-rule="evenodd" clip-rule="evenodd" d="M230.461 136C230.905 132.045 228.871 128.371 225.708 126.892L221.912 143.477C226.124 144.001 229.934 140.69 230.461 136Z" fill="#828C26"/>
</g>
<mask id="mask10_2085_86829" style="mask-type:luminance" maskUnits="userSpaceOnUse" x="168" y="-9" width="184" height="180">
<path fill-rule="evenodd" clip-rule="evenodd" d="M269.912 -8.10258L211.839 34.4522C208.191 37.1261 208.467 43.1845 212.345 45.4869L221.904 51.1623C225.795 53.4729 226.057 59.5605 222.382 62.2192L168.101 101.471L280.844 168.411C287.323 172.258 295.347 169.558 298.765 162.38L349.502 55.8257C352.92 48.6471 350.437 39.7088 343.958 35.8619L269.912 -8.10258Z" fill="white"/>
</mask>
<g mask="url(#mask10_2085_86829)">
<path fill-rule="evenodd" clip-rule="evenodd" d="M289.108 134.583C288.476 134.289 287.804 134.073 287.094 133.97C282.821 133.346 278.924 136.686 278.391 141.433C277.858 146.178 280.889 150.532 285.162 151.157C285.86 151.259 286.544 151.246 287.21 151.147L289.108 134.583Z" fill="#828C26"/>
</g>
<mask id="mask11_2085_86829" style="mask-type:luminance" maskUnits="userSpaceOnUse" x="168" y="-9" width="184" height="180">
<path fill-rule="evenodd" clip-rule="evenodd" d="M269.912 -8.10258L211.839 34.4522C208.191 37.1261 208.467 43.1845 212.345 45.4869L221.904 51.1623C225.795 53.4729 226.057 59.5605 222.382 62.2192L168.101 101.471L280.844 168.411C287.323 172.258 295.347 169.558 298.765 162.38L349.502 55.8257C352.92 48.6471 350.437 39.7088 343.958 35.8619L269.912 -8.10258Z" fill="white"/>
</mask>
<g mask="url(#mask11_2085_86829)">
<path fill-rule="evenodd" clip-rule="evenodd" d="M231.305 102.442C234.435 101.695 236.939 98.8397 237.36 95.1056C237.607 92.9031 237.079 90.79 236.024 89.0908C235.589 88.8399 235.092 88.6261 234.505 88.4656L231.305 102.442Z" fill="#828C26"/>
</g>
<mask id="mask12_2085_86829" style="mask-type:luminance" maskUnits="userSpaceOnUse" x="168" y="-9" width="184" height="180">
<path fill-rule="evenodd" clip-rule="evenodd" d="M269.912 -8.10258L211.839 34.4522C208.191 37.1261 208.467 43.1845 212.345 45.4869L221.904 51.1623C225.795 53.4729 226.057 59.5605 222.382 62.2192L168.101 101.471L280.844 168.411C287.323 172.258 295.347 169.558 298.765 162.38L349.502 55.8257C352.92 48.6471 350.437 39.7088 343.958 35.8619" fill="white"/>
</mask>
<g mask="url(#mask12_2085_86829)">
<path fill-rule="evenodd" clip-rule="evenodd" d="M270.581 109.909C270.048 114.654 273.079 119.008 277.352 119.633C281.625 120.258 285.521 116.916 286.055 112.17C286.284 110.123 285.85 108.153 284.94 106.519C284.074 106.778 283.088 106.842 281.853 106.504C279.259 105.796 278.352 104.084 277.325 102.443C273.879 102.908 271.032 105.904 270.581 109.909Z" fill="#828C26"/>
</g>
<mask id="mask13_2085_86829" style="mask-type:luminance" maskUnits="userSpaceOnUse" x="168" y="-9" width="184" height="180">
<path fill-rule="evenodd" clip-rule="evenodd" d="M269.912 -8.10258L211.839 34.4522C208.191 37.1261 208.467 43.1845 212.345 45.4869L221.904 51.1623C225.795 53.4729 226.057 59.5605 222.382 62.2192L168.101 101.471L280.844 168.411C287.323 172.258 295.347 169.558 298.765 162.38L349.502 55.8257C352.92 48.6471 350.437 39.7088 343.958 35.8619" fill="white"/>
</mask>
<g mask="url(#mask13_2085_86829)">
<path fill-rule="evenodd" clip-rule="evenodd" d="M278.274 111.429C278.091 113.059 276.752 114.207 275.284 113.993C273.816 113.778 272.775 112.283 272.958 110.652C273.141 109.022 274.48 107.873 275.947 108.088C277.416 108.302 278.457 109.798 278.274 111.429Z" fill="#517820"/>
</g>
<mask id="mask14_2085_86829" style="mask-type:luminance" maskUnits="userSpaceOnUse" x="168" y="-9" width="184" height="180">
<path fill-rule="evenodd" clip-rule="evenodd" d="M269.912 -8.10258L211.839 34.4522C208.191 37.1261 208.467 43.1845 212.345 45.4869L221.904 51.1623C225.795 53.4729 226.057 59.5605 222.382 62.2192L168.101 101.471L280.844 168.411C287.323 172.258 295.347 169.558 298.765 162.38L349.502 55.8257C352.92 48.6471 350.437 39.7088 343.958 35.8619L269.912 -8.10258Z" fill="white"/>
</mask>
<g mask="url(#mask14_2085_86829)">
<path fill-rule="evenodd" clip-rule="evenodd" d="M303.558 208.64L290.43 201.882L294.827 103.504L303.435 103.655L303.558 208.64Z" fill="#98AA30"/>
</g>
<mask id="mask15_2085_86829" style="mask-type:luminance" maskUnits="userSpaceOnUse" x="168" y="-9" width="184" height="180">
<path fill-rule="evenodd" clip-rule="evenodd" d="M269.912 -8.10258L211.839 34.4522C208.191 37.1261 208.467 43.1845 212.345 45.4869L221.904 51.1623C225.795 53.4729 226.057 59.5605 222.382 62.2192L168.101 101.471L280.844 168.411C287.323 172.258 295.347 169.558 298.765 162.38L349.502 55.8257C352.92 48.6471 350.437 39.7088 343.958 35.8619" fill="white"/>
</mask>
<g mask="url(#mask15_2085_86829)">
<path fill-rule="evenodd" clip-rule="evenodd" d="M228.997 130.645C228.997 130.645 231.414 110.813 242.222 112.735C253.03 114.657 276.428 119.279 276.763 124.624C277.096 129.97 249.737 173.879 226.43 178.418C221.281 179.35 228.997 130.645 228.997 130.645Z" fill="white"/>
</g>
<mask id="mask16_2085_86829" style="mask-type:luminance" maskUnits="userSpaceOnUse" x="168" y="-9" width="184" height="180">
<path fill-rule="evenodd" clip-rule="evenodd" d="M269.912 -8.10258L211.839 34.4522C208.191 37.1261 208.467 43.1845 212.345 45.4869L221.904 51.1623C225.795 53.4729 226.057 59.5605 222.382 62.2192L168.101 101.471L280.844 168.411C287.323 172.258 295.347 169.558 298.765 162.38L349.502 55.8257C352.92 48.6471 350.437 39.7088 343.958 35.8619" fill="white"/>
</mask>
<g mask="url(#mask16_2085_86829)">
<path fill-rule="evenodd" clip-rule="evenodd" d="M246.175 103.739C246.243 103.748 246.312 103.766 246.381 103.791C246.967 104.006 247.289 104.707 247.1 105.359C247.036 105.575 240.836 127.237 246.828 137.741C248.609 140.861 251.233 142.635 254.854 143.164C258.766 143.736 262.172 142.692 264.98 140.058C273.357 132.203 274.102 112.884 274.11 112.689C274.133 112.004 274.651 111.474 275.267 111.503C275.89 111.517 276.364 112.113 276.34 112.798C276.312 113.636 275.543 133.409 266.425 141.959C263.122 145.057 259.136 146.29 254.577 145.625C250.314 145.001 247.074 142.792 244.944 139.058C238.39 127.564 244.703 105.513 244.976 104.579C245.143 104.004 245.653 103.662 246.175 103.739Z" fill="#594A42"/>
</g>
</g>
</g>
<defs>
<linearGradient id="paint0_linear_2085_86829" x1="335" y1="134" x2="-4.90852" y2="120.109" gradientUnits="userSpaceOnUse">
<stop stop-color="#8C5898"/>
<stop offset="0.98" stop-color="#6768AB"/>
</linearGradient>
</defs>
</svg>
