<svg width="41" height="41" viewBox="0 0 41 41" fill="none" xmlns="http://www.w3.org/2000/svg">
<path d="M0.5 20.4999C0.5 9.45427 9.45435 0.5 20.5 0.5V0.5C31.5456 0.5 40.5 9.45427 40.5 20.4999V20.4999C40.5 31.5456 31.5456 40.4998 20.5 40.4998V40.4998C9.45435 40.4998 0.5 31.5456 0.5 20.4999V20.4999Z" fill="#E9ECF1"/>
<ellipse cx="20.4747" cy="15.3158" rx="8.94737" ry="8.81575" fill="white"/>
<path fill-rule="evenodd" clip-rule="evenodd" d="M34.4182 34.0022C34.4746 34.0996 34.4569 34.2225 34.376 34.3008C30.7774 37.7803 25.8764 39.9212 20.4754 39.9212C15.0745 39.9212 10.1736 37.7804 6.57502 34.301C6.49411 34.2228 6.47643 34.0999 6.53282 34.0025C9.07663 29.6083 14.3646 26.5879 20.4756 26.5879C26.5865 26.5879 31.8744 29.6082 34.4182 34.0022Z" fill="white"/>
</svg>
