<svg width="40" height="42" viewBox="0 0 40 42" fill="none" xmlns="http://www.w3.org/2000/svg">
<path d="M0 20.9999C0 9.95427 8.95435 1 20 1C31.0456 1 40 9.95427 40 20.9999C40 32.0456 31.0456 40.9998 20 40.9998C8.95435 40.9998 0 32.0456 0 20.9999Z" fill="#E9ECF1"/>
<path d="M19.9747 24.6315C24.9162 24.6315 28.9221 20.6846 28.9221 15.8158C28.9221 10.9469 24.9162 7 19.9747 7C15.0332 7 11.0273 10.9469 11.0273 15.8158C11.0273 20.6846 15.0332 24.6315 19.9747 24.6315Z" fill="#F0F8FF"/>
<path fill-rule="evenodd" clip-rule="evenodd" d="M33.9182 34.5022C33.9746 34.5996 33.9569 34.7225 33.876 34.8008C30.2774 38.2803 25.3764 40.4212 19.9754 40.4212C14.5745 40.4212 9.67362 38.2804 6.07502 34.801C5.99411 34.7228 5.97643 34.5999 6.03282 34.5025C8.57663 30.1083 13.8646 27.0879 19.9756 27.0879C26.0865 27.0879 31.3744 30.1082 33.9182 34.5022Z" fill="#F0F8FF"/>
</svg>
