<svg width="335" height="109" viewBox="0 0 335 109" fill="none" xmlns="http://www.w3.org/2000/svg">
<rect width="335" height="109" rx="12" fill="url(#paint0_linear_1318_62978)"/>
<mask id="mask0_1318_62978" style="mask-type:luminance" maskUnits="userSpaceOnUse" x="0" y="0" width="335" height="109">
<rect width="335" height="109" rx="12" fill="white"/>
</mask>
<g mask="url(#mask0_1318_62978)">
<g opacity="0.15">
<path fill-rule="evenodd" clip-rule="evenodd" d="M336.287 45.7812L332.669 49.4201L332.91 54.3231L327.96 52.3164L322.889 54.023L323.449 49.1441L320.073 45.2956L325.369 44.2867L328.354 40.2021L331.066 44.4577L336.287 45.7812Z" fill="#026363"/>
<path fill-rule="evenodd" clip-rule="evenodd" d="M312.343 31.5997C311.379 33.2458 309.122 33.8682 307.301 32.9889C305.48 32.1093 304.785 30.0611 305.749 28.415C306.713 26.7682 308.97 26.1465 310.792 27.0261C312.612 27.9054 313.307 29.953 312.343 31.5997" fill="white"/>
<path fill-rule="evenodd" clip-rule="evenodd" d="M311.999 24.9615C311.688 24.8116 311.571 24.4632 311.735 24.1826L314.561 19.3546C314.725 19.074 315.109 18.9678 315.419 19.1177C315.731 19.2679 315.848 19.6164 315.684 19.897L312.858 24.7249C312.694 25.0055 312.31 25.1118 311.999 24.9615" fill="white"/>
<path fill-rule="evenodd" clip-rule="evenodd" d="M320.23 36.0611L314.891 33.4826C314.581 33.333 314.462 32.9839 314.626 32.7033C314.791 32.422 315.176 32.3171 315.486 32.4666L320.825 35.0452C321.136 35.1954 321.254 35.5432 321.089 35.8245C320.925 36.1051 320.541 36.2113 320.23 36.0611" fill="white"/>
<path fill-rule="evenodd" clip-rule="evenodd" d="M302.671 40.8967C302.361 40.7469 302.243 40.3984 302.408 40.1178L305.233 35.2912C305.397 35.0106 305.781 34.9043 306.091 35.0542C306.402 35.2044 306.52 35.5529 306.356 35.8335L303.53 40.6601C303.366 40.9407 302.982 41.047 302.671 40.8967" fill="white"/>
<path fill-rule="evenodd" clip-rule="evenodd" d="M302.606 27.5494L297.266 24.9705C296.957 24.821 296.838 24.4722 297.002 24.1916C297.167 23.9103 297.551 23.805 297.861 23.9546L303.201 26.5335C303.512 26.6837 303.63 27.0315 303.465 27.3128C303.301 27.5934 302.917 27.6996 302.606 27.5494" fill="white"/>
<path fill-rule="evenodd" clip-rule="evenodd" d="M314.897 28.8229C314.753 28.7534 314.639 28.634 314.587 28.4818C314.483 28.178 314.672 27.856 315.007 27.7635L318.726 26.7389C319.061 26.6471 319.416 26.8188 319.52 27.1226C319.622 27.4273 319.434 27.7487 319.099 27.8415L315.382 28.8658C315.214 28.912 315.04 28.8921 314.897 28.8229" fill="white"/>
<path fill-rule="evenodd" clip-rule="evenodd" d="M311.786 39.4644C311.642 39.3952 311.527 39.2755 311.476 39.1236L310.331 35.752C310.229 35.4479 310.417 35.1265 310.752 35.0337C311.087 34.9413 311.443 35.1129 311.547 35.4178L312.691 38.789C312.794 39.0934 312.606 39.4154 312.27 39.5072C312.103 39.5535 311.929 39.5339 311.786 39.4644" fill="white"/>
<path fill-rule="evenodd" clip-rule="evenodd" d="M298.882 33.2323C298.739 33.1631 298.624 33.0433 298.572 32.8911C298.468 32.5873 298.657 32.2653 298.992 32.1729L302.71 31.1499C303.046 31.0575 303.402 31.2291 303.505 31.5336C303.607 31.8377 303.419 32.159 303.084 32.2518L299.367 33.2751C299.199 33.3213 299.026 33.3018 298.882 33.2323" fill="white"/>
<path fill-rule="evenodd" clip-rule="evenodd" d="M306.855 24.9382C306.712 24.8691 306.597 24.7493 306.546 24.5974L305.401 21.2248C305.298 20.9207 305.486 20.5994 305.821 20.5059C306.157 20.4145 306.513 20.5861 306.616 20.8899L307.76 24.2628C307.864 24.5673 307.675 24.8893 307.34 24.9811C307.172 25.0273 306.999 25.0077 306.855 24.9382" fill="white"/>
<path fill-rule="evenodd" clip-rule="evenodd" d="M225.14 38.5346C223.579 38.6965 222.164 37.6801 221.982 36.266C221.797 34.8511 222.913 33.5743 224.473 33.4124C226.035 33.2519 227.449 34.2669 227.633 35.6818C227.816 37.0963 226.7 38.3738 225.14 38.5346" fill="white"/>
<path fill-rule="evenodd" clip-rule="evenodd" d="M229.589 35.4799C229.557 35.2389 229.748 35.0216 230.013 34.9937L234.589 34.521C234.855 34.4935 235.096 34.6663 235.128 34.9074C235.159 35.1494 234.969 35.3661 234.703 35.3935L230.127 35.8663C229.861 35.8938 229.62 35.722 229.589 35.4799" fill="white"/>
<path fill-rule="evenodd" clip-rule="evenodd" d="M225.484 44.942L224.944 40.7947C224.914 40.554 225.103 40.336 225.37 40.3089C225.636 40.2807 225.876 40.4542 225.908 40.6953L226.448 44.8426C226.478 45.0833 226.288 45.3009 226.022 45.3284C225.756 45.3559 225.516 45.1834 225.484 44.942" fill="white"/>
<path fill-rule="evenodd" clip-rule="evenodd" d="M214.486 37.0401C214.454 36.7987 214.644 36.5814 214.91 36.5539L219.486 36.0814C219.751 36.0539 219.992 36.2267 220.024 36.4678C220.055 36.7088 219.865 36.9261 219.599 36.954L215.024 37.4265C214.758 37.454 214.517 37.2811 214.486 37.0401" fill="white"/>
<path fill-rule="evenodd" clip-rule="evenodd" d="M223.704 31.2527L223.164 27.1053C223.134 26.864 223.323 26.6463 223.589 26.6188C223.855 26.5913 224.096 26.7649 224.127 27.0059L224.667 31.1532C224.698 31.3943 224.508 31.6119 224.242 31.6391C223.977 31.6669 223.736 31.4941 223.704 31.2527" fill="white"/>
<path fill-rule="evenodd" clip-rule="evenodd" d="M228.176 38.7908C228.162 38.6791 228.194 38.5626 228.277 38.4676C228.443 38.2774 228.748 38.2465 228.958 38.397L231.288 40.0702C231.498 40.2213 231.534 40.4974 231.368 40.687C231.201 40.8772 230.897 40.9088 230.687 40.7577L228.358 39.0848C228.253 39.0096 228.191 38.9031 228.176 38.7908" fill="white"/>
<path fill-rule="evenodd" clip-rule="evenodd" d="M219.447 41.6066C219.433 41.4953 219.465 41.3784 219.548 41.2835L221.386 39.1805C221.552 38.9903 221.856 38.9594 222.067 39.1098C222.277 39.2609 222.313 39.537 222.147 39.7276L220.309 41.83C220.144 42.0205 219.838 42.0517 219.629 41.9006C219.523 41.8254 219.462 41.7183 219.447 41.6066" fill="white"/>
<path fill-rule="evenodd" clip-rule="evenodd" d="M218.144 31.5829C218.13 31.4716 218.162 31.3547 218.245 31.2598C218.412 31.0699 218.716 31.038 218.926 31.1894L221.254 32.8626C221.465 33.0141 221.501 33.2902 221.334 33.4794C221.169 33.67 220.864 33.7016 220.654 33.5505L218.325 31.8769C218.22 31.8011 218.159 31.6946 218.144 31.5829" fill="white"/>
<path fill-rule="evenodd" clip-rule="evenodd" d="M227.364 32.5448C227.349 32.4331 227.382 32.3166 227.465 32.2217L229.304 30.1184C229.469 29.9278 229.774 29.8969 229.985 30.0477C230.194 30.1988 230.23 30.4749 230.064 30.6652L228.226 32.7682C228.06 32.9587 227.755 32.9899 227.545 32.8388C227.44 32.7636 227.378 32.6571 227.364 32.5448" fill="white"/>
<path fill-rule="evenodd" clip-rule="evenodd" d="M254.82 15.3702C253.968 16.8257 251.972 17.3755 250.362 16.598C248.751 15.8202 248.138 14.0102 248.99 12.5547C249.842 11.0992 251.837 10.5487 253.448 11.3265C255.057 12.104 255.672 13.9146 254.82 15.3702" fill="white"/>
<path fill-rule="evenodd" clip-rule="evenodd" d="M254.515 9.50083C254.241 9.3685 254.136 9.06001 254.282 8.81162L256.78 4.54355C256.925 4.29581 257.265 4.20214 257.539 4.33447C257.814 4.46715 257.919 4.77564 257.774 5.02338L255.275 9.29145C255.13 9.53985 254.79 9.63352 254.515 9.50083" fill="white"/>
<path fill-rule="evenodd" clip-rule="evenodd" d="M261.793 19.3134L257.073 17.0339C256.798 16.9012 256.693 16.5927 256.838 16.345C256.984 16.0966 257.324 16.0029 257.599 16.1356L262.318 18.4151C262.593 18.5478 262.698 18.8563 262.552 19.1046C262.407 19.3524 262.067 19.4461 261.793 19.3134" fill="white"/>
<path fill-rule="evenodd" clip-rule="evenodd" d="M246.269 23.5881C245.995 23.4557 245.891 23.1472 246.036 22.8988L248.534 18.6321C248.679 18.3837 249.019 18.29 249.293 18.4224C249.568 18.555 249.673 18.8635 249.527 19.1119L247.03 23.3787C246.884 23.6271 246.544 23.7208 246.269 23.5881" fill="white"/>
<path fill-rule="evenodd" clip-rule="evenodd" d="M246.211 11.7883L241.491 9.50851C241.216 9.37583 241.111 9.06733 241.256 8.8196C241.402 8.5712 241.742 8.47753 242.017 8.61021L246.737 10.89C247.011 11.0224 247.116 11.3309 246.97 11.5793C246.825 11.827 246.485 11.9207 246.211 11.7883" fill="white"/>
<path fill-rule="evenodd" clip-rule="evenodd" d="M257.078 12.9141C256.951 12.8527 256.849 12.7472 256.804 12.6132C256.712 12.344 256.879 12.0594 257.176 11.9777L260.463 11.0719C260.759 10.9898 261.073 11.1418 261.165 11.4109C261.256 11.6808 261.09 11.9646 260.793 12.0464L257.506 12.9522C257.358 12.9929 257.205 12.9755 257.078 12.9141" fill="white"/>
<path fill-rule="evenodd" clip-rule="evenodd" d="M254.327 22.3225C254.2 22.2611 254.098 22.1556 254.053 22.0215L253.041 19.0405C252.95 18.7713 253.116 18.4874 253.413 18.405C253.71 18.3233 254.025 18.4753 254.115 18.7441L255.127 21.7252C255.218 21.9943 255.052 22.2789 254.755 22.3606C254.607 22.4013 254.454 22.3839 254.327 22.3225" fill="white"/>
<path fill-rule="evenodd" clip-rule="evenodd" d="M242.919 16.8129C242.792 16.7514 242.691 16.646 242.645 16.5119C242.554 16.2427 242.72 15.9582 243.017 15.8765L246.304 14.9716C246.6 14.8895 246.915 15.0415 247.006 15.3103C247.097 15.5805 246.931 15.8644 246.634 15.9458L243.347 16.851C243.199 16.8917 243.046 16.8743 242.919 16.8129" fill="white"/>
<path fill-rule="evenodd" clip-rule="evenodd" d="M249.968 9.48038C249.841 9.41896 249.74 9.3135 249.695 9.17977L248.683 6.19768C248.592 5.9285 248.758 5.64462 249.055 5.56223C249.352 5.4805 249.666 5.63249 249.757 5.90131L250.768 8.88305C250.86 9.15257 250.694 9.43711 250.396 9.51849C250.248 9.55921 250.095 9.54181 249.968 9.48038" fill="white"/>
<path fill-rule="evenodd" clip-rule="evenodd" d="M216.892 77.7027C212.028 78.5241 207.335 75.615 206.411 71.2054C205.485 66.7957 208.679 62.555 213.542 61.7336C218.406 60.9126 223.098 63.8219 224.024 68.2313C224.949 72.6406 221.756 76.8817 216.892 77.7027" fill="#FEBE10"/>
<path fill-rule="evenodd" clip-rule="evenodd" d="M221.334 68.5593C220.774 65.4849 217.574 63.505 214.202 64.144C210.829 64.7843 208.541 67.8053 209.101 70.88C209.661 73.953 212.86 75.9339 216.233 75.2936C219.605 74.6547 221.893 71.633 221.334 68.5593M207.813 71.124C207.136 67.4025 209.905 63.7456 213.988 62.9713C218.07 62.1966 221.943 64.5938 222.62 68.315C223.298 72.0358 220.529 75.6926 216.447 76.4673C212.363 77.2413 208.491 74.8448 207.813 71.124" fill="#BA8000"/>
<path fill-rule="evenodd" clip-rule="evenodd" d="M211.108 69.9112L212.037 69.7539C211.976 69.3088 211.958 68.9435 211.983 68.6582C212.009 68.3725 212.04 68.1343 212.075 67.9449L213.608 67.6854L213.933 69.2307C213.777 69.2565 213.667 69.3038 213.605 69.3733C213.542 69.4414 213.529 69.5651 213.566 69.7429C213.598 69.8977 213.647 70.0028 213.713 70.0601C213.778 70.1167 213.862 70.1364 213.966 70.1189C214.038 70.1067 214.095 70.0695 214.139 70.0062C214.181 69.9432 214.221 69.8236 214.26 69.6476C214.332 69.2767 214.407 68.9506 214.484 68.6682C214.56 68.3865 214.661 68.146 214.786 67.9484C214.91 67.7505 215.07 67.5918 215.267 67.471C215.463 67.3508 215.713 67.2652 216.019 67.2137C216.271 67.1712 216.509 67.163 216.731 67.1911C216.953 67.2192 217.159 67.2899 217.345 67.4034C217.533 67.5176 217.7 67.6804 217.849 67.8936C217.998 68.1055 218.125 68.3769 218.232 68.7085L219.123 68.5579L219.316 69.4771L218.441 69.6254C218.47 69.8477 218.487 70.0464 218.489 70.2201C218.491 70.3948 218.484 70.5556 218.47 70.7039C218.456 70.8515 218.436 70.9876 218.412 71.1133C218.387 71.2381 218.357 71.343 218.321 71.4261L216.936 71.6605L216.626 70.1866C216.775 70.1602 216.869 70.1062 216.908 70.0218C216.947 69.9378 216.955 69.8417 216.932 69.7345C216.9 69.5797 216.854 69.4726 216.796 69.4116C216.737 69.3511 216.655 69.3308 216.547 69.3485C216.458 69.364 216.401 69.4106 216.376 69.4903C216.349 69.5699 216.325 69.6867 216.305 69.8401C216.263 70.1287 216.214 70.4025 216.156 70.662C216.098 70.9205 216.008 71.1553 215.887 71.3646C215.765 71.5746 215.602 71.7512 215.396 71.8949C215.192 72.0388 214.923 72.1382 214.593 72.1938C214 72.2943 213.507 72.2153 213.113 71.9571C212.719 71.6992 212.427 71.2708 212.237 70.6726L211.3 70.8304L211.108 69.9112Z" fill="#BA8000"/>
<path fill-rule="evenodd" clip-rule="evenodd" d="M241.582 72.3166C241.272 72.1671 241.091 71.8477 241.158 71.5194C241.16 71.5112 241.321 70.7223 241.385 69.4031C241.406 68.9924 241.789 68.6761 242.243 68.6956C242.695 68.7156 243.048 69.0641 243.028 69.4759C242.958 70.9102 242.782 71.7651 242.775 71.8006C242.691 72.2041 242.26 72.4682 241.815 72.3907C241.731 72.3763 241.654 72.3514 241.582 72.3166" fill="white"/>
<path fill-rule="evenodd" clip-rule="evenodd" d="M237.966 55.3862C237.831 55.322 237.716 55.2206 237.639 55.088C236.807 53.6475 235.817 52.2661 234.695 50.9805C234.417 50.662 234.482 50.1862 234.84 49.919C235.198 49.6501 235.713 49.6906 235.992 50.0081C237.175 51.3632 238.219 52.821 239.096 54.3403C239.305 54.7023 239.148 55.1629 238.746 55.3691C238.491 55.5 238.199 55.497 237.966 55.3862M241.464 65.0273C241.243 64.9222 241.083 64.7223 241.052 64.4758C240.843 62.828 240.472 61.2018 239.951 59.6397C239.82 59.249 240.063 58.8217 240.495 58.686C240.926 58.5509 241.381 58.7564 241.512 59.1472C242.061 60.7932 242.452 62.507 242.672 64.2423C242.724 64.6511 242.403 65.0347 241.955 65.0983C241.779 65.1241 241.608 65.0961 241.464 65.0273" fill="white"/>
<path fill-rule="evenodd" clip-rule="evenodd" d="M230.987 47.4646C230.931 47.4379 230.878 47.4046 230.828 47.3654C230.239 46.8944 229.61 46.4265 228.961 45.9747C228.601 45.723 228.532 45.2547 228.808 44.9289C229.083 44.6034 229.6 44.5387 229.961 44.7944C230.639 45.2669 231.296 45.7562 231.913 46.2488C232.254 46.5217 232.288 46.9925 231.99 47.3008C231.733 47.5638 231.316 47.6236 230.987 47.4646" fill="white"/>
<path fill-rule="evenodd" clip-rule="evenodd" d="M261.032 69.8985C260.683 69.73 260.509 69.3531 260.638 69.0034C260.641 68.9955 260.92 68.2328 261.32 66.9045C261.439 66.5085 261.891 66.2756 262.33 66.3856C262.765 66.4922 263.026 66.9048 262.906 67.3022C262.494 68.6748 262.209 69.4477 262.197 69.48C262.054 69.8701 261.588 70.079 261.158 69.9472C261.113 69.9335 261.072 69.9174 261.032 69.8985" fill="white"/>
<path fill-rule="evenodd" clip-rule="evenodd" d="M262.074 31.5257C261.897 31.4418 261.757 31.2969 261.692 31.1095C261.249 29.8246 260.734 28.5759 260.16 27.3964C259.979 27.0236 260.167 26.5742 260.581 26.392C260.995 26.2092 261.477 26.3629 261.658 26.7374C262.256 27.9671 262.793 29.2672 263.254 30.6026C263.388 30.9933 263.147 31.423 262.716 31.5634C262.493 31.6358 262.263 31.6157 262.074 31.5257M264.123 39.4697C263.902 39.3647 263.742 39.1656 263.71 38.9199C263.536 37.569 263.3 36.2388 263.01 34.9646C262.919 34.5632 263.203 34.1572 263.643 34.0568C264.085 33.9567 264.515 34.2011 264.606 34.6018C264.906 35.9183 265.148 37.2914 265.329 38.6829C265.382 39.0914 265.063 39.4752 264.615 39.5411C264.438 39.5676 264.267 39.5385 264.123 39.4697M264.731 47.6109C264.476 47.4895 264.307 47.243 264.315 46.956C264.351 45.5881 264.339 44.2293 264.278 42.9166C264.259 42.5055 264.607 42.1441 265.056 42.1101C265.503 42.0761 265.883 42.3819 265.902 42.7931C265.964 44.1381 265.977 45.5307 265.939 46.932C265.929 47.3443 265.556 47.6842 265.108 47.6904C264.971 47.693 264.843 47.6643 264.731 47.6109M264.202 55.76C263.919 55.6251 263.748 55.3376 263.795 55.0229C263.997 53.6719 264.161 52.3136 264.281 50.9841C264.319 50.5737 264.71 50.2538 265.157 50.2712C265.605 50.2877 265.935 50.6364 265.898 51.0482C265.774 52.404 265.607 53.7889 265.401 55.167C265.339 55.5773 264.93 55.8774 264.487 55.8376C264.383 55.8284 264.288 55.8009 264.202 55.76M262.738 63.8133C262.429 63.666 262.26 63.3397 262.347 63.0043C262.687 61.6899 262.997 60.3484 263.27 59.0169C263.353 58.6089 263.777 58.3287 264.215 58.3887C264.656 58.4473 264.943 58.828 264.86 59.2343C264.583 60.589 264.266 61.9559 263.92 63.2939C263.816 63.6968 263.378 63.9593 262.943 63.88C262.869 63.866 262.801 63.8436 262.738 63.8133" fill="white"/>
<path fill-rule="evenodd" clip-rule="evenodd" d="M258.318 24.1221C258.195 24.0624 258.086 23.9734 258.007 23.8578C257.581 23.2399 257.127 22.6303 256.657 22.0453C256.389 21.7128 256.47 21.2469 256.837 21.0052C257.204 20.7636 257.72 20.8398 257.986 21.1722C258.478 21.7851 258.954 22.4246 259.401 23.0727C259.641 23.4215 259.525 23.8813 259.14 24.0981C258.882 24.2435 258.569 24.2432 258.318 24.1221" fill="white"/>
<path fill-rule="evenodd" clip-rule="evenodd" d="M277.183 73.6323C276.877 73.4845 276.696 73.1712 276.758 72.8461C276.763 72.8125 276.918 72.0072 277.257 70.6244C277.357 70.2233 277.795 69.9714 278.24 70.0622C278.682 70.1566 278.962 70.5517 278.863 70.9532C278.532 72.2972 278.379 73.0966 278.378 73.1046C278.301 73.5096 277.876 73.7799 277.429 73.709C277.34 73.6948 277.259 73.6688 277.183 73.6323" fill="white"/>
<path fill-rule="evenodd" clip-rule="evenodd" d="M290.04 44.9866C290.005 44.9698 289.971 44.95 289.939 44.9279C289.587 44.6891 289.523 44.225 289.796 43.8908C290.764 42.7096 291.772 41.6005 292.794 40.5953C293.104 40.2902 293.616 40.2607 293.935 40.5381C294.255 40.812 294.262 41.2817 293.951 41.5882C292.971 42.553 292.002 43.6184 291.07 44.7549C290.822 45.0587 290.383 45.1501 290.04 44.9866V44.9866ZM285.249 52.0082C284.866 51.8247 284.726 51.383 284.936 51.0185C285.059 50.8064 285.182 50.596 285.307 50.385C285.933 49.3292 286.582 48.3044 287.239 47.339C287.479 46.9852 287.976 46.8773 288.35 47.075C288.722 47.282 288.829 47.7368 288.59 48.0899C287.951 49.0298 287.318 50.0272 286.709 51.0559C286.587 51.2616 286.466 51.4687 286.347 51.6748C286.134 52.042 285.647 52.1934 285.257 52.0119L285.249 52.0082ZM281.552 59.5727C281.204 59.4065 281.046 59.018 281.199 58.6621C281.774 57.3281 282.378 56.0195 282.998 54.7722C283.186 54.3938 283.665 54.2153 284.068 54.3732C284.473 54.5245 284.644 54.9668 284.458 55.3452C283.849 56.568 283.256 57.8514 282.693 59.1602C282.527 59.5466 282.057 59.7481 281.645 59.6104C281.613 59.5993 281.582 59.5872 281.552 59.5727V59.5727ZM278.731 67.4469C278.409 67.2928 278.243 66.9436 278.353 66.6003C278.785 65.2544 279.252 63.9036 279.745 62.5843C279.892 62.1913 280.352 61.9692 280.773 62.0885C281.193 62.2038 281.416 62.6228 281.269 63.0159C280.785 64.3146 280.324 65.6441 279.899 66.9677C279.772 67.3656 279.322 67.6057 278.896 67.504C278.837 67.4903 278.782 67.4711 278.731 67.4469V67.4469Z" fill="white"/>
<path fill-rule="evenodd" clip-rule="evenodd" d="M296.303 38.9339C296.209 38.8887 296.124 38.8269 296.052 38.7468C295.764 38.4276 295.816 37.9586 296.167 37.6992C296.829 37.2095 297.512 36.7486 298.196 36.3264C298.57 36.0949 299.083 36.1847 299.339 36.5243C299.595 36.8644 299.499 37.3284 299.125 37.5588C298.48 37.957 297.836 38.3928 297.21 38.8551C296.946 39.0503 296.587 39.0712 296.303 38.9339" fill="white"/>
<path fill-rule="evenodd" clip-rule="evenodd" d="M306.181 55.3882C306.181 55.3882 311.312 47.5522 317.989 45.61L320.907 47.9228L320.06 52.1829C320.06 52.1829 311.976 50.7987 306.181 55.3882" fill="#026363"/>
<path fill-rule="evenodd" clip-rule="evenodd" d="M283.393 15.1273L280.222 18.8037L275.106 19.4029L277.997 23.2857L277.064 27.8806L282.022 26.603L286.561 28.8447L286.735 24.1723L290.473 20.9623L285.622 19.3525L283.393 15.1273Z" fill="#026363"/>
<path fill-rule="evenodd" clip-rule="evenodd" d="M276.273 42.8591C276.273 42.8591 283.902 36.9261 284.861 30.6281L281.845 28.4216L277.363 29.9125C277.363 29.9125 280.259 36.8931 276.273 42.8591" fill="#026363"/>
<path fill-rule="evenodd" clip-rule="evenodd" d="M289.81 76.5417C291.134 62.4007 313.968 70.1222 315.292 55.9812C311.308 51.9321 307.326 47.8837 303.342 43.8349C302.018 57.9755 279.184 50.2544 277.86 64.3961C281.843 68.4442 285.827 72.4933 289.81 76.5417" fill="#8CC53F"/>
<path fill-rule="evenodd" clip-rule="evenodd" d="M304.809 49.4974C300.503 57.8526 285.452 55.0496 281.146 63.4045C283.546 65.8958 285.945 68.387 288.344 70.8793C292.649 62.5232 307.7 65.3271 312.006 56.9723C309.608 54.4803 307.208 51.989 304.809 49.4974M279.957 63.7359C283.623 53.6721 300.89 57.7322 304.556 47.6677C307.437 50.6588 310.316 53.6495 313.196 56.6402C309.529 66.7043 292.263 62.6446 288.596 72.7087C285.716 69.718 282.836 66.7273 279.957 63.7359" fill="#517820"/>
<path fill-rule="evenodd" clip-rule="evenodd" d="M292.121 61.481C293.688 63.0743 296.905 63.7371 299.433 63.0906C301.961 62.4445 302.619 60.5087 301.033 58.8956C299.465 57.302 296.249 56.6395 293.721 57.285C291.192 57.9308 290.533 59.8679 292.121 61.481" fill="#517820"/>
<path fill-rule="evenodd" clip-rule="evenodd" d="M269.232 71.0727L268.295 55.9917L278.096 55.9304L269.232 71.0727Z" fill="#026363"/>
<path fill-rule="evenodd" clip-rule="evenodd" d="M219.878 90.7252L203.844 94.798L201.597 86.1476L219.878 90.7252Z" fill="#026363"/>
<path fill-rule="evenodd" clip-rule="evenodd" d="M295.168 80.5184L309.334 72.6091L314.114 80.3759L295.168 80.5184Z" fill="#026363"/>
<path fill-rule="evenodd" clip-rule="evenodd" d="M314.646 82.7379C309.782 83.5593 305.089 80.6503 304.164 76.2403C303.239 71.8309 306.433 67.5902 311.296 66.7688C316.16 65.9478 320.852 68.8571 321.778 73.2665C322.703 77.6758 319.51 81.9169 314.646 82.7379" fill="#FEBE10"/>
<path fill-rule="evenodd" clip-rule="evenodd" d="M319.087 73.5935C318.528 70.5191 315.328 68.5392 311.956 69.1782C308.583 69.8185 306.295 72.8395 306.855 75.9142C307.414 78.9875 310.614 80.9681 313.987 80.3278C317.359 79.6889 319.647 76.6671 319.087 73.5935M305.567 76.1582C304.89 72.4367 307.658 68.7798 311.742 68.0055C315.824 67.2308 319.697 69.628 320.375 73.3495C321.052 77.0699 318.283 80.7268 314.201 81.5015C310.117 82.2755 306.245 79.879 305.567 76.1582" fill="#BA8000"/>
<path fill-rule="evenodd" clip-rule="evenodd" d="M308.862 74.946L309.791 74.7888C309.73 74.3437 309.712 73.9783 309.737 73.693C309.763 73.4074 309.793 73.1698 309.829 72.9797L311.361 72.7209L311.687 74.2655C311.531 74.2914 311.421 74.3387 311.359 74.4081C311.295 74.4769 311.283 74.5999 311.32 74.7778C311.352 74.9325 311.401 75.0377 311.467 75.095C311.532 75.1515 311.616 75.1713 311.72 75.1538C311.793 75.1419 311.849 75.1043 311.893 75.0411C311.935 74.9781 311.975 74.8584 312.014 74.6831C312.086 74.3116 312.161 73.9862 312.238 73.7031C312.314 73.4214 312.415 73.1815 312.54 72.9833C312.664 72.7854 312.824 72.6266 313.021 72.5058C313.217 72.3856 313.467 72.3001 313.773 72.2486C314.025 72.2061 314.263 72.1979 314.485 72.226C314.707 72.2541 314.913 72.3247 315.099 72.4389C315.287 72.5525 315.454 72.7159 315.603 72.9285C315.752 73.1404 315.879 73.4118 315.986 73.7433L316.877 73.5928L317.069 74.5126L316.195 74.6602C316.225 74.8826 316.242 75.0813 316.243 75.2549C316.245 75.4296 316.238 75.5904 316.224 75.7387C316.21 75.8863 316.19 76.0225 316.166 76.1482C316.141 76.2736 316.111 76.3778 316.075 76.4616L314.69 76.6954L314.38 75.2214C314.529 75.1951 314.624 75.1411 314.662 75.0567C314.701 74.9727 314.709 74.8772 314.686 74.7694C314.654 74.6152 314.608 74.5075 314.55 74.4464C314.492 74.3864 314.409 74.3657 314.301 74.3833C314.212 74.3989 314.155 74.4454 314.13 74.5251C314.103 74.6048 314.08 74.7215 314.059 74.875C314.017 75.1636 313.968 75.4373 313.91 75.6969C313.852 75.9554 313.762 76.1901 313.641 76.3995C313.519 76.6094 313.356 76.7861 313.151 76.9297C312.946 77.0737 312.677 77.1731 312.347 77.2287C311.754 77.3292 311.261 77.2501 310.867 76.9919C310.473 76.734 310.181 76.3056 309.992 75.7075L309.055 75.8652L308.862 74.946Z" fill="#BA8000"/>
<path fill-rule="evenodd" clip-rule="evenodd" d="M237.567 68.5257L228.396 58.2686L224.888 64.2616L237.567 68.5257Z" fill="#026363"/>
<path fill-rule="evenodd" clip-rule="evenodd" d="M241.046 63.438C253.213 54.5338 233.396 41.6561 245.562 32.7515C251.486 33.4874 257.409 34.2229 263.331 34.9581C251.165 43.863 270.981 56.74 258.814 65.6446C252.892 64.9091 246.969 64.1736 241.046 63.438" fill="#8CC53F"/>
<path fill-rule="evenodd" clip-rule="evenodd" d="M246.57 35.9569C241.212 43.811 252.209 53.4143 246.852 61.2684C250.504 61.6582 254.156 62.0488 257.808 62.4397C263.165 54.5856 252.168 44.9823 257.525 37.1282C253.873 36.7383 250.222 36.3478 246.57 35.9569M245.013 62.1018C252.313 53.7685 238.915 43.2219 246.214 34.8882C250.598 35.3573 254.981 35.8257 259.364 36.2944C252.064 44.6281 265.463 55.174 258.164 63.5077C253.78 63.0386 249.396 62.5706 245.013 62.1018" fill="#517820"/>
<path fill-rule="evenodd" clip-rule="evenodd" d="M253.501 53.277C251.17 52.9875 248.766 50.9355 247.942 48.6716C247.118 46.4062 248.517 44.8274 250.876 45.1196C253.207 45.4098 255.611 47.4611 256.435 49.7261C257.259 51.9904 255.86 53.5703 253.501 53.277" fill="#517820"/>
<path fill-rule="evenodd" clip-rule="evenodd" d="M324.324 66.3114C323.603 67.5442 321.912 68.0098 320.549 67.3513C319.185 66.6928 318.665 65.1594 319.387 63.9266C320.108 62.6938 321.799 62.2282 323.162 62.8867C324.526 63.5452 325.046 65.0786 324.324 66.3114" fill="white"/>
<path fill-rule="evenodd" clip-rule="evenodd" d="M324.067 61.3398C323.835 61.2278 323.746 60.9664 323.869 60.7561L325.985 57.1412C326.108 56.9309 326.397 56.852 326.629 56.964C326.861 57.0763 326.95 57.3374 326.827 57.5477L324.711 61.1626C324.588 61.3729 324.3 61.4521 324.067 61.3398" fill="white"/>
<path fill-rule="evenodd" clip-rule="evenodd" d="M330.23 69.6519L326.232 67.721C326 67.6087 325.911 67.3476 326.034 67.1373C326.157 66.927 326.445 66.8477 326.678 66.9601L330.676 68.891C330.908 69.003 330.996 69.2641 330.873 69.4744C330.75 69.6846 330.462 69.7639 330.23 69.6519" fill="white"/>
<path fill-rule="evenodd" clip-rule="evenodd" d="M317.082 73.2718C316.851 73.1598 316.761 72.8983 316.884 72.6881L319 69.0738C319.123 68.8636 319.412 68.7846 319.643 68.8966C319.876 69.0089 319.965 69.27 319.842 69.4803L317.726 73.0945C317.603 73.3048 317.315 73.3841 317.082 73.2718" fill="white"/>
<path fill-rule="evenodd" clip-rule="evenodd" d="M317.033 63.2779L313.035 61.347C312.802 61.2347 312.714 60.9736 312.837 60.7633C312.96 60.553 313.248 60.4737 313.48 60.586L317.478 62.517C317.711 62.6293 317.8 62.8904 317.676 63.1007C317.553 63.311 317.266 63.3903 317.033 63.2779" fill="white"/>
<path fill-rule="evenodd" clip-rule="evenodd" d="M326.237 64.2306C326.13 64.179 326.044 64.0892 326.005 63.976C325.928 63.7475 326.068 63.507 326.32 63.4378L329.104 62.6703C329.355 62.6007 329.621 62.7296 329.699 62.9574C329.776 63.1859 329.635 63.4264 329.384 63.4956L326.6 64.2634C326.475 64.2974 326.344 64.2825 326.237 64.2306" fill="white"/>
<path fill-rule="evenodd" clip-rule="evenodd" d="M323.907 72.1994C323.799 72.1474 323.712 72.0583 323.675 71.9448L322.817 69.42C322.74 69.1922 322.881 68.951 323.132 68.8818C323.383 68.8126 323.65 68.9415 323.727 69.1693L324.584 71.6937C324.661 71.9215 324.521 72.162 324.269 72.2319C324.143 72.2665 324.014 72.2513 323.907 72.1994" fill="white"/>
<path fill-rule="evenodd" clip-rule="evenodd" d="M314.245 67.5332C314.137 67.4813 314.051 67.3922 314.013 67.2786C313.935 67.0498 314.076 66.8093 314.328 66.7404L317.111 65.9739C317.362 65.9047 317.629 66.0335 317.706 66.2614C317.783 66.4892 317.642 66.7304 317.391 66.7996L314.607 67.5657C314.482 67.6003 314.352 67.5848 314.245 67.5332" fill="white"/>
<path fill-rule="evenodd" clip-rule="evenodd" d="M320.215 61.3227C320.109 61.2711 320.022 61.1813 319.983 61.068L319.127 58.5423C319.049 58.3142 319.19 58.0736 319.442 58.0042C319.693 57.9346 319.96 58.0634 320.037 58.2913L320.893 60.8173C320.971 61.0452 320.83 61.2857 320.578 61.3555C320.453 61.3895 320.323 61.3746 320.215 61.3227" fill="white"/>
<path fill-rule="evenodd" clip-rule="evenodd" d="M293.486 79.5416L293.485 79.5413C293.185 79.3957 293.071 79.0579 293.23 78.7859C293.243 78.7629 293.57 78.2083 294.187 77.3152C294.367 77.0544 294.748 76.972 295.035 77.14C295.324 77.304 295.411 77.6487 295.232 77.9093C294.64 78.7657 294.321 79.3078 294.318 79.313C294.158 79.5841 293.786 79.6866 293.486 79.5416" fill="white"/>
<path fill-rule="evenodd" clip-rule="evenodd" d="M306.343 67.1254C306.244 67.0783 306.16 67.0048 306.103 66.9091C305.945 66.641 306.058 66.2978 306.356 66.1417C307.429 65.5796 308.519 65.114 309.598 64.7599C309.919 64.6538 310.261 64.804 310.363 65.0952C310.466 65.3864 310.289 65.7075 309.967 65.8129C308.959 66.1447 307.937 66.5808 306.928 67.1101C306.738 67.2095 306.518 67.2087 306.343 67.1254M300.862 70.8625C300.806 70.8358 300.755 70.8022 300.71 70.7586C300.484 70.54 300.5 70.1866 300.747 69.9695C301.626 69.1949 302.526 68.4794 303.421 67.8453C303.691 67.6533 304.071 67.6944 304.27 67.9352C304.467 68.1764 304.408 68.5279 304.137 68.7195C303.278 69.3288 302.414 70.0145 301.568 70.7599C301.37 70.9349 301.084 70.9684 300.862 70.8625M296.341 75.5523C296.315 75.5398 296.29 75.5254 296.267 75.509C296.002 75.3316 295.953 74.9838 296.158 74.7325C296.867 73.8602 297.607 73.0167 298.358 72.2262C298.581 71.9906 298.966 71.959 299.211 72.1552C299.458 72.3534 299.477 72.7037 299.253 72.9397C298.523 73.708 297.803 74.5277 297.113 75.3771C296.928 75.6046 296.598 75.6747 296.341 75.5523" fill="white"/>
<path fill-rule="evenodd" clip-rule="evenodd" d="M312.855 65.1266C312.681 65.0427 312.554 64.8849 312.531 64.6951C312.492 64.3889 312.735 64.1129 313.073 64.0798C313.713 64.0171 314.36 63.9896 314.995 63.9998C315.336 64.0034 315.607 64.2583 315.603 64.5665C315.598 64.8743 315.32 65.1201 314.979 65.1148C314.395 65.1059 313.801 65.1307 313.211 65.1889C313.083 65.2015 312.961 65.1778 312.855 65.1266" fill="white"/>
<path fill-rule="evenodd" clip-rule="evenodd" d="M287.732 43.3886C287.796 48.0159 283.708 51.7985 278.602 51.8391C273.495 51.8794 269.304 48.1618 269.24 43.5345C269.175 38.9069 273.263 35.1243 278.37 35.0837C283.477 35.0434 287.669 38.7614 287.732 43.3886" fill="#FEBE10"/>
<path fill-rule="evenodd" clip-rule="evenodd" d="M278.555 37.5907C275.029 37.6874 272.129 40.3998 272.09 43.6367C272.051 46.8735 274.89 49.4292 278.416 49.3325C281.942 49.2365 284.842 46.5241 284.882 43.2866C284.92 40.0497 282.082 37.4941 278.555 37.5907M278.401 50.568C274.132 50.6855 270.698 47.5922 270.744 43.6733C270.79 39.7548 274.302 36.472 278.57 36.3552C282.839 36.2384 286.273 39.331 286.227 43.2499C286.181 47.1691 282.67 50.4522 278.401 50.568" fill="#BA8000"/>
<path fill-rule="evenodd" clip-rule="evenodd" d="M277.978 47.2785L277.966 46.3944C277.455 46.3686 277.043 46.3185 276.728 46.2422C276.412 46.1665 276.15 46.0948 275.944 46.0271L275.924 44.5686L277.713 44.5543C277.715 44.702 277.749 44.8118 277.814 44.8813C277.881 44.9523 278.016 44.9866 278.222 44.985C278.402 44.984 278.528 44.9591 278.603 44.9093C278.679 44.8588 278.716 44.7851 278.714 44.6864C278.713 44.6177 278.681 44.5583 278.619 44.5071C278.555 44.4562 278.428 44.3974 278.238 44.3298C277.835 44.195 277.482 44.0661 277.179 43.9434C276.876 43.8207 276.625 43.6842 276.426 43.533C276.226 43.3825 276.075 43.2052 275.975 43.0028C275.875 42.7994 275.824 42.5535 275.818 42.2628C275.815 42.0228 275.848 41.8026 275.92 41.6038C275.99 41.4042 276.105 41.2287 276.266 41.0773C276.426 40.9263 276.639 40.8012 276.903 40.704C277.167 40.6061 277.494 40.5384 277.885 40.501L277.873 39.6542L278.937 39.6455L278.949 40.4773C279.204 40.4909 279.429 40.5121 279.625 40.5425C279.821 40.5733 279.999 40.6086 280.164 40.6493C280.327 40.6893 280.476 40.7326 280.612 40.7782C280.748 40.8235 280.86 40.8709 280.947 40.918L280.965 42.2375L279.258 42.2508C279.257 42.1085 279.212 42.0121 279.125 41.9613C279.037 41.9098 278.93 41.8852 278.806 41.8859C278.627 41.8872 278.499 41.9094 278.421 41.9518C278.343 41.9942 278.304 42.0666 278.306 42.1696C278.306 42.2539 278.35 42.3146 278.434 42.3533C278.519 42.3921 278.646 42.4355 278.814 42.4833C279.129 42.574 279.428 42.6692 279.708 42.7701C279.989 42.8712 280.236 42.9972 280.45 43.1478C280.663 43.2986 280.833 43.4817 280.957 43.696C281.083 43.9117 281.147 44.1762 281.151 44.4909C281.16 45.0557 280.984 45.495 280.625 45.8098C280.265 46.125 279.734 46.3143 279.03 46.3791L279.043 47.2702L277.978 47.2785Z" fill="#BA8000"/>
<mask id="mask1_1318_62978" style="mask-type:luminance" maskUnits="userSpaceOnUse" x="168" y="-7" width="184" height="146">
<path fill-rule="evenodd" clip-rule="evenodd" d="M269.912 -6.59219L211.839 28.0233C208.191 30.1983 208.467 35.1264 212.345 36.9992V36.9992L221.904 41.6158C225.795 43.4953 226.057 48.4472 222.382 50.6099V50.6099L168.101 82.5388L280.844 136.99C287.323 140.119 295.347 137.923 298.765 132.084V132.084L349.502 45.4092C352.92 39.5698 350.437 32.2992 343.958 29.1699V29.1699L269.912 -6.59219Z" fill="white"/>
</mask>
<g mask="url(#mask1_1318_62978)">
<path fill-rule="evenodd" clip-rule="evenodd" d="M303.435 84.3141C303.435 84.3141 302.779 81.6051 301.249 81.3823C296.352 80.668 295.564 82.407 290.718 81.4409C285.872 80.4755 286.711 78.4843 281.865 77.5188C277.022 76.5531 276.184 78.5441 271.341 77.5787C266.497 76.614 267.335 74.6224 262.491 73.6564C257.648 72.6917 256.809 74.6829 251.967 73.7175C247.126 72.7529 247.826 71.7622 242.984 70.7972L239.298 71.5601L234.505 71.9611L238.718 80.5135L284.459 89.8672L292.574 84.8634L294.826 84.192L303.435 84.3141Z" fill="#517820"/>
</g>
<mask id="mask2_1318_62978" style="mask-type:luminance" maskUnits="userSpaceOnUse" x="168" y="-7" width="184" height="146">
<path fill-rule="evenodd" clip-rule="evenodd" d="M269.912 -6.59219L211.839 28.0233C208.191 30.1983 208.467 35.1264 212.345 36.9992V36.9992L221.904 41.6158C225.795 43.4953 226.057 48.4472 222.382 50.6099V50.6099L168.101 82.5388L280.844 136.99C287.323 140.119 295.347 137.923 298.765 132.084V132.084L349.502 45.4092C352.92 39.5698 350.437 32.2992 343.958 29.1699V29.1699L269.912 -6.59219Z" fill="white"/>
</mask>
<g mask="url(#mask2_1318_62978)">
<path fill-rule="evenodd" clip-rule="evenodd" d="M210.679 156.619L279.539 177.394L292.575 84.8634C287.733 83.7879 286.695 87.708 281.853 86.6324C277.012 85.5566 278.05 81.6365 273.209 80.5607C268.371 79.4856 267.332 83.4059 262.495 82.3312C257.655 81.2557 258.694 77.336 253.854 76.2608C249.016 75.1854 247.978 79.1055 243.14 78.0304C238.303 76.9563 239.342 73.0359 234.505 71.9612L210.679 156.619Z" fill="#C1DF65"/>
</g>
<mask id="mask3_1318_62978" style="mask-type:luminance" maskUnits="userSpaceOnUse" x="168" y="-7" width="184" height="146">
<path fill-rule="evenodd" clip-rule="evenodd" d="M269.912 -6.59219L211.839 28.0233C208.191 30.1983 208.467 35.1264 212.345 36.9992V36.9992L221.904 41.6158C225.795 43.4953 226.057 48.4472 222.382 50.6099V50.6099L168.101 82.5388L280.844 136.99C287.323 140.119 295.347 137.923 298.765 132.084V132.084L349.502 45.4092C352.92 39.5698 350.437 32.2992 343.958 29.1699V29.1699L269.912 -6.59219Z" fill="white"/>
</mask>
<g mask="url(#mask3_1318_62978)">
<path fill-rule="evenodd" clip-rule="evenodd" d="M303.559 169.713L303.436 84.3144L294.827 84.1917L292.575 84.8627L279.539 177.394L303.559 169.713Z" fill="#C1DF65"/>
</g>
<mask id="mask4_1318_62978" style="mask-type:luminance" maskUnits="userSpaceOnUse" x="168" y="-7" width="184" height="146">
<path fill-rule="evenodd" clip-rule="evenodd" d="M269.912 -6.59219L211.839 28.0233C208.191 30.1983 208.467 35.1264 212.345 36.9992V36.9992L221.904 41.6158C225.795 43.4953 226.057 48.4472 222.382 50.6099V50.6099L168.101 82.5388L280.844 136.99C287.323 140.119 295.347 137.923 298.765 132.084V132.084L349.502 45.4092C352.92 39.5698 350.437 32.2992 343.958 29.1699V29.1699L269.912 -6.59219Z" fill="white"/>
</mask>
<g mask="url(#mask4_1318_62978)">
<path fill-rule="evenodd" clip-rule="evenodd" d="M294.827 84.1916L290.43 164.216L279.539 177.393L292.574 84.8625L294.827 84.1916Z" fill="#B4C64A"/>
</g>
<mask id="mask5_1318_62978" style="mask-type:luminance" maskUnits="userSpaceOnUse" x="168" y="-7" width="184" height="146">
<path fill-rule="evenodd" clip-rule="evenodd" d="M269.912 -6.59219L211.839 28.0233C208.191 30.1983 208.467 35.1264 212.345 36.9992V36.9992L221.904 41.6158C225.795 43.4953 226.057 48.4472 222.382 50.6099V50.6099L168.101 82.5388L280.844 136.99C287.323 140.119 295.347 137.923 298.765 132.084V132.084L349.502 45.4092C352.92 39.5698 350.437 32.2992 343.958 29.1699V29.1699" fill="white"/>
</mask>
<g mask="url(#mask5_1318_62978)">
<path fill-rule="evenodd" clip-rule="evenodd" d="M248.713 85.1387C248.53 86.4657 247.191 87.399 245.724 87.2247C244.256 87.0501 243.214 85.8337 243.398 84.507C243.58 83.1807 244.92 82.2467 246.387 82.421C247.855 82.5963 248.896 83.8127 248.713 85.1387" fill="#517820"/>
</g>
<mask id="mask6_1318_62978" style="mask-type:luminance" maskUnits="userSpaceOnUse" x="168" y="-7" width="184" height="146">
<path fill-rule="evenodd" clip-rule="evenodd" d="M269.912 -6.59219L211.839 28.0233C208.191 30.1983 208.467 35.1264 212.345 36.9992V36.9992L221.904 41.6158C225.795 43.4953 226.057 48.4472 222.382 50.6099V50.6099L168.101 82.5388L280.844 136.99C287.323 140.119 295.347 137.923 298.765 132.084V132.084L349.502 45.4092C352.92 39.5698 350.437 32.2992 343.958 29.1699V29.1699L269.912 -6.59219Z" fill="white"/>
</mask>
<g mask="url(#mask6_1318_62978)">
<path fill-rule="evenodd" clip-rule="evenodd" d="M292.574 84.8633C290.486 84.3991 289.106 84.866 287.822 85.4596C285.287 99.6465 271.704 153.544 212.022 151.851L210.68 156.619L279.539 177.394L292.574 84.8633Z" fill="#C1DF65"/>
</g>
<mask id="mask7_1318_62978" style="mask-type:luminance" maskUnits="userSpaceOnUse" x="168" y="-7" width="184" height="146">
<path fill-rule="evenodd" clip-rule="evenodd" d="M269.912 -6.59219L211.839 28.0233C208.191 30.1983 208.467 35.1264 212.345 36.9992V36.9992L221.904 41.6158C225.795 43.4953 226.057 48.4472 222.382 50.6099V50.6099L168.101 82.5388L280.844 136.99C287.323 140.119 295.347 137.923 298.765 132.084V132.084L349.502 45.4092C352.92 39.5698 350.437 32.2992 343.958 29.1699V29.1699" fill="white"/>
</mask>
<g mask="url(#mask7_1318_62978)">
<path fill-rule="evenodd" clip-rule="evenodd" d="M299.02 101.419C298.796 103.032 297.168 104.168 295.382 103.956C293.597 103.744 292.329 102.263 292.552 100.65C292.776 99.0362 294.404 97.9005 296.19 98.113C297.976 98.3249 299.243 99.8049 299.02 101.419" fill="#828C26"/>
</g>
<mask id="mask8_1318_62978" style="mask-type:luminance" maskUnits="userSpaceOnUse" x="168" y="-7" width="184" height="146">
<path fill-rule="evenodd" clip-rule="evenodd" d="M269.912 -6.59219L211.839 28.0233C208.191 30.1983 208.467 35.1264 212.345 36.9992V36.9992L221.904 41.6158C225.795 43.4953 226.057 48.4472 222.382 50.6099V50.6099L168.101 82.5388L280.844 136.99C287.323 140.119 295.347 137.923 298.765 132.084V132.084L349.502 45.4092C352.92 39.5698 350.437 32.2992 343.958 29.1699V29.1699" fill="white"/>
</mask>
<g mask="url(#mask8_1318_62978)">
<path fill-rule="evenodd" clip-rule="evenodd" d="M255.086 99.1663C254.804 101.207 252.745 102.643 250.486 102.374C248.229 102.106 246.627 100.235 246.909 98.1943C247.191 96.1547 249.25 94.7176 251.509 94.9863C253.766 95.2543 255.368 97.1264 255.086 99.1663" fill="#828C26"/>
</g>
<mask id="mask9_1318_62978" style="mask-type:luminance" maskUnits="userSpaceOnUse" x="168" y="-7" width="184" height="146">
<path fill-rule="evenodd" clip-rule="evenodd" d="M269.912 -6.59219L211.839 28.0233C208.191 30.1983 208.467 35.1264 212.345 36.9992V36.9992L221.904 41.6158C225.795 43.4953 226.057 48.4472 222.382 50.6099V50.6099L168.101 82.5388L280.844 136.99C287.323 140.119 295.347 137.923 298.765 132.084V132.084L349.502 45.4092C352.92 39.5698 350.437 32.2992 343.958 29.1699V29.1699" fill="white"/>
</mask>
<g mask="url(#mask9_1318_62978)">
<path fill-rule="evenodd" clip-rule="evenodd" d="M230.462 110.625C230.906 107.408 228.872 104.419 225.709 103.216L221.913 116.707C226.125 117.133 229.935 114.439 230.462 110.625" fill="#828C26"/>
</g>
<mask id="mask10_1318_62978" style="mask-type:luminance" maskUnits="userSpaceOnUse" x="168" y="-7" width="184" height="146">
<path fill-rule="evenodd" clip-rule="evenodd" d="M269.912 -6.59219L211.839 28.0233C208.191 30.1983 208.467 35.1264 212.345 36.9992V36.9992L221.904 41.6158C225.795 43.4953 226.057 48.4472 222.382 50.6099V50.6099L168.101 82.5388L280.844 136.99C287.323 140.119 295.347 137.923 298.765 132.084V132.084L349.502 45.4092C352.92 39.5698 350.437 32.2992 343.958 29.1699V29.1699L269.912 -6.59219Z" fill="white"/>
</mask>
<g mask="url(#mask10_1318_62978)">
<path fill-rule="evenodd" clip-rule="evenodd" d="M289.108 109.472C288.476 109.232 287.804 109.057 287.094 108.973C282.821 108.465 278.924 111.182 278.391 115.044C277.858 118.904 280.889 122.445 285.162 122.953C285.86 123.036 286.544 123.026 287.21 122.945L289.108 109.472Z" fill="#828C26"/>
</g>
<mask id="mask11_1318_62978" style="mask-type:luminance" maskUnits="userSpaceOnUse" x="168" y="-7" width="184" height="146">
<path fill-rule="evenodd" clip-rule="evenodd" d="M269.912 -6.59219L211.839 28.0233C208.191 30.1983 208.467 35.1264 212.345 36.9992V36.9992L221.904 41.6158C225.795 43.4953 226.057 48.4472 222.382 50.6099V50.6099L168.101 82.5388L280.844 136.99C287.323 140.119 295.347 137.923 298.765 132.084V132.084L349.502 45.4092C352.92 39.5698 350.437 32.2992 343.958 29.1699V29.1699L269.912 -6.59219Z" fill="white"/>
</mask>
<g mask="url(#mask11_1318_62978)">
<path fill-rule="evenodd" clip-rule="evenodd" d="M231.306 83.3298C234.436 82.7217 236.94 80.3992 237.36 77.3617C237.608 75.5701 237.08 73.8513 236.024 72.4691C235.59 72.265 235.093 72.0911 234.506 71.9606L231.306 83.3298Z" fill="#828C26"/>
</g>
<mask id="mask12_1318_62978" style="mask-type:luminance" maskUnits="userSpaceOnUse" x="168" y="-7" width="184" height="146">
<path fill-rule="evenodd" clip-rule="evenodd" d="M269.912 -6.59219L211.839 28.0233C208.191 30.1983 208.467 35.1264 212.345 36.9992V36.9992L221.904 41.6158C225.795 43.4953 226.057 48.4472 222.382 50.6099V50.6099L168.101 82.5388L280.844 136.99C287.323 140.119 295.347 137.923 298.765 132.084V132.084L349.502 45.4092C352.92 39.5698 350.437 32.2992 343.958 29.1699V29.1699" fill="white"/>
</mask>
<g mask="url(#mask12_1318_62978)">
<path fill-rule="evenodd" clip-rule="evenodd" d="M270.581 89.4007C270.048 93.261 273.079 96.8025 277.352 97.3105C281.625 97.8191 285.521 95.1004 286.055 91.2399C286.284 89.5749 285.85 87.9723 284.94 86.6438C284.074 86.8539 283.088 86.9061 281.853 86.6315C279.259 86.0554 278.352 84.6631 277.325 83.3283C273.879 83.7065 271.032 86.143 270.581 89.4007" fill="#828C26"/>
</g>
<mask id="mask13_1318_62978" style="mask-type:luminance" maskUnits="userSpaceOnUse" x="168" y="-7" width="184" height="146">
<path fill-rule="evenodd" clip-rule="evenodd" d="M269.912 -6.59219L211.839 28.0233C208.191 30.1983 208.467 35.1264 212.345 36.9992V36.9992L221.904 41.6158C225.795 43.4953 226.057 48.4472 222.382 50.6099V50.6099L168.101 82.5388L280.844 136.99C287.323 140.119 295.347 137.923 298.765 132.084V132.084L349.502 45.4092C352.92 39.5698 350.437 32.2992 343.958 29.1699V29.1699" fill="white"/>
</mask>
<g mask="url(#mask13_1318_62978)">
<path fill-rule="evenodd" clip-rule="evenodd" d="M278.274 90.638C278.091 91.9643 276.752 92.8983 275.284 92.724C273.816 92.5494 272.775 91.333 272.958 90.0063C273.141 88.68 274.48 87.746 275.947 87.9203C277.416 88.095 278.457 89.312 278.274 90.638" fill="#517820"/>
</g>
<mask id="mask14_1318_62978" style="mask-type:luminance" maskUnits="userSpaceOnUse" x="168" y="-7" width="184" height="146">
<path fill-rule="evenodd" clip-rule="evenodd" d="M269.912 -6.59219L211.839 28.0233C208.191 30.1983 208.467 35.1264 212.345 36.9992V36.9992L221.904 41.6158C225.795 43.4953 226.057 48.4472 222.382 50.6099V50.6099L168.101 82.5388L280.844 136.99C287.323 140.119 295.347 137.923 298.765 132.084V132.084L349.502 45.4092C352.92 39.5698 350.437 32.2992 343.958 29.1699V29.1699L269.912 -6.59219Z" fill="white"/>
</mask>
<g mask="url(#mask14_1318_62978)">
<path fill-rule="evenodd" clip-rule="evenodd" d="M303.558 169.713L290.43 164.216L294.827 84.1915L303.435 84.3142L303.558 169.713Z" fill="#98AA30"/>
</g>
<mask id="mask15_1318_62978" style="mask-type:luminance" maskUnits="userSpaceOnUse" x="168" y="-7" width="184" height="146">
<path fill-rule="evenodd" clip-rule="evenodd" d="M269.912 -6.59219L211.839 28.0233C208.191 30.1983 208.467 35.1264 212.345 36.9992V36.9992L221.904 41.6158C225.795 43.4953 226.057 48.4472 222.382 50.6099V50.6099L168.101 82.5388L280.844 136.99C287.323 140.119 295.347 137.923 298.765 132.084V132.084L349.502 45.4092C352.92 39.5698 350.437 32.2992 343.958 29.1699V29.1699" fill="white"/>
</mask>
<g mask="url(#mask15_1318_62978)">
<path fill-rule="evenodd" clip-rule="evenodd" d="M228.997 106.27C228.997 106.27 231.414 90.1385 242.222 91.7019C253.03 93.2649 276.428 97.025 276.763 101.373C277.096 105.721 249.737 141.438 226.43 145.13C221.281 145.888 228.997 106.27 228.997 106.27" fill="white"/>
</g>
<mask id="mask16_1318_62978" style="mask-type:luminance" maskUnits="userSpaceOnUse" x="168" y="-7" width="184" height="146">
<path fill-rule="evenodd" clip-rule="evenodd" d="M269.912 -6.59219L211.839 28.0233C208.191 30.1983 208.467 35.1264 212.345 36.9992V36.9992L221.904 41.6158C225.795 43.4953 226.057 48.4472 222.382 50.6099V50.6099L168.101 82.5388L280.844 136.99C287.323 140.119 295.347 137.923 298.765 132.084V132.084L349.502 45.4092C352.92 39.5698 350.437 32.2992 343.958 29.1699V29.1699" fill="white"/>
</mask>
<g mask="url(#mask16_1318_62978)">
<path fill-rule="evenodd" clip-rule="evenodd" d="M246.175 84.3826C246.243 84.3906 246.312 84.4046 246.381 84.4252C246.967 84.6004 247.289 85.1706 247.1 85.7009C247.036 85.8766 240.836 103.497 246.828 112.041C248.609 114.579 251.233 116.022 254.854 116.453C258.766 116.918 262.172 116.068 264.98 113.926C273.357 107.536 274.102 91.8216 274.11 91.6629C274.133 91.1062 274.651 90.6747 275.267 90.6988C275.89 90.7095 276.364 91.1948 276.34 91.7515C276.312 92.4339 275.543 108.518 266.425 115.473C263.122 117.992 259.136 118.996 254.577 118.454C250.314 117.947 247.074 116.15 244.944 113.113C238.39 103.763 244.703 85.8258 244.976 85.0666C245.143 84.5987 245.653 84.3205 246.175 84.3826" fill="#594A42"/>
</g>
</g>
</g>
<defs>
<linearGradient id="paint0_linear_1318_62978" x1="335" y1="109" x2="-4.61898" y2="91.9374" gradientUnits="userSpaceOnUse">
<stop stop-color="#8C5898"/>
<stop offset="0.98" stop-color="#6768AB"/>
</linearGradient>
</defs>
</svg>
