<svg width="335" height="109" viewBox="0 0 335 109" fill="none" xmlns="http://www.w3.org/2000/svg">
<rect width="335" height="109" rx="12" fill="url(#paint0_linear_1318_61070)"/>
<mask id="mask0_1318_61070" style="mask-type:luminance" maskUnits="userSpaceOnUse" x="0" y="0" width="335" height="109">
<rect width="335" height="109" rx="12" fill="white"/>
</mask>
<g mask="url(#mask0_1318_61070)">
<g opacity="0.15">
<path fill-rule="evenodd" clip-rule="evenodd" d="M336.287 45.7831L332.669 49.422L332.91 54.325L327.96 52.3184L322.889 54.025L323.449 49.146L320.073 45.2976L325.369 44.2887L328.354 40.2041L331.066 44.4596L336.287 45.7831Z" fill="#026363"/>
<path fill-rule="evenodd" clip-rule="evenodd" d="M312.343 31.5997C311.379 33.2458 309.122 33.8682 307.301 32.9889C305.48 32.1093 304.785 30.0611 305.749 28.415C306.713 26.7682 308.97 26.1465 310.792 27.0261C312.612 27.9054 313.307 29.953 312.343 31.5997" fill="white"/>
<path fill-rule="evenodd" clip-rule="evenodd" d="M311.999 24.9625C311.688 24.8126 311.571 24.4642 311.735 24.1836L314.561 19.3556C314.725 19.075 315.109 18.9688 315.419 19.1186C315.731 19.2689 315.848 19.6173 315.684 19.8979L312.858 24.7259C312.694 25.0065 312.31 25.1127 311.999 24.9625" fill="white"/>
<path fill-rule="evenodd" clip-rule="evenodd" d="M320.23 36.0611L314.891 33.4826C314.581 33.333 314.462 32.9839 314.626 32.7033C314.791 32.422 315.176 32.3171 315.486 32.4666L320.825 35.0452C321.136 35.1954 321.254 35.5432 321.089 35.8245C320.925 36.1051 320.541 36.2113 320.23 36.0611" fill="white"/>
<path fill-rule="evenodd" clip-rule="evenodd" d="M302.671 40.8967C302.361 40.7469 302.243 40.3984 302.408 40.1178L305.233 35.2912C305.397 35.0106 305.781 34.9043 306.091 35.0542C306.402 35.2044 306.52 35.5529 306.356 35.8335L303.53 40.6601C303.366 40.9407 302.982 41.047 302.671 40.8967" fill="white"/>
<path fill-rule="evenodd" clip-rule="evenodd" d="M302.606 27.5494L297.266 24.9705C296.957 24.821 296.838 24.4722 297.002 24.1916C297.167 23.9103 297.551 23.805 297.861 23.9546L303.201 26.5335C303.512 26.6837 303.63 27.0315 303.465 27.3128C303.301 27.5934 302.917 27.6996 302.606 27.5494" fill="white"/>
<path fill-rule="evenodd" clip-rule="evenodd" d="M314.897 28.822C314.753 28.7525 314.639 28.633 314.587 28.4808C314.483 28.177 314.672 27.855 315.007 27.7626L318.726 26.7379C319.061 26.6461 319.416 26.8178 319.52 27.1216C319.622 27.4263 319.434 27.7477 319.099 27.8405L315.382 28.8648C315.214 28.911 315.04 28.8911 314.897 28.822" fill="white"/>
<path fill-rule="evenodd" clip-rule="evenodd" d="M311.786 39.4654C311.642 39.3962 311.527 39.2764 311.476 39.1246L310.331 35.753C310.229 35.4489 310.417 35.1275 310.752 35.0347C311.087 34.9423 311.443 35.1139 311.547 35.4187L312.691 38.79C312.794 39.0944 312.606 39.4164 312.27 39.5082C312.103 39.5544 311.929 39.5349 311.786 39.4654" fill="white"/>
<path fill-rule="evenodd" clip-rule="evenodd" d="M298.882 33.2333C298.739 33.1641 298.624 33.0443 298.572 32.8921C298.468 32.5883 298.657 32.2663 298.992 32.1738L302.71 31.1509C303.046 31.0584 303.402 31.2301 303.505 31.5345C303.607 31.8386 303.419 32.16 303.084 32.2528L299.367 33.2761C299.199 33.3223 299.026 33.3028 298.882 33.2333" fill="white"/>
<path fill-rule="evenodd" clip-rule="evenodd" d="M306.855 24.9392C306.712 24.8701 306.597 24.7503 306.546 24.5984L305.401 21.2258C305.298 20.9217 305.486 20.6003 305.821 20.5069C306.157 20.4154 306.513 20.5871 306.616 20.8909L307.76 24.2638C307.864 24.5683 307.675 24.8902 307.34 24.982C307.172 25.0283 306.999 25.0087 306.855 24.9392" fill="white"/>
<path fill-rule="evenodd" clip-rule="evenodd" d="M225.14 38.5356C223.579 38.6974 222.164 37.6811 221.982 36.2669C221.797 34.8521 222.913 33.5753 224.473 33.4134C226.035 33.2529 227.449 34.2679 227.633 35.6828C227.816 37.0973 226.7 38.3748 225.14 38.5356" fill="white"/>
<path fill-rule="evenodd" clip-rule="evenodd" d="M229.589 35.4799C229.557 35.2389 229.748 35.0216 230.013 34.9937L234.589 34.521C234.855 34.4935 235.096 34.6663 235.128 34.9074C235.159 35.1494 234.969 35.3661 234.703 35.3935L230.127 35.8663C229.861 35.8938 229.62 35.722 229.589 35.4799" fill="white"/>
<path fill-rule="evenodd" clip-rule="evenodd" d="M225.484 44.942L224.944 40.7947C224.914 40.554 225.103 40.336 225.37 40.3089C225.636 40.2807 225.876 40.4542 225.908 40.6953L226.448 44.8426C226.478 45.0833 226.288 45.3009 226.022 45.3284C225.756 45.3559 225.516 45.1834 225.484 44.942" fill="white"/>
<path fill-rule="evenodd" clip-rule="evenodd" d="M214.486 37.0401C214.454 36.7987 214.644 36.5814 214.91 36.5539L219.486 36.0814C219.751 36.0539 219.992 36.2267 220.024 36.4678C220.055 36.7088 219.865 36.9261 219.599 36.954L215.024 37.4265C214.758 37.454 214.517 37.2811 214.486 37.0401" fill="white"/>
<path fill-rule="evenodd" clip-rule="evenodd" d="M223.704 31.2527L223.164 27.1053C223.134 26.864 223.323 26.6463 223.589 26.6188C223.855 26.5913 224.096 26.7649 224.127 27.0059L224.667 31.1532C224.698 31.3943 224.508 31.6119 224.242 31.6391C223.977 31.6669 223.736 31.4941 223.704 31.2527" fill="white"/>
<path fill-rule="evenodd" clip-rule="evenodd" d="M228.176 38.7908C228.162 38.6791 228.194 38.5626 228.277 38.4676C228.443 38.2774 228.748 38.2465 228.958 38.397L231.288 40.0702C231.498 40.2213 231.534 40.4974 231.368 40.687C231.201 40.8772 230.897 40.9088 230.687 40.7577L228.358 39.0848C228.253 39.0096 228.191 38.9031 228.176 38.7908" fill="white"/>
<path fill-rule="evenodd" clip-rule="evenodd" d="M219.447 41.6066C219.433 41.4953 219.465 41.3784 219.548 41.2835L221.386 39.1805C221.552 38.9903 221.856 38.9594 222.067 39.1098C222.277 39.2609 222.313 39.537 222.147 39.7276L220.309 41.83C220.144 42.0205 219.838 42.0517 219.629 41.9006C219.523 41.8254 219.462 41.7183 219.447 41.6066" fill="white"/>
<path fill-rule="evenodd" clip-rule="evenodd" d="M218.144 31.5839C218.13 31.4726 218.162 31.3557 218.245 31.2607C218.412 31.0709 218.716 31.039 218.926 31.1904L221.254 32.8636C221.465 33.015 221.501 33.2912 221.334 33.4804C221.169 33.671 220.864 33.7025 220.654 33.5515L218.325 31.8779C218.22 31.802 218.159 31.6956 218.144 31.5839" fill="white"/>
<path fill-rule="evenodd" clip-rule="evenodd" d="M227.364 32.5448C227.349 32.4331 227.382 32.3166 227.465 32.2217L229.304 30.1184C229.469 29.9278 229.774 29.8969 229.985 30.0477C230.194 30.1988 230.23 30.4749 230.064 30.6652L228.226 32.7682C228.06 32.9587 227.755 32.9899 227.545 32.8388C227.44 32.7636 227.378 32.6571 227.364 32.5448" fill="white"/>
<path fill-rule="evenodd" clip-rule="evenodd" d="M254.82 15.3692C253.968 16.8247 251.972 17.3745 250.362 16.597C248.751 15.8192 248.138 14.0093 248.99 12.5537C249.842 11.0982 251.837 10.5477 253.448 11.3255C255.057 12.103 255.672 13.9136 254.82 15.3692" fill="white"/>
<path fill-rule="evenodd" clip-rule="evenodd" d="M254.515 9.49986C254.241 9.36753 254.136 9.05903 254.282 8.81064L256.78 4.54257C256.925 4.29483 257.265 4.20116 257.539 4.33349C257.814 4.46617 257.919 4.77467 257.774 5.0224L255.275 9.29047C255.13 9.53887 254.79 9.63254 254.515 9.49986" fill="white"/>
<path fill-rule="evenodd" clip-rule="evenodd" d="M261.793 19.3124L257.073 17.0329C256.798 16.9002 256.693 16.5917 256.838 16.344C256.984 16.0956 257.324 16.0019 257.599 16.1346L262.318 18.4141C262.593 18.5468 262.698 18.8553 262.552 19.1037C262.407 19.3514 262.067 19.4451 261.793 19.3124" fill="white"/>
<path fill-rule="evenodd" clip-rule="evenodd" d="M246.269 23.589C245.995 23.4567 245.891 23.1482 246.036 22.8998L248.534 18.6331C248.679 18.3847 249.019 18.291 249.293 18.4233C249.568 18.556 249.673 18.8645 249.527 19.1129L247.03 23.3797C246.884 23.6281 246.544 23.7217 246.269 23.589" fill="white"/>
<path fill-rule="evenodd" clip-rule="evenodd" d="M246.211 11.7893L241.491 9.50948C241.216 9.3768 241.111 9.06831 241.256 8.82057C241.402 8.57218 241.742 8.4785 242.017 8.61119L246.737 10.891C247.011 11.0233 247.116 11.3318 246.97 11.5802C246.825 11.828 246.485 11.9216 246.211 11.7893" fill="white"/>
<path fill-rule="evenodd" clip-rule="evenodd" d="M257.078 12.9141C256.951 12.8527 256.849 12.7472 256.804 12.6132C256.712 12.344 256.879 12.0594 257.176 11.9777L260.463 11.0719C260.759 10.9898 261.073 11.1418 261.165 11.4109C261.256 11.6808 261.09 11.9646 260.793 12.0464L257.506 12.9522C257.358 12.9929 257.205 12.9755 257.078 12.9141" fill="white"/>
<path fill-rule="evenodd" clip-rule="evenodd" d="M254.327 22.3225C254.2 22.2611 254.098 22.1556 254.053 22.0215L253.041 19.0405C252.95 18.7713 253.116 18.4874 253.413 18.405C253.71 18.3233 254.025 18.4753 254.115 18.7441L255.127 21.7252C255.218 21.9943 255.052 22.2789 254.755 22.3606C254.607 22.4013 254.454 22.3839 254.327 22.3225" fill="white"/>
<path fill-rule="evenodd" clip-rule="evenodd" d="M242.919 16.8139C242.792 16.7524 242.691 16.647 242.645 16.5129C242.554 16.2437 242.72 15.9592 243.017 15.8774L246.304 14.9726C246.6 14.8905 246.915 15.0425 247.006 15.3113C247.097 15.5815 246.931 15.8654 246.634 15.9468L243.347 16.852C243.199 16.8927 243.046 16.8753 242.919 16.8139" fill="white"/>
<path fill-rule="evenodd" clip-rule="evenodd" d="M249.968 9.47941C249.841 9.41798 249.74 9.31252 249.695 9.17879L248.683 6.1967C248.592 5.92753 248.758 5.64365 249.055 5.56126C249.352 5.47952 249.666 5.63151 249.757 5.90033L250.768 8.88207C250.86 9.1516 250.694 9.43614 250.396 9.51752C250.248 9.55823 250.095 9.54083 249.968 9.47941" fill="white"/>
<path fill-rule="evenodd" clip-rule="evenodd" d="M216.892 77.7037C212.028 78.525 207.335 75.616 206.411 71.2064C205.485 66.7967 208.679 62.5559 213.542 61.7346C218.406 60.9136 223.098 63.8229 224.024 68.2322C224.949 72.6416 221.756 76.8827 216.892 77.7037" fill="#FEBE10"/>
<path fill-rule="evenodd" clip-rule="evenodd" d="M221.334 68.5583C220.774 65.4839 217.574 63.504 214.202 64.143C210.829 64.7833 208.541 67.8043 209.101 70.879C209.661 73.9521 212.86 75.933 216.233 75.2927C219.605 74.6537 221.893 71.632 221.334 68.5583M207.813 71.123C207.136 67.4015 209.905 63.7447 213.988 62.9703C218.07 62.1957 221.943 64.5928 222.62 68.314C223.298 72.0348 220.529 75.6917 216.447 76.4663C212.363 77.2403 208.491 74.8438 207.813 71.123" fill="#BA8000"/>
<path fill-rule="evenodd" clip-rule="evenodd" d="M211.108 69.9122L212.037 69.7549C211.976 69.3098 211.958 68.9445 211.983 68.6591C212.009 68.3735 212.04 68.1353 212.075 67.9459L213.608 67.6864L213.933 69.2316C213.777 69.2575 213.667 69.3048 213.605 69.3743C213.542 69.4424 213.529 69.566 213.566 69.7439C213.598 69.8987 213.647 70.0038 213.713 70.0611C213.778 70.1177 213.862 70.1374 213.966 70.1199C214.038 70.1077 214.095 70.0704 214.139 70.0072C214.181 69.9442 214.221 69.8246 214.26 69.6485C214.332 69.2777 214.407 68.9516 214.484 68.6692C214.56 68.3875 214.661 68.147 214.786 67.9494C214.91 67.7515 215.07 67.5928 215.267 67.4719C215.463 67.3517 215.713 67.2662 216.019 67.2147C216.271 67.1722 216.509 67.164 216.731 67.1921C216.953 67.2202 217.159 67.2909 217.345 67.4044C217.533 67.5186 217.7 67.6813 217.849 67.8946C217.998 68.1065 218.125 68.3779 218.232 68.7094L219.123 68.5589L219.316 69.4781L218.441 69.6264C218.47 69.8487 218.487 70.0474 218.489 70.2211C218.491 70.3958 218.484 70.5565 218.47 70.7048C218.456 70.8525 218.436 70.9886 218.412 71.1143C218.387 71.239 218.357 71.3439 218.321 71.427L216.936 71.6615L216.626 70.1876C216.775 70.1612 216.869 70.1072 216.908 70.0228C216.947 69.9388 216.955 69.8427 216.932 69.7355C216.9 69.5807 216.854 69.4736 216.796 69.4125C216.737 69.3521 216.655 69.3318 216.547 69.3495C216.458 69.365 216.401 69.4116 216.376 69.4913C216.349 69.5709 216.325 69.6877 216.305 69.8411C216.263 70.1297 216.214 70.4035 216.156 70.663C216.098 70.9215 216.008 71.1563 215.887 71.3656C215.765 71.5756 215.602 71.7522 215.396 71.8958C215.192 72.0398 214.923 72.1392 214.593 72.1948C214 72.2953 213.507 72.2163 213.113 71.958C212.719 71.7001 212.427 71.2718 212.237 70.6736L211.3 70.8313L211.108 69.9122Z" fill="#BA8000"/>
<path fill-rule="evenodd" clip-rule="evenodd" d="M241.582 72.3166C241.272 72.1671 241.091 71.8477 241.158 71.5194C241.16 71.5112 241.321 70.7223 241.385 69.4031C241.406 68.9924 241.789 68.6761 242.243 68.6956C242.695 68.7156 243.048 69.0641 243.028 69.4759C242.958 70.9102 242.782 71.7651 242.775 71.8006C242.691 72.2041 242.26 72.4682 241.815 72.3907C241.731 72.3763 241.654 72.3514 241.582 72.3166" fill="white"/>
<path fill-rule="evenodd" clip-rule="evenodd" d="M237.966 55.3862C237.831 55.322 237.716 55.2206 237.639 55.088C236.807 53.6475 235.817 52.2661 234.695 50.9805C234.417 50.662 234.482 50.1862 234.84 49.919C235.198 49.6501 235.713 49.6906 235.992 50.0081C237.175 51.3632 238.219 52.821 239.096 54.3403C239.305 54.7023 239.148 55.1629 238.746 55.3691C238.491 55.5 238.199 55.497 237.966 55.3862M241.464 65.0273C241.243 64.9222 241.083 64.7223 241.052 64.4758C240.843 62.828 240.472 61.2018 239.951 59.6397C239.82 59.249 240.063 58.8217 240.495 58.686C240.926 58.5509 241.381 58.7564 241.512 59.1472C242.061 60.7932 242.452 62.507 242.672 64.2423C242.724 64.6511 242.403 65.0347 241.955 65.0983C241.779 65.1241 241.608 65.0961 241.464 65.0273" fill="white"/>
<path fill-rule="evenodd" clip-rule="evenodd" d="M230.987 47.4646C230.931 47.4379 230.878 47.4046 230.828 47.3654C230.239 46.8944 229.61 46.4265 228.961 45.9747C228.601 45.723 228.532 45.2547 228.808 44.9289C229.083 44.6034 229.6 44.5387 229.961 44.7944C230.639 45.2669 231.296 45.7562 231.913 46.2488C232.254 46.5217 232.288 46.9925 231.99 47.3008C231.733 47.5638 231.316 47.6236 230.987 47.4646" fill="white"/>
<path fill-rule="evenodd" clip-rule="evenodd" d="M261.032 69.8995C260.683 69.731 260.509 69.3541 260.638 69.0044C260.641 68.9964 260.92 68.2338 261.32 66.9055C261.439 66.5095 261.891 66.2765 262.33 66.3866C262.765 66.4932 263.026 66.9058 262.906 67.3031C262.494 68.6758 262.209 69.4486 262.197 69.481C262.054 69.8711 261.588 70.08 261.158 69.9482C261.113 69.9344 261.072 69.9184 261.032 69.8995" fill="white"/>
<path fill-rule="evenodd" clip-rule="evenodd" d="M262.074 31.5267C261.897 31.4427 261.757 31.2979 261.692 31.1104C261.249 29.8255 260.734 28.5769 260.16 27.3974C259.979 27.0246 260.167 26.5751 260.581 26.393C260.995 26.2101 261.477 26.3639 261.658 26.7384C262.256 27.968 262.793 29.2682 263.254 30.6036C263.388 30.9943 263.147 31.424 262.716 31.5644C262.493 31.6368 262.263 31.6167 262.074 31.5267M264.123 39.4707C263.902 39.3657 263.742 39.1666 263.71 38.9209C263.536 37.57 263.3 36.2398 263.01 34.9656C262.919 34.5642 263.203 34.1582 263.643 34.0577C264.085 33.9576 264.515 34.2021 264.606 34.6028C264.906 35.9193 265.148 37.2923 265.329 38.6839C265.382 39.0924 265.063 39.4761 264.615 39.542C264.438 39.5685 264.267 39.5395 264.123 39.4707M264.731 47.6119C264.476 47.4905 264.307 47.244 264.315 46.957C264.351 45.589 264.339 44.2302 264.278 42.9176C264.259 42.5065 264.607 42.1451 265.056 42.1111C265.503 42.0771 265.883 42.3829 265.902 42.794C265.964 44.1391 265.977 45.5317 265.939 46.933C265.929 47.3453 265.556 47.6851 265.108 47.6914C264.971 47.694 264.843 47.6653 264.731 47.6119M264.202 55.761C263.919 55.6261 263.748 55.3386 263.795 55.0239C263.997 53.6728 264.161 52.3146 264.281 50.9851C264.319 50.5746 264.71 50.2548 265.157 50.2722C265.605 50.2886 265.935 50.6374 265.898 51.0492C265.774 52.405 265.607 53.7899 265.401 55.168C265.339 55.5783 264.93 55.8784 264.487 55.8386C264.383 55.8294 264.288 55.8019 264.202 55.761M262.738 63.8143C262.429 63.667 262.26 63.3406 262.347 63.0053C262.687 61.6909 262.997 60.3493 263.27 59.0179C263.353 58.6099 263.777 58.3297 264.215 58.3897C264.656 58.4483 264.943 58.829 264.86 59.2353C264.583 60.59 264.266 61.9569 263.92 63.2949C263.816 63.6978 263.378 63.9603 262.943 63.881C262.869 63.8669 262.801 63.8446 262.738 63.8143" fill="white"/>
<path fill-rule="evenodd" clip-rule="evenodd" d="M258.318 24.1211C258.195 24.0614 258.086 23.9724 258.007 23.8569C257.581 23.2389 257.127 22.6293 256.657 22.0443C256.389 21.7118 256.47 21.2459 256.837 21.0042C257.204 20.7626 257.72 20.8388 257.986 21.1713C258.478 21.7842 258.954 22.4236 259.401 23.0717C259.641 23.4205 259.525 23.8803 259.14 24.0972C258.882 24.2425 258.569 24.2422 258.318 24.1211" fill="white"/>
<path fill-rule="evenodd" clip-rule="evenodd" d="M277.183 73.6323C276.877 73.4845 276.696 73.1712 276.758 72.8461C276.763 72.8125 276.918 72.0072 277.257 70.6244C277.357 70.2233 277.795 69.9714 278.24 70.0622C278.682 70.1566 278.962 70.5517 278.863 70.9532C278.532 72.2972 278.379 73.0966 278.378 73.1046C278.301 73.5096 277.876 73.7799 277.429 73.709C277.34 73.6948 277.259 73.6688 277.183 73.6323" fill="white"/>
<path fill-rule="evenodd" clip-rule="evenodd" d="M290.04 44.9857C290.005 44.9688 289.971 44.949 289.939 44.9269C289.587 44.6882 289.523 44.2241 289.796 43.8899C290.764 42.7087 291.772 41.5996 292.794 40.5943C293.104 40.2892 293.616 40.2597 293.935 40.5372C294.255 40.811 294.262 41.2808 293.951 41.5872C292.971 42.5521 292.002 43.6175 291.07 44.7539C290.822 45.0577 290.383 45.1492 290.04 44.9857V44.9857ZM285.249 52.0072C284.866 51.8237 284.726 51.382 284.936 51.0175C285.059 50.8054 285.182 50.5951 285.307 50.384C285.933 49.3282 286.582 48.3034 287.239 47.338C287.479 46.9842 287.976 46.8763 288.35 47.074C288.722 47.281 288.829 47.7358 288.59 48.0889C287.951 49.0289 287.318 50.0262 286.709 51.0549C286.587 51.2607 286.466 51.4677 286.347 51.6738C286.134 52.041 285.647 52.1924 285.257 52.0109L285.249 52.0072ZM281.552 59.5718C281.204 59.4055 281.046 59.017 281.199 58.6611C281.774 57.3271 282.378 56.0185 282.998 54.7712C283.186 54.3928 283.665 54.2143 284.068 54.3722C284.473 54.5235 284.644 54.9659 284.458 55.3442C283.849 56.5671 283.256 57.8504 282.693 59.1592C282.527 59.5457 282.057 59.7471 281.645 59.6094C281.613 59.5983 281.582 59.5862 281.552 59.5718V59.5718ZM278.731 67.4459C278.409 67.2918 278.243 66.9427 278.353 66.5993C278.785 65.2534 279.252 63.9027 279.745 62.5834C279.892 62.1903 280.352 61.9682 280.773 62.0875C281.193 62.2029 281.416 62.6218 281.269 63.0149C280.785 64.3136 280.324 65.6431 279.899 66.9668C279.772 67.3646 279.322 67.6047 278.896 67.503C278.837 67.4894 278.782 67.4701 278.731 67.4459V67.4459Z" fill="white"/>
<path fill-rule="evenodd" clip-rule="evenodd" d="M296.303 38.9339C296.209 38.8887 296.124 38.8269 296.052 38.7468C295.764 38.4276 295.816 37.9586 296.167 37.6992C296.829 37.2095 297.512 36.7486 298.196 36.3264C298.57 36.0949 299.083 36.1847 299.339 36.5243C299.595 36.8644 299.499 37.3284 299.125 37.5588C298.48 37.957 297.836 38.3928 297.21 38.8551C296.946 39.0503 296.587 39.0712 296.303 38.9339" fill="white"/>
<path fill-rule="evenodd" clip-rule="evenodd" d="M306.181 55.3872C306.181 55.3872 311.312 47.5512 317.989 45.6091L320.907 47.9219L320.06 52.1819C320.06 52.1819 311.976 50.7978 306.181 55.3872" fill="#026363"/>
<path fill-rule="evenodd" clip-rule="evenodd" d="M283.393 15.1273L280.222 18.8037L275.106 19.4029L277.997 23.2857L277.064 27.8806L282.022 26.603L286.561 28.8447L286.735 24.1723L290.473 20.9623L285.622 19.3525L283.393 15.1273Z" fill="#026363"/>
<path fill-rule="evenodd" clip-rule="evenodd" d="M276.273 42.8591C276.273 42.8591 283.902 36.9261 284.861 30.6281L281.845 28.4216L277.363 29.9125C277.363 29.9125 280.259 36.8931 276.273 42.8591" fill="#026363"/>
<path fill-rule="evenodd" clip-rule="evenodd" d="M289.81 76.5417C291.134 62.4007 313.968 70.1222 315.292 55.9812C311.308 51.9321 307.326 47.8837 303.342 43.8349C302.018 57.9755 279.184 50.2544 277.86 64.3961C281.843 68.4442 285.827 72.4933 289.81 76.5417" fill="#8CC53F"/>
<path fill-rule="evenodd" clip-rule="evenodd" d="M304.809 49.4974C300.503 57.8526 285.452 55.0496 281.146 63.4045C283.546 65.8958 285.945 68.387 288.344 70.8793C292.649 62.5232 307.7 65.3271 312.006 56.9723C309.608 54.4803 307.208 51.989 304.809 49.4974M279.957 63.7359C283.623 53.6721 300.89 57.7322 304.556 47.6677C307.437 50.6588 310.316 53.6495 313.196 56.6402C309.529 66.7043 292.263 62.6446 288.596 72.7087C285.716 69.718 282.836 66.7273 279.957 63.7359" fill="#517820"/>
<path fill-rule="evenodd" clip-rule="evenodd" d="M292.121 61.482C293.688 63.0753 296.905 63.7381 299.433 63.0916C301.961 62.4455 302.619 60.5097 301.033 58.8966C299.465 57.3029 296.249 56.6405 293.721 57.286C291.192 57.9317 290.533 59.8689 292.121 61.482" fill="#517820"/>
<path fill-rule="evenodd" clip-rule="evenodd" d="M269.232 71.0727L268.295 55.9917L278.096 55.9304L269.232 71.0727Z" fill="#026363"/>
<path fill-rule="evenodd" clip-rule="evenodd" d="M219.878 90.7242L203.844 94.797L201.597 86.1466L219.878 90.7242Z" fill="#026363"/>
<path fill-rule="evenodd" clip-rule="evenodd" d="M295.168 80.5174L309.334 72.6081L314.114 80.3749L295.168 80.5174Z" fill="#026363"/>
<path fill-rule="evenodd" clip-rule="evenodd" d="M314.646 82.7389C309.782 83.5603 305.089 80.6512 304.164 76.2412C303.239 71.8319 306.433 67.5912 311.296 66.7698C316.16 65.9488 320.852 68.8581 321.778 73.2675C322.703 77.6768 319.51 81.9179 314.646 82.7389" fill="#FEBE10"/>
<path fill-rule="evenodd" clip-rule="evenodd" d="M319.087 73.5935C318.528 70.5191 315.328 68.5392 311.956 69.1782C308.583 69.8185 306.295 72.8395 306.855 75.9142C307.414 78.9875 310.614 80.9681 313.987 80.3278C317.359 79.6889 319.647 76.6671 319.087 73.5935M305.567 76.1582C304.89 72.4367 307.658 68.7798 311.742 68.0055C315.824 67.2308 319.697 69.628 320.375 73.3495C321.052 77.0699 318.283 80.7268 314.201 81.5015C310.117 82.2755 306.245 79.879 305.567 76.1582" fill="#BA8000"/>
<path fill-rule="evenodd" clip-rule="evenodd" d="M308.862 74.947L309.791 74.7897C309.73 74.3447 309.712 73.9793 309.737 73.694C309.763 73.4084 309.793 73.1708 309.829 72.9807L311.361 72.7219L311.687 74.2665C311.531 74.2923 311.421 74.3397 311.359 74.4091C311.295 74.4779 311.283 74.6009 311.32 74.7788C311.352 74.9335 311.401 75.0387 311.467 75.0959C311.532 75.1525 311.616 75.1722 311.72 75.1548C311.793 75.1429 311.849 75.1053 311.893 75.042C311.935 74.9791 311.975 74.8594 312.014 74.6841C312.086 74.3126 312.161 73.9871 312.238 73.7041C312.314 73.4223 312.415 73.1825 312.54 72.9843C312.664 72.7863 312.824 72.6276 313.021 72.5068C313.217 72.3866 313.467 72.3011 313.773 72.2495C314.025 72.207 314.263 72.1989 314.485 72.2269C314.707 72.255 314.913 72.3257 315.099 72.4399C315.287 72.5535 315.454 72.7168 315.603 72.9294C315.752 73.1414 315.879 73.4128 315.986 73.7443L316.877 73.5938L317.069 74.5136L316.195 74.6612C316.225 74.8835 316.242 75.0822 316.243 75.2559C316.245 75.4306 316.238 75.5914 316.224 75.7397C316.21 75.8873 316.19 76.0235 316.166 76.1492C316.141 76.2745 316.111 76.3788 316.075 76.4626L314.69 76.6963L314.38 75.2224C314.529 75.1961 314.624 75.142 314.662 75.0577C314.701 74.9736 314.709 74.8782 314.686 74.7703C314.654 74.6162 314.608 74.5085 314.55 74.4474C314.492 74.3873 314.409 74.3666 314.301 74.3843C314.212 74.3998 314.155 74.4464 314.13 74.5261C314.103 74.6058 314.08 74.7225 314.059 74.876C314.017 75.1646 313.968 75.4383 313.91 75.6978C313.852 75.9564 313.762 76.1911 313.641 76.4004C313.519 76.6104 313.356 76.7871 313.151 76.9307C312.946 77.0747 312.677 77.1741 312.347 77.2297C311.754 77.3302 311.261 77.2511 310.867 76.9929C310.473 76.735 310.181 76.3066 309.992 75.7084L309.055 75.8662L308.862 74.947Z" fill="#BA8000"/>
<path fill-rule="evenodd" clip-rule="evenodd" d="M237.567 68.5248L228.396 58.2676L224.888 64.2606L237.567 68.5248Z" fill="#026363"/>
<path fill-rule="evenodd" clip-rule="evenodd" d="M241.046 63.438C253.213 54.5338 233.396 41.6561 245.562 32.7515C251.486 33.4874 257.409 34.2229 263.331 34.9581C251.165 43.863 270.981 56.74 258.814 65.6446C252.892 64.9091 246.969 64.1736 241.046 63.438" fill="#8CC53F"/>
<path fill-rule="evenodd" clip-rule="evenodd" d="M246.57 35.9569C241.212 43.811 252.209 53.4143 246.852 61.2684C250.504 61.6582 254.156 62.0488 257.808 62.4397C263.165 54.5856 252.168 44.9823 257.525 37.1282C253.873 36.7383 250.222 36.3478 246.57 35.9569M245.013 62.1018C252.313 53.7685 238.915 43.2219 246.214 34.8882C250.598 35.3573 254.981 35.8257 259.364 36.2944C252.064 44.6281 265.463 55.174 258.164 63.5077C253.78 63.0386 249.396 62.5706 245.013 62.1018" fill="#517820"/>
<path fill-rule="evenodd" clip-rule="evenodd" d="M253.501 53.277C251.17 52.9875 248.766 50.9355 247.942 48.6716C247.118 46.4062 248.517 44.8274 250.876 45.1196C253.207 45.4098 255.611 47.4611 256.435 49.7261C257.259 51.9904 255.86 53.5703 253.501 53.277" fill="#517820"/>
<path fill-rule="evenodd" clip-rule="evenodd" d="M324.324 66.3104C323.603 67.5432 321.912 68.0088 320.549 67.3503C319.185 66.6918 318.665 65.1584 319.387 63.9256C320.108 62.6929 321.799 62.2272 323.162 62.8857C324.526 63.5442 325.046 65.0776 324.324 66.3104" fill="white"/>
<path fill-rule="evenodd" clip-rule="evenodd" d="M324.067 61.3408C323.835 61.2288 323.746 60.9674 323.869 60.7571L325.985 57.1422C326.108 56.9319 326.397 56.853 326.629 56.965C326.861 57.0773 326.95 57.3384 326.827 57.5487L324.711 61.1636C324.588 61.3738 324.3 61.4531 324.067 61.3408" fill="white"/>
<path fill-rule="evenodd" clip-rule="evenodd" d="M330.23 69.651L326.232 67.7201C326 67.6077 325.911 67.3466 326.034 67.1363C326.157 66.9261 326.445 66.8468 326.678 66.9591L330.676 68.89C330.908 69.002 330.996 69.2631 330.873 69.4734C330.75 69.6837 330.462 69.7629 330.23 69.651" fill="white"/>
<path fill-rule="evenodd" clip-rule="evenodd" d="M317.082 73.2718C316.851 73.1598 316.761 72.8983 316.884 72.6881L319 69.0738C319.123 68.8636 319.412 68.7846 319.643 68.8966C319.876 69.0089 319.965 69.27 319.842 69.4803L317.726 73.0945C317.603 73.3048 317.315 73.3841 317.082 73.2718" fill="white"/>
<path fill-rule="evenodd" clip-rule="evenodd" d="M317.033 63.2779L313.035 61.347C312.802 61.2347 312.714 60.9736 312.837 60.7633C312.96 60.553 313.248 60.4737 313.48 60.586L317.478 62.517C317.711 62.6293 317.8 62.8904 317.676 63.1007C317.553 63.311 317.266 63.3903 317.033 63.2779" fill="white"/>
<path fill-rule="evenodd" clip-rule="evenodd" d="M326.237 64.2316C326.13 64.18 326.044 64.0902 326.005 63.9769C325.928 63.7484 326.068 63.5079 326.32 63.4387L329.104 62.6713C329.355 62.6017 329.621 62.7305 329.699 62.9584C329.776 63.1869 329.635 63.4274 329.384 63.4966L326.6 64.2644C326.475 64.2983 326.344 64.2835 326.237 64.2316" fill="white"/>
<path fill-rule="evenodd" clip-rule="evenodd" d="M323.907 72.1994C323.799 72.1474 323.712 72.0583 323.675 71.9448L322.817 69.42C322.74 69.1922 322.881 68.951 323.132 68.8818C323.383 68.8126 323.65 68.9415 323.727 69.1693L324.584 71.6937C324.661 71.9215 324.521 72.162 324.269 72.2319C324.143 72.2665 324.014 72.2513 323.907 72.1994" fill="white"/>
<path fill-rule="evenodd" clip-rule="evenodd" d="M314.245 67.5332C314.137 67.4813 314.051 67.3922 314.013 67.2786C313.935 67.0498 314.076 66.8093 314.328 66.7404L317.111 65.9739C317.362 65.9047 317.629 66.0335 317.706 66.2614C317.783 66.4892 317.642 66.7304 317.391 66.7996L314.607 67.5657C314.482 67.6003 314.352 67.5848 314.245 67.5332" fill="white"/>
<path fill-rule="evenodd" clip-rule="evenodd" d="M320.215 61.3236C320.109 61.272 320.022 61.1823 319.983 61.069L319.127 58.5433C319.049 58.3151 319.19 58.0746 319.442 58.0051C319.693 57.9356 319.96 58.0644 320.037 58.2923L320.893 60.8183C320.971 61.0462 320.83 61.2867 320.578 61.3565C320.453 61.3904 320.323 61.3756 320.215 61.3236" fill="white"/>
<path fill-rule="evenodd" clip-rule="evenodd" d="M293.486 79.5407L293.485 79.5403C293.185 79.3947 293.071 79.057 293.23 78.7849C293.243 78.7619 293.57 78.2073 294.187 77.3143C294.367 77.0534 294.748 76.9711 295.035 77.139C295.324 77.303 295.411 77.6478 295.232 77.9083C294.64 78.7647 294.321 79.3068 294.318 79.312C294.158 79.5831 293.786 79.6856 293.486 79.5407" fill="white"/>
<path fill-rule="evenodd" clip-rule="evenodd" d="M306.343 67.1244C306.244 67.0773 306.16 67.0039 306.103 66.9081C305.945 66.6401 306.058 66.2968 306.356 66.1407C307.429 65.5786 308.519 65.113 309.598 64.7589C309.919 64.6528 310.261 64.803 310.363 65.0942C310.466 65.3854 310.289 65.7066 309.967 65.812C308.959 66.1437 307.937 66.5798 306.928 67.1091C306.738 67.2086 306.518 67.2077 306.343 67.1244M300.862 70.8615C300.806 70.8349 300.755 70.8012 300.71 70.7576C300.484 70.539 300.5 70.1856 300.747 69.9685C301.626 69.1939 302.526 68.4784 303.421 67.8443C303.691 67.6524 304.071 67.6934 304.27 67.9342C304.467 68.1754 304.408 68.5269 304.137 68.7185C303.278 69.3278 302.414 70.0135 301.568 70.7589C301.37 70.9339 301.084 70.9674 300.862 70.8615M296.341 75.5513C296.315 75.5389 296.29 75.5244 296.267 75.508C296.002 75.3307 295.953 74.9829 296.158 74.7315C296.867 73.8593 297.607 73.0158 298.358 72.2252C298.581 71.9896 298.966 71.958 299.211 72.1542C299.458 72.3524 299.477 72.7027 299.253 72.9387C298.523 73.7071 297.803 74.5267 297.113 75.3761C296.928 75.6036 296.598 75.6737 296.341 75.5513" fill="white"/>
<path fill-rule="evenodd" clip-rule="evenodd" d="M312.855 65.1276C312.681 65.0437 312.554 64.8859 312.531 64.6961C312.492 64.3898 312.735 64.1138 313.073 64.0808C313.713 64.0181 314.36 63.9906 314.995 64.0007C315.336 64.0044 315.607 64.2593 315.603 64.5675C315.598 64.8753 315.32 65.1211 314.979 65.1158C314.395 65.1068 313.801 65.1317 313.211 65.1899C313.083 65.2025 312.961 65.1788 312.855 65.1276" fill="white"/>
<path fill-rule="evenodd" clip-rule="evenodd" d="M287.732 43.3896C287.796 48.0169 283.708 51.7995 278.602 51.8401C273.495 51.8804 269.304 48.1628 269.24 43.5355C269.175 38.9079 273.263 35.1252 278.37 35.0847C283.477 35.0444 287.669 38.7624 287.732 43.3896" fill="#FEBE10"/>
<path fill-rule="evenodd" clip-rule="evenodd" d="M278.555 37.5907C275.029 37.6874 272.129 40.3998 272.09 43.6367C272.051 46.8735 274.89 49.4292 278.416 49.3325C281.942 49.2365 284.842 46.5241 284.882 43.2866C284.92 40.0497 282.082 37.4941 278.555 37.5907M278.401 50.568C274.132 50.6855 270.698 47.5922 270.744 43.6733C270.79 39.7548 274.302 36.472 278.57 36.3552C282.839 36.2384 286.273 39.331 286.227 43.2499C286.181 47.1691 282.67 50.4522 278.401 50.568" fill="#BA8000"/>
<path fill-rule="evenodd" clip-rule="evenodd" d="M277.978 47.2795L277.966 46.3954C277.455 46.3696 277.043 46.3195 276.728 46.2432C276.412 46.1675 276.15 46.0958 275.944 46.0281L275.924 44.5695L277.713 44.5552C277.715 44.7029 277.749 44.8127 277.814 44.8823C277.881 44.9533 278.016 44.9876 278.222 44.9859C278.402 44.985 278.528 44.9601 278.603 44.9103C278.679 44.8598 278.716 44.786 278.714 44.6873C278.713 44.6187 278.681 44.5592 278.619 44.5081C278.555 44.4572 278.428 44.3984 278.238 44.3308C277.835 44.196 277.482 44.0671 277.179 43.9443C276.876 43.8216 276.625 43.6852 276.426 43.534C276.226 43.3835 276.075 43.2062 275.975 43.0038C275.875 42.8004 275.824 42.5545 275.818 42.2638C275.815 42.0238 275.848 41.8036 275.92 41.6047C275.99 41.4052 276.105 41.2297 276.266 41.0783C276.426 40.9273 276.639 40.8021 276.903 40.705C277.167 40.6071 277.494 40.5394 277.885 40.502L277.873 39.6552L278.937 39.6465L278.949 40.4783C279.204 40.4919 279.429 40.513 279.625 40.5435C279.821 40.5743 279.999 40.6096 280.164 40.6503C280.327 40.6903 280.476 40.7335 280.612 40.7792C280.748 40.8245 280.86 40.8719 280.947 40.919L280.965 42.2385L279.258 42.2518C279.257 42.1095 279.212 42.0131 279.125 41.9623C279.037 41.9108 278.93 41.8862 278.806 41.8868C278.627 41.8881 278.499 41.9103 278.421 41.9528C278.343 41.9952 278.304 42.0675 278.306 42.1706C278.306 42.2549 278.35 42.3156 278.434 42.3543C278.519 42.3931 278.646 42.4365 278.814 42.4843C279.129 42.5749 279.428 42.6702 279.708 42.771C279.989 42.8722 280.236 42.9982 280.45 43.1487C280.663 43.2996 280.833 43.4827 280.957 43.697C281.083 43.9127 281.147 44.1772 281.151 44.4919C281.16 45.0567 280.984 45.4959 280.625 45.8108C280.265 46.1259 279.734 46.3152 279.03 46.38L279.043 47.2712L277.978 47.2795Z" fill="#BA8000"/>
<mask id="mask1_1318_61070" style="mask-type:luminance" maskUnits="userSpaceOnUse" x="168" y="-7" width="184" height="146">
<path fill-rule="evenodd" clip-rule="evenodd" d="M269.912 -6.59024L211.839 28.0253C208.191 30.2003 208.467 35.1283 212.345 37.0012V37.0012L221.904 41.6178C225.795 43.4973 226.057 48.4491 222.382 50.6119V50.6119L168.101 82.5408L280.844 136.992C287.323 140.121 295.347 137.925 298.765 132.086V132.086L349.502 45.4111C352.92 39.5718 350.437 32.3011 343.958 29.1719V29.1719L269.912 -6.59024Z" fill="white"/>
</mask>
<g mask="url(#mask1_1318_61070)">
<path fill-rule="evenodd" clip-rule="evenodd" d="M303.435 84.3151C303.435 84.3151 302.779 81.6061 301.249 81.3832C296.352 80.669 295.564 82.408 290.718 81.4419C285.872 80.4765 286.711 78.4853 281.865 77.5198C277.022 76.5541 276.184 78.545 271.341 77.5797C266.497 76.615 267.335 74.6234 262.491 73.6573C257.648 72.6926 256.809 74.6839 251.967 73.7185C247.126 72.7539 247.826 71.7632 242.984 70.7982L239.298 71.5611L234.505 71.9621L238.718 80.5145L284.459 89.8682L292.574 84.8643L294.826 84.193L303.435 84.3151Z" fill="#517820"/>
</g>
<mask id="mask2_1318_61070" style="mask-type:luminance" maskUnits="userSpaceOnUse" x="168" y="-7" width="184" height="146">
<path fill-rule="evenodd" clip-rule="evenodd" d="M269.912 -6.59024L211.839 28.0253C208.191 30.2003 208.467 35.1283 212.345 37.0012V37.0012L221.904 41.6178C225.795 43.4973 226.057 48.4491 222.382 50.6119V50.6119L168.101 82.5408L280.844 136.992C287.323 140.121 295.347 137.925 298.765 132.086V132.086L349.502 45.4111C352.92 39.5718 350.437 32.3011 343.958 29.1719V29.1719L269.912 -6.59024Z" fill="white"/>
</mask>
<g mask="url(#mask2_1318_61070)">
<path fill-rule="evenodd" clip-rule="evenodd" d="M210.679 156.62L279.539 177.395L292.575 84.8644C287.733 83.7888 286.695 87.7089 281.853 86.6334C277.012 85.5576 278.05 81.6375 273.209 80.5616C268.371 79.4865 267.332 83.4069 262.495 82.3322C257.655 81.2567 258.694 77.337 253.854 76.2618C249.016 75.1864 247.978 79.1065 243.14 78.0314C238.303 76.9573 239.342 73.0369 234.505 71.9621L210.679 156.62Z" fill="#C1DF65"/>
</g>
<mask id="mask3_1318_61070" style="mask-type:luminance" maskUnits="userSpaceOnUse" x="168" y="-7" width="184" height="146">
<path fill-rule="evenodd" clip-rule="evenodd" d="M269.912 -6.59024L211.839 28.0253C208.191 30.2003 208.467 35.1283 212.345 37.0012V37.0012L221.904 41.6178C225.795 43.4973 226.057 48.4491 222.382 50.6119V50.6119L168.101 82.5408L280.844 136.992C287.323 140.121 295.347 137.925 298.765 132.086V132.086L349.502 45.4111C352.92 39.5718 350.437 32.3011 343.958 29.1719V29.1719L269.912 -6.59024Z" fill="white"/>
</mask>
<g mask="url(#mask3_1318_61070)">
<path fill-rule="evenodd" clip-rule="evenodd" d="M303.559 169.713L303.436 84.3144L294.827 84.1917L292.575 84.8627L279.539 177.394L303.559 169.713Z" fill="#C1DF65"/>
</g>
<mask id="mask4_1318_61070" style="mask-type:luminance" maskUnits="userSpaceOnUse" x="168" y="-7" width="184" height="146">
<path fill-rule="evenodd" clip-rule="evenodd" d="M269.912 -6.59024L211.839 28.0253C208.191 30.2003 208.467 35.1283 212.345 37.0012V37.0012L221.904 41.6178C225.795 43.4973 226.057 48.4491 222.382 50.6119V50.6119L168.101 82.5408L280.844 136.992C287.323 140.121 295.347 137.925 298.765 132.086V132.086L349.502 45.4111C352.92 39.5718 350.437 32.3011 343.958 29.1719V29.1719L269.912 -6.59024Z" fill="white"/>
</mask>
<g mask="url(#mask4_1318_61070)">
<path fill-rule="evenodd" clip-rule="evenodd" d="M294.827 84.1925L290.43 164.217L279.539 177.394L292.574 84.8635L294.827 84.1925Z" fill="#B4C64A"/>
</g>
<mask id="mask5_1318_61070" style="mask-type:luminance" maskUnits="userSpaceOnUse" x="168" y="-7" width="184" height="146">
<path fill-rule="evenodd" clip-rule="evenodd" d="M269.912 -6.59024L211.839 28.0253C208.191 30.2003 208.467 35.1283 212.345 37.0012V37.0012L221.904 41.6178C225.795 43.4973 226.057 48.4491 222.382 50.6119V50.6119L168.101 82.5408L280.844 136.992C287.323 140.121 295.347 137.925 298.765 132.086V132.086L349.502 45.4111C352.92 39.5718 350.437 32.3011 343.958 29.1719V29.1719" fill="white"/>
</mask>
<g mask="url(#mask5_1318_61070)">
<path fill-rule="evenodd" clip-rule="evenodd" d="M248.713 85.1406C248.53 86.4676 247.191 87.401 245.724 87.2267C244.256 87.052 243.214 85.8356 243.398 84.509C243.58 83.1827 244.92 82.2487 246.387 82.423C247.855 82.5983 248.896 83.8147 248.713 85.1406" fill="#517820"/>
</g>
<mask id="mask6_1318_61070" style="mask-type:luminance" maskUnits="userSpaceOnUse" x="168" y="-7" width="184" height="146">
<path fill-rule="evenodd" clip-rule="evenodd" d="M269.912 -6.59024L211.839 28.0253C208.191 30.2003 208.467 35.1283 212.345 37.0012V37.0012L221.904 41.6178C225.795 43.4973 226.057 48.4491 222.382 50.6119V50.6119L168.101 82.5408L280.844 136.992C287.323 140.121 295.347 137.925 298.765 132.086V132.086L349.502 45.4111C352.92 39.5718 350.437 32.3011 343.958 29.1719V29.1719L269.912 -6.59024Z" fill="white"/>
</mask>
<g mask="url(#mask6_1318_61070)">
<path fill-rule="evenodd" clip-rule="evenodd" d="M292.574 84.8642C290.486 84.4 289.106 84.867 287.822 85.4606C285.287 99.6475 271.704 153.545 212.022 151.852L210.68 156.62L279.539 177.395L292.574 84.8642Z" fill="#C1DF65"/>
</g>
<mask id="mask7_1318_61070" style="mask-type:luminance" maskUnits="userSpaceOnUse" x="168" y="-7" width="184" height="146">
<path fill-rule="evenodd" clip-rule="evenodd" d="M269.912 -6.59024L211.839 28.0253C208.191 30.2003 208.467 35.1283 212.345 37.0012V37.0012L221.904 41.6178C225.795 43.4973 226.057 48.4491 222.382 50.6119V50.6119L168.101 82.5408L280.844 136.992C287.323 140.121 295.347 137.925 298.765 132.086V132.086L349.502 45.4111C352.92 39.5718 350.437 32.3011 343.958 29.1719V29.1719" fill="white"/>
</mask>
<g mask="url(#mask7_1318_61070)">
<path fill-rule="evenodd" clip-rule="evenodd" d="M299.02 101.42C298.796 103.033 297.168 104.169 295.382 103.957C293.597 103.745 292.329 102.264 292.552 100.651C292.776 99.0372 294.404 97.9014 296.19 98.114C297.976 98.3259 299.243 99.8059 299.02 101.42" fill="#828C26"/>
</g>
<mask id="mask8_1318_61070" style="mask-type:luminance" maskUnits="userSpaceOnUse" x="168" y="-7" width="184" height="146">
<path fill-rule="evenodd" clip-rule="evenodd" d="M269.912 -6.59024L211.839 28.0253C208.191 30.2003 208.467 35.1283 212.345 37.0012V37.0012L221.904 41.6178C225.795 43.4973 226.057 48.4491 222.382 50.6119V50.6119L168.101 82.5408L280.844 136.992C287.323 140.121 295.347 137.925 298.765 132.086V132.086L349.502 45.4111C352.92 39.5718 350.437 32.3011 343.958 29.1719V29.1719" fill="white"/>
</mask>
<g mask="url(#mask8_1318_61070)">
<path fill-rule="evenodd" clip-rule="evenodd" d="M255.086 99.1663C254.804 101.207 252.745 102.643 250.486 102.374C248.229 102.106 246.627 100.235 246.909 98.1943C247.191 96.1547 249.25 94.7176 251.509 94.9863C253.766 95.2543 255.368 97.1264 255.086 99.1663" fill="#828C26"/>
</g>
<mask id="mask9_1318_61070" style="mask-type:luminance" maskUnits="userSpaceOnUse" x="168" y="-7" width="184" height="146">
<path fill-rule="evenodd" clip-rule="evenodd" d="M269.912 -6.59024L211.839 28.0253C208.191 30.2003 208.467 35.1283 212.345 37.0012V37.0012L221.904 41.6178C225.795 43.4973 226.057 48.4491 222.382 50.6119V50.6119L168.101 82.5408L280.844 136.992C287.323 140.121 295.347 137.925 298.765 132.086V132.086L349.502 45.4111C352.92 39.5718 350.437 32.3011 343.958 29.1719V29.1719" fill="white"/>
</mask>
<g mask="url(#mask9_1318_61070)">
<path fill-rule="evenodd" clip-rule="evenodd" d="M230.462 110.627C230.906 107.41 228.872 104.421 225.709 103.218L221.913 116.709C226.125 117.135 229.935 114.441 230.462 110.627" fill="#828C26"/>
</g>
<mask id="mask10_1318_61070" style="mask-type:luminance" maskUnits="userSpaceOnUse" x="168" y="-7" width="184" height="146">
<path fill-rule="evenodd" clip-rule="evenodd" d="M269.912 -6.59024L211.839 28.0253C208.191 30.2003 208.467 35.1283 212.345 37.0012V37.0012L221.904 41.6178C225.795 43.4973 226.057 48.4491 222.382 50.6119V50.6119L168.101 82.5408L280.844 136.992C287.323 140.121 295.347 137.925 298.765 132.086V132.086L349.502 45.4111C352.92 39.5718 350.437 32.3011 343.958 29.1719V29.1719L269.912 -6.59024Z" fill="white"/>
</mask>
<g mask="url(#mask10_1318_61070)">
<path fill-rule="evenodd" clip-rule="evenodd" d="M289.108 109.472C288.476 109.232 287.804 109.057 287.094 108.973C282.821 108.465 278.924 111.182 278.391 115.044C277.858 118.904 280.889 122.445 285.162 122.953C285.86 123.036 286.544 123.026 287.21 122.945L289.108 109.472Z" fill="#828C26"/>
</g>
<mask id="mask11_1318_61070" style="mask-type:luminance" maskUnits="userSpaceOnUse" x="168" y="-7" width="184" height="146">
<path fill-rule="evenodd" clip-rule="evenodd" d="M269.912 -6.59024L211.839 28.0253C208.191 30.2003 208.467 35.1283 212.345 37.0012V37.0012L221.904 41.6178C225.795 43.4973 226.057 48.4491 222.382 50.6119V50.6119L168.101 82.5408L280.844 136.992C287.323 140.121 295.347 137.925 298.765 132.086V132.086L349.502 45.4111C352.92 39.5718 350.437 32.3011 343.958 29.1719V29.1719L269.912 -6.59024Z" fill="white"/>
</mask>
<g mask="url(#mask11_1318_61070)">
<path fill-rule="evenodd" clip-rule="evenodd" d="M231.306 83.3298C234.436 82.7217 236.94 80.3992 237.36 77.3617C237.608 75.5701 237.08 73.8513 236.024 72.4691C235.59 72.265 235.093 72.0911 234.506 71.9606L231.306 83.3298Z" fill="#828C26"/>
</g>
<mask id="mask12_1318_61070" style="mask-type:luminance" maskUnits="userSpaceOnUse" x="168" y="-7" width="184" height="146">
<path fill-rule="evenodd" clip-rule="evenodd" d="M269.912 -6.59024L211.839 28.0253C208.191 30.2003 208.467 35.1283 212.345 37.0012V37.0012L221.904 41.6178C225.795 43.4973 226.057 48.4491 222.382 50.6119V50.6119L168.101 82.5408L280.844 136.992C287.323 140.121 295.347 137.925 298.765 132.086V132.086L349.502 45.4111C352.92 39.5718 350.437 32.3011 343.958 29.1719V29.1719" fill="white"/>
</mask>
<g mask="url(#mask12_1318_61070)">
<path fill-rule="evenodd" clip-rule="evenodd" d="M270.581 89.4017C270.048 93.2619 273.079 96.8035 277.352 97.3114C281.625 97.8201 285.521 95.1014 286.055 91.2409C286.284 89.5759 285.85 87.9733 284.94 86.6448C284.074 86.8549 283.088 86.907 281.853 86.6325C279.259 86.0564 278.352 84.664 277.325 83.3292C273.879 83.7075 271.032 86.144 270.581 89.4017" fill="#828C26"/>
</g>
<mask id="mask13_1318_61070" style="mask-type:luminance" maskUnits="userSpaceOnUse" x="168" y="-7" width="184" height="146">
<path fill-rule="evenodd" clip-rule="evenodd" d="M269.912 -6.59024L211.839 28.0253C208.191 30.2003 208.467 35.1283 212.345 37.0012V37.0012L221.904 41.6178C225.795 43.4973 226.057 48.4491 222.382 50.6119V50.6119L168.101 82.5408L280.844 136.992C287.323 140.121 295.347 137.925 298.765 132.086V132.086L349.502 45.4111C352.92 39.5718 350.437 32.3011 343.958 29.1719V29.1719" fill="white"/>
</mask>
<g mask="url(#mask13_1318_61070)">
<path fill-rule="evenodd" clip-rule="evenodd" d="M278.274 90.639C278.091 91.9653 276.752 92.8993 275.284 92.725C273.816 92.5503 272.775 91.3339 272.958 90.0073C273.141 88.681 274.48 87.747 275.947 87.9213C277.416 88.0959 278.457 89.313 278.274 90.639" fill="#517820"/>
</g>
<mask id="mask14_1318_61070" style="mask-type:luminance" maskUnits="userSpaceOnUse" x="168" y="-7" width="184" height="146">
<path fill-rule="evenodd" clip-rule="evenodd" d="M269.912 -6.59024L211.839 28.0253C208.191 30.2003 208.467 35.1283 212.345 37.0012V37.0012L221.904 41.6178C225.795 43.4973 226.057 48.4491 222.382 50.6119V50.6119L168.101 82.5408L280.844 136.992C287.323 140.121 295.347 137.925 298.765 132.086V132.086L349.502 45.4111C352.92 39.5718 350.437 32.3011 343.958 29.1719V29.1719L269.912 -6.59024Z" fill="white"/>
</mask>
<g mask="url(#mask14_1318_61070)">
<path fill-rule="evenodd" clip-rule="evenodd" d="M303.558 169.714L290.43 164.217L294.827 84.1925L303.435 84.3152L303.558 169.714Z" fill="#98AA30"/>
</g>
<mask id="mask15_1318_61070" style="mask-type:luminance" maskUnits="userSpaceOnUse" x="168" y="-7" width="184" height="146">
<path fill-rule="evenodd" clip-rule="evenodd" d="M269.912 -6.59024L211.839 28.0253C208.191 30.2003 208.467 35.1283 212.345 37.0012V37.0012L221.904 41.6178C225.795 43.4973 226.057 48.4491 222.382 50.6119V50.6119L168.101 82.5408L280.844 136.992C287.323 140.121 295.347 137.925 298.765 132.086V132.086L349.502 45.4111C352.92 39.5718 350.437 32.3011 343.958 29.1719V29.1719" fill="white"/>
</mask>
<g mask="url(#mask15_1318_61070)">
<path fill-rule="evenodd" clip-rule="evenodd" d="M228.997 106.271C228.997 106.271 231.414 90.1395 242.222 91.7029C253.03 93.2659 276.428 97.026 276.763 101.374C277.096 105.722 249.737 141.439 226.43 145.131C221.281 145.889 228.997 106.271 228.997 106.271" fill="white"/>
</g>
<mask id="mask16_1318_61070" style="mask-type:luminance" maskUnits="userSpaceOnUse" x="168" y="-7" width="184" height="146">
<path fill-rule="evenodd" clip-rule="evenodd" d="M269.912 -6.59024L211.839 28.0253C208.191 30.2003 208.467 35.1283 212.345 37.0012V37.0012L221.904 41.6178C225.795 43.4973 226.057 48.4491 222.382 50.6119V50.6119L168.101 82.5408L280.844 136.992C287.323 140.121 295.347 137.925 298.765 132.086V132.086L349.502 45.4111C352.92 39.5718 350.437 32.3011 343.958 29.1719V29.1719" fill="white"/>
</mask>
<g mask="url(#mask16_1318_61070)">
<path fill-rule="evenodd" clip-rule="evenodd" d="M246.175 84.3826C246.243 84.3906 246.312 84.4046 246.381 84.4252C246.967 84.6004 247.289 85.1706 247.1 85.7009C247.036 85.8766 240.836 103.497 246.828 112.041C248.609 114.579 251.233 116.022 254.854 116.453C258.766 116.918 262.172 116.068 264.98 113.926C273.357 107.536 274.102 91.8216 274.11 91.6629C274.133 91.1062 274.651 90.6747 275.267 90.6988C275.89 90.7095 276.364 91.1948 276.34 91.7515C276.312 92.4339 275.543 108.518 266.425 115.473C263.122 117.992 259.136 118.996 254.577 118.454C250.314 117.947 247.074 116.15 244.944 113.113C238.39 103.763 244.703 85.8258 244.976 85.0666C245.143 84.5987 245.653 84.3205 246.175 84.3826" fill="#594A42"/>
</g>
</g>
</g>
<defs>
<linearGradient id="paint0_linear_1318_61070" x1="335" y1="109" x2="-4.61898" y2="91.9374" gradientUnits="userSpaceOnUse">
<stop stop-color="#8C5898"/>
<stop offset="0.98" stop-color="#6768AB"/>
</linearGradient>
</defs>
</svg>
