<svg width="48" height="61" viewBox="0 0 48 61" fill="none" xmlns="http://www.w3.org/2000/svg">
<g filter="url(#filter0_d_2103_96242)">
<g clip-path="url(#clip0_2103_96242)">
<g filter="url(#filter1_d_2103_96242)">
<path fill-rule="evenodd" clip-rule="evenodd" d="M24.0003 2.86719C13.8753 2.86719 5.66699 13.5622 5.66699 26.7545C5.66699 39.9468 13.8753 50.6418 24.0003 50.6418C34.1253 50.6418 42.3337 39.9468 42.3337 26.7545C42.3337 13.5622 34.1253 2.86719 24.0003 2.86719ZM20.322 19.6035C20.0184 19.194 19.8504 18.6454 19.8542 18.076C19.858 17.5067 20.0333 16.962 20.3423 16.5594C20.6513 16.1567 21.0693 15.9284 21.5063 15.9234C21.9433 15.9185 22.3643 16.1373 22.6787 16.5329L29.3453 25.2192C29.6578 25.6264 29.8333 26.1787 29.8333 26.7545C29.8333 27.3303 29.6578 27.8826 29.3453 28.2898L22.6787 36.9761C22.3643 37.3717 21.9433 37.5906 21.5063 37.5856C21.0693 37.5807 20.6513 37.3523 20.3423 36.9497C20.0333 36.547 19.858 36.0024 19.8542 35.433C19.8504 34.8636 20.0184 34.3151 20.322 33.9055L25.8103 26.7545L20.322 19.6035Z" fill="url(#paint0_linear_2103_96242)"/>
</g>
</g>
</g>
<defs>
<filter id="filter0_d_2103_96242" x="0" y="0.695312" width="48" height="60.1172" filterUnits="userSpaceOnUse" color-interpolation-filters="sRGB">
<feFlood flood-opacity="0" result="BackgroundImageFix"/>
<feColorMatrix in="SourceAlpha" type="matrix" values="0 0 0 0 0 0 0 0 0 0 0 0 0 0 0 0 0 0 127 0" result="hardAlpha"/>
<feOffset dy="4"/>
<feGaussianBlur stdDeviation="2"/>
<feComposite in2="hardAlpha" operator="out"/>
<feColorMatrix type="matrix" values="0 0 0 0 0 0 0 0 0 0 0 0 0 0 0 0 0 0 0.25 0"/>
<feBlend mode="normal" in2="BackgroundImageFix" result="effect1_dropShadow_2103_96242"/>
<feBlend mode="normal" in="SourceGraphic" in2="effect1_dropShadow_2103_96242" result="shape"/>
</filter>
<filter id="filter1_d_2103_96242" x="1.66699" y="2.86719" width="44.667" height="55.7734" filterUnits="userSpaceOnUse" color-interpolation-filters="sRGB">
<feFlood flood-opacity="0" result="BackgroundImageFix"/>
<feColorMatrix in="SourceAlpha" type="matrix" values="0 0 0 0 0 0 0 0 0 0 0 0 0 0 0 0 0 0 127 0" result="hardAlpha"/>
<feOffset dy="4"/>
<feGaussianBlur stdDeviation="2"/>
<feComposite in2="hardAlpha" operator="out"/>
<feColorMatrix type="matrix" values="0 0 0 0 0 0 0 0 0 0 0 0 0 0 0 0 0 0 0.25 0"/>
<feBlend mode="normal" in2="BackgroundImageFix" result="effect1_dropShadow_2103_96242"/>
<feBlend mode="normal" in="SourceGraphic" in2="effect1_dropShadow_2103_96242" result="shape"/>
</filter>
<linearGradient id="paint0_linear_2103_96242" x1="42.3337" y1="50.6419" x2="5.07347" y2="50.1744" gradientUnits="userSpaceOnUse">
<stop stop-color="#B83AF3"/>
<stop offset="0.98" stop-color="#5E50FB"/>
</linearGradient>
<clipPath id="clip0_2103_96242">
<rect width="40" height="52.1178" fill="white" transform="translate(4 0.695312)"/>
</clipPath>
</defs>
</svg>
