<svg width="25" height="24" viewBox="0 0 25 24" fill="none" xmlns="http://www.w3.org/2000/svg">
<path fill-rule="evenodd" clip-rule="evenodd" d="M14.2939 3.29494C13.7293 3.10345 13.1255 3 12.4997 3C9.65317 3 7.26186 5.14032 6.94752 7.96942L6.69572 10.2356L6.68926 10.2933C6.56032 11.417 6.19456 12.5005 5.61612 13.4725L5.58633 13.5222L5.0083 14.4856C4.48374 15.3599 4.22147 15.797 4.27809 16.1559C4.31576 16.3946 4.43865 16.6117 4.62401 16.7668C4.90259 17 5.41236 17 6.43191 17H18.5674C19.587 17 20.0968 17 20.3753 16.7668C20.5607 16.6117 20.6836 16.3946 20.7213 16.1559C20.7779 15.797 20.5156 15.3599 19.9911 14.4856L19.413 13.5222L19.3832 13.4725C18.927 12.7059 18.6031 11.8698 18.4233 10.9994C15.6971 10.9586 13.4997 8.73592 13.4997 6C13.4997 5.00331 13.7913 4.07473 14.2939 3.29494ZM16.7738 4.98883C17.4605 5.80382 17.9201 6.82135 18.0495 7.94914C17.1617 7.74494 16.4997 6.94979 16.4997 6C16.4997 5.63109 16.5996 5.28551 16.7738 4.98883Z" fill="#B9D3EB"/>
<path d="M9.5 17C9.5 17.394 9.5776 17.7841 9.72836 18.1481C9.87913 18.512 10.1001 18.8427 10.3787 19.1213C10.6573 19.3999 10.988 19.6209 11.3519 19.7716C11.7159 19.9224 12.106 20 12.5 20C12.894 20 13.2841 19.9224 13.6481 19.7716C14.012 19.6209 14.3427 19.3999 14.6213 19.1213C14.8999 18.8427 15.1209 18.512 15.2716 18.1481C15.4224 17.7841 15.5 17.394 15.5 17L12.5 17H9.5Z" fill="#B9D3EB"/>
<circle cx="18.5" cy="6" r="2" fill="#E1F0FE"/>
<circle cx="18.5" cy="6" r="3" fill="#FF671E"/>
</svg>
