<svg width="45" height="36" viewBox="0 0 45 36" fill="none" xmlns="http://www.w3.org/2000/svg">
<path d="M34.3359 0.903362C34.0776 0.676548 33.5799 0.571961 32.2719 1.4074C31.4 1.96687 30.2407 3.09716 28.7046 4.90286C26.2475 7.78971 24.6094 11.735 24.6094 11.735L26.3584 13.4059L37.2581 6.41496C37.2581 6.41496 34.6119 1.33935 34.3359 0.903362Z" fill="url(#paint0_linear_2248_83184)"/>
<path d="M26.3497 13.5091L24.5176 11.7601C24.5655 11.6454 24.5428 11.6984 24.5856 11.6001C24.6285 11.5018 24.67 11.4048 24.7242 11.2876C24.8754 10.9511 25.0531 10.5769 25.2535 10.1737C25.8317 9.00774 26.4815 7.87866 27.199 6.79287C27.6435 6.12076 28.1265 5.47493 28.6456 4.85864C30.1753 3.0605 31.3447 1.91635 32.2305 1.34805C33.3747 0.613426 34.006 0.513879 34.3865 0.844021C35.256 2.37628 36.0574 3.95012 36.8739 5.50632C36.9936 5.7344 37.1033 5.94483 37.2016 6.13636L37.3591 6.43626L26.3497 13.5091ZM24.7003 11.721L26.3686 13.3138L37.1575 6.38334C36.8525 5.79866 36.9924 6.06706 36.7378 5.58067C36.3989 4.93173 36.0587 4.28152 35.7399 3.67542C35.377 2.98868 35.0166 2.30068 34.6474 1.61645C34.5692 1.4728 34.4609 1.27245 34.3777 1.12502C34.2391 0.873003 34.2126 0.885604 33.909 0.813779C33.3193 0.8352 32.8001 1.16786 32.3137 1.4728C31.443 2.03102 30.2837 3.16635 28.7628 4.95315C28.2474 5.56521 27.7682 6.20684 27.3276 6.87477C26.6132 7.95498 25.9668 9.07863 25.3921 10.2392C25.1917 10.6412 25.0141 11.0141 24.8641 11.3481C24.8112 11.4652 24.7658 11.5686 24.7268 11.658L24.7003 11.721Z" fill="#FF92D2"/>
<path d="M9.73854 0.903362C9.99685 0.676548 10.4946 0.571961 11.8025 1.4074C12.6745 1.96687 13.8338 3.09716 15.3698 4.90286C17.827 7.78971 19.4651 11.735 19.4651 11.735L17.7161 13.4059L6.81641 6.41118C6.81641 6.41118 9.4588 1.33935 9.73854 0.903362Z" fill="url(#paint1_linear_2248_83184)"/>
<path d="M17.7274 13.5083L6.7168 6.44177C6.87683 6.13179 7.03812 5.82307 7.20067 5.51309C7.53963 4.86415 7.87985 4.21521 8.19865 3.60911C8.56282 2.91858 8.92446 2.22302 9.29492 1.54132C9.40077 1.346 9.54694 1.01586 9.68807 0.845751C10.0661 0.513089 10.6961 0.612636 11.8441 1.34978C12.7261 1.91808 13.8993 3.06223 15.429 4.86037C15.9481 5.47666 16.4311 6.12249 16.8756 6.7946C17.5931 7.88039 18.2429 9.00947 18.8211 10.1754C19.0215 10.5786 19.1992 10.9529 19.3504 11.2893C19.4046 11.4065 19.4499 11.5111 19.489 11.6018C19.528 11.6925 19.5091 11.6472 19.557 11.7618L17.7274 13.5083ZM6.91715 6.38759L17.7072 13.318L19.3743 11.7253L19.3479 11.6648C19.3088 11.5753 19.2634 11.472 19.2105 11.3548C19.0593 11.0209 18.8829 10.6479 18.6825 10.246C18.1081 9.08282 17.4617 7.95664 16.747 6.87398C16.3064 6.20692 15.8271 5.56613 15.3118 4.95488C13.7909 3.16808 12.6316 2.03275 11.7609 1.47453C11.2707 1.16203 10.7528 0.844491 10.1656 0.815509C9.8733 0.862132 9.82542 0.897414 9.69689 1.12675C9.61372 1.27418 9.50536 1.47453 9.42723 1.61818C9.20966 2.02477 8.99418 2.43261 8.78081 2.84172C8.29694 3.75654 7.81601 4.67262 7.33802 5.58996L7.0104 6.22L6.91715 6.38759Z" fill="#FF92D2"/>
<path d="M12.4011 35.1485C12.4011 35.1485 21.4636 28.2596 22.2789 18.2495C20.9394 17.5061 16.4938 14.6734 16.3855 14.6797C15.9268 25.1674 3.92578 28.8304 3.92578 28.8304L10.7831 30.1875L12.4011 35.1485Z" fill="url(#paint2_linear_2248_83184)"/>
<g style="mix-blend-mode:multiply" opacity="0.31">
<path d="M4.33984 17.5767C4.56036 18.0454 5.39075 18.5217 6.40764 18.3214C7.3275 18.1399 9.23904 17.0815 11.7844 16.3645C14.8174 15.5101 22.7849 17.5124 22.7849 17.5124L21.5337 22.1571C20.5611 22.1377 19.5965 21.9781 18.6695 21.6833C17.4207 23.1261 15.9792 24.6999 14.5679 25.9323C11.7277 28.4146 9.88042 28.1374 8.97064 27.4204C8.56364 27.1004 7.90083 25.1523 6.7655 22.7329C6.10396 21.3267 4.39655 18.247 4.33984 17.5767Z" fill="#EC008C"/>
</g>
<path d="M0.724609 7.74408C0.850618 7.31313 1.40001 6.39453 3.4237 6.39453C4.77325 6.39453 7.21655 6.75869 10.1714 7.65461C14.8942 9.09363 19.617 11.7902 19.617 11.7902L18.2687 15.8414H1.40001C1.40001 15.8414 0.724609 8.41822 0.724609 7.74408Z" fill="url(#paint3_linear_2248_83184)"/>
<path d="M1.32948 15.917C1.25261 15.074 1.29042 15.4873 1.21733 14.6758C1.13795 13.7937 1.05982 12.8991 0.985477 12.051C0.890971 10.956 0.795205 9.86102 0.71582 8.76474C0.698178 8.54171 0.622573 7.94443 0.654075 7.7214C0.88593 6.92251 1.75287 6.31641 3.42626 6.31641C4.97742 6.31641 7.50388 6.76374 10.1967 7.58279C11.6835 8.04588 13.1429 8.5928 14.5679 9.22089C15.8343 9.76903 17.0603 10.355 18.1982 10.9447C18.5964 11.1501 18.9542 11.3416 19.2693 11.513L19.5578 11.673C19.6511 11.7247 19.5994 11.6957 19.7128 11.7612L18.3267 15.9195L1.32948 15.917ZM1.47187 15.7632H18.2133L19.5251 11.8267L19.481 11.8015L19.1937 11.6428C18.8799 11.4727 18.522 11.2824 18.1251 11.077C16.991 10.4898 15.7675 9.90386 14.5049 9.35698C13.0848 8.73288 11.6304 8.18976 10.1488 7.73022C7.46986 6.91495 4.95725 6.47014 3.42373 6.47014C2.57318 6.48904 1.50715 6.59614 0.981697 7.37361C0.904261 7.49058 0.843607 7.61783 0.801505 7.75164C0.796424 7.94798 0.807804 8.1444 0.835527 8.33884C0.855689 8.63244 0.88341 8.984 0.906092 9.27256C0.973296 10.1017 1.04302 10.93 1.11527 11.7574C1.12283 11.8494 1.13039 11.9414 1.13921 12.0347C1.21229 12.884 1.29168 13.7773 1.37106 14.6594C1.39878 14.9694 1.42399 15.2542 1.44667 15.51L1.47187 15.7632Z" fill="#FF92D2"/>
<path d="M3.42773 17.1744C3.64825 17.6431 4.47864 18.1195 5.49553 17.9191C6.41539 17.7377 8.32693 16.6792 10.8723 15.9622C13.9053 15.1079 18.3169 14.75 18.3169 14.75L20.081 18.5013C20.081 18.5013 16.496 23.0502 13.6546 25.53C10.8131 28.0098 8.96705 27.7351 8.05727 27.0182C7.65027 26.6981 6.98747 24.75 5.85213 22.3307C5.19185 20.9244 3.48822 17.8448 3.42773 17.1744Z" fill="url(#paint4_linear_2248_83184)"/>
<path d="M9.71156 0.847656C9.31211 2.61177 10.8822 4.61908 12.8429 6.39202C15.179 8.50643 19.7065 12.2262 19.7065 12.2262L17.4749 15.7166C17.4749 15.7166 11.7163 15.0979 8.10495 14.0105C4.49356 12.923 3.16165 12.1531 3.28514 11.0014C3.34058 10.486 4.26044 8.50517 5.70072 6.26097C6.53363 4.953 9.1735 1.25214 9.71156 0.847656Z" fill="url(#paint5_linear_2248_83184)"/>
<g style="mix-blend-mode:multiply" opacity="0.31">
<path d="M17.6202 15.4439C13.8462 14.9903 10.0471 14.4359 6.45334 13.1569C5.86881 12.9559 5.29876 12.7151 4.74719 12.4361C4.27844 12.1841 3.73913 11.854 3.51609 11.3424C3.29306 10.8308 3.46821 10.3935 3.67234 9.91847C3.75047 9.73576 3.82733 9.54927 3.91302 9.37034C4.20536 8.75668 4.5859 8.1027 4.92108 7.51172C5.00299 8.58153 5.85607 8.91671 6.53273 9.05028C7.3291 9.20779 8.5413 9.27709 9.85178 9.44594C11.0771 9.62725 12.2758 9.95687 13.4216 10.4275C14.6716 10.9417 16.9649 11.796 19.4586 12.7171L17.6202 15.4439Z" fill="#EC008C"/>
</g>
<path d="M19.1421 13.52L16.2024 12.7148L18.8233 14.5961L14.4131 14.2899L18.8032 15.637L12.1953 16.0818L18.7893 16.4497L16.1532 17.7615L18.8233 17.3734L13.0622 20.6496L19.3765 18.0236C19.3992 18.0223 19.1421 13.52 19.1421 13.52Z" fill="#7F3C00"/>
<path d="M19.4411 12.1081L19.3037 11.9947L18.3713 11.2223C17.4073 10.4221 16.4446 9.61316 15.5449 8.84829L15.3168 8.65424C14.2987 7.78604 13.4418 7.03881 12.7967 6.4491C11.7495 5.46749 10.6722 4.43297 10.0245 3.13004C9.72458 2.52016 9.50911 1.69985 9.62252 1.01311C9.71576 0.761089 9.69182 0.887097 9.86067 0.742188L9.81531 0.919859C9.46753 2.45968 10.5777 4.23639 12.8962 6.33821C13.5464 6.92667 14.402 7.67264 15.4164 8.53957L15.6444 8.73362C16.5429 9.49849 17.5068 10.3062 18.4696 11.1064L19.402 11.8788L19.5167 11.9733L19.494 12.0111L19.4411 12.1081Z" fill="#FF92D2"/>
<g style="mix-blend-mode:multiply" opacity="0.31">
<path d="M8.23999 24.1768C7.5986 24.1491 6.92446 23.9979 6.41665 23.5757C5.99326 22.6307 6.18227 23.044 5.85339 22.3333C5.19185 20.927 3.48318 17.8474 3.42773 17.177C3.64825 17.6458 4.47864 18.1221 5.49553 17.9218C6.41539 17.7403 8.32693 16.6818 10.8723 15.9648C12.6364 15.4797 14.4534 15.2 16.2692 14.9706C16.7594 14.9076 17.2521 14.8547 17.7448 14.8056C17.93 14.7879 18.1291 14.7539 18.3169 14.7539L20.047 18.4321H20.0356C17.523 20.0412 14.9398 21.5483 12.2395 22.8222C11.3902 23.2229 10.7828 23.4711 9.9411 23.7899C9.84029 23.8278 9.39044 23.9903 9.23167 24.0294C9.0729 24.0684 8.88893 24.1012 8.71882 24.1365L8.23999 24.1768Z" fill="#EC008C"/>
</g>
<path d="M0.724522 7.74219C0.724522 8.41633 1.44025 9.43952 2.74947 9.76588C3.93395 10.062 6.77291 9.87425 10.1714 10.4413C14.22 11.1154 19.622 13.1404 19.622 13.1404V18.5373C19.622 18.5373 12.8742 21.9118 8.15522 23.2614C3.43622 24.6109 1.40875 23.2614 0.733343 21.9118C0.432183 21.3082 0.0289574 18.1933 0.00123564 15.1515C-0.0264862 12.1096 0.418322 8.56376 0.724522 7.74219Z" fill="url(#paint6_linear_2248_83184)"/>
<path d="M19.1352 13.0489C18.6463 12.8737 18.9185 12.9708 18.3174 12.7603C17.3308 12.4189 16.2849 12.0774 15.2227 11.7598C14.3469 11.4965 13.4976 11.2558 12.6886 11.058C11.7738 10.8299 10.9245 10.6484 10.1584 10.5199C8.39429 10.2049 6.61001 10.1293 4.82699 10.0461C3.66898 9.99194 3.13974 9.94657 2.73022 9.84451C1.93889 9.62903 0.930822 9.01159 0.720388 8.15474C0.67633 8.01356 0.653401 7.86664 0.652344 7.71875L0.801033 7.74521C0.801033 8.50126 1.62261 9.40852 2.76802 9.69456C3.16243 9.7941 3.68788 9.83821 4.83456 9.89239C6.04801 9.95791 7.26525 9.99194 8.47241 10.128C9.3091 10.2225 9.48048 10.254 10.1836 10.3687C10.9548 10.4947 11.8066 10.6799 12.7264 10.9093C13.5379 11.1122 14.3885 11.349 15.2668 11.6124C16.3303 11.9312 17.3799 12.2727 18.3678 12.6205C18.9626 12.8284 18.6967 12.7339 19.1655 12.9015L19.1352 13.0489Z" fill="#FF92D2"/>
<path d="M12.3419 35.3365L10.6949 30.2886L3.92578 29.0512V28.8256C6.9399 29.3372 4.5722 28.8357 10.8726 30.0857L12.4591 34.9496C12.643 34.8022 12.5447 34.8816 12.7539 34.7089C13.0916 34.4254 13.4684 34.0928 13.8741 33.7109C15.1072 32.55 16.2449 31.2917 17.2763 29.9483C19.3794 27.1371 21.1826 23.9667 21.8126 20.4688C21.8955 20.4873 21.9798 20.4983 22.0647 20.5015L22.047 20.6036C21.2645 24.1973 19.639 27.1661 17.4578 30.0895C16.4187 31.4423 15.2725 32.7094 14.0304 33.8785C13.6208 34.2641 13.2403 34.6006 12.8963 34.8866C12.7703 34.9874 12.6695 35.0744 12.5788 35.1474L12.4641 35.2369L12.3419 35.3365Z" fill="url(#paint7_linear_2248_83184)"/>
<g style="mix-blend-mode:multiply" opacity="0.31">
<path d="M17.1032 18.3809C16.9016 16.1443 17.3464 13.1994 18.0962 11.8033C18.8459 10.4071 19.6196 11.0876 19.8212 13.3242C20.0228 15.5608 19.578 18.5057 18.8283 19.9031C18.0785 21.3005 17.3048 20.6175 17.1032 18.3809Z" fill="#EC008C"/>
</g>
<path d="M31.6747 35.1485C31.6747 35.1485 22.6121 28.2596 21.7969 18.2495C23.1363 17.5061 27.5819 14.6734 27.6903 14.6797C28.1502 25.1674 40.15 28.8304 40.15 28.8304L33.2926 30.1875L31.6747 35.1485Z" fill="url(#paint8_linear_2248_83184)"/>
<g style="mix-blend-mode:multiply" opacity="0.31">
<path d="M39.7772 17.5763C39.5567 18.0451 38.7263 18.5214 37.7094 18.321C36.7896 18.1396 34.878 17.0811 32.3327 16.3641C29.2997 15.5098 22 17.4692 22 17.4692L22.4536 22.0257C23.4923 22.1621 24.5476 22.0932 25.5597 21.8228C26.7631 23.1988 28.2349 24.7865 29.5466 25.9319C32.3869 28.4143 34.2354 28.1371 35.1439 27.4201C35.5509 27.1 36.2137 25.1519 37.3491 22.7326C38.0131 21.3263 39.7256 18.2467 39.7772 17.5763Z" fill="#EC008C"/>
</g>
<path d="M31.7306 35.3378L33.3775 30.29L40.1467 29.0551V28.8295C37.1326 29.3411 39.5003 28.8396 33.1999 30.0896L31.6134 34.9535C31.4294 34.8061 31.5277 34.8855 31.3186 34.7128C30.9809 34.4293 30.6041 34.0967 30.1983 33.7149C28.9653 32.5539 27.8275 31.2956 26.7961 29.9523C24.693 27.141 22.8899 23.9706 22.2598 20.4727C22.177 20.4912 22.0926 20.5022 22.0078 20.5054L22.0255 20.6075C22.808 24.2012 24.4335 27.17 26.6147 30.0934C27.6538 31.4462 28.8 32.7133 30.0421 33.8824C30.4516 34.268 30.8322 34.6045 31.1762 34.8905C31.2959 34.9913 31.403 35.0783 31.4937 35.1513L31.6084 35.2408L31.7306 35.3378Z" fill="url(#paint9_linear_2248_83184)"/>
<path d="M43.3506 7.74408C43.2246 7.31439 42.6752 6.39453 40.6515 6.39453C39.3019 6.39453 36.8586 6.75869 33.9037 7.65461C29.181 9.09111 24.4531 11.7902 24.4531 11.7902L25.8027 15.8388H42.6777C42.6777 15.8388 43.3506 8.41822 43.3506 7.74408Z" fill="url(#paint10_linear_2248_83184)"/>
<path d="M42.7441 15.917C42.821 15.074 42.7832 15.4885 42.8562 14.6758C42.9356 13.7937 43.0137 12.9003 43.0881 12.051C43.1826 10.956 43.2784 9.86102 43.3615 8.76601C43.3792 8.54171 43.4548 7.94443 43.4233 7.7214C43.1914 6.92251 42.3245 6.31641 40.6511 6.31641C39.0999 6.31641 36.5735 6.76374 33.8807 7.58279C32.3939 8.04589 30.9344 8.5928 29.5095 9.22089C28.2431 9.76903 27.017 10.355 25.8792 10.9447C25.481 11.1513 25.1231 11.3416 24.8081 11.513L24.5183 11.6629C24.425 11.7146 24.4767 11.6856 24.3633 11.7511L25.7494 15.9094L42.7441 15.917ZM42.6042 15.7632H25.8603L24.5485 11.8267L24.5939 11.8015L24.8799 11.644C25.1937 11.4727 25.5515 11.2824 25.9485 11.077C27.0825 10.4898 28.3061 9.90386 29.5687 9.35698C30.9888 8.73288 32.4432 8.18976 33.9248 7.73022C36.6037 6.91495 39.1163 6.47014 40.6498 6.47014C41.5004 6.48904 42.5664 6.59614 43.0919 7.37361C43.1693 7.49058 43.23 7.61783 43.2721 7.75164C43.2772 7.94798 43.2658 8.1444 43.238 8.33884C43.2179 8.63244 43.1902 8.984 43.1675 9.27256C43.102 10.1017 43.0301 10.9296 42.9583 11.7574C42.9507 11.8494 42.9432 11.9414 42.9344 12.0347C42.8613 12.884 42.7819 13.7773 42.7025 14.6607C42.6748 14.9694 42.6496 15.2542 42.6269 15.51L42.6042 15.7632Z" fill="#FF92D2"/>
<path d="M40.6474 17.1744C40.4269 17.6431 39.5965 18.1195 38.5796 17.9191C37.6597 17.7377 35.7482 16.6792 33.2028 15.9622C30.1698 15.1079 25.7583 14.75 25.7583 14.75L23.9941 18.5013C23.9941 18.5013 27.5791 23.0502 30.4206 25.53C33.262 28.0098 35.1093 27.7351 36.0191 27.0182C36.4261 26.6981 37.0876 24.75 38.223 22.3307C38.8833 20.9244 40.5919 17.8448 40.6474 17.1744Z" fill="url(#paint11_linear_2248_83184)"/>
<path d="M34.3602 0.847656C34.7596 2.61177 33.1896 4.61908 31.2289 6.39202C28.8927 8.50643 24.3652 12.2262 24.3652 12.2262L26.6031 15.7141C26.6031 15.7141 32.363 15.0954 35.9744 14.0079C39.5858 12.9205 40.9164 12.1506 40.7929 10.9989C40.7375 10.4835 39.8176 8.50265 38.3773 6.25845C37.5406 4.953 34.9008 1.25214 34.3602 0.847656Z" fill="url(#paint12_linear_2248_83184)"/>
<g style="mix-blend-mode:multiply" opacity="0.31">
<path d="M26.4516 15.4439C30.2256 14.9903 34.0247 14.4359 37.6185 13.1569C38.2017 12.9558 38.7705 12.715 39.3208 12.4361C39.7896 12.1841 40.3289 11.854 40.5519 11.3424C40.775 10.8308 40.5998 10.3935 40.3957 9.91847C40.3188 9.73576 40.2407 9.54927 40.155 9.37034C39.8627 8.75668 39.4821 8.1027 39.1469 7.51172C39.065 8.58153 38.212 8.91671 37.5353 9.05028C36.7389 9.20779 35.5267 9.27709 34.2162 9.44594C32.9909 9.62725 31.7922 9.95687 30.6464 10.4275C29.3964 10.9417 27.1031 11.796 24.6094 12.7171L26.4516 15.4439Z" fill="#EC008C"/>
</g>
<path d="M24.9309 13.52L27.8706 12.7148L25.2497 14.5961L29.6599 14.2899L25.2698 15.637L31.8777 16.0818L25.2862 16.4497L27.9223 17.7615L25.2522 17.3734L31.0133 20.6496L24.699 18.0236C24.6738 18.0223 24.9309 13.52 24.9309 13.52Z" fill="#7F3C00"/>
<path d="M24.6299 12.1081L24.7672 11.9947L25.6997 11.2223C26.6636 10.4221 27.6263 9.61316 28.526 8.84829L28.7541 8.65424C29.7722 7.78604 30.6291 7.03881 31.2806 6.4491C32.3277 5.46749 33.4051 4.43297 34.0527 3.13004C34.3526 2.52016 34.5681 1.69985 34.4547 1.01311C34.3615 0.761089 34.3854 0.887097 34.2166 0.742188L34.2619 0.919859C34.6097 2.45968 33.5059 4.23639 31.181 6.33821C30.5308 6.92667 29.6752 7.67264 28.6609 8.53957L28.4328 8.73362C27.5343 9.49849 26.5704 10.3062 25.6077 11.1064L24.6765 11.8788L24.5605 11.9733L24.5832 12.0111L24.6299 12.1081Z" fill="#FF92D2"/>
<g style="mix-blend-mode:multiply" opacity="0.31">
<path d="M35.8343 24.1768C36.4757 24.1491 37.1498 23.9979 37.6576 23.5757C38.081 22.6307 37.892 23.044 38.2209 22.3333C38.8824 20.927 40.5911 17.8474 40.6466 17.177C40.426 17.6458 39.5957 18.1221 38.5788 17.9218C37.6589 17.7403 35.7474 16.6818 33.202 15.9648C31.4379 15.4797 29.6208 15.2 27.8051 14.9706C27.3149 14.9076 26.8222 14.8547 26.3295 14.8056C26.1443 14.7879 25.9515 14.7539 25.7574 14.7539L24.0273 18.4321H24.0387C26.5475 20.0475 29.1357 21.5546 31.8398 22.8285C32.6891 23.2292 33.2965 23.4774 34.1382 23.7963C34.239 23.8341 34.6889 23.9966 34.8477 24.0357C35.0064 24.0747 35.1904 24.1075 35.3605 24.1428L35.8343 24.1768Z" fill="#EC008C"/>
</g>
<path d="M43.3506 7.74219C43.3506 8.41633 42.6348 9.43952 41.3256 9.76588C40.1411 10.062 37.3022 9.87425 33.9037 10.4413C29.8551 11.1154 24.4531 13.1404 24.4531 13.1404V18.5373C24.4531 18.5373 31.2009 21.9118 35.9199 23.2614C40.6389 24.6109 42.6663 23.2614 43.3417 21.9118C43.6429 21.3082 44.0398 18.6356 43.9983 15.1515C43.9718 12.1084 43.6568 8.56376 43.3506 7.74219Z" fill="url(#paint13_linear_2248_83184)"/>
<path d="M24.9384 13.0489C25.4286 12.8737 25.1552 12.9708 25.7562 12.7603C26.7429 12.4189 27.7887 12.0774 28.851 11.7598C29.7331 11.4965 30.5761 11.2558 31.385 11.058C32.2998 10.8299 33.1491 10.6484 33.9153 10.5199C35.6794 10.2049 37.4637 10.1293 39.2467 10.0461C40.4047 9.99194 40.9339 9.94657 41.3434 9.84451C42.1348 9.62903 43.1428 9.01159 43.3533 8.15474C43.3973 8.01356 43.4203 7.86664 43.4213 7.71875L43.2726 7.74521C43.2726 8.50126 42.4511 9.40852 41.3069 9.69456C40.9112 9.7941 40.3858 9.83821 39.2391 9.89239C38.0257 9.95791 36.8084 9.99194 35.6013 10.128C34.7646 10.2225 34.5932 10.254 33.8901 10.3687C33.1189 10.4947 32.2671 10.6799 31.3472 10.9093C30.5357 11.1122 29.6852 11.349 28.8069 11.6124C27.7434 11.9312 26.6937 12.2727 25.7071 12.6205C25.1111 12.8284 25.377 12.7339 24.9082 12.9015L24.9384 13.0489Z" fill="#FF92D2"/>
<g style="mix-blend-mode:multiply" opacity="0.31">
<path d="M26.9467 18.4052C27.1483 16.1686 26.7035 13.2225 25.9537 11.8264C25.204 10.4302 24.4315 11.1119 24.2287 13.3485C24.0258 15.5852 24.4719 18.53 25.2229 19.9262C25.9739 21.3223 26.745 20.6419 26.9467 18.4052Z" fill="#EC008C"/>
</g>
<path d="M18.9176 10.812C19.632 10.2198 24.6875 10.3962 25.3793 10.8813C26.071 11.3665 26.5587 20.3055 25.6187 20.9091C24.8097 21.4282 19.4607 21.3425 18.3871 20.9091C17.3135 20.4756 18.2031 11.4093 18.9176 10.812Z" fill="url(#paint14_linear_2248_83184)"/>
<path d="M34.3359 0.903362C34.0776 0.676548 33.5799 0.571961 32.2719 1.4074C31.4 1.96687 30.2407 3.09716 28.7046 4.90286C26.2475 7.78971 24.6094 11.735 24.6094 11.735L26.3584 13.4059L37.2581 6.41496C37.2581 6.41496 34.6119 1.33935 34.3359 0.903362Z" fill="url(#paint15_linear_2248_83184)"/>
<path d="M26.3497 13.5091L24.5176 11.7601C24.5655 11.6454 24.5428 11.6984 24.5856 11.6001C24.6285 11.5018 24.67 11.4048 24.7242 11.2876C24.8754 10.9511 25.0531 10.5769 25.2535 10.1737C25.8317 9.00774 26.4815 7.87866 27.199 6.79287C27.6435 6.12076 28.1265 5.47493 28.6456 4.85864C30.1753 3.0605 31.3447 1.91635 32.2305 1.34805C33.3747 0.613426 34.006 0.513879 34.3865 0.844021C35.256 2.37628 36.0574 3.95012 36.8739 5.50632C36.9936 5.7344 37.1033 5.94483 37.2016 6.13636L37.3591 6.43626L26.3497 13.5091ZM24.7003 11.721L26.3686 13.3138L37.1575 6.38334C36.8525 5.79866 36.9924 6.06706 36.7378 5.58067C36.3989 4.93173 36.0587 4.28152 35.7399 3.67542C35.377 2.98868 35.0166 2.30068 34.6474 1.61645C34.5692 1.4728 34.4609 1.27245 34.3777 1.12502C34.2391 0.873003 34.2126 0.885604 33.909 0.813779C33.3193 0.8352 32.8001 1.16786 32.3137 1.4728C31.443 2.03102 30.2837 3.16635 28.7628 4.95315C28.2474 5.56521 27.7682 6.20684 27.3276 6.87477C26.6132 7.95498 25.9668 9.07863 25.3921 10.2392C25.1917 10.6412 25.0141 11.0141 24.8641 11.3481C24.8112 11.4652 24.7658 11.5686 24.7268 11.658L24.7003 11.721Z" fill="#FF92D2"/>
<path d="M9.73854 0.903362C9.99685 0.676548 10.4946 0.571961 11.8025 1.4074C12.6745 1.96687 13.8338 3.09716 15.3698 4.90286C17.827 7.78971 19.4651 11.735 19.4651 11.735L17.7161 13.4059L6.81641 6.41118C6.81641 6.41118 9.4588 1.33935 9.73854 0.903362Z" fill="url(#paint16_linear_2248_83184)"/>
<path d="M17.7274 13.5083L6.7168 6.44177C6.87683 6.13179 7.03812 5.82307 7.20067 5.51309C7.53963 4.86415 7.87985 4.21521 8.19865 3.60911C8.56282 2.91858 8.92446 2.22302 9.29492 1.54132C9.40077 1.346 9.54694 1.01586 9.68807 0.845751C10.0661 0.513089 10.6961 0.612636 11.8441 1.34978C12.7261 1.91808 13.8993 3.06223 15.429 4.86037C15.9481 5.47666 16.4311 6.12249 16.8756 6.7946C17.5931 7.88039 18.2429 9.00947 18.8211 10.1754C19.0215 10.5786 19.1992 10.9529 19.3504 11.2893C19.4046 11.4065 19.4499 11.5111 19.489 11.6018C19.528 11.6925 19.5091 11.6472 19.557 11.7618L17.7274 13.5083ZM6.91715 6.38759L17.7072 13.318L19.3743 11.7253L19.3479 11.6648C19.3088 11.5753 19.2634 11.472 19.2105 11.3548C19.0593 11.0209 18.8829 10.6479 18.6825 10.246C18.1081 9.08282 17.4617 7.95664 16.747 6.87398C16.3064 6.20692 15.8271 5.56613 15.3118 4.95488C13.7909 3.16808 12.6316 2.03275 11.7609 1.47453C11.2707 1.16203 10.7528 0.844491 10.1656 0.815509C9.8733 0.862132 9.82542 0.897414 9.69689 1.12675C9.61372 1.27418 9.50536 1.47453 9.42723 1.61818C9.20966 2.02477 8.99418 2.43261 8.78081 2.84172C8.29694 3.75654 7.81601 4.67262 7.33802 5.58996L7.0104 6.22L6.91715 6.38759Z" fill="#FF92D2"/>
<path d="M12.4011 35.1485C12.4011 35.1485 21.4636 28.2596 22.2789 18.2495C20.9394 17.5061 16.4938 14.6734 16.3855 14.6797C15.9268 25.1674 3.92578 28.8304 3.92578 28.8304L10.7831 30.1875L12.4011 35.1485Z" fill="url(#paint17_linear_2248_83184)"/>
<g style="mix-blend-mode:multiply" opacity="0.31">
<path d="M4.33984 17.5767C4.56036 18.0454 5.39075 18.5217 6.40764 18.3214C7.3275 18.1399 9.23904 17.0815 11.7844 16.3645C14.8174 15.5101 22.7849 17.5124 22.7849 17.5124L21.5337 22.1571C20.5611 22.1377 19.5965 21.9781 18.6695 21.6833C17.4207 23.1261 15.9792 24.6999 14.5679 25.9323C11.7277 28.4146 9.88042 28.1374 8.97064 27.4204C8.56364 27.1004 7.90083 25.1523 6.7655 22.7329C6.10396 21.3267 4.39655 18.247 4.33984 17.5767Z" fill="#EC008C"/>
</g>
<path d="M0.724609 7.74408C0.850618 7.31313 1.40001 6.39453 3.4237 6.39453C4.77325 6.39453 7.21655 6.75869 10.1714 7.65461C14.8942 9.09363 19.617 11.7902 19.617 11.7902L18.2687 15.8414H1.40001C1.40001 15.8414 0.724609 8.41822 0.724609 7.74408Z" fill="url(#paint18_linear_2248_83184)"/>
<path d="M1.32948 15.917C1.25261 15.074 1.29042 15.4873 1.21733 14.6758C1.13795 13.7937 1.05982 12.8991 0.985477 12.051C0.890971 10.956 0.795205 9.86102 0.71582 8.76474C0.698178 8.54171 0.622573 7.94443 0.654075 7.7214C0.88593 6.92251 1.75287 6.31641 3.42626 6.31641C4.97742 6.31641 7.50388 6.76374 10.1967 7.58279C11.6835 8.04588 13.1429 8.5928 14.5679 9.22089C15.8343 9.76903 17.0603 10.355 18.1982 10.9447C18.5964 11.1501 18.9542 11.3416 19.2693 11.513L19.5578 11.673C19.6511 11.7247 19.5994 11.6957 19.7128 11.7612L18.3267 15.9195L1.32948 15.917ZM1.47187 15.7632H18.2133L19.5251 11.8267L19.481 11.8015L19.1937 11.6428C18.8799 11.4727 18.522 11.2824 18.1251 11.077C16.991 10.4898 15.7675 9.90386 14.5049 9.35698C13.0848 8.73288 11.6304 8.18976 10.1488 7.73022C7.46986 6.91495 4.95725 6.47014 3.42373 6.47014C2.57318 6.48904 1.50715 6.59614 0.981697 7.37361C0.904261 7.49058 0.843607 7.61783 0.801505 7.75164C0.796424 7.94798 0.807804 8.1444 0.835527 8.33884C0.855689 8.63244 0.88341 8.984 0.906092 9.27256C0.973296 10.1017 1.04302 10.93 1.11527 11.7574C1.12283 11.8494 1.13039 11.9414 1.13921 12.0347C1.21229 12.884 1.29168 13.7773 1.37106 14.6594C1.39878 14.9694 1.42399 15.2542 1.44667 15.51L1.47187 15.7632Z" fill="#FF92D2"/>
<path d="M3.42773 17.1744C3.64825 17.6431 4.47864 18.1195 5.49553 17.9191C6.41539 17.7377 8.32693 16.6792 10.8723 15.9622C13.9053 15.1079 18.3169 14.75 18.3169 14.75L20.081 18.5013C20.081 18.5013 16.496 23.0502 13.6546 25.53C10.8131 28.0098 8.96705 27.7351 8.05727 27.0182C7.65027 26.6981 6.98747 24.75 5.85213 22.3307C5.19185 20.9244 3.48822 17.8448 3.42773 17.1744Z" fill="url(#paint19_linear_2248_83184)"/>
<path d="M9.71156 0.847656C9.31211 2.61177 10.8822 4.61908 12.8429 6.39202C15.179 8.50643 19.7065 12.2262 19.7065 12.2262L17.4749 15.7166C17.4749 15.7166 11.7163 15.0979 8.10495 14.0105C4.49356 12.923 3.16165 12.1531 3.28514 11.0014C3.34058 10.486 4.26044 8.50517 5.70072 6.26097C6.53363 4.953 9.1735 1.25214 9.71156 0.847656Z" fill="url(#paint20_linear_2248_83184)"/>
<g style="mix-blend-mode:multiply" opacity="0.31">
<path d="M17.6202 15.4439C13.8462 14.9903 10.0471 14.4359 6.45334 13.1569C5.86881 12.9559 5.29876 12.7151 4.74719 12.4361C4.27844 12.1841 3.73913 11.854 3.51609 11.3424C3.29306 10.8308 3.46821 10.3935 3.67234 9.91847C3.75047 9.73576 3.82733 9.54927 3.91302 9.37034C4.20536 8.75668 4.5859 8.1027 4.92108 7.51172C5.00299 8.58153 5.85607 8.91671 6.53273 9.05028C7.3291 9.20779 8.5413 9.27709 9.85178 9.44594C11.0771 9.62725 12.2758 9.95687 13.4216 10.4275C14.6716 10.9417 16.9649 11.796 19.4586 12.7171L17.6202 15.4439Z" fill="#EC008C"/>
</g>
<path d="M19.1421 13.52L16.2024 12.7148L18.8233 14.5961L14.4131 14.2899L18.8032 15.637L12.1953 16.0818L18.7893 16.4497L16.1532 17.7615L18.8233 17.3734L13.0622 20.6496L19.3765 18.0236C19.3992 18.0223 19.1421 13.52 19.1421 13.52Z" fill="#7F3C00"/>
<path d="M19.4411 12.1081L19.3037 11.9947L18.3713 11.2223C17.4073 10.4221 16.4446 9.61316 15.5449 8.84829L15.3168 8.65424C14.2987 7.78604 13.4418 7.03881 12.7967 6.4491C11.7495 5.46749 10.6722 4.43297 10.0245 3.13004C9.72458 2.52016 9.50911 1.69985 9.62252 1.01311C9.71576 0.761089 9.69182 0.887097 9.86067 0.742188L9.81531 0.919859C9.46753 2.45968 10.5777 4.23639 12.8962 6.33821C13.5464 6.92667 14.402 7.67264 15.4164 8.53957L15.6444 8.73362C16.5429 9.49849 17.5068 10.3062 18.4696 11.1064L19.402 11.8788L19.5167 11.9733L19.494 12.0111L19.4411 12.1081Z" fill="#FF92D2"/>
<g style="mix-blend-mode:multiply" opacity="0.31">
<path d="M8.23999 24.1768C7.5986 24.1491 6.92446 23.9979 6.41665 23.5757C5.99326 22.6307 6.18227 23.044 5.85339 22.3333C5.19185 20.927 3.48318 17.8474 3.42773 17.177C3.64825 17.6458 4.47864 18.1221 5.49553 17.9218C6.41539 17.7403 8.32693 16.6818 10.8723 15.9648C12.6364 15.4797 14.4534 15.2 16.2692 14.9706C16.7594 14.9076 17.2521 14.8547 17.7448 14.8056C17.93 14.7879 18.1291 14.7539 18.3169 14.7539L20.047 18.4321H20.0356C17.523 20.0412 14.9398 21.5483 12.2395 22.8222C11.3902 23.2229 10.7828 23.4711 9.9411 23.7899C9.84029 23.8278 9.39044 23.9903 9.23167 24.0294C9.0729 24.0684 8.88893 24.1012 8.71882 24.1365L8.23999 24.1768Z" fill="#EC008C"/>
</g>
<path d="M0.724522 7.74219C0.724522 8.41633 1.44025 9.43952 2.74947 9.76588C3.93395 10.062 6.77291 9.87425 10.1714 10.4413C14.22 11.1154 19.622 13.1404 19.622 13.1404V18.5373C19.622 18.5373 12.8742 21.9118 8.15522 23.2614C3.43622 24.6109 1.40875 23.2614 0.733343 21.9118C0.432183 21.3082 0.0289574 18.1933 0.00123564 15.1515C-0.0264862 12.1096 0.418322 8.56376 0.724522 7.74219Z" fill="url(#paint21_linear_2248_83184)"/>
<path d="M19.1352 13.0489C18.6463 12.8737 18.9185 12.9708 18.3174 12.7603C17.3308 12.4189 16.2849 12.0774 15.2227 11.7598C14.3469 11.4965 13.4976 11.2558 12.6886 11.058C11.7738 10.8299 10.9245 10.6484 10.1584 10.5199C8.39429 10.2049 6.61001 10.1293 4.82699 10.0461C3.66898 9.99194 3.13974 9.94657 2.73022 9.84451C1.93889 9.62903 0.930822 9.01159 0.720388 8.15474C0.67633 8.01356 0.653401 7.86664 0.652344 7.71875L0.801033 7.74521C0.801033 8.50126 1.62261 9.40852 2.76802 9.69456C3.16243 9.7941 3.68788 9.83821 4.83456 9.89239C6.04801 9.95791 7.26525 9.99194 8.47241 10.128C9.3091 10.2225 9.48048 10.254 10.1836 10.3687C10.9548 10.4947 11.8066 10.6799 12.7264 10.9093C13.5379 11.1122 14.3885 11.349 15.2668 11.6124C16.3303 11.9312 17.3799 12.2727 18.3678 12.6205C18.9626 12.8284 18.6967 12.7339 19.1655 12.9015L19.1352 13.0489Z" fill="#FF92D2"/>
<path d="M12.3419 35.3365L10.6949 30.2886L3.92578 29.0512V28.8256C6.9399 29.3372 4.5722 28.8357 10.8726 30.0857L12.4591 34.9496C12.643 34.8022 12.5447 34.8816 12.7539 34.7089C13.0916 34.4254 13.4684 34.0928 13.8741 33.7109C15.1072 32.55 16.2449 31.2917 17.2763 29.9483C19.3794 27.1371 21.1826 23.9667 21.8126 20.4688C21.8955 20.4873 21.9798 20.4983 22.0647 20.5015L22.047 20.6036C21.2645 24.1973 19.639 27.1661 17.4578 30.0895C16.4187 31.4423 15.2725 32.7094 14.0304 33.8785C13.6208 34.2641 13.2403 34.6006 12.8963 34.8866C12.7703 34.9874 12.6695 35.0744 12.5788 35.1474L12.4641 35.2369L12.3419 35.3365Z" fill="url(#paint22_linear_2248_83184)"/>
<g style="mix-blend-mode:multiply" opacity="0.31">
<path d="M17.1032 18.3809C16.9016 16.1443 17.3464 13.1994 18.0962 11.8033C18.8459 10.4071 19.6196 11.0876 19.8212 13.3242C20.0228 15.5608 19.578 18.5057 18.8283 19.9031C18.0785 21.3005 17.3048 20.6175 17.1032 18.3809Z" fill="#EC008C"/>
</g>
<path d="M31.6747 35.1485C31.6747 35.1485 22.6121 28.2596 21.7969 18.2495C23.1363 17.5061 27.5819 14.6734 27.6903 14.6797C28.1502 25.1674 40.15 28.8304 40.15 28.8304L33.2926 30.1875L31.6747 35.1485Z" fill="url(#paint23_linear_2248_83184)"/>
<g style="mix-blend-mode:multiply" opacity="0.31">
<path d="M39.7772 17.5763C39.5567 18.0451 38.7263 18.5214 37.7094 18.321C36.7896 18.1396 34.878 17.0811 32.3327 16.3641C29.2997 15.5098 22 17.4692 22 17.4692L22.4536 22.0257C23.4923 22.1621 24.5476 22.0932 25.5597 21.8228C26.7631 23.1988 28.2349 24.7865 29.5466 25.9319C32.3869 28.4143 34.2354 28.1371 35.1439 27.4201C35.5509 27.1 36.2137 25.1519 37.3491 22.7326C38.0131 21.3263 39.7256 18.2467 39.7772 17.5763Z" fill="#EC008C"/>
</g>
<path d="M31.7306 35.3378L33.3775 30.29L40.1467 29.0551V28.8295C37.1326 29.3411 39.5003 28.8396 33.1999 30.0896L31.6134 34.9535C31.4294 34.8061 31.5277 34.8855 31.3186 34.7128C30.9809 34.4293 30.6041 34.0967 30.1983 33.7149C28.9653 32.5539 27.8275 31.2956 26.7961 29.9523C24.693 27.141 22.8899 23.9706 22.2598 20.4727C22.177 20.4912 22.0926 20.5022 22.0078 20.5054L22.0255 20.6075C22.808 24.2012 24.4335 27.17 26.6147 30.0934C27.6538 31.4462 28.8 32.7133 30.0421 33.8824C30.4516 34.268 30.8322 34.6045 31.1762 34.8905C31.2959 34.9913 31.403 35.0783 31.4937 35.1513L31.6084 35.2408L31.7306 35.3378Z" fill="url(#paint24_linear_2248_83184)"/>
<path d="M43.3506 7.74408C43.2246 7.31439 42.6752 6.39453 40.6515 6.39453C39.3019 6.39453 36.8586 6.75869 33.9037 7.65461C29.181 9.09111 24.4531 11.7902 24.4531 11.7902L25.8027 15.8388H42.6777C42.6777 15.8388 43.3506 8.41822 43.3506 7.74408Z" fill="url(#paint25_linear_2248_83184)"/>
<path d="M42.7441 15.917C42.821 15.074 42.7832 15.4885 42.8562 14.6758C42.9356 13.7937 43.0137 12.9003 43.0881 12.051C43.1826 10.956 43.2784 9.86102 43.3615 8.76601C43.3792 8.54171 43.4548 7.94443 43.4233 7.7214C43.1914 6.92251 42.3245 6.31641 40.6511 6.31641C39.0999 6.31641 36.5735 6.76374 33.8807 7.58279C32.3939 8.04589 30.9344 8.5928 29.5095 9.22089C28.2431 9.76903 27.017 10.355 25.8792 10.9447C25.481 11.1513 25.1231 11.3416 24.8081 11.513L24.5183 11.6629C24.425 11.7146 24.4767 11.6856 24.3633 11.7511L25.7494 15.9094L42.7441 15.917ZM42.6042 15.7632H25.8603L24.5485 11.8267L24.5939 11.8015L24.8799 11.644C25.1937 11.4727 25.5515 11.2824 25.9485 11.077C27.0825 10.4898 28.3061 9.90386 29.5687 9.35698C30.9888 8.73288 32.4432 8.18976 33.9248 7.73022C36.6037 6.91495 39.1163 6.47014 40.6498 6.47014C41.5004 6.48904 42.5664 6.59614 43.0919 7.37361C43.1693 7.49058 43.23 7.61783 43.2721 7.75164C43.2772 7.94798 43.2658 8.1444 43.238 8.33884C43.2179 8.63244 43.1902 8.984 43.1675 9.27256C43.102 10.1017 43.0301 10.9296 42.9583 11.7574C42.9507 11.8494 42.9432 11.9414 42.9344 12.0347C42.8613 12.884 42.7819 13.7773 42.7025 14.6607C42.6748 14.9694 42.6496 15.2542 42.6269 15.51L42.6042 15.7632Z" fill="#FF92D2"/>
<path d="M40.6474 17.1744C40.4269 17.6431 39.5965 18.1195 38.5796 17.9191C37.6597 17.7377 35.7482 16.6792 33.2028 15.9622C30.1698 15.1079 25.7583 14.75 25.7583 14.75L23.9941 18.5013C23.9941 18.5013 27.5791 23.0502 30.4206 25.53C33.262 28.0098 35.1093 27.7351 36.0191 27.0182C36.4261 26.6981 37.0876 24.75 38.223 22.3307C38.8833 20.9244 40.5919 17.8448 40.6474 17.1744Z" fill="url(#paint26_linear_2248_83184)"/>
<path d="M34.3602 0.847656C34.7596 2.61177 33.1896 4.61908 31.2289 6.39202C28.8927 8.50643 24.3652 12.2262 24.3652 12.2262L26.6031 15.7141C26.6031 15.7141 32.363 15.0954 35.9744 14.0079C39.5858 12.9205 40.9164 12.1506 40.7929 10.9989C40.7375 10.4835 39.8176 8.50265 38.3773 6.25845C37.5406 4.953 34.9008 1.25214 34.3602 0.847656Z" fill="url(#paint27_linear_2248_83184)"/>
<g style="mix-blend-mode:multiply" opacity="0.31">
<path d="M26.4516 15.4439C30.2256 14.9903 34.0247 14.4359 37.6185 13.1569C38.2017 12.9558 38.7705 12.715 39.3208 12.4361C39.7896 12.1841 40.3289 11.854 40.5519 11.3424C40.775 10.8308 40.5998 10.3935 40.3957 9.91847C40.3188 9.73576 40.2407 9.54927 40.155 9.37034C39.8627 8.75668 39.4821 8.1027 39.1469 7.51172C39.065 8.58153 38.212 8.91671 37.5353 9.05028C36.7389 9.20779 35.5267 9.27709 34.2162 9.44594C32.9909 9.62725 31.7922 9.95687 30.6464 10.4275C29.3964 10.9417 27.1031 11.796 24.6094 12.7171L26.4516 15.4439Z" fill="#EC008C"/>
</g>
<path d="M24.9309 13.52L27.8706 12.7148L25.2497 14.5961L29.6599 14.2899L25.2698 15.637L31.8777 16.0818L25.2862 16.4497L27.9223 17.7615L25.2522 17.3734L31.0133 20.6496L24.699 18.0236C24.6738 18.0223 24.9309 13.52 24.9309 13.52Z" fill="#7F3C00"/>
<path d="M24.6299 12.1081L24.7672 11.9947L25.6997 11.2223C26.6636 10.4221 27.6263 9.61316 28.526 8.84829L28.7541 8.65424C29.7722 7.78604 30.6291 7.03881 31.2806 6.4491C32.3277 5.46749 33.4051 4.43297 34.0527 3.13004C34.3526 2.52016 34.5681 1.69985 34.4547 1.01311C34.3615 0.761089 34.3854 0.887097 34.2166 0.742188L34.2619 0.919859C34.6097 2.45968 33.5059 4.23639 31.181 6.33821C30.5308 6.92667 29.6752 7.67264 28.6609 8.53957L28.4328 8.73362C27.5343 9.49849 26.5704 10.3062 25.6077 11.1064L24.6765 11.8788L24.5605 11.9733L24.5832 12.0111L24.6299 12.1081Z" fill="#FF92D2"/>
<g style="mix-blend-mode:multiply" opacity="0.31">
<path d="M35.8343 24.1768C36.4757 24.1491 37.1498 23.9979 37.6576 23.5757C38.081 22.6307 37.892 23.044 38.2209 22.3333C38.8824 20.927 40.5911 17.8474 40.6466 17.177C40.426 17.6458 39.5957 18.1221 38.5788 17.9218C37.6589 17.7403 35.7474 16.6818 33.202 15.9648C31.4379 15.4797 29.6208 15.2 27.8051 14.9706C27.3149 14.9076 26.8222 14.8547 26.3295 14.8056C26.1443 14.7879 25.9515 14.7539 25.7574 14.7539L24.0273 18.4321H24.0387C26.5475 20.0475 29.1357 21.5546 31.8398 22.8285C32.6891 23.2292 33.2965 23.4774 34.1382 23.7963C34.239 23.8341 34.6889 23.9966 34.8477 24.0357C35.0064 24.0747 35.1904 24.1075 35.3605 24.1428L35.8343 24.1768Z" fill="#EC008C"/>
</g>
<path d="M43.3506 7.74219C43.3506 8.41633 42.6348 9.43952 41.3256 9.76588C40.1411 10.062 37.3022 9.87425 33.9037 10.4413C29.8551 11.1154 24.4531 13.1404 24.4531 13.1404V18.5373C24.4531 18.5373 31.2009 21.9118 35.9199 23.2614C40.6389 24.6109 42.6663 23.2614 43.3417 21.9118C43.6429 21.3082 44.0398 18.6356 43.9983 15.1515C43.9718 12.1084 43.6568 8.56376 43.3506 7.74219Z" fill="url(#paint28_linear_2248_83184)"/>
<path d="M24.9384 13.0489C25.4286 12.8737 25.1552 12.9708 25.7562 12.7603C26.7429 12.4189 27.7887 12.0774 28.851 11.7598C29.7331 11.4965 30.5761 11.2558 31.385 11.058C32.2998 10.8299 33.1491 10.6484 33.9153 10.5199C35.6794 10.2049 37.4637 10.1293 39.2467 10.0461C40.4047 9.99194 40.9339 9.94657 41.3434 9.84451C42.1348 9.62903 43.1428 9.01159 43.3533 8.15474C43.3973 8.01356 43.4203 7.86664 43.4213 7.71875L43.2726 7.74521C43.2726 8.50126 42.4511 9.40852 41.3069 9.69456C40.9112 9.7941 40.3858 9.83821 39.2391 9.89239C38.0257 9.95791 36.8084 9.99194 35.6013 10.128C34.7646 10.2225 34.5932 10.254 33.8901 10.3687C33.1189 10.4947 32.2671 10.6799 31.3472 10.9093C30.5357 11.1122 29.6852 11.349 28.8069 11.6124C27.7434 11.9312 26.6937 12.2727 25.7071 12.6205C25.1111 12.8284 25.377 12.7339 24.9082 12.9015L24.9384 13.0489Z" fill="#FF92D2"/>
<g style="mix-blend-mode:multiply" opacity="0.31">
<path d="M26.9467 18.4052C27.1483 16.1686 26.7035 13.2225 25.9537 11.8264C25.204 10.4302 24.4315 11.1119 24.2287 13.3485C24.0258 15.5852 24.4719 18.53 25.2229 19.9262C25.9739 21.3223 26.745 20.6419 26.9467 18.4052Z" fill="#EC008C"/>
</g>
<path d="M18.9176 10.812C19.632 10.2198 24.6875 10.3962 25.3793 10.8813C26.071 11.3665 26.5587 20.3055 25.6187 20.9091C24.8097 21.4282 19.4607 21.3425 18.3871 20.9091C17.3135 20.4756 18.2031 11.4093 18.9176 10.812Z" fill="url(#paint29_linear_2248_83184)"/>
<defs>
<linearGradient id="paint0_linear_2248_83184" x1="35.8235" y1="3.23591" x2="24.0102" y2="10.8112" gradientUnits="userSpaceOnUse">
<stop stop-color="#BD2500"/>
<stop offset="0.02" stop-color="#C52D00"/>
<stop offset="0.07" stop-color="#DE4900"/>
<stop offset="0.13" stop-color="#F05D00"/>
<stop offset="0.19" stop-color="#FB6900"/>
<stop offset="0.24" stop-color="#FF6D00"/>
<stop offset="0.56" stop-color="#E36D00"/>
<stop offset="0.99" stop-color="#A41600"/>
</linearGradient>
<linearGradient id="paint1_linear_2248_83184" x1="8.16464" y1="3.3047" x2="19.9528" y2="10.8828" gradientUnits="userSpaceOnUse">
<stop stop-color="#BD2500"/>
<stop offset="0.02" stop-color="#C52D00"/>
<stop offset="0.07" stop-color="#DE4900"/>
<stop offset="0.13" stop-color="#F05D00"/>
<stop offset="0.19" stop-color="#FB6900"/>
<stop offset="0.24" stop-color="#FF6D00"/>
<stop offset="0.56" stop-color="#E36D00"/>
<stop offset="0.99" stop-color="#A41600"/>
</linearGradient>
<linearGradient id="paint2_linear_2248_83184" x1="8.27982" y1="37.5406" x2="16.6185" y2="15.7376" gradientUnits="userSpaceOnUse">
<stop stop-color="#FF5F00"/>
<stop offset="0.08" stop-color="#FF6900"/>
<stop offset="0.21" stop-color="#FF8500"/>
<stop offset="0.37" stop-color="#FFAF00"/>
<stop offset="0.42" stop-color="#FFA900"/>
<stop offset="0.49" stop-color="#FF9800"/>
<stop offset="0.56" stop-color="#FF7D00"/>
<stop offset="0.59" stop-color="#FF7100"/>
</linearGradient>
<linearGradient id="paint3_linear_2248_83184" x1="0.724609" y1="11.1173" x2="19.6183" y2="11.1173" gradientUnits="userSpaceOnUse">
<stop stop-color="#BD2500"/>
<stop offset="0.02" stop-color="#C52D00"/>
<stop offset="0.07" stop-color="#DE4900"/>
<stop offset="0.13" stop-color="#F05D00"/>
<stop offset="0.19" stop-color="#FB6900"/>
<stop offset="0.24" stop-color="#FF6D00"/>
<stop offset="0.56" stop-color="#E36D00"/>
<stop offset="0.99" stop-color="#A41600"/>
</linearGradient>
<linearGradient id="paint4_linear_2248_83184" x1="5.96434" y1="22.8506" x2="19.2554" y2="16.5702" gradientUnits="userSpaceOnUse">
<stop stop-color="#F76600"/>
<stop offset="0.04" stop-color="#FC7100"/>
<stop offset="0.09" stop-color="#FF7800"/>
<stop offset="0.25" stop-color="#FFA000"/>
<stop offset="0.34" stop-color="#FFB100"/>
<stop offset="0.43" stop-color="#FEAB00"/>
<stop offset="0.54" stop-color="#FC9A00"/>
<stop offset="0.68" stop-color="#F97D00"/>
<stop offset="0.73" stop-color="#F77100"/>
<stop offset="0.9" stop-color="#FE4900"/>
</linearGradient>
<linearGradient id="paint5_linear_2248_83184" x1="5.80193" y1="6.03675" x2="18.4115" y2="14.1429" gradientUnits="userSpaceOnUse">
<stop stop-color="#F76600"/>
<stop offset="0.04" stop-color="#FC7100"/>
<stop offset="0.09" stop-color="#FF7800"/>
<stop offset="0.25" stop-color="#FFA000"/>
<stop offset="0.34" stop-color="#FFB100"/>
<stop offset="0.43" stop-color="#FEAB00"/>
<stop offset="0.54" stop-color="#FC9A00"/>
<stop offset="0.68" stop-color="#F97D00"/>
<stop offset="0.73" stop-color="#F77100"/>
<stop offset="0.9" stop-color="#FE4900"/>
</linearGradient>
<linearGradient id="paint6_linear_2248_83184" x1="-0.00884501" y1="15.7815" x2="19.6182" y2="15.7815" gradientUnits="userSpaceOnUse">
<stop stop-color="#F76600"/>
<stop offset="0.04" stop-color="#FC7100"/>
<stop offset="0.09" stop-color="#FF7800"/>
<stop offset="0.25" stop-color="#FFA300"/>
<stop offset="0.34" stop-color="#FFB400"/>
<stop offset="0.42" stop-color="#FEAE00"/>
<stop offset="0.54" stop-color="#FC9D00"/>
<stop offset="0.67" stop-color="#F98000"/>
<stop offset="0.73" stop-color="#F77100"/>
</linearGradient>
<linearGradient id="paint7_linear_2248_83184" x1="19.7852" y1="31.5675" x2="4.53188" y2="16.3143" gradientUnits="userSpaceOnUse">
<stop stop-color="#BA0000"/>
<stop offset="0.06" stop-color="#CA1B00"/>
<stop offset="0.12" stop-color="#DB3600"/>
<stop offset="0.2" stop-color="#E84C00"/>
<stop offset="0.29" stop-color="#F25D00"/>
<stop offset="0.41" stop-color="#FA6800"/>
<stop offset="0.56" stop-color="#FE6F00"/>
<stop offset="1" stop-color="#FF7100"/>
</linearGradient>
<linearGradient id="paint8_linear_2248_83184" x1="36.0045" y1="37.307" x2="27.6647" y2="15.5046" gradientUnits="userSpaceOnUse">
<stop stop-color="#FF5F00"/>
<stop offset="0.08" stop-color="#FF6900"/>
<stop offset="0.21" stop-color="#FF8500"/>
<stop offset="0.37" stop-color="#FFAF00"/>
<stop offset="0.42" stop-color="#FFA900"/>
<stop offset="0.49" stop-color="#FF9800"/>
<stop offset="0.56" stop-color="#FF7D00"/>
<stop offset="0.59" stop-color="#FF7100"/>
</linearGradient>
<linearGradient id="paint9_linear_2248_83184" x1="24.3037" y1="31.5526" x2="37.2535" y2="18.6014" gradientUnits="userSpaceOnUse">
<stop stop-color="#BA0000"/>
<stop offset="0.06" stop-color="#CA1B00"/>
<stop offset="0.12" stop-color="#DB3600"/>
<stop offset="0.2" stop-color="#E84C00"/>
<stop offset="0.29" stop-color="#F25D00"/>
<stop offset="0.41" stop-color="#FA6800"/>
<stop offset="0.56" stop-color="#FE6F00"/>
<stop offset="1" stop-color="#FF7100"/>
</linearGradient>
<linearGradient id="paint10_linear_2248_83184" x1="43.3506" y1="11.1173" x2="24.4569" y2="11.1173" gradientUnits="userSpaceOnUse">
<stop stop-color="#BD2500"/>
<stop offset="0.02" stop-color="#C52D00"/>
<stop offset="0.07" stop-color="#DE4900"/>
<stop offset="0.13" stop-color="#F05D00"/>
<stop offset="0.19" stop-color="#FB6900"/>
<stop offset="0.24" stop-color="#FF6D00"/>
<stop offset="0.56" stop-color="#E36D00"/>
<stop offset="0.99" stop-color="#A41600"/>
</linearGradient>
<linearGradient id="paint11_linear_2248_83184" x1="38.5798" y1="22.9635" x2="25.2887" y2="16.6831" gradientUnits="userSpaceOnUse">
<stop stop-color="#F76600"/>
<stop offset="0.04" stop-color="#FC7100"/>
<stop offset="0.09" stop-color="#FF7800"/>
<stop offset="0.25" stop-color="#FFA000"/>
<stop offset="0.34" stop-color="#FFB100"/>
<stop offset="0.43" stop-color="#FEAB00"/>
<stop offset="0.54" stop-color="#FC9A00"/>
<stop offset="0.68" stop-color="#F97D00"/>
<stop offset="0.73" stop-color="#F77100"/>
<stop offset="0.9" stop-color="#FE4900"/>
</linearGradient>
<linearGradient id="paint12_linear_2248_83184" x1="38.188" y1="5.97486" x2="25.5505" y2="14.0787" gradientUnits="userSpaceOnUse">
<stop stop-color="#F76600"/>
<stop offset="0.04" stop-color="#FC7100"/>
<stop offset="0.09" stop-color="#FF7800"/>
<stop offset="0.25" stop-color="#FFA000"/>
<stop offset="0.34" stop-color="#FFB100"/>
<stop offset="0.43" stop-color="#FEAB00"/>
<stop offset="0.54" stop-color="#FC9A00"/>
<stop offset="0.68" stop-color="#F97D00"/>
<stop offset="0.73" stop-color="#F77100"/>
<stop offset="0.9" stop-color="#FE4900"/>
</linearGradient>
<linearGradient id="paint13_linear_2248_83184" x1="44.0109" y1="15.7815" x2="24.4569" y2="15.7815" gradientUnits="userSpaceOnUse">
<stop stop-color="#F76600"/>
<stop offset="0.04" stop-color="#FC7100"/>
<stop offset="0.09" stop-color="#FF7800"/>
<stop offset="0.25" stop-color="#FFA300"/>
<stop offset="0.34" stop-color="#FFB400"/>
<stop offset="0.42" stop-color="#FEAE00"/>
<stop offset="0.54" stop-color="#FC9D00"/>
<stop offset="0.67" stop-color="#F98000"/>
<stop offset="0.73" stop-color="#F77100"/>
</linearGradient>
<linearGradient id="paint14_linear_2248_83184" x1="21.9796" y1="10.5096" x2="22.03" y2="21.1888" gradientUnits="userSpaceOnUse">
<stop offset="0.01" stop-color="#EF2600"/>
<stop offset="0.16" stop-color="#FF7500"/>
<stop offset="0.31" stop-color="#FF9B06"/>
<stop offset="0.43" stop-color="#FFB20A"/>
<stop offset="0.5" stop-color="#FFBB0B"/>
<stop offset="0.57" stop-color="#FEAD0A"/>
<stop offset="0.7" stop-color="#FA8906"/>
<stop offset="0.85" stop-color="#F45600"/>
<stop offset="1" stop-color="#D42800"/>
</linearGradient>
<linearGradient id="paint15_linear_2248_83184" x1="35.8235" y1="3.23591" x2="24.0102" y2="10.8112" gradientUnits="userSpaceOnUse">
<stop stop-color="#EC008C"/>
<stop offset="0.02" stop-color="#FF2DA9"/>
<stop offset="0.07" stop-color="#EC008C"/>
<stop offset="0.13" stop-color="#EC008C"/>
<stop offset="0.19" stop-color="#FF92D2"/>
<stop offset="0.24" stop-color="#FF0298"/>
<stop offset="0.56" stop-color="#FF47B4"/>
<stop offset="0.99" stop-color="#EC008C"/>
</linearGradient>
<linearGradient id="paint16_linear_2248_83184" x1="19.4713" y1="7.07423" x2="6.81885" y2="7.07423" gradientUnits="userSpaceOnUse">
<stop stop-color="#EC008C"/>
<stop offset="0.04" stop-color="#FF5EBD"/>
<stop offset="0.09" stop-color="#FF9FD8"/>
<stop offset="0.25" stop-color="#FFACDD"/>
<stop offset="0.34" stop-color="#FFC5E7"/>
<stop offset="0.42" stop-color="#FFA6DB"/>
<stop offset="0.54" stop-color="#FF9FD8"/>
<stop offset="0.67" stop-color="#FF43B1"/>
<stop offset="0.73" stop-color="#EC008C"/>
</linearGradient>
<linearGradient id="paint17_linear_2248_83184" x1="19.3613" y1="21.7391" x2="3.68625" y2="29.8913" gradientUnits="userSpaceOnUse">
<stop stop-color="#EC008C"/>
<stop offset="0.04" stop-color="#FF3FB1"/>
<stop offset="0.09" stop-color="#FF92D2"/>
<stop offset="0.25" stop-color="#FF8DD0"/>
<stop offset="0.34" stop-color="#FFD7EE"/>
<stop offset="0.43" stop-color="#FF94D3"/>
<stop offset="0.54" stop-color="#FF92D2"/>
<stop offset="0.68" stop-color="#FF92D2"/>
<stop offset="0.73" stop-color="#FF4BB6"/>
<stop offset="0.9" stop-color="#EC008C"/>
</linearGradient>
<linearGradient id="paint18_linear_2248_83184" x1="19.6263" y1="11.1181" x2="0.728263" y2="11.1181" gradientUnits="userSpaceOnUse">
<stop stop-color="#EC008C"/>
<stop offset="0.04" stop-color="#FF5EBD"/>
<stop offset="0.09" stop-color="#FF9FD8"/>
<stop offset="0.25" stop-color="#FFACDD"/>
<stop offset="0.34" stop-color="#FFC5E7"/>
<stop offset="0.42" stop-color="#FFA6DB"/>
<stop offset="0.54" stop-color="#FF9FD8"/>
<stop offset="0.67" stop-color="#FF43B1"/>
<stop offset="0.73" stop-color="#EC008C"/>
</linearGradient>
<linearGradient id="paint19_linear_2248_83184" x1="17.4336" y1="19.1536" x2="5.94079" y2="27.8481" gradientUnits="userSpaceOnUse">
<stop stop-color="#EC008C"/>
<stop offset="0.04" stop-color="#FF3FB1"/>
<stop offset="0.09" stop-color="#FF92D2"/>
<stop offset="0.25" stop-color="#FF8DD0"/>
<stop offset="0.34" stop-color="#FFD7EE"/>
<stop offset="0.43" stop-color="#FF94D3"/>
<stop offset="0.54" stop-color="#FF92D2"/>
<stop offset="0.68" stop-color="#FF92D2"/>
<stop offset="0.73" stop-color="#FF4BB6"/>
<stop offset="0.9" stop-color="#EC008C"/>
</linearGradient>
<linearGradient id="paint20_linear_2248_83184" x1="19.7146" y1="8.28236" x2="3.28052" y2="8.28236" gradientUnits="userSpaceOnUse">
<stop stop-color="#EC008C"/>
<stop offset="0.04" stop-color="#FF5EBD"/>
<stop offset="0.09" stop-color="#FF9FD8"/>
<stop offset="0.25" stop-color="#FFACDD"/>
<stop offset="0.34" stop-color="#FFC5E7"/>
<stop offset="0.42" stop-color="#FFA6DB"/>
<stop offset="0.54" stop-color="#FF9FD8"/>
<stop offset="0.67" stop-color="#FF43B1"/>
<stop offset="0.73" stop-color="#EC008C"/>
</linearGradient>
<linearGradient id="paint21_linear_2248_83184" x1="-2.5" y1="16.6641" x2="18.5" y2="17.1641" gradientUnits="userSpaceOnUse">
<stop stop-color="#EC008C"/>
<stop offset="0.182292" stop-color="#FF92D2"/>
<stop offset="0.348958" stop-color="#FFACDD"/>
<stop offset="0.489583" stop-color="#FFD8EF"/>
<stop offset="0.598958" stop-color="#FFBFE5"/>
<stop offset="0.822917" stop-color="#FF92D2"/>
<stop offset="0.994792" stop-color="#EC008C"/>
</linearGradient>
<linearGradient id="paint22_linear_2248_83184" x1="19.7852" y1="31.5675" x2="4.53188" y2="16.3143" gradientUnits="userSpaceOnUse">
<stop stop-color="#BA0000"/>
<stop offset="0.06" stop-color="#CA1B00"/>
<stop offset="0.12" stop-color="#DB3600"/>
<stop offset="0.2" stop-color="#E84C00"/>
<stop offset="0.29" stop-color="#F25D00"/>
<stop offset="0.41" stop-color="#FA6800"/>
<stop offset="0.56" stop-color="#FE6F00"/>
<stop offset="1" stop-color="#FF7100"/>
</linearGradient>
<linearGradient id="paint23_linear_2248_83184" x1="37.2324" y1="21.7391" x2="21.5573" y2="29.8913" gradientUnits="userSpaceOnUse">
<stop stop-color="#EC008C"/>
<stop offset="0.04" stop-color="#FF3FB1"/>
<stop offset="0.09" stop-color="#FF92D2"/>
<stop offset="0.25" stop-color="#FF8DD0"/>
<stop offset="0.34" stop-color="#FFD7EE"/>
<stop offset="0.43" stop-color="#FF94D3"/>
<stop offset="0.54" stop-color="#FF92D2"/>
<stop offset="0.68" stop-color="#FF92D2"/>
<stop offset="0.73" stop-color="#FF4BB6"/>
<stop offset="0.9" stop-color="#EC008C"/>
</linearGradient>
<linearGradient id="paint24_linear_2248_83184" x1="24.3037" y1="31.5526" x2="37.2535" y2="18.6014" gradientUnits="userSpaceOnUse">
<stop stop-color="#BA0000"/>
<stop offset="0.06" stop-color="#CA1B00"/>
<stop offset="0.12" stop-color="#DB3600"/>
<stop offset="0.2" stop-color="#E84C00"/>
<stop offset="0.29" stop-color="#F25D00"/>
<stop offset="0.41" stop-color="#FA6800"/>
<stop offset="0.56" stop-color="#FE6F00"/>
<stop offset="1" stop-color="#FF7100"/>
</linearGradient>
<linearGradient id="paint25_linear_2248_83184" x1="40.3465" y1="9.65173" x2="31.6096" y2="19.7918" gradientUnits="userSpaceOnUse">
<stop stop-color="#EC008C"/>
<stop offset="0.04" stop-color="#FF3FB1"/>
<stop offset="0.09" stop-color="#FF92D2"/>
<stop offset="0.25" stop-color="#FF8DD0"/>
<stop offset="0.34" stop-color="#FFD7EE"/>
<stop offset="0.43" stop-color="#FF94D3"/>
<stop offset="0.54" stop-color="#FF92D2"/>
<stop offset="0.68" stop-color="#FF92D2"/>
<stop offset="0.73" stop-color="#FF4BB6"/>
<stop offset="0.9" stop-color="#EC008C"/>
</linearGradient>
<linearGradient id="paint26_linear_2248_83184" x1="38" y1="19.1536" x2="26.5072" y2="27.8481" gradientUnits="userSpaceOnUse">
<stop stop-color="#EC008C"/>
<stop offset="0.04" stop-color="#FF3FB1"/>
<stop offset="0.09" stop-color="#FF92D2"/>
<stop offset="0.25" stop-color="#FF8DD0"/>
<stop offset="0.34" stop-color="#FFD7EE"/>
<stop offset="0.43" stop-color="#FF94D3"/>
<stop offset="0.54" stop-color="#FF92D2"/>
<stop offset="0.68" stop-color="#FF92D2"/>
<stop offset="0.73" stop-color="#FF4BB6"/>
<stop offset="0.9" stop-color="#EC008C"/>
</linearGradient>
<linearGradient id="paint27_linear_2248_83184" x1="38.188" y1="5.97486" x2="25.5505" y2="14.0787" gradientUnits="userSpaceOnUse">
<stop stop-color="#EC008C"/>
<stop offset="0.04" stop-color="#FF3FB1"/>
<stop offset="0.09" stop-color="#FF92D2"/>
<stop offset="0.25" stop-color="#FF8DD0"/>
<stop offset="0.34" stop-color="#FFD7EE"/>
<stop offset="0.43" stop-color="#FF94D3"/>
<stop offset="0.54" stop-color="#FF92D2"/>
<stop offset="0.68" stop-color="#FF92D2"/>
<stop offset="0.73" stop-color="#FF4BB6"/>
<stop offset="0.9" stop-color="#EC008C"/>
</linearGradient>
<linearGradient id="paint28_linear_2248_83184" x1="44.0109" y1="15.7815" x2="24.4569" y2="15.7815" gradientUnits="userSpaceOnUse">
<stop stop-color="#EC008C"/>
<stop offset="0.04" stop-color="#FF5EBD"/>
<stop offset="0.09" stop-color="#FF9FD8"/>
<stop offset="0.25" stop-color="#FFACDD"/>
<stop offset="0.34" stop-color="#FFC5E7"/>
<stop offset="0.42" stop-color="#FFA6DB"/>
<stop offset="0.54" stop-color="#FF9FD8"/>
<stop offset="0.67" stop-color="#FF43B1"/>
<stop offset="0.73" stop-color="#EC008C"/>
</linearGradient>
<linearGradient id="paint29_linear_2248_83184" x1="22.0142" y1="10.4375" x2="22.0142" y2="21.267" gradientUnits="userSpaceOnUse">
<stop stop-color="#EC008C"/>
<stop offset="0.182292" stop-color="#FF92D2"/>
<stop offset="0.348958" stop-color="#FFACDD"/>
<stop offset="0.489583" stop-color="#FFD8EF"/>
<stop offset="0.598958" stop-color="#FFBFE5"/>
<stop offset="0.822917" stop-color="#FF92D2"/>
<stop offset="0.989583" stop-color="#EC008C"/>
</linearGradient>
</defs>
</svg>
