<svg width="335" height="106" viewBox="0 0 335 106" fill="none" xmlns="http://www.w3.org/2000/svg">
<rect width="335" height="106" rx="12" fill="url(#paint0_linear_1318_60544)"/>
<mask id="mask0_1318_60544" style="mask-type:luminance" maskUnits="userSpaceOnUse" x="0" y="0" width="335" height="106">
<rect width="335" height="106" rx="12" fill="white"/>
</mask>
<g mask="url(#mask0_1318_60544)">
<g opacity="0.15">
<path fill-rule="evenodd" clip-rule="evenodd" d="M336.287 44.5219L332.669 48.0607L332.91 52.8287L327.96 50.8773L322.889 52.5369L323.449 47.7923L320.073 44.0497L325.369 43.0686L328.354 39.0964L331.066 43.2349L336.287 44.5219Z" fill="#026363"/>
<path fill-rule="evenodd" clip-rule="evenodd" d="M312.343 30.7308C311.379 32.3316 309.122 32.9369 307.301 32.0818C305.48 31.2264 304.785 29.2345 305.749 27.6337C306.713 26.0323 308.97 25.4277 310.792 26.2831C312.612 27.1382 313.307 29.1294 312.343 30.7308" fill="white"/>
<path fill-rule="evenodd" clip-rule="evenodd" d="M312 24.2747C311.689 24.1289 311.572 23.79 311.736 23.5172L314.562 18.8221C314.726 18.5492 315.11 18.4459 315.42 18.5916C315.732 18.7377 315.849 19.0766 315.685 19.3495L312.859 24.0446C312.695 24.3174 312.311 24.4208 312 24.2747" fill="white"/>
<path fill-rule="evenodd" clip-rule="evenodd" d="M320.23 35.0699L314.891 32.5624C314.581 32.417 314.462 32.0774 314.626 31.8045C314.791 31.531 315.176 31.429 315.486 31.5744L320.825 34.082C321.136 34.2281 321.254 34.5663 321.089 34.8398C320.925 35.1127 320.541 35.216 320.23 35.0699" fill="white"/>
<path fill-rule="evenodd" clip-rule="evenodd" d="M302.672 39.7714C302.362 39.6257 302.244 39.2868 302.409 39.0139L305.234 34.3202C305.398 34.0473 305.782 33.9439 306.092 34.0897C306.403 34.2358 306.521 34.5747 306.357 34.8475L303.531 39.5413C303.367 39.8142 302.983 39.9175 302.672 39.7714" fill="white"/>
<path fill-rule="evenodd" clip-rule="evenodd" d="M302.607 26.7926L297.267 24.2847C296.958 24.1393 296.839 23.8001 297.003 23.5272C297.168 23.2537 297.552 23.1513 297.862 23.2967L303.202 25.8046C303.513 25.9507 303.631 26.289 303.466 26.5625C303.302 26.8354 302.918 26.9387 302.607 26.7926" fill="white"/>
<path fill-rule="evenodd" clip-rule="evenodd" d="M314.897 28.0307C314.753 27.9631 314.639 27.847 314.587 27.6989C314.483 27.4035 314.672 27.0904 315.007 27.0005L318.726 26.004C319.061 25.9148 319.416 26.0817 319.52 26.3771C319.622 26.6735 319.434 26.986 319.099 27.0762L315.382 28.0724C315.214 28.1173 315.04 28.098 314.897 28.0307" fill="white"/>
<path fill-rule="evenodd" clip-rule="evenodd" d="M311.787 38.3801C311.643 38.3129 311.528 38.1964 311.477 38.0487L310.332 34.7699C310.23 34.4742 310.418 34.1617 310.753 34.0714C311.088 33.9815 311.444 34.1484 311.548 34.4449L312.692 37.7233C312.795 38.0194 312.607 38.3325 312.271 38.4218C312.104 38.4667 311.93 38.4477 311.787 38.3801" fill="white"/>
<path fill-rule="evenodd" clip-rule="evenodd" d="M298.882 32.319C298.739 32.2517 298.624 32.1352 298.572 31.9872C298.468 31.6917 298.657 31.3786 298.992 31.2887L302.71 30.2939C303.046 30.204 303.402 30.3709 303.505 30.667C303.607 30.9627 303.419 31.2752 303.084 31.3655L299.367 32.3606C299.199 32.4056 299.026 32.3866 298.882 32.319" fill="white"/>
<path fill-rule="evenodd" clip-rule="evenodd" d="M306.855 24.2524C306.712 24.1851 306.597 24.0686 306.546 23.9209L305.401 20.6411C305.298 20.3454 305.486 20.0329 305.821 19.942C306.157 19.8531 306.513 20.02 306.616 20.3155L307.76 23.5955C307.864 23.8916 307.675 24.2047 307.34 24.294C307.172 24.339 306.999 24.3199 306.855 24.2524" fill="white"/>
<path fill-rule="evenodd" clip-rule="evenodd" d="M225.14 37.4746C223.579 37.632 222.164 36.6436 221.982 35.2683C221.797 33.8924 222.913 32.6508 224.473 32.4934C226.035 32.3373 227.449 33.3243 227.633 34.7003C227.816 36.0758 226.7 37.3182 225.14 37.4746" fill="white"/>
<path fill-rule="evenodd" clip-rule="evenodd" d="M229.59 34.5042C229.558 34.2698 229.749 34.0585 230.014 34.0314L234.59 33.5717C234.856 33.5449 235.097 33.713 235.129 33.9474C235.16 34.1828 234.97 34.3935 234.704 34.4202L230.128 34.88C229.862 34.9067 229.621 34.7396 229.59 34.5042" fill="white"/>
<path fill-rule="evenodd" clip-rule="evenodd" d="M225.486 43.7066L224.946 39.6735C224.916 39.4394 225.105 39.2274 225.372 39.201C225.638 39.1736 225.878 39.3424 225.91 39.5768L226.449 43.6099C226.48 43.844 226.29 44.0557 226.024 44.0824C225.758 44.1092 225.518 43.9414 225.486 43.7066" fill="white"/>
<path fill-rule="evenodd" clip-rule="evenodd" d="M214.487 36.0214C214.455 35.7867 214.645 35.5753 214.911 35.5486L219.487 35.0891C219.752 35.0624 219.993 35.2305 220.025 35.4649C220.056 35.6993 219.866 35.9106 219.6 35.9377L215.025 36.3972C214.759 36.4239 214.518 36.2558 214.487 36.0214" fill="white"/>
<path fill-rule="evenodd" clip-rule="evenodd" d="M223.704 30.3923L223.165 26.3591C223.135 26.1244 223.324 25.9127 223.59 25.886C223.856 25.8592 224.097 26.028 224.128 26.2624L224.668 30.2955C224.699 30.53 224.509 30.7416 224.243 30.768C223.978 30.7951 223.737 30.627 223.704 30.3923" fill="white"/>
<path fill-rule="evenodd" clip-rule="evenodd" d="M228.177 37.7242C228.163 37.6156 228.195 37.5023 228.278 37.41C228.444 37.225 228.749 37.1949 228.959 37.3412L231.289 38.9684C231.499 39.1153 231.535 39.3839 231.369 39.5683C231.202 39.7532 230.898 39.7839 230.688 39.637L228.359 38.0102C228.253 37.937 228.192 37.8335 228.177 37.7242" fill="white"/>
<path fill-rule="evenodd" clip-rule="evenodd" d="M219.449 40.4622C219.435 40.354 219.467 40.2403 219.55 40.148L221.388 38.1029C221.554 37.9179 221.858 37.8878 222.069 38.0341C222.279 38.1811 222.315 38.4496 222.149 38.6349L220.311 40.6794C220.146 40.8648 219.84 40.8951 219.63 40.7482C219.525 40.675 219.464 40.5708 219.449 40.4622" fill="white"/>
<path fill-rule="evenodd" clip-rule="evenodd" d="M218.146 30.7146C218.132 30.6063 218.164 30.4927 218.247 30.4003C218.414 30.2157 218.718 30.1847 218.928 30.3319L221.256 31.9591C221.467 32.1064 221.503 32.3749 221.336 32.5589C221.171 32.7443 220.866 32.7749 220.656 32.628L218.327 31.0005C218.222 30.9267 218.161 30.8232 218.146 30.7146" fill="white"/>
<path fill-rule="evenodd" clip-rule="evenodd" d="M227.365 31.6504C227.35 31.5418 227.383 31.4285 227.466 31.3361L229.305 29.2907C229.47 29.1054 229.775 29.0754 229.985 29.222C230.195 29.3689 230.231 29.6375 230.065 29.8225L228.227 31.8676C228.061 32.0529 227.756 32.0833 227.546 31.9363C227.441 31.8632 227.379 31.7596 227.365 31.6504" fill="white"/>
<path fill-rule="evenodd" clip-rule="evenodd" d="M254.82 14.9477C253.968 16.3632 251.972 16.8978 250.362 16.1417C248.751 15.3853 248.138 13.6252 248.99 12.2097C249.842 10.7942 251.837 10.2589 253.448 11.0153C255.057 11.7714 255.672 13.5322 254.82 14.9477" fill="white"/>
<path fill-rule="evenodd" clip-rule="evenodd" d="M254.517 9.23974C254.243 9.11105 254.138 8.81105 254.284 8.56949L256.782 4.41889C256.927 4.17797 257.267 4.08688 257.541 4.21557C257.816 4.3446 257.921 4.6446 257.776 4.88552L255.277 9.03612C255.132 9.27767 254.792 9.36877 254.517 9.23974" fill="white"/>
<path fill-rule="evenodd" clip-rule="evenodd" d="M261.793 18.7828L257.073 16.566C256.798 16.437 256.693 16.137 256.838 15.8961C256.984 15.6545 257.324 15.5634 257.599 15.6925L262.318 17.9092C262.593 18.0382 262.698 18.3382 262.552 18.5798C262.407 18.8207 262.067 18.9118 261.793 18.7828" fill="white"/>
<path fill-rule="evenodd" clip-rule="evenodd" d="M246.269 22.9403C245.995 22.8116 245.891 22.5116 246.036 22.27L248.534 18.1207C248.679 17.8791 249.019 17.788 249.293 17.9167C249.568 18.0458 249.673 18.3458 249.527 18.5873L247.03 22.7366C246.884 22.9782 246.544 23.0693 246.269 22.9403" fill="white"/>
<path fill-rule="evenodd" clip-rule="evenodd" d="M246.213 11.4648L241.493 9.24768C241.218 9.11865 241.113 8.81865 241.258 8.57773C241.404 8.33617 241.744 8.24508 242.019 8.37411L246.739 10.5912C247.013 10.7199 247.118 11.0199 246.972 11.2614C246.827 11.5024 246.487 11.5935 246.213 11.4648" fill="white"/>
<path fill-rule="evenodd" clip-rule="evenodd" d="M257.079 12.5598C256.952 12.5 256.85 12.3975 256.805 12.2671C256.713 12.0053 256.88 11.7286 257.177 11.6491L260.464 10.7682C260.76 10.6884 261.074 10.8362 261.166 11.0979C261.257 11.3604 261.091 11.6364 260.794 11.7159L257.507 12.5968C257.359 12.6364 257.206 12.6195 257.079 12.5598" fill="white"/>
<path fill-rule="evenodd" clip-rule="evenodd" d="M254.328 21.7091C254.201 21.6494 254.099 21.5468 254.054 21.4164L253.042 18.5174C252.951 18.2556 253.117 17.9796 253.414 17.8994C253.711 17.82 254.026 17.9678 254.116 18.2292L255.128 21.1282C255.219 21.39 255.053 21.6667 254.756 21.7462C254.608 21.7858 254.455 21.7689 254.328 21.7091" fill="white"/>
<path fill-rule="evenodd" clip-rule="evenodd" d="M242.919 16.3521C242.792 16.2924 242.691 16.1898 242.645 16.0594C242.554 15.7976 242.72 15.5209 243.017 15.4414L246.304 14.5615C246.6 14.4817 246.915 14.6295 247.006 14.8909C247.097 15.1537 246.931 15.4297 246.634 15.5089L243.347 16.3892C243.199 16.4287 243.046 16.4118 242.919 16.3521" fill="white"/>
<path fill-rule="evenodd" clip-rule="evenodd" d="M249.968 9.21953C249.841 9.15979 249.74 9.05724 249.695 8.92719L248.683 6.02717C248.592 5.76541 248.758 5.48934 249.055 5.40922C249.352 5.32973 249.666 5.47754 249.757 5.73896L250.768 8.63863C250.86 8.90074 250.694 9.17745 250.396 9.25659C250.248 9.29618 250.095 9.27926 249.968 9.21953" fill="white"/>
<path fill-rule="evenodd" clip-rule="evenodd" d="M216.893 75.5662C212.029 76.365 207.336 73.536 206.412 69.2477C205.486 64.9594 208.68 60.8354 213.543 60.0366C218.407 59.2382 223.099 62.0675 224.024 66.3554C224.95 70.6434 221.757 74.7678 216.893 75.5662" fill="#FEBE10"/>
<path fill-rule="evenodd" clip-rule="evenodd" d="M221.329 66.6346C220.792 63.6426 217.612 61.7322 214.243 62.3742C210.872 63.0176 208.568 65.9742 209.106 68.9666C209.643 71.9573 212.822 73.8687 216.192 73.2253C219.562 72.5833 221.867 69.626 221.329 66.6346M207.819 69.2117C207.168 65.5899 209.957 62.011 214.037 61.233C218.117 60.4546 221.965 62.7676 222.615 66.3892C223.266 70.0103 220.478 73.5892 216.398 74.3676C212.317 75.1453 208.47 72.8329 207.819 69.2117" fill="#BA8000"/>
<path fill-rule="evenodd" clip-rule="evenodd" d="M211.109 67.9889L212.038 67.836C211.977 67.4031 211.959 67.0478 211.984 66.7704C212.01 66.4926 212.041 66.2609 212.076 66.0767L213.609 65.8244L213.934 67.3271C213.778 67.3523 213.668 67.3983 213.606 67.4658C213.543 67.5321 213.53 67.6523 213.567 67.8253C213.599 67.9758 213.648 68.078 213.714 68.1337C213.779 68.1888 213.863 68.2079 213.966 68.1909C214.039 68.1791 214.096 68.1428 214.14 68.0813C214.182 68.0201 214.222 67.9037 214.261 67.7325C214.333 67.3719 214.408 67.0548 214.485 66.7802C214.561 66.5062 214.662 66.2723 214.787 66.0802C214.911 65.8877 215.071 65.7333 215.268 65.6158C215.464 65.499 215.714 65.4158 216.02 65.3657C216.272 65.3243 216.51 65.3164 216.732 65.3437C216.954 65.371 217.16 65.4397 217.346 65.5501C217.534 65.6612 217.701 65.8195 217.85 66.0269C217.999 66.2329 218.126 66.4969 218.233 66.8193L219.124 66.6729L219.317 67.5668L218.442 67.711C218.471 67.9272 218.488 68.1204 218.49 68.2893C218.492 68.4592 218.485 68.6155 218.471 68.7598C218.457 68.9033 218.437 69.0357 218.413 69.158C218.388 69.2793 218.358 69.3813 218.322 69.4621L216.937 69.6901L216.627 68.2567C216.776 68.2311 216.87 68.1786 216.909 68.0965C216.948 68.0148 216.956 67.9213 216.933 67.8171C216.901 67.6666 216.855 67.5624 216.797 67.503C216.738 67.4443 216.656 67.4245 216.548 67.4417C216.459 67.4568 216.402 67.5021 216.377 67.5796C216.35 67.6571 216.326 67.7706 216.306 67.9198C216.264 68.2005 216.215 68.4667 216.157 68.7191C216.099 68.9705 216.009 69.1988 215.888 69.4023C215.766 69.6065 215.603 69.7783 215.397 69.918C215.193 70.058 214.924 70.1547 214.594 70.2087C214.001 70.3065 213.508 70.2296 213.114 69.9785C212.72 69.7277 212.428 69.3111 212.238 68.7294L211.301 68.8828L211.109 67.9889Z" fill="#BA8000"/>
<path fill-rule="evenodd" clip-rule="evenodd" d="M241.583 70.3269C241.273 70.1815 241.092 69.8709 241.159 69.5517C241.161 69.5436 241.322 68.7764 241.386 67.4936C241.407 67.0941 241.79 66.7866 242.244 66.8055C242.696 66.825 243.049 67.1639 243.029 67.5643C242.959 68.9592 242.783 69.7905 242.776 69.825C242.692 70.2174 242.261 70.4743 241.816 70.3989C241.732 70.3849 241.655 70.3607 241.583 70.3269" fill="white"/>
<path fill-rule="evenodd" clip-rule="evenodd" d="M237.946 53.8651C237.812 53.8033 237.698 53.7049 237.621 53.576C236.8 52.175 235.82 50.8328 234.708 49.5847C234.433 49.2755 234.501 48.8108 234.86 48.5479C235.22 48.2834 235.734 48.32 236.01 48.6282C237.183 49.9437 238.216 51.3604 239.083 52.8379C239.289 53.19 239.129 53.6403 238.726 53.8439C238.47 53.9731 238.178 53.9719 237.946 53.8651M241.442 63.2414C241.223 63.1404 241.064 62.9466 241.034 62.7067C240.837 61.1031 240.478 59.5214 239.97 58.0031C239.842 57.6233 240.087 57.2057 240.519 57.0711C240.95 56.937 241.403 57.1346 241.53 57.5144C242.067 59.1143 242.445 60.7811 242.653 62.4699C242.701 62.8678 242.379 63.2432 241.932 63.3078C241.756 63.334 241.586 63.3076 241.442 63.2414" fill="white"/>
<path fill-rule="evenodd" clip-rule="evenodd" d="M230.989 46.1588C230.933 46.1329 230.88 46.1005 230.83 46.0624C230.241 45.6044 229.612 45.1493 228.963 44.71C228.602 44.4652 228.534 44.0098 228.81 43.6929C229.085 43.3764 229.602 43.3135 229.963 43.5622C230.641 44.0216 231.298 44.4974 231.915 44.9765C232.256 45.242 232.29 45.6997 231.991 45.9995C231.735 46.2553 231.318 46.3135 230.989 46.1588" fill="white"/>
<path fill-rule="evenodd" clip-rule="evenodd" d="M261.034 67.9764C260.685 67.8126 260.511 67.4461 260.64 67.1059C260.643 67.0982 260.922 66.3565 261.322 65.0648C261.441 64.6797 261.893 64.4532 262.332 64.5602C262.767 64.6639 263.028 65.0651 262.908 65.4515C262.495 66.7864 262.211 67.538 262.199 67.5695C262.056 67.9488 261.59 68.152 261.16 68.0238C261.115 68.0104 261.074 67.9948 261.034 67.9764" fill="white"/>
<path fill-rule="evenodd" clip-rule="evenodd" d="M262.057 30.6626C261.882 30.5818 261.743 30.4414 261.68 30.2591C261.246 29.0093 260.74 27.7953 260.176 26.649C259.997 26.2867 260.188 25.8476 260.602 25.6676C261.017 25.487 261.497 25.6341 261.676 25.998C262.264 27.193 262.791 28.4572 263.242 29.756C263.373 30.1361 263.13 30.5563 262.699 30.6956C262.475 30.7674 262.246 30.7492 262.057 30.6626M264.106 38.3881C263.887 38.2871 263.728 38.0941 263.699 37.8551C263.534 36.5406 263.308 35.2467 263.027 34.0076C262.94 33.6173 263.225 33.2202 263.665 33.1199C264.106 33.0199 264.534 33.2554 264.622 33.6451C264.912 34.9253 265.144 36.2609 265.315 37.6149C265.365 38.0124 265.044 38.3879 264.596 38.4547C264.42 38.4815 264.25 38.4542 264.106 38.3881M264.716 46.3054C264.463 46.1888 264.296 45.9499 264.306 45.6705C264.351 44.3392 264.348 43.017 264.297 41.74C264.281 41.34 264.63 40.9864 265.077 40.9507C265.523 40.915 265.9 41.2104 265.916 41.6104C265.968 42.9189 265.972 44.274 265.925 45.6378C265.911 46.0391 265.537 46.372 265.091 46.3806C264.955 46.384 264.827 46.3567 264.716 46.3054M264.188 54.2306C263.907 54.1009 263.738 53.8223 263.788 53.516C263.998 52.2008 264.171 50.8788 264.299 49.5851C264.34 49.1856 264.732 48.8723 265.177 48.8866C265.623 48.9 265.949 49.2373 265.909 49.638C265.777 50.9574 265.601 52.3054 265.386 53.6468C265.322 54.0463 264.912 54.3405 264.471 54.3044C264.368 54.296 264.273 54.2698 264.188 54.2306M262.725 62.0623C262.419 61.9209 262.253 61.6046 262.342 61.2781C262.689 59.9983 263.008 58.6923 263.288 57.3963C263.374 56.9992 263.798 56.7243 264.234 56.7801C264.672 56.8346 264.955 57.203 264.869 57.5985C264.584 58.9171 264.26 60.2478 263.906 61.5506C263.799 61.9428 263.361 62.2006 262.93 62.126C262.856 62.1127 262.788 62.0914 262.725 62.0623" fill="white"/>
<path fill-rule="evenodd" clip-rule="evenodd" d="M258.319 23.4578C258.196 23.3997 258.087 23.3132 258.008 23.2008C257.582 22.5999 257.128 22.007 256.658 21.4381C256.39 21.1148 256.471 20.6617 256.838 20.4267C257.205 20.1917 257.721 20.2658 257.987 20.5891C258.479 21.1851 258.955 21.807 259.402 22.4373C259.642 22.7765 259.526 23.2236 259.141 23.4345C258.883 23.5758 258.57 23.5755 258.319 23.4578" fill="white"/>
<path fill-rule="evenodd" clip-rule="evenodd" d="M277.184 71.6064C276.878 71.4627 276.697 71.1579 276.759 70.8418C276.764 70.8092 276.919 70.026 277.258 68.6813C277.358 68.2912 277.796 68.0462 278.241 68.1345C278.683 68.2264 278.963 68.6106 278.864 69.0011C278.533 70.308 278.38 71.0855 278.379 71.0932C278.302 71.4871 277.877 71.7499 277.43 71.6809C277.341 71.6672 277.26 71.6419 277.184 71.6064" fill="white"/>
<path fill-rule="evenodd" clip-rule="evenodd" d="M290.035 43.7588C290 43.7426 289.966 43.7236 289.934 43.7022C289.585 43.4723 289.525 43.0216 289.799 42.6953C290.77 41.5419 291.78 40.4583 292.804 39.4755C293.114 39.1772 293.624 39.1456 293.939 39.4134C294.256 39.6777 294.259 40.1341 293.948 40.4337C292.967 41.377 291.995 42.4179 291.061 43.5276C290.812 43.8242 290.374 43.9157 290.035 43.7588V43.7588ZM285.242 50.5832C284.863 50.4072 284.726 49.9791 284.938 49.624C285.062 49.4174 285.185 49.2124 285.311 49.0068C285.94 47.978 286.592 46.9791 287.251 46.038C287.492 45.6931 287.986 45.5855 288.356 45.7753C288.725 45.9741 288.828 46.4151 288.588 46.7594C287.946 47.6757 287.311 48.6478 286.699 49.6502C286.576 49.8506 286.455 50.0524 286.335 50.2532C286.121 50.611 285.636 50.7608 285.25 50.5867L285.242 50.5832ZM281.542 57.9387C281.197 57.7792 281.043 57.4028 281.198 57.0561C281.778 55.7571 282.387 54.4826 283.013 53.2674C283.202 52.8988 283.679 52.7227 284.079 52.8738C284.481 53.0184 284.648 53.4471 284.46 53.8156C283.846 55.0069 283.248 56.2569 282.679 57.5314C282.511 57.9078 282.043 58.1062 281.634 57.9748C281.602 57.9641 281.572 57.9526 281.542 57.9387V57.9387ZM278.719 65.596C278.399 65.4481 278.237 65.1098 278.348 64.7755C278.787 63.4651 279.262 62.1499 279.761 60.865C279.91 60.4822 280.369 60.2637 280.787 60.3773C281.204 60.4869 281.422 60.8928 281.274 61.2756C280.783 62.5404 280.316 63.835 279.884 65.1237C279.754 65.511 279.306 65.7469 278.882 65.6505C278.824 65.6376 278.769 65.6192 278.719 65.596V65.596Z" fill="white"/>
<path fill-rule="evenodd" clip-rule="evenodd" d="M296.304 37.8644C296.21 37.8204 296.124 37.7604 296.053 37.6825C295.765 37.372 295.817 36.9159 296.168 36.6637C296.83 36.1874 297.513 35.7392 298.197 35.3287C298.571 35.1036 299.083 35.1909 299.34 35.5211C299.595 35.8519 299.5 36.303 299.126 36.5272C298.481 36.9144 297.837 37.3382 297.211 37.7878C296.946 37.9776 296.588 37.9979 296.304 37.8644" fill="white"/>
<path fill-rule="evenodd" clip-rule="evenodd" d="M306.181 53.8637C306.181 53.8637 311.312 46.2433 317.989 44.3546L320.907 46.6037L320.06 50.7466C320.06 50.7466 311.976 49.4005 306.181 53.8637" fill="#026363"/>
<path fill-rule="evenodd" clip-rule="evenodd" d="M283.394 14.7118L280.223 18.2871L275.107 18.8698L277.998 22.6457L277.065 27.1142L282.023 25.8717L286.562 28.0518L286.736 23.5079L290.474 20.3863L285.622 18.8207L283.394 14.7118Z" fill="#026363"/>
<path fill-rule="evenodd" clip-rule="evenodd" d="M276.273 41.6802C276.273 41.6802 283.902 35.9104 284.861 29.7859L281.845 27.6401L277.363 29.0899C277.363 29.0899 280.259 35.8784 276.273 41.6802" fill="#026363"/>
<path fill-rule="evenodd" clip-rule="evenodd" d="M289.81 74.4357C291.134 60.6839 313.968 68.1928 315.292 54.441C311.308 50.5034 307.326 46.5664 303.342 42.629C302.018 56.3805 279.184 48.8718 277.86 62.6243C281.843 66.561 285.827 70.4987 289.81 74.4357" fill="#8CC53F"/>
<path fill-rule="evenodd" clip-rule="evenodd" d="M304.861 48.0735C300.51 56.2347 285.516 53.5924 281.163 61.7533C283.539 64.1654 285.915 66.5775 288.291 68.9906C292.643 60.8284 307.637 63.4718 311.989 55.3109C309.614 52.8981 307.238 50.486 304.861 48.0735M279.976 62.0826C283.702 52.2621 300.896 56.1155 304.621 46.2944C307.474 49.1901 310.325 52.0855 313.177 54.981C309.45 64.8017 292.257 60.9487 288.531 70.7694C285.679 67.874 282.828 64.9786 279.976 62.0826" fill="#517820"/>
<path fill-rule="evenodd" clip-rule="evenodd" d="M292.122 59.7907C293.689 61.3402 296.906 61.9847 299.434 61.356C301.962 60.7277 302.62 58.8451 301.034 57.2765C299.466 55.7267 296.25 55.0825 293.722 55.7102C291.193 56.3382 290.534 58.222 292.122 59.7907" fill="#517820"/>
<path fill-rule="evenodd" clip-rule="evenodd" d="M269.233 69.1172L268.296 54.4513L278.097 54.3917L269.233 69.1172Z" fill="#026363"/>
<path fill-rule="evenodd" clip-rule="evenodd" d="M219.878 88.2296L203.844 92.1903L201.597 83.778L219.878 88.2296Z" fill="#026363"/>
<path fill-rule="evenodd" clip-rule="evenodd" d="M295.169 78.3024L309.335 70.6108L314.115 78.1639L295.169 78.3024Z" fill="#026363"/>
<path fill-rule="evenodd" clip-rule="evenodd" d="M314.647 80.4627C309.783 81.2615 305.09 78.4325 304.165 74.1439C303.24 69.8559 306.434 65.7319 311.297 64.9332C316.161 64.1347 320.853 66.964 321.779 71.252C322.704 75.54 319.511 79.6643 314.647 80.4627" fill="#FEBE10"/>
<path fill-rule="evenodd" clip-rule="evenodd" d="M319.083 71.5311C318.546 68.5391 315.366 66.6286 311.996 67.2707C308.626 67.9141 306.322 70.8707 306.859 73.863C307.396 76.8541 310.576 78.7652 313.946 78.1218C317.316 77.4798 319.621 74.5225 319.083 71.5311M305.573 74.1082C304.922 70.4864 307.711 66.9075 311.791 66.1294C315.871 65.351 319.719 67.6641 320.37 71.286C321.02 74.9068 318.232 78.4857 314.152 79.2641C310.071 80.0418 306.224 77.7294 305.573 74.1082" fill="#BA8000"/>
<path fill-rule="evenodd" clip-rule="evenodd" d="M308.863 72.8851L309.792 72.7321C309.731 72.2993 309.713 71.944 309.738 71.6666C309.764 71.3888 309.794 71.1578 309.83 70.9729L311.362 70.7212L311.688 72.2233C311.532 72.2484 311.422 72.2945 311.36 72.362C311.296 72.4289 311.284 72.5485 311.321 72.7215C311.353 72.872 311.402 72.9742 311.468 73.0299C311.533 73.0849 311.617 73.1041 311.721 73.0871C311.794 73.0756 311.85 73.039 311.894 72.9775C311.936 72.9163 311.976 72.7999 312.015 72.6294C312.087 72.2681 312.162 71.9516 312.239 71.6764C312.315 71.4024 312.415 71.1691 312.541 70.9764C312.665 70.7839 312.825 70.6295 313.022 70.512C313.218 70.3952 313.468 70.312 313.774 70.2619C314.026 70.2205 314.264 70.2126 314.486 70.2399C314.708 70.2672 314.914 70.3359 315.1 70.447C315.288 70.5574 315.455 70.7163 315.604 70.923C315.753 71.1291 315.88 71.3931 315.987 71.7155L316.878 71.5691L317.07 72.4636L316.196 72.6072C316.226 72.8234 316.242 73.0166 316.244 73.1855C316.246 73.3554 316.239 73.5117 316.225 73.6559C316.211 73.7995 316.191 73.9319 316.167 74.0542C316.142 74.1761 316.112 74.2775 316.076 74.3589L314.691 74.5863L314.381 73.1529C314.53 73.1273 314.625 73.0748 314.663 72.9927C314.702 72.911 314.71 72.8182 314.687 72.7133C314.655 72.5634 314.609 72.4586 314.551 72.3992C314.493 72.3408 314.41 72.3207 314.302 72.3379C314.213 72.353 314.156 72.3983 314.131 72.4758C314.104 72.5533 314.08 72.6668 314.06 72.816C314.018 73.0967 313.969 73.3629 313.911 73.6153C313.853 73.8667 313.763 74.095 313.642 74.2985C313.52 74.5027 313.357 74.6745 313.151 74.8142C312.947 74.9542 312.678 75.0509 312.348 75.1049C311.755 75.2026 311.262 75.1258 310.868 74.8747C310.474 74.6239 310.182 74.2073 309.993 73.6256L309.056 73.779L308.863 72.8851Z" fill="#BA8000"/>
<path fill-rule="evenodd" clip-rule="evenodd" d="M237.567 66.6409L228.396 56.666L224.888 62.4941L237.567 66.6409Z" fill="#026363"/>
<path fill-rule="evenodd" clip-rule="evenodd" d="M241.047 61.6929C253.214 53.0337 233.397 40.5104 245.563 31.8509C251.487 32.5666 257.409 33.2818 263.332 33.9968C251.166 42.6566 270.982 55.1792 258.815 63.8387C252.893 63.1234 246.97 62.4082 241.047 61.6929" fill="#8CC53F"/>
<path fill-rule="evenodd" clip-rule="evenodd" d="M246.676 34.983C241.278 42.6624 252.181 51.9504 246.784 59.6298C250.424 59.9883 254.063 60.3475 257.703 60.707C263.101 53.0276 252.198 43.7396 257.596 36.0602C253.956 35.7017 250.317 35.3425 246.676 34.983M244.944 60.4509C252.283 52.2943 238.992 42.1026 246.33 33.9457C250.699 34.3771 255.067 34.8078 259.435 35.2388C252.097 43.3957 265.388 53.5868 258.05 61.7436C253.681 61.3123 249.312 60.8819 244.944 60.4509" fill="#517820"/>
<path fill-rule="evenodd" clip-rule="evenodd" d="M253.503 51.8118C251.172 51.5303 248.768 49.5348 247.944 47.3331C247.12 45.1301 248.519 43.5948 250.878 43.879C253.209 44.1612 255.613 46.156 256.437 48.3587C257.261 50.5607 255.862 52.097 253.503 51.8118" fill="#517820"/>
<path fill-rule="evenodd" clip-rule="evenodd" d="M324.324 64.4861C323.603 65.6849 321.912 66.1377 320.549 65.4973C319.185 64.857 318.665 63.3658 319.387 62.1669C320.108 60.9681 321.799 60.5153 323.162 61.1557C324.526 61.796 325.046 63.2872 324.324 64.4861" fill="white"/>
<path fill-rule="evenodd" clip-rule="evenodd" d="M324.068 59.6523C323.836 59.5434 323.747 59.2891 323.87 59.0846L325.986 55.5692C326.109 55.3647 326.398 55.288 326.63 55.3969C326.862 55.5061 326.951 55.76 326.828 55.9645L324.712 59.4799C324.589 59.6844 324.301 59.7615 324.068 59.6523" fill="white"/>
<path fill-rule="evenodd" clip-rule="evenodd" d="M330.231 67.7354L326.233 65.8576C326.001 65.7483 325.912 65.4944 326.035 65.2899C326.158 65.0854 326.446 65.0083 326.679 65.1176L330.677 66.9953C330.908 67.1042 330.997 67.3582 330.874 67.5626C330.751 67.7671 330.463 67.8442 330.231 67.7354" fill="white"/>
<path fill-rule="evenodd" clip-rule="evenodd" d="M317.082 71.2571C316.851 71.1482 316.761 70.8939 316.884 70.6894L319 67.1747C319.123 66.9702 319.412 66.8934 319.643 67.0023C319.876 67.1116 319.965 67.3655 319.842 67.57L317.726 71.0847C317.603 71.2892 317.315 71.3663 317.082 71.2571" fill="white"/>
<path fill-rule="evenodd" clip-rule="evenodd" d="M317.034 61.5361L313.036 59.6584C312.803 59.5491 312.715 59.2952 312.838 59.0907C312.961 58.8862 313.249 58.8091 313.481 58.9183L317.479 60.7961C317.712 60.9054 317.801 61.1593 317.677 61.3638C317.554 61.5683 317.266 61.6454 317.034 61.5361" fill="white"/>
<path fill-rule="evenodd" clip-rule="evenodd" d="M326.238 62.4644C326.131 62.4142 326.045 62.3269 326.006 62.2168C325.929 61.9946 326.069 61.7607 326.321 61.6934L329.105 60.947C329.356 60.8794 329.622 61.0047 329.7 61.2263C329.777 61.4485 329.636 61.6824 329.385 61.7496L326.601 62.4964C326.476 62.5294 326.345 62.5149 326.238 62.4644" fill="white"/>
<path fill-rule="evenodd" clip-rule="evenodd" d="M323.909 70.2127C323.801 70.1622 323.714 70.0756 323.677 69.9651L322.819 67.5099C322.742 67.2883 322.883 67.0538 323.134 66.9865C323.385 66.9192 323.652 67.0445 323.729 67.2661L324.586 69.721C324.663 69.9425 324.523 70.1764 324.271 70.2443C324.145 70.278 324.016 70.2633 323.909 70.2127" fill="white"/>
<path fill-rule="evenodd" clip-rule="evenodd" d="M314.247 65.6763C314.139 65.6257 314.053 65.5391 314.015 65.4287C313.937 65.2061 314.078 64.9722 314.33 64.9053L317.113 64.1598C317.364 64.0926 317.631 64.2178 317.708 64.4394C317.785 64.661 317.644 64.8955 317.393 64.9628L314.609 65.7079C314.484 65.7415 314.354 65.7264 314.247 65.6763" fill="white"/>
<path fill-rule="evenodd" clip-rule="evenodd" d="M320.216 59.6358C320.11 59.5856 320.023 59.4983 319.984 59.3882L319.128 56.932C319.05 56.7101 319.191 56.4762 319.443 56.4086C319.694 56.341 319.96 56.4663 320.038 56.6878L320.894 59.1444C320.972 59.3659 320.831 59.5998 320.579 59.6678C320.454 59.7008 320.324 59.6863 320.216 59.6358" fill="white"/>
<path fill-rule="evenodd" clip-rule="evenodd" d="M293.487 77.3525L293.486 77.3522C293.186 77.2106 293.072 76.8821 293.231 76.6176C293.244 76.5952 293.571 76.0559 294.188 75.1874C294.368 74.9337 294.749 74.8536 295.036 75.017C295.325 75.1765 295.412 75.5117 295.233 75.7651C294.641 76.5979 294.322 77.1251 294.319 77.1302C294.159 77.3938 293.787 77.4935 293.487 77.3525" fill="white"/>
<path fill-rule="evenodd" clip-rule="evenodd" d="M306.341 65.2913C306.242 65.2461 306.159 65.175 306.103 65.0821C305.947 64.822 306.062 64.4871 306.361 64.3334C307.434 63.7799 308.525 63.3202 309.604 62.9692C309.924 62.864 310.265 63.0083 310.365 63.2912C310.464 63.5742 310.286 63.8879 309.964 63.9924C308.957 64.3213 307.934 64.7519 306.925 65.2731C306.734 65.371 306.515 65.3715 306.341 65.2913M300.858 68.9226C300.803 68.897 300.753 68.8646 300.708 68.8225C300.485 68.6112 300.503 68.2674 300.75 68.0549C301.631 67.2965 302.532 66.5955 303.428 65.9737C303.698 65.7855 304.076 65.8232 304.273 66.0562C304.468 66.2896 304.406 66.6318 304.135 66.8197C303.275 67.4172 302.41 68.089 301.563 68.8188C301.364 68.9901 301.079 69.0243 300.858 68.9226M296.338 73.4806C296.312 73.4687 296.287 73.4548 296.264 73.439C296.002 73.2682 295.955 72.9305 296.161 72.6851C296.872 71.8335 297.614 71.0096 298.366 70.2371C298.59 70.0069 298.973 69.974 299.215 70.1632C299.46 70.3544 299.476 70.6947 299.251 70.9252C298.52 71.6761 297.799 72.4766 297.107 73.306C296.921 73.5281 296.592 73.5981 296.338 73.4806" fill="white"/>
<path fill-rule="evenodd" clip-rule="evenodd" d="M312.857 63.3361C312.683 63.2545 312.556 63.1011 312.533 62.9165C312.494 62.6187 312.737 62.3503 313.075 62.3181C313.715 62.2572 314.362 62.2304 314.997 62.2403C315.338 62.2439 315.609 62.4918 315.605 62.7914C315.6 63.0908 315.322 63.3298 314.981 63.3247C314.397 63.316 313.803 63.3401 313.213 63.3967C313.085 63.4089 312.963 63.386 312.857 63.3361" fill="white"/>
<path fill-rule="evenodd" clip-rule="evenodd" d="M287.733 42.1967C287.797 46.6966 283.709 50.3752 278.603 50.4146C273.496 50.4538 269.305 46.8385 269.241 42.3386C269.176 37.8384 273.264 34.1598 278.371 34.1203C283.478 34.0812 287.67 37.6968 287.733 42.1967" fill="#FEBE10"/>
<path fill-rule="evenodd" clip-rule="evenodd" d="M278.598 36.5462C275.078 36.6608 272.165 39.3202 272.104 42.4741C272.043 45.6279 274.858 48.1014 278.378 47.9868C281.897 47.8728 284.81 45.2133 284.872 42.0588C284.933 38.905 282.118 36.4316 278.598 36.5462M278.355 49.1906C274.094 49.3297 270.688 46.3359 270.761 42.5176C270.834 38.6996 274.361 35.4809 278.621 35.3423C282.882 35.2038 286.288 38.197 286.215 42.0153C286.141 45.834 282.615 49.053 278.355 49.1906" fill="#BA8000"/>
<path fill-rule="evenodd" clip-rule="evenodd" d="M277.978 45.9775L277.966 45.1177C277.455 45.0926 277.043 45.0439 276.728 44.9697C276.412 44.896 276.15 44.8263 275.944 44.7605L275.924 43.3421L277.713 43.3282C277.715 43.4718 277.749 43.5786 277.814 43.6463C277.881 43.7153 278.016 43.7486 278.222 43.747C278.402 43.7461 278.528 43.7219 278.603 43.6734C278.679 43.6243 278.716 43.5526 278.714 43.4567C278.713 43.3899 278.681 43.3321 278.619 43.2823C278.555 43.2328 278.428 43.1757 278.238 43.1099C277.835 42.9788 277.482 42.8534 277.179 42.7341C276.876 42.6148 276.625 42.4821 276.426 42.3351C276.226 42.1887 276.075 42.0163 275.975 41.8195C275.875 41.6217 275.824 41.3825 275.818 41.0998C275.815 40.8664 275.848 40.6523 275.92 40.4589C275.99 40.2648 276.105 40.0942 276.266 39.947C276.426 39.8001 276.639 39.6784 276.903 39.5839C277.167 39.4887 277.494 39.4229 277.885 39.3865L277.873 38.563L278.937 38.5546L278.949 39.3635C279.204 39.3767 279.429 39.3972 279.625 39.4268C279.821 39.4568 279.999 39.4912 280.164 39.5307C280.327 39.5696 280.476 39.6117 280.612 39.6561C280.748 39.7001 280.86 39.7462 280.947 39.7921L280.965 41.0752L279.258 41.0882C279.257 40.9497 279.212 40.856 279.125 40.8066C279.037 40.7566 278.93 40.7326 278.806 40.7332C278.627 40.7345 278.499 40.7561 278.421 40.7973C278.343 40.8386 278.304 40.909 278.306 41.0092C278.306 41.0912 278.35 41.1502 278.434 41.1878C278.519 41.2255 278.646 41.2677 278.814 41.3142C279.129 41.4024 279.428 41.495 279.708 41.5931C279.989 41.6915 280.236 41.814 280.45 41.9604C280.663 42.1071 280.833 42.2852 280.957 42.4936C281.083 42.7033 281.147 42.9606 281.151 43.2666C281.16 43.8158 280.984 44.243 280.625 44.5492C280.265 44.8557 279.734 45.0398 279.03 45.1028L279.043 45.9694L277.978 45.9775Z" fill="#BA8000"/>
<mask id="mask1_1318_60544" style="mask-type:luminance" maskUnits="userSpaceOnUse" x="168" y="-7" width="184" height="142">
<path fill-rule="evenodd" clip-rule="evenodd" d="M269.911 -6.4093L211.838 27.2535C208.19 29.3686 208.466 34.161 212.344 35.9824V35.9824L221.903 40.4719C225.794 42.2997 226.056 47.1152 222.381 49.2184V49.2184L168.1 80.2686L280.843 133.221C287.322 136.264 295.346 134.128 298.764 128.45V128.45L349.501 44.1609C352.919 38.4822 350.437 31.4117 343.957 28.3686V28.3686L269.911 -6.4093Z" fill="white"/>
</mask>
<g mask="url(#mask1_1318_60544)">
<path fill-rule="evenodd" clip-rule="evenodd" d="M303.435 81.9937C303.435 81.9937 302.779 79.3594 301.249 79.1426C296.352 78.448 295.564 80.1392 290.718 79.1997C285.872 78.2608 286.711 76.3244 281.865 75.3855C277.022 74.4464 276.184 76.3825 271.341 75.4438C266.497 74.5056 267.335 72.5688 262.491 71.6294C257.648 70.6912 256.809 72.6276 251.967 71.6889C247.126 70.7508 247.826 69.7873 242.984 68.8489L239.298 69.5908L234.505 69.9808L238.718 78.2978L284.459 87.394L292.574 82.5279L294.826 81.8751L303.435 81.9937Z" fill="#517820"/>
</g>
<mask id="mask2_1318_60544" style="mask-type:luminance" maskUnits="userSpaceOnUse" x="168" y="-7" width="184" height="142">
<path fill-rule="evenodd" clip-rule="evenodd" d="M269.911 -6.4093L211.838 27.2535C208.19 29.3686 208.466 34.161 212.344 35.9824V35.9824L221.903 40.4719C225.794 42.2997 226.056 47.1152 222.381 49.2184V49.2184L168.1 80.2686L280.843 133.221C287.322 136.264 295.346 134.128 298.764 128.45V128.45L349.501 44.1609C352.919 38.4822 350.437 31.4117 343.957 28.3686V28.3686L269.911 -6.4093Z" fill="white"/>
</mask>
<g mask="url(#mask2_1318_60544)">
<path fill-rule="evenodd" clip-rule="evenodd" d="M210.679 152.308L279.539 172.512L292.575 82.5281C287.733 81.4822 286.695 85.2943 281.853 84.2484C277.012 83.2022 278.05 79.39 273.209 78.3438C268.371 77.2983 267.332 81.1107 262.495 80.0656C257.655 79.0197 258.694 75.2078 253.854 74.1623C249.016 73.1165 247.978 76.9286 243.14 75.8831C238.303 74.8386 239.342 71.0261 234.505 69.981L210.679 152.308Z" fill="#C1DF65"/>
</g>
<mask id="mask3_1318_60544" style="mask-type:luminance" maskUnits="userSpaceOnUse" x="168" y="-7" width="184" height="142">
<path fill-rule="evenodd" clip-rule="evenodd" d="M269.911 -6.4093L211.838 27.2535C208.19 29.3686 208.466 34.161 212.344 35.9824V35.9824L221.903 40.4719C225.794 42.2997 226.056 47.1152 222.381 49.2184V49.2184L168.1 80.2686L280.843 133.221C287.322 136.264 295.346 134.128 298.764 128.45V128.45L349.501 44.1609C352.919 38.4822 350.437 31.4117 343.957 28.3686V28.3686L269.911 -6.4093Z" fill="white"/>
</mask>
<g mask="url(#mask3_1318_60544)">
<path fill-rule="evenodd" clip-rule="evenodd" d="M303.557 165.043L303.434 81.9942L294.826 81.8749L292.573 82.5274L279.537 172.512L303.557 165.043Z" fill="#C1DF65"/>
</g>
<mask id="mask4_1318_60544" style="mask-type:luminance" maskUnits="userSpaceOnUse" x="168" y="-7" width="184" height="142">
<path fill-rule="evenodd" clip-rule="evenodd" d="M269.911 -6.4093L211.838 27.2535C208.19 29.3686 208.466 34.161 212.344 35.9824V35.9824L221.903 40.4719C225.794 42.2997 226.056 47.1152 222.381 49.2184V49.2184L168.1 80.2686L280.843 133.221C287.322 136.264 295.346 134.128 298.764 128.45V128.45L349.501 44.1609C352.919 38.4822 350.437 31.4117 343.957 28.3686V28.3686L269.911 -6.4093Z" fill="white"/>
</mask>
<g mask="url(#mask4_1318_60544)">
<path fill-rule="evenodd" clip-rule="evenodd" d="M294.827 81.8764L290.43 159.698L279.539 172.513L292.574 82.5289L294.827 81.8764Z" fill="#B4C64A"/>
</g>
<mask id="mask5_1318_60544" style="mask-type:luminance" maskUnits="userSpaceOnUse" x="168" y="-7" width="184" height="142">
<path fill-rule="evenodd" clip-rule="evenodd" d="M269.911 -6.4093L211.838 27.2535C208.19 29.3686 208.466 34.161 212.344 35.9824V35.9824L221.903 40.4719C225.794 42.2997 226.056 47.1152 222.381 49.2184V49.2184L168.1 80.2686L280.843 133.221C287.322 136.264 295.346 134.128 298.764 128.45V128.45L349.501 44.1609C352.919 38.4822 350.437 31.4117 343.957 28.3686V28.3686" fill="white"/>
</mask>
<g mask="url(#mask5_1318_60544)">
<path fill-rule="evenodd" clip-rule="evenodd" d="M248.713 82.7975C248.53 84.088 247.191 84.9956 245.724 84.8261C244.256 84.6563 243.214 83.4734 243.398 82.1833C243.58 80.8934 244.92 79.9852 246.387 80.1547C247.855 80.3251 248.896 81.508 248.713 82.7975" fill="#517820"/>
</g>
<mask id="mask6_1318_60544" style="mask-type:luminance" maskUnits="userSpaceOnUse" x="168" y="-7" width="184" height="142">
<path fill-rule="evenodd" clip-rule="evenodd" d="M269.911 -6.4093L211.838 27.2535C208.19 29.3686 208.466 34.161 212.344 35.9824V35.9824L221.903 40.4719C225.794 42.2997 226.056 47.1152 222.381 49.2184V49.2184L168.1 80.2686L280.843 133.221C287.322 136.264 295.346 134.128 298.764 128.45V128.45L349.501 44.1609C352.919 38.4822 350.437 31.4117 343.957 28.3686V28.3686L269.911 -6.4093Z" fill="white"/>
</mask>
<g mask="url(#mask6_1318_60544)">
<path fill-rule="evenodd" clip-rule="evenodd" d="M292.574 82.5276C290.486 82.0762 289.106 82.5303 287.822 83.1075C285.287 96.904 271.704 149.318 212.022 147.672L210.68 152.308L279.539 172.512L292.574 82.5276Z" fill="#C1DF65"/>
</g>
<mask id="mask7_1318_60544" style="mask-type:luminance" maskUnits="userSpaceOnUse" x="168" y="-7" width="184" height="142">
<path fill-rule="evenodd" clip-rule="evenodd" d="M269.911 -6.4093L211.838 27.2535C208.19 29.3686 208.466 34.161 212.344 35.9824V35.9824L221.903 40.4719C225.794 42.2997 226.056 47.1152 222.381 49.2184V49.2184L168.1 80.2686L280.843 133.221C287.322 136.264 295.346 134.128 298.764 128.45V128.45L349.501 44.1609C352.919 38.4822 350.437 31.4117 343.957 28.3686V28.3686" fill="white"/>
</mask>
<g mask="url(#mask7_1318_60544)">
<path fill-rule="evenodd" clip-rule="evenodd" d="M299.02 98.6275C298.796 100.196 297.168 101.301 295.382 101.095C293.597 100.888 292.329 99.4487 292.552 97.8796C292.776 96.3104 294.404 95.206 296.19 95.4127C297.976 95.6188 299.243 97.058 299.02 98.6275" fill="#828C26"/>
</g>
<mask id="mask8_1318_60544" style="mask-type:luminance" maskUnits="userSpaceOnUse" x="168" y="-7" width="184" height="142">
<path fill-rule="evenodd" clip-rule="evenodd" d="M269.911 -6.4093L211.838 27.2535C208.19 29.3686 208.466 34.161 212.344 35.9824V35.9824L221.903 40.4719C225.794 42.2997 226.056 47.1152 222.381 49.2184V49.2184L168.1 80.2686L280.843 133.221C287.322 136.264 295.346 134.128 298.764 128.45V128.45L349.501 44.1609C352.919 38.4822 350.437 31.4117 343.957 28.3686V28.3686" fill="white"/>
</mask>
<g mask="url(#mask8_1318_60544)">
<path fill-rule="evenodd" clip-rule="evenodd" d="M255.086 96.4379C254.804 98.422 252.745 99.8189 250.486 99.5576C248.229 99.2969 246.627 97.4767 246.909 95.4926C247.191 93.5091 249.25 92.1116 251.509 92.3729C253.766 92.6335 255.368 94.4541 255.086 96.4379" fill="#828C26"/>
</g>
<mask id="mask9_1318_60544" style="mask-type:luminance" maskUnits="userSpaceOnUse" x="168" y="-7" width="184" height="142">
<path fill-rule="evenodd" clip-rule="evenodd" d="M269.911 -6.4093L211.838 27.2535C208.19 29.3686 208.466 34.161 212.344 35.9824V35.9824L221.903 40.4719C225.794 42.2997 226.056 47.1152 222.381 49.2184V49.2184L168.1 80.2686L280.843 133.221C287.322 136.264 295.346 134.128 298.764 128.45V128.45L349.501 44.1609C352.919 38.4822 350.437 31.4117 343.957 28.3686V28.3686" fill="white"/>
</mask>
<g mask="url(#mask9_1318_60544)">
<path fill-rule="evenodd" clip-rule="evenodd" d="M230.46 107.582C230.904 104.454 228.87 101.547 225.707 100.377L221.911 113.497C226.123 113.911 229.933 111.292 230.46 107.582" fill="#828C26"/>
</g>
<mask id="mask10_1318_60544" style="mask-type:luminance" maskUnits="userSpaceOnUse" x="168" y="-7" width="184" height="142">
<path fill-rule="evenodd" clip-rule="evenodd" d="M269.911 -6.4093L211.838 27.2535C208.19 29.3686 208.466 34.161 212.344 35.9824V35.9824L221.903 40.4719C225.794 42.2997 226.056 47.1152 222.381 49.2184V49.2184L168.1 80.2686L280.843 133.221C287.322 136.264 295.346 134.128 298.764 128.45V128.45L349.501 44.1609C352.919 38.4822 350.437 31.4117 343.957 28.3686V28.3686L269.911 -6.4093Z" fill="white"/>
</mask>
<g mask="url(#mask10_1318_60544)">
<path fill-rule="evenodd" clip-rule="evenodd" d="M289.107 106.459C288.475 106.226 287.803 106.055 287.093 105.974C282.82 105.48 278.923 108.123 278.39 111.877C277.857 115.631 280.888 119.076 285.161 119.57C285.859 119.65 286.543 119.64 287.209 119.562L289.107 106.459Z" fill="#828C26"/>
</g>
<mask id="mask11_1318_60544" style="mask-type:luminance" maskUnits="userSpaceOnUse" x="168" y="-7" width="184" height="142">
<path fill-rule="evenodd" clip-rule="evenodd" d="M269.911 -6.4093L211.838 27.2535C208.19 29.3686 208.466 34.161 212.344 35.9824V35.9824L221.903 40.4719C225.794 42.2997 226.056 47.1152 222.381 49.2184V49.2184L168.1 80.2686L280.843 133.221C287.322 136.264 295.346 134.128 298.764 128.45V128.45L349.501 44.1609C352.919 38.4822 350.437 31.4117 343.957 28.3686V28.3686L269.911 -6.4093Z" fill="white"/>
</mask>
<g mask="url(#mask11_1318_60544)">
<path fill-rule="evenodd" clip-rule="evenodd" d="M231.305 81.0374C234.435 80.446 236.939 78.1875 237.36 75.2336C237.607 73.4914 237.079 71.8198 236.024 70.4757C235.589 70.2772 235.092 70.1081 234.505 69.9811L231.305 81.0374Z" fill="#828C26"/>
</g>
<mask id="mask12_1318_60544" style="mask-type:luminance" maskUnits="userSpaceOnUse" x="168" y="-7" width="184" height="142">
<path fill-rule="evenodd" clip-rule="evenodd" d="M269.911 -6.4093L211.838 27.2535C208.19 29.3686 208.466 34.161 212.344 35.9824V35.9824L221.903 40.4719C225.794 42.2997 226.056 47.1152 222.381 49.2184V49.2184L168.1 80.2686L280.843 133.221C287.322 136.264 295.346 134.128 298.764 128.45V128.45L349.501 44.1609C352.919 38.4822 350.437 31.4117 343.957 28.3686V28.3686" fill="white"/>
</mask>
<g mask="url(#mask12_1318_60544)">
<path fill-rule="evenodd" clip-rule="evenodd" d="M270.581 86.9417C270.048 90.6957 273.079 94.1398 277.352 94.6338C281.625 95.1284 285.521 92.4845 286.055 88.7303C286.284 87.1111 285.85 85.5526 284.94 84.2607C284.074 84.465 283.088 84.5157 281.853 84.2487C279.259 83.6885 278.352 82.3345 277.325 81.0364C273.879 81.4043 271.032 83.7737 270.581 86.9417" fill="#828C26"/>
</g>
<mask id="mask13_1318_60544" style="mask-type:luminance" maskUnits="userSpaceOnUse" x="168" y="-7" width="184" height="142">
<path fill-rule="evenodd" clip-rule="evenodd" d="M269.911 -6.4093L211.838 27.2535C208.19 29.3686 208.466 34.161 212.344 35.9824V35.9824L221.903 40.4719C225.794 42.2997 226.056 47.1152 222.381 49.2184V49.2184L168.1 80.2686L280.843 133.221C287.322 136.264 295.346 134.128 298.764 128.45V128.45L349.501 44.1609C352.919 38.4822 350.437 31.4117 343.957 28.3686V28.3686" fill="white"/>
</mask>
<g mask="url(#mask13_1318_60544)">
<path fill-rule="evenodd" clip-rule="evenodd" d="M278.274 88.1454C278.091 89.4353 276.752 90.3435 275.284 90.1741C273.816 90.0042 272.775 88.8213 272.958 87.5312C273.141 86.2414 274.48 85.3331 275.947 85.5026C277.416 85.6724 278.457 86.856 278.274 88.1454" fill="#517820"/>
</g>
<mask id="mask14_1318_60544" style="mask-type:luminance" maskUnits="userSpaceOnUse" x="168" y="-7" width="184" height="142">
<path fill-rule="evenodd" clip-rule="evenodd" d="M269.911 -6.4093L211.838 27.2535C208.19 29.3686 208.466 34.161 212.344 35.9824V35.9824L221.903 40.4719C225.794 42.2997 226.056 47.1152 222.381 49.2184V49.2184L168.1 80.2686L280.843 133.221C287.322 136.264 295.346 134.128 298.764 128.45V128.45L349.501 44.1609C352.919 38.4822 350.437 31.4117 343.957 28.3686V28.3686L269.911 -6.4093Z" fill="white"/>
</mask>
<g mask="url(#mask14_1318_60544)">
<path fill-rule="evenodd" clip-rule="evenodd" d="M303.558 165.043L290.43 159.697L294.827 81.8755L303.435 81.9948L303.558 165.043Z" fill="#98AA30"/>
</g>
<mask id="mask15_1318_60544" style="mask-type:luminance" maskUnits="userSpaceOnUse" x="168" y="-7" width="184" height="142">
<path fill-rule="evenodd" clip-rule="evenodd" d="M269.911 -6.4093L211.838 27.2535C208.19 29.3686 208.466 34.161 212.344 35.9824V35.9824L221.903 40.4719C225.794 42.2997 226.056 47.1152 222.381 49.2184V49.2184L168.1 80.2686L280.843 133.221C287.322 136.264 295.346 134.128 298.764 128.45V128.45L349.501 44.1609C352.919 38.4822 350.437 31.4117 343.957 28.3686V28.3686" fill="white"/>
</mask>
<g mask="url(#mask15_1318_60544)">
<path fill-rule="evenodd" clip-rule="evenodd" d="M228.997 103.346C228.997 103.346 231.414 87.658 242.222 89.1784C253.03 90.6984 276.428 94.355 276.763 98.5831C277.096 102.812 249.737 137.546 226.43 141.136C221.281 141.873 228.997 103.346 228.997 103.346" fill="white"/>
</g>
<mask id="mask16_1318_60544" style="mask-type:luminance" maskUnits="userSpaceOnUse" x="168" y="-7" width="184" height="142">
<path fill-rule="evenodd" clip-rule="evenodd" d="M269.911 -6.4093L211.838 27.2535C208.19 29.3686 208.466 34.161 212.344 35.9824V35.9824L221.903 40.4719C225.794 42.2997 226.056 47.1152 222.381 49.2184V49.2184L168.1 80.2686L280.843 133.221C287.322 136.264 295.346 134.128 298.764 128.45V128.45L349.501 44.1609C352.919 38.4822 350.437 31.4117 343.957 28.3686V28.3686" fill="white"/>
</mask>
<g mask="url(#mask16_1318_60544)">
<path fill-rule="evenodd" clip-rule="evenodd" d="M246.174 82.061C246.242 82.0688 246.311 82.0825 246.38 82.1025C246.966 82.2729 247.288 82.8274 247.099 83.343C247.035 83.5139 240.835 100.649 246.827 108.958C248.608 111.426 251.232 112.83 254.853 113.248C258.765 113.701 262.171 112.875 264.979 110.792C273.356 104.577 274.101 89.2953 274.109 89.141C274.132 88.5996 274.65 88.18 275.266 88.2034C275.889 88.2138 276.363 88.6858 276.339 89.2272C276.311 89.8907 275.542 105.532 266.424 112.296C263.121 114.746 259.135 115.721 254.576 115.195C250.314 114.702 247.073 112.954 244.943 110C238.389 100.908 244.703 83.4645 244.975 82.7263C245.142 82.2712 245.652 82.0007 246.174 82.061" fill="#594A42"/>
</g>
</g>
</g>
<defs>
<linearGradient id="paint0_linear_1318_60544" x1="335" y1="106" x2="-4.5699" y2="88.457" gradientUnits="userSpaceOnUse">
<stop stop-color="#8C5898"/>
<stop offset="0.98" stop-color="#6768AB"/>
</linearGradient>
</defs>
</svg>
