<svg width="76" height="75" viewBox="0 0 76 75" fill="none" xmlns="http://www.w3.org/2000/svg">
<rect x="0.334961" width="75" height="75" rx="5" fill="#E9ECF1"/>
<path d="M54.5166 42.2509L49.1166 36.8009C49.0915 36.7696 49.0588 36.7451 49.0216 36.7298C48.9845 36.7145 48.944 36.7088 48.9041 36.7134C48.8638 36.7149 48.8242 36.7246 48.7877 36.7418C48.7511 36.759 48.7185 36.7833 48.6916 36.8134L45.0916 40.6259C44.8589 40.8735 44.5781 41.071 44.2665 41.2064C43.9548 41.3418 43.6189 41.4122 43.2791 41.4134C42.9393 41.4122 42.6034 41.3418 42.2917 41.2064C41.9801 41.071 41.6993 40.8735 41.4666 40.6259L33.7416 32.3884C33.6866 32.3392 33.6154 32.312 33.5416 32.312C33.4678 32.312 33.3966 32.3392 33.3416 32.3884L21.3166 41.7634L19.7666 39.7509L31.7416 30.3759C32.2912 29.9486 32.9809 29.7424 33.6748 29.7979C34.3688 29.8535 35.0169 30.1667 35.4916 30.6759L43.2041 38.9134L46.7791 35.1009C47.0349 34.8252 47.3441 34.6043 47.6879 34.4517C48.0317 34.2992 48.403 34.2181 48.7791 34.2134C49.1553 34.2037 49.5295 34.2719 49.878 34.4139C50.2265 34.5559 50.5418 34.7685 50.8041 35.0384L56.2041 40.4884L54.5166 42.2509Z" fill="#C0C9D8"/>
<path d="M51.8412 55.75H24.1412C22.8417 55.75 21.5953 55.2338 20.6764 54.3148C19.7575 53.3959 19.2412 52.1496 19.2412 50.85V23.15C19.2412 21.8504 19.7575 20.6041 20.6764 19.6852C21.5953 18.7662 22.8417 18.25 24.1412 18.25H51.8412C53.1408 18.25 54.3871 18.7662 55.306 19.6852C56.225 20.6041 56.7412 21.8504 56.7412 23.15V50.85C56.7412 52.1496 56.225 53.3959 55.306 54.3148C54.3871 55.2338 53.1408 55.75 51.8412 55.75ZM24.1412 20.75C23.5047 20.75 22.8942 21.0029 22.4442 21.4529C21.9941 21.903 21.7412 22.5135 21.7412 23.15V50.85C21.7412 51.1652 21.8033 51.4773 21.9239 51.7684C22.0445 52.0596 22.2213 52.3242 22.4442 52.5471C22.667 52.7699 22.9316 52.9467 23.2228 53.0673C23.514 53.1879 23.826 53.25 24.1412 53.25H51.8412C52.1564 53.25 52.4685 53.1879 52.7597 53.0673C53.0508 52.9467 53.3154 52.7699 53.5383 52.5471C53.7611 52.3242 53.9379 52.0596 54.0585 51.7684C54.1791 51.4773 54.2412 51.1652 54.2412 50.85V23.15C54.2412 22.8348 54.1791 22.5227 54.0585 22.2316C53.9379 21.9404 53.7611 21.6758 53.5383 21.4529C53.3154 21.2301 53.0508 21.0533 52.7597 20.9327C52.4685 20.8121 52.1564 20.75 51.8412 20.75H24.1412Z" fill="#C0C9D8"/>
<path d="M43.4033 31.7891C44.784 31.7891 45.9033 30.6698 45.9033 29.2891C45.9033 27.9084 44.784 26.7891 43.4033 26.7891C42.0226 26.7891 40.9033 27.9084 40.9033 29.2891C40.9033 30.6698 42.0226 31.7891 43.4033 31.7891Z" fill="#C0C9D8"/>
<path d="M20.4912 41.3734L32.4037 31.7859L34.6037 31.5234L41.8162 39.2234C41.8162 39.2234 43.0662 40.9359 44.1287 39.7609L47.7162 35.9484C47.7162 35.9484 48.4287 34.3859 49.9537 35.9484C51.4787 37.5109 55.4912 42.6234 55.4912 42.6234L55.4037 51.6609C55.4037 51.6609 55.0287 54.4984 51.3537 54.4984C47.6787 54.4984 23.8537 54.1109 23.8537 54.1109C23.8537 54.1109 20.4912 54.9359 20.4912 50.8484C20.4912 46.7609 20.4912 41.3734 20.4912 41.3734Z" fill="#C0C9D8"/>
</svg>
