<svg width="27" height="30" viewBox="0 0 27 30" fill="none" xmlns="http://www.w3.org/2000/svg">
<g filter="url(#filter0_d_2248_87187)">
<g clip-path="url(#clip0_2248_87187)">
<g filter="url(#filter1_d_2248_87187)">
<path fill-rule="evenodd" clip-rule="evenodd" d="M13.4999 1.03516C8.8601 1.03516 5.09863 5.44227 5.09863 10.8785C5.09863 16.3146 8.8601 20.7218 13.4999 20.7218C18.1397 20.7218 21.9011 16.3146 21.9011 10.8785C21.9011 5.44227 18.1397 1.03516 13.4999 1.03516ZM11.8143 7.93173C11.6752 7.76296 11.5982 7.53692 11.5999 7.3023C11.6017 7.06767 11.682 6.84323 11.8236 6.67732C11.9652 6.51141 12.1568 6.4173 12.357 6.41526C12.5573 6.41322 12.7502 6.50342 12.8942 6.66642L15.9492 10.2458C16.0924 10.4136 16.1728 10.6412 16.1728 10.8785C16.1728 11.1157 16.0924 11.3433 15.9492 11.5111L12.8942 15.0905C12.7502 15.2535 12.5573 15.3437 12.357 15.3417C12.1568 15.3396 11.9652 15.2455 11.8236 15.0796C11.682 14.9137 11.6017 14.6892 11.5999 14.4546C11.5982 14.22 11.6752 13.994 11.8143 13.8252L14.3293 10.8785L11.8143 7.93173Z" fill="url(#paint0_linear_2248_87187)"/>
</g>
</g>
</g>
<defs>
<filter id="filter0_d_2248_87187" x="0.334961" y="0.140625" width="26.3301" height="29.4766" filterUnits="userSpaceOnUse" color-interpolation-filters="sRGB">
<feFlood flood-opacity="0" result="BackgroundImageFix"/>
<feColorMatrix in="SourceAlpha" type="matrix" values="0 0 0 0 0 0 0 0 0 0 0 0 0 0 0 0 0 0 127 0" result="hardAlpha"/>
<feOffset dy="4"/>
<feGaussianBlur stdDeviation="2"/>
<feComposite in2="hardAlpha" operator="out"/>
<feColorMatrix type="matrix" values="0 0 0 0 0 0 0 0 0 0 0 0 0 0 0 0 0 0 0.25 0"/>
<feBlend mode="normal" in2="BackgroundImageFix" result="effect1_dropShadow_2248_87187"/>
<feBlend mode="normal" in="SourceGraphic" in2="effect1_dropShadow_2248_87187" result="shape"/>
</filter>
<filter id="filter1_d_2248_87187" x="1.09863" y="1.03516" width="24.8027" height="27.6875" filterUnits="userSpaceOnUse" color-interpolation-filters="sRGB">
<feFlood flood-opacity="0" result="BackgroundImageFix"/>
<feColorMatrix in="SourceAlpha" type="matrix" values="0 0 0 0 0 0 0 0 0 0 0 0 0 0 0 0 0 0 127 0" result="hardAlpha"/>
<feOffset dy="4"/>
<feGaussianBlur stdDeviation="2"/>
<feComposite in2="hardAlpha" operator="out"/>
<feColorMatrix type="matrix" values="0 0 0 0 0 0 0 0 0 0 0 0 0 0 0 0 0 0 0.25 0"/>
<feBlend mode="normal" in2="BackgroundImageFix" result="effect1_dropShadow_2248_87187"/>
<feBlend mode="normal" in="SourceGraphic" in2="effect1_dropShadow_2248_87187" result="shape"/>
</filter>
<linearGradient id="paint0_linear_2248_87187" x1="21.9011" y1="20.7218" x2="4.82729" y2="20.4836" gradientUnits="userSpaceOnUse">
<stop stop-color="#B83AF3"/>
<stop offset="0.98" stop-color="#5E50FB"/>
</linearGradient>
<clipPath id="clip0_2248_87187">
<rect width="18.33" height="21.4763" fill="white" transform="translate(4.33496 0.140625)"/>
</clipPath>
</defs>
</svg>
