<svg width="80" height="80" viewBox="0 0 80 80" fill="none" xmlns="http://www.w3.org/2000/svg">
<path d="M0 40C0 17.9086 17.9086 0 40 0C62.0914 0 80 17.9086 80 40V68.9655C80 75.0597 75.0597 80 68.9655 80H40C17.9086 80 0 62.0914 0 40Z" fill="url(#paint0_linear_2723_104718)"/>
<path fill-rule="evenodd" clip-rule="evenodd" d="M24.3483 15.017C24.3247 15.041 24.0511 15.1001 23.7404 15.1481C23.1912 15.233 22.723 15.4102 22.5021 15.6168C22.4425 15.6725 22.358 15.7181 22.3144 15.7181C22.1901 15.7181 21.6775 16.3055 21.6247 16.5084C21.5986 16.6086 21.5496 16.6907 21.5157 16.6907C21.411 16.6907 21.247 17.5164 21.2499 18.0281C21.2532 18.5989 21.4185 19.7758 21.5117 19.8924C21.5473 19.937 21.603 20.1376 21.6353 20.3382C21.6677 20.5388 21.7233 20.7394 21.7588 20.784C21.7945 20.8286 21.8651 21.0657 21.9158 21.3108C22.1922 22.6483 22.2495 22.9231 22.3205 23.2561C22.3633 23.4568 22.3998 23.8102 22.4018 24.0416C22.4037 24.2731 22.4386 24.4829 22.4792 24.508C22.5197 24.5331 22.5788 24.8726 22.6103 25.2626C22.6419 25.6524 22.6958 26.0079 22.7302 26.0525C22.7645 26.0971 22.8185 26.3616 22.8501 26.6403C22.8817 26.919 22.9379 27.1658 22.975 27.1887C23.0121 27.2116 23.0674 27.4304 23.0979 27.6749C23.1285 27.9194 23.1826 28.1194 23.2181 28.1194C23.2536 28.1194 23.3086 28.2744 23.3403 28.4639C23.3719 28.6534 23.4207 28.8266 23.4487 28.8489C23.4767 28.8712 23.5895 29.1538 23.6993 29.4771C23.8091 29.8003 23.9276 30.0647 23.9627 30.0647C23.9977 30.0647 24.0276 30.1103 24.0292 30.166C24.0307 30.2218 24.1024 30.4132 24.1885 30.5916C24.2747 30.7699 24.3463 30.9583 24.3479 31.0104C24.3494 31.0623 24.378 31.117 24.4114 31.132C24.4449 31.1468 24.5634 31.3413 24.6749 31.5642C24.7863 31.7871 24.8977 31.9877 24.9223 32.01C24.9469 32.0323 25.0552 32.1964 25.1629 32.3748C25.3641 32.7081 25.3765 32.7255 25.649 33.0559C25.7373 33.163 25.8096 33.2746 25.8096 33.3039C25.8096 33.3332 25.9108 33.4644 26.0344 33.5954C26.158 33.7265 26.3547 33.9629 26.4715 34.1209L26.6839 34.4081L26.5069 34.5667C26.4096 34.6539 26.1353 34.9807 25.8975 35.2927C25.6596 35.6048 25.4331 35.8723 25.3941 35.8871C25.3551 35.902 25.3233 35.949 25.3233 35.9917C25.3233 36.0826 24.9865 36.5772 24.8977 36.6166C24.8643 36.6315 24.837 36.6739 24.837 36.7108C24.837 36.7478 24.7093 36.9719 24.5533 37.2088C24.3972 37.4458 24.2696 37.683 24.2696 37.736C24.2696 37.789 24.2422 37.8445 24.2088 37.8595C24.1303 37.8943 23.5401 39.0874 23.5401 39.211C23.5401 39.2627 23.5065 39.3049 23.4654 39.3049C23.4244 39.3049 23.367 39.4139 23.3377 39.5472C23.3084 39.6803 23.2508 39.8102 23.2096 39.8356C23.1685 39.861 23.1336 39.9435 23.1321 40.0189C23.1305 40.0943 23.0589 40.3019 22.9727 40.4802C22.8865 40.6585 22.8149 40.8661 22.8134 40.9415C22.8118 41.0168 22.7773 41.0991 22.7366 41.1242C22.6959 41.1495 22.638 41.3155 22.608 41.4934C22.5779 41.6712 22.5234 41.8352 22.487 41.8578C22.4504 41.8803 22.3954 42.0811 22.3648 42.3039C22.3342 42.5267 22.2803 42.7269 22.245 42.7487C22.2097 42.7704 22.155 42.9619 22.1234 43.1743C22.0918 43.3866 22.0375 43.5967 22.0027 43.6413C21.9679 43.6859 21.9131 43.9047 21.8808 44.1276C21.8486 44.3505 21.7984 44.5694 21.7693 44.614C21.6587 44.7837 21.2997 46.8752 21.1295 48.3425C20.9568 49.8319 20.9568 52.3965 21.1296 53.692C21.289 54.8873 21.4187 55.5977 21.5074 55.762C21.5445 55.8307 21.6007 56.0402 21.6323 56.2277C21.664 56.4152 21.7201 56.5872 21.7569 56.61C21.7937 56.6328 21.8485 56.7971 21.8786 56.9751C21.9086 57.1532 21.9665 57.299 22.0072 57.299C22.0479 57.299 22.0811 57.3572 22.0811 57.4285C22.0811 57.4997 22.2361 57.8656 22.4256 58.2416C22.6151 58.6177 22.8061 58.9971 22.8501 59.0848C22.8941 59.1725 22.958 59.2443 22.9919 59.2443C23.026 59.2443 23.0538 59.2822 23.0538 59.3286C23.0538 59.401 23.3379 59.853 23.4593 59.9738C23.4816 59.996 23.6093 60.1773 23.743 60.3766C23.9941 60.7511 25.8484 62.6485 25.9632 62.6485C26.0201 62.6485 26.1443 62.7393 26.5154 63.0523C26.5693 63.0977 26.6487 63.1349 26.692 63.1349C26.7353 63.1349 26.8189 63.1805 26.8778 63.2362C27.0257 63.3762 27.9897 63.8456 28.2615 63.9101C28.3841 63.9392 28.4844 63.9955 28.4844 64.0352C28.4844 64.075 28.5427 64.1075 28.614 64.1075C28.6853 64.1075 28.8585 64.1591 28.999 64.2221C29.1395 64.285 29.528 64.4137 29.8623 64.5079C30.1967 64.6022 30.5797 64.7136 30.7134 64.7555C30.8471 64.7973 31.3796 64.8754 31.8966 64.929C33.0016 65.0435 33.6198 64.9578 34.0489 64.6305C34.2828 64.4522 34.3203 64.3752 34.3203 64.074C34.3203 63.7471 34.2805 63.6845 33.7021 63.1023C33.3621 62.7601 33.0992 62.4647 33.118 62.4459C33.1753 62.3887 33.5098 62.5005 33.5098 62.577C33.5098 62.6163 33.5621 62.6485 33.6261 62.6485C33.69 62.6485 33.8451 62.6913 33.9706 62.7435C34.7507 63.0682 36.5377 63.4821 37.7651 63.6223C38.6304 63.7211 40.1977 63.7212 41.0478 63.6224C41.9881 63.5132 43.8456 63.1463 44.014 63.0365C44.0629 63.0047 44.2543 62.9544 44.4395 62.9249C44.6248 62.8952 44.7763 62.8434 44.7763 62.8098C44.7763 62.776 44.8493 62.7294 44.9384 62.7061C45.1858 62.6414 45.1329 62.8034 44.7966 63.1401C44.3811 63.556 44.3246 63.6345 44.2625 63.8817C44.1019 64.5219 44.797 64.969 46.0006 64.9994C46.4336 65.0105 47.5921 64.8551 47.8159 64.7561C47.905 64.7166 48.1421 64.6482 48.3427 64.604C48.9979 64.4596 49.4324 64.3363 49.6923 64.2209C49.8328 64.1585 50.0061 64.1075 50.0774 64.1075C50.1487 64.1075 50.207 64.071 50.207 64.0265C50.207 63.9819 50.2526 63.9453 50.3083 63.945C50.4432 63.9445 51.4553 63.4223 51.8901 63.1288C52.2695 62.8727 52.2886 62.8578 52.7602 62.4479C52.9385 62.2928 53.1097 62.1651 53.1406 62.1641C53.2416 62.1608 54.2156 61.1464 54.6682 60.5736C54.9111 60.266 55.1375 60.0021 55.1711 59.9873C55.2048 59.9724 55.2323 59.9254 55.2323 59.8826C55.2323 59.8081 55.5443 59.3277 55.6469 59.2443C55.6744 59.222 55.7249 59.1125 55.7592 59.0011C55.7935 58.8896 55.844 58.7802 55.8715 58.7579C55.9499 58.6943 56.286 57.9806 56.286 57.8777C56.286 57.8269 56.3225 57.7853 56.3671 57.7853C56.4117 57.7853 56.4481 57.727 56.4481 57.6557C56.4481 57.5844 56.4996 57.4111 56.5626 57.2707C56.7478 56.8574 57.0155 56.0142 57.0155 55.8444C57.0155 55.7581 57.0484 55.6671 57.0886 55.6423C57.1288 55.6174 57.1856 55.3691 57.2147 55.0904C57.2439 54.8116 57.2998 54.5107 57.339 54.4215C57.4492 54.1712 57.6057 52.1819 57.6005 51.0983C57.5917 49.257 57.4054 47.5446 56.9788 45.384C56.745 44.1998 56.6734 43.883 56.6117 43.7598C56.5773 43.6912 56.5224 43.476 56.4896 43.2817C56.4567 43.0874 56.3792 42.8073 56.3174 42.6593C56.2556 42.5112 56.205 42.2978 56.205 42.1849C56.205 42.072 56.1708 41.9797 56.1289 41.9797C56.087 41.9797 56.0282 41.8156 55.9981 41.6149C55.9681 41.4143 55.9151 41.2502 55.8806 41.2502C55.846 41.2502 55.7941 41.1241 55.7652 40.9699C55.7362 40.8158 55.6595 40.5878 55.5946 40.4633C55.5296 40.3389 55.4763 40.1732 55.476 40.0952C55.4757 40.0172 55.4419 39.9533 55.4008 39.9533C55.3598 39.9533 55.3017 39.8415 55.2716 39.7047C55.2416 39.568 55.166 39.3582 55.1036 39.2387C55.0412 39.119 54.99 38.9757 54.9897 38.9199C54.9894 38.8642 54.9556 38.8186 54.9145 38.8186C54.8735 38.8186 54.8159 38.7092 54.7865 38.5754C54.7572 38.4417 54.6996 38.3322 54.6585 38.3322C54.6175 38.3322 54.5839 38.2917 54.5839 38.2422C54.5839 38.1927 54.4015 37.8502 54.1786 37.4812C53.9557 37.1121 53.7733 36.7728 53.7733 36.7269C53.7733 36.6811 53.746 36.6315 53.7126 36.6166C53.6407 36.5846 53.287 36.0905 53.287 36.022C53.287 35.9961 53.2499 35.9308 53.2044 35.877C53.0164 35.6539 52.834 35.4189 52.7196 35.2522C52.6528 35.1547 52.5333 34.9988 52.4542 34.9057C52.3141 34.7408 52.3183 34.7278 52.6163 34.4147C53.1573 33.8461 53.3024 33.6664 53.9359 32.7822C54.1585 32.4715 54.3407 32.1705 54.3407 32.1135C54.3407 32.0566 54.3772 32.01 54.4218 32.01C54.4664 32.01 54.5028 31.9579 54.5028 31.8942C54.5028 31.8306 54.5485 31.7302 54.6042 31.6713C54.7153 31.5539 55.1231 30.7426 55.3916 30.1052C55.4855 29.8823 55.595 29.6406 55.6349 29.5681C55.6749 29.4955 55.7324 29.3041 55.7627 29.1426C55.793 28.981 55.846 28.8489 55.8806 28.8489C55.9151 28.8489 55.9681 28.6848 55.9981 28.4841C56.0282 28.2835 56.0792 28.1194 56.1114 28.1194C56.1677 28.1194 56.2726 27.6984 56.4546 26.7415C56.5013 26.4963 56.5712 26.2227 56.6099 26.1336C56.688 25.954 56.817 25.0804 56.9392 23.9046C56.9831 23.4811 57.0526 23.0434 57.0935 22.9319C57.1344 22.8205 57.1924 22.5287 57.2224 22.2835C57.2523 22.0383 57.3046 21.8012 57.3386 21.7566C57.3726 21.7121 57.4253 21.5032 57.4558 21.2924C57.4863 21.0818 57.5408 20.8911 57.5769 20.8687C57.6131 20.8464 57.6664 20.6798 57.6953 20.4985C57.7243 20.3173 57.7818 20.1068 57.8231 20.0307C58.0182 19.6711 58.2214 17.621 58.0763 17.4759C58.0278 17.4274 57.9882 17.2943 57.9882 17.1799C57.9882 16.7947 57.4094 15.9301 56.9714 15.6613C56.3463 15.2776 55.481 15.039 54.7055 15.0366C54.2448 15.0351 52.6948 15.2385 52.5981 15.3131C52.5535 15.3474 52.3622 15.4011 52.1729 15.4323C51.9838 15.4635 51.8103 15.5192 51.7875 15.556C51.7647 15.5928 51.6004 15.6476 51.4224 15.6776C51.2443 15.7077 51.0986 15.7616 51.0986 15.7974C51.0986 15.8334 50.9982 15.8866 50.8757 15.9159C50.6046 15.9807 49.155 16.6913 49.0057 16.8326C48.9467 16.8884 48.8464 16.9339 48.7828 16.9339C48.719 16.9339 48.6669 16.9662 48.6669 17.0055C48.6669 17.0449 48.6031 17.0993 48.5251 17.1266C48.2702 17.2154 47.2799 17.8822 46.9376 18.1955C46.8857 18.2429 46.7833 18.3159 46.71 18.3576C46.46 18.5 45.2778 19.5206 44.7398 20.0586C44.1372 20.6612 43.2024 21.7445 43.0389 22.0297C42.9972 22.1024 42.9242 22.2062 42.8768 22.2604C42.6426 22.5277 42.5879 22.6071 42.5879 22.6795C42.5879 22.7228 42.5423 22.808 42.4865 22.8688C42.3355 23.0336 42.1883 23.2695 42.0808 23.5196C42.0281 23.6421 41.9594 23.7425 41.9281 23.7425C41.8968 23.7425 41.8472 23.8519 41.8178 23.9856C41.7885 24.1194 41.7338 24.2288 41.6963 24.2288C41.6587 24.2288 41.604 24.3382 41.5747 24.472C41.5453 24.6057 41.4906 24.7151 41.4531 24.7151C41.4156 24.7151 41.3609 24.8245 41.3315 24.9583C41.3022 25.092 41.2445 25.2014 41.2035 25.2014C41.1624 25.2014 41.1289 25.2597 41.1289 25.3311C41.1289 25.4023 41.0774 25.5756 41.0144 25.7161C40.8292 26.1294 40.5615 26.9725 40.5615 27.1423C40.5615 27.2286 40.5279 27.32 40.4868 27.3455C40.4458 27.3709 40.3867 27.6289 40.3556 27.9187C40.3246 28.2086 40.267 28.4657 40.2277 28.4901C40.1884 28.5144 40.1562 28.6415 40.1562 28.7726C40.1562 29.0099 40.154 29.011 39.6699 29.011H39.1836V28.7408C39.1836 28.5922 39.1563 28.4435 39.1228 28.4102C39.0894 28.3771 39.0184 28.1065 38.9651 27.8091C38.8161 26.9765 38.6714 26.4173 38.6052 26.4173C38.5721 26.4173 38.5205 26.2531 38.4904 26.0525C38.4603 25.8519 38.4073 25.6878 38.3726 25.6878C38.3379 25.6878 38.285 25.5875 38.2549 25.4649C38.2249 25.3423 38.0933 25.0139 37.9625 24.7351C37.8317 24.4564 37.7246 24.192 37.7246 24.1475C37.7246 24.1031 37.6917 24.0667 37.6515 24.0667C37.6113 24.0667 37.5361 23.9663 37.4846 23.8438C37.3245 23.4632 37.2024 23.2561 37.138 23.2561C37.104 23.2561 37.0762 23.2066 37.0762 23.1462C37.0762 23.0857 36.8938 22.7922 36.6709 22.494C36.448 22.1959 36.2656 21.9367 36.2656 21.9183C36.2656 21.855 35.818 21.3763 34.7625 20.3111C33.6622 19.2006 33.5657 19.1136 32.6992 18.4511C32.4095 18.2296 32.1602 18.0164 32.1454 17.9774C32.1305 17.9384 32.0835 17.9066 32.0407 17.9066C31.9499 17.9066 31.4553 17.5698 31.4159 17.481C31.401 17.4476 31.354 17.4202 31.3113 17.4202C31.2441 17.4202 30.7896 17.1317 30.6729 17.015C30.6506 16.9927 30.45 16.8833 30.2271 16.7718C30.0042 16.6604 29.8036 16.5509 29.7813 16.5286C29.6921 16.4395 28.6729 15.9651 28.4641 15.9155C28.3416 15.8864 28.2412 15.8342 28.2412 15.7994C28.2412 15.7646 28.1045 15.7106 27.9373 15.6794C27.7702 15.6481 27.5969 15.5941 27.5523 15.5593C27.5077 15.5245 27.3253 15.4698 27.147 15.4377C26.9687 15.4056 26.7863 15.35 26.7417 15.3142C26.6972 15.2783 26.3142 15.2085 25.8907 15.159C25.4672 15.1095 24.9565 15.0475 24.7559 15.021C24.5553 14.9947 24.3719 14.9928 24.3483 15.017ZM29.1126 22.584C29.4358 22.7436 29.7002 22.9055 29.7002 22.9436C29.7002 22.9818 29.7475 23.013 29.8053 23.013C29.9221 23.013 30.1633 23.1835 30.5218 23.5196C30.6525 23.6421 30.7857 23.7425 30.8177 23.7425C30.9672 23.7425 32.6564 25.4895 33.2074 26.2138C33.2416 26.2588 33.3419 26.3833 33.4303 26.4905C33.5185 26.5976 33.5908 26.7305 33.5908 26.7857C33.5908 26.841 33.6455 26.9072 33.7124 26.9329C33.7793 26.9585 33.834 27.0354 33.834 27.1037C33.834 27.172 33.8697 27.2278 33.9135 27.2278C33.9572 27.2278 34.0159 27.319 34.0438 27.4304C34.0718 27.5419 34.1243 27.6331 34.1606 27.6331C34.1968 27.6331 34.2504 27.7425 34.2798 27.8762C34.3091 28.01 34.3638 28.1194 34.4014 28.1194C34.4389 28.1194 34.4936 28.2288 34.5229 28.3626C34.5523 28.4963 34.6099 28.6057 34.6509 28.6057C34.692 28.6057 34.7268 28.6514 34.7283 28.707C34.7299 28.7628 34.8015 28.9543 34.8877 29.1326C34.9739 29.3109 35.0455 29.5185 35.047 29.5939C35.0486 29.6692 35.0831 29.7515 35.1238 29.7766C35.1645 29.8019 35.2224 29.9679 35.2524 30.1458C35.2825 30.3236 35.3383 30.4884 35.3764 30.512C35.4145 30.5356 35.4702 30.7186 35.5003 30.9187C35.5303 31.1188 35.5845 31.3009 35.6208 31.3233C35.6571 31.3458 35.7119 31.5641 35.7424 31.8087C35.773 32.0531 35.8251 32.2532 35.8582 32.2532C35.994 32.2532 36.3028 35.0812 36.2102 35.4759C36.1478 35.7413 36.099 35.7891 35.8173 35.8601C35.6404 35.9047 35.4591 35.9642 35.4145 35.9924C35.37 36.0206 35.2149 36.0691 35.0701 36.1002C34.9252 36.1312 34.8066 36.1902 34.8066 36.2312C34.8066 36.2723 34.7715 36.3059 34.7284 36.3059C34.6435 36.3059 33.4138 35.58 33.3477 35.4908C33.3254 35.4607 33.2292 35.4119 33.1338 35.3821C33.0384 35.3524 32.8674 35.2418 32.7536 35.1364C32.6399 35.031 32.5125 34.9319 32.4704 34.9161C32.3124 34.8568 31.5928 34.2113 30.8022 33.4196C29.9266 32.5429 29.7002 32.2766 29.7002 32.1238C29.7002 32.0707 29.6455 32.0064 29.5786 31.9807C29.5118 31.9551 29.4571 31.8782 29.4571 31.8099C29.4571 31.7416 29.4213 31.6858 29.3775 31.6858C29.3339 31.6858 29.2752 31.5946 29.2472 31.4832C29.2192 31.3717 29.1638 31.2805 29.1241 31.2805C29.0843 31.2805 29.0506 31.235 29.049 31.1792C29.0475 31.1235 28.9758 30.932 28.8897 30.7537C28.8035 30.5753 28.7319 30.388 28.7303 30.3374C28.7288 30.2868 28.6731 30.1409 28.6065 30.0132C28.5399 29.8855 28.4852 29.7193 28.4849 29.644C28.4846 29.5686 28.45 29.4857 28.408 29.4597C28.3661 29.4337 28.3067 29.2401 28.2763 29.0294C28.2457 28.8187 28.1925 28.6098 28.158 28.5652C28.1234 28.5206 28.0574 28.2653 28.0114 27.9978C27.8772 27.2196 27.5728 26.0839 27.3636 25.5812C27.3113 25.4557 27.2686 25.3028 27.2686 25.2415C27.2686 25.1801 27.2342 25.1087 27.1922 25.0828C27.1502 25.0568 27.0909 24.8631 27.0604 24.6525C27.0299 24.4417 26.9706 24.226 26.9284 24.173C26.8148 24.0302 26.818 22.8254 26.9321 22.7874C26.9834 22.7703 27.0254 22.7103 27.0254 22.6541C27.0254 22.5232 27.2619 22.3127 27.4712 22.2574C27.8382 22.1604 28.536 22.2991 29.1126 22.584ZM52.1666 22.418C52.2479 22.4916 52.3144 22.5978 52.3144 22.6541C52.3144 22.7103 52.3578 22.7708 52.4109 22.7885C52.5436 22.8327 52.5918 23.7811 52.483 24.2085C52.4349 24.398 52.357 24.7066 52.3102 24.8943C52.2632 25.082 52.1945 25.2735 52.1574 25.3199C52.1202 25.3662 52.0654 25.5317 52.0353 25.6878C52.0053 25.8438 51.9513 26.0444 51.9152 26.1336C51.8387 26.3228 51.6911 26.8714 51.5773 27.3899C51.5333 27.5905 51.4668 27.8107 51.4295 27.8793C51.3922 27.948 51.3349 28.1668 51.3021 28.3656C51.2692 28.5646 51.2141 28.7638 51.1796 28.8084C51.1451 28.8529 51.0913 29.0444 51.0601 29.2339C51.0289 29.4233 50.97 29.5784 50.9293 29.5784C50.8886 29.5784 50.8552 29.6423 50.8549 29.7202C50.8546 29.7982 50.8034 29.9599 50.7409 30.0795C50.6785 30.1991 50.6029 30.4089 50.5729 30.5456C50.5429 30.6823 50.4877 30.7942 50.4501 30.7942C50.4126 30.7942 50.3579 30.9036 50.3285 31.0374C50.2992 31.1711 50.2416 31.2805 50.2006 31.2805C50.1595 31.2805 50.1259 31.3242 50.1259 31.3776C50.1259 31.4858 49.4634 32.5047 49.1877 32.8206C48.4687 33.6444 48.2782 33.85 48.1004 33.9942C47.9894 34.0843 47.8344 34.2218 47.756 34.2998C47.6774 34.3778 47.5933 34.4416 47.5688 34.4416C47.5444 34.4416 47.4441 34.5237 47.3459 34.624C47.1217 34.8532 46.6715 35.1711 46.5714 35.1711C46.5299 35.1711 46.4748 35.2258 46.4491 35.2927C46.4235 35.3596 46.3467 35.4143 46.2783 35.4143C46.2101 35.4143 46.1542 35.4483 46.1542 35.4899C46.1542 35.5315 46.0722 35.5911 45.9719 35.6224C45.8715 35.6537 45.7713 35.7017 45.749 35.7292C45.7267 35.7566 45.5412 35.8662 45.3369 35.9726C45.0309 36.1321 44.899 36.1563 44.589 36.1098C44.3821 36.0788 44.1941 36.0232 44.1713 35.9864C44.1486 35.9495 43.9745 35.8952 43.7844 35.8657C43.1565 35.7682 43.1411 35.7348 43.1815 34.5509C43.2174 33.4992 43.362 32.3619 43.4789 32.2126C43.5138 32.1681 43.5681 31.9401 43.5996 31.7061C43.631 31.4721 43.6898 31.2805 43.7302 31.2805C43.7706 31.2805 43.8039 31.1802 43.8042 31.0576C43.8045 30.9351 43.8592 30.7302 43.9257 30.6026C43.9924 30.4748 44.0471 30.3107 44.0473 30.2378C44.0476 30.1649 44.1024 30.0008 44.1689 29.8731C44.2355 29.7454 44.2912 29.5995 44.2928 29.5489C44.2943 29.4982 44.3659 29.3109 44.4521 29.1326C44.5383 28.9543 44.6099 28.7628 44.6115 28.707C44.613 28.6514 44.6507 28.6057 44.6953 28.6057C44.7398 28.6057 44.7763 28.5641 44.7763 28.5133C44.7763 28.4217 45.1035 27.711 45.1815 27.6331C45.2039 27.6108 45.3126 27.4193 45.4231 27.2075C45.5336 26.9957 45.6497 26.8225 45.681 26.8225C45.7124 26.8225 45.7638 26.7404 45.7953 26.6402C45.8268 26.5398 45.9335 26.3823 46.0323 26.2901C46.1311 26.1979 46.2264 26.0845 46.2439 26.0381C46.2947 25.9039 46.8906 25.2004 47.2933 24.7992C47.6697 24.4241 47.7547 24.3504 48.4643 23.7828C48.6872 23.6046 48.8987 23.4132 48.9344 23.3575C48.9701 23.3018 49.0521 23.2561 49.1168 23.2561C49.1814 23.2561 49.2346 23.2288 49.2348 23.1954C49.2359 23.0596 50.5386 22.3767 50.977 22.2821C51.4118 22.1882 51.9851 22.2537 52.1666 22.418ZM39.938 31.7061C39.9781 32.7571 40.1342 34.1645 40.2369 34.4011C40.2755 34.4903 40.3302 34.7364 40.3583 34.9482L40.4094 35.3332H39.6748C38.8698 35.3332 38.8872 35.3474 39.0297 34.8064C39.2324 34.037 39.3633 33.0258 39.3997 31.9492L39.4387 30.7942H39.671H39.9033L39.938 31.7061ZM28.2119 35.779C28.2376 35.8459 28.3038 35.9006 28.3591 35.9006C28.4476 35.9006 28.5589 35.9771 28.9471 36.3043C29.0009 36.3498 29.0803 36.3869 29.1236 36.3869C29.1669 36.3869 29.2512 36.4326 29.3108 36.4883C29.3706 36.544 29.592 36.68 29.803 36.7905C30.0139 36.9011 30.1865 37.0167 30.1865 37.0475C30.1865 37.0783 30.296 37.1276 30.4297 37.157C30.5634 37.1863 30.6729 37.241 30.6729 37.2785C30.6729 37.3161 30.7819 37.3706 30.9151 37.3999C31.0483 37.4291 31.1782 37.4868 31.2036 37.5279C31.229 37.5691 31.3133 37.6028 31.3909 37.6028C31.4686 37.6028 31.573 37.6437 31.623 37.6937C31.7235 37.7942 31.6733 38.008 31.5491 38.008C31.3093 38.008 30.065 39.211 29.7128 39.7833C29.4449 40.2188 29.3026 40.9505 29.4449 41.1605C29.487 41.2226 29.6984 41.302 29.9148 41.337C30.4009 41.4157 31.7271 41.2826 32.0296 41.1247C32.1528 41.0605 32.2948 41.0079 32.3455 41.0075C32.3961 41.0073 32.542 40.9526 32.6697 40.8859C32.7974 40.8194 32.9635 40.7647 33.0389 40.7644C33.1143 40.7641 33.1972 40.7295 33.2232 40.6875C33.2492 40.6455 33.4428 40.5862 33.6535 40.5557C33.8642 40.5252 34.0767 40.4684 34.1259 40.4295C34.1749 40.3906 34.3937 40.3349 34.6122 40.3058C34.8306 40.2765 35.0275 40.2256 35.0498 40.1925C35.0954 40.1249 35.8403 39.9831 36.7519 39.8685C37.0863 39.8265 37.6067 39.7554 37.9085 39.7106C38.616 39.6055 40.8046 39.6055 41.5123 39.7106C41.8141 39.7553 42.371 39.8262 42.75 39.868C43.6265 39.9646 44.4465 40.1034 44.6547 40.1902C44.7439 40.2274 44.9992 40.2959 45.2221 40.3424C46.0005 40.5047 46.4383 40.6226 46.4785 40.6805C46.5008 40.7126 46.662 40.7614 46.8366 40.789C47.0114 40.8166 47.1755 40.8713 47.2014 40.9106C47.2273 40.9498 47.3915 41.0045 47.5661 41.0322C47.7409 41.0597 47.905 41.111 47.9309 41.146C48.0238 41.2716 48.8171 41.4933 49.1641 41.4907C49.4009 41.4888 49.5851 41.4321 49.7206 41.3191C49.9064 41.1642 49.9229 41.0965 49.9192 40.5058C49.9169 40.1214 49.8785 39.8387 49.8244 39.8053C49.7744 39.7744 49.7084 39.6491 49.6778 39.527C49.6471 39.4048 49.5895 39.3049 49.5498 39.3049C49.51 39.3049 49.4775 39.2551 49.4775 39.1941C49.4775 39.0721 48.7164 38.2668 48.2457 37.8908C47.9712 37.6715 47.9585 37.6438 48.0906 37.5513C48.1697 37.4959 48.3317 37.4261 48.4506 37.3963C48.5696 37.3665 48.6669 37.3124 48.6669 37.2762C48.6669 37.24 48.7764 37.1863 48.9101 37.157C49.0438 37.1276 49.1533 37.078 49.1533 37.0467C49.1533 37.0154 49.2536 36.9467 49.3762 36.894C49.6262 36.7865 49.8622 36.6393 50.0269 36.4883C50.0877 36.4326 50.1896 36.3869 50.2532 36.3869C50.317 36.3869 50.3693 36.3596 50.3696 36.3262C50.3702 36.248 50.8389 35.9801 50.9633 35.9867C51.0667 35.9921 51.5849 36.665 51.5849 36.7938C51.5849 36.8374 51.6161 36.8733 51.6543 36.8733C51.7311 36.8733 52.3144 37.7409 52.3144 37.8551C52.3144 37.8946 52.3501 37.927 52.3939 37.927C52.4376 37.927 52.4963 38.0182 52.5242 38.1296C52.5522 38.2411 52.6047 38.3322 52.6409 38.3322C52.6772 38.3322 52.7308 38.4417 52.7602 38.5754C52.7895 38.7092 52.8442 38.8186 52.8818 38.8186C52.9193 38.8186 52.974 38.928 53.0033 39.0617C53.0327 39.1955 53.0874 39.3049 53.1249 39.3049C53.1624 39.3049 53.2172 39.4143 53.2465 39.5481C53.2758 39.6818 53.3306 39.7912 53.3681 39.7912C53.4056 39.7912 53.4608 39.9031 53.4909 40.0398C53.5209 40.1766 53.5965 40.3863 53.6589 40.5059C53.7213 40.6255 53.7725 40.7872 53.7729 40.8652C53.7731 40.9432 53.8017 41.007 53.8364 41.007C53.8711 41.007 53.9851 41.2898 54.0898 41.6352C54.1945 41.9807 54.3303 42.3783 54.3915 42.5188C54.4527 42.6593 54.5028 42.8668 54.5028 42.9801C54.5028 43.0933 54.5351 43.2059 54.5746 43.2303C54.614 43.2546 54.6722 43.4482 54.704 43.6606C54.7358 43.8729 54.7856 44.0831 54.8147 44.1276C54.8735 44.2178 55.0344 44.9247 55.1651 45.6677C55.2121 45.9351 55.2827 46.2269 55.3217 46.3161C55.4497 46.6083 55.6643 48.3283 55.8023 50.1678C55.8774 51.1677 55.8804 51.681 55.8141 52.1942C55.7654 52.5722 55.7025 53.1915 55.6744 53.5705C55.6463 53.9494 55.5945 54.2959 55.5594 54.3405C55.5242 54.3851 55.4701 54.6312 55.4391 54.8876C55.4081 55.144 55.3536 55.3537 55.318 55.3537C55.2823 55.3537 55.2292 55.5346 55.1999 55.7556C55.1706 55.9766 55.1153 56.1768 55.077 56.2005C55.0389 56.2241 54.9835 56.3715 54.9541 56.5281C54.9248 56.6846 54.866 56.8126 54.8234 56.8126C54.7809 56.8126 54.746 56.8644 54.746 56.9277C54.746 57.0698 54.1711 58.2209 54.0814 58.2581C54.0458 58.273 54.0165 58.3312 54.0165 58.3875C54.0165 58.4439 53.9442 58.5776 53.8559 58.6847C53.5858 59.0123 53.5697 59.033 53.3644 59.317C52.8291 60.0576 52.0858 60.8066 51.4226 61.2736C51.2667 61.3834 51.1208 61.4915 51.0986 61.5138C50.9998 61.6125 50.5443 61.8954 50.2475 62.0423C50.0692 62.1305 49.9046 62.2272 49.8819 62.2571C49.8592 62.287 49.7339 62.3383 49.6037 62.3709C49.4733 62.4037 49.2731 62.4793 49.1587 62.539C49.0442 62.5987 48.8758 62.6477 48.7845 62.6481C48.693 62.6483 48.5836 62.682 48.5413 62.723C48.4149 62.8449 47.6943 62.9253 47.6943 62.8173C47.6943 62.7662 47.749 62.7035 47.8159 62.6779C47.8827 62.6522 47.9374 62.5972 47.9374 62.5556C47.9374 62.4661 48.2752 61.9716 48.363 61.9326C48.3964 61.9177 48.4238 61.8565 48.4238 61.7965C48.4238 61.7365 48.4694 61.6393 48.5251 61.5803C48.6651 61.4324 49.1345 60.4684 49.199 60.1967C49.2281 60.074 49.2798 59.9738 49.3138 59.9738C49.3479 59.9738 49.3993 59.8262 49.4281 59.646C49.457 59.4657 49.5148 59.256 49.5567 59.1799C49.643 59.0236 49.7557 58.5467 49.944 57.5421C50.1296 56.552 50.1291 53.3756 49.9431 52.4762C49.7131 51.3631 49.6098 50.9767 49.5426 50.9767C49.5067 50.9767 49.4763 50.9129 49.4747 50.8349C49.4732 50.7569 49.4015 50.5471 49.3154 50.3688C49.2292 50.1905 49.1576 50.02 49.156 49.99C49.1512 49.8952 48.353 48.5954 48.1613 48.3703C48.0605 48.2518 47.9233 48.0729 47.8564 47.9726C47.7895 47.8724 47.6709 47.7333 47.593 47.6634C47.515 47.5935 47.4511 47.5105 47.4511 47.4789C47.4511 47.4473 47.2414 47.2058 46.9851 46.9424C46.5256 46.4702 46.0083 45.879 45.6507 45.4174C45.4104 45.1072 45.3666 45.0516 45.2003 44.8444C45.1232 44.7483 45.0053 44.5888 44.9384 44.49C44.8716 44.3912 44.7713 44.2628 44.7155 44.2046C44.6598 44.1464 44.6142 44.0745 44.6142 44.0449C44.6142 44.0153 44.5503 43.9075 44.4724 43.8053C44.3944 43.7032 44.2758 43.5379 44.2089 43.438C43.9946 43.118 43.5137 42.6281 43.414 42.6281C43.3608 42.6281 43.3173 42.5946 43.3173 42.5535C43.3173 42.5125 43.2079 42.4548 43.0742 42.4255C42.9404 42.3962 42.831 42.3385 42.831 42.2975C42.831 42.2016 41.3152 42.1992 41.256 42.2949C41.2315 42.3346 41.1127 42.3918 40.9921 42.422C40.5758 42.5266 38.6972 44.1031 38.6972 44.348C38.6972 44.3828 38.6425 44.4113 38.5757 44.4113C38.5088 44.4113 38.4541 44.4394 38.4541 44.4738C38.4541 44.5082 38.2809 44.6232 38.0691 44.7294C37.8573 44.8356 37.5873 44.9716 37.469 45.0316C37.3506 45.0917 37.1956 45.1408 37.1245 45.1408C37.0533 45.1408 36.9951 45.1757 36.9951 45.2182C36.9951 45.2608 36.8584 45.3202 36.6912 45.3503C36.524 45.3805 36.3468 45.437 36.2975 45.4759C36.0552 45.667 34.5818 45.8644 33.3727 45.8676C32.8292 45.8691 32.3646 45.9025 32.3403 45.9419C32.316 45.9813 32.095 46.0386 31.8492 46.0693C31.6035 46.1 31.4024 46.159 31.4024 46.2004C31.4024 46.2417 31.3608 46.2756 31.31 46.2756C31.0794 46.2756 30.4394 46.6759 30.0928 47.0368C29.7444 47.3997 29.1328 48.4522 29.1328 48.6891C29.1328 48.7437 29.1036 48.7883 29.0678 48.7883C28.9895 48.7883 28.8459 49.3666 28.6652 50.4093C28.4804 51.4749 28.4828 55.4157 28.6691 56.9747C28.8081 58.1378 28.974 59.0653 29.0691 59.2114C29.1009 59.2603 29.1512 59.4518 29.1807 59.637C29.2104 59.8222 29.2635 59.9738 29.2988 59.9738C29.3342 59.9738 29.3877 60.0856 29.4177 60.2223C29.4477 60.3591 29.5234 60.5689 29.5858 60.6884C29.6482 60.808 29.6994 60.9304 29.6997 60.9605C29.7006 61.0609 30.5061 62.3616 30.7198 62.608C30.9161 62.8342 30.9199 62.8529 30.7743 62.8753C30.6041 62.9017 29.3242 62.4966 28.7469 62.2336C28.3731 62.0633 27.5823 61.6007 27.5118 61.5109C27.4895 61.4826 27.4117 61.4261 27.339 61.3853C26.7869 61.0758 25.2242 59.5108 25.0885 59.1315C25.0708 59.0821 25.007 59.0124 24.9466 58.9768C24.8863 58.9411 24.837 58.8591 24.837 58.7944C24.837 58.7298 24.8012 58.6769 24.7574 58.6769C24.7138 58.6769 24.6551 58.5857 24.6271 58.4742C24.5991 58.3628 24.5506 58.2716 24.5192 58.2716C24.4588 58.2716 23.9655 57.3165 23.7448 56.7721C23.6725 56.5938 23.5811 56.3886 23.5417 56.316C23.5023 56.2435 23.4446 56.0429 23.4135 55.8702C23.3824 55.6976 23.3284 55.5198 23.2935 55.4752C23.219 55.3798 23.0746 54.7156 22.9677 53.9757C22.9259 53.686 22.8551 53.2461 22.8106 52.9982C22.7051 52.4115 22.706 49.839 22.8121 49.1343C22.8575 48.8325 22.9282 48.2938 22.9694 47.9372C23.1 46.8053 23.6064 44.2844 23.7834 43.8845C23.8228 43.7953 23.8786 43.5675 23.9073 43.3783C23.936 43.1891 23.9886 43.0163 24.0241 42.9943C24.0596 42.9723 24.1133 42.7906 24.1433 42.5905C24.1734 42.3904 24.2291 42.2074 24.2672 42.1838C24.3053 42.1602 24.3612 41.9953 24.3912 41.8172C24.4213 41.6391 24.4792 41.4934 24.5199 41.4934C24.5606 41.4934 24.594 41.4295 24.5943 41.3515C24.5946 41.2735 24.6458 41.1118 24.7082 40.9922C24.7707 40.8727 24.8463 40.6629 24.8763 40.5261C24.9063 40.3894 24.9615 40.2776 24.9991 40.2776C25.0366 40.2776 25.0913 40.1681 25.1206 40.0344C25.15 39.9007 25.2076 39.7912 25.2486 39.7912C25.2897 39.7912 25.3233 39.7347 25.3233 39.6654C25.3233 39.5237 25.6552 38.8737 25.7488 38.8321C25.7822 38.8172 25.8096 38.7673 25.8096 38.7211C25.8096 38.6135 26.3879 37.652 26.474 37.6163C26.5098 37.6014 26.5391 37.5433 26.5391 37.487C26.5391 37.4308 26.612 37.3187 26.7012 37.238C26.7904 37.1574 26.8633 37.0556 26.8633 37.0119C26.8633 36.9681 26.9492 36.8528 27.0543 36.7554C27.1593 36.658 27.2597 36.5396 27.2772 36.4922C27.3418 36.3177 27.9609 35.6596 28.0614 35.6586C28.1185 35.6579 28.1863 35.7122 28.2119 35.779ZM42.5338 44.2222C42.6973 44.3856 42.831 44.568 42.831 44.6275C42.831 44.6869 42.8651 44.7355 42.9066 44.7355C42.9482 44.7355 43.0074 44.8148 43.0381 44.9117C43.0688 45.0085 43.1267 45.1271 43.1667 45.1751C43.3635 45.4117 43.5315 45.6288 43.6416 45.7889C43.7084 45.8863 43.8726 46.0859 44.0063 46.2326C44.14 46.3793 44.4136 46.6932 44.6142 46.9299C44.8148 47.1668 45.0428 47.4163 45.1208 47.4845C45.1988 47.5527 45.2626 47.6347 45.2626 47.6667C45.2626 47.6988 45.4177 47.8877 45.6071 48.0865C46.0621 48.5639 46.4317 49.0289 46.4641 49.1648C46.4785 49.2252 46.5212 49.2746 46.5589 49.2746C46.5966 49.2746 46.7104 49.4114 46.8121 49.5785C46.9136 49.7458 47.0189 49.9007 47.0458 49.923C47.1304 49.9928 47.4511 50.5465 47.4505 50.6215C47.4493 50.7526 47.0182 50.8957 46.6244 50.8957C46.3028 50.8957 46.2353 50.8702 46.2353 50.7488C46.2353 50.668 46.3447 50.521 46.4785 50.4221C46.6537 50.2926 46.7216 50.1752 46.7216 50.0016C46.7216 49.7878 46.6942 49.7609 46.4768 49.7609C46.3422 49.7609 46.0789 49.8576 45.8917 49.9758C45.602 50.1586 45.4514 50.1928 44.881 50.2056C44.3852 50.2165 44.1721 50.2555 44.0617 50.3554C43.9796 50.4297 43.8865 50.4904 43.8547 50.4904C43.7358 50.4904 43.4774 50.7943 43.2791 51.1673C43.1065 51.4919 43.0742 51.6607 43.0742 52.2374C43.0742 52.6139 43.1067 52.922 43.1465 52.922C43.1862 52.922 43.2418 53.0142 43.2701 53.1268C43.3275 53.3553 43.927 53.9757 44.0904 53.9757C44.1481 53.9757 44.2085 54.0148 44.2243 54.0625C44.2771 54.2208 45.3069 54.1825 45.6401 54.01C45.9733 53.8375 46.2353 53.6109 46.2353 53.4952C46.2353 53.4538 46.2834 53.3717 46.342 53.3128C46.4444 53.2102 46.6067 52.7258 46.6974 52.2525C46.7275 52.0954 46.8037 52.0135 46.9538 51.9773C47.1739 51.9242 47.6329 51.6397 47.6807 51.5268C47.7508 51.3616 47.9374 51.4804 47.9374 51.69C47.9374 51.8148 47.9715 51.9516 48.0131 51.994C48.1114 52.0941 48.2567 52.9948 48.3392 54.0163C48.4093 54.8831 48.3592 56.7189 48.2617 56.8532C48.2293 56.8977 48.1802 57.1617 48.1526 57.4398C48.1249 57.7178 48.0686 58.0096 48.0274 58.0882C47.9863 58.1668 47.91 58.3904 47.8578 58.5853C47.7922 58.8305 47.6473 59.0487 47.3872 59.2945C47.1804 59.4898 46.9852 59.6495 46.9533 59.6495C46.9214 59.6495 46.8461 59.6952 46.786 59.7509C46.5807 59.9412 46.161 60.2169 46.0764 60.2169C46.0301 60.2169 45.9921 60.2505 45.9921 60.2916C45.9921 60.3326 45.8827 60.3902 45.749 60.4196C45.6152 60.4489 45.5058 60.5036 45.5058 60.5411C45.5058 60.5787 45.3964 60.6334 45.2626 60.6627C45.1289 60.6921 45.0195 60.7497 45.0195 60.7907C45.0195 60.8318 44.9739 60.8656 44.9182 60.8658C44.8625 60.8662 44.715 60.9195 44.5905 60.9844C44.466 61.0493 44.2377 61.1262 44.0831 61.1552C43.9284 61.1842 43.7835 61.2377 43.761 61.2741C43.7385 61.3106 43.5201 61.3653 43.2755 61.3958C43.0311 61.4264 42.831 61.4794 42.831 61.5136C42.831 61.5708 42.4889 61.6327 41.0478 61.8363C40.389 61.9293 38.3194 61.9288 37.7246 61.8353C36.6467 61.666 36.2144 61.583 36.063 61.5161C35.9738 61.4767 35.7596 61.4211 35.5869 61.3925C35.4143 61.3639 35.2137 61.3086 35.1412 61.2694C35.0686 61.2303 34.7904 61.1263 34.5229 61.0382C34.2555 60.9503 33.9272 60.8209 33.7935 60.7507C33.6597 60.6805 33.5047 60.623 33.449 60.6227C33.3933 60.6224 33.3477 60.5857 33.3477 60.5411C33.3477 60.4966 33.3012 60.4601 33.2445 60.4601C33.1877 60.4601 32.9475 60.3324 32.7106 60.1764C32.4737 60.0204 32.2495 59.8927 32.2126 59.8927C32.1756 59.8927 32.1332 59.8654 32.1183 59.8319C32.1035 59.7984 31.9095 59.6252 31.6873 59.4469C31.0072 58.9012 30.6729 58.516 30.6729 58.278C30.6729 58.1586 30.6383 58.0262 30.5961 57.9839C30.4186 57.8057 30.3187 56.2879 30.3217 53.8136C30.3247 51.3296 30.4096 50.0728 30.5863 49.8961C30.6339 49.8485 30.6729 49.7479 30.6729 49.6725C30.6729 49.3283 31.2717 48.3249 31.6289 48.0706C31.9945 47.8103 32.4689 47.722 33.915 47.6454C34.6506 47.6064 35.3298 47.5405 35.4243 47.4989C35.5188 47.4574 35.7741 47.3976 35.9917 47.3662C36.2092 47.3346 36.4237 47.2802 36.4683 47.2452C36.5128 47.2103 36.6918 47.155 36.866 47.1225C37.0402 47.0899 37.2773 47.014 37.3928 46.9536C37.5084 46.8933 37.6647 46.8438 37.7401 46.8434C37.8155 46.8432 37.898 46.8093 37.9233 46.7681C37.9488 46.727 38.0786 46.6693 38.2118 46.6401C38.3451 46.6108 38.4541 46.5563 38.4541 46.5187C38.4541 46.4812 38.5635 46.4265 38.6972 46.3972C38.831 46.3678 38.9404 46.3142 38.9404 46.2779C38.9404 46.2417 39.0224 46.19 39.1228 46.1629C39.3134 46.1115 39.5823 45.9044 40.2209 45.3172C40.4305 45.1244 40.7653 44.8326 40.965 44.6688C41.1645 44.5049 41.4016 44.2943 41.4918 44.2007C41.8416 43.8379 42.156 43.8444 42.5338 44.2222ZM32.1318 49.9679C32.1318 50.0862 32.2359 50.2861 32.3746 50.434C32.7294 50.8125 32.6938 50.8957 32.1772 50.8957C31.9346 50.8957 31.7136 50.8592 31.686 50.8146C31.5519 50.5976 30.916 50.8508 30.916 51.1213C30.916 51.2438 31.4169 51.7873 31.5299 51.7873C31.5935 51.7873 31.6455 51.8213 31.6455 51.863C31.6455 51.9046 31.7459 51.9502 31.8684 51.9643C32.0373 51.9837 32.0971 52.039 32.115 52.1925C32.128 52.304 32.1707 52.4681 32.21 52.5573C32.2492 52.6464 32.3039 52.8228 32.3315 52.9493C32.359 53.0756 32.4257 53.2339 32.4797 53.301C32.7691 53.6607 33.1132 53.9757 33.2166 53.9757C33.2813 53.9757 33.3474 54.0156 33.3637 54.0644C33.4167 54.2234 34.5025 54.1809 34.7721 54.0092C35.5148 53.5363 35.7898 53.0227 35.7878 52.1126C35.787 51.7407 35.7532 51.4151 35.7127 51.389C35.6721 51.3629 35.6153 51.2654 35.5863 51.1722C35.5195 50.958 35.1629 50.5706 34.8472 50.3694C34.6658 50.2537 34.4335 50.2102 33.9323 50.1976C33.349 50.183 33.2243 50.1531 32.9853 49.9708C32.808 49.8356 32.6072 49.7609 32.421 49.7609C32.165 49.7609 32.1318 49.7847 32.1318 49.9679ZM37.7787 55.1646C37.7489 55.1942 37.7246 55.3231 37.7246 55.4509C37.7246 55.6971 38.1201 56.1642 38.3285 56.1642C38.3901 56.1642 38.4558 56.2098 38.4743 56.2655C38.4985 56.3379 38.749 56.3668 39.3524 56.3668C40.2723 56.3668 40.4472 56.3039 40.906 55.8084C41.1563 55.5381 41.1825 55.3956 41.0131 55.2263C40.8706 55.0837 40.7467 55.0794 40.599 55.2118C40.0516 55.7028 39.6565 55.8713 39.1995 55.8088C38.9902 55.7802 38.8067 55.7208 38.7918 55.6767C38.7769 55.6328 38.7205 55.5968 38.6664 55.5968C38.6123 55.5968 38.4786 55.4889 38.3692 55.3571C38.1833 55.1329 37.902 55.0412 37.7787 55.1646ZM36.8533 57.1159C36.7104 57.1645 36.7254 57.788 36.8764 58.0911C36.9449 58.2283 37.1297 58.4437 37.2868 58.5696C37.444 58.6954 37.6206 58.8422 37.6794 58.8958C37.738 58.9493 37.8908 59.0182 38.0187 59.0488C38.1467 59.0795 38.3026 59.1451 38.3651 59.1946C38.4354 59.2503 38.8675 59.2831 39.4998 59.2807C40.3044 59.2776 40.5725 59.2476 40.7641 59.1394C40.8979 59.0639 41.0341 59.0019 41.0669 59.0016C41.27 58.9999 41.9331 58.4769 42.0678 58.2122C42.1532 58.0443 42.2504 57.8947 42.2839 57.8799C42.3919 57.8319 42.3484 57.2911 42.2268 57.1695C42.1237 57.0663 42.0501 57.0816 41.6392 57.2915C40.8667 57.6859 40.6293 57.7639 40.0346 57.8181C38.9783 57.9144 38.2427 57.7469 37.0762 57.1442C37.0093 57.1097 36.909 57.097 36.8533 57.1159Z" fill="white"/>
<rect x="60.5" y="0.5" width="19" height="19" rx="9.5" fill="white" stroke="#8C8C8C"/>
<path d="M74 6L66 14" stroke="#8C8C8C" stroke-width="2" stroke-linecap="round" stroke-linejoin="round"/>
<path d="M66 6L74 14" stroke="#8C8C8C" stroke-width="2" stroke-linecap="round" stroke-linejoin="round"/>
<defs>
<linearGradient id="paint0_linear_2723_104718" x1="0" y1="0" x2="0" y2="80" gradientUnits="userSpaceOnUse">
<stop stop-color="#A770EF"/>
<stop offset="0.5" stop-color="#CF8BF3"/>
<stop offset="1" stop-color="#FDB99B"/>
</linearGradient>
</defs>
</svg>
