<svg width="40" height="41" viewBox="0 0 40 41" fill="none" xmlns="http://www.w3.org/2000/svg">
<path d="M0 20.4999C0 9.45427 8.95435 0.5 20 0.5V0.5C31.0456 0.5 40 9.45427 40 20.4999V20.4999C40 31.5456 31.0456 40.4998 20 40.4998V40.4998C8.95435 40.4998 0 31.5456 0 20.4999V20.4999Z" fill="#E9ECF1"/>
<ellipse cx="19.9747" cy="15.3158" rx="8.94737" ry="8.81575" fill="white"/>
<path fill-rule="evenodd" clip-rule="evenodd" d="M33.9182 34.0002C33.9746 34.0976 33.9569 34.2206 33.876 34.2988C30.2774 37.7783 25.3764 39.9192 19.9754 39.9192C14.5745 39.9192 9.67362 37.7784 6.07502 34.2991C5.99411 34.2209 5.97643 34.0979 6.03282 34.0005C8.57663 29.6064 13.8646 26.5859 19.9756 26.5859C26.0865 26.5859 31.3744 29.6062 33.9182 34.0002Z" fill="white"/>
</svg>
