<svg width="10" height="14" viewBox="0 0 10 14" fill="none" xmlns="http://www.w3.org/2000/svg">
<path fill-rule="evenodd" clip-rule="evenodd" d="M2.29215 5.12109H7.27302L9.04207 8.04737C9.38387 8.61217 9.56549 9.27071 9.56517 9.94357V10.0076C9.56315 11.9344 8.10437 13.4958 6.30432 13.498H3.26085C1.4608 13.4958 0.00201829 11.9344 0 10.0076V9.94357C-0.000423108 9.27083 0.181302 8.61229 0.52299 8.0476L2.29215 5.12109ZM5 8.84474V8.72021C5 8.72021 6.00915 7.62821 6.45804 7.14772L6.15064 6.81867C5.38691 7.63583 4.99236 8.05838 4.78824 8.28903L3.41458 6.81867L3.10718 7.14772C3.10718 7.14772 4.42277 8.55546 4.56522 8.69113V8.84474H3.69566V9.31013H4.56522V9.54282H3.69566V10.0082H4.56522V11.6371H5V10.0082H5.86956V9.54282H5V9.31013H5.86956V8.84474H5Z" fill="#FFA600"/>
<path d="M7.00452 3.7268L7.71433 0.687813L7.32975 0.907213C7.26585 0.943571 7.18932 0.943571 7.12542 0.907213L6.41126 0.5L5.69869 0.906986C5.63479 0.943799 5.55794 0.943799 5.49414 0.906986L4.78147 0.5L4.06911 0.906986C4.00511 0.943571 3.92836 0.943571 3.86435 0.906986L3.15263 0.5L2.43932 0.906986C2.37542 0.943571 2.29857 0.943571 2.23456 0.906986L1.88672 0.708947L2.76891 3.7268H7.00452Z" fill="#FFA600"/>
<path d="M9.74315 3.73203L8.03661 4.06414L9.39233 2.6131C9.4747 2.52175 9.47353 2.37666 9.38967 2.2869C9.30582 2.19714 9.17016 2.19589 9.08492 2.28406L7.3008 4.19378H2.17344C2.05339 4.19378 1.95605 4.29797 1.95605 4.42647C1.95605 4.55498 2.05339 4.65917 2.17344 4.65917H7.39081C7.40387 4.65917 7.41682 4.65792 7.42966 4.65542L9.82095 4.19003C9.93909 4.16697 10.0175 4.04585 9.99599 3.91939C9.97455 3.79293 9.86129 3.70908 9.74315 3.73203Z" fill="#FFA600"/>
</svg>
