<svg width="33" height="32" viewBox="0 0 33 32" fill="none" xmlns="http://www.w3.org/2000/svg">
<path d="M8.66027 10.6259C9.07939 6.85376 12.2678 4 16.0631 4C19.8585 4 23.0469 6.85376 23.466 10.6259L23.8018 13.6475C23.87 14.2616 23.9041 14.5686 23.961 14.8691C24.0985 15.5959 24.3362 16.3 24.6672 16.9614C24.8041 17.2349 24.963 17.4998 25.2809 18.0297L26.2457 19.6377C27.0515 20.9806 27.4544 21.6521 27.1672 22.1594C26.8799 22.6667 26.0969 22.6667 24.5308 22.6667H7.59552C6.02942 22.6667 5.24636 22.6667 4.95913 22.1594C4.6719 21.6521 5.07478 20.9806 5.88054 19.6377L6.84535 18.0297C7.16324 17.4998 7.32218 17.2349 7.45905 16.9614C7.79006 16.3 8.02774 15.5959 8.1653 14.8691C8.22218 14.5686 8.2563 14.2616 8.32453 13.6475L8.66027 10.6259Z" fill="white"/>
<path d="M8.32453 13.6475L9.06994 13.7303L8.32453 13.6475ZM8.1653 14.8691L7.42839 14.7296L8.1653 14.8691ZM6.84535 18.0297L7.48847 18.4155L6.84535 18.0297ZM7.45905 16.9614L8.12975 17.2971L7.45905 16.9614ZM23.8018 13.6475L23.0563 13.7303L23.8018 13.6475ZM23.961 14.8691L24.6979 14.7296L23.961 14.8691ZM25.2809 18.0297L25.9241 17.6438L25.2809 18.0297ZM24.6672 16.9614L23.9965 17.2971L24.6672 16.9614ZM5.88054 19.6377L5.23742 19.2518L5.88054 19.6377ZM4.95913 22.1594L4.30648 22.5289L4.95913 22.1594ZM26.2457 19.6377L25.6026 20.0235L26.2457 19.6377ZM27.1672 22.1594L26.5145 21.7898L27.1672 22.1594ZM23.466 10.6259L24.2114 10.5431L23.466 10.6259ZM8.66027 10.6259L7.91485 10.5431L8.66027 10.6259ZM24.5308 21.9167H7.59552V23.4167H24.5308V21.9167ZM22.7206 10.7087L23.0563 13.7303L24.5472 13.5647L24.2114 10.5431L22.7206 10.7087ZM9.06994 13.7303L9.40568 10.7087L7.91485 10.5431L7.57912 13.5647L9.06994 13.7303ZM6.52366 20.0235L7.48847 18.4155L6.20223 17.6438L5.23742 19.2518L6.52366 20.0235ZM24.6378 18.4155L25.6026 20.0235L26.8889 19.2518L25.9241 17.6438L24.6378 18.4155ZM7.57912 13.5647C7.50968 14.1896 7.47872 14.4638 7.42839 14.7296L8.90221 15.0086C8.96565 14.6735 9.00292 14.3336 9.06994 13.7303L7.57912 13.5647ZM7.48847 18.4155C7.80074 17.8951 7.97712 17.6021 8.12975 17.2971L6.78835 16.6258C6.66724 16.8678 6.52574 17.1046 6.20223 17.6438L7.48847 18.4155ZM7.42839 14.7296C7.30372 15.3882 7.08832 16.0264 6.78835 16.6258L8.12975 17.2971C8.49179 16.5736 8.75175 15.8035 8.90221 15.0086L7.42839 14.7296ZM23.0563 13.7303C23.1234 14.3336 23.1606 14.6735 23.2241 15.0086L24.6979 14.7296C24.6476 14.4638 24.6166 14.1896 24.5472 13.5647L23.0563 13.7303ZM25.9241 17.6438C25.6005 17.1046 25.459 16.8678 25.3379 16.6258L23.9965 17.2971C24.1492 17.6021 24.3255 17.8951 24.6378 18.4155L25.9241 17.6438ZM23.2241 15.0086C23.3745 15.8035 23.6345 16.5736 23.9965 17.2971L25.3379 16.6258C25.038 16.0264 24.8226 15.3882 24.6979 14.7296L23.2241 15.0086ZM7.59552 21.9167C6.78709 21.9167 6.26703 21.9147 5.90781 21.8614C5.55393 21.8089 5.5819 21.7371 5.61178 21.7898L4.30648 22.5289C4.62359 23.089 5.18671 23.2708 5.68768 23.3451C6.18333 23.4187 6.83785 23.4167 7.59552 23.4167V21.9167ZM5.23742 19.2518C4.8476 19.9015 4.50913 20.4617 4.31718 20.9246C4.12316 21.3924 3.98937 21.9688 4.30648 22.5289L5.61178 21.7898C5.64166 21.8426 5.5657 21.8297 5.70275 21.4992C5.84187 21.1637 6.10772 20.7168 6.52366 20.0235L5.23742 19.2518ZM24.5308 23.4167C25.2884 23.4167 25.943 23.4187 26.4386 23.3451C26.9396 23.2708 27.5027 23.089 27.8198 22.5289L26.5145 21.7898C26.5444 21.7371 26.5724 21.8089 26.2185 21.8614C25.8593 21.9147 25.3392 21.9167 24.5308 21.9167V23.4167ZM25.6026 20.0235C26.0186 20.7168 26.2844 21.1637 26.4235 21.4992C26.5606 21.8297 26.4846 21.8426 26.5145 21.7898L27.8198 22.5289C28.1369 21.9688 28.0031 21.3924 27.8091 20.9246C27.6171 20.4617 27.2787 19.9015 26.8889 19.2518L25.6026 20.0235ZM16.0631 4.75C19.4763 4.75 22.3437 7.31641 22.7206 10.7087L24.2114 10.5431C23.7501 6.39111 20.2406 3.25 16.0631 3.25V4.75ZM16.0631 3.25C11.8856 3.25 8.37618 6.39111 7.91485 10.5431L9.40568 10.7087C9.7826 7.31641 12.65 4.75 16.0631 4.75V3.25Z" fill="#7778E5"/>
<path d="M12.063 22.666C12.063 23.1913 12.1665 23.7114 12.3675 24.1967C12.5685 24.6821 12.8631 25.123 13.2346 25.4944C13.606 25.8659 14.047 26.1605 14.5323 26.3615C15.0176 26.5626 15.5377 26.666 16.063 26.666C16.5883 26.666 17.1084 26.5626 17.5937 26.3615C18.079 26.1605 18.52 25.8659 18.8914 25.4944C19.2628 25.123 19.5575 24.6821 19.7585 24.1967C19.9595 23.7114 20.063 23.1913 20.063 22.666L16.063 22.666H12.063Z" fill="white" stroke="#7778E5" stroke-width="1.5"/>
</svg>
