<svg width="27" height="31" viewBox="0 0 27 31" fill="none" xmlns="http://www.w3.org/2000/svg">
<g filter="url(#filter0_d_2248_87184)">
<g clip-path="url(#clip0_2248_87184)">
<g filter="url(#filter1_d_2248_87184)">
<path fill-rule="evenodd" clip-rule="evenodd" d="M13.5001 21.3789C18.1399 21.3789 21.9014 16.9718 21.9014 11.5356C21.9014 6.09941 18.1399 1.6923 13.5001 1.6923C8.86034 1.6923 5.09887 6.09941 5.09887 11.5356C5.09887 16.9718 8.86034 21.3789 13.5001 21.3789ZM15.1857 14.4823C15.3248 14.6511 15.4018 14.8771 15.4001 15.1118C15.3983 15.3464 15.318 15.5708 15.1764 15.7367C15.0348 15.9027 14.8432 15.9968 14.643 15.9988C14.4427 16.0008 14.2498 15.9106 14.1058 15.7476L11.0508 12.1683C10.9076 12.0005 10.8272 11.7729 10.8272 11.5356C10.8272 11.2983 10.9076 11.0708 11.0508 10.9029L14.1058 7.32356C14.2498 7.16056 14.4427 7.07036 14.643 7.0724C14.8432 7.07444 15.0348 7.16855 15.1764 7.33446C15.318 7.50038 15.3983 7.72481 15.4001 7.95944C15.4018 8.19407 15.3248 8.42011 15.1857 8.58888L12.6707 11.5356L15.1857 14.4823Z" fill="url(#paint0_linear_2248_87184)"/>
</g>
</g>
</g>
<defs>
<filter id="filter0_d_2248_87184" x="0.334961" y="0.796875" width="26.3301" height="29.4766" filterUnits="userSpaceOnUse" color-interpolation-filters="sRGB">
<feFlood flood-opacity="0" result="BackgroundImageFix"/>
<feColorMatrix in="SourceAlpha" type="matrix" values="0 0 0 0 0 0 0 0 0 0 0 0 0 0 0 0 0 0 127 0" result="hardAlpha"/>
<feOffset dy="4"/>
<feGaussianBlur stdDeviation="2"/>
<feComposite in2="hardAlpha" operator="out"/>
<feColorMatrix type="matrix" values="0 0 0 0 0 0 0 0 0 0 0 0 0 0 0 0 0 0 0.25 0"/>
<feBlend mode="normal" in2="BackgroundImageFix" result="effect1_dropShadow_2248_87184"/>
<feBlend mode="normal" in="SourceGraphic" in2="effect1_dropShadow_2248_87184" result="shape"/>
</filter>
<filter id="filter1_d_2248_87184" x="1.09863" y="1.69141" width="24.8027" height="27.6875" filterUnits="userSpaceOnUse" color-interpolation-filters="sRGB">
<feFlood flood-opacity="0" result="BackgroundImageFix"/>
<feColorMatrix in="SourceAlpha" type="matrix" values="0 0 0 0 0 0 0 0 0 0 0 0 0 0 0 0 0 0 127 0" result="hardAlpha"/>
<feOffset dy="4"/>
<feGaussianBlur stdDeviation="2"/>
<feComposite in2="hardAlpha" operator="out"/>
<feColorMatrix type="matrix" values="0 0 0 0 0 0 0 0 0 0 0 0 0 0 0 0 0 0 0.25 0"/>
<feBlend mode="normal" in2="BackgroundImageFix" result="effect1_dropShadow_2248_87184"/>
<feBlend mode="normal" in="SourceGraphic" in2="effect1_dropShadow_2248_87184" result="shape"/>
</filter>
<linearGradient id="paint0_linear_2248_87184" x1="5.09887" y1="1.69229" x2="22.1727" y2="1.93051" gradientUnits="userSpaceOnUse">
<stop stop-color="#B83AF3"/>
<stop offset="0.98" stop-color="#5E50FB"/>
</linearGradient>
<clipPath id="clip0_2248_87184">
<rect width="18.33" height="21.4763" fill="white" transform="matrix(-1 0 0 -1 22.665 22.2734)"/>
</clipPath>
</defs>
</svg>
