<svg width="11" height="11" viewBox="0 0 11 11" fill="none" xmlns="http://www.w3.org/2000/svg">
<g clip-path="url(#clip0_2233_97944)">
<path d="M5.00879 10.1096C4.9582 10.1096 4.90764 10.0965 4.86233 10.0704C4.81311 10.042 3.64375 9.36303 2.45762 8.34002C1.75462 7.73372 1.19345 7.13235 0.789736 6.55266C0.267316 5.80255 0.00460126 5.08103 0.00883953 4.40812C0.0138005 3.62511 0.294249 2.88875 0.798584 2.33465C1.31143 1.77121 1.99585 1.46094 2.72579 1.46094C3.66127 1.46094 4.51656 1.98496 5.00881 2.81508C5.50106 1.98498 6.35635 1.46094 7.29183 1.46094C7.98144 1.46094 8.63939 1.7409 9.14454 2.24926C9.69892 2.80713 10.0139 3.59537 10.0087 4.41183C10.0045 5.08357 9.73685 5.804 9.21327 6.55308C8.80831 7.13247 8.24792 7.73356 7.54767 8.33969C6.36588 9.3626 5.20492 10.0415 5.15607 10.0699C5.11055 10.0964 5.05965 10.1096 5.00879 10.1096Z" fill="black"/>
</g>
<defs>
<clipPath id="clip0_2233_97944">
<rect width="10" height="10" fill="white" transform="translate(0.00878906 0.785156)"/>
</clipPath>
</defs>
</svg>
