<svg width="11" height="10" viewBox="0 0 11 10" fill="none" xmlns="http://www.w3.org/2000/svg">
<g clip-path="url(#clip0_2275_86508)">
<path d="M5.00879 9.32445C4.9582 9.32445 4.90764 9.31139 4.86233 9.28522C4.81311 9.25682 3.64375 8.57787 2.45762 7.55487C1.75462 6.94856 1.19345 6.34719 0.789736 5.76751C0.267316 5.01739 0.00460126 4.29587 0.00883953 3.62296C0.0138005 2.83996 0.294249 2.10359 0.798584 1.54949C1.31143 0.986054 1.99585 0.675781 2.72579 0.675781C3.66127 0.675781 4.51656 1.1998 5.00881 2.02992C5.50106 1.19982 6.35635 0.675781 7.29183 0.675781C7.98144 0.675781 8.63939 0.955742 9.14454 1.4641C9.69892 2.02197 10.0139 2.81021 10.0087 3.62667C10.0045 4.29841 9.73685 5.01884 9.21327 5.76792C8.80831 6.34731 8.24792 6.9484 7.54767 7.55454C6.36588 8.57744 5.20492 9.25637 5.15607 9.28477C5.11055 9.31121 5.05965 9.32445 5.00879 9.32445Z" fill="black"/>
</g>
<defs>
<clipPath id="clip0_2275_86508">
<rect width="10" height="10" fill="white" transform="translate(0.00878906)"/>
</clipPath>
</defs>
</svg>
