<svg width="10" height="11" viewBox="0 0 10 11" fill="none" xmlns="http://www.w3.org/2000/svg">
<g clip-path="url(#clip0_2248_87423)">
<path d="M5 10.1096C4.94942 10.1096 4.89885 10.0965 4.85354 10.0704C4.80432 10.042 3.63496 9.36303 2.44883 8.34002C1.74583 7.73372 1.18466 7.13235 0.780947 6.55266C0.258527 5.80255 -0.0041878 5.08103 5.04703e-05 4.40812C0.0050114 3.62511 0.28546 2.88875 0.789795 2.33465C1.30265 1.77121 1.98706 1.46094 2.717 1.46094C3.65248 1.46094 4.50778 1.98496 5.00002 2.81508C5.49227 1.98498 6.34756 1.46094 7.28304 1.46094C7.97265 1.46094 8.6306 1.7409 9.13575 2.24926C9.69013 2.80713 10.0051 3.59537 9.99995 4.41183C9.99569 5.08357 9.72806 5.804 9.20448 6.55308C8.79952 7.13247 8.23914 7.73356 7.53888 8.33969C6.35709 9.3626 5.19613 10.0415 5.14729 10.0699C5.10176 10.0964 5.05086 10.1096 5 10.1096Z" fill="black"/>
</g>
<defs>
<clipPath id="clip0_2248_87423">
<rect width="10" height="10" fill="white" transform="translate(0 0.785156)"/>
</clipPath>
</defs>
</svg>
