<svg width="9" height="8" viewBox="0 0 9 8" fill="none" xmlns="http://www.w3.org/2000/svg">
<g clip-path="url(#clip0_2273_54026)">
<path d="M4.66699 7.45996C4.62652 7.45996 4.58607 7.4495 4.54982 7.42856C4.51045 7.40585 3.57496 6.86269 2.62606 6.04429C2.06365 5.55924 1.61472 5.07815 1.29175 4.6144C0.873813 4.01431 0.663642 3.43709 0.667033 2.89876C0.671001 2.27236 0.89536 1.68326 1.29883 1.23998C1.70911 0.789234 2.25664 0.541016 2.84059 0.541016C3.58898 0.541016 4.27321 0.960234 4.66701 1.62433C5.0608 0.960249 5.74504 0.541016 6.49343 0.541016C7.04511 0.541016 7.57147 0.764984 7.9756 1.17167C8.4191 1.61797 8.67108 2.24856 8.66695 2.90173C8.66355 3.43912 8.44944 4.01546 8.03058 4.61473C7.70661 5.07824 7.2583 5.55911 6.6981 6.04402C5.75266 6.86235 4.8239 7.40549 4.78482 7.4282C4.7484 7.44936 4.70768 7.45996 4.66699 7.45996Z" fill="#8D7CF6"/>
</g>
<defs>
<clipPath id="clip0_2273_54026">
<rect width="8" height="8" fill="white" transform="translate(0.666992)"/>
</clipPath>
</defs>
</svg>
