<svg width="375" height="99" viewBox="0 0 375 99" fill="none" xmlns="http://www.w3.org/2000/svg">
<g filter="url(#filter0_dii_3284_14030)">
<rect width="375" height="63" fill="url(#paint0_linear_3284_14030)"/>
<g filter="url(#filter1_ii_3284_14030)">
<path fill-rule="evenodd" clip-rule="evenodd" d="M18 52.2808V34.5513C18 33.4685 18.472 32.4394 19.2926 31.7329L31.8743 20.9007C33.2707 19.6984 35.3369 19.6999 36.7315 20.9042L49.2724 31.7331C50.0904 32.4396 50.5607 33.4671 50.5607 34.5481V52.2808C50.5607 54.3349 48.8956 56 46.8415 56H38.8816C38.2525 56 37.6334 55.8403 37.0828 55.536L36.0671 54.9748C34.9411 54.3524 33.5735 54.3563 32.451 54.9849L31.4851 55.5258C30.9299 55.8367 30.3042 56 29.6679 56H21.7192C19.6651 56 18 54.3349 18 52.2808ZM33.291 49.9571C33.8363 50.4551 34.6742 50.4598 35.2215 49.9638L35.2478 49.9398C38.6614 46.8284 40.9132 44.776 40.9132 42.2585C40.9132 40.202 39.3022 38.586 37.2518 38.586C35.4663 38.586 33.0462 38.586 31.2607 38.586C29.2103 38.586 27.5994 40.202 27.5994 42.2585C27.5994 44.7802 29.859 46.8356 33.2826 49.9495L33.291 49.9571Z" fill="#8D7CF6"/>
</g>
<g filter="url(#filter2_ii_3284_14030)">
<path d="M151.764 38C151.764 28.0589 143.705 20 133.764 20C123.823 20 115.764 28.0589 115.764 38C115.764 47.9411 123.823 56 133.764 56C143.705 56 151.764 47.9411 151.764 38Z" fill="url(#paint1_linear_3284_14030)"/>
</g>
<g filter="url(#filter3_dii_3284_14030)">
<path fill-rule="evenodd" clip-rule="evenodd" d="M130.706 40.4152C130.651 40.4374 130.479 40.5734 130.323 40.7173L129.417 41.5614L129.247 41.5C129.013 41.4155 128.513 41.3943 128.249 41.4576C127.816 41.5618 127.756 41.6043 126.774 42.5181C125.811 43.4137 125.71 43.5301 125.595 43.8769C125.289 44.7962 125.9 45.7694 126.908 45.9692C127.176 46.0222 127.513 46.0061 127.782 45.9275C128.152 45.8191 128.276 45.7243 129.231 44.8216C130.205 43.9006 130.251 43.8451 130.362 43.4386C130.429 43.1912 130.407 42.7222 130.316 42.5024L130.251 42.343L131.152 41.4941C131.305 41.3476 131.451 41.183 131.475 41.1286C131.563 40.9307 131.503 40.6575 131.34 40.5173C131.18 40.3788 130.904 40.3345 130.706 40.4152Z" fill="url(#paint2_linear_3284_14030)"/>
<path fill-rule="evenodd" clip-rule="evenodd" d="M135.386 31.0287C134.044 31.1711 132.743 31.8092 131.858 32.7597C130.374 34.3525 130.065 36.5755 131.065 38.4644C132.191 40.5909 134.69 41.7214 137.163 41.2231C138.225 41.009 139.284 40.4505 140.001 39.7253C142.019 37.6862 142.019 34.6536 140.001 32.6145C139.284 31.8893 138.225 31.3308 137.163 31.1167C136.596 31.0024 135.94 30.97 135.386 31.0287ZM135.041 33.4417C135.146 33.4085 135.339 33.3625 135.47 33.3394C135.601 33.3164 135.819 33.3011 135.955 33.3055C136.247 33.3149 136.384 33.3781 136.514 33.5629C136.583 33.6599 136.597 33.7113 136.597 33.8704C136.597 34.0295 136.583 34.0808 136.514 34.1779C136.387 34.358 136.259 34.4167 135.93 34.4459C135.41 34.4922 135.04 34.6453 134.708 34.9523C134.382 35.2531 134.21 35.6151 134.161 36.1051C134.129 36.4138 134.067 36.5336 133.875 36.6528C133.771 36.717 133.716 36.7298 133.547 36.7298C133.377 36.7298 133.322 36.717 133.219 36.6528C133.15 36.6104 133.062 36.5263 133.022 36.466C132.957 36.3679 132.949 36.3245 132.951 36.0545C132.961 34.9034 133.823 33.8259 135.041 33.4417Z" fill="url(#paint3_linear_3284_14030)"/>
</g>
<g filter="url(#filter4_ii_3284_14030)">
<path d="M237.087 56L234.243 53.4104C224.139 44.2485 217.469 38.206 217.469 30.7902C217.469 24.7477 222.216 20 228.259 20C231.673 20 234.949 21.5891 237.087 24.1003C239.226 21.5891 242.502 20 245.916 20C251.958 20 256.706 24.7477 256.706 30.7902C256.706 38.206 250.035 44.2485 239.932 53.43L237.087 56Z" fill="url(#paint4_linear_3284_14030)"/>
</g>
<g filter="url(#filter5_ii_3284_14030)">
<path fill-rule="evenodd" clip-rule="evenodd" d="M337.941 21.5083C337.532 22.3379 337.136 23.0677 337.061 23.1299C336.986 23.1922 336.19 23.3474 335.291 23.4748C334.393 23.6023 333.599 23.7616 333.527 23.8289C333.445 23.9049 333.894 24.4535 334.71 25.2763L336.025 26.6011L335.73 28.3289C335.568 29.2792 335.478 30.0999 335.531 30.1528C335.584 30.2056 336.354 29.8734 337.242 29.4145L338.856 28.5801L340.441 29.4028C341.313 29.8552 342.079 30.193 342.143 30.1534C342.207 30.1138 342.126 29.2868 341.963 28.3157L341.666 26.5501L342.937 25.2853C343.635 24.5896 344.207 23.955 344.207 23.8748C344.207 23.7915 343.466 23.6272 342.477 23.4909C341.525 23.3596 340.683 23.1994 340.605 23.1345C340.527 23.0697 340.129 22.3379 339.72 21.5083C339.311 20.6788 338.911 20 338.83 20C338.75 20 338.35 20.6788 337.941 21.5083ZM333.726 34.6579C333.178 34.8537 333.182 34.7745 333.182 45.3158C333.182 53.8712 333.212 55.5134 333.375 55.7358C333.56 55.9895 333.778 56 338.798 56C343.031 56 344.071 55.9644 344.254 55.8134C344.459 55.6426 344.479 54.7412 344.479 45.3067V34.9871L344.176 34.7753C343.915 34.5923 343.193 34.5648 338.902 34.5741C336.168 34.5799 333.839 34.6177 333.726 34.6579ZM321.205 41.7353C320.667 41.9276 320.66 42.0142 320.66 48.8593C320.66 55.4187 320.663 55.484 320.947 55.7407C321.218 55.9862 321.51 56 326.403 56H331.573L331.833 55.6788C332.081 55.3724 332.093 55.0541 332.093 48.8333V42.309L331.759 41.975L331.425 41.6408L326.417 41.6516C323.662 41.6576 321.317 41.6952 321.205 41.7353ZM345.942 46.6876C345.723 46.8153 345.704 47.1797 345.704 51.2263C345.704 55.1533 345.728 55.6466 345.929 55.8134C346.111 55.9644 347.151 56 351.384 56C356.404 56 356.622 55.9895 356.807 55.7358C356.964 55.521 357 54.6787 357 51.2314C357 47.2963 356.982 46.9751 356.752 46.7659C356.529 46.5646 355.957 46.5412 351.341 46.5448C348.09 46.5475 346.092 46.6004 345.942 46.6876Z" fill="#B9D3EB"/>
</g>
</g>
<defs>
<filter id="filter0_dii_3284_14030" x="-30" y="-24" width="435" height="123" filterUnits="userSpaceOnUse" color-interpolation-filters="sRGB">
<feFlood flood-opacity="0" result="BackgroundImageFix"/>
<feColorMatrix in="SourceAlpha" type="matrix" values="0 0 0 0 0 0 0 0 0 0 0 0 0 0 0 0 0 0 127 0" result="hardAlpha"/>
<feOffset dy="6"/>
<feGaussianBlur stdDeviation="15"/>
<feColorMatrix type="matrix" values="0 0 0 0 0.7988 0 0 0 0 0.7988 0 0 0 0 0.7988 0 0 0 0.441761 0"/>
<feBlend mode="normal" in2="BackgroundImageFix" result="effect1_dropShadow_3284_14030"/>
<feBlend mode="normal" in="SourceGraphic" in2="effect1_dropShadow_3284_14030" result="shape"/>
<feColorMatrix in="SourceAlpha" type="matrix" values="0 0 0 0 0 0 0 0 0 0 0 0 0 0 0 0 0 0 127 0" result="hardAlpha"/>
<feOffset dy="-6"/>
<feGaussianBlur stdDeviation="7.5"/>
<feComposite in2="hardAlpha" operator="arithmetic" k2="-1" k3="1"/>
<feColorMatrix type="matrix" values="0 0 0 0 1 0 0 0 0 1 0 0 0 0 1 0 0 0 1 0"/>
<feBlend mode="normal" in2="shape" result="effect2_innerShadow_3284_14030"/>
<feColorMatrix in="SourceAlpha" type="matrix" values="0 0 0 0 0 0 0 0 0 0 0 0 0 0 0 0 0 0 127 0" result="hardAlpha"/>
<feOffset dy="-3"/>
<feGaussianBlur stdDeviation="4"/>
<feComposite in2="hardAlpha" operator="arithmetic" k2="-1" k3="1"/>
<feColorMatrix type="matrix" values="0 0 0 0 1 0 0 0 0 1 0 0 0 0 1 0 0 0 0.818482 0"/>
<feBlend mode="normal" in2="effect2_innerShadow_3284_14030" result="effect3_innerShadow_3284_14030"/>
</filter>
<filter id="filter1_ii_3284_14030" x="18" y="8" width="32.5605" height="60" filterUnits="userSpaceOnUse" color-interpolation-filters="sRGB">
<feFlood flood-opacity="0" result="BackgroundImageFix"/>
<feBlend mode="normal" in="SourceGraphic" in2="BackgroundImageFix" result="shape"/>
<feColorMatrix in="SourceAlpha" type="matrix" values="0 0 0 0 0 0 0 0 0 0 0 0 0 0 0 0 0 0 127 0" result="hardAlpha"/>
<feOffset dy="12"/>
<feGaussianBlur stdDeviation="11"/>
<feComposite in2="hardAlpha" operator="arithmetic" k2="-1" k3="1"/>
<feColorMatrix type="matrix" values="0 0 0 0 1 0 0 0 0 1 0 0 0 0 1 0 0 0 0.5 0"/>
<feBlend mode="normal" in2="shape" result="effect1_innerShadow_3284_14030"/>
<feColorMatrix in="SourceAlpha" type="matrix" values="0 0 0 0 0 0 0 0 0 0 0 0 0 0 0 0 0 0 127 0" result="hardAlpha"/>
<feOffset dy="-12"/>
<feGaussianBlur stdDeviation="6"/>
<feComposite in2="hardAlpha" operator="arithmetic" k2="-1" k3="1"/>
<feColorMatrix type="matrix" values="0 0 0 0 0.432564 0 0 0 0 0.436588 0 0 0 0 0.975798 0 0 0 1 0"/>
<feBlend mode="normal" in2="effect1_innerShadow_3284_14030" result="effect2_innerShadow_3284_14030"/>
</filter>
<filter id="filter2_ii_3284_14030" x="115.764" y="8" width="36" height="60" filterUnits="userSpaceOnUse" color-interpolation-filters="sRGB">
<feFlood flood-opacity="0" result="BackgroundImageFix"/>
<feBlend mode="normal" in="SourceGraphic" in2="BackgroundImageFix" result="shape"/>
<feColorMatrix in="SourceAlpha" type="matrix" values="0 0 0 0 0 0 0 0 0 0 0 0 0 0 0 0 0 0 127 0" result="hardAlpha"/>
<feOffset dy="12"/>
<feGaussianBlur stdDeviation="11"/>
<feComposite in2="hardAlpha" operator="arithmetic" k2="-1" k3="1"/>
<feColorMatrix type="matrix" values="0 0 0 0 1 0 0 0 0 1 0 0 0 0 1 0 0 0 0.06 0"/>
<feBlend mode="normal" in2="shape" result="effect1_innerShadow_3284_14030"/>
<feColorMatrix in="SourceAlpha" type="matrix" values="0 0 0 0 0 0 0 0 0 0 0 0 0 0 0 0 0 0 127 0" result="hardAlpha"/>
<feOffset dy="-12"/>
<feGaussianBlur stdDeviation="6"/>
<feComposite in2="hardAlpha" operator="arithmetic" k2="-1" k3="1"/>
<feColorMatrix type="matrix" values="0 0 0 0 0.670588 0 0 0 0 0.776471 0 0 0 0 0.87451 0 0 0 1 0"/>
<feBlend mode="normal" in2="effect1_innerShadow_3284_14030" result="effect2_innerShadow_3284_14030"/>
</filter>
<filter id="filter3_dii_3284_14030" x="119.516" y="28" width="28" height="27" filterUnits="userSpaceOnUse" color-interpolation-filters="sRGB">
<feFlood flood-opacity="0" result="BackgroundImageFix"/>
<feColorMatrix in="SourceAlpha" type="matrix" values="0 0 0 0 0 0 0 0 0 0 0 0 0 0 0 0 0 0 127 0" result="hardAlpha"/>
<feOffset dy="3"/>
<feGaussianBlur stdDeviation="3"/>
<feColorMatrix type="matrix" values="0 0 0 0 0.466424 0 0 0 0 0.664279 0 0 0 0 0.841667 0 0 0 1 0"/>
<feBlend mode="normal" in2="BackgroundImageFix" result="effect1_dropShadow_3284_14030"/>
<feBlend mode="normal" in="SourceGraphic" in2="effect1_dropShadow_3284_14030" result="shape"/>
<feColorMatrix in="SourceAlpha" type="matrix" values="0 0 0 0 0 0 0 0 0 0 0 0 0 0 0 0 0 0 127 0" result="hardAlpha"/>
<feOffset dy="-2"/>
<feGaussianBlur stdDeviation="1"/>
<feComposite in2="hardAlpha" operator="arithmetic" k2="-1" k3="1"/>
<feColorMatrix type="matrix" values="0 0 0 0 0.645 0 0 0 0 0.780306 0 0 0 0 0.9 0 0 0 1 0"/>
<feBlend mode="normal" in2="shape" result="effect2_innerShadow_3284_14030"/>
<feColorMatrix in="SourceAlpha" type="matrix" values="0 0 0 0 0 0 0 0 0 0 0 0 0 0 0 0 0 0 127 0" result="hardAlpha"/>
<feOffset/>
<feGaussianBlur stdDeviation="1"/>
<feComposite in2="hardAlpha" operator="arithmetic" k2="-1" k3="1"/>
<feColorMatrix type="matrix" values="0 0 0 0 1 0 0 0 0 1 0 0 0 0 1 0 0 0 1 0"/>
<feBlend mode="normal" in2="effect2_innerShadow_3284_14030" result="effect3_innerShadow_3284_14030"/>
</filter>
<filter id="filter4_ii_3284_14030" x="217.469" y="8" width="39.2363" height="60" filterUnits="userSpaceOnUse" color-interpolation-filters="sRGB">
<feFlood flood-opacity="0" result="BackgroundImageFix"/>
<feBlend mode="normal" in="SourceGraphic" in2="BackgroundImageFix" result="shape"/>
<feColorMatrix in="SourceAlpha" type="matrix" values="0 0 0 0 0 0 0 0 0 0 0 0 0 0 0 0 0 0 127 0" result="hardAlpha"/>
<feOffset dy="12"/>
<feGaussianBlur stdDeviation="11"/>
<feComposite in2="hardAlpha" operator="arithmetic" k2="-1" k3="1"/>
<feColorMatrix type="matrix" values="0 0 0 0 1 0 0 0 0 1 0 0 0 0 1 0 0 0 0.5 0"/>
<feBlend mode="normal" in2="shape" result="effect1_innerShadow_3284_14030"/>
<feColorMatrix in="SourceAlpha" type="matrix" values="0 0 0 0 0 0 0 0 0 0 0 0 0 0 0 0 0 0 127 0" result="hardAlpha"/>
<feOffset dy="-12"/>
<feGaussianBlur stdDeviation="6"/>
<feComposite in2="hardAlpha" operator="arithmetic" k2="-1" k3="1"/>
<feColorMatrix type="matrix" values="0 0 0 0 0.613533 0 0 0 0 0.732716 0 0 0 0 0.842731 0 0 0 1 0"/>
<feBlend mode="normal" in2="effect1_innerShadow_3284_14030" result="effect2_innerShadow_3284_14030"/>
</filter>
<filter id="filter5_ii_3284_14030" x="320.66" y="8" width="36.3398" height="60" filterUnits="userSpaceOnUse" color-interpolation-filters="sRGB">
<feFlood flood-opacity="0" result="BackgroundImageFix"/>
<feBlend mode="normal" in="SourceGraphic" in2="BackgroundImageFix" result="shape"/>
<feColorMatrix in="SourceAlpha" type="matrix" values="0 0 0 0 0 0 0 0 0 0 0 0 0 0 0 0 0 0 127 0" result="hardAlpha"/>
<feOffset dy="12"/>
<feGaussianBlur stdDeviation="11"/>
<feComposite in2="hardAlpha" operator="arithmetic" k2="-1" k3="1"/>
<feColorMatrix type="matrix" values="0 0 0 0 1 0 0 0 0 1 0 0 0 0 1 0 0 0 0.5 0"/>
<feBlend mode="normal" in2="shape" result="effect1_innerShadow_3284_14030"/>
<feColorMatrix in="SourceAlpha" type="matrix" values="0 0 0 0 0 0 0 0 0 0 0 0 0 0 0 0 0 0 127 0" result="hardAlpha"/>
<feOffset dy="-12"/>
<feGaussianBlur stdDeviation="6"/>
<feComposite in2="hardAlpha" operator="arithmetic" k2="-1" k3="1"/>
<feColorMatrix type="matrix" values="0 0 0 0 0.613533 0 0 0 0 0.732716 0 0 0 0 0.842731 0 0 0 1 0"/>
<feBlend mode="normal" in2="effect1_innerShadow_3284_14030" result="effect2_innerShadow_3284_14030"/>
</filter>
<linearGradient id="paint0_linear_3284_14030" x1="-42.26" y1="31.5" x2="-42.26" y2="108.699" gradientUnits="userSpaceOnUse">
<stop stop-color="#FDFDFF"/>
<stop offset="1" stop-color="#C3DAF1"/>
</linearGradient>
<linearGradient id="paint1_linear_3284_14030" x1="132.501" y1="-8" x2="137.501" y2="57" gradientUnits="userSpaceOnUse">
<stop stop-color="#FDFDFF"/>
<stop offset="1" stop-color="#D9ECFF"/>
</linearGradient>
<linearGradient id="paint2_linear_3284_14030" x1="125.516" y1="40.375" x2="125.516" y2="46.0002" gradientUnits="userSpaceOnUse">
<stop stop-color="#FDFDFF"/>
<stop offset="1" stop-color="#D9ECFF"/>
</linearGradient>
<linearGradient id="paint3_linear_3284_14030" x1="130.484" y1="31" x2="131" y2="43" gradientUnits="userSpaceOnUse">
<stop stop-color="#FDFDFF"/>
<stop offset="1" stop-color="#D9ECFF"/>
</linearGradient>
<linearGradient id="paint4_linear_3284_14030" x1="237.087" y1="20" x2="237.087" y2="56" gradientUnits="userSpaceOnUse">
<stop offset="0.61762" stop-color="#E1F0FE"/>
<stop offset="1" stop-color="#E1F0FE" stop-opacity="0"/>
</linearGradient>
</defs>
</svg>
