<svg width="24" height="25" viewBox="0 0 24 25" fill="none" xmlns="http://www.w3.org/2000/svg">
<path d="M13.5 8.82031H12V13.8203L16.28 16.3603L17 15.1503L13.5 13.0703V8.82031ZM13 3.82031C10.6131 3.82031 8.32387 4.76852 6.63604 6.45635C4.94821 8.14418 4 10.4334 4 12.8203H1L4.96 16.8503L9 12.8203H6C6 10.9638 6.7375 9.18332 8.05025 7.87056C9.36301 6.55781 11.1435 5.82031 13 5.82031C14.8565 5.82031 16.637 6.55781 17.9497 7.87056C19.2625 9.18332 20 10.9638 20 12.8203C20 14.6768 19.2625 16.4573 17.9497 17.7701C16.637 19.0828 14.8565 19.8203 13 19.8203C11.07 19.8203 9.32 19.0303 8.06 17.7603L6.64 19.1803C8.27 20.8203 10.5 21.8203 13 21.8203C15.3869 21.8203 17.6761 20.8721 19.364 19.1843C21.0518 17.4964 22 15.2073 22 12.8203C22 10.4334 21.0518 8.14418 19.364 6.45635C17.6761 4.76852 15.3869 3.82031 13 3.82031Z" fill="#475A88"/>
</svg>
