<svg width="11" height="12" viewBox="0 0 11 12" fill="none" xmlns="http://www.w3.org/2000/svg">
<path d="M5.49991 6.93732C6.39624 6.93732 7.12287 6.2107 7.12287 5.31436C7.12287 4.41803 6.39624 3.69141 5.49991 3.69141C4.60358 3.69141 3.87695 4.41803 3.87695 5.31436C3.87695 6.2107 4.60358 6.93732 5.49991 6.93732Z" stroke="#2C3E50" stroke-linecap="round" stroke-linejoin="round"/>
<path d="M8.56012 8.37636L6.26472 10.6718C6.06184 10.8744 5.7868 10.9883 5.50003 10.9883C5.21326 10.9883 4.93823 10.8744 4.73535 10.6718L2.43941 8.37636C1.83416 7.77109 1.42199 6.99993 1.25502 6.16041C1.08805 5.32089 1.17376 4.45071 1.50134 3.6599C1.82891 2.8691 2.38363 2.19319 3.09534 1.71765C3.80705 1.2421 4.6438 0.988281 5.49976 0.988281C6.35573 0.988281 7.19247 1.2421 7.90418 1.71765C8.61589 2.19319 9.17061 2.8691 9.49818 3.6599C9.82576 4.45071 9.91148 5.32089 9.7445 6.16041C9.57753 6.99993 9.16536 7.77109 8.56012 8.37636V8.37636Z" stroke="#2C3E50" stroke-linecap="round" stroke-linejoin="round"/>
</svg>
