<svg width="69" height="69" viewBox="0 0 69 69" fill="none" xmlns="http://www.w3.org/2000/svg">
<circle cx="34.0088" cy="34.7852" r="33.5" fill="white" stroke="#C6C4F4"/>
<g clip-path="url(#clip0_1921_159393)">
<path d="M34.0088 14.7852C22.9631 14.7852 14.0088 23.7395 14.0088 34.7852C14.0088 45.8308 22.9631 54.7852 34.0088 54.7852C45.0545 54.7852 54.0088 45.8308 54.0088 34.7852C54.0088 23.7395 45.0545 14.7852 34.0088 14.7852ZM46.2653 47.0417C43.2262 50.0717 39.1678 51.8618 34.8809 52.063C30.5941 52.2642 26.3859 50.8623 23.0762 48.1302C19.7666 45.3982 17.5927 41.5318 16.978 37.2845C16.3634 33.0372 17.352 28.7132 19.7514 25.155C22.1507 21.5968 25.7889 19.0593 29.9569 18.037C34.1249 17.0147 38.5243 17.5808 42.2977 19.625C46.0712 21.6692 48.9484 25.045 50.3688 29.0947C51.7891 33.1444 51.6509 37.5779 49.981 41.5312C49.1107 43.5912 47.8488 45.4626 46.2653 47.0417Z" fill="#00C853"/>
<path d="M34.0082 45.0334C36.1631 45.0334 38.2297 44.1773 39.7535 42.6536C41.2772 41.1299 42.1332 39.0632 42.1332 36.9084H25.8832C25.8832 39.0632 26.7393 41.1299 28.263 42.6536C29.7867 44.1773 31.8534 45.0334 34.0082 45.0334V45.0334ZM30.083 32.8687L31.6835 30.948L27.1332 27.1562L22.583 30.948L24.1835 32.8687L27.1332 30.4105L30.083 32.8687ZM36.333 30.948L37.9335 32.8687L40.8832 30.4105L43.833 32.8687L45.4335 30.948L40.8832 27.1562L36.333 30.948Z" fill="#00C853"/>
</g>
<defs>
<clipPath id="clip0_1921_159393">
<rect width="40" height="40" fill="white" transform="translate(14.0088 14.7852)"/>
</clipPath>
</defs>
</svg>
