<svg width="69" height="69" viewBox="0 0 69 69" fill="none" xmlns="http://www.w3.org/2000/svg">
<circle cx="34.5088" cy="34.7852" r="33.5" fill="white" stroke="#C6C4F4"/>
<g clip-path="url(#clip0_1921_159403)">
<path d="M34.5088 14.7852C23.4631 14.7852 14.5088 23.7395 14.5088 34.7852C14.5088 45.8308 23.4631 54.7852 34.5088 54.7852C45.5545 54.7852 54.5088 45.8308 54.5088 34.7852C54.5088 23.7395 45.5545 14.7852 34.5088 14.7852ZM46.7653 47.0417C43.7262 50.0717 39.6678 51.8618 35.3809 52.063C31.0941 52.2642 26.8859 50.8623 23.5762 48.1302C20.2666 45.3982 18.0927 41.5318 17.478 37.2845C16.8634 33.0372 17.852 28.7132 20.2514 25.155C22.6507 21.5968 26.2889 19.0593 30.4569 18.037C34.6249 17.0147 39.0243 17.5808 42.7977 19.625C46.5712 21.6692 49.4484 25.045 50.8688 29.0947C52.2891 33.1444 52.1509 37.5779 50.481 41.5312C49.6107 43.5912 48.3488 45.4626 46.7653 47.0417Z" fill="#475A88"/>
<path d="M34.5088 37.5352C32.3539 37.5352 30.2873 38.3912 28.7636 39.9149C27.2398 41.4386 26.3838 43.5053 26.3838 45.6602L42.6338 45.6602C42.6338 43.5053 41.7778 41.4386 40.254 39.9149C38.7303 38.3912 36.6637 37.5352 34.5088 37.5352Z" fill="#475A88"/>
<path fill-rule="evenodd" clip-rule="evenodd" d="M28.2588 32.5352C29.6395 32.5352 30.7588 31.4159 30.7588 30.0352C30.7588 28.6544 29.6395 27.5352 28.2588 27.5352C26.8781 27.5352 25.7588 28.6544 25.7588 30.0352C25.7588 31.4159 26.8781 32.5352 28.2588 32.5352ZM40.7588 32.5352C42.1395 32.5352 43.2588 31.4159 43.2588 30.0352C43.2588 28.6544 42.1395 27.5352 40.7588 27.5352C39.3781 27.5352 38.2588 28.6544 38.2588 30.0352C38.2588 31.4159 39.3781 32.5352 40.7588 32.5352Z" fill="#475A88"/>
</g>
<defs>
<clipPath id="clip0_1921_159403">
<rect width="40" height="40" fill="white" transform="translate(14.5088 14.7852)"/>
</clipPath>
</defs>
</svg>
