<svg width="31" height="30" viewBox="0 0 31 30" fill="none" xmlns="http://www.w3.org/2000/svg">
<path fill-rule="evenodd" clip-rule="evenodd" d="M18.0004 22.9257C18.0004 24.0494 16.8554 24.9994 15.5004 24.9994C14.1454 24.9994 13.0004 24.0494 13.0004 22.9257V22.4994H18.0004V22.9257ZM26.1517 19.0082L23.9004 16.7544V11.1694C23.9004 6.81816 20.7729 3.12316 16.6242 2.57316C14.2229 2.25441 11.7979 2.98691 9.97917 4.58191C8.14917 6.18441 7.10042 8.49066 7.10042 10.9082L7.09917 16.7544L4.84917 19.0094C4.26292 19.5957 4.08917 20.4707 4.40667 21.2369C4.72542 22.0032 5.46667 22.4994 6.29667 22.4994H10.5004V22.9257C10.5004 25.4482 12.7429 27.4994 15.5004 27.4994C18.2579 27.4994 20.5004 25.4482 20.5004 22.9257V22.4994H24.7029C25.5329 22.4994 26.2742 22.0044 26.5917 21.2369C26.9104 20.4707 26.7367 19.5957 26.1517 19.0082Z" fill="#231F20"/>
<mask id="mask0_2085_86508" style="mask-type:luminance" maskUnits="userSpaceOnUse" x="4" y="2" width="23" height="26">
<path fill-rule="evenodd" clip-rule="evenodd" d="M18.0004 22.9257C18.0004 24.0494 16.8554 24.9994 15.5004 24.9994C14.1454 24.9994 13.0004 24.0494 13.0004 22.9257V22.4994H18.0004V22.9257ZM26.1517 19.0082L23.9004 16.7544V11.1694C23.9004 6.81816 20.7729 3.12316 16.6242 2.57316C14.2229 2.25441 11.7979 2.98691 9.97917 4.58191C8.14917 6.18441 7.10042 8.49066 7.10042 10.9082L7.09917 16.7544L4.84917 19.0094C4.26292 19.5957 4.08917 20.4707 4.40667 21.2369C4.72542 22.0032 5.46667 22.4994 6.29667 22.4994H10.5004V22.9257C10.5004 25.4482 12.7429 27.4994 15.5004 27.4994C18.2579 27.4994 20.5004 25.4482 20.5004 22.9257V22.4994H24.7029C25.5329 22.4994 26.2742 22.0044 26.5917 21.2369C26.9104 20.4707 26.7367 19.5957 26.1517 19.0082Z" fill="white"/>
</mask>
<g mask="url(#mask0_2085_86508)">
<rect x="0.5" width="30" height="30" fill="url(#paint0_linear_2085_86508)"/>
<rect x="0.5" width="30" height="30" fill="url(#paint1_linear_2085_86508)"/>
</g>
<defs>
<linearGradient id="paint0_linear_2085_86508" x1="30.5" y1="30" x2="0.0177384" y2="29.5017" gradientUnits="userSpaceOnUse">
<stop stop-color="#B83AF3"/>
<stop offset="0.98" stop-color="#5E50FB"/>
</linearGradient>
<linearGradient id="paint1_linear_2085_86508" x1="30.5" y1="30" x2="0.0177384" y2="29.5017" gradientUnits="userSpaceOnUse">
<stop stop-color="#B83AF3"/>
<stop offset="0.98" stop-color="#5E50FB"/>
</linearGradient>
</defs>
</svg>
