<svg width="16" height="17" viewBox="0 0 16 17" fill="none" xmlns="http://www.w3.org/2000/svg">
<path d="M13.619 0.69156H2.37585C1.88318 0.691505 1.41027 0.885271 1.05927 1.231C0.708282 1.57673 0.50739 2.04666 0.5 2.53927V10.9465C0.500997 11.1912 0.550405 11.4334 0.645376 11.6589C0.740347 11.8845 0.879006 12.089 1.05337 12.2608C1.22773 12.4325 1.43434 12.5681 1.66131 12.6596C1.88829 12.7512 2.13113 12.7969 2.37585 12.7942H5.18963V15.2533C5.18935 15.3185 5.20721 15.3824 5.2412 15.438C5.27519 15.4936 5.32398 15.5387 5.38211 15.5681C5.44023 15.5976 5.50541 15.6103 5.57035 15.6049C5.63529 15.5994 5.69744 15.576 5.74983 15.5372L9.40774 12.7942H13.6241C14.1168 12.7943 14.5897 12.6005 14.9407 12.2548C15.2917 11.9091 15.4926 11.4391 15.5 10.9465V2.53927C15.4988 2.29417 15.4491 2.05172 15.3537 1.82593C15.2583 1.60013 15.1192 1.39545 14.9443 1.22368C14.7695 1.05191 14.5623 0.916457 14.3349 0.825129C14.1074 0.733802 13.8641 0.688406 13.619 0.69156ZM14.5825 10.9994C14.5825 11.2481 14.4837 11.4867 14.3078 11.6626C14.1319 11.8385 13.8934 11.9373 13.6446 11.9373H9.42565C9.22271 11.9373 9.02524 12.0031 8.86289 12.1249L6.14887 14.1636V12.4046C6.14887 12.2804 6.09956 12.1613 6.01177 12.0736C5.92398 11.9858 5.80491 11.9364 5.68076 11.9364H2.40058C2.15183 11.9364 1.91326 11.8376 1.73737 11.6617C1.56147 11.4858 1.46265 11.2473 1.46265 10.9985V2.56741C1.46265 2.31866 1.56147 2.08009 1.73737 1.9042C1.91326 1.7283 2.15183 1.62949 2.40058 1.62949H13.6455C13.8942 1.62949 14.1328 1.7283 14.3087 1.9042C14.4846 2.08009 14.5834 2.31866 14.5834 2.56741L14.5825 10.9994Z" fill="#6C778B"/>
</svg>
