<svg width="24" height="24" viewBox="0 0 24 24" fill="none" xmlns="http://www.w3.org/2000/svg">
<path fill-rule="evenodd" clip-rule="evenodd" d="M17.5614 21.0019C17.4034 21.0019 17.2444 20.9649 17.0984 20.8889L11.9994 18.2249L6.90138 20.8889C6.56338 21.0639 6.15538 21.0339 5.84938 20.8099C5.54138 20.5859 5.38838 20.2069 5.45338 19.8319L6.42438 14.2039L2.30438 10.2189C2.03038 9.95387 1.93138 9.55587 2.04838 9.19187C2.16538 8.82987 2.47838 8.56488 2.85638 8.51088L8.55638 7.68288L11.1044 2.55687C11.4424 1.87687 12.5574 1.87687 12.8954 2.55687L15.4434 7.68288L21.1434 8.51088C21.5214 8.56488 21.8344 8.82987 21.9514 9.19187C22.0684 9.55587 21.9694 9.95387 21.6954 10.2189L17.5754 14.2039L18.5464 19.8319C18.6114 20.2069 18.4574 20.5859 18.1504 20.8099C17.9764 20.9379 17.7694 21.0019 17.5614 21.0019" fill="#CAD1E0"/>
<mask id="mask0_2085_86068" style="mask-type:luminance" maskUnits="userSpaceOnUse" x="1" y="1" width="22" height="21">
<path fill-rule="evenodd" clip-rule="evenodd" d="M17.5614 21.0019C17.4034 21.0019 17.2444 20.9649 17.0984 20.8889L11.9994 18.2249L6.90138 20.8889C6.56338 21.0639 6.15538 21.0339 5.84938 20.8099C5.54138 20.5859 5.38838 20.2069 5.45338 19.8319L6.42438 14.2039L2.30438 10.2189C2.03038 9.95387 1.93138 9.55587 2.04838 9.19187C2.16538 8.82987 2.47838 8.56488 2.85638 8.51088L8.55638 7.68288L11.1044 2.55687C11.4424 1.87687 12.5574 1.87687 12.8954 2.55687L15.4434 7.68288L21.1434 8.51088C21.5214 8.56488 21.8344 8.82987 21.9514 9.19187C22.0684 9.55587 21.9694 9.95387 21.6954 10.2189L17.5754 14.2039L18.5464 19.8319C18.6114 20.2069 18.4574 20.5859 18.1504 20.8099C17.9764 20.9379 17.7694 21.0019 17.5614 21.0019Z" fill="white" stroke="white"/>
</mask>
<g mask="url(#mask0_2085_86068)">
</g>
</svg>
