<svg width="24" height="24" viewBox="0 0 24 24" fill="none" xmlns="http://www.w3.org/2000/svg">
<g clip-path="url(#clip0_1301_54642)">
<path d="M12 22C17.4822 22 22 17.4741 22 11.9948C22 6.52593 17.4717 2 12 2C6.51782 2 2 6.52593 2 11.9948C2 17.4741 6.5283 22 12 22ZM12 20.5542C7.26205 20.5542 3.44654 16.7407 3.44654 11.9948C3.44654 7.2593 7.25157 3.44578 12 3.44578C16.7379 3.44578 20.5535 7.2593 20.5639 11.9948C20.5744 16.7407 16.7484 20.5542 12 20.5542ZM11.9371 8.34887C12.587 8.34887 13.1006 7.82504 13.1006 7.17548C13.1006 6.52593 12.587 6.0021 11.9371 6.0021C11.2872 6.0021 10.7631 6.52593 10.7631 7.17548C10.7631 7.82504 11.2872 8.34887 11.9371 8.34887ZM10.239 17.4217H14.2956C14.6415 17.4217 14.9245 17.1598 14.9245 16.8036C14.9245 16.4683 14.6415 16.2064 14.2956 16.2064H12.9434V10.8528C12.9434 10.4023 12.7128 10.088 12.283 10.088H10.3857C10.0398 10.088 9.75681 10.3604 9.75681 10.6957C9.75681 11.0414 10.0398 11.3033 10.3857 11.3033H11.5912V16.2064H10.239C9.89308 16.2064 9.62055 16.4683 9.62055 16.8036C9.62055 17.1598 9.89308 17.4217 10.239 17.4217Z" fill="#283754"/>
</g>
<defs>
<clipPath id="clip0_1301_54642">
<rect width="24" height="24" fill="white"/>
</clipPath>
</defs>
</svg>
