<svg width="16" height="17" viewBox="0 0 16 17" fill="none" xmlns="http://www.w3.org/2000/svg">
<path d="M14.443 2.26684C13.6009 1.58112 12.529 1.24229 11.4457 1.31936C10.3624 1.39644 9.34924 1.88363 8.61264 2.68167L7.99767 3.32576L7.38179 2.68167C6.64176 1.89036 5.63004 1.40791 4.54934 1.33099C3.46864 1.25406 2.39879 1.58833 1.55412 2.26684C1.0935 2.66427 0.718611 3.15132 0.452287 3.69831C0.185963 4.2453 0.0337819 4.84079 0.00501406 5.44849C-0.0237538 6.05619 0.0714937 6.66338 0.284955 7.23309C0.498415 7.80279 0.825621 8.32307 1.24664 8.76224L7.28263 15.0011C7.37531 15.0974 7.48633 15.1741 7.60914 15.2267C7.73195 15.2794 7.86406 15.3069 7.99767 15.3077C8.12974 15.3075 8.26039 15.2804 8.38162 15.228C8.50284 15.1756 8.6121 15.099 8.70271 15.0029L14.7514 8.76042C15.1731 8.32173 15.5008 7.80165 15.7146 7.23199C15.9284 6.66232 16.0238 6.05503 15.995 5.44725C15.9661 4.83947 15.8136 4.24395 15.5467 3.69712C15.2799 3.15028 14.9044 2.6636 14.443 2.26684ZM14.0373 8.06176L8.01314 14.3115L1.9635 8.06176C1.63836 7.72099 1.38585 7.31772 1.22129 6.87641C1.05673 6.4351 0.983537 5.96496 1.00617 5.49451C1.0288 5.02407 1.14677 4.56312 1.35293 4.13964C1.55909 3.71617 1.84914 3.33899 2.20548 3.031C2.85783 2.52008 3.67856 2.27339 4.50449 2.33997C5.33042 2.40655 6.10104 2.78153 6.66311 3.39034L8.00222 4.76584L9.33769 3.38671C9.90267 2.78272 10.6726 2.41118 11.497 2.34472C12.3214 2.27827 13.1409 2.52168 13.7953 3.02737C14.1515 3.33578 14.4414 3.71323 14.6476 4.13689C14.8537 4.56055 14.9718 5.02161 14.9947 5.49221C15.0176 5.96281 14.9448 6.43316 14.7807 6.87481C14.6166 7.31647 14.3646 7.72026 14.04 8.06176H14.0373Z" fill="#6C778B"/>
</svg>
