<svg width="24" height="25" viewBox="0 0 24 25" fill="none" xmlns="http://www.w3.org/2000/svg">
<path d="M7.21973 10.2422L6.34473 10.2422C5.84745 10.2422 5.37053 10.4529 5.0189 10.828C4.66727 11.203 4.46973 11.7118 4.46973 12.2422L4.46973 19.2422C4.46973 19.7726 4.66727 20.2813 5.0189 20.6564C5.37053 21.0315 5.84745 21.2422 6.34473 21.2422L17.5947 21.2422C18.092 21.2422 18.5689 21.0315 18.9206 20.6564C19.2722 20.2813 19.4697 19.7726 19.4697 19.2422L19.4697 12.2422C19.4697 11.7118 19.2722 11.203 18.9206 10.828C18.5689 10.4529 18.092 10.2422 17.5947 10.2422L16.7197 10.2422" stroke="#59ACFF" stroke-width="1.5" stroke-linecap="round" stroke-linejoin="round"/>
<path d="M11.9697 15.3398L11.9697 4.77734M11.9697 4.77734L8.96973 7.77734M11.9697 4.77734L14.9697 7.77734" stroke="#59ACFF" stroke-width="1.5" stroke-linecap="round" stroke-linejoin="round"/>
</svg>
