<svg width="16" height="17" viewBox="0 0 16 17" fill="none" xmlns="http://www.w3.org/2000/svg">
<path d="M14.365 3.71166C14.0389 3.3534 13.6429 3.06562 13.2015 2.86599C12.76 2.66636 12.2824 2.55909 11.798 2.55078C10.124 2.55078 8.67564 3.87178 8.00095 5.76994C7.73923 5.00361 7.31746 4.30174 6.76365 3.71093C6.43776 3.35316 6.04224 3.06572 5.60132 2.86623C5.16041 2.66673 4.6834 2.55939 4.19953 2.55078C1.88433 2.55078 0 5.06322 0 8.14992C0 11.2366 1.88433 13.7491 4.19953 13.7491C5.87935 13.7491 7.32917 12.4237 7.99876 10.5197C8.66836 12.4019 10.1182 13.7491 11.798 13.7491C14.1125 13.7491 15.9975 11.2366 15.9975 8.14992C16.043 6.51583 15.4585 4.92679 14.365 3.71166ZM0.800604 8.94979C0.800604 8.71253 0.870969 8.4806 1.0028 8.28334C1.13463 8.08607 1.322 7.93234 1.54121 7.84158C1.76043 7.75081 2.00163 7.7271 2.23432 7.77344C2.46701 7.81978 2.68074 7.93409 2.84845 8.10191C3.01617 8.26973 3.13035 8.48352 3.17655 8.71624C3.22275 8.94896 3.19889 9.19015 3.10799 9.40931C3.0171 9.62847 2.86325 9.81574 2.6659 9.94745C2.46856 10.0792 2.23659 10.1494 1.99933 10.1492C1.68146 10.1487 1.37678 10.0221 1.15208 9.79725C0.927383 9.57241 0.800989 9.26766 0.800604 8.94979ZM4.19953 12.9492C3.58146 12.9001 2.98988 12.6772 2.49314 12.3061C1.9964 11.9351 1.61477 11.4311 1.39232 10.8523C1.58858 10.9162 1.79366 10.9489 2.00006 10.9491C2.53041 10.9491 3.03904 10.7384 3.41405 10.3634C3.78907 9.98841 3.99975 9.47978 3.99975 8.94943C3.99975 8.41908 3.78907 7.91045 3.41405 7.53543C3.03904 7.16042 2.53041 6.94974 2.00006 6.94974C1.57473 6.94506 1.16328 7.10101 0.847913 7.38643C1.10775 5.09816 2.50953 3.35138 4.19953 3.35138C4.57681 3.36089 4.94819 3.44725 5.29095 3.60518C5.63372 3.76311 5.94067 3.98929 6.19304 4.2699C7.12904 5.34302 7.63052 6.72702 7.59919 8.15064C7.59846 10.797 6.0744 12.9492 4.19953 12.9492ZM8.39907 8.94979C8.39907 8.71256 8.46941 8.48066 8.60121 8.28341C8.73301 8.08616 8.92034 7.93243 9.13951 7.84165C9.35868 7.75086 9.59985 7.72711 9.83252 7.77339C10.0652 7.81967 10.2789 7.93391 10.4467 8.10166C10.6144 8.2694 10.7286 8.48312 10.7749 8.71579C10.8212 8.94846 10.7975 9.18963 10.7067 9.4088C10.6159 9.62797 10.4621 9.8153 10.2649 9.9471C10.0676 10.0789 9.83575 10.1492 9.59852 10.1492C9.2804 10.1491 8.97535 10.0226 8.75033 9.79776C8.52532 9.57289 8.39872 9.26792 8.39834 8.94979H8.39907ZM11.7987 12.9492C11.1789 12.8998 10.5858 12.6758 10.088 12.3031C9.59032 11.9305 9.20835 11.4244 8.98642 10.8436C9.18359 10.9109 9.39019 10.9465 9.59852 10.9491C9.91326 10.9503 10.2238 10.8772 10.505 10.7357C10.7861 10.5943 11.0299 10.3884 11.2166 10.135C11.4032 9.88155 11.5274 9.58764 11.579 9.27716C11.6306 8.96669 11.6082 8.64841 11.5137 8.34821C11.4191 8.04801 11.2551 7.77436 11.0348 7.54952C10.8146 7.32467 10.5444 7.15498 10.2462 7.05424C9.94802 6.9535 9.63027 6.92456 9.31879 6.96976C9.00731 7.01496 8.7109 7.13303 8.45365 7.31438C8.73605 5.06541 10.1276 3.35066 11.8016 3.35066C12.1789 3.36016 12.5503 3.44652 12.8931 3.60445C13.2358 3.76238 13.5428 3.98856 13.7951 4.26917C14.7311 5.34229 15.2326 6.72629 15.2013 8.14992C15.1977 10.797 13.6729 12.9492 11.798 12.9492H11.7987Z" fill="#6C778B"/>
</svg>
