<svg width="33" height="32" viewBox="0 0 33 32" fill="none" xmlns="http://www.w3.org/2000/svg">
<g clip-path="url(#clip0_1277_54292)">
<path d="M3.16844 16.0122C3.15278 14.0928 3.52862 12.2568 4.34815 10.5252C6.20646 6.582 9.25492 4.02103 13.5092 3.04046C17.633 2.09118 21.4331 2.96222 24.7687 5.58578C27.3734 7.63038 28.9655 10.3217 29.5972 13.566C29.6859 14.0302 29.759 14.5048 29.7746 14.9795C29.7746 15.0473 29.7642 15.1203 29.8216 15.1777C29.8216 15.4541 29.8216 15.7305 29.8216 16.0122C29.5293 16.153 29.2265 16.0956 28.9238 16.0591C28.7672 15.96 28.7672 15.7983 28.7672 15.6471C28.7411 13.9989 28.3078 12.4446 27.624 10.9528C27.5039 10.6921 27.363 10.4469 27.2012 10.2122C26.8671 9.78972 26.6218 9.30987 26.2877 8.88739C26.199 8.77264 26.1154 8.64746 26.0163 8.54314C25.0558 7.34351 23.9074 6.36815 22.5763 5.60142C21.1147 4.76168 19.5435 4.23488 17.8627 4.05754C17.3563 4.00538 16.8448 3.94279 16.3332 3.95844C14.0886 4.03668 11.985 4.59999 10.0692 5.79441C9.19751 6.33685 8.39885 6.97318 7.67849 7.70861C7.37051 8.02678 7.08864 8.3658 6.82242 8.72048C6.18558 9.49764 5.6949 10.3635 5.29297 11.2762C4.79185 12.4341 4.45777 13.639 4.36903 14.9064C4.34293 15.2507 4.39513 15.6001 4.35859 15.9444C4.34293 16.1322 4.47865 16.1478 4.61437 16.1478C4.99543 16.153 5.37649 16.1478 5.75754 16.1478C6.1647 16.1478 6.1647 16.1478 6.3213 16.5338C6.34218 16.5807 6.38394 16.6172 6.40482 16.6642C6.50922 17.2431 6.56142 17.8325 6.70236 18.401C7.11474 20.0492 7.88207 21.5044 9.03569 22.7562C9.11399 22.8397 9.19751 22.9127 9.2497 23.017C9.28624 23.09 9.35932 23.1683 9.24448 23.2361C9.00437 23.2987 8.76425 23.2674 8.51891 23.2674C8.00735 23.2726 7.49579 23.257 6.98946 23.2726C6.68148 23.283 6.43092 23.1891 6.23256 22.9597C5.99766 22.7771 5.8776 22.5111 5.74188 22.2659C5.14681 21.1863 4.67701 20.0544 4.41601 18.8444C4.25419 18.0255 4.13413 17.1962 4.11847 16.3564C4.11325 16.1582 4.04017 16.0852 3.84181 16.08C3.61736 16.08 3.38246 16.153 3.16844 16.0122Z" fill="#F2D746"/>
<path d="M29.8222 16.9525C29.7544 17.4219 29.697 17.8913 29.6187 18.3555C29.2428 20.5305 28.3659 22.4812 27.0035 24.2129C25.119 26.607 22.697 28.1821 19.7477 28.9436C19.0587 29.121 18.3644 29.2409 17.6545 29.2879C17.5971 29.2931 17.5292 29.2827 17.4874 29.3348C16.8297 29.3348 16.1668 29.3348 15.5091 29.3348C15.1698 29.2357 14.8096 29.2409 14.4651 29.1888C11.7925 28.7663 9.45913 27.6449 7.47032 25.8142C5.39278 23.8999 4.05124 21.5528 3.45095 18.7937C3.25259 17.8809 3.13253 16.9525 3.17429 16.0136C3.44051 16.0136 3.71194 16.0241 3.97816 16.0084C4.16608 15.998 4.20784 16.071 4.20784 16.2484C4.20784 17.135 4.34356 18.0113 4.51582 18.8771C4.49494 19.1953 4.615 19.4874 4.70374 19.7742C5.25184 21.5893 6.12357 23.2271 7.39724 24.6458C9.41737 26.899 11.9282 28.2395 14.9192 28.6724C17.3048 29.0167 19.5807 28.5942 21.7469 27.5667C23.1094 26.9199 24.31 26.0436 25.3435 24.9483C26.9095 23.2845 27.9535 21.3338 28.4494 19.0962C28.4755 18.9814 28.4494 18.8719 28.4442 18.7572C28.6008 17.9174 28.6686 17.062 28.7208 16.2118C28.726 16.1127 28.6999 15.9615 28.8931 16.0032C29.2063 16.0032 29.5195 16.0032 29.8327 16.0032C29.8222 16.3266 29.8222 16.6395 29.8222 16.9525Z" fill="#E9AC28"/>
<path d="M6.22574 22.8831C6.53372 23.243 6.9461 23.2065 7.35847 23.1961C8.00575 23.1856 8.65303 23.1908 9.30552 23.1908C9.42036 23.1648 9.47778 23.2534 9.54564 23.316C11.1586 24.7921 13.0378 25.7205 15.2145 25.9813C18.1116 26.3255 20.7059 25.5692 22.9662 23.7124C23.2742 23.4621 23.556 23.1752 23.8588 22.9196C24.1772 22.711 24.5322 22.6849 24.9028 22.6953C25.5344 22.7058 26.166 22.7058 26.7976 22.6797C26.9647 22.784 26.8446 22.8935 26.7872 22.9874C26.4688 23.4934 26.0982 23.968 25.6962 24.4061C24.6 25.611 23.3316 26.5915 21.8543 27.2957C20.4815 27.9477 19.0356 28.3441 17.5113 28.4692C15.1415 28.6674 12.9021 28.2137 10.7932 27.1288C8.95579 26.1847 7.45765 24.839 6.28316 23.1387C6.23618 23.0657 6.15788 22.9926 6.22574 22.8831Z" fill="#EFCB38"/>
<path d="M6.8021 8.67394C7.17271 8.10542 7.64251 7.62035 8.14363 7.16657C8.57167 6.7806 9.0258 6.42071 9.50082 6.09212C10.3099 5.53402 11.1712 5.08025 12.0847 4.72036C13.0713 4.33439 14.0944 4.11011 15.1436 3.97971C17.1063 3.73978 19.0012 4.01622 20.8386 4.68906C22.0131 5.12197 23.0988 5.73744 24.0802 6.51981C24.8162 7.1092 25.5105 7.74553 26.069 8.51747C26.1421 8.63743 26.21 8.7574 26.2935 8.86693C26.3613 8.95038 26.4135 9.03905 26.3613 9.14858C26.3091 9.26333 26.1943 9.26855 26.0951 9.26855C25.3852 9.2529 24.6753 9.33635 23.9758 9.19553C23.6835 9.06513 23.5008 8.79912 23.2763 8.59049C21.8043 7.25524 20.0974 6.39985 18.1294 6.09733C15.1018 5.63312 12.3822 6.36855 10.0124 8.31405C9.7305 8.54355 9.45906 8.78348 9.21372 9.0547C9.1563 9.1225 9.09366 9.17988 8.99448 9.18509C8.29501 9.2529 7.59031 9.21639 6.89083 9.21117C6.58286 9.21117 6.53066 9.08599 6.70292 8.8252C6.73946 8.77826 6.77078 8.7261 6.8021 8.67394Z" fill="#F9EC65"/>
<path d="M23.8362 22.9848C23.1889 23.668 22.4633 24.2418 21.6594 24.7216C20.605 25.3475 19.4775 25.7596 18.2769 25.9786C17.8019 26.0673 17.3216 26.0882 16.8362 26.1142C15.5312 26.1716 14.2784 25.9682 13.0569 25.5353C11.9137 25.1285 10.8854 24.5182 9.94581 23.7567C9.72135 23.5794 9.54388 23.3551 9.3142 23.1882C8.9488 22.6979 8.5051 22.2754 8.16058 21.7643C7.54463 20.8567 7.06961 19.8866 6.76163 18.8382C6.55805 18.1341 6.42233 17.4195 6.39101 16.6841C6.28139 16.4598 6.27617 16.2355 6.37535 16.0112C6.61547 15.8756 6.87125 15.9278 7.12181 15.9591C7.23665 16.0164 7.23143 16.126 7.23665 16.2303C7.26275 17.5238 7.54985 18.7599 8.09794 19.9283C8.64604 21.0966 9.40816 22.1033 10.3791 22.9587C11.5222 23.9653 12.8325 24.6538 14.3097 25.0033C16.3037 25.4779 18.256 25.3214 20.1404 24.513C22.1449 23.6524 23.6535 22.2441 24.6818 20.3299C25.2456 19.2815 25.5848 18.1549 25.6945 16.9657C25.7153 16.7153 25.7467 16.465 25.7467 16.2146C25.7467 16.1207 25.7467 16.0216 25.8511 15.9643C26.1016 15.9173 26.3522 15.8912 26.5975 15.9851C26.7228 16.1677 26.6445 16.3763 26.6706 16.5745C26.5923 18.1184 26.1747 19.5684 25.4283 20.9245C25.1203 21.4878 24.7601 22.0146 24.3477 22.5101C24.1963 22.6927 24.0345 22.8596 23.8362 22.9848Z" fill="#F9EF6B"/>
<path d="M23.832 22.9846C24.2966 22.4682 24.7299 21.9362 25.0953 21.3468C25.8156 20.1837 26.2854 18.9371 26.489 17.5862C26.536 17.2733 26.5934 16.9603 26.5934 16.6369C26.6352 16.5796 26.6404 16.5118 26.6456 16.4387C26.6665 16.1206 26.7343 16.0528 27.058 16.0423C27.439 16.0371 27.8201 16.0423 28.2011 16.0371C28.5091 16.0371 28.5143 16.0267 28.5561 15.7242C28.6501 15.0513 28.5613 14.3941 28.436 13.7369C28.222 12.6051 27.8357 11.5307 27.2981 10.5136C27.2355 10.3988 27.1311 10.2841 27.2094 10.1328C27.5173 10.4927 27.6792 10.9308 27.8671 11.3533C28.3264 12.3808 28.5874 13.4657 28.7597 14.5767C28.8014 14.8218 28.8067 15.0722 28.8171 15.3225C28.8275 15.552 28.8067 15.7868 28.8693 16.0163C28.7962 16.0267 28.7701 16.0684 28.7649 16.1414C28.7336 16.6265 28.697 17.1116 28.6605 17.5966C28.6292 18.0139 28.5561 18.426 28.4569 18.8328C28.4726 19.1822 28.3369 19.5056 28.2429 19.8342C27.9819 20.7731 27.58 21.6493 27.0789 22.4839C27.0162 22.583 26.9692 22.7029 26.8335 22.7342C26.1549 22.8385 25.4659 22.7916 24.7873 22.7759C24.448 22.7603 24.1452 22.8594 23.832 22.9846Z" fill="#F3D748"/>
<path d="M6.38355 16.0131C6.38355 16.2374 6.38355 16.4617 6.38355 16.6912C6.28437 16.639 6.21652 16.566 6.22696 16.446C6.24261 16.2478 6.12256 16.2218 5.96074 16.2218C5.49094 16.227 5.02636 16.227 4.55656 16.2218C4.29035 16.2218 4.26947 16.1696 4.28513 15.8984C4.30601 15.5698 4.28513 15.2412 4.29557 14.9178C4.31645 14.1615 4.4887 13.4365 4.6975 12.7115C5.10466 11.2928 5.7676 10.0045 6.64455 8.82051C6.68631 8.76836 6.74373 8.72663 6.79071 8.67969C6.79071 8.74228 6.79071 8.79965 6.74895 8.85181C6.68631 8.91961 6.59757 8.99264 6.66021 9.09695C6.71763 9.19605 6.83247 9.14911 6.92121 9.14911C7.59459 9.13346 8.26274 9.19605 8.93612 9.11782C8.96744 9.1126 8.99876 9.13868 9.03008 9.14911C9.0614 9.25343 8.9831 9.3108 8.9309 9.37339C7.64157 10.8443 6.85857 12.5655 6.53493 14.5005C6.48273 14.8187 6.45663 15.1369 6.43575 15.455C6.32613 15.6219 6.39921 15.7993 6.39399 15.9766C6.38877 15.9923 6.38877 16.0027 6.38355 16.0131Z" fill="#F5E156"/>
<path d="M27.2156 10.1351C27.4244 10.5837 27.6385 11.0218 27.8316 11.4756C28.2127 12.3727 28.4841 13.3116 28.6094 14.2817C28.6772 14.8346 28.7294 15.3927 28.625 15.956C28.5937 16.1124 28.505 16.1229 28.3849 16.1229C27.9621 16.1229 27.5341 16.1229 27.1112 16.1229C26.7458 16.1229 26.7406 16.1229 26.6936 16.4776C26.6832 16.5506 26.6571 16.6079 26.5892 16.6445C26.5892 16.4358 26.5892 16.2272 26.5892 16.0186C26.5057 15.9247 26.5214 15.8099 26.5214 15.6952C26.4535 13.4054 25.6862 11.3817 24.235 9.60833C24.1202 9.4675 23.9427 9.35797 23.9375 9.14412C24.1985 9.10239 24.4386 9.21714 24.6996 9.20671C25.1746 9.18063 25.6497 9.20149 26.1247 9.19628C26.1977 9.19628 26.2917 9.22236 26.323 9.12326C26.3439 9.04502 26.3335 8.972 26.2708 8.90941C26.1664 8.79988 26.0986 8.6747 26.0725 8.52344C26.4483 8.93027 26.725 9.40491 27.0277 9.8639C27.0904 9.95257 27.153 10.0412 27.2156 10.1351Z" fill="#F5E156"/>
<path d="M26.852 22.7243C27.6455 21.5299 28.1727 20.226 28.4754 18.8281C28.5537 18.9064 28.5328 19.0107 28.512 19.0993C28.0683 21.024 27.2487 22.7608 25.9959 24.2995C24.7797 25.7965 23.292 26.9387 21.5485 27.7472C20.4993 28.2322 19.4031 28.5556 18.2599 28.7225C17.5918 28.8164 16.9236 28.8999 16.2503 28.8686C14.7887 28.8112 13.3793 28.5295 12.0169 27.9871C10.7745 27.4916 9.65221 26.8083 8.62387 25.9634C7.84088 25.3166 7.16228 24.5655 6.56721 23.7466C5.78943 22.6774 5.19957 21.5038 4.79241 20.2468C4.66714 19.8556 4.5784 19.4488 4.47922 19.0472C4.46356 18.9846 4.45834 18.9272 4.51576 18.8803C4.83417 20.3251 5.40315 21.6603 6.23313 22.886C6.43671 23.3033 6.72902 23.6528 7.02134 24.0022C7.82 24.9515 8.73349 25.7808 9.77749 26.4589C11.2443 27.4186 12.8468 28.0236 14.5799 28.3053C15.4307 28.4461 16.2816 28.4982 17.1376 28.4461C18.6201 28.3574 20.0504 28.0288 21.418 27.429C22.4307 26.9857 23.3703 26.4223 24.2264 25.7286C25.2495 24.8941 26.1317 23.924 26.8468 22.8026C26.852 22.7765 26.8468 22.7504 26.852 22.7243Z" fill="#D8992B"/>
<path d="M23.9386 9.14292C24.5702 9.87835 25.1496 10.6451 25.5672 11.5266C26.0788 12.601 26.4233 13.7172 26.5486 14.9064C26.5903 15.2767 26.5747 15.647 26.5903 16.0174C26.3293 16.0174 26.0683 16.0174 25.8073 16.0174C25.7291 15.9443 25.7447 15.8452 25.7395 15.7514C25.6664 13.5764 24.9356 11.6517 23.5158 9.99832C21.9811 8.20929 20.0341 7.14527 17.706 6.84797C15.0229 6.50894 12.6113 7.19743 10.5285 8.93951C8.7015 10.4677 7.64707 12.4393 7.30777 14.7916C7.26601 15.089 7.21903 15.3915 7.23469 15.6992C7.23991 15.8087 7.26079 15.9287 7.16683 16.0174C6.90583 16.0174 6.64483 16.0174 6.38383 16.0174C6.35251 15.8452 6.30553 15.6731 6.37861 15.501C6.39427 14.2857 6.72313 13.1435 7.18249 12.0273C7.62097 10.9528 8.27868 10.0192 9.03558 9.14814C9.89688 8.23537 10.8835 7.48951 12.011 6.93663C13.0602 6.42027 14.1616 6.09689 15.3256 5.97171C17.4554 5.74221 19.4703 6.11254 21.3547 7.14005C22.0542 7.52081 22.7067 7.96937 23.2913 8.52224C23.5106 8.72044 23.7402 8.91343 23.9386 9.14292Z" fill="#E6AB32"/>
<path d="M7.16855 16.0129C7.11113 10.9744 11.3497 6.44706 16.9612 6.69742C21.6696 6.90605 25.8247 10.8075 25.8143 16.0129C25.8456 21.1557 21.5965 25.3805 16.4027 25.3335C11.3811 25.2918 7.14245 21.1765 7.16855 16.0129Z" fill="#F1C63A"/>
<path d="M6.38448 15.4883C6.38448 15.6605 6.3897 15.8328 6.3897 16.0051C6.33228 15.838 6.207 15.6658 6.38448 15.4883Z" fill="#F2D746"/>
<g filter="url(#filter0_dd_1277_54292)">
<path d="M16.8376 10H12.5V21H14.645V17.3092H16.8138C19.1495 17.3092 20.5 15.7619 20.5 13.6667C20.5 11.6037 19.1653 10 16.8376 10ZM18.3153 13.6667C18.3153 15.1575 17.4176 15.6007 15.924 15.6007H14.637V11.7326H16.4245C17.6082 11.7326 18.3153 12.4337 18.3153 13.6667Z" fill="white"/>
</g>
</g>
<defs>
<filter id="filter0_dd_1277_54292" x="8.5" y="7" width="16" height="19" filterUnits="userSpaceOnUse" color-interpolation-filters="sRGB">
<feFlood flood-opacity="0" result="BackgroundImageFix"/>
<feColorMatrix in="SourceAlpha" type="matrix" values="0 0 0 0 0 0 0 0 0 0 0 0 0 0 0 0 0 0 127 0" result="hardAlpha"/>
<feMorphology radius="1" operator="dilate" in="SourceAlpha" result="effect1_dropShadow_1277_54292"/>
<feOffset dy="1"/>
<feGaussianBlur stdDeviation="1.5"/>
<feColorMatrix type="matrix" values="0 0 0 0 0 0 0 0 0 0 0 0 0 0 0 0 0 0 0.15 0"/>
<feBlend mode="normal" in2="BackgroundImageFix" result="effect1_dropShadow_1277_54292"/>
<feColorMatrix in="SourceAlpha" type="matrix" values="0 0 0 0 0 0 0 0 0 0 0 0 0 0 0 0 0 0 127 0" result="hardAlpha"/>
<feOffset dy="1"/>
<feGaussianBlur stdDeviation="1"/>
<feColorMatrix type="matrix" values="0 0 0 0 0 0 0 0 0 0 0 0 0 0 0 0 0 0 0.3 0"/>
<feBlend mode="normal" in2="effect1_dropShadow_1277_54292" result="effect2_dropShadow_1277_54292"/>
<feBlend mode="normal" in="SourceGraphic" in2="effect2_dropShadow_1277_54292" result="shape"/>
</filter>
<clipPath id="clip0_1277_54292">
<rect width="32" height="32" fill="white" transform="translate(0.5)"/>
</clipPath>
</defs>
</svg>
