<svg width="25" height="24" viewBox="0 0 25 24" fill="none" xmlns="http://www.w3.org/2000/svg">
<path fill-rule="evenodd" clip-rule="evenodd" d="M18.0614 21.0019C17.9034 21.0019 17.7444 20.9649 17.5984 20.8889L12.4994 18.2249L7.40138 20.8889C7.06338 21.0639 6.65538 21.0339 6.34938 20.8099C6.04138 20.5859 5.88838 20.2069 5.95338 19.8319L6.92438 14.2039L2.80438 10.2189C2.53038 9.95387 2.43138 9.55587 2.54838 9.19187C2.66538 8.82987 2.97838 8.56488 3.35638 8.51088L9.05638 7.68288L11.6044 2.55687C11.9424 1.87687 13.0574 1.87687 13.3954 2.55687L15.9434 7.68288L21.6434 8.51088C22.0214 8.56488 22.3344 8.82987 22.4514 9.19187C22.5684 9.55587 22.4694 9.95387 22.1954 10.2189L18.0754 14.2039L19.0464 19.8319C19.1114 20.2069 18.9574 20.5859 18.6504 20.8099C18.4764 20.9379 18.2694 21.0019 18.0614 21.0019" fill="url(#paint0_linear_2085_86032)"/>
<mask id="mask0_2085_86032" style="mask-type:luminance" maskUnits="userSpaceOnUse" x="2" y="2" width="21" height="19">
<path fill-rule="evenodd" clip-rule="evenodd" d="M18.0614 21.0019C17.9034 21.0019 17.7444 20.9649 17.5984 20.8889L12.4994 18.2249L7.40138 20.8889C7.06338 21.0639 6.65538 21.0339 6.34938 20.8099C6.04138 20.5859 5.88838 20.2069 5.95338 19.8319L6.92438 14.2039L2.80438 10.2189C2.53038 9.95387 2.43138 9.55587 2.54838 9.19187C2.66538 8.82987 2.97838 8.56488 3.35638 8.51088L9.05638 7.68288L11.6044 2.55687C11.9424 1.87687 13.0574 1.87687 13.3954 2.55687L15.9434 7.68288L21.6434 8.51088C22.0214 8.56488 22.3344 8.82987 22.4514 9.19187C22.5684 9.55587 22.4694 9.95387 22.1954 10.2189L18.0754 14.2039L19.0464 19.8319C19.1114 20.2069 18.9574 20.5859 18.6504 20.8099C18.4764 20.9379 18.2694 21.0019 18.0614 21.0019" fill="white"/>
</mask>
<g mask="url(#mask0_2085_86032)">
</g>
<defs>
<linearGradient id="paint0_linear_2085_86032" x1="22.4998" y1="21.0019" x2="2.17911" y2="20.6514" gradientUnits="userSpaceOnUse">
<stop stop-color="#B83AF3"/>
<stop offset="0.98" stop-color="#5E50FB"/>
</linearGradient>
</defs>
</svg>
