<svg width="16" height="17" viewBox="0 0 16 17" fill="none" xmlns="http://www.w3.org/2000/svg">
<path d="M14.365 3.87181C14.0389 3.51356 13.6429 3.22578 13.2015 3.02614C12.76 2.82651 12.2824 2.71925 11.798 2.71094C10.124 2.71094 8.67564 4.03193 8.00095 5.9301C7.73923 5.16377 7.31746 4.46189 6.76365 3.87109C6.43776 3.51332 6.04224 3.22588 5.60132 3.02638C5.16041 2.82689 4.6834 2.71955 4.19953 2.71094C1.88433 2.71094 0 5.22338 0 8.31007C0 11.3968 1.88433 13.9092 4.19953 13.9092C5.87935 13.9092 7.32917 12.5838 7.99876 10.6799C8.66836 12.562 10.1182 13.9092 11.798 13.9092C14.1125 13.9092 15.9975 11.3968 15.9975 8.31007C16.043 6.67598 15.4585 5.08695 14.365 3.87181V3.87181ZM0.800604 9.10995C0.800604 8.87269 0.870969 8.64076 1.0028 8.44349C1.13463 8.24623 1.322 8.09249 1.54121 8.00173C1.76043 7.91097 2.00163 7.88726 2.23432 7.9336C2.46701 7.97994 2.68074 8.09425 2.84845 8.26207C3.01617 8.42989 3.13035 8.64368 3.17655 8.87639C3.22275 9.10911 3.19889 9.35031 3.10799 9.56946C3.0171 9.78862 2.86325 9.9759 2.6659 10.1076C2.46856 10.2393 2.23659 10.3095 1.99933 10.3094C1.68146 10.3088 1.37678 10.1822 1.15208 9.95741C0.927383 9.73257 0.800989 9.42782 0.800604 9.10995V9.10995ZM4.19953 13.1093C3.58146 13.0602 2.98988 12.8373 2.49314 12.4663C1.9964 12.0952 1.61477 11.5912 1.39232 11.0125C1.58858 11.0764 1.79366 11.109 2.00006 11.1093C2.53041 11.1093 3.03904 10.8986 3.41405 10.5236C3.78907 10.1486 3.99975 9.63994 3.99975 9.10959C3.99975 8.57923 3.78907 8.07061 3.41405 7.69559C3.03904 7.32058 2.53041 7.10989 2.00006 7.10989C1.57472 7.10521 1.16328 7.26116 0.847913 7.54659C1.10775 5.25832 2.50953 3.51154 4.19953 3.51154C4.57681 3.52105 4.94819 3.60741 5.29095 3.76534C5.63372 3.92327 5.94067 4.14945 6.19304 4.43005C7.12904 5.50317 7.63052 6.88718 7.59919 8.3108C7.59846 10.9572 6.0744 13.1093 4.19953 13.1093ZM8.39907 9.10995C8.39907 8.87272 8.46941 8.64082 8.60121 8.44357C8.73301 8.24632 8.92034 8.09259 9.13951 8.0018C9.35868 7.91102 9.59985 7.88727 9.83252 7.93355C10.0652 7.97983 10.2789 8.09406 10.4467 8.26181C10.6144 8.42956 10.7286 8.64328 10.7749 8.87595C10.8212 9.10862 10.7974 9.34979 10.7067 9.56896C10.6159 9.78813 10.4621 9.97546 10.2649 10.1073C10.0676 10.2391 9.83575 10.3094 9.59852 10.3094C9.2804 10.3092 8.97535 10.1828 8.75033 9.95792C8.52532 9.73304 8.39872 9.42807 8.39834 9.10995H8.39907ZM11.7987 13.1093C11.1789 13.0599 10.5858 12.8359 10.088 12.4633C9.59032 12.0906 9.20836 11.5846 8.98642 11.0037C9.18359 11.0711 9.39019 11.1067 9.59852 11.1093C9.91326 11.1105 10.2238 11.0373 10.505 10.8959C10.7861 10.7544 11.0299 10.5486 11.2166 10.2951C11.4032 10.0417 11.5274 9.7478 11.579 9.43732C11.6306 9.12684 11.6082 8.80857 11.5137 8.50837C11.4191 8.20817 11.2551 7.93452 11.0348 7.70967C10.8146 7.48483 10.5444 7.31514 10.2462 7.2144C9.94802 7.11366 9.63027 7.08471 9.31879 7.12991C9.00731 7.17512 8.7109 7.29319 8.45365 7.47453C8.73605 5.22556 10.1276 3.51081 11.8016 3.51081C12.1789 3.52032 12.5503 3.60668 12.8931 3.76461C13.2358 3.92254 13.5428 4.14872 13.7951 4.42933C14.7311 5.50245 15.2326 6.88645 15.2013 8.31007C15.1977 10.9572 13.6729 13.1093 11.798 13.1093H11.7987Z" fill="#6C778B"/>
</svg>
