<svg width="69" height="69" viewBox="0 0 69 69" fill="none" xmlns="http://www.w3.org/2000/svg">
<circle cx="34.5088" cy="34.7852" r="33.5" fill="white" stroke="#C6C4F4"/>
<g clip-path="url(#clip0_1921_159380)">
<path d="M34.5087 43.5674L41.4253 47.7508C42.692 48.5175 44.242 47.3841 43.9087 45.9508L42.0753 38.0841L48.192 32.7841C49.3087 31.8174 48.7087 29.9841 47.242 29.8674L39.192 29.1841L36.042 21.7508C35.4753 20.4008 33.542 20.4008 32.9753 21.7508L29.8253 29.1674L21.7753 29.8508C20.3087 29.9674 19.7087 31.8008 20.8253 32.7674L26.942 38.0674L25.1087 45.9341C24.7753 47.3674 26.3253 48.5008 27.592 47.7341L34.5087 43.5674Z" fill="#FFA726"/>
</g>
<defs>
<clipPath id="clip0_1921_159380">
<rect width="40" height="40" fill="white" transform="translate(14.5088 14.7852)"/>
</clipPath>
</defs>
</svg>
