<svg width="24" height="25" viewBox="0 0 24 25" fill="none" xmlns="http://www.w3.org/2000/svg">
<path fill-rule="evenodd" clip-rule="evenodd" d="M3.5 20.2186V10.6845C3.5 10.1021 3.7538 9.54873 4.1951 9.16879L10.961 3.34371C11.7119 2.6972 12.823 2.69802 13.573 3.34563L20.3169 9.16893C20.7568 9.54885 21.0097 10.1014 21.0097 10.6827V20.2186C21.0097 21.3232 20.1143 22.2186 19.0097 22.2186H14.7292C14.3909 22.2186 14.058 22.1327 13.7619 21.9691L13.2157 21.6673C12.6102 21.3326 11.8747 21.3347 11.2711 21.6727L10.7517 21.9636C10.4531 22.1308 10.1167 22.2186 9.7745 22.2186H5.5C4.39543 22.2186 3.5 21.3232 3.5 20.2186ZM11.7228 18.969L12.2419 19.443L12.761 18.9726L12.7751 18.9597C14.6108 17.2865 15.8217 16.1828 15.8217 14.829C15.8217 13.7231 14.9554 12.8541 13.8528 12.8541C13.2299 12.8541 12.6321 13.145 12.2419 13.6046C11.8517 13.145 11.2539 12.8541 10.631 12.8541C9.52843 12.8541 8.66212 13.7231 8.66212 14.829C8.66212 16.1851 9.87725 17.2904 11.7183 18.9649L11.7228 18.969Z" fill="url(#paint0_linear_1277_54075)"/>
<defs>
<linearGradient id="paint0_linear_1277_54075" x1="21.0097" y1="22.2186" x2="3.21766" y2="21.9555" gradientUnits="userSpaceOnUse">
<stop stop-color="#B83AF3"/>
<stop offset="0.98" stop-color="#5E50FB"/>
</linearGradient>
</defs>
</svg>
