<svg width="24" height="24" viewBox="0 0 24 24" fill="none" xmlns="http://www.w3.org/2000/svg">
<path fill-rule="evenodd" clip-rule="evenodd" d="M17.5614 20.9999C17.4034 20.9999 17.2444 20.9629 17.0984 20.8869L11.9994 18.2229L6.90138 20.8869C6.56338 21.0619 6.15538 21.0319 5.84938 20.8079C5.54138 20.5839 5.38838 20.2049 5.45338 19.8299L6.42438 14.2019L2.30438 10.2169C2.03038 9.95192 1.93138 9.55392 2.04838 9.18992C2.16538 8.82792 2.47838 8.56292 2.85638 8.50892L8.55638 7.68092L11.1044 2.55492C11.4424 1.87492 12.5574 1.87492 12.8954 2.55492L15.4434 7.68092L21.1434 8.50892C21.5214 8.56292 21.8344 8.82792 21.9514 9.18992C22.0684 9.55392 21.9694 9.95192 21.6954 10.2169L17.5754 14.2019L18.5464 19.8299C18.6114 20.2049 18.4574 20.5839 18.1504 20.8079C17.9764 20.9359 17.7694 20.9999 17.5614 20.9999Z" fill="white"/>
<mask id="mask0_2481_52760" style="mask-type:luminance" maskUnits="userSpaceOnUse" x="2" y="2" width="20" height="19">
<path fill-rule="evenodd" clip-rule="evenodd" d="M17.5614 20.9999C17.4034 20.9999 17.2444 20.9629 17.0984 20.8869L11.9994 18.2229L6.90138 20.8869C6.56338 21.0619 6.15538 21.0319 5.84938 20.8079C5.54138 20.5839 5.38838 20.2049 5.45338 19.8299L6.42438 14.2019L2.30438 10.2169C2.03038 9.95192 1.93138 9.55392 2.04838 9.18992C2.16538 8.82792 2.47838 8.56292 2.85638 8.50892L8.55638 7.68092L11.1044 2.55492C11.4424 1.87492 12.5574 1.87492 12.8954 2.55492L15.4434 7.68092L21.1434 8.50892C21.5214 8.56292 21.8344 8.82792 21.9514 9.18992C22.0684 9.55392 21.9694 9.95192 21.6954 10.2169L17.5754 14.2019L18.5464 19.8299C18.6114 20.2049 18.4574 20.5839 18.1504 20.8079C17.9764 20.9359 17.7694 20.9999 17.5614 20.9999Z" fill="white"/>
</mask>
<g mask="url(#mask0_2481_52760)">
</g>
</svg>
