<svg width="9" height="11" viewBox="0 0 9 11" fill="none" xmlns="http://www.w3.org/2000/svg">
<path d="M5.313 6.438H3.438C2.52636 6.438 1.65204 6.80008 1.00732 7.44461C0.362599 8.08915 0.000265166 8.96336 0 9.875C0 10.0408 0.065848 10.1997 0.183058 10.3169C0.300269 10.4342 0.45924 10.5 0.625 10.5H8.125C8.29076 10.5 8.44973 10.4342 8.56694 10.3169C8.68415 10.1997 8.75 10.0408 8.75 9.875C8.74973 8.96353 8.38754 8.08947 7.74303 7.44497C7.09853 6.80046 6.22447 6.43826 5.313 6.438ZM0.957 9.563C1.03302 8.95866 1.32705 8.40286 1.78388 7.99999C2.2407 7.59711 2.8289 7.37487 3.438 7.375H5.313C5.92193 7.37511 6.50988 7.59746 6.9665 8.00032C7.42312 8.40317 7.71701 8.95883 7.793 9.563H0.957ZM4.375 5.5C5.03804 5.5 5.67393 5.23661 6.14277 4.76777C6.61161 4.29893 6.875 3.66304 6.875 3C6.875 2.33696 6.61161 1.70107 6.14277 1.23223C5.67393 0.763392 5.03804 0.5 4.375 0.5C3.71196 0.5 3.07607 0.763392 2.60723 1.23223C2.13839 1.70107 1.875 2.33696 1.875 3C1.875 3.66304 2.13839 4.29893 2.60723 4.76777C3.07607 5.23661 3.71196 5.5 4.375 5.5ZM4.375 1.438C4.78928 1.43826 5.18653 1.60289 5.47956 1.89573C5.7726 2.18858 5.93747 2.58572 5.938 3C5.93773 3.41445 5.77298 3.81185 5.47992 4.10492C5.18685 4.39798 4.78945 4.56274 4.375 4.563C3.96055 4.56274 3.56315 4.39798 3.27008 4.10492C2.97702 3.81185 2.81226 3.41445 2.812 3C2.81253 2.58572 2.9774 2.18858 3.27044 1.89573C3.56347 1.60289 3.96072 1.43826 4.375 1.438Z" fill="#283754"/>
</svg>
