<svg width="24" height="24" viewBox="0 0 24 24" fill="none" xmlns="http://www.w3.org/2000/svg">
<g clip-path="url(#clip0_1277_54245)">
<g clip-path="url(#clip1_1277_54245)">
<path d="M13.0003 1L22.9153 5.5H24.2503C24.4492 5.5 24.6399 5.57902 24.7806 5.71967C24.9212 5.86032 25.0003 6.05109 25.0003 6.25V9.25C25.0003 9.44891 24.9212 9.63968 24.7806 9.78033C24.6399 9.92098 24.4492 10 24.2503 10H23.5003V20.5C23.6678 20.5001 23.8304 20.5563 23.9622 20.6596C24.0941 20.7629 24.1876 20.9074 24.2278 21.07L24.9778 24.07C25.0057 24.1805 25.008 24.2959 24.9844 24.4074C24.9609 24.5189 24.9121 24.6235 24.8419 24.7133C24.7717 24.803 24.6819 24.8755 24.5793 24.9252C24.4768 24.9749 24.3642 25.0005 24.2503 25H1.75026C1.63631 25.0005 1.52375 24.9749 1.42121 24.9252C1.31866 24.8755 1.22885 24.803 1.15863 24.7133C1.08842 24.6235 1.03968 24.5189 1.01613 24.4074C0.992576 24.2959 0.994847 24.1805 1.02276 24.07L1.77276 21.07C1.8132 20.9075 1.90674 20.7632 2.03853 20.6599C2.17033 20.5567 2.33283 20.5004 2.50026 20.5V10H1.75026C1.55135 10 1.36059 9.92098 1.21993 9.78033C1.07928 9.63968 1.00026 9.44891 1.00026 9.25V6.25C1.00026 6.05109 1.07928 5.86032 1.21993 5.71967C1.36059 5.57902 1.55135 5.5 1.75026 5.5H3.08526L13.0003 1ZM6.66576 5.5H19.3363L13.0003 2.5L6.66576 5.5ZM4.00026 10V20.5H5.50026V10H4.00026ZM7.00026 10V20.5H10.7503V10H7.00026ZM12.2503 10V20.5H13.7503V10H12.2503ZM15.2503 10V20.5H19.0003V10H15.2503ZM20.5003 10V20.5H22.0003V10H20.5003ZM23.5003 8.5V7H2.50026V8.5H23.5003ZM22.9153 22H3.08526L2.71026 23.5H23.2903L22.9153 22V22Z" fill="black"/>
</g>
</g>
<defs>
<clipPath id="clip0_1277_54245">
<rect width="24" height="24" fill="white"/>
</clipPath>
<clipPath id="clip1_1277_54245">
<rect width="24" height="24" fill="white" transform="translate(1 1)"/>
</clipPath>
</defs>
</svg>
