<svg width="28" height="28" viewBox="0 0 28 28" fill="none" xmlns="http://www.w3.org/2000/svg">
<g filter="url(#filter0_d_1318_60502)">
<path fill-rule="evenodd" clip-rule="evenodd" d="M14 6C9.589 6 6 9.589 6 14C6 18.411 9.589 22 14 22C18.411 22 22 18.411 22 14C22 9.589 18.411 6 14 6ZM14 24C8.486 24 4 19.514 4 14C4 8.486 8.486 4 14 4C19.514 4 24 8.486 24 14C24 19.514 19.514 24 14 24Z" fill="white"/>
<mask id="mask0_1318_60502" style="mask-type:luminance" maskUnits="userSpaceOnUse" x="4" y="4" width="20" height="20">
<path fill-rule="evenodd" clip-rule="evenodd" d="M14 6C9.589 6 6 9.589 6 14C6 18.411 9.589 22 14 22C18.411 22 22 18.411 22 14C22 9.589 18.411 6 14 6ZM14 24C8.486 24 4 19.514 4 14C4 8.486 8.486 4 14 4C19.514 4 24 8.486 24 14C24 19.514 19.514 24 14 24Z" fill="white"/>
</mask>
<g mask="url(#mask0_1318_60502)">
<rect x="2" y="2" width="24" height="24" fill="white"/>
</g>
</g>
<defs>
<filter id="filter0_d_1318_60502" x="-2" y="-2" width="32" height="32" filterUnits="userSpaceOnUse" color-interpolation-filters="sRGB">
<feFlood flood-opacity="0" result="BackgroundImageFix"/>
<feColorMatrix in="SourceAlpha" type="matrix" values="0 0 0 0 0 0 0 0 0 0 0 0 0 0 0 0 0 0 127 0" result="hardAlpha"/>
<feOffset/>
<feGaussianBlur stdDeviation="2"/>
<feComposite in2="hardAlpha" operator="out"/>
<feColorMatrix type="matrix" values="0 0 0 0 0 0 0 0 0 0 0 0 0 0 0 0 0 0 0.12 0"/>
<feBlend mode="normal" in2="BackgroundImageFix" result="effect1_dropShadow_1318_60502"/>
<feBlend mode="normal" in="SourceGraphic" in2="effect1_dropShadow_1318_60502" result="shape"/>
</filter>
</defs>
</svg>
