<svg width="33" height="32" viewBox="0 0 33 32" fill="none" xmlns="http://www.w3.org/2000/svg">
<g clip-path="url(#clip0_2233_91776)">
<path d="M3.17039 16.0122C3.15473 14.0928 3.53057 12.2568 4.3501 10.5252C6.20841 6.582 9.25688 4.02103 13.5112 3.04046C17.6349 2.09118 21.4351 2.96222 24.7706 5.58578C27.3754 7.63038 28.9675 10.3217 29.5991 13.566C29.6878 14.0302 29.7609 14.5048 29.7766 14.9795C29.7766 15.0473 29.7661 15.1203 29.8236 15.1777C29.8236 15.4541 29.8236 15.7305 29.8236 16.0122C29.5312 16.153 29.2285 16.0956 28.9257 16.0591C28.7691 15.96 28.7691 15.7983 28.7691 15.6471C28.743 13.9989 28.3098 12.4446 27.626 10.9528C27.5059 10.6921 27.365 10.4469 27.2031 10.2122C26.8691 9.78972 26.6237 9.30987 26.2896 8.88739C26.2009 8.77264 26.1174 8.64746 26.0182 8.54314C25.0577 7.34351 23.9093 6.36815 22.5782 5.60142C21.1167 4.76168 19.5454 4.23488 17.8646 4.05754C17.3583 4.00538 16.8467 3.94279 16.3352 3.95844C14.0906 4.03668 11.9869 4.59999 10.0712 5.79441C9.19946 6.33685 8.4008 6.97318 7.68045 7.70861C7.37247 8.02678 7.09059 8.3658 6.82437 8.72048C6.18753 9.49764 5.69686 10.3635 5.29492 11.2762C4.7938 12.4341 4.45972 13.639 4.37098 14.9064C4.34488 15.2507 4.39708 15.6001 4.36054 15.9444C4.34488 16.1322 4.4806 16.1478 4.61632 16.1478C4.99738 16.153 5.37844 16.1478 5.7595 16.1478C6.16665 16.1478 6.16665 16.1478 6.32325 16.5338C6.34413 16.5807 6.38589 16.6172 6.40677 16.6642C6.51117 17.2431 6.56337 17.8325 6.70431 18.401C7.11669 20.0492 7.88403 21.5044 9.03764 22.7562C9.11594 22.8397 9.19946 22.9127 9.25166 23.017C9.2882 23.09 9.36128 23.1683 9.24644 23.2361C9.00632 23.2987 8.7662 23.2674 8.52086 23.2674C8.0093 23.2726 7.49775 23.257 6.99141 23.2726C6.68343 23.283 6.43287 23.1891 6.23451 22.9597C5.99962 22.7771 5.87956 22.5111 5.74384 22.2659C5.14876 21.1863 4.67896 20.0544 4.41796 18.8444C4.25615 18.0255 4.13609 17.1962 4.12043 16.3564C4.11521 16.1582 4.04213 16.0852 3.84377 16.08C3.61931 16.08 3.38441 16.153 3.17039 16.0122Z" fill="#F2D746"/>
<path d="M29.8232 16.9525C29.7554 17.4219 29.6979 17.8913 29.6196 18.3555C29.2438 20.5305 28.3668 22.4812 27.0044 24.2129C25.12 26.607 22.698 28.1821 19.7487 28.9436C19.0596 29.121 18.3654 29.2409 17.6555 29.2879C17.598 29.2931 17.5302 29.2827 17.4884 29.3348C16.8307 29.3348 16.1678 29.3348 15.5101 29.3348C15.1708 29.2357 14.8106 29.2409 14.4661 29.1888C11.7934 28.7663 9.46011 27.6449 7.4713 25.8142C5.39375 23.8999 4.05222 21.5528 3.45192 18.7937C3.25356 17.8809 3.1335 16.9525 3.17526 16.0136C3.44148 16.0136 3.71292 16.0241 3.97914 16.0084C4.16706 15.998 4.20882 16.071 4.20882 16.2484C4.20882 17.135 4.34454 18.0113 4.5168 18.8771C4.49592 19.1953 4.61598 19.4874 4.70472 19.7742C5.25281 21.5893 6.12455 23.2271 7.39822 24.6458C9.41835 26.899 11.9292 28.2395 14.9202 28.6724C17.3057 29.0167 19.5816 28.5942 21.7479 27.5667C23.1103 26.9199 24.3109 26.0436 25.3445 24.9483C26.9105 23.2845 27.9545 21.3338 28.4504 19.0962C28.4765 18.9814 28.4504 18.8719 28.4451 18.7572C28.6017 17.9174 28.6696 17.062 28.7218 16.2118C28.727 16.1127 28.7009 15.9615 28.8941 16.0032C29.2073 16.0032 29.5205 16.0032 29.8337 16.0032C29.8232 16.3266 29.8232 16.6395 29.8232 16.9525Z" fill="#E9AC28"/>
<path d="M6.22769 22.8831C6.53567 23.243 6.94805 23.2065 7.36043 23.1961C8.0077 23.1856 8.65498 23.1908 9.30748 23.1908C9.42232 23.1648 9.47974 23.2534 9.5476 23.316C11.1606 24.7921 13.0398 25.7205 15.2165 25.9813C18.1136 26.3255 20.7079 25.5692 22.9681 23.7124C23.2761 23.4621 23.558 23.1752 23.8608 22.9196C24.1792 22.711 24.5341 22.6849 24.9048 22.6953C25.5364 22.7058 26.168 22.7058 26.7996 22.6797C26.9666 22.784 26.8466 22.8935 26.7892 22.9874C26.4707 23.4934 26.1001 23.968 25.6982 24.4061C24.602 25.611 23.3335 26.5915 21.8563 27.2957C20.4834 27.9477 19.0375 28.3441 17.5133 28.4692C15.1434 28.6674 12.904 28.2137 10.7952 27.1288C8.95774 26.1847 7.45961 24.839 6.28511 23.1387C6.23813 23.0657 6.15983 22.9926 6.22769 22.8831Z" fill="#EFCB38"/>
<path d="M6.80405 8.67394C7.17467 8.10542 7.64446 7.62035 8.14558 7.16657C8.57362 6.7806 9.02776 6.42071 9.50277 6.09212C10.3119 5.53402 11.1732 5.08025 12.0867 4.72036C13.0732 4.33439 14.0963 4.11011 15.1456 3.97971C17.1083 3.73978 19.0031 4.01622 20.8406 4.68906C22.015 5.12197 23.1008 5.73744 24.0822 6.51981C24.8182 7.1092 25.5124 7.74553 26.071 8.51747C26.144 8.63743 26.2119 8.7574 26.2954 8.86693C26.3633 8.95038 26.4155 9.03905 26.3633 9.14858C26.3111 9.26333 26.1962 9.26855 26.0971 9.26855C25.3871 9.2529 24.6772 9.33635 23.9778 9.19553C23.6854 9.06513 23.5027 8.79912 23.2783 8.59049C21.8062 7.25524 20.0993 6.39985 18.1314 6.09733C15.1038 5.63312 12.3842 6.36855 10.0143 8.31405C9.73245 8.54355 9.46101 8.78348 9.21568 9.0547C9.15826 9.1225 9.09562 9.17988 8.99644 9.18509C8.29696 9.2529 7.59226 9.21639 6.89279 9.21117C6.58481 9.21117 6.53261 9.08599 6.70487 8.8252C6.74141 8.77826 6.77273 8.7261 6.80405 8.67394Z" fill="#F9EC65"/>
<path d="M23.8362 22.9848C23.1889 23.668 22.4633 24.2418 21.6594 24.7216C20.605 25.3475 19.4775 25.7596 18.2769 25.9786C17.8019 26.0673 17.3216 26.0882 16.8362 26.1142C15.5312 26.1716 14.2784 25.9682 13.0569 25.5353C11.9137 25.1285 10.8854 24.5182 9.94581 23.7567C9.72135 23.5794 9.54388 23.3551 9.3142 23.1882C8.9488 22.6979 8.5051 22.2754 8.16058 21.7643C7.54463 20.8567 7.06961 19.8866 6.76163 18.8382C6.55805 18.1341 6.42233 17.4195 6.39101 16.6841C6.28139 16.4598 6.27617 16.2355 6.37535 16.0112C6.61547 15.8756 6.87125 15.9278 7.12181 15.9591C7.23665 16.0164 7.23143 16.126 7.23665 16.2303C7.26275 17.5238 7.54985 18.7599 8.09794 19.9283C8.64604 21.0966 9.40816 22.1033 10.3791 22.9587C11.5222 23.9653 12.8325 24.6538 14.3097 25.0033C16.3037 25.4779 18.256 25.3214 20.1404 24.513C22.1449 23.6524 23.6535 22.2441 24.6818 20.3299C25.2456 19.2815 25.5848 18.1549 25.6945 16.9657C25.7153 16.7153 25.7467 16.465 25.7467 16.2146C25.7467 16.1207 25.7467 16.0216 25.8511 15.9643C26.1016 15.9173 26.3522 15.8912 26.5975 15.9851C26.7228 16.1677 26.6445 16.3763 26.6706 16.5745C26.5923 18.1184 26.1747 19.5684 25.4283 20.9245C25.1203 21.4878 24.7601 22.0146 24.3477 22.5101C24.1963 22.6927 24.0345 22.8596 23.8362 22.9848Z" fill="#F9EF6B"/>
<path d="M23.834 22.9846C24.2986 22.4682 24.7318 21.9362 25.0972 21.3468C25.8176 20.1837 26.2874 18.9371 26.4909 17.5862C26.5379 17.2733 26.5953 16.9603 26.5953 16.6369C26.6371 16.5796 26.6423 16.5118 26.6475 16.4387C26.6684 16.1206 26.7363 16.0528 27.0599 16.0423C27.441 16.0371 27.822 16.0423 28.2031 16.0371C28.5111 16.0371 28.5163 16.0267 28.5581 15.7242C28.652 15.0513 28.5633 14.3941 28.438 13.7369C28.224 12.6051 27.8377 11.5307 27.3 10.5136C27.2374 10.3988 27.133 10.2841 27.2113 10.1328C27.5193 10.4927 27.6811 10.9308 27.869 11.3533C28.3284 12.3808 28.5894 13.4657 28.7616 14.5767C28.8034 14.8218 28.8086 15.0722 28.8191 15.3225C28.8295 15.552 28.8086 15.7868 28.8713 16.0163C28.7982 16.0267 28.7721 16.0684 28.7669 16.1414C28.7355 16.6265 28.699 17.1116 28.6625 17.5966C28.6311 18.0139 28.5581 18.426 28.4589 18.8328C28.4745 19.1822 28.3388 19.5056 28.2449 19.8342C27.9839 20.7731 27.5819 21.6493 27.0808 22.4839C27.0182 22.583 26.9712 22.7029 26.8355 22.7342C26.1569 22.8385 25.4678 22.7916 24.7892 22.7759C24.4499 22.7603 24.1472 22.8594 23.834 22.9846Z" fill="#F3D748"/>
<path d="M6.38355 16.0131C6.38355 16.2374 6.38355 16.4617 6.38355 16.6912C6.28437 16.639 6.21652 16.566 6.22696 16.446C6.24261 16.2478 6.12256 16.2218 5.96074 16.2218C5.49094 16.227 5.02636 16.227 4.55656 16.2218C4.29035 16.2218 4.26947 16.1696 4.28513 15.8984C4.30601 15.5698 4.28513 15.2412 4.29557 14.9178C4.31645 14.1615 4.4887 13.4365 4.6975 12.7115C5.10466 11.2928 5.7676 10.0045 6.64455 8.82051C6.68631 8.76836 6.74373 8.72663 6.79071 8.67969C6.79071 8.74228 6.79071 8.79965 6.74895 8.85181C6.68631 8.91961 6.59757 8.99264 6.66021 9.09695C6.71763 9.19605 6.83247 9.14911 6.92121 9.14911C7.59459 9.13346 8.26274 9.19605 8.93612 9.11782C8.96744 9.1126 8.99876 9.13868 9.03008 9.14911C9.0614 9.25343 8.9831 9.3108 8.9309 9.37339C7.64157 10.8443 6.85857 12.5655 6.53493 14.5005C6.48273 14.8187 6.45663 15.1369 6.43575 15.455C6.32613 15.6219 6.39921 15.7993 6.39399 15.9766C6.38877 15.9923 6.38877 16.0027 6.38355 16.0131Z" fill="#F5E156"/>
<path d="M27.2156 10.1351C27.4244 10.5837 27.6385 11.0218 27.8316 11.4756C28.2127 12.3727 28.4841 13.3116 28.6094 14.2817C28.6772 14.8346 28.7294 15.3927 28.625 15.956C28.5937 16.1124 28.505 16.1229 28.3849 16.1229C27.9621 16.1229 27.5341 16.1229 27.1112 16.1229C26.7458 16.1229 26.7406 16.1229 26.6936 16.4776C26.6832 16.5506 26.6571 16.6079 26.5892 16.6445C26.5892 16.4358 26.5892 16.2272 26.5892 16.0186C26.5057 15.9247 26.5214 15.8099 26.5214 15.6952C26.4535 13.4054 25.6862 11.3817 24.235 9.60833C24.1202 9.4675 23.9427 9.35797 23.9375 9.14412C24.1985 9.10239 24.4386 9.21714 24.6996 9.20671C25.1746 9.18063 25.6497 9.20149 26.1247 9.19628C26.1977 9.19628 26.2917 9.22236 26.323 9.12326C26.3439 9.04502 26.3335 8.972 26.2708 8.90941C26.1664 8.79988 26.0986 8.6747 26.0725 8.52344C26.4483 8.93027 26.725 9.40491 27.0277 9.8639C27.0904 9.95257 27.153 10.0412 27.2156 10.1351Z" fill="#F5E156"/>
<path d="M26.852 22.7243C27.6455 21.5299 28.1727 20.226 28.4754 18.8281C28.5537 18.9064 28.5328 19.0107 28.512 19.0993C28.0683 21.024 27.2487 22.7608 25.9959 24.2995C24.7797 25.7965 23.292 26.9387 21.5485 27.7472C20.4993 28.2322 19.4031 28.5556 18.2599 28.7225C17.5918 28.8164 16.9236 28.8999 16.2503 28.8686C14.7887 28.8112 13.3793 28.5295 12.0169 27.9871C10.7745 27.4916 9.65221 26.8083 8.62387 25.9634C7.84088 25.3166 7.16228 24.5655 6.56721 23.7466C5.78943 22.6774 5.19957 21.5038 4.79241 20.2468C4.66714 19.8556 4.5784 19.4488 4.47922 19.0472C4.46356 18.9846 4.45834 18.9272 4.51576 18.8803C4.83417 20.3251 5.40315 21.6603 6.23313 22.886C6.43671 23.3033 6.72902 23.6528 7.02134 24.0022C7.82 24.9515 8.73349 25.7808 9.77749 26.4589C11.2443 27.4186 12.8468 28.0236 14.5799 28.3053C15.4307 28.4461 16.2816 28.4982 17.1376 28.4461C18.6201 28.3574 20.0504 28.0288 21.418 27.429C22.4307 26.9857 23.3703 26.4223 24.2264 25.7286C25.2495 24.8941 26.1317 23.924 26.8468 22.8026C26.852 22.7765 26.8468 22.7504 26.852 22.7243Z" fill="#D8992B"/>
<path d="M23.9406 9.14292C24.5722 9.87835 25.1516 10.6451 25.5692 11.5266C26.0807 12.601 26.4253 13.7172 26.5505 14.9064C26.5923 15.2767 26.5766 15.647 26.5923 16.0174C26.3313 16.0174 26.0703 16.0174 25.8093 16.0174C25.731 15.9443 25.7467 15.8452 25.7414 15.7514C25.6684 13.5764 24.9376 11.6517 23.5177 9.99832C21.9831 8.20929 20.036 7.14527 17.7079 6.84797C15.0248 6.50894 12.6132 7.19743 10.5304 8.93951C8.70346 10.4677 7.64902 12.4393 7.30972 14.7916C7.26796 15.089 7.22098 15.3915 7.23664 15.6992C7.24186 15.8087 7.26274 15.9287 7.16878 16.0174C6.90778 16.0174 6.64679 16.0174 6.38579 16.0174C6.35447 15.8452 6.30749 15.6731 6.38057 15.501C6.39623 14.2857 6.72509 13.1435 7.18444 12.0273C7.62292 10.9528 8.28064 10.0192 9.03753 9.14814C9.89883 8.23537 10.8854 7.48951 12.0129 6.93663C13.0621 6.42027 14.1635 6.09689 15.3276 5.97171C17.4573 5.74221 19.4723 6.11254 21.3567 7.14005C22.0561 7.52081 22.7086 7.96937 23.2933 8.52224C23.5125 8.72044 23.7422 8.91343 23.9406 9.14292Z" fill="#E6AB32"/>
<path d="M7.1705 16.0129C7.11308 10.9744 11.3517 6.44706 16.9632 6.69742C21.6716 6.90605 25.8267 10.8075 25.8162 16.0129C25.8476 21.1557 21.5985 25.3805 16.4046 25.3335C11.383 25.2918 7.1444 21.1765 7.1705 16.0129Z" fill="#F1C63A"/>
<path d="M6.38643 15.4883C6.38643 15.6605 6.39165 15.8328 6.39165 16.0051C6.33423 15.838 6.20895 15.6658 6.38643 15.4883Z" fill="#F2D746"/>
<g filter="url(#filter0_dd_2233_91776)">
<path d="M16.8386 10H12.501V21H14.646V17.3092H16.8148C19.1504 17.3092 20.501 15.7619 20.501 13.6667C20.501 11.6037 19.1663 10 16.8386 10ZM18.3163 13.6667C18.3163 15.1575 17.4186 15.6007 15.925 15.6007H14.638V11.7326H16.4255C17.6092 11.7326 18.3163 12.4337 18.3163 13.6667Z" fill="white"/>
</g>
</g>
<defs>
<filter id="filter0_dd_2233_91776" x="8.50098" y="7" width="16" height="19" filterUnits="userSpaceOnUse" color-interpolation-filters="sRGB">
<feFlood flood-opacity="0" result="BackgroundImageFix"/>
<feColorMatrix in="SourceAlpha" type="matrix" values="0 0 0 0 0 0 0 0 0 0 0 0 0 0 0 0 0 0 127 0" result="hardAlpha"/>
<feMorphology radius="1" operator="dilate" in="SourceAlpha" result="effect1_dropShadow_2233_91776"/>
<feOffset dy="1"/>
<feGaussianBlur stdDeviation="1.5"/>
<feColorMatrix type="matrix" values="0 0 0 0 0 0 0 0 0 0 0 0 0 0 0 0 0 0 0.15 0"/>
<feBlend mode="normal" in2="BackgroundImageFix" result="effect1_dropShadow_2233_91776"/>
<feColorMatrix in="SourceAlpha" type="matrix" values="0 0 0 0 0 0 0 0 0 0 0 0 0 0 0 0 0 0 127 0" result="hardAlpha"/>
<feOffset dy="1"/>
<feGaussianBlur stdDeviation="1"/>
<feColorMatrix type="matrix" values="0 0 0 0 0 0 0 0 0 0 0 0 0 0 0 0 0 0 0.3 0"/>
<feBlend mode="normal" in2="effect1_dropShadow_2233_91776" result="effect2_dropShadow_2233_91776"/>
<feBlend mode="normal" in="SourceGraphic" in2="effect2_dropShadow_2233_91776" result="shape"/>
</filter>
<clipPath id="clip0_2233_91776">
<rect width="32" height="32" fill="white" transform="translate(0.5)"/>
</clipPath>
</defs>
</svg>
