<svg width="24" height="25" viewBox="0 0 24 25" fill="none" xmlns="http://www.w3.org/2000/svg">
<path d="M22.9985 12.0385C23.0034 12.1433 22.9871 12.2479 22.9506 12.3462C22.9142 12.4444 22.8583 12.5344 22.7864 12.6106C22.7144 12.6869 22.6279 12.7478 22.5319 12.7899C22.4359 12.832 22.3324 12.8543 22.2275 12.8555H3.66054L10.5855 20.4746C10.6577 20.5539 10.7135 20.6466 10.7497 20.7475C10.786 20.8483 10.802 20.9554 10.7969 21.0624C10.7918 21.1695 10.7657 21.2745 10.72 21.3715C10.6742 21.4685 10.6099 21.5555 10.5305 21.6276C10.3782 21.7618 10.1825 21.8363 9.97954 21.8375C9.86636 21.8373 9.75449 21.8133 9.65114 21.7671C9.5478 21.721 9.45528 21.6537 9.37954 21.5695L1.21454 12.5875C1.07716 12.4373 1.00098 12.2411 1.00098 12.0375C1.00098 11.834 1.07716 11.6378 1.21454 11.4875L9.37954 2.50555C9.45177 2.42616 9.53892 2.36178 9.63603 2.31608C9.73314 2.27038 9.8383 2.24425 9.9455 2.23919C10.0527 2.23413 10.1599 2.25023 10.2608 2.28658C10.3618 2.32293 10.4547 2.37882 10.534 2.45104C10.6134 2.52327 10.6778 2.61043 10.7235 2.70754C10.7692 2.80464 10.7953 2.9098 10.8004 3.01701C10.8055 3.12421 10.7894 3.23136 10.753 3.33235C10.7167 3.43333 10.6608 3.52616 10.5885 3.60555L3.66454 11.2225H22.2275C22.3323 11.2238 22.4357 11.2461 22.5316 11.2881C22.6276 11.3301 22.7141 11.391 22.786 11.4671C22.8579 11.5432 22.9138 11.6331 22.9503 11.7312C22.9869 11.8294 23.0032 11.9339 22.9985 12.0385Z" fill="#283754"/>
</svg>
