<svg width="18" height="18" viewBox="0 0 18 18" fill="none" xmlns="http://www.w3.org/2000/svg">
<g clip-path="url(#clip0_1262_45547)">
<path d="M8.60579 5.5013C11.1325 5.5013 13.3858 6.9213 14.4858 9.16797C13.3858 11.4146 11.1325 12.8346 8.60579 12.8346C6.07913 12.8346 3.82579 11.4146 2.72579 9.16797C3.82579 6.9213 6.07913 5.5013 8.60579 5.5013ZM8.60579 4.16797C5.27246 4.16797 2.42579 6.2413 1.27246 9.16797C2.42579 12.0946 5.27246 14.168 8.60579 14.168C11.9391 14.168 14.7858 12.0946 15.9391 9.16797C14.7858 6.2413 11.9391 4.16797 8.60579 4.16797ZM8.60579 7.5013C9.52579 7.5013 10.2725 8.24797 10.2725 9.16797C10.2725 10.088 9.52579 10.8346 8.60579 10.8346C7.68579 10.8346 6.93913 10.088 6.93913 9.16797C6.93913 8.24797 7.68579 7.5013 8.60579 7.5013ZM8.60579 6.16797C6.95246 6.16797 5.60579 7.51464 5.60579 9.16797C5.60579 10.8213 6.95246 12.168 8.60579 12.168C10.2591 12.168 11.6058 10.8213 11.6058 9.16797C11.6058 7.51464 10.2591 6.16797 8.60579 6.16797Z" fill="#7778E5"/>
</g>
<defs>
<clipPath id="clip0_1262_45547">
<rect width="16" height="16" fill="white" transform="translate(0.605469 1.5)"/>
</clipPath>
</defs>
</svg>
