<svg width="24" height="24" viewBox="0 0 24 24" fill="none" xmlns="http://www.w3.org/2000/svg">
<path d="M22.9976 12.0014C23.0024 12.1061 22.9861 12.2108 22.9497 12.3091C22.9132 12.4073 22.8574 12.4973 22.7854 12.5735C22.7135 12.6498 22.6269 12.7107 22.5309 12.7528C22.4349 12.7949 22.3314 12.8172 22.2266 12.8184H3.65956L10.5846 20.4374C10.6567 20.5167 10.7125 20.6095 10.7487 20.7104C10.785 20.8112 10.8011 20.9183 10.7959 21.0253C10.7908 21.1324 10.7647 21.2374 10.719 21.3344C10.6733 21.4314 10.6089 21.5184 10.5296 21.5904C10.3773 21.7246 10.1816 21.7992 9.97857 21.8004C9.86538 21.8002 9.75351 21.7762 9.65017 21.73C9.54682 21.6839 9.4543 21.6165 9.37856 21.5324L1.21356 12.5504C1.07618 12.4002 1 12.204 1 12.0004C1 11.7969 1.07618 11.6007 1.21356 11.4504L9.37856 2.46844C9.45079 2.38905 9.53795 2.32467 9.63506 2.27897C9.73216 2.23327 9.83732 2.20714 9.94453 2.20208C10.0517 2.19702 10.1589 2.21312 10.2599 2.24947C10.3608 2.28582 10.4537 2.34171 10.5331 2.41393C10.6124 2.48616 10.6768 2.57332 10.7225 2.67043C10.7682 2.76753 10.7944 2.87269 10.7994 2.9799C10.8045 3.0871 10.7884 3.19425 10.752 3.29524C10.7157 3.39622 10.6598 3.48905 10.5876 3.56844L3.66356 11.1854H22.2266C22.3313 11.1867 22.4347 11.209 22.5306 11.251C22.6266 11.293 22.7131 11.3539 22.785 11.43C22.857 11.5061 22.9129 11.596 22.9494 11.6941C22.9859 11.7923 23.0023 11.8968 22.9976 12.0014Z" fill="white"/>
</svg>
