<svg width="99" height="98" viewBox="0 0 99 98" fill="none" xmlns="http://www.w3.org/2000/svg">
<path fill-rule="evenodd" clip-rule="evenodd" d="M54.483 81.3758C54.7215 81.2943 54.6966 80.2467 54.4443 79.7376C54.3299 79.507 54.0214 79.1452 53.7589 78.9337C53.4964 78.7223 53.2015 78.4757 53.1034 78.3857C53.0054 78.2958 52.7503 78.18 52.5366 78.1286C52.3229 78.0771 52.0626 77.9669 51.9582 77.8837C51.8407 77.7902 51.1191 77.735 50.0631 77.7391C48.7195 77.7443 48.2718 77.7947 47.9518 77.9765C47.7284 78.1032 47.5009 78.2074 47.4462 78.208C47.107 78.2108 45.9996 79.0894 45.7746 79.5341C45.6319 79.8163 45.4696 80.0675 45.4137 80.0924C45.2334 80.173 45.306 81.0816 45.509 81.2858C45.6813 81.4592 45.8041 81.4336 46.4904 81.0809C47.7804 80.4183 48.177 80.2873 49.17 80.1962C50.9341 80.0344 52.1626 80.3159 54.1107 81.3283C54.2224 81.3863 54.3898 81.4077 54.483 81.3758Z" fill="#CAD9DA"/>
<path fill-rule="evenodd" clip-rule="evenodd" d="M24.5917 7.02852C24.5523 7.06896 24.0954 7.16823 23.5765 7.24884C22.6592 7.39141 21.8774 7.68908 21.5085 8.03619C21.409 8.12987 21.2679 8.2064 21.195 8.2064C20.9875 8.2064 20.1314 9.19323 20.0432 9.53407C19.9997 9.70251 19.9178 9.84045 19.8612 9.84045C19.6864 9.84045 19.4125 11.2275 19.4173 12.0873C19.4229 13.0462 19.6989 15.0233 19.8546 15.2192C19.914 15.2941 20.007 15.6311 20.061 15.9682C20.115 16.3052 20.2078 16.6422 20.2673 16.7171C20.3268 16.792 20.4447 17.1903 20.5293 17.6022C20.9911 19.8492 21.0866 20.3108 21.2052 20.8703C21.2767 21.2073 21.3377 21.8012 21.341 22.19C21.3442 22.5787 21.4024 22.9313 21.4702 22.9735C21.5379 23.0156 21.6366 23.586 21.6892 24.2411C21.742 24.8961 21.8321 25.4933 21.8894 25.5682C21.9467 25.6431 22.0369 26.0875 22.0896 26.5557C22.1424 27.0239 22.2364 27.4385 22.2982 27.4771C22.3602 27.5155 22.4525 27.883 22.5036 28.2938C22.5546 28.7045 22.6449 29.0406 22.7042 29.0406C22.7636 29.0406 22.8554 29.301 22.9083 29.6193C22.9611 29.9377 23.0426 30.2287 23.0893 30.2661C23.1361 30.3036 23.3244 30.7784 23.5078 31.3215C23.6912 31.8645 23.8891 32.3087 23.9478 32.3087C24.0062 32.3087 24.0562 32.3854 24.0588 32.4789C24.0613 32.5726 24.181 32.8942 24.3249 33.1938C24.4688 33.4934 24.5884 33.81 24.591 33.8974C24.5936 33.9847 24.6413 34.0766 24.6971 34.1017C24.753 34.1266 24.9509 34.4534 25.137 34.8279C25.3232 35.2023 25.5092 35.5394 25.5503 35.5768C25.5915 35.6143 25.7723 35.89 25.9521 36.1896C26.2882 36.7495 26.3089 36.7788 26.764 37.3338C26.9114 37.5139 27.0321 37.7014 27.0321 37.7505C27.0321 37.7998 27.201 38.0201 27.4075 38.2403C27.6139 38.4605 27.9424 38.8577 28.1375 39.1231L28.4921 39.6056L28.1966 39.8721C28.034 40.0186 27.576 40.5675 27.1788 41.0918C26.7815 41.616 26.4033 42.0654 26.3382 42.0903C26.2731 42.1154 26.2199 42.1943 26.2199 42.2661C26.2199 42.4187 25.6575 43.2497 25.5093 43.3158C25.4534 43.3409 25.4078 43.4121 25.4078 43.4742C25.4078 43.5363 25.1946 43.9128 24.934 44.3108C24.6734 44.7089 24.4602 45.1075 24.4602 45.1965C24.4602 45.2856 24.4145 45.3788 24.3587 45.4039C24.2277 45.4624 23.242 47.4668 23.242 47.6744C23.242 47.7613 23.1859 47.8322 23.1173 47.8322C23.0488 47.8322 22.9528 48.0154 22.904 48.2393C22.8551 48.463 22.7589 48.6811 22.6901 48.7239C22.6213 48.7665 22.5631 48.9051 22.5606 49.0318C22.558 49.1584 22.4383 49.5071 22.2944 49.8067C22.1506 50.1063 22.0309 50.455 22.0283 50.5817C22.0258 50.7083 21.9681 50.8465 21.9001 50.8887C21.8322 50.9311 21.7355 51.2101 21.6853 51.5089C21.6351 51.8076 21.5441 52.0831 21.4832 52.1211C21.4222 52.1589 21.3304 52.4962 21.2792 52.8706C21.2281 53.2449 21.1381 53.5811 21.0792 53.6177C21.0203 53.6542 20.9289 53.976 20.8761 54.3328C20.8233 54.6894 20.7326 55.0425 20.6746 55.1174C20.6164 55.1923 20.5249 55.56 20.471 55.9344C20.4171 56.3089 20.3333 56.6766 20.2847 56.7515C20.1 57.0366 19.5006 60.5504 19.2163 63.0153C18.9279 65.5176 18.9279 69.8262 19.2165 72.0026C19.4827 74.0107 19.6993 75.2042 19.8474 75.4802C19.9092 75.5955 20.0032 75.9475 20.056 76.2625C20.1089 76.5776 20.2026 76.8665 20.264 76.9048C20.3255 76.9431 20.417 77.2191 20.4672 77.5182C20.5174 77.8174 20.6141 78.0623 20.682 78.0623C20.75 78.0623 20.8055 78.1602 20.8055 78.2799C20.8055 78.3994 21.0643 79.0142 21.3808 79.6459C21.6972 80.2778 22.0161 80.9152 22.0896 81.0625C22.1631 81.2099 22.2698 81.3304 22.3265 81.3304C22.3834 81.3304 22.4298 81.3941 22.4298 81.472C22.4298 81.5937 22.9043 82.353 23.107 82.5559C23.1444 82.5933 23.3576 82.8978 23.5808 83.2327C24.0001 83.8618 27.0968 87.0496 27.2886 87.0496C27.3836 87.0496 27.591 87.2021 28.2108 87.7278C28.3007 87.8042 28.4334 87.8666 28.5057 87.8666C28.5779 87.8666 28.7176 87.9432 28.816 88.0368C29.0631 88.272 30.6729 89.0607 31.1268 89.1689C31.3315 89.2178 31.499 89.3124 31.499 89.3792C31.499 89.446 31.5964 89.5006 31.7155 89.5006C31.8345 89.5006 32.1239 89.5872 32.3584 89.6931C32.593 89.7989 33.2418 90.015 33.8002 90.1733C34.3586 90.3317 34.9981 90.5188 35.2215 90.5892C35.4448 90.6595 36.334 90.7907 37.1975 90.8807C39.0427 91.0731 40.0753 90.9291 40.7919 90.3792C41.1824 90.0796 41.2451 89.9503 41.2451 89.4444C41.2451 88.8951 41.1786 88.79 40.2127 87.8118C39.6448 87.2369 39.2058 86.7407 39.2371 86.7091C39.3328 86.613 39.8915 86.8009 39.8915 86.9293C39.8915 86.9954 39.9789 87.0496 40.0857 87.0496C40.1925 87.0496 40.4514 87.1213 40.661 87.2091C41.9638 87.7546 44.9482 88.4499 46.9979 88.6855C48.4429 88.8515 51.0604 88.8516 52.4801 88.6857C54.0503 88.5021 57.1524 87.8858 57.4336 87.7014C57.5153 87.6479 57.835 87.5635 58.1443 87.5138C58.4536 87.4639 58.7067 87.3769 58.7067 87.3204C58.7067 87.2638 58.8285 87.1855 58.9774 87.1462C59.3906 87.0376 59.3022 87.3096 58.7406 87.8753C58.0467 88.5741 57.9524 88.7059 57.8487 89.1213C57.5804 90.1967 58.7412 90.9479 60.7512 90.9991C61.4743 91.0176 63.4092 90.7565 63.7828 90.5903C63.9317 90.524 64.3276 90.4089 64.6626 90.3347C65.7568 90.0922 66.4824 89.885 66.9165 89.6911C67.1511 89.5863 67.4405 89.5006 67.5595 89.5006C67.6786 89.5006 67.776 89.4394 67.776 89.3645C67.776 89.2896 67.8522 89.228 67.9452 89.2276C68.1705 89.2268 69.8607 88.3494 70.5869 87.8564C71.2205 87.4262 71.2523 87.4011 72.0398 86.7124C72.3376 86.4519 72.6235 86.2374 72.6752 86.2357C72.8438 86.2301 74.4704 84.526 75.2263 83.5636C75.6319 83.0468 76.01 82.6036 76.0662 82.5786C76.1223 82.5536 76.1684 82.4746 76.1684 82.4028C76.1684 82.2776 76.6894 81.4705 76.8607 81.3304C76.9066 81.2929 76.991 81.1091 77.0482 80.9219C77.1055 80.7346 77.1899 80.5508 77.2358 80.5133C77.3667 80.4064 77.9281 79.2075 77.9281 79.0345C77.9281 78.9491 77.989 78.8793 78.0634 78.8793C78.1379 78.8793 78.1988 78.7814 78.1988 78.6615C78.1988 78.5419 78.2847 78.2507 78.3899 78.0147C78.6992 77.3204 79.1463 75.9039 79.1463 75.6187C79.1463 75.4736 79.2013 75.3207 79.2684 75.279C79.3354 75.2372 79.4303 74.82 79.4789 74.3519C79.5276 73.8836 79.621 73.378 79.6866 73.2282C79.8705 72.8077 80.1319 69.4656 80.1232 67.6452C80.1085 64.5518 79.7974 61.6749 79.085 58.0451C78.6945 56.0556 78.575 55.5235 78.472 55.3165C78.4146 55.2011 78.3228 54.8397 78.268 54.5132C78.2131 54.1868 78.0837 53.7162 77.9805 53.4675C77.8772 53.2189 77.7927 52.8604 77.7927 52.6707C77.7927 52.481 77.7356 52.3259 77.6656 52.3259C77.5958 52.3259 77.4975 52.0501 77.4473 51.7131C77.397 51.3761 77.3087 51.1003 77.251 51.1003C77.1932 51.1003 77.1066 50.8885 77.0582 50.6295C77.0099 50.3705 76.8817 49.9876 76.7733 49.7784C76.6649 49.5694 76.5758 49.2909 76.5753 49.1599C76.5749 49.0289 76.5184 48.9216 76.4498 48.9216C76.3813 48.9216 76.2842 48.7337 76.234 48.504C76.1839 48.2743 76.0576 47.9218 75.9534 47.721C75.8492 47.52 75.7636 47.2791 75.7631 47.1854C75.7627 47.0919 75.7062 47.0152 75.6376 47.0152C75.5691 47.0152 75.4729 46.8314 75.4239 46.6067C75.3749 46.382 75.2786 46.1982 75.2101 46.1982C75.1415 46.1982 75.0855 46.1301 75.0855 46.0469C75.0855 45.9637 74.7809 45.3884 74.4087 44.7684C74.0364 44.1484 73.7319 43.5782 73.7319 43.5012C73.7319 43.4242 73.6862 43.3409 73.6303 43.3158C73.5104 43.2622 72.9197 42.4321 72.9197 42.317C72.9197 42.2734 72.8577 42.1637 72.7818 42.0733C72.4677 41.6985 72.1632 41.3038 71.9722 41.0237C71.8605 40.8599 71.661 40.598 71.5289 40.4415C71.2949 40.1646 71.302 40.1428 71.7996 39.6167C72.703 38.6614 72.9454 38.3596 74.0033 36.8741C74.3751 36.352 74.6794 35.8464 74.6794 35.7507C74.6794 35.6551 74.7403 35.5768 74.8148 35.5768C74.8892 35.5768 74.9501 35.4893 74.9501 35.3822C74.9501 35.2753 75.0263 35.1068 75.1193 35.0078C75.3049 34.8106 75.986 33.4475 76.4344 32.3768C76.5911 32.0023 76.774 31.5963 76.8407 31.4744C76.9074 31.3525 77.0034 31.0309 77.054 30.7595C77.1047 30.4881 77.1932 30.2661 77.251 30.2661C77.3087 30.2661 77.397 29.9904 77.4473 29.6534C77.4975 29.3163 77.5826 29.0406 77.6365 29.0406C77.7304 29.0406 77.9056 28.3333 78.2096 26.7257C78.2876 26.3138 78.4043 25.8542 78.469 25.7044C78.5993 25.4028 78.8148 23.935 79.0188 21.9597C79.0922 21.2482 79.2082 20.5129 79.2765 20.3256C79.3449 20.1384 79.4417 19.6482 79.4918 19.2363C79.5417 18.8244 79.6292 18.4261 79.6859 18.3512C79.7426 18.2763 79.8306 17.9253 79.8816 17.5713C79.9325 17.2174 80.0235 16.897 80.0838 16.8594C80.1442 16.822 80.2333 16.5421 80.2816 16.2375C80.3301 15.933 80.426 15.5794 80.4951 15.4515C80.8209 14.8475 81.1601 11.4033 80.9178 11.1595C80.8369 11.0781 80.7707 10.8544 80.7707 10.6622C80.7707 10.015 79.804 8.56262 79.0727 8.11094C78.0288 7.46631 76.5837 7.06556 75.2885 7.06147C74.5191 7.05902 71.9307 7.40067 71.7691 7.52595C71.6947 7.58369 71.3752 7.67383 71.0591 7.72626C70.7432 7.77869 70.4535 7.87223 70.4155 7.93406C70.3775 7.99588 70.1031 8.08793 69.8057 8.13845C69.5083 8.18897 69.2649 8.27952 69.2649 8.33971C69.2649 8.40003 69.0974 8.4895 68.8927 8.53879C68.44 8.64759 66.0191 9.84141 65.7698 10.0788C65.6713 10.1724 65.5038 10.249 65.3975 10.249C65.2911 10.249 65.2041 10.3032 65.2041 10.3692C65.2041 10.4354 65.0976 10.5269 64.9672 10.5726C64.5415 10.7219 62.8878 11.842 62.316 12.3685C62.2294 12.4481 62.0584 12.5707 61.936 12.6408C61.5185 12.8801 59.5442 14.5946 58.6458 15.4984C57.6394 16.5108 56.0783 18.3307 55.8052 18.8099C55.7355 18.9321 55.6137 19.1065 55.5345 19.1975C55.1433 19.6466 55.052 19.78 55.052 19.9016C55.052 19.9743 54.9759 20.1174 54.8828 20.2196C54.6304 20.4964 54.3848 20.8928 54.2051 21.3129C54.1172 21.5188 54.0024 21.6874 53.9501 21.6874C53.8979 21.6874 53.815 21.8712 53.766 22.0959C53.717 22.3205 53.6257 22.5044 53.563 22.5044C53.5003 22.5044 53.4089 22.6882 53.3599 22.9129C53.3109 23.1376 53.2196 23.3214 53.1569 23.3214C53.0942 23.3214 53.0029 23.5052 52.9539 23.7299C52.9049 23.9546 52.8086 24.1384 52.7401 24.1384C52.6715 24.1384 52.6154 24.2363 52.6154 24.3562C52.6154 24.4759 52.5295 24.767 52.4243 25.003C52.115 25.6973 51.6679 27.1138 51.6679 27.3991C51.6679 27.5441 51.6117 27.6977 51.5431 27.7404C51.4746 27.7831 51.3761 28.2165 51.3241 28.7034C51.2723 29.1905 51.1761 29.6225 51.1105 29.6633C51.0448 29.7042 50.9911 29.9177 50.9911 30.138C50.9911 30.5367 50.9875 30.5385 50.1789 30.5385H49.3668V30.0846C49.3668 29.8349 49.3212 29.585 49.2652 29.5292C49.2095 29.4735 49.0909 29.0189 49.002 28.5193C48.753 27.1204 48.5114 26.181 48.4008 26.181C48.3456 26.181 48.2594 25.9053 48.2092 25.5682C48.1589 25.2312 48.0704 24.9555 48.0125 24.9555C47.9545 24.9555 47.8662 24.787 47.8159 24.581C47.7658 24.3751 47.546 23.8233 47.3275 23.355C47.1091 22.8867 46.9303 22.4426 46.9303 22.3678C46.9303 22.2932 46.8753 22.232 46.8082 22.232C46.741 22.232 46.6155 22.0635 46.5295 21.8576C46.2621 21.2181 46.0581 20.8703 45.9506 20.8703C45.8938 20.8703 45.8474 20.7871 45.8474 20.6855C45.8474 20.584 45.5428 20.0909 45.1706 19.5899C44.7983 19.0891 44.4938 18.6537 44.4938 18.6228C44.4938 18.5165 43.7461 17.7122 41.9835 15.9227C40.1461 14.057 39.9849 13.9109 38.5378 12.7978C38.0539 12.4257 37.6377 12.0675 37.6129 12.002C37.588 11.9365 37.5095 11.883 37.4382 11.883C37.2864 11.883 36.4604 11.3172 36.3947 11.1681C36.3698 11.112 36.2912 11.066 36.2199 11.066C36.1078 11.066 35.3487 10.5812 35.1538 10.3851C35.1166 10.3477 34.7816 10.1639 34.4093 9.97663C34.0371 9.78939 33.702 9.60556 33.6648 9.56811C33.5159 9.41832 31.8138 8.62131 31.4652 8.53811C31.2605 8.48923 31.093 8.4014 31.093 8.34298C31.093 8.28456 30.8646 8.19374 30.5853 8.14131C30.3062 8.08875 30.0168 7.99806 29.9424 7.93964C29.8679 7.88122 29.5634 7.78931 29.2656 7.73538C28.9678 7.68146 28.6632 7.58805 28.5888 7.52786C28.5143 7.46753 27.8747 7.35029 27.1675 7.26709C26.4602 7.18403 25.6074 7.07972 25.2724 7.03533C24.9374 6.99107 24.6311 6.98794 24.5917 7.02852ZM32.5481 19.7411C33.0879 20.0093 33.5295 20.2812 33.5295 20.3452C33.5295 20.4094 33.6084 20.4618 33.705 20.4618C33.9001 20.4618 34.3028 20.7483 34.9015 21.3129C35.1198 21.5188 35.3422 21.6874 35.3957 21.6874C35.6453 21.6874 38.4664 24.6224 39.3864 25.8392C39.4435 25.9148 39.6111 26.1239 39.7587 26.304C39.9061 26.484 40.0268 26.7072 40.0268 26.8C40.0268 26.8929 40.1182 27.0042 40.2299 27.0473C40.3415 27.0904 40.4329 27.2194 40.4329 27.3342C40.4329 27.4489 40.4926 27.5427 40.5657 27.5427C40.6387 27.5427 40.7367 27.6959 40.7834 27.8831C40.8301 28.0704 40.9178 28.2236 40.9783 28.2236C41.0388 28.2236 41.1284 28.4074 41.1774 28.6321C41.2264 28.8568 41.3178 29.0406 41.3804 29.0406C41.4431 29.0406 41.5345 29.2244 41.5835 29.4491C41.6325 29.6738 41.7287 29.8576 41.7972 29.8576C41.8658 29.8576 41.9239 29.9343 41.9265 30.0278C41.9291 30.1215 42.0487 30.4432 42.1926 30.7427C42.3365 31.0423 42.4562 31.3911 42.4587 31.5177C42.4613 31.6443 42.519 31.7825 42.5869 31.8248C42.6549 31.8671 42.7515 32.1461 42.8017 32.4449C42.852 32.7436 42.9451 33.0205 43.0087 33.0601C43.0725 33.0997 43.1654 33.4072 43.2157 33.7434C43.2658 34.0796 43.3563 34.3855 43.417 34.4232C43.4776 34.4609 43.569 34.8277 43.62 35.2386C43.671 35.6493 43.7581 35.9853 43.8133 35.9853C44.0402 35.9853 44.5559 40.7364 44.4012 41.3995C44.2971 41.8455 44.2154 41.9257 43.7451 42.045C43.4496 42.1199 43.1469 42.2199 43.0725 42.2672C42.998 42.3146 42.7391 42.396 42.4972 42.4483C42.2553 42.5004 42.0572 42.5996 42.0572 42.6685C42.0572 42.7375 41.9985 42.7939 41.9266 42.7939C41.7848 42.7939 39.7312 41.5745 39.6207 41.4246C39.5835 41.374 39.4228 41.2919 39.2635 41.242C39.1043 41.192 38.8187 41.0062 38.6287 40.8291C38.4388 40.6521 38.226 40.4855 38.1557 40.459C37.8919 40.3594 36.69 39.275 35.3697 37.945C33.9075 36.472 33.5295 36.0247 33.5295 35.768C33.5295 35.6788 33.4381 35.5707 33.3264 35.5275C33.2147 35.4845 33.1234 35.3554 33.1234 35.2406C33.1234 35.126 33.0637 35.0321 32.9906 35.0321C32.9176 35.0321 32.8196 34.8789 32.7729 34.6917C32.7262 34.5045 32.6336 34.3513 32.5673 34.3513C32.5008 34.3513 32.4445 34.2748 32.442 34.1811C32.4394 34.0875 32.3197 33.7657 32.1758 33.4662C32.032 33.1666 31.9123 32.8519 31.9097 32.7668C31.9072 32.6818 31.8142 32.4367 31.7029 32.2221C31.5918 32.0076 31.5004 31.7285 31.4998 31.6018C31.4994 31.4752 31.4416 31.3359 31.3715 31.2923C31.3014 31.2486 31.2023 30.9233 31.1514 30.5694C31.1004 30.2153 31.0116 29.8644 30.9539 29.7895C30.8961 29.7146 30.786 29.2857 30.7091 28.8363C30.485 27.529 29.9766 25.6209 29.6273 24.7764C29.5399 24.5656 29.4686 24.3088 29.4686 24.2057C29.4686 24.1026 29.4112 23.9827 29.3411 23.9391C29.271 23.8954 29.1719 23.5701 29.121 23.2161C29.07 22.8621 28.9709 22.4996 28.9005 22.4107C28.7107 22.1708 28.7161 20.1467 28.9067 20.0828C28.9924 20.0541 29.0625 19.9533 29.0625 19.8588C29.0625 19.6389 29.4575 19.2853 29.807 19.1924C30.4199 19.0294 31.5853 19.2626 32.5481 19.7411ZM71.0486 19.4623C71.1844 19.586 71.2954 19.7643 71.2954 19.8588C71.2954 19.9533 71.3679 20.0549 71.4566 20.0846C71.6782 20.159 71.7587 21.7522 71.577 22.4703C71.4966 22.7887 71.3666 23.3071 71.2883 23.6225C71.2099 23.9377 71.0952 24.2595 71.0332 24.3374C70.9712 24.4151 70.8795 24.6933 70.8293 24.9555C70.7792 25.2176 70.6889 25.5546 70.6287 25.7044C70.5009 26.0222 70.2546 26.944 70.0645 27.8151C69.991 28.1521 69.8799 28.5221 69.8176 28.6373C69.7553 28.7526 69.6596 29.1203 69.6048 29.4543C69.5499 29.7885 69.458 30.1232 69.4003 30.1981C69.3426 30.2729 69.2529 30.5946 69.2006 30.913C69.1485 31.2312 69.0502 31.4917 68.9823 31.4917C68.9143 31.4917 68.8584 31.599 68.858 31.73C68.8575 31.861 68.7719 32.1326 68.6677 32.3336C68.5635 32.5345 68.4372 32.8869 68.3871 33.1166C68.3369 33.3463 68.2447 33.5343 68.182 33.5343C68.1194 33.5343 68.028 33.7181 67.979 33.9428C67.93 34.1674 67.8337 34.3513 67.7653 34.3513C67.6966 34.3513 67.6406 34.4247 67.6406 34.5144C67.6406 34.6961 66.5341 36.4079 66.0738 36.9385C64.873 38.3226 64.5549 38.668 64.258 38.9103C64.0726 39.0616 63.8138 39.2927 63.6828 39.4237C63.5516 39.5547 63.4111 39.662 63.3702 39.662C63.3295 39.662 63.1619 39.7998 62.998 39.9683C62.6235 40.3533 61.8717 40.8875 61.7046 40.8875C61.6351 40.8875 61.5432 40.9794 61.5003 41.0918C61.4575 41.2041 61.3292 41.296 61.2151 41.296C61.1011 41.296 61.0079 41.3532 61.0079 41.4231C61.0079 41.4929 60.8709 41.593 60.7033 41.6456C60.5357 41.6983 60.3683 41.7789 60.3311 41.825C60.2938 41.8711 59.9841 42.0552 59.6429 42.234C59.1319 42.5019 58.9115 42.5425 58.3939 42.4645C58.0483 42.4123 57.7344 42.3189 57.6964 42.2571C57.6583 42.1952 57.3676 42.1039 57.0502 42.0544C56.0015 41.8905 55.9759 41.8344 56.0434 39.8455C56.1033 38.0787 56.3448 36.1679 56.54 35.9172C56.5983 35.8424 56.689 35.4593 56.7415 35.0662C56.7941 34.6731 56.8922 34.3513 56.9597 34.3513C57.0272 34.3513 57.0828 34.1827 57.0832 33.9768C57.0837 33.7709 57.1751 33.4268 57.2862 33.2123C57.3975 32.9977 57.4889 32.722 57.4893 32.5996C57.4898 32.477 57.5812 32.2013 57.6923 31.9868C57.8036 31.7722 57.8966 31.5271 57.8992 31.4421C57.9017 31.357 58.0214 31.0423 58.1653 30.7427C58.3092 30.4432 58.4288 30.1215 58.4314 30.0278C58.434 29.9343 58.4969 29.8576 58.5714 29.8576C58.6458 29.8576 58.7067 29.7878 58.7067 29.7024C58.7067 29.5484 59.253 28.3544 59.3834 28.2236C59.4208 28.1861 59.6023 27.8645 59.7868 27.5087C59.9714 27.1529 60.1652 26.8619 60.2176 26.8619C60.27 26.8619 60.3558 26.7239 60.4085 26.5555C60.461 26.3869 60.6391 26.1223 60.8041 25.9674C60.9693 25.8124 61.1283 25.6219 61.1576 25.544C61.2424 25.3186 62.2376 24.1367 62.9101 23.4626C63.5387 22.8326 63.6806 22.7086 64.8657 21.7552C65.2379 21.4557 65.5912 21.1342 65.6508 21.0405C65.7103 20.947 65.8473 20.8703 65.9553 20.8703C66.0632 20.8703 66.152 20.8243 66.1524 20.7682C66.1543 20.5401 68.3297 19.3929 69.0619 19.234C69.7881 19.0761 70.7454 19.1863 71.0486 19.4623ZM50.6267 35.0662C50.6936 36.8319 50.9543 39.1964 51.1258 39.5939C51.1904 39.7437 51.2816 40.1572 51.3286 40.513L51.4138 41.1598H50.1872C48.8428 41.1598 48.8718 41.1837 49.1097 40.2747C49.4483 38.9822 49.6669 37.2833 49.7276 35.4747L49.7929 33.5343H50.1807H50.5686L50.6267 35.0662ZM31.044 41.9088C31.0869 42.0211 31.1975 42.113 31.2898 42.113C31.4376 42.113 31.6234 42.2414 32.2717 42.7913C32.3616 42.8677 32.4942 42.9301 32.5665 42.9301C32.6388 42.9301 32.7796 43.0067 32.8792 43.1003C32.9789 43.194 33.3488 43.4225 33.7011 43.6081C34.0533 43.7938 34.3416 43.988 34.3416 44.0399C34.3416 44.0916 34.5244 44.1744 34.7477 44.2237C34.9711 44.273 35.1538 44.3649 35.1538 44.428C35.1538 44.491 35.3359 44.5826 35.5584 44.6318C35.7808 44.681 35.9976 44.7778 36.0401 44.847C36.0825 44.9161 36.2233 44.9726 36.353 44.9726C36.4826 44.9726 36.657 45.0414 36.7405 45.1254C36.9084 45.2943 36.8246 45.6535 36.6172 45.6535C36.2167 45.6535 34.1386 47.6744 33.5504 48.6359C33.1031 49.3676 32.8654 50.5968 33.1031 50.9496C33.1735 51.0539 33.5265 51.1874 33.8878 51.2462C34.6997 51.3784 36.9144 51.1548 37.4196 50.8895C37.6252 50.7817 37.8625 50.6932 37.9471 50.6926C38.0316 50.6922 38.2752 50.6003 38.4886 50.4884C38.7018 50.3766 38.9793 50.2847 39.1051 50.2841C39.231 50.2837 39.3695 50.2256 39.4128 50.155C39.4563 50.0845 39.7796 49.9848 40.1315 49.9336C40.4834 49.8823 40.8383 49.787 40.9203 49.7216C41.0022 49.6562 41.3677 49.5627 41.7325 49.5137C42.0972 49.4645 42.4261 49.379 42.4633 49.3234C42.5394 49.2099 43.7835 48.9716 45.3059 48.779C45.8643 48.7085 46.7334 48.5891 47.2374 48.5138C48.419 48.3373 52.0739 48.3372 53.2558 48.5138C53.7598 48.5889 54.6899 48.7079 55.3227 48.7782C56.7865 48.9405 58.1559 49.1737 58.5037 49.3195C58.6526 49.382 59.079 49.4971 59.4512 49.5752C60.7511 49.848 61.4822 50.046 61.5493 50.1432C61.5865 50.1971 61.8558 50.2791 62.1475 50.3255C62.4393 50.3718 62.7134 50.4637 62.7566 50.5298C62.7999 50.5957 63.074 50.6876 63.3657 50.734C63.6576 50.7803 63.9317 50.8665 63.9749 50.9254C64.13 51.1363 65.4549 51.5087 66.0344 51.5044C66.4298 51.5012 66.7375 51.4059 66.9638 51.2161C67.274 50.9559 67.3016 50.8422 67.2954 49.8498C67.2915 49.204 67.2275 48.7291 67.137 48.6728C67.0535 48.6209 66.9433 48.4106 66.8922 48.2053C66.841 48.0001 66.7448 47.8322 66.6784 47.8322C66.612 47.8322 66.5577 47.7485 66.5577 47.6461C66.5577 47.4411 65.2867 46.0883 64.5006 45.4566C64.0421 45.0881 64.021 45.0415 64.2415 44.8862C64.3736 44.7932 64.6442 44.6759 64.8428 44.6258C65.0415 44.5757 65.2041 44.4849 65.2041 44.424C65.2041 44.3631 65.3868 44.273 65.6102 44.2237C65.8335 44.1744 66.0163 44.0911 66.0163 44.0385C66.0163 43.9859 66.1838 43.8705 66.3885 43.782C66.8061 43.6013 67.2001 43.3541 67.4753 43.1003C67.5768 43.0067 67.747 42.9301 67.8532 42.9301C67.9596 42.9301 68.0471 42.8842 68.0475 42.8279C68.0486 42.6967 68.8312 42.2466 69.039 42.2577C69.2117 42.2668 70.0771 43.3971 70.0771 43.6135C70.0771 43.6869 70.1292 43.7471 70.1931 43.7471C70.3213 43.7471 71.2954 45.2047 71.2954 45.3965C71.2954 45.463 71.355 45.5173 71.4281 45.5173C71.5011 45.5173 71.5991 45.6705 71.6458 45.8577C71.6925 46.045 71.7802 46.1982 71.8407 46.1982C71.9012 46.1982 71.9908 46.382 72.0398 46.6067C72.0888 46.8314 72.1802 47.0152 72.2429 47.0152C72.3056 47.0152 72.3969 47.199 72.4459 47.4237C72.4949 47.6484 72.5863 47.8322 72.649 47.8322C72.7116 47.8322 72.803 48.0161 72.852 48.2407C72.901 48.4654 72.9924 48.6493 73.0551 48.6493C73.1177 48.6493 73.2099 48.8372 73.2601 49.0669C73.3102 49.2966 73.4365 49.649 73.5407 49.8499C73.645 50.0509 73.7305 50.3225 73.731 50.4535C73.7315 50.5845 73.7792 50.6918 73.8372 50.6918C73.8951 50.6918 74.0856 51.1668 74.2603 51.7472C74.4352 52.3275 74.6619 52.9956 74.7641 53.2316C74.8665 53.4675 74.9501 53.8163 74.9501 54.0065C74.9501 54.1967 75.004 54.3859 75.0699 54.4269C75.1357 54.4677 75.233 54.793 75.2861 55.1498C75.3391 55.5064 75.4223 55.8595 75.4709 55.9344C75.5691 56.086 75.8378 57.2735 76.0562 58.5217C76.1347 58.971 76.2524 59.4613 76.3177 59.611C76.5314 60.1019 76.8898 62.9915 77.1202 66.0819C77.2456 67.7617 77.2506 68.6241 77.14 69.4862C77.0586 70.1213 76.9536 71.1618 76.9066 71.7984C76.8597 72.435 76.7732 73.0171 76.7146 73.092C76.6558 73.1669 76.5655 73.5804 76.5137 74.0112C76.462 74.4419 76.3709 74.7941 76.3114 74.7941C76.2519 74.7941 76.1632 75.0981 76.1142 75.4694C76.0652 75.8408 75.9729 76.1771 75.909 76.2169C75.8453 76.2565 75.7528 76.5042 75.7038 76.7671C75.6548 77.0301 75.5565 77.2452 75.4855 77.2452C75.4144 77.2452 75.3562 77.3322 75.3562 77.4386C75.3562 77.6773 74.3961 79.6111 74.2464 79.6736C74.1868 79.6986 74.1379 79.7964 74.1379 79.891C74.1379 79.9857 74.0172 80.2104 73.8698 80.3904C73.4186 80.9406 73.3918 80.9754 73.049 81.4525C72.1549 82.6968 70.9136 83.9551 69.8061 84.7397C69.5457 84.9241 69.3022 85.1057 69.2649 85.1432C69.1001 85.309 68.3393 85.7843 67.8436 86.031C67.5458 86.1793 67.2711 86.3417 67.2332 86.392C67.1951 86.4422 66.986 86.5283 66.7685 86.5832C66.5508 86.6382 66.2163 86.7652 66.0253 86.8655C65.8342 86.9658 65.5529 87.0482 65.4004 87.0487C65.2477 87.0492 65.0649 87.1058 64.9943 87.1746C64.7832 87.3795 63.5797 87.5144 63.5797 87.3331C63.5797 87.2473 63.6711 87.1419 63.7828 87.0988C63.8945 87.0557 63.9858 86.9632 63.9858 86.8934C63.9858 86.743 64.5499 85.9123 64.6965 85.8468C64.7522 85.8217 64.798 85.7189 64.798 85.6181C64.798 85.5174 64.8742 85.3539 64.9672 85.255C65.201 85.0064 65.985 83.387 66.0926 82.9304C66.1412 82.7243 66.2275 82.5559 66.2844 82.5559C66.3413 82.5559 66.4271 82.3081 66.4753 82.0052C66.5235 81.7024 66.6201 81.3501 66.6901 81.2222C66.8341 80.9596 67.0224 80.1585 67.3368 78.4708C67.6468 76.8074 67.6459 71.471 67.3353 69.9601C66.9512 68.09 66.7787 67.4409 66.6664 67.4409C66.6066 67.4409 66.5557 67.3336 66.5531 67.2026C66.5505 67.0716 66.4309 66.7192 66.287 66.4196C66.1431 66.12 66.0234 65.8337 66.0209 65.7831C66.0129 65.624 64.6798 63.4403 64.3597 63.062C64.1913 62.8631 63.9621 62.5624 63.8505 62.394C63.7388 62.2257 63.5408 61.9919 63.4105 61.8745C63.2803 61.7571 63.1737 61.6177 63.1737 61.5646C63.1737 61.5115 62.8235 61.1058 62.3953 60.6632C61.628 59.8699 60.7641 58.8767 60.1669 58.1013C59.7657 57.5801 59.6926 57.4866 59.4148 57.1386C59.2859 56.9771 59.0891 56.7091 58.9774 56.5432C58.8658 56.3773 58.6983 56.1614 58.6052 56.0637C58.5122 55.9659 58.436 55.8451 58.436 55.7954C58.436 55.7457 58.3293 55.5646 58.1991 55.3929C58.0689 55.2213 57.8709 54.9436 57.7592 54.7759C57.4012 54.2383 56.5981 53.4153 56.4316 53.4153C56.3428 53.4153 56.2702 53.3589 56.2702 53.2898C56.2702 53.2209 56.0875 53.1241 55.8641 53.0748C55.6408 53.0255 55.458 52.9287 55.458 52.8598C55.458 52.6987 52.9266 52.6946 52.8277 52.8555C52.7868 52.922 52.5885 53.0182 52.3871 53.069C51.6917 53.2446 48.5546 55.8932 48.5546 56.3047C48.5546 56.3631 48.4632 56.411 48.3516 56.411C48.2399 56.411 48.1485 56.4583 48.1485 56.516C48.1485 56.5737 47.8592 56.767 47.5055 56.9454C47.1518 57.1237 46.701 57.3522 46.5033 57.4531C46.3057 57.554 46.0468 57.6366 45.928 57.6366C45.8092 57.6366 45.712 57.6951 45.712 57.7666C45.712 57.8381 45.4837 57.9379 45.2044 57.9886C44.9253 58.0392 44.6294 58.1341 44.5469 58.1995C44.1424 58.5206 41.6818 58.8522 39.6626 58.8576C38.755 58.8601 37.9791 58.9162 37.9385 58.9823C37.8979 59.0485 37.5287 59.1448 37.1183 59.1964C36.7079 59.248 36.3721 59.3471 36.3721 59.4166C36.3721 59.486 36.3026 59.543 36.2177 59.543C35.8328 59.543 34.764 60.2155 34.1852 60.8219C33.6032 61.4315 32.5819 63.1997 32.5819 63.5977C32.5819 63.6894 32.5331 63.7643 32.4732 63.7643C32.3426 63.7643 32.1027 64.7359 31.8009 66.4877C31.4924 68.2778 31.4963 74.8985 31.8075 77.5176C32.0397 79.4715 32.3166 81.0297 32.4755 81.2752C32.5286 81.3573 32.6125 81.679 32.6619 81.9901C32.7115 82.3013 32.8001 82.5559 32.8592 82.5559C32.9182 82.5559 33.0075 82.7438 33.0577 82.9735C33.1078 83.2033 33.2341 83.5557 33.3383 83.7565C33.4426 83.9575 33.5281 84.1631 33.5286 84.2137C33.5301 84.3822 34.8752 86.5675 35.2322 86.9815C35.56 87.3615 35.5664 87.3928 35.3233 87.4306C35.0389 87.4748 32.9015 86.7944 31.9375 86.3525C31.3132 86.0664 29.9926 85.2891 29.8747 85.1384C29.8375 85.0907 29.7077 84.9958 29.5862 84.9273C28.6642 84.4073 26.0544 81.7781 25.8278 81.141C25.7983 81.0579 25.6918 80.9409 25.5909 80.881C25.4902 80.8211 25.4078 80.6833 25.4078 80.5746C25.4078 80.4661 25.3481 80.3772 25.275 80.3772C25.202 80.3772 25.104 80.224 25.0573 80.0367C25.0106 79.8495 24.9295 79.6963 24.8771 79.6963C24.7763 79.6963 23.9525 78.0918 23.5838 77.1771C23.463 76.8776 23.3105 76.5328 23.2447 76.4109C23.1789 76.289 23.0825 75.952 23.0305 75.662C22.9786 75.3719 22.8884 75.0733 22.8302 74.9984C22.7057 74.838 22.4646 73.7222 22.2861 72.4792C22.2162 71.9924 22.098 71.2534 22.0237 70.837C21.8475 69.8513 21.8491 65.5295 22.0262 64.3456C22.102 63.8386 22.2201 62.9336 22.2889 62.3345C22.5071 60.433 23.3527 56.1978 23.6483 55.5259C23.7141 55.3761 23.8072 54.9935 23.8552 54.6755C23.9031 54.3577 23.9909 54.0674 24.0504 54.0305C24.1096 53.9934 24.1993 53.6883 24.2493 53.3521C24.2996 53.0159 24.3926 52.7084 24.4563 52.6688C24.5199 52.6291 24.6132 52.352 24.6634 52.0529C24.7136 51.7537 24.8103 51.5089 24.8782 51.5089C24.9462 51.5089 25.0021 51.4016 25.0025 51.2706C25.003 51.1396 25.0886 50.8679 25.1928 50.6669C25.297 50.4661 25.4233 50.1136 25.4734 49.8839C25.5236 49.6542 25.6158 49.4663 25.6785 49.4663C25.7412 49.4663 25.8325 49.2825 25.8815 49.0578C25.9305 48.8331 26.0268 48.6493 26.0953 48.6493C26.1639 48.6493 26.2199 48.5542 26.2199 48.4379C26.2199 48.1999 26.7742 47.1078 26.9306 47.0379C26.9864 47.0129 27.0321 46.929 27.0321 46.8514C27.0321 46.6707 27.9978 45.0554 28.1417 44.9954C28.2015 44.9703 28.2504 44.8727 28.2504 44.7782C28.2504 44.6837 28.3722 44.4954 28.5211 44.3599C28.67 44.2244 28.7918 44.0533 28.7918 43.9799C28.7918 43.9064 28.9353 43.7126 29.1107 43.5491C29.2861 43.3854 29.4537 43.1865 29.483 43.1068C29.5908 42.8138 30.6247 41.7082 30.7926 41.7064C30.888 41.7053 31.0012 41.7964 31.044 41.9088ZM54.9617 56.0933C55.2347 56.3679 55.458 56.6742 55.458 56.7742C55.458 56.874 55.5149 56.9557 55.5843 56.9557C55.6538 56.9557 55.7526 57.0889 55.8039 57.2516C55.8552 57.4143 55.9518 57.6136 56.0186 57.6942C56.3474 58.0916 56.6278 58.4563 56.8117 58.7254C56.9233 58.8889 57.1974 59.2243 57.4208 59.4708C57.6441 59.7173 58.101 60.2445 58.436 60.6423C58.771 61.0402 59.1518 61.4594 59.282 61.574C59.4122 61.6885 59.5189 61.8263 59.5189 61.8801C59.5189 61.934 59.7778 62.2513 60.0942 62.5853C60.854 63.3873 61.4712 64.1686 61.5254 64.3969C61.5495 64.4984 61.6207 64.5813 61.6836 64.5813C61.7465 64.5813 61.9367 64.8112 62.1065 65.0919C62.2761 65.3729 62.4518 65.6332 62.4968 65.6707C62.638 65.7879 63.1737 66.7181 63.1726 66.8442C63.1707 67.0644 62.4507 67.3047 61.7931 67.3047C61.256 67.3047 61.1432 67.262 61.1432 67.058C61.1432 66.9222 61.326 66.6753 61.5493 66.5092C61.842 66.2916 61.9554 66.0943 61.9554 65.8028C61.9554 65.4435 61.9097 65.3983 61.5466 65.3983C61.3218 65.3983 60.882 65.5608 60.5694 65.7593C60.0856 66.0665 59.8341 66.124 58.8816 66.1454C58.0535 66.1637 57.6976 66.2292 57.5132 66.3971C57.3763 66.5219 57.2207 66.6239 57.1675 66.6239C56.9691 66.6239 56.5376 67.1344 56.2063 67.761C55.9181 68.3064 55.8641 68.5899 55.8641 69.5588C55.8641 70.1914 55.9184 70.709 55.9849 70.709C56.0512 70.709 56.1441 70.8638 56.1913 71.053C56.2871 71.4368 57.2883 72.4792 57.5612 72.4792C57.6577 72.4792 57.7584 72.5449 57.7849 72.6251C57.873 72.8909 59.5928 72.8266 60.1493 72.5368C60.7057 72.2471 61.1432 71.8663 61.1432 71.6719C61.1432 71.6024 61.2235 71.4645 61.3215 71.3655C61.4925 71.1931 61.7635 70.3793 61.9149 69.5842C61.9653 69.3202 62.0925 69.1827 62.3432 69.1218C62.7107 69.0326 63.4773 68.5546 63.5571 68.365C63.6741 68.0876 63.9858 68.2871 63.9858 68.6392C63.9858 68.8489 64.0427 69.0786 64.1121 69.1498C64.2763 69.318 64.519 70.8313 64.6568 72.5473C64.7739 74.0037 64.6901 77.0878 64.5274 77.3133C64.4733 77.3882 64.3912 77.8317 64.3451 78.2988C64.2989 78.7658 64.2048 79.2561 64.1361 79.3882C64.0674 79.5202 63.9399 79.8959 63.8529 80.2233C63.7433 80.6352 63.5014 81.0018 63.0669 81.4148C62.7215 81.7428 62.3956 82.0112 62.3423 82.0112C62.2891 82.0112 62.1633 82.0879 62.0629 82.1814C61.72 82.5013 61.0191 82.9644 60.8779 82.9644C60.8005 82.9644 60.7371 83.0208 60.7371 83.0898C60.7371 83.1587 60.5544 83.2556 60.3311 83.3048C60.1077 83.3541 59.925 83.4461 59.925 83.5091C59.925 83.5721 59.7422 83.6641 59.5189 83.7134C59.2955 83.7627 59.1128 83.8595 59.1128 83.9284C59.1128 83.9974 59.0367 84.0542 58.9436 84.0546C58.8506 84.0551 58.6043 84.1447 58.3965 84.2538C58.1886 84.3629 57.8072 84.492 57.549 84.5407C57.2907 84.5895 57.0487 84.6794 57.011 84.7405C56.9736 84.8018 56.6088 84.8937 56.2004 84.945C55.7921 84.9964 55.458 85.0854 55.458 85.1429C55.458 85.239 54.8867 85.3429 52.4801 85.685C51.3799 85.8413 47.9235 85.8404 46.9303 85.6833C45.1301 85.3989 44.4082 85.2595 44.1553 85.147C44.0065 85.0808 43.6487 84.9874 43.3604 84.9394C43.072 84.8914 42.737 84.7984 42.6159 84.7326C42.4947 84.6668 42.0302 84.4921 41.5835 84.3442C41.1368 84.1965 40.5886 83.979 40.3652 83.8612C40.1419 83.7433 39.8831 83.6466 39.7899 83.6461C39.6969 83.6457 39.6207 83.584 39.6207 83.5091C39.6207 83.4342 39.5432 83.3729 39.4484 83.3729C39.3537 83.3729 38.9525 83.1585 38.5568 82.8963C38.1611 82.6342 37.7869 82.4197 37.7251 82.4197C37.6634 82.4197 37.5926 82.3738 37.5677 82.3176C37.5429 82.2614 37.219 81.9704 36.8479 81.6708C35.7122 80.754 35.1538 80.1069 35.1538 79.7071C35.1538 79.5065 35.0961 79.284 35.0256 79.2129C34.7292 78.9136 34.5623 76.3636 34.5673 72.2069C34.5724 68.0336 34.7141 65.9223 35.0092 65.6255C35.0887 65.5455 35.1538 65.3764 35.1538 65.2498C35.1538 64.6716 36.1539 62.9859 36.7504 62.5586C37.361 62.1212 38.1531 61.9729 40.5683 61.8443C41.7967 61.7788 42.9309 61.668 43.0887 61.5982C43.2465 61.5285 43.6729 61.428 44.0362 61.3751C44.3995 61.3222 44.7577 61.2308 44.8322 61.172C44.9066 61.1133 45.2055 61.0204 45.4964 60.9658C45.7873 60.9111 46.1832 60.7835 46.3762 60.682C46.5693 60.5807 46.8302 60.4975 46.9561 60.497C47.082 60.4966 47.2198 60.4397 47.2622 60.3705C47.3047 60.3013 47.5215 60.2045 47.7439 60.1553C47.9665 60.1062 48.1485 60.0145 48.1485 59.9515C48.1485 59.8884 48.3313 59.7965 48.5546 59.7472C48.7779 59.6979 48.9607 59.6078 48.9607 59.5469C48.9607 59.486 49.0977 59.3992 49.2652 59.3537C49.5836 59.2674 50.0326 58.9194 51.0991 57.9329C51.4492 57.6091 52.0084 57.1188 52.3417 56.8435C52.675 56.5682 53.0709 56.2144 53.2216 56.0573C53.8057 55.4477 54.3308 55.4586 54.9617 56.0933ZM37.5903 65.7461C37.5903 65.9448 37.7641 66.2806 37.9957 66.5291C38.5882 67.165 38.5288 67.3047 37.666 67.3047C37.2608 67.3047 36.8918 67.2434 36.8458 67.1686C36.6218 66.804 35.5599 67.2294 35.5599 67.6838C35.5599 67.8896 36.3964 68.8026 36.585 68.8026C36.6912 68.8026 36.7781 68.8598 36.7781 68.9298C36.7781 68.9997 36.9457 69.0763 37.1504 69.1C37.4323 69.1326 37.5322 69.2256 37.5622 69.4835C37.5838 69.6707 37.6551 69.9464 37.7208 70.0962C37.7863 70.246 37.8777 70.5423 37.9237 70.7548C37.9697 70.967 38.081 71.233 38.1711 71.3456C38.6545 71.9499 39.2291 72.4792 39.4019 72.4792C39.5099 72.4792 39.6203 72.5462 39.6475 72.6282C39.7361 72.8954 41.5494 72.8239 41.9996 72.5355C43.2399 71.7409 43.6992 70.8781 43.6958 69.3492C43.6944 68.7244 43.638 68.1773 43.5703 68.1335C43.5026 68.0896 43.4077 67.9258 43.3593 67.7693C43.2477 67.4094 42.6522 66.7585 42.1249 66.4206C41.822 66.2263 41.434 66.1531 40.5971 66.132C39.6229 66.1075 39.4147 66.0573 39.0155 65.751C38.7195 65.5239 38.3841 65.3983 38.0731 65.3983C37.6457 65.3983 37.5903 65.4382 37.5903 65.7461ZM47.0205 74.4765C46.9709 74.5263 46.9303 74.7428 46.9303 74.9576C46.9303 75.3711 47.5908 76.1559 47.9388 76.1559C48.0417 76.1559 48.1514 76.2325 48.1824 76.3261C48.2227 76.4477 48.6411 76.4963 49.6487 76.4963C51.1849 76.4963 51.4771 76.3906 52.2432 75.5581C52.6612 75.1039 52.7049 74.8647 52.422 74.5802C52.1841 74.3407 51.9772 74.3333 51.7306 74.5558C50.8164 75.3806 50.1566 75.6637 49.3934 75.5587C49.0438 75.5107 48.7373 75.4109 48.7126 75.3369C48.6877 75.2631 48.5934 75.2027 48.5032 75.2027C48.4127 75.2027 48.1894 75.0214 48.0068 74.7999C47.6963 74.4232 47.2266 74.2692 47.0205 74.4765Z" fill="#CAD9DA"/>
</svg>
