<svg width="19" height="18" viewBox="0 0 19 18" fill="none" xmlns="http://www.w3.org/2000/svg">
<g clip-path="url(#clip0_1262_45532)">
<path d="M8.71126 5.5013C11.2379 5.5013 13.4913 6.9213 14.5913 9.16797C13.4913 11.4146 11.2379 12.8346 8.71126 12.8346C6.1846 12.8346 3.93126 11.4146 2.83126 9.16797C3.93126 6.9213 6.1846 5.5013 8.71126 5.5013ZM8.71126 4.16797C5.37793 4.16797 2.53126 6.2413 1.37793 9.16797C2.53126 12.0946 5.37793 14.168 8.71126 14.168C12.0446 14.168 14.8913 12.0946 16.0446 9.16797C14.8913 6.2413 12.0446 4.16797 8.71126 4.16797ZM8.71126 7.5013C9.63126 7.5013 10.3779 8.24797 10.3779 9.16797C10.3779 10.088 9.63126 10.8346 8.71126 10.8346C7.79126 10.8346 7.0446 10.088 7.0446 9.16797C7.0446 8.24797 7.79126 7.5013 8.71126 7.5013ZM8.71126 6.16797C7.05793 6.16797 5.71126 7.51464 5.71126 9.16797C5.71126 10.8213 7.05793 12.168 8.71126 12.168C10.3646 12.168 11.7113 10.8213 11.7113 9.16797C11.7113 7.51464 10.3646 6.16797 8.71126 6.16797Z" fill="#7778E5"/>
</g>
<defs>
<clipPath id="clip0_1262_45532">
<rect width="16" height="16" fill="white" transform="translate(0.710938 1.5)"/>
</clipPath>
</defs>
</svg>
