<svg width="16" height="17" viewBox="0 0 16 17" fill="none" xmlns="http://www.w3.org/2000/svg">
<path d="M3.81161 5.51406L3.21733 5.51406C2.7945 5.51406 2.38899 5.71149 2.09 6.06291C1.79101 6.41432 1.62305 6.89095 1.62305 7.38793L1.62305 13.9464C1.62305 14.4434 1.79102 14.9201 2.09 15.2715C2.38899 15.6229 2.7945 15.8203 3.21733 15.8203L12.783 15.8203C13.2059 15.8203 13.6114 15.6229 13.9104 15.2715C14.2093 14.9201 14.3773 14.4434 14.3773 13.9464L14.3773 7.38793C14.3773 6.89095 14.2093 6.41432 13.9104 6.06291C13.6114 5.71149 13.2059 5.51406 12.783 5.51406L12.1887 5.51406" stroke="#6C778B" stroke-linecap="round" stroke-linejoin="round"/>
<path d="M8.00007 9.84766L8.00007 0.866532M8.00007 0.866532L5.44922 3.41738M8.00007 0.866532L10.5509 3.41738" stroke="#6C778B" stroke-linecap="round" stroke-linejoin="round"/>
</svg>
