<svg width="32" height="33" viewBox="0 0 32 33" fill="none" xmlns="http://www.w3.org/2000/svg">
<path d="M31.501 16.5C31.501 25.0604 24.5614 32 16.001 32C7.44056 32 0.500977 25.0604 0.500977 16.5C0.500977 7.93959 7.44056 1 16.001 1C24.5614 1 31.501 7.93959 31.501 16.5Z" fill="#FCDF02" stroke="white"/>
<path d="M15.8757 8.5C15.9414 8.5 16.0054 8.5 16.0712 8.5C16.2632 8.51651 16.4427 8.57844 16.5991 8.71261C16.8533 8.93348 16.9866 9.2204 17.0044 9.59815C17.024 9.99447 16.896 10.3 16.6525 10.5559C16.608 10.6034 16.5618 10.6447 16.5103 10.6777C16.4072 10.7458 16.4036 10.7603 16.4551 10.88C16.5565 11.1174 16.6702 11.3465 16.7787 11.5798C17.0275 12.1185 17.2835 12.6531 17.5395 13.1898C17.783 13.7018 18.0248 14.2137 18.2736 14.7215C18.494 15.1735 18.7091 15.6276 18.9349 16.0756C18.9526 16.1107 18.9704 16.1478 18.99 16.1808C19.0522 16.2799 19.118 16.3026 19.2122 16.2448C19.5055 16.0653 19.7899 15.8671 20.0743 15.6689C20.5791 15.316 21.0804 14.9568 21.5835 14.6017C21.8003 14.449 22.0172 14.2921 22.2358 14.1394C22.3158 14.0836 22.3194 14.0733 22.2589 13.9928C22.083 13.7657 22.0048 13.4953 22.0065 13.1981C22.0136 12.296 22.8011 11.7449 23.489 12.1598C23.7059 12.2919 23.8694 12.4963 23.9619 12.7687C23.9939 12.8637 23.9814 12.9648 24.001 13.0598C24.001 13.1692 24.001 13.2807 24.001 13.3901C23.9228 13.9288 23.5939 14.3004 23.1175 14.3664C23.0002 14.3829 22.9451 14.4345 22.9131 14.5687C22.7531 15.2458 22.5789 15.9166 22.4083 16.5896C22.0332 18.0778 21.6652 19.5682 21.2724 21.0523C21.2439 21.1576 21.2137 21.2629 21.1782 21.364C21.1071 21.5581 21.0342 21.6159 20.8529 21.6159C18.0301 21.6159 15.2073 21.6159 12.3863 21.6159C11.9685 21.6159 11.5508 21.6097 11.1331 21.6179C10.9766 21.622 10.8895 21.5374 10.8327 21.3847C10.7402 21.1349 10.6798 20.8707 10.6105 20.6127C10.3758 19.7251 10.1554 18.8333 9.93143 17.9416C9.71279 17.0705 9.49237 16.1994 9.2755 15.3283C9.20618 15.0476 9.13152 14.7689 9.06219 14.4882C9.04442 14.4139 9.01064 14.3747 8.93776 14.3706C8.47381 14.3499 8.08808 13.9618 8.00098 13.4334C8.00098 13.3096 8.00098 13.1857 8.00098 13.0619C8.00631 12.8492 8.06141 12.6593 8.17518 12.4921C8.68712 11.7408 9.62746 11.9286 9.91543 12.7398C10.0612 13.1486 10.031 13.5635 9.78567 13.9309C9.68257 14.0878 9.65235 14.0589 9.81944 14.1786C10.4611 14.6327 11.1029 15.091 11.7463 15.543C12.0841 15.7804 12.42 16.0178 12.7667 16.2345C12.8911 16.3109 12.9569 16.2882 13.0315 16.1458C13.2519 15.7143 13.4617 15.2747 13.6732 14.8371C13.8617 14.4469 14.0501 14.0568 14.235 13.6646C14.4749 13.1589 14.7167 12.6531 14.9566 12.1474C15.1522 11.7346 15.3495 11.3217 15.5361 10.9048C15.6019 10.7582 15.5966 10.7624 15.4793 10.6715C14.9673 10.2793 14.8127 9.56512 15.1895 8.95619C15.353 8.68784 15.5859 8.5289 15.8757 8.5Z" fill="white"/>
<path d="M12.854 24.4812C12.3741 24.4729 11.8942 24.4626 11.4142 24.4585C11.2862 24.4585 11.1778 24.4151 11.0782 24.3243C10.8472 24.1096 10.6996 23.8475 10.7547 23.4883C10.8027 23.1684 10.9929 22.9681 11.2204 22.8133C11.2809 22.772 11.3591 22.7906 11.4302 22.7886C12.2497 22.7679 13.0709 22.7617 13.8904 22.7617C15.668 22.7617 17.4438 22.7617 19.2213 22.7658C19.6515 22.7658 20.0799 22.7927 20.5101 22.7803C20.8318 22.77 21.0274 22.9578 21.1678 23.2571C21.3633 23.6741 21.1571 24.2706 20.7678 24.4337C20.7092 24.4585 20.647 24.4585 20.583 24.4605C20.1439 24.4688 19.7066 24.4771 19.2676 24.4833C19.0542 24.4977 18.8409 24.4853 18.6276 24.4894C18.3557 24.4894 18.0837 24.4894 17.8117 24.4894C17.4171 24.4894 17.0207 24.4894 16.6261 24.4894C16.5941 24.4894 16.5603 24.4791 16.5301 24.4998C16.1746 24.4998 15.819 24.4998 15.4635 24.4998C15.4333 24.4791 15.3995 24.4894 15.3675 24.4894C14.9605 24.4894 14.5552 24.4894 14.1481 24.4894C13.9455 24.4894 13.7446 24.4894 13.542 24.4894C13.3162 24.4832 13.0851 24.4956 12.854 24.4812Z" fill="white"/>
<path d="M14.1497 24.4805C14.5763 24.4805 15.0012 24.4805 15.4278 24.4805C15.4402 24.4805 15.4545 24.4928 15.4669 24.499C15.0278 24.499 14.5906 24.499 14.1515 24.499C14.1462 24.4949 14.1444 24.4928 14.1462 24.4887C14.1462 24.4825 14.148 24.4805 14.1497 24.4805Z" fill="#525252"/>
<path d="M16.5322 24.4951C16.5411 24.4786 16.5553 24.4766 16.5713 24.4766C16.9855 24.4766 17.3997 24.4786 17.8157 24.4786C17.8192 24.4827 17.821 24.4868 17.8192 24.491C17.8174 24.4951 17.8157 24.4951 17.8139 24.4951C17.3855 24.4951 16.9589 24.4951 16.5322 24.4951Z" fill="#4B4B4B"/>
<path d="M17.8115 24.5008C17.8133 24.4947 17.8133 24.4905 17.8133 24.4844C18.0853 24.4844 18.3572 24.4844 18.6292 24.4844C18.6345 24.4885 18.6363 24.4926 18.6327 24.4967C18.631 24.5008 18.6292 24.5029 18.6274 24.5029C18.3572 24.5008 18.0835 24.5008 17.8115 24.5008Z" fill="#9B9B9B"/>
<path d="M12.8545 24.4805C13.0856 24.4805 13.3167 24.4805 13.5477 24.4805C13.5549 24.4846 13.5566 24.4866 13.5549 24.4907C13.5531 24.4949 13.5513 24.4969 13.5495 24.4969C13.3184 24.4969 13.0874 24.4969 12.8563 24.4969C12.8545 24.4907 12.8545 24.4846 12.8545 24.4805Z" fill="#CDCDCD"/>
<path d="M18.6299 24.4969C18.6299 24.4907 18.6299 24.4846 18.6317 24.4805C18.845 24.4805 19.0583 24.4805 19.2716 24.4805C19.2716 24.4866 19.2716 24.4928 19.2716 24.4969C19.0565 24.4969 18.8432 24.4969 18.6299 24.4969Z" fill="#DCDCDC"/>
<path d="M13.5457 24.4969C13.5457 24.4907 13.5457 24.4866 13.5439 24.4805C13.7448 24.4805 13.9457 24.4805 14.1465 24.4805C14.1483 24.4866 14.1483 24.4928 14.1483 24.4969C13.9492 24.4969 13.7466 24.4969 13.5457 24.4969Z" fill="#9C9C9C"/>
</svg>
