<svg width="11" height="12" viewBox="0 0 11 12" fill="none" xmlns="http://www.w3.org/2000/svg">
<path d="M5.49991 7.09748C6.39624 7.09748 7.12287 6.37085 7.12287 5.47452C7.12287 4.57818 6.39624 3.85156 5.49991 3.85156C4.60358 3.85156 3.87695 4.57818 3.87695 5.47452C3.87695 6.37085 4.60358 7.09748 5.49991 7.09748Z" stroke="#2C3E50" stroke-linecap="round" stroke-linejoin="round"/>
<path d="M8.56012 8.53652L6.26472 10.8319C6.06184 11.0346 5.7868 11.1484 5.50003 11.1484C5.21326 11.1484 4.93823 11.0346 4.73535 10.8319L2.43941 8.53652C1.83416 7.93125 1.42199 7.16009 1.25502 6.32057C1.08805 5.48105 1.17376 4.61087 1.50134 3.82006C1.82891 3.02926 2.38363 2.35335 3.09534 1.8778C3.80705 1.40226 4.6438 1.14844 5.49976 1.14844C6.35573 1.14844 7.19247 1.40226 7.90418 1.8778C8.61589 2.35335 9.17061 3.02926 9.49818 3.82006C9.82576 4.61087 9.91148 5.48105 9.7445 6.32057C9.57753 7.16009 9.16536 7.93125 8.56012 8.53652V8.53652Z" stroke="#2C3E50" stroke-linecap="round" stroke-linejoin="round"/>
</svg>
