<svg width="24" height="24" viewBox="0 0 24 24" fill="none" xmlns="http://www.w3.org/2000/svg">
<path d="M1.84798 20.6539C2.40096 21.2069 3.22673 21.1626 4.15573 20.7497L20.8703 13.2809C21.2906 13.0965 21.6224 12.8827 21.851 12.6542C22.3671 12.1381 22.3744 11.4819 21.851 10.9584C21.6224 10.7298 21.2832 10.5234 20.863 10.339L4.08937 2.84069C3.24148 2.46467 2.40833 2.39831 1.84798 2.95866C1.16966 3.63698 1.4056 4.40377 1.88484 5.31065L4.33268 9.92616C4.68659 10.5897 4.99625 10.8846 5.69669 10.9215L20.745 11.5187C20.9367 11.5335 21.0473 11.6588 21.0473 11.8063C21.0547 11.9611 20.9367 12.0938 20.7376 12.1012L5.70406 12.7279C5.05524 12.7574 4.69396 13.0597 4.33268 13.7159L1.92171 18.2503C1.42034 19.1793 1.16966 19.9756 1.84798 20.6539Z" fill="#7778E5"/>
</svg>
