<svg width="16" height="17" viewBox="0 0 16 17" fill="none" xmlns="http://www.w3.org/2000/svg">
<path d="M13.619 0.851716H2.37585C1.88318 0.851661 1.41027 1.04543 1.05927 1.39116C0.708282 1.73688 0.50739 2.20682 0.5 2.69943V11.1067C0.500997 11.3514 0.550405 11.5935 0.645376 11.8191C0.740347 12.0446 0.879006 12.2492 1.05337 12.4209C1.22773 12.5927 1.43434 12.7282 1.66131 12.8198C1.88829 12.9113 2.13113 12.9571 2.37585 12.9544H5.18963V15.4135C5.18935 15.4786 5.20721 15.5426 5.2412 15.5982C5.27519 15.6538 5.32398 15.6988 5.38211 15.7283C5.44023 15.7578 5.50541 15.7705 5.57035 15.765C5.63529 15.7596 5.69744 15.7361 5.74983 15.6974L9.40774 12.9544H13.6241C14.1168 12.9544 14.5897 12.7607 14.9407 12.4149C15.2917 12.0692 15.4926 11.5993 15.5 11.1067V2.69943C15.4988 2.45432 15.4491 2.21188 15.3537 1.98608C15.2583 1.76029 15.1192 1.5556 14.9443 1.38383C14.7695 1.21207 14.5623 1.07661 14.3349 0.985286C14.1074 0.893958 13.8641 0.848562 13.619 0.851716ZM14.5825 11.1595C14.5825 11.4083 14.4837 11.6468 14.3078 11.8227C14.1319 11.9986 13.8934 12.0975 13.6446 12.0975H9.42565C9.22271 12.0975 9.02524 12.1633 8.86289 12.285L6.14887 14.3237V12.5647C6.14887 12.4406 6.09956 12.3215 6.01177 12.2337C5.92398 12.1459 5.80491 12.0966 5.68076 12.0966H2.40058C2.15183 12.0966 1.91326 11.9978 1.73737 11.8219C1.56147 11.646 1.46265 11.4074 1.46265 11.1587V2.72757C1.46265 2.47882 1.56147 2.24025 1.73737 2.06436C1.91326 1.88846 2.15183 1.78964 2.40058 1.78964H13.6455C13.8942 1.78964 14.1328 1.88846 14.3087 2.06436C14.4846 2.24025 14.5834 2.47882 14.5834 2.72757L14.5825 11.1595Z" fill="#6C778B"/>
</svg>
