<svg width="16" height="17" viewBox="0 0 16 17" fill="none" xmlns="http://www.w3.org/2000/svg">
<path d="M3.81161 5.35391L3.21733 5.35391C2.7945 5.35391 2.38899 5.55133 2.09 5.90275C1.79101 6.25417 1.62305 6.73079 1.62305 7.22777L1.62305 13.7863C1.62305 14.2833 1.79102 14.7599 2.09 15.1113C2.38899 15.4627 2.7945 15.6602 3.21733 15.6602L12.783 15.6602C13.2059 15.6602 13.6114 15.4627 13.9104 15.1113C14.2093 14.7599 14.3773 14.2833 14.3773 13.7863L14.3773 7.22777C14.3773 6.73079 14.2093 6.25417 13.9104 5.90275C13.6114 5.55133 13.2059 5.35391 12.783 5.35391L12.1887 5.35391" stroke="#6C778B" stroke-linecap="round" stroke-linejoin="round"/>
<path d="M8.00007 9.6875L8.00007 0.706376M8.00007 0.706376L5.44922 3.25723M8.00007 0.706376L10.5509 3.25723" stroke="#6C778B" stroke-linecap="round" stroke-linejoin="round"/>
</svg>
