<svg width="24" height="24" viewBox="0 0 24 24" fill="none" xmlns="http://www.w3.org/2000/svg">
<path d="M1.84749 20.6539C2.40047 21.2069 3.22624 21.1626 4.15524 20.7497L20.8699 13.2809C21.2901 13.0965 21.6219 12.8827 21.8505 12.6542C22.3666 12.1381 22.374 11.4819 21.8505 10.9584C21.6219 10.7298 21.2827 10.5234 20.8625 10.339L4.08889 2.84069C3.24099 2.46467 2.40784 2.39831 1.84749 2.95866C1.16917 3.63698 1.40511 4.40377 1.88436 5.31065L4.3322 9.92616C4.6861 10.5897 4.99577 10.8846 5.6962 10.9215L20.7445 11.5187C20.9362 11.5335 21.0468 11.6588 21.0468 11.8063C21.0542 11.9611 20.9362 12.0938 20.7371 12.1012L5.70358 12.7279C5.05475 12.7574 4.69347 13.0597 4.3322 13.7159L1.92122 18.2503C1.41986 19.1793 1.16917 19.9756 1.84749 20.6539Z" fill="#7778E5"/>
</svg>
