<svg width="25" height="24" viewBox="0 0 25 24" fill="none" xmlns="http://www.w3.org/2000/svg">
<g clip-path="url(#clip0_2103_96371)">
<path d="M10.327 4.317C10.753 2.561 13.251 2.561 13.677 4.317C13.7409 4.5808 13.8662 4.82578 14.0427 5.032C14.2192 5.23822 14.4418 5.39985 14.6926 5.50375C14.9434 5.60764 15.2151 5.65085 15.4857 5.62987C15.7564 5.60889 16.0182 5.5243 16.25 5.383C17.793 4.443 19.56 6.209 18.62 7.753C18.4789 7.98466 18.3944 8.24634 18.3735 8.51677C18.3525 8.78721 18.3957 9.05877 18.4995 9.30938C18.6033 9.55999 18.7647 9.78258 18.9707 9.95905C19.1767 10.1355 19.4214 10.2609 19.685 10.325C21.441 10.751 21.441 13.249 19.685 13.675C19.4212 13.7389 19.1762 13.8642 18.97 14.0407C18.7637 14.2172 18.6021 14.4399 18.4982 14.6907C18.3943 14.9414 18.3511 15.2132 18.3721 15.4838C18.3931 15.7544 18.4777 16.0162 18.619 16.248C19.559 17.791 17.793 19.558 16.249 18.618C16.0173 18.4769 15.7556 18.3924 15.4852 18.3715C15.2147 18.3506 14.9432 18.3938 14.6926 18.4975C14.442 18.6013 14.2194 18.7627 14.0429 18.9687C13.8664 19.1747 13.741 19.4194 13.677 19.683C13.251 21.439 10.753 21.439 10.327 19.683C10.263 19.4192 10.1377 19.1742 9.96124 18.968C9.78475 18.7618 9.56206 18.6001 9.3113 18.4963C9.06054 18.3924 8.78879 18.3491 8.51817 18.3701C8.24755 18.3911 7.98571 18.4757 7.75395 18.617C6.21095 19.557 4.44395 17.791 5.38395 16.247C5.52505 16.0153 5.6095 15.7537 5.63044 15.4832C5.65137 15.2128 5.6082 14.9412 5.50443 14.6906C5.40065 14.44 5.23921 14.2174 5.03323 14.0409C4.82724 13.8645 4.58252 13.7391 4.31895 13.675C2.56295 13.249 2.56295 10.751 4.31895 10.325C4.58275 10.2611 4.82773 10.1358 5.03395 9.95929C5.24017 9.7828 5.40181 9.56011 5.5057 9.30935C5.60959 9.05859 5.6528 8.78683 5.63182 8.51621C5.61084 8.24559 5.52626 7.98375 5.38495 7.752C4.44495 6.209 6.21095 4.442 7.75495 5.382C8.75495 5.99 10.051 5.452 10.327 4.317Z" stroke="white" stroke-width="1.5" stroke-linecap="round" stroke-linejoin="round"/>
<path d="M12.002 15C13.6588 15 15.002 13.6569 15.002 12C15.002 10.3431 13.6588 9 12.002 9C10.3451 9 9.00195 10.3431 9.00195 12C9.00195 13.6569 10.3451 15 12.002 15Z" stroke="white" stroke-width="1.5" stroke-linecap="round" stroke-linejoin="round"/>
</g>
<defs>
<clipPath id="clip0_2103_96371">
<rect width="24" height="24" fill="white" transform="translate(0.00195312)"/>
</clipPath>
</defs>
</svg>
