<svg width="24" height="24" viewBox="0 0 24 24" fill="none" xmlns="http://www.w3.org/2000/svg">
<path d="M4.19869 18.8722C3.93377 19.1232 3.93377 19.5555 4.19869 19.8065C4.44967 20.0575 4.88192 20.0575 5.1329 19.8065L12.007 12.9317L18.8671 19.8065C19.132 20.0575 19.5503 20.0714 19.8013 19.8065C20.0662 19.5415 20.0662 19.1232 19.8013 18.8722L12.9412 11.9974L19.8013 5.12256C20.0662 4.87155 20.0662 4.45321 19.8013 4.18826C19.5503 3.93725 19.132 3.93725 18.8671 4.18826L12.007 11.0631L5.1329 4.18826C4.88192 3.93725 4.44967 3.93725 4.19869 4.18826C3.93377 4.45321 3.93377 4.87155 4.19869 5.12256L11.0588 11.9974L4.19869 18.8722Z" fill="#283754"/>
</svg>
