<svg width="24" height="25" viewBox="0 0 24 25" fill="none" xmlns="http://www.w3.org/2000/svg">
<path d="M7.21973 9.40234L6.34473 9.40234C5.84745 9.40234 5.37053 9.61306 5.0189 9.98813C4.66727 10.3632 4.46973 10.8719 4.46973 11.4023L4.46973 18.4023C4.46973 18.9328 4.66727 19.4415 5.0189 19.8166C5.37053 20.1916 5.84745 20.4023 6.34473 20.4023L17.5947 20.4023C18.092 20.4023 18.5689 20.1916 18.9206 19.8166C19.2722 19.4415 19.4697 18.9328 19.4697 18.4023L19.4697 11.4023C19.4697 10.8719 19.2722 10.3632 18.9206 9.98813C18.5689 9.61306 18.092 9.40234 17.5947 9.40234L16.7197 9.40234" stroke="#59ACFF" stroke-width="1.5" stroke-linecap="round" stroke-linejoin="round"/>
<path d="M11.9697 14.5L11.9697 3.9375M11.9697 3.9375L8.96973 6.9375M11.9697 3.9375L14.9697 6.9375" stroke="#59ACFF" stroke-width="1.5" stroke-linecap="round" stroke-linejoin="round"/>
</svg>
