<svg width="16" height="17" viewBox="0 0 16 17" fill="none" xmlns="http://www.w3.org/2000/svg">
<path d="M14.443 2.10668C13.6009 1.42097 12.529 1.08213 11.4457 1.15921C10.3624 1.23628 9.34924 1.72347 8.61264 2.52152L7.99767 3.1656L7.38179 2.52152C6.64176 1.73021 5.63004 1.24776 4.54934 1.17083C3.46864 1.0939 2.39879 1.42818 1.55412 2.10668C1.0935 2.50412 0.718611 2.99117 0.452287 3.53816C0.185963 4.08515 0.0337819 4.68063 0.00501406 5.28833C-0.0237538 5.89603 0.0714937 6.50323 0.284955 7.07293C0.498415 7.64263 0.825621 8.16292 1.24664 8.60209L7.28263 14.841C7.37531 14.9372 7.48633 15.0139 7.60914 15.0666C7.73195 15.1192 7.86406 15.1467 7.99767 15.1475C8.12974 15.1474 8.26039 15.1203 8.38162 15.0678C8.50284 15.0154 8.6121 14.9389 8.70271 14.8428L14.7514 8.60027C15.1731 8.16157 15.5008 7.64149 15.7146 7.07183C15.9284 6.50216 16.0238 5.89488 15.995 5.2871C15.9661 4.67931 15.8136 4.0838 15.5467 3.53696C15.2799 2.99012 14.9044 2.50345 14.443 2.10668ZM14.0373 7.9016L8.01314 14.1514L1.9635 7.9016C1.63836 7.56084 1.38585 7.15756 1.22129 6.71625C1.05673 6.27495 0.983537 5.80481 1.00617 5.33436C1.0288 4.86391 1.14677 4.40296 1.35293 3.97949C1.55909 3.55601 1.84914 3.17884 2.20548 2.87085C2.85783 2.35993 3.67856 2.11323 4.50449 2.17981C5.33042 2.24639 6.10104 2.62137 6.66311 3.23019L8.00222 4.60569L9.33769 3.22655C9.90267 2.62256 10.6726 2.25102 11.497 2.18457C12.3214 2.11811 13.1409 2.36152 13.7953 2.86721C14.1515 3.17562 14.4414 3.55307 14.6476 3.97673C14.8537 4.40039 14.9718 4.86146 14.9947 5.33205C15.0176 5.80265 14.9448 6.273 14.7807 6.71465C14.6166 7.15631 14.3646 7.5601 14.04 7.9016H14.0373Z" fill="#6C778B"/>
</svg>
