<svg width="24" height="24" viewBox="0 0 24 24" fill="none" xmlns="http://www.w3.org/2000/svg">
<path d="M22.9985 12.0014C23.0034 12.1061 22.9871 12.2108 22.9506 12.3091C22.9142 12.4073 22.8583 12.4973 22.7864 12.5735C22.7144 12.6498 22.6279 12.7107 22.5319 12.7528C22.4359 12.7949 22.3324 12.8172 22.2275 12.8184H3.66054L10.5855 20.4374C10.6577 20.5167 10.7135 20.6095 10.7497 20.7104C10.786 20.8112 10.802 20.9183 10.7969 21.0253C10.7918 21.1324 10.7657 21.2374 10.72 21.3344C10.6742 21.4314 10.6099 21.5184 10.5305 21.5904C10.3782 21.7246 10.1825 21.7992 9.97954 21.8004C9.86636 21.8002 9.75449 21.7762 9.65114 21.73C9.5478 21.6839 9.45528 21.6165 9.37954 21.5324L1.21454 12.5504C1.07716 12.4002 1.00098 12.204 1.00098 12.0004C1.00098 11.7969 1.07716 11.6007 1.21454 11.4504L9.37954 2.46844C9.45177 2.38905 9.53892 2.32467 9.63603 2.27897C9.73314 2.23327 9.8383 2.20714 9.9455 2.20208C10.0527 2.19702 10.1599 2.21312 10.2608 2.24947C10.3618 2.28582 10.4547 2.34171 10.534 2.41393C10.6134 2.48616 10.6778 2.57332 10.7235 2.67043C10.7692 2.76753 10.7953 2.87269 10.8004 2.9799C10.8055 3.0871 10.7894 3.19425 10.753 3.29524C10.7167 3.39622 10.6608 3.48905 10.5885 3.56844L3.66454 11.1854H22.2275C22.3323 11.1867 22.4357 11.209 22.5316 11.251C22.6276 11.293 22.7141 11.3539 22.786 11.43C22.8579 11.5061 22.9138 11.596 22.9503 11.6941C22.9868 11.7923 23.0032 11.8968 22.9985 12.0014Z" fill="white"/>
</svg>
