<svg width="375" height="221" viewBox="0 0 375 221" fill="none" xmlns="http://www.w3.org/2000/svg">
<rect width="375" height="221" fill="#F0F8FF"/>
<path d="M15.754 22.485H27.259V24.071H15.754V22.485ZM18.432 28.387H24.464V29.973H18.432V28.387ZM20.655 19.963H22.319V32.17H20.655V19.963ZM20.187 23.057L21.617 23.512C20.499 26.346 18.653 28.829 16.378 30.259C16.118 29.869 15.598 29.271 15.247 28.959C17.379 27.789 19.264 25.449 20.187 23.057ZM22.787 23.096C23.736 25.41 25.634 27.672 27.818 28.803C27.428 29.128 26.869 29.778 26.609 30.22C24.321 28.816 22.501 26.333 21.37 23.564L22.787 23.096ZM29.989 20.743H39.063V32.001H37.386V22.316H31.601V32.014H29.989V20.743ZM31.094 25.111H38.088V26.658H31.094V25.111ZM31.081 29.596H38.088V31.169H31.081V29.596ZM48.683 22.095C48.501 23.421 48.241 24.942 47.786 26.476C47.006 29.102 45.888 30.714 44.471 30.714C43.015 30.714 41.819 29.115 41.819 26.918C41.819 23.928 44.432 21.354 47.799 21.354C51.01 21.354 53.051 23.59 53.051 26.437C53.051 29.167 51.374 31.104 48.098 31.611L47.11 30.077C47.617 30.012 47.981 29.947 48.332 29.869C49.983 29.466 51.283 28.283 51.283 26.372C51.283 24.331 50.009 22.875 47.76 22.875C45.004 22.875 43.496 25.124 43.496 26.762C43.496 28.075 44.016 28.712 44.51 28.712C45.069 28.712 45.563 27.88 46.109 26.125C46.486 24.903 46.772 23.408 46.902 22.043L48.683 22.095ZM59.044 23.876H66.61V25.111H59.044V23.876ZM60.123 22.186H64.699V23.278H60.123V22.186ZM62.424 24.331L63.581 24.747C62.736 25.787 61.254 26.684 59.928 27.217C59.772 26.957 59.382 26.424 59.135 26.19C60.396 25.787 61.722 25.124 62.424 24.331ZM60.838 26.32L61.943 25.761C64.53 27.724 64.257 30.922 63.204 31.754C62.853 32.066 62.515 32.17 61.995 32.183C61.735 32.183 61.488 32.17 61.228 32.157C61.202 31.806 61.137 31.286 60.903 30.87C61.228 30.922 61.436 30.948 61.709 30.948C61.956 30.948 62.164 30.896 62.294 30.675C62.788 30.168 62.905 27.893 60.838 26.32ZM64.114 24.643C64.517 26.905 65.362 29.037 66.753 30.103C66.428 30.363 65.96 30.896 65.739 31.273C64.231 29.947 63.399 27.555 62.931 24.877L64.114 24.643ZM65.674 25.54L66.649 26.658C65.934 27.139 65.271 27.659 64.725 27.984L64.036 27.113C64.53 26.749 65.271 26.034 65.674 25.54ZM61.852 26.58L62.775 27.191C62.073 27.893 60.76 28.751 59.746 29.232C59.564 28.92 59.239 28.465 58.966 28.205C59.941 27.893 61.228 27.204 61.852 26.58ZM62.424 27.997L63.386 28.634C62.476 29.752 60.734 30.961 59.33 31.611C59.122 31.273 58.771 30.831 58.485 30.571C59.915 30.09 61.605 29.011 62.424 27.997ZM59.863 20.405H65.232V24.279H63.763V21.575H59.863V20.405ZM56.327 19.976L57.64 20.431C57.12 21.445 56.522 22.602 56.041 23.33L55.027 22.914C55.482 22.134 56.041 20.873 56.327 19.976ZM57.718 21.51L58.953 22.069C58.043 23.538 56.86 25.345 55.911 26.45L55.04 25.969C55.963 24.799 57.081 22.901 57.718 21.51ZM54.312 22.966L55.079 21.939C55.742 22.563 56.522 23.421 56.834 24.006L56.015 25.176C55.729 24.539 54.962 23.616 54.312 22.966ZM57.328 24.565L58.355 24.149C58.823 25.046 59.278 26.229 59.395 26.996L58.303 27.464C58.199 26.71 57.783 25.488 57.328 24.565ZM54.273 25.67C55.391 25.618 56.977 25.514 58.537 25.41L58.55 26.697C57.107 26.814 55.599 26.918 54.442 27.009L54.273 25.67ZM57.536 27.828L58.576 27.516C58.875 28.244 59.135 29.18 59.213 29.804L58.121 30.155C58.056 29.531 57.822 28.556 57.536 27.828ZM54.832 27.607L56.041 27.815C55.911 29.05 55.625 30.337 55.261 31.169C55.014 31 54.468 30.753 54.169 30.636C54.533 29.869 54.728 28.699 54.832 27.607ZM56.171 26.359H57.484V32.17H56.171V26.359ZM73.149 20.626C73.058 20.99 72.941 21.575 72.876 21.861C72.694 22.745 72.369 24.331 72.018 25.657C71.55 27.477 70.679 30.129 69.964 31.676L68.157 31.065C68.924 29.752 69.912 27.035 70.406 25.215C70.731 23.993 71.03 22.563 71.121 21.796C71.186 21.315 71.199 20.782 71.16 20.47L73.149 20.626ZM69.834 22.576C71.42 22.576 73.253 22.329 74.943 21.926V23.551C73.331 23.928 71.29 24.149 69.821 24.149C69.184 24.149 68.703 24.123 68.248 24.097L68.196 22.472C68.872 22.55 69.301 22.576 69.834 22.576ZM73.916 24.565C74.644 24.487 75.58 24.435 76.425 24.435C77.166 24.435 77.946 24.474 78.7 24.552L78.674 26.112C78.011 26.034 77.218 25.943 76.438 25.943C75.541 25.943 74.735 25.982 73.916 26.086V24.565ZM74.618 27.828C74.527 28.205 74.449 28.621 74.449 28.907C74.449 29.479 74.826 29.908 76.23 29.908C77.101 29.908 77.998 29.817 78.921 29.648L78.856 31.299C78.128 31.403 77.257 31.481 76.217 31.481C74.02 31.481 72.85 30.74 72.85 29.427C72.85 28.816 72.967 28.192 73.071 27.685L74.618 27.828ZM89.087 20.808C88.97 21.172 88.853 21.809 88.775 22.121C88.229 24.422 87.384 27.126 86.136 28.699C84.94 30.207 84.108 30.883 82.912 30.883C81.833 30.883 80.845 29.973 80.845 28.296C80.845 26.554 81.846 24.695 83.367 23.72C84.758 22.823 86.071 22.498 87.462 22.498C90.14 22.498 92.064 24.305 92.064 27.009C92.064 29.765 90.101 31.351 87.384 31.767L86.396 30.259C89.256 30.012 90.374 28.556 90.374 26.931C90.374 25.163 89.165 23.941 87.293 23.941C85.941 23.941 84.888 24.435 83.978 25.098C82.964 25.813 82.366 27.087 82.366 28.153C82.366 28.79 82.639 29.193 83.094 29.193C83.77 29.193 84.485 28.361 85.161 27.334C86.162 25.865 86.916 23.473 87.189 21.874C87.254 21.497 87.293 20.951 87.28 20.639L89.087 20.808ZM83.601 21.237C83.666 21.679 83.77 22.108 83.874 22.485C84.277 23.941 84.966 25.93 85.564 26.866C86.006 27.568 86.617 28.387 87.228 28.959L85.902 30.012C85.395 29.44 85.005 28.946 84.589 28.283C83.796 27.126 83.016 25.046 82.418 23.122C82.275 22.667 82.119 22.251 81.885 21.783L83.601 21.237ZM98.772 26.112H100.397V30.48C100.397 31.286 100.202 31.702 99.591 31.91C98.98 32.131 98.135 32.157 97.017 32.157C96.926 31.715 96.666 31.065 96.445 30.649C97.212 30.688 98.187 30.688 98.447 30.675C98.694 30.662 98.772 30.623 98.772 30.428V26.112ZM94.859 20.691H102.841V22.121H94.859V20.691ZM102.256 20.691H102.672L103.023 20.6L104.141 21.484C103.036 22.576 101.502 23.811 100.111 24.578C99.903 24.266 99.435 23.785 99.175 23.538C100.306 22.901 101.671 21.77 102.256 21.029V20.691ZM93.598 24.929H104.219V26.411H93.598V24.929ZM96.679 23.785L97.459 22.615C98.876 23.096 101.112 23.915 102.243 24.422L101.411 25.761C100.358 25.241 98.174 24.344 96.679 23.785ZM103.699 24.929H103.998L104.271 24.825L105.545 25.371C104.973 26.593 104.193 27.906 103.452 28.777L102.126 28.01C102.672 27.282 103.335 26.138 103.699 25.189V24.929ZM108.899 23.889H116.088V25.371H108.899V23.889ZM112.487 27.009H116.881V28.465H112.487V27.009ZM111.668 24.747H113.306V31.026L111.668 30.831V24.747ZM108.561 26.099L110.199 26.268C109.861 28.907 109.055 30.974 107.573 32.248C107.313 31.975 106.65 31.416 106.286 31.182C107.69 30.142 108.34 28.335 108.561 26.099ZM109.822 27.724C110.654 30.116 112.474 30.48 114.788 30.48C115.477 30.48 117.648 30.48 118.519 30.454C118.298 30.818 118.038 31.572 117.973 32.04H114.697C111.694 32.04 109.666 31.429 108.548 28.153L109.822 27.724ZM111.642 19.976H113.306V22.355H111.642V19.976ZM106.91 21.289H118.09V24.552H116.478V22.771H108.444V24.552H106.91V21.289Z" fill="#3E507C"/>
<path d="M16.053 61V59.453H18.133V53.369H16.378V52.186C17.353 52.004 18.003 51.757 18.627 51.38H20.044V59.453H21.851V61H16.053ZM25.957 50.769H32.743V51.718H25.957V50.769ZM25.957 53.902H32.795V54.838H25.957V53.902ZM25.853 57.048H32.73V57.984H25.853V57.048ZM25.359 50.769H26.347V54.786C26.347 57.035 26.022 60.103 23.786 62.053C23.643 61.845 23.253 61.494 23.045 61.351C25.138 59.518 25.359 56.879 25.359 54.786V50.769ZM32.314 50.769H33.328V60.61C33.328 61.299 33.146 61.637 32.652 61.806C32.145 61.975 31.287 61.988 29.883 61.988C29.818 61.702 29.636 61.234 29.467 60.961C30.546 61 31.612 60.987 31.911 60.987C32.21 60.974 32.314 60.883 32.314 60.597V50.769ZM36.721 61V59.453H38.801V53.369H37.046V52.186C38.021 52.004 38.671 51.757 39.295 51.38H40.712V59.453H42.519V61H36.721ZM47.1579 61.182C45.3119 61.182 43.9469 60.129 43.9469 58.621C43.9469 57.386 44.7009 56.567 45.5849 56.099V56.047C44.8569 55.514 44.3109 54.773 44.3109 53.759C44.3109 52.212 45.5459 51.224 47.2229 51.224C48.9259 51.224 50.0179 52.238 50.0179 53.772C50.0179 54.734 49.4069 55.527 48.7829 55.982V56.047C49.6669 56.528 50.3949 57.295 50.3949 58.621C50.3949 60.077 49.0949 61.182 47.1579 61.182ZM47.7689 55.514C48.2369 55.02 48.4579 54.474 48.4579 53.902C48.4579 53.109 47.9769 52.563 47.1839 52.563C46.5209 52.563 46.0009 52.992 46.0009 53.759C46.0009 54.656 46.7549 55.111 47.7689 55.514ZM47.1969 59.83C48.0289 59.83 48.6139 59.375 48.6139 58.543C48.6139 57.542 47.7169 57.139 46.4819 56.619C45.9489 57.035 45.5849 57.685 45.5849 58.4C45.5849 59.271 46.2999 59.83 47.1969 59.83ZM53.2919 50.964H61.8069V61.845H60.7799V51.952H54.2929V61.897H53.2919V50.964ZM53.9549 55.475H61.2089V56.437H53.9549V55.475ZM53.9419 60.077H61.2349V61.052H53.9419V60.077ZM64.7059 53.421H68.6189V54.396H64.7059V53.421ZM70.0099 50.119H71.0239V60.675C71.0239 61.364 70.8419 61.676 70.4129 61.845C69.9709 62.027 69.2169 62.053 68.0079 62.053C67.9689 61.767 67.7739 61.286 67.6179 60.987C68.5539 61.026 69.3859 61.013 69.6589 61.013C69.9059 61 70.0099 60.922 70.0099 60.675V50.119ZM68.2809 53.421H68.4889L68.6579 53.382L69.3209 53.629C68.6579 57.061 67.0849 59.492 65.1739 60.792C65.0049 60.558 64.6149 60.168 64.3809 60.012C66.2399 58.842 67.7349 56.619 68.2809 53.642V53.421ZM70.9719 52.238C71.8689 55.735 73.7279 58.894 76.6399 60.168C76.3929 60.363 76.0549 60.753 75.8859 61.052C72.9219 59.583 71.1539 56.268 70.1919 52.42L70.9719 52.238ZM75.2099 52.199L76.1069 52.836C75.0409 54.019 73.5589 55.449 72.4279 56.32L71.7389 55.774C72.8439 54.877 74.3519 53.356 75.2099 52.199ZM82.1259 52.199H84.7909V52.888H82.1259V52.199ZM81.9049 50.574H85.1809V54.565H81.8919V53.85H84.3229V51.276H81.9049V50.574ZM85.8959 52.199H88.6389V52.888H85.8959V52.199ZM85.7139 50.574H89.0549V54.565H85.7009V53.85H88.1969V51.276H85.7139V50.574ZM83.0619 57.36H88.8339V58.049H83.0619V57.36ZM83.0619 59.05H88.8339V59.739H83.0619V59.05ZM83.1009 60.818H89.4839V61.572H83.1009V60.818ZM83.3609 54.383L84.2709 54.656C83.6859 55.917 82.7239 57.308 81.6709 58.205C81.5279 58.023 81.2549 57.711 81.0859 57.555C82.0349 56.749 82.9319 55.462 83.3609 54.383ZM83.4389 55.592H89.1589V56.359H83.4389V61.975H82.5419V56.385L83.2959 55.592H83.4389ZM86.0779 54.461L87.0399 54.682C86.7539 55.254 86.4289 55.852 86.1689 56.255L85.4409 56.034C85.6619 55.579 85.9479 54.903 86.0779 54.461ZM85.4539 56.177H86.3249V61.104H85.4539V56.177ZM78.4599 50.899H81.3589V59.531H78.4599V58.66H80.4749V51.783H78.4599V50.899ZM78.5119 54.708H80.9299V55.579H78.5119V54.708ZM78.0049 50.899H78.8759V60.61H78.0049V50.899ZM92.2919 50.964H100.807V61.845H99.7799V51.952H93.2929V61.897H92.2919V50.964ZM92.9549 55.475H100.209V56.437H92.9549V55.475ZM92.9419 60.077H100.235V61.052H92.9419V60.077Z" fill="#3E507C"/>
<path d="M19.608 82.676H26.52V83.432H19.608V82.676ZM20.664 81.068H24.888V81.74H20.664V81.068ZM22.812 82.952L23.508 83.192C22.764 84.14 21.432 84.956 20.256 85.46C20.16 85.304 19.92 84.992 19.752 84.848C20.916 84.428 22.152 83.744 22.812 82.952ZM21.552 84.488L22.176 84.14C24.36 85.844 24.3 88.892 23.364 89.636C23.076 89.9 22.8 89.972 22.368 89.984C22.14 89.984 21.876 89.972 21.588 89.96C21.576 89.756 21.528 89.432 21.396 89.192C21.72 89.24 21.972 89.252 22.2 89.252C22.452 89.252 22.656 89.228 22.824 89.036C23.424 88.496 23.436 85.988 21.552 84.488ZM23.892 83.12C24.324 85.412 25.236 87.512 26.664 88.472C26.472 88.628 26.196 88.928 26.064 89.156C24.576 88.016 23.664 85.796 23.184 83.264L23.892 83.12ZM25.872 84.044L26.46 84.68C25.836 85.208 25.116 85.784 24.552 86.156L24.108 85.64C24.648 85.244 25.428 84.536 25.872 84.044ZM22.464 85.028L23.028 85.4C22.38 86.06 21.156 86.852 20.196 87.284C20.088 87.092 19.884 86.804 19.716 86.648C20.64 86.336 21.864 85.64 22.464 85.028ZM23.016 86.348L23.604 86.744C22.74 87.812 21.072 88.94 19.68 89.516C19.56 89.312 19.344 89.036 19.164 88.88C20.568 88.412 22.224 87.356 23.016 86.348ZM20.376 79.412H25.212V82.928H24.36V80.12H20.376V79.412ZM17.352 78.932L18.12 79.22C17.688 80.108 17.124 81.188 16.68 81.86L16.08 81.596C16.5 80.9 17.052 79.724 17.352 78.932ZM18.624 80.3L19.368 80.636C18.576 81.968 17.472 83.672 16.608 84.704L16.068 84.416C16.92 83.348 18 81.56 18.624 80.3ZM15.432 81.416L15.912 80.84C16.548 81.428 17.28 82.244 17.592 82.784L17.088 83.444C16.788 82.868 16.068 82.016 15.432 81.416ZM18.168 83.012L18.804 82.772C19.26 83.564 19.704 84.62 19.824 85.292L19.152 85.58C19.02 84.908 18.612 83.828 18.168 83.012ZM15.336 84.236C16.332 84.188 17.76 84.116 19.2 84.032V84.8C17.844 84.884 16.476 84.968 15.432 85.04L15.336 84.236ZM18.396 85.916L19.032 85.724C19.32 86.408 19.56 87.296 19.632 87.884L18.948 88.088C18.888 87.5 18.672 86.6 18.396 85.916ZM16.056 85.784L16.8 85.916C16.644 87.044 16.356 88.208 15.984 88.976C15.84 88.868 15.492 88.712 15.312 88.64C15.696 87.908 15.924 86.828 16.056 85.784ZM17.268 84.584H18.048V89.96H17.268V84.584ZM32.304 79.568C32.232 79.832 32.148 80.288 32.1 80.516C31.92 81.38 31.668 82.736 31.332 83.936C30.9 85.64 30.096 88.124 29.46 89.432L28.416 89.084C29.136 87.836 29.976 85.4 30.432 83.708C30.72 82.604 31.032 81.092 31.116 80.468C31.164 80.132 31.188 79.724 31.164 79.472L32.304 79.568ZM29.652 81.572C30.972 81.572 32.736 81.356 34.224 80.984V81.92C32.736 82.256 30.924 82.46 29.628 82.46C29.1 82.46 28.68 82.448 28.236 82.412L28.212 81.476C28.776 81.548 29.208 81.572 29.652 81.572ZM33.444 83.216C34.068 83.156 34.872 83.12 35.64 83.12C36.336 83.12 37.068 83.144 37.716 83.216L37.692 84.128C37.068 84.056 36.372 83.984 35.664 83.984C34.92 83.984 34.176 84.032 33.444 84.116V83.216ZM33.684 86.132C33.588 86.528 33.516 86.9 33.516 87.212C33.516 87.776 33.84 88.328 35.544 88.328C36.336 88.328 37.152 88.244 37.896 88.1L37.86 89.06C37.212 89.156 36.408 89.228 35.532 89.228C33.648 89.228 32.616 88.652 32.616 87.464C32.616 87.008 32.688 86.552 32.796 86.048L33.684 86.132ZM47.028 79.712C46.944 80.012 46.872 80.432 46.812 80.66C46.38 82.64 45.54 85.148 44.58 86.468C43.668 87.74 42.792 88.64 41.7 88.64C40.788 88.64 40.02 87.884 40.02 86.48C40.02 84.968 40.944 83.372 42.216 82.52C43.404 81.716 44.58 81.404 45.816 81.404C48.168 81.404 49.872 82.988 49.872 85.328C49.872 87.728 48.156 89.18 45.576 89.54L45.024 88.688C47.532 88.46 48.912 87.152 48.912 85.292C48.912 83.528 47.64 82.232 45.708 82.232C44.544 82.232 43.5 82.628 42.564 83.324C41.544 84.056 40.896 85.34 40.896 86.42C40.896 87.212 41.244 87.692 41.784 87.692C42.564 87.692 43.404 86.672 44.016 85.7C44.808 84.476 45.612 82.28 45.912 80.528C45.96 80.288 45.996 79.892 45.984 79.616L47.028 79.712ZM42.108 80.264C42.168 80.588 42.264 80.984 42.36 81.32C42.672 82.496 43.344 84.344 43.848 85.184C44.256 85.88 44.82 86.672 45.396 87.224L44.64 87.836C44.16 87.308 43.716 86.72 43.26 85.94C42.672 85.004 41.976 83.168 41.52 81.668C41.4 81.284 41.268 80.888 41.112 80.576L42.108 80.264ZM54.012 84.236H59.964V84.98H54.012V84.236ZM53.784 86.288H60.216V87.056H53.784V86.288ZM57.78 84.476H58.596V89.744H57.78V84.476ZM55.32 84.512H56.1V86.696C56.1 87.428 55.812 89 54.456 89.912C54.336 89.744 54.06 89.492 53.856 89.372C55.068 88.628 55.32 87.356 55.32 86.696V84.512ZM52.524 81.104H55.896V81.752H52.524V81.104ZM58.056 81.104H61.452V81.752H58.056V81.104ZM61.104 79.436H61.992V88.796C61.992 89.336 61.872 89.624 61.512 89.78C61.152 89.936 60.552 89.948 59.64 89.948C59.604 89.708 59.484 89.288 59.352 89.036C60.012 89.06 60.66 89.06 60.852 89.048C61.044 89.048 61.104 88.976 61.104 88.796V79.436ZM52.596 79.436H56.448V83.48H52.596V82.796H55.596V80.132H52.596V79.436ZM61.536 79.436V80.132H58.368V82.808H61.536V83.492H57.504V79.436H61.536ZM52.056 79.436H52.944V89.972H52.056V79.436ZM69.336 88.616H73.524V89.432H69.336V88.616ZM68.868 85.1H73.992V89.924H73.104V85.928H69.732V89.972H68.868V85.1ZM68.052 83.084C69.468 83.012 71.7 82.892 73.836 82.748L73.824 83.552C71.796 83.708 69.648 83.876 68.16 83.972L68.052 83.084ZM72.024 81.152L72.744 80.78C73.548 81.776 74.376 83.12 74.7 84.008L73.908 84.44C73.62 83.54 72.816 82.172 72.024 81.152ZM70.392 78.92L71.376 79.124C70.884 80.588 70.2 82.424 69.636 83.564L68.868 83.348C69.408 82.184 70.056 80.264 70.392 78.92ZM63.516 81.404H67.476V82.256H63.516V81.404ZM65.34 78.92L66.204 79.016C65.712 81.416 64.944 84.656 64.38 86.66L63.636 86.252C64.176 84.428 64.92 81.2 65.34 78.92ZM64.116 85.892L64.62 85.256C65.964 86.012 67.56 87.164 68.28 88.052L67.728 88.784C67.02 87.884 65.46 86.672 64.116 85.892ZM67.128 81.404H67.284L67.44 81.38L67.98 81.488C67.656 86.132 66.36 88.676 64.152 89.996C64.02 89.78 63.78 89.456 63.588 89.276C65.58 88.22 66.84 85.664 67.128 81.596V81.404Z" fill="#475A88"/>
<path d="M97.972 89V87.572H99.892V81.956H98.272V80.864C99.172 80.696 99.772 80.468 100.348 80.12H101.656V87.572H103.324V89H97.972ZM107.606 89.168C105.902 89.168 104.642 88.196 104.642 86.804C104.642 85.664 105.338 84.908 106.154 84.476V84.428C105.482 83.936 104.978 83.252 104.978 82.316C104.978 80.888 106.118 79.976 107.666 79.976C109.238 79.976 110.246 80.912 110.246 82.328C110.246 83.216 109.682 83.948 109.106 84.368V84.428C109.922 84.872 110.594 85.58 110.594 86.804C110.594 88.148 109.394 89.168 107.606 89.168ZM108.17 83.936C108.602 83.48 108.806 82.976 108.806 82.448C108.806 81.716 108.362 81.212 107.63 81.212C107.018 81.212 106.538 81.608 106.538 82.316C106.538 83.144 107.234 83.564 108.17 83.936ZM107.642 87.92C108.41 87.92 108.95 87.5 108.95 86.732C108.95 85.808 108.122 85.436 106.982 84.956C106.49 85.34 106.154 85.94 106.154 86.6C106.154 87.404 106.814 87.92 107.642 87.92ZM116.208 80.36H122.208V81.152H116.208V80.36ZM115.692 82.688H122.724V83.492H115.692V82.688ZM115.752 84.86H122.592V85.664H115.752V84.86ZM118.728 78.92H119.616V83.18H118.728V78.92ZM120.312 83.372H121.188V88.892C121.188 89.408 121.068 89.672 120.696 89.804C120.324 89.936 119.712 89.948 118.752 89.948C118.716 89.708 118.572 89.348 118.44 89.108C119.184 89.132 119.856 89.132 120.048 89.12C120.252 89.108 120.312 89.06 120.312 88.88V83.372ZM116.484 86.504L117.204 86.072C117.828 86.696 118.5 87.548 118.788 88.136L118.008 88.616C117.744 88.028 117.096 87.128 116.484 86.504ZM112.488 79.712H115.488V87.596H112.488V86.78H114.648V80.528H112.488V79.712ZM112.524 83.204H115.044V84.008H112.524V83.204ZM112.056 79.712H112.908V88.58H112.056V79.712Z" fill="#475A88"/>
<path d="M153.608 82.676H160.52V83.432H153.608V82.676ZM154.664 81.068H158.888V81.74H154.664V81.068ZM156.812 82.952L157.508 83.192C156.764 84.14 155.432 84.956 154.256 85.46C154.16 85.304 153.92 84.992 153.752 84.848C154.916 84.428 156.152 83.744 156.812 82.952ZM155.552 84.488L156.176 84.14C158.36 85.844 158.3 88.892 157.364 89.636C157.076 89.9 156.8 89.972 156.368 89.984C156.14 89.984 155.876 89.972 155.588 89.96C155.576 89.756 155.528 89.432 155.396 89.192C155.72 89.24 155.972 89.252 156.2 89.252C156.452 89.252 156.656 89.228 156.824 89.036C157.424 88.496 157.436 85.988 155.552 84.488ZM157.892 83.12C158.324 85.412 159.236 87.512 160.664 88.472C160.472 88.628 160.196 88.928 160.064 89.156C158.576 88.016 157.664 85.796 157.184 83.264L157.892 83.12ZM159.872 84.044L160.46 84.68C159.836 85.208 159.116 85.784 158.552 86.156L158.108 85.64C158.648 85.244 159.428 84.536 159.872 84.044ZM156.464 85.028L157.028 85.4C156.38 86.06 155.156 86.852 154.196 87.284C154.088 87.092 153.884 86.804 153.716 86.648C154.64 86.336 155.864 85.64 156.464 85.028ZM157.016 86.348L157.604 86.744C156.74 87.812 155.072 88.94 153.68 89.516C153.56 89.312 153.344 89.036 153.164 88.88C154.568 88.412 156.224 87.356 157.016 86.348ZM154.376 79.412H159.212V82.928H158.36V80.12H154.376V79.412ZM151.352 78.932L152.12 79.22C151.688 80.108 151.124 81.188 150.68 81.86L150.08 81.596C150.5 80.9 151.052 79.724 151.352 78.932ZM152.624 80.3L153.368 80.636C152.576 81.968 151.472 83.672 150.608 84.704L150.068 84.416C150.92 83.348 152 81.56 152.624 80.3ZM149.432 81.416L149.912 80.84C150.548 81.428 151.28 82.244 151.592 82.784L151.088 83.444C150.788 82.868 150.068 82.016 149.432 81.416ZM152.168 83.012L152.804 82.772C153.26 83.564 153.704 84.62 153.824 85.292L153.152 85.58C153.02 84.908 152.612 83.828 152.168 83.012ZM149.336 84.236C150.332 84.188 151.76 84.116 153.2 84.032V84.8C151.844 84.884 150.476 84.968 149.432 85.04L149.336 84.236ZM152.396 85.916L153.032 85.724C153.32 86.408 153.56 87.296 153.632 87.884L152.948 88.088C152.888 87.5 152.672 86.6 152.396 85.916ZM150.056 85.784L150.8 85.916C150.644 87.044 150.356 88.208 149.984 88.976C149.84 88.868 149.492 88.712 149.312 88.64C149.696 87.908 149.924 86.828 150.056 85.784ZM151.268 84.584H152.048V89.96H151.268V84.584ZM166.304 79.568C166.232 79.832 166.148 80.288 166.1 80.516C165.92 81.38 165.668 82.736 165.332 83.936C164.9 85.64 164.096 88.124 163.46 89.432L162.416 89.084C163.136 87.836 163.976 85.4 164.432 83.708C164.72 82.604 165.032 81.092 165.116 80.468C165.164 80.132 165.188 79.724 165.164 79.472L166.304 79.568ZM163.652 81.572C164.972 81.572 166.736 81.356 168.224 80.984V81.92C166.736 82.256 164.924 82.46 163.628 82.46C163.1 82.46 162.68 82.448 162.236 82.412L162.212 81.476C162.776 81.548 163.208 81.572 163.652 81.572ZM167.444 83.216C168.068 83.156 168.872 83.12 169.64 83.12C170.336 83.12 171.068 83.144 171.716 83.216L171.692 84.128C171.068 84.056 170.372 83.984 169.664 83.984C168.92 83.984 168.176 84.032 167.444 84.116V83.216ZM167.684 86.132C167.588 86.528 167.516 86.9 167.516 87.212C167.516 87.776 167.84 88.328 169.544 88.328C170.336 88.328 171.152 88.244 171.896 88.1L171.86 89.06C171.212 89.156 170.408 89.228 169.532 89.228C167.648 89.228 166.616 88.652 166.616 87.464C166.616 87.008 166.688 86.552 166.796 86.048L167.684 86.132ZM181.028 79.712C180.944 80.012 180.872 80.432 180.812 80.66C180.38 82.64 179.54 85.148 178.58 86.468C177.668 87.74 176.792 88.64 175.7 88.64C174.788 88.64 174.02 87.884 174.02 86.48C174.02 84.968 174.944 83.372 176.216 82.52C177.404 81.716 178.58 81.404 179.816 81.404C182.168 81.404 183.872 82.988 183.872 85.328C183.872 87.728 182.156 89.18 179.576 89.54L179.024 88.688C181.532 88.46 182.912 87.152 182.912 85.292C182.912 83.528 181.64 82.232 179.708 82.232C178.544 82.232 177.5 82.628 176.564 83.324C175.544 84.056 174.896 85.34 174.896 86.42C174.896 87.212 175.244 87.692 175.784 87.692C176.564 87.692 177.404 86.672 178.016 85.7C178.808 84.476 179.612 82.28 179.912 80.528C179.96 80.288 179.996 79.892 179.984 79.616L181.028 79.712ZM176.108 80.264C176.168 80.588 176.264 80.984 176.36 81.32C176.672 82.496 177.344 84.344 177.848 85.184C178.256 85.88 178.82 86.672 179.396 87.224L178.64 87.836C178.16 87.308 177.716 86.72 177.26 85.94C176.672 85.004 175.976 83.168 175.52 81.668C175.4 81.284 175.268 80.888 175.112 80.576L176.108 80.264ZM191.756 85.832L192.296 85.268C193.148 85.604 194.192 86.18 194.744 86.612L194.192 87.224C193.64 86.792 192.596 86.18 191.756 85.832ZM190.448 88.112L190.988 87.476C192.584 87.908 194.552 88.712 195.644 89.312L195.104 90.032C194.048 89.384 192.068 88.568 190.448 88.112ZM191.996 78.92L192.884 79.076C192.296 80.384 191.384 81.836 190.004 82.976C189.872 82.796 189.584 82.532 189.392 82.412C190.664 81.392 191.552 80.024 191.996 78.92ZM191.84 80.18H195.104V80.972H191.444L191.84 80.18ZM194.84 80.18H195.02L195.176 80.144L195.74 80.456C194.696 83.024 192.5 84.848 190.28 85.82C190.172 85.616 189.896 85.268 189.716 85.112C191.876 84.248 193.976 82.544 194.84 80.348V80.18ZM191.684 80.864C192.656 82.748 194.6 84.476 196.676 85.232C196.484 85.4 196.22 85.736 196.088 85.964C193.976 85.088 192.044 83.24 190.964 81.14L191.684 80.864ZM187.34 78.932L188.132 79.244C187.676 80.12 187.112 81.188 186.644 81.848L186.02 81.56C186.476 80.876 187.028 79.724 187.34 78.932ZM188.684 80.3L189.44 80.636C188.624 82.016 187.472 83.756 186.584 84.812L186.032 84.5C186.92 83.42 188.048 81.596 188.684 80.3ZM185.444 81.452L185.9 80.864C186.572 81.428 187.328 82.208 187.652 82.748L187.172 83.432C186.848 82.868 186.092 82.028 185.444 81.452ZM188.264 83.084L188.888 82.832C189.368 83.588 189.848 84.596 190.004 85.232L189.32 85.544C189.176 84.896 188.72 83.864 188.264 83.084ZM185.408 84.308C186.452 84.272 187.952 84.212 189.476 84.128L189.464 84.872C188.024 84.968 186.572 85.052 185.48 85.124L185.408 84.308ZM188.576 85.916L189.224 85.712C189.56 86.384 189.884 87.296 190.004 87.896L189.308 88.136C189.2 87.536 188.876 86.612 188.576 85.916ZM186.08 85.784L186.86 85.928C186.692 87.056 186.392 88.22 186.008 88.988C185.852 88.892 185.492 88.724 185.3 88.64C185.696 87.908 185.936 86.84 186.08 85.784ZM187.376 84.644H188.18V89.996H187.376V84.644ZM202.544 83.012H203.48V88.808C203.48 89.408 203.324 89.684 202.856 89.816C202.388 89.96 201.584 89.972 200.372 89.972C200.312 89.708 200.144 89.324 200 89.06C200.996 89.096 201.92 89.096 202.196 89.084C202.46 89.072 202.544 89 202.544 88.784V83.012ZM198.176 79.868H206.84V80.744H198.176V79.868ZM206.516 79.868H206.756L206.972 79.808L207.668 80.312C206.6 81.584 204.908 83 203.42 83.84C203.288 83.648 203 83.348 202.808 83.216C204.176 82.46 205.76 81.08 206.516 80.084V79.868Z" fill="#475A88"/>
<path d="M224.972 89V87.572H226.892V81.956H225.272V80.864C226.172 80.696 226.772 80.468 227.348 80.12H228.656V87.572H230.324V89H224.972ZM234.138 89.168C233.022 89.168 232.23 88.712 231.69 88.16L232.626 87.092C232.962 87.464 233.502 87.74 234.03 87.74C235.074 87.74 235.926 86.9 235.926 84.356C235.926 82.088 235.242 81.284 234.378 81.284C233.706 81.284 233.166 81.824 233.166 82.928C233.166 83.96 233.67 84.464 234.426 84.464C234.93 84.464 235.482 84.188 235.914 83.456L236.01 84.656C235.53 85.316 234.726 85.712 234.102 85.712C232.614 85.712 231.558 84.812 231.558 82.928C231.558 81.092 232.83 79.964 234.342 79.964C236.034 79.964 237.546 81.284 237.546 84.356C237.546 87.716 235.902 89.168 234.138 89.168ZM243.208 80.36H249.208V81.152H243.208V80.36ZM242.692 82.688H249.724V83.492H242.692V82.688ZM242.752 84.86H249.592V85.664H242.752V84.86ZM245.728 78.92H246.616V83.18H245.728V78.92ZM247.312 83.372H248.188V88.892C248.188 89.408 248.068 89.672 247.696 89.804C247.324 89.936 246.712 89.948 245.752 89.948C245.716 89.708 245.572 89.348 245.44 89.108C246.184 89.132 246.856 89.132 247.048 89.12C247.252 89.108 247.312 89.06 247.312 88.88V83.372ZM243.484 86.504L244.204 86.072C244.828 86.696 245.5 87.548 245.788 88.136L245.008 88.616C244.744 88.028 244.096 87.128 243.484 86.504ZM239.488 79.712H242.488V87.596H239.488V86.78H241.648V80.528H239.488V79.712ZM239.524 83.204H242.044V84.008H239.524V83.204ZM239.056 79.712H239.908V88.58H239.056V79.712ZM253.432 89.168C252.028 89.168 251.08 88.652 250.456 87.932L251.296 86.816C251.824 87.332 252.46 87.74 253.264 87.74C254.176 87.74 254.788 87.284 254.788 86.492C254.788 85.616 254.272 85.076 252.34 85.076V83.804C253.972 83.804 254.5 83.252 254.5 82.46C254.5 81.764 254.068 81.344 253.312 81.344C252.676 81.344 252.16 81.644 251.632 82.136L250.732 81.044C251.5 80.384 252.352 79.964 253.384 79.964C255.1 79.964 256.264 80.804 256.264 82.328C256.264 83.276 255.736 83.984 254.788 84.344V84.404C255.796 84.692 256.564 85.424 256.564 86.6C256.564 88.232 255.136 89.168 253.432 89.168ZM260.774 89.168C258.962 89.168 257.762 87.596 257.762 84.524C257.762 81.464 258.962 79.964 260.774 79.964C262.574 79.964 263.774 81.464 263.774 84.524C263.774 87.596 262.574 89.168 260.774 89.168ZM260.774 87.788C261.542 87.788 262.106 87.02 262.106 84.524C262.106 82.04 261.542 81.32 260.774 81.32C260.006 81.32 259.43 82.04 259.43 84.524C259.43 87.02 260.006 87.788 260.774 87.788ZM266.557 83.468H273.421V84.344H266.557V83.468ZM273.121 83.468H274.057C274.057 83.468 274.045 83.78 274.033 83.9C273.865 87.62 273.697 89.012 273.265 89.468C273.025 89.768 272.761 89.852 272.341 89.888C271.945 89.924 271.189 89.912 270.433 89.876C270.421 89.6 270.301 89.228 270.133 88.964C270.924 89.036 271.669 89.048 271.957 89.048C272.197 89.048 272.341 89.024 272.461 88.892C272.785 88.568 272.965 87.2 273.121 83.636V83.468ZM268.201 79.172L269.149 79.448C268.285 81.476 266.869 83.264 265.357 84.416C265.189 84.224 264.805 83.876 264.577 83.708C266.113 82.676 267.445 81.02 268.201 79.172ZM272.389 79.148C273.169 80.756 274.717 82.58 276.025 83.504C275.785 83.696 275.449 84.056 275.269 84.308C273.937 83.228 272.425 81.284 271.525 79.496L272.389 79.148ZM269.089 83.708H270.049C269.773 86.336 269.149 88.82 265.801 90.02C265.693 89.792 265.429 89.432 265.225 89.24C268.369 88.196 268.849 85.976 269.089 83.708Z" fill="#475A88"/>
<path d="M290.972 89V87.572H292.892V81.956H291.272V80.864C292.172 80.696 292.772 80.468 293.348 80.12H294.656V87.572H296.324V89H290.972ZM302.13 80.36H308.13V81.152H302.13V80.36ZM301.614 82.688H308.646V83.492H301.614V82.688ZM301.674 84.86H308.514V85.664H301.674V84.86ZM304.65 78.92H305.538V83.18H304.65V78.92ZM306.234 83.372H307.11V88.892C307.11 89.408 306.99 89.672 306.618 89.804C306.246 89.936 305.634 89.948 304.674 89.948C304.638 89.708 304.494 89.348 304.362 89.108C305.106 89.132 305.778 89.132 305.97 89.12C306.174 89.108 306.234 89.06 306.234 88.88V83.372ZM302.406 86.504L303.126 86.072C303.75 86.696 304.422 87.548 304.71 88.136L303.93 88.616C303.666 88.028 303.018 87.128 302.406 86.504ZM298.41 79.712H301.41V87.596H298.41V86.78H300.57V80.528H298.41V79.712ZM298.446 83.204H300.966V84.008H298.446V83.204ZM297.978 79.712H298.83V88.58H297.978V79.712ZM313.242 86.276H316.878V86.972H313.242V86.276ZM313.206 84.464H317.298V88.844H313.206V88.148H316.446V85.172H313.206V84.464ZM312.81 84.464H313.638V89.456H312.81V84.464ZM310.602 81.14H313.938V81.8H310.602V81.14ZM316.134 81.14H319.53V81.8H316.134V81.14ZM319.158 79.436H320.058V88.772C320.058 89.348 319.926 89.648 319.542 89.804C319.158 89.948 318.51 89.96 317.502 89.96C317.466 89.708 317.322 89.288 317.19 89.036C317.922 89.072 318.654 89.06 318.87 89.048C319.086 89.048 319.158 88.976 319.158 88.772V79.436ZM310.674 79.436H314.514V83.564H310.674V82.868H313.662V80.132H310.674V79.436ZM319.602 79.436V80.132H316.458V82.892H319.602V83.576H315.594V79.436H319.602ZM310.158 79.436H311.046V89.972H310.158V79.436ZM324.354 89.168C322.95 89.168 322.002 88.652 321.378 87.932L322.218 86.816C322.746 87.332 323.382 87.74 324.186 87.74C325.098 87.74 325.71 87.284 325.71 86.492C325.71 85.616 325.194 85.076 323.262 85.076V83.804C324.894 83.804 325.422 83.252 325.422 82.46C325.422 81.764 324.99 81.344 324.234 81.344C323.598 81.344 323.082 81.644 322.554 82.136L321.654 81.044C322.422 80.384 323.274 79.964 324.306 79.964C326.022 79.964 327.186 80.804 327.186 82.328C327.186 83.276 326.658 83.984 325.71 84.344V84.404C326.718 84.692 327.486 85.424 327.486 86.6C327.486 88.232 326.058 89.168 324.354 89.168ZM331.696 89.168C329.884 89.168 328.684 87.596 328.684 84.524C328.684 81.464 329.884 79.964 331.696 79.964C333.496 79.964 334.696 81.464 334.696 84.524C334.696 87.596 333.496 89.168 331.696 89.168ZM331.696 87.788C332.464 87.788 333.028 87.02 333.028 84.524C333.028 82.04 332.464 81.32 331.696 81.32C330.928 81.32 330.352 82.04 330.352 84.524C330.352 87.02 330.928 87.788 331.696 87.788ZM337.478 83.468H344.342V84.344H337.478V83.468ZM344.042 83.468H344.978C344.978 83.468 344.966 83.78 344.954 83.9C344.786 87.62 344.618 89.012 344.186 89.468C343.946 89.768 343.682 89.852 343.262 89.888C342.866 89.924 342.11 89.912 341.354 89.876C341.342 89.6 341.222 89.228 341.054 88.964C341.846 89.036 342.59 89.048 342.878 89.048C343.118 89.048 343.262 89.024 343.382 88.892C343.706 88.568 343.886 87.2 344.042 83.636V83.468ZM339.122 79.172L340.07 79.448C339.206 81.476 337.79 83.264 336.278 84.416C336.11 84.224 335.726 83.876 335.498 83.708C337.034 82.676 338.366 81.02 339.122 79.172ZM343.31 79.148C344.09 80.756 345.638 82.58 346.946 83.504C346.706 83.696 346.37 84.056 346.19 84.308C344.858 83.228 343.346 81.284 342.446 79.496L343.31 79.148ZM340.01 83.708H340.97C340.694 86.336 340.07 88.82 336.722 90.02C336.614 89.792 336.35 89.432 336.146 89.24C339.29 88.196 339.77 85.976 340.01 83.708Z" fill="#475A88"/>
<path d="M16.788 116.328H25.26V117.216H16.788V116.328ZM20.472 106.992H21.396V116.832H20.472V106.992ZM16.344 112.98H17.256V117.972H16.344V112.98ZM24.78 112.98H25.704V117.936H24.78V112.98ZM16.812 108.072H17.7V111.336H24.288V108.072H25.224V112.212H16.812V108.072ZM33.54 109.752H37.764V110.592H33.54V109.752ZM37.512 109.752H38.352C38.352 109.752 38.352 110.076 38.352 110.196C38.22 115.248 38.112 116.928 37.74 117.432C37.524 117.732 37.296 117.84 36.948 117.876C36.624 117.912 36.084 117.912 35.544 117.876C35.52 117.624 35.436 117.264 35.292 117.024C35.856 117.084 36.36 117.084 36.564 117.084C36.768 117.084 36.876 117.048 36.984 116.892C37.26 116.532 37.392 114.828 37.512 109.956V109.752ZM34.968 107.028H35.808C35.784 111.9 35.784 115.86 33.276 118.008C33.144 117.804 32.832 117.516 32.628 117.384C35.004 115.416 34.956 111.684 34.968 107.028ZM27.924 114.768H33.264V115.452H27.924V114.768ZM27.744 113.172H33.36V113.868H27.744V113.172ZM27.54 107.964H33.6V108.66H27.54V107.964ZM30.12 110.136H30.96V116.892H30.12V110.136ZM28.896 106.932H29.736V109.584H28.896V106.932ZM31.344 106.932H32.184V109.584H31.344V106.932ZM27.48 116.808C28.932 116.676 31.212 116.424 33.384 116.172L33.396 116.904C31.308 117.168 29.1 117.42 27.6 117.6L27.48 116.808ZM28.776 110.508V111.756H32.364V110.508H28.776ZM27.972 109.848H33.192V112.428H27.972V109.848ZM44.604 112.068H45.54V116.844C45.54 117.384 45.396 117.648 44.964 117.78C44.532 117.912 43.836 117.924 42.78 117.924C42.72 117.672 42.564 117.3 42.432 117.048C43.272 117.084 44.088 117.072 44.328 117.06C44.544 117.048 44.604 117 44.604 116.82V112.068ZM40.764 107.58H48.336V108.408H40.764V107.58ZM48 107.58H48.24L48.444 107.52L49.092 108.024C48.096 109.032 46.608 110.124 45.372 110.808C45.252 110.616 44.976 110.34 44.808 110.196C45.924 109.608 47.328 108.552 48 107.772V107.58ZM39.636 111.408H49.68V112.272H39.636V111.408ZM42.408 109.8L42.876 109.14C44.268 109.704 46.236 110.568 47.268 111.096L46.776 111.864C45.792 111.324 43.836 110.412 42.408 109.8ZM49.368 111.408H49.548L49.716 111.348L50.436 111.672C49.788 112.728 49.02 113.892 48.288 114.612L47.532 114.168C48.144 113.52 48.888 112.476 49.368 111.576V111.408ZM53.532 110.592H60.528V111.456H53.532V110.592ZM56.988 113.46H61.032V114.312H56.988V113.46ZM56.508 111.036H57.444V117.108L56.508 116.988V111.036ZM53.664 112.488L54.6 112.584C54.264 115.008 53.508 116.844 52.152 118.02C52.008 117.864 51.624 117.552 51.408 117.42C52.752 116.376 53.4 114.66 53.664 112.488ZM54.228 114.036C55.08 116.484 56.952 116.904 59.388 116.904C59.832 116.904 61.908 116.904 62.496 116.892C62.352 117.108 62.196 117.54 62.16 117.804H59.34C56.484 117.804 54.528 117.24 53.496 114.312L54.228 114.036ZM56.496 106.932H57.444V108.876H56.496V106.932ZM51.984 108.3H62.016V110.916H61.092V109.164H52.872V110.916H51.984V108.3Z" fill="#475A88"/>
<path d="M94.504 117V115.992C96.928 113.82 98.344 112.152 98.344 110.784C98.344 109.896 97.876 109.344 97.024 109.344C96.364 109.344 95.848 109.764 95.392 110.268L94.42 109.308C95.236 108.432 96.04 107.964 97.252 107.964C98.92 107.964 100.048 109.032 100.048 110.688C100.048 112.308 98.704 114.036 97.084 115.62C97.528 115.572 98.116 115.512 98.536 115.512H100.456V117H94.504ZM104.618 117.168C102.806 117.168 101.606 115.596 101.606 112.524C101.606 109.464 102.806 107.964 104.618 107.964C106.418 107.964 107.618 109.464 107.618 112.524C107.618 115.596 106.418 117.168 104.618 117.168ZM104.618 115.788C105.386 115.788 105.95 115.02 105.95 112.524C105.95 110.04 105.386 109.32 104.618 109.32C103.85 109.32 103.274 110.04 103.274 112.524C103.274 115.02 103.85 115.788 104.618 115.788ZM113.208 108.36H119.208V109.152H113.208V108.36ZM112.692 110.688H119.724V111.492H112.692V110.688ZM112.752 112.86H119.592V113.664H112.752V112.86ZM115.728 106.92H116.616V111.18H115.728V106.92ZM117.312 111.372H118.188V116.892C118.188 117.408 118.068 117.672 117.696 117.804C117.324 117.936 116.712 117.948 115.752 117.948C115.716 117.708 115.572 117.348 115.44 117.108C116.184 117.132 116.856 117.132 117.048 117.12C117.252 117.108 117.312 117.06 117.312 116.88V111.372ZM113.484 114.504L114.204 114.072C114.828 114.696 115.5 115.548 115.788 116.136L115.008 116.616C114.744 116.028 114.096 115.128 113.484 114.504ZM109.488 107.712H112.488V115.596H109.488V114.78H111.648V108.528H109.488V107.712ZM109.524 111.204H112.044V112.008H109.524V111.204ZM109.056 107.712H109.908V116.58H109.056V107.712ZM124.656 113.556C123.612 113.556 123.036 112.428 122.28 112.428C121.896 112.428 121.56 112.668 121.248 113.244L120.636 112.812C121.116 111.96 121.728 111.6 122.304 111.6C123.36 111.6 123.924 112.74 124.68 112.74C125.076 112.74 125.412 112.5 125.712 111.924L126.324 112.368C125.832 113.196 125.232 113.556 124.656 113.556Z" fill="#475A88"/>
<path d="M15.576 135.496L16.212 135.028C18.276 136.948 18.552 139.096 18.552 141.412C18.552 143.164 18.432 144.868 17.964 145.516C17.808 145.72 17.58 145.852 17.292 145.9C16.92 145.972 16.464 145.972 16.02 145.948C16.008 145.672 15.924 145.336 15.768 145.084C16.272 145.12 16.692 145.12 16.932 145.096C17.1 145.072 17.208 145.024 17.292 144.904C17.592 144.52 17.688 142.96 17.688 141.4C17.688 139.204 17.436 137.26 15.576 135.496ZM17.7 139.324L18.36 139.708C17.832 140.872 16.824 142.228 15.924 142.984C15.792 142.768 15.54 142.468 15.336 142.3C16.212 141.676 17.208 140.428 17.7 139.324ZM18.3 134.992L19.08 135.388C18.336 136.732 17.172 138.088 15.972 139.072C15.84 138.904 15.552 138.652 15.36 138.508C16.536 137.596 17.676 136.216 18.3 134.992ZM19.044 135.808H26.46V136.528H19.044V135.808ZM19.836 141.388H26.436V141.988H19.836V141.388ZM19.38 142.54H25.176V143.224H19.38V142.54ZM20.148 139.024H25.728V139.54H20.148V139.024ZM20.148 140.2H25.728V140.704H20.148V140.2ZM20.868 134.908H21.684V137.212H20.868V134.908ZM22.548 138.076H23.352V141.7H22.548V138.076ZM23.652 134.908H24.48V137.212H23.652V134.908ZM20.376 136.804L21.12 137.008C20.64 138.124 19.872 139.228 19.104 139.948C18.984 139.804 18.708 139.516 18.528 139.384C19.284 138.736 19.968 137.788 20.376 136.804ZM19.836 138.412L20.628 137.932V141.772H19.836V138.412ZM20.28 137.8H26.088V138.412H19.968L20.28 137.8ZM22.896 136.9L23.76 137.068C23.52 137.5 23.292 137.908 23.088 138.196L22.392 138.028C22.56 137.692 22.788 137.212 22.896 136.9ZM24.948 142.54H25.14L25.296 142.516L25.788 142.84C24.576 144.76 21.876 145.612 19.068 145.996C18.984 145.792 18.792 145.456 18.648 145.276C21.384 144.988 23.928 144.256 24.948 142.672V142.54ZM21.012 143.14C22.008 144.376 24.216 145.036 26.664 145.264C26.484 145.432 26.268 145.768 26.16 145.984C23.64 145.684 21.42 144.88 20.28 143.416L21.012 143.14ZM32.772 137.596V138.58H36.744V137.596H32.772ZM32.772 135.976V136.948H36.744V135.976H32.772ZM31.908 135.292H37.644V139.264H31.908V135.292ZM31.164 140.092H38.22V140.848H31.164V140.092ZM30.888 141.88H38.436V142.672H30.888V141.88ZM35.736 140.752H36.636V144.976C36.636 145.456 36.528 145.696 36.168 145.828C35.808 145.972 35.232 145.972 34.332 145.972C34.296 145.732 34.152 145.396 34.032 145.156C34.716 145.18 35.316 145.18 35.496 145.168C35.688 145.156 35.736 145.108 35.736 144.952V140.752ZM31.932 143.284L32.568 142.852C33.12 143.356 33.78 144.064 34.092 144.532L33.408 145.036C33.12 144.556 32.472 143.812 31.932 143.284ZM30.228 137.596L31.02 137.92C30.204 139.348 28.92 140.8 27.732 141.736C27.66 141.556 27.408 141.076 27.252 140.872C28.344 140.08 29.508 138.844 30.228 137.596ZM30 134.956L30.864 135.292C30.144 136.324 28.992 137.452 27.924 138.16C27.828 137.956 27.6 137.608 27.444 137.428C28.404 136.804 29.484 135.808 30 134.956ZM29.148 139.72L29.988 138.868L30.024 138.892V145.96H29.148V139.72ZM44.604 140.068H45.54V144.844C45.54 145.384 45.396 145.648 44.964 145.78C44.532 145.912 43.836 145.924 42.78 145.924C42.72 145.672 42.564 145.3 42.432 145.048C43.272 145.084 44.088 145.072 44.328 145.06C44.544 145.048 44.604 145 44.604 144.82V140.068ZM40.764 135.58H48.336V136.408H40.764V135.58ZM48 135.58H48.24L48.444 135.52L49.092 136.024C48.096 137.032 46.608 138.124 45.372 138.808C45.252 138.616 44.976 138.34 44.808 138.196C45.924 137.608 47.328 136.552 48 135.772V135.58ZM39.636 139.408H49.68V140.272H39.636V139.408ZM42.408 137.8L42.876 137.14C44.268 137.704 46.236 138.568 47.268 139.096L46.776 139.864C45.792 139.324 43.836 138.412 42.408 137.8ZM49.368 139.408H49.548L49.716 139.348L50.436 139.672C49.788 140.728 49.02 141.892 48.288 142.612L47.532 142.168C48.144 141.52 48.888 140.476 49.368 139.576V139.408ZM53.532 138.592H60.528V139.456H53.532V138.592ZM56.988 141.46H61.032V142.312H56.988V141.46ZM56.508 139.036H57.444V145.108L56.508 144.988V139.036ZM53.664 140.488L54.6 140.584C54.264 143.008 53.508 144.844 52.152 146.02C52.008 145.864 51.624 145.552 51.408 145.42C52.752 144.376 53.4 142.66 53.664 140.488ZM54.228 142.036C55.08 144.484 56.952 144.904 59.388 144.904C59.832 144.904 61.908 144.904 62.496 144.892C62.352 145.108 62.196 145.54 62.16 145.804H59.34C56.484 145.804 54.528 145.24 53.496 142.312L54.228 142.036ZM56.496 134.932H57.444V136.876H56.496V134.932ZM51.984 136.3H62.016V138.916H61.092V137.164H52.872V138.916H51.984V136.3ZM72.048 136.144C72.048 136.564 72.384 136.9 72.816 136.9C73.236 136.9 73.584 136.564 73.584 136.144C73.584 135.712 73.236 135.364 72.816 135.364C72.384 135.364 72.048 135.712 72.048 136.144ZM71.508 136.144C71.508 135.412 72.084 134.824 72.816 134.824C73.536 134.824 74.136 135.412 74.136 136.144C74.136 136.864 73.536 137.452 72.816 137.452C72.084 137.452 71.508 136.864 71.508 136.144ZM69.492 135.76C69.468 135.928 69.42 136.36 69.42 136.612C69.42 137.248 69.42 138.256 69.42 138.844C69.42 139.816 69.42 143.704 69.42 144.568C69.42 145.192 69.12 145.516 68.388 145.516C67.884 145.516 67.176 145.492 66.684 145.432L66.6 144.484C67.128 144.58 67.668 144.616 67.992 144.616C68.316 144.616 68.448 144.484 68.448 144.16C68.46 143.512 68.46 139.408 68.46 138.844C68.46 138.436 68.46 137.248 68.46 136.612C68.46 136.348 68.412 135.94 68.376 135.76H69.492ZM64.104 137.776C64.44 137.824 64.74 137.848 65.112 137.848C65.82 137.848 71.88 137.848 72.6 137.848C72.876 137.848 73.272 137.824 73.572 137.788V138.784C73.26 138.76 72.9 138.748 72.612 138.748C71.892 138.748 65.856 138.748 65.124 138.748C64.752 138.748 64.416 138.76 64.104 138.796V137.776ZM66.864 140.608C66.348 141.628 65.232 143.164 64.548 143.896L63.72 143.332C64.524 142.6 65.544 141.172 66.012 140.2L66.864 140.608ZM71.868 140.2C72.516 140.968 73.464 142.468 73.944 143.344L73.068 143.836C72.588 142.888 71.688 141.4 71.052 140.644L71.868 140.2ZM76.032 140.668C78.108 140.116 79.932 139.264 81.264 138.436C82.524 137.644 83.724 136.612 84.552 135.604L85.356 136.36C84.324 137.428 83.064 138.436 81.66 139.312C80.34 140.128 78.432 141.004 76.5 141.604L76.032 140.668ZM81.072 138.928L82.104 138.616V144.1C82.104 144.544 82.128 145.144 82.188 145.372H81C81.036 145.144 81.072 144.544 81.072 144.1V138.928ZM89.724 136.216C90.564 136.78 92.112 138.028 92.772 138.688L92.028 139.456C91.416 138.832 89.928 137.536 89.028 136.948L89.724 136.216ZM88.692 144.256C90.78 143.944 92.34 143.212 93.48 142.504C95.34 141.34 96.792 139.564 97.488 138.076L98.064 139.108C97.248 140.596 95.856 142.228 94.044 143.368C92.832 144.124 91.32 144.868 89.316 145.24L88.692 144.256ZM103.032 143.944C103.032 143.272 103.032 137.968 103.032 136.972C103.032 136.624 103.008 136.096 102.948 135.712H104.124C104.076 136.084 104.04 136.6 104.04 136.972C104.04 138.832 104.052 143.38 104.052 143.944C104.052 144.328 104.076 144.976 104.124 145.372H102.96C103.02 144.988 103.032 144.388 103.032 143.944ZM103.824 138.868C105.408 139.324 107.832 140.248 109.164 140.896L108.744 141.916C107.376 141.184 105.132 140.332 103.824 139.924V138.868Z" fill="#475A88"/>
<path d="M137.972 145V143.572H139.892V138.196H138.272V137.104C139.172 136.924 139.772 136.696 140.348 136.348H141.656V143.572H143.324V145H137.972ZM147.102 145.168C146.01 145.168 145.206 144.712 144.69 144.16L145.626 143.092C145.938 143.464 146.49 143.74 146.994 143.74C148.074 143.74 148.926 142.924 148.926 140.452C148.926 138.292 148.242 137.512 147.378 137.512C146.706 137.512 146.166 138.028 146.166 139.06C146.166 140.032 146.67 140.476 147.438 140.476C147.918 140.476 148.482 140.2 148.914 139.456L149.01 140.656C148.518 141.328 147.714 141.724 147.102 141.724C145.614 141.724 144.558 140.872 144.558 139.06C144.558 137.296 145.83 136.192 147.342 136.192C149.034 136.192 150.546 137.476 150.546 140.452C150.546 143.74 148.89 145.168 147.102 145.168ZM151.66 145V143.992C153.976 141.772 155.5 140.272 155.5 138.976C155.5 138.1 155.032 137.572 154.18 137.572C153.52 137.572 153.004 138.016 152.548 138.496L151.576 137.536C152.392 136.66 153.196 136.192 154.408 136.192C156.076 136.192 157.204 137.248 157.204 138.892C157.204 140.392 155.8 141.964 154.216 143.62C154.66 143.572 155.248 143.512 155.668 143.512H157.612V145H151.66ZM161.774 145.168C159.938 145.168 158.762 143.584 158.762 140.644C158.762 137.704 159.938 136.192 161.774 136.192C163.586 136.192 164.774 137.716 164.774 140.644C164.774 143.584 163.586 145.168 161.774 145.168ZM161.774 143.788C162.542 143.788 163.106 143.056 163.106 140.644C163.106 138.232 162.542 137.56 161.774 137.56C161.006 137.56 160.43 138.232 160.43 140.644C160.43 143.056 161.006 143.788 161.774 143.788ZM168.853 145.168C167.017 145.168 165.841 143.584 165.841 140.644C165.841 137.704 167.017 136.192 168.853 136.192C170.665 136.192 171.853 137.716 171.853 140.644C171.853 143.584 170.665 145.168 168.853 145.168ZM168.853 143.788C169.621 143.788 170.185 143.056 170.185 140.644C170.185 138.232 169.621 137.56 168.853 137.56C168.085 137.56 167.509 138.232 167.509 140.644C167.509 143.056 168.085 143.788 168.853 143.788ZM173.483 145V136.12H176.399C178.355 136.12 179.867 136.804 179.867 138.916C179.867 140.944 178.355 141.844 176.447 141.844H175.259V145H173.483ZM175.259 140.44H176.327C177.551 140.44 178.139 139.924 178.139 138.916C178.139 137.872 177.491 137.536 176.267 137.536H175.259V140.44ZM183.263 147.364C182.147 145.564 181.487 143.644 181.487 141.28C181.487 138.928 182.147 136.984 183.263 135.184L183.935 135.508C182.903 137.212 182.399 139.24 182.399 141.28C182.399 143.32 182.903 145.348 183.935 147.052L183.263 147.364ZM194.013 134.944L194.685 135.676C192.513 136.312 188.961 136.636 186.045 136.756C186.021 136.528 185.913 136.168 185.829 135.964C188.685 135.832 192.189 135.508 194.013 134.944ZM185.841 138.328H195.201V139.192H185.841V138.328ZM185.037 141.148H195.873V142.024H185.037V141.148ZM189.993 136.216H190.929V144.712C190.929 145.348 190.737 145.624 190.281 145.768C189.825 145.912 189.045 145.936 187.773 145.924C187.713 145.672 187.545 145.264 187.401 145.024C188.397 145.06 189.357 145.048 189.621 145.036C189.897 145.036 189.993 144.952 189.993 144.7V136.216ZM196.917 141.328H202.809V142.084H196.917V141.328ZM196.989 137.14H202.773V137.872H196.989V137.14ZM199.149 140.296L199.989 140.476C199.449 141.652 198.693 143.116 198.141 144.064L197.349 143.788C197.889 142.876 198.645 141.4 199.149 140.296ZM200.949 141.772L201.789 141.88C201.381 144.22 200.121 145.372 197.349 145.96C197.289 145.72 197.109 145.396 196.941 145.216C199.449 144.796 200.577 143.812 200.949 141.772ZM201.705 135.16L202.473 135.496C202.125 136.048 201.729 136.648 201.393 137.056L200.793 136.756C201.093 136.324 201.489 135.628 201.705 135.16ZM199.473 134.92H200.301V140.44H199.473V134.92ZM197.433 135.496L198.117 135.208C198.453 135.688 198.777 136.324 198.897 136.756L198.189 137.08C198.081 136.648 197.769 135.988 197.433 135.496ZM199.485 137.464L200.097 137.824C199.509 138.832 198.381 139.9 197.349 140.464C197.241 140.26 197.025 139.96 196.857 139.78C197.853 139.348 198.957 138.388 199.485 137.464ZM200.205 137.884C200.637 138.112 202.101 139.036 202.449 139.288L201.957 139.948C201.525 139.54 200.277 138.604 199.773 138.268L200.205 137.884ZM203.685 137.14H207.957V137.98H203.685V137.14ZM203.985 134.92L204.897 135.052C204.501 137.404 203.793 139.552 202.737 140.956C202.593 140.788 202.221 140.488 202.005 140.344C203.025 139.072 203.649 137.044 203.985 134.92ZM206.349 137.62L207.261 137.716C206.685 141.856 205.413 144.436 202.389 145.996C202.293 145.78 202.029 145.384 201.849 145.192C204.705 143.848 205.857 141.424 206.349 137.62ZM204.165 137.884C204.693 141.184 205.845 144.016 208.077 145.192C207.861 145.372 207.573 145.72 207.441 145.96C205.089 144.58 203.949 141.652 203.349 138.016L204.165 137.884ZM198.069 143.62L198.549 143.008C199.989 143.56 201.477 144.352 202.341 145.012L201.717 145.66C200.889 144.988 199.461 144.184 198.069 143.62ZM210.945 134.968H211.785V145.948H210.945V134.968ZM209.013 138.952H213.753V139.804H209.013V138.952ZM210.813 139.396L211.353 139.636C210.933 141.268 210.081 143.344 209.277 144.436C209.181 144.172 208.965 143.788 208.821 143.548C209.589 142.624 210.429 140.8 210.813 139.396ZM211.761 139.96C212.097 140.32 213.321 141.952 213.597 142.348L212.997 143.068C212.697 142.42 211.713 140.848 211.317 140.332L211.761 139.96ZM209.097 135.856L209.757 135.688C210.093 136.528 210.369 137.62 210.453 138.34L209.745 138.532C209.685 137.812 209.409 136.696 209.097 135.856ZM212.973 135.64L213.765 135.844C213.453 136.756 213.081 137.884 212.757 138.556L212.181 138.376C212.445 137.656 212.805 136.456 212.973 135.64ZM217.629 134.932H218.481V145.96H217.629V134.932ZM213.729 142.564L219.897 141.46L220.041 142.288L213.873 143.404L213.729 142.564ZM214.629 136.396L215.097 135.784C215.793 136.192 216.621 136.804 217.017 137.248L216.537 137.944C216.153 137.476 215.325 136.828 214.629 136.396ZM214.017 139.42L214.437 138.784C215.157 139.156 216.045 139.72 216.477 140.152L216.021 140.86C215.601 140.428 214.737 139.816 214.017 139.42ZM225.657 139.036H232.101V139.924H225.657V139.036ZM228.477 134.956H229.389V145.96H228.477V134.956ZM221.469 138.556H225.213V139.276H221.469V138.556ZM221.541 135.352H225.225V136.072H221.541V135.352ZM221.469 140.164H225.213V140.884H221.469V140.164ZM220.905 136.924H225.681V137.668H220.905V136.924ZM221.889 141.784H225.177V145.288H221.889V144.532H224.373V142.528H221.889V141.784ZM221.457 141.784H222.261V145.84H221.457V141.784ZM233.121 143.188H243.825V143.932H233.121V143.188ZM235.473 139.528V140.224H241.617V139.528H235.473ZM235.473 140.812V141.532H241.617V140.812H235.473ZM235.473 138.256V138.952H241.617V138.256H235.473ZM234.561 137.644H242.553V142.132H234.561V137.644ZM240.153 141.976H241.065V145.948H240.153V141.976ZM234.405 135.82H238.281V136.564H234.405V135.82ZM239.037 135.82H243.717V136.564H239.037V135.82ZM234.633 134.872L235.485 135.1C235.029 136.144 234.297 137.176 233.601 137.848C233.433 137.716 233.073 137.464 232.857 137.356C233.589 136.744 234.261 135.808 234.633 134.872ZM239.361 134.872L240.213 135.076C239.841 136.096 239.145 137.068 238.461 137.692C238.281 137.548 237.897 137.344 237.669 137.236C238.401 136.66 239.025 135.784 239.361 134.872ZM235.173 136.408L235.929 136.156C236.217 136.528 236.553 137.056 236.685 137.404L235.905 137.692C235.761 137.344 235.473 136.792 235.173 136.408ZM240.225 136.372L240.945 136.048C241.341 136.42 241.797 136.96 242.001 137.344L241.245 137.692C241.053 137.332 240.621 136.756 240.225 136.372ZM236.181 141.964H237.093V142.936C237.093 143.968 236.661 145.18 233.877 145.972C233.745 145.78 233.505 145.48 233.313 145.3C235.881 144.676 236.181 143.644 236.181 142.924V141.964ZM248.301 136.18H255.861V136.984H248.301V136.18ZM249.825 140.98H254.397V141.76H249.825V140.98ZM249.777 142.912H254.409V143.692H249.777V142.912ZM251.601 134.932H252.525V136.564H251.601V134.932ZM253.953 140.284H254.841V145.96H253.953V140.284ZM253.713 136.612L254.565 136.852C253.449 138.88 251.049 139.9 248.397 140.464C248.313 140.26 248.097 139.876 247.941 139.684C250.509 139.264 252.789 138.364 253.713 136.612ZM245.529 135.676L246.033 135.028C246.789 135.352 247.737 135.892 248.193 136.312L247.677 137.044C247.221 136.612 246.297 136.036 245.529 135.676ZM244.893 138.94L245.385 138.268C246.153 138.556 247.125 139.072 247.605 139.468L247.089 140.212C246.621 139.804 245.673 139.264 244.893 138.94ZM245.253 145.216C245.865 144.292 246.741 142.696 247.389 141.328L248.073 141.88C247.485 143.152 246.693 144.676 246.033 145.792L245.253 145.216ZM249.333 140.272H250.197V141.844C250.197 143.14 249.981 144.88 248.481 146.08C248.313 145.924 247.977 145.696 247.761 145.576C249.153 144.496 249.333 142.948 249.333 141.832V140.272ZM250.197 136.576C251.565 138.436 253.533 139.084 256.089 139.552C255.885 139.756 255.681 140.08 255.585 140.356C252.969 139.792 250.929 139 249.465 136.888L250.197 136.576ZM257.637 147.364L256.953 147.052C257.985 145.348 258.489 143.32 258.489 141.28C258.489 139.24 257.985 137.212 256.953 135.508L257.637 135.184C258.741 136.984 259.401 138.928 259.401 141.28C259.401 143.644 258.741 145.564 257.637 147.364Z" fill="#475A88"/>
<path d="M19.392 162.92L20.364 163.196C19.824 164 19.152 164.924 18.612 165.524L17.88 165.248C18.396 164.624 19.044 163.628 19.392 162.92ZM22.272 163.856L22.968 163.424C24.06 164.108 25.392 165.152 26.04 165.896L25.284 166.388C24.672 165.656 23.376 164.576 22.272 163.856ZM16.08 165.008C18.204 164.972 21.612 164.9 24.78 164.804L24.744 165.56C21.672 165.68 18.372 165.788 16.188 165.836L16.08 165.008ZM15.624 166.82H26.388V167.6H15.624V166.82ZM21.348 168.176L22.056 168.524C21.156 169.208 19.728 169.784 18.516 170.12C18.396 169.952 18.18 169.712 17.988 169.568C19.14 169.28 20.58 168.74 21.348 168.176ZM22.596 169.568L23.316 169.916C22.152 170.876 20.208 171.584 18.432 171.992C18.324 171.8 18.12 171.512 17.928 171.344C19.62 171.008 21.564 170.36 22.596 169.568ZM24.156 170.924L24.936 171.296C23.472 172.82 20.724 173.636 17.676 174.032C17.58 173.804 17.412 173.492 17.244 173.288C20.16 172.964 22.836 172.232 24.156 170.924ZM19.884 165.416L20.772 165.644C19.812 167.996 18.036 169.652 15.876 170.672C15.756 170.504 15.42 170.144 15.216 169.976C17.364 169.088 19.056 167.54 19.884 165.416ZM22.908 166.988C23.676 168.2 25.212 169.352 26.652 169.904C26.448 170.072 26.184 170.408 26.052 170.612C24.576 169.952 23.016 168.668 22.152 167.288L22.908 166.988ZM34.26 172.028H37.524V172.904H34.26V172.028ZM27.636 165.2H32.244V166.076H27.636V165.2ZM33.852 164.42H37.956V173.696H37.044V165.284H34.728V173.78H33.852V164.42ZM32.004 165.2H32.88C32.88 165.2 32.88 165.536 32.88 165.656C32.784 170.996 32.7 172.748 32.316 173.276C32.1 173.588 31.884 173.696 31.524 173.732C31.188 173.78 30.636 173.78 30.096 173.744C30.084 173.48 29.988 173.084 29.832 172.832C30.396 172.88 30.912 172.88 31.14 172.88C31.32 172.892 31.428 172.856 31.536 172.7C31.812 172.328 31.92 170.552 32.004 165.416V165.2ZM29.34 163.088H30.216C30.204 167.516 30.144 171.68 28.032 173.972C27.876 173.768 27.564 173.492 27.336 173.36C29.34 171.248 29.328 167.288 29.34 163.088ZM39.648 166.784H50.34V167.588H39.648V166.784ZM40.704 164.432H47.652V165.236H40.704V164.432ZM42.648 170.804H48.3V171.524H42.648V170.804ZM42.648 172.796H48.3V173.576H42.648V172.796ZM43.788 162.92H44.664V167.216H43.788V162.92ZM49.044 163.34L49.812 163.748C47.4 166.904 43.788 169.268 39.948 170.744C39.84 170.54 39.552 170.168 39.372 169.988C43.248 168.644 46.824 166.316 49.044 163.34ZM42.156 168.86H48.876V173.924H47.94V169.616H43.056V173.972H42.156V168.86ZM52.656 168.32C52.224 168.32 51.876 167.984 51.876 167.492C51.876 166.988 52.224 166.652 52.656 166.652C53.1 166.652 53.46 166.988 53.46 167.492C53.46 167.984 53.1 168.32 52.656 168.32ZM52.656 173.168C52.224 173.168 51.876 172.82 51.876 172.328C51.876 171.824 52.224 171.488 52.656 171.488C53.1 171.488 53.46 171.824 53.46 172.328C53.46 172.82 53.1 173.168 52.656 173.168Z" fill="#475A88"/>
<path d="M84.12 163.532C84.42 163.964 84.852 164.684 85.092 165.176L84.444 165.464C84.216 164.984 83.808 164.252 83.484 163.808L84.12 163.532ZM85.428 163.052C85.752 163.484 86.208 164.24 86.436 164.684L85.8 164.972C85.536 164.444 85.14 163.772 84.804 163.316L85.428 163.052ZM79.764 163.964C79.668 164.24 79.548 164.564 79.464 164.816C79.272 165.356 79.008 166.088 78.672 166.748C78.192 167.684 77.316 168.908 76.56 169.532L75.612 168.956C76.476 168.344 77.34 167.108 77.748 166.376C78.084 165.776 78.288 165.164 78.432 164.696C78.528 164.396 78.588 164.06 78.612 163.748L79.764 163.964ZM78.264 166.028C79.056 166.028 84.18 166.028 84.672 166.028C84.972 166.028 85.452 166.016 85.8 165.956V166.988C85.416 166.964 84.948 166.964 84.672 166.964C84.18 166.964 79.032 166.964 78.132 166.964L78.264 166.028ZM82.668 166.532C82.56 170.228 81.192 172.352 79.044 173.72L78.024 173.024C78.36 172.892 78.732 172.676 78.996 172.46C80.232 171.536 81.588 169.856 81.648 166.532H82.668ZM96.588 164.984C96.516 165.08 96.36 165.344 96.3 165.5C95.82 166.688 94.908 168.368 93.912 169.472C92.568 170.972 90.852 172.4 88.956 173.264L88.188 172.46C90.132 171.716 91.896 170.276 93.132 168.908C93.948 167.984 94.824 166.556 95.136 165.56C94.704 165.56 90.864 165.56 90.456 165.56C90.024 165.56 89.376 165.608 89.244 165.62V164.54C89.4 164.564 90.084 164.612 90.456 164.612C90.924 164.612 94.632 164.612 95.088 164.612C95.472 164.612 95.796 164.576 95.988 164.516L96.588 164.984ZM94.068 168.848C95.364 169.928 96.96 171.608 97.776 172.604L96.948 173.336C96.084 172.196 94.68 170.66 93.384 169.52L94.068 168.848ZM103.032 171.944C103.032 171.272 103.032 165.968 103.032 164.972C103.032 164.624 103.008 164.096 102.948 163.712H104.124C104.076 164.084 104.04 164.6 104.04 164.972C104.04 166.832 104.052 171.38 104.052 171.944C104.052 172.328 104.076 172.976 104.124 173.372H102.96C103.02 172.988 103.032 172.388 103.032 171.944ZM103.824 166.868C105.408 167.324 107.832 168.248 109.164 168.896L108.744 169.916C107.376 169.184 105.132 168.332 103.824 167.924V166.868ZM114.276 173.168C112.872 173.168 111.924 172.652 111.3 171.932L112.14 170.816C112.668 171.332 113.304 171.74 114.108 171.74C115.02 171.74 115.632 171.284 115.632 170.492C115.632 169.616 115.116 169.076 113.184 169.076V167.804C114.816 167.804 115.344 167.252 115.344 166.46C115.344 165.764 114.912 165.344 114.156 165.344C113.52 165.344 113.004 165.644 112.476 166.136L111.576 165.044C112.344 164.384 113.196 163.964 114.228 163.964C115.944 163.964 117.108 164.804 117.108 166.328C117.108 167.276 116.58 167.984 115.632 168.344V168.404C116.64 168.692 117.408 169.424 117.408 170.6C117.408 172.232 115.98 173.168 114.276 173.168ZM123.454 163.292H124.45C124.354 165.176 124.174 171.164 119.206 173.864C119.05 173.636 118.75 173.36 118.474 173.156C123.37 170.66 123.37 164.888 123.454 163.292ZM124.414 163.532C124.45 164.468 124.798 170.84 129.742 173.108C129.478 173.312 129.202 173.612 129.058 173.864C123.97 171.428 123.634 164.72 123.55 163.616L124.414 163.532Z" fill="#475A88"/>
<path d="M145.692 164.516C145.632 164.216 145.56 163.952 145.476 163.7L146.544 163.52C146.568 163.736 146.616 164.084 146.664 164.348C146.736 164.876 148.056 171.464 148.224 172.256C148.308 172.592 148.404 173 148.524 173.348L147.42 173.552C147.36 173.144 147.324 172.772 147.24 172.424C147.12 171.668 145.836 165.14 145.692 164.516ZM142.308 166.256C142.608 166.232 142.932 166.208 143.316 166.172C144.396 166.052 148.536 165.392 149.676 165.164C150.024 165.104 150.336 165.032 150.54 164.972L150.732 165.98C150.552 165.992 150.192 166.052 149.868 166.1C148.632 166.292 144.54 166.94 143.484 167.12C143.16 167.18 142.872 167.24 142.524 167.324L142.308 166.256ZM142.272 169.712C142.56 169.7 143.016 169.652 143.328 169.604C144.612 169.436 149.076 168.704 150.516 168.44C150.972 168.356 151.32 168.272 151.572 168.2L151.776 169.208C151.524 169.232 151.14 169.304 150.696 169.376C149.1 169.616 144.768 170.324 143.556 170.54C143.088 170.624 142.752 170.696 142.488 170.768L142.272 169.712ZM157.62 165.656C157.644 165.872 157.716 166.124 157.788 166.436C158.064 167.432 159.372 172.184 159.624 173C159.696 173.228 159.804 173.6 159.888 173.816L158.856 174.092C158.832 173.816 158.772 173.504 158.688 173.216C158.436 172.352 157.152 167.516 156.876 166.628C156.792 166.34 156.696 166.1 156.588 165.908L157.62 165.656ZM163.38 167.312C162.876 168.32 161.64 170.012 160.812 170.816L159.972 170.384C160.716 169.748 161.628 168.632 162.036 167.924C161.508 168.02 155.892 169.148 155.04 169.328L154.8 168.416C155.136 168.38 155.436 168.344 155.796 168.272C156.396 168.176 161.628 167.192 162.312 167.036C162.468 167 162.648 166.94 162.768 166.88L163.38 167.312ZM174.588 164.984C174.516 165.08 174.36 165.344 174.3 165.5C173.82 166.688 172.908 168.368 171.912 169.472C170.568 170.972 168.852 172.4 166.956 173.264L166.188 172.46C168.132 171.716 169.896 170.276 171.132 168.908C171.948 167.984 172.824 166.556 173.136 165.56C172.704 165.56 168.864 165.56 168.456 165.56C168.024 165.56 167.376 165.608 167.244 165.62V164.54C167.4 164.564 168.084 164.612 168.456 164.612C168.924 164.612 172.632 164.612 173.088 164.612C173.472 164.612 173.796 164.576 173.988 164.516L174.588 164.984ZM172.068 168.848C173.364 169.928 174.96 171.608 175.776 172.604L174.948 173.336C174.084 172.196 172.68 170.66 171.384 169.52L172.068 168.848ZM181.032 171.944C181.032 171.272 181.032 165.968 181.032 164.972C181.032 164.624 181.008 164.096 180.948 163.712H182.124C182.076 164.084 182.04 164.6 182.04 164.972C182.04 166.832 182.052 171.38 182.052 171.944C182.052 172.328 182.076 172.976 182.124 173.372H180.96C181.02 172.988 181.032 172.388 181.032 171.944ZM181.824 166.868C183.408 167.324 185.832 168.248 187.164 168.896L186.744 169.916C185.376 169.184 183.132 168.332 181.824 167.924V166.868ZM192.276 173.168C190.872 173.168 189.924 172.652 189.3 171.932L190.14 170.816C190.668 171.332 191.304 171.74 192.108 171.74C193.02 171.74 193.632 171.284 193.632 170.492C193.632 169.616 193.116 169.076 191.184 169.076V167.804C192.816 167.804 193.344 167.252 193.344 166.46C193.344 165.764 192.912 165.344 192.156 165.344C191.52 165.344 191.004 165.644 190.476 166.136L189.576 165.044C190.344 164.384 191.196 163.964 192.228 163.964C193.944 163.964 195.108 164.804 195.108 166.328C195.108 167.276 194.58 167.984 193.632 168.344V168.404C194.64 168.692 195.408 169.424 195.408 170.6C195.408 172.232 193.98 173.168 192.276 173.168ZM201.454 163.292H202.45C202.354 165.176 202.174 171.164 197.206 173.864C197.05 173.636 196.75 173.36 196.474 173.156C201.37 170.66 201.37 164.888 201.454 163.292ZM202.414 163.532C202.45 164.468 202.798 170.84 207.742 173.108C207.478 173.312 207.202 173.612 207.058 173.864C201.97 171.428 201.634 164.72 201.55 163.616L202.414 163.532Z" fill="#475A88"/>
<path d="M19.392 190.92L20.364 191.196C19.824 192 19.152 192.924 18.612 193.524L17.88 193.248C18.396 192.624 19.044 191.628 19.392 190.92ZM22.272 191.856L22.968 191.424C24.06 192.108 25.392 193.152 26.04 193.896L25.284 194.388C24.672 193.656 23.376 192.576 22.272 191.856ZM16.08 193.008C18.204 192.972 21.612 192.9 24.78 192.804L24.744 193.56C21.672 193.68 18.372 193.788 16.188 193.836L16.08 193.008ZM15.624 194.82H26.388V195.6H15.624V194.82ZM21.348 196.176L22.056 196.524C21.156 197.208 19.728 197.784 18.516 198.12C18.396 197.952 18.18 197.712 17.988 197.568C19.14 197.28 20.58 196.74 21.348 196.176ZM22.596 197.568L23.316 197.916C22.152 198.876 20.208 199.584 18.432 199.992C18.324 199.8 18.12 199.512 17.928 199.344C19.62 199.008 21.564 198.36 22.596 197.568ZM24.156 198.924L24.936 199.296C23.472 200.82 20.724 201.636 17.676 202.032C17.58 201.804 17.412 201.492 17.244 201.288C20.16 200.964 22.836 200.232 24.156 198.924ZM19.884 193.416L20.772 193.644C19.812 195.996 18.036 197.652 15.876 198.672C15.756 198.504 15.42 198.144 15.216 197.976C17.364 197.088 19.056 195.54 19.884 193.416ZM22.908 194.988C23.676 196.2 25.212 197.352 26.652 197.904C26.448 198.072 26.184 198.408 26.052 198.612C24.576 197.952 23.016 196.668 22.152 195.288L22.908 194.988ZM34.26 200.028H37.524V200.904H34.26V200.028ZM27.636 193.2H32.244V194.076H27.636V193.2ZM33.852 192.42H37.956V201.696H37.044V193.284H34.728V201.78H33.852V192.42ZM32.004 193.2H32.88C32.88 193.2 32.88 193.536 32.88 193.656C32.784 198.996 32.7 200.748 32.316 201.276C32.1 201.588 31.884 201.696 31.524 201.732C31.188 201.78 30.636 201.78 30.096 201.744C30.084 201.48 29.988 201.084 29.832 200.832C30.396 200.88 30.912 200.88 31.14 200.88C31.32 200.892 31.428 200.856 31.536 200.7C31.812 200.328 31.92 198.552 32.004 193.416V193.2ZM29.34 191.088H30.216C30.204 195.516 30.144 199.68 28.032 201.972C27.876 201.768 27.564 201.492 27.336 201.36C29.34 199.248 29.328 195.288 29.34 191.088ZM46.524 191.496C46.5 191.64 46.464 192.108 46.464 192.252C46.428 193.032 46.452 195.348 46.464 196.308L45.552 195.84C45.552 195.312 45.54 192.924 45.504 192.264C45.48 191.94 45.444 191.604 45.42 191.496H46.524ZM40.14 193.176C41.772 193.152 44.772 193.044 46.62 193.044C48.084 193.044 49.572 193.044 50.136 193.056L50.124 193.944C49.452 193.908 48.372 193.884 46.608 193.884C44.544 193.884 41.976 193.968 40.164 194.1L40.14 193.176ZM46.44 196.656C46.44 198.264 45.696 199.068 44.604 199.068C43.596 199.068 42.624 198.36 42.624 197.052C42.624 195.864 43.608 194.976 44.748 194.976C46.14 194.976 46.848 196.008 46.848 197.388C46.848 199.02 46.056 200.82 43.272 201.648L42.468 200.868C44.652 200.352 45.924 199.284 45.924 197.304C45.924 196.224 45.396 195.768 44.748 195.768C44.112 195.768 43.524 196.26 43.524 197.04C43.524 197.796 44.088 198.228 44.748 198.228C45.492 198.228 45.972 197.604 45.78 196.32L46.44 196.656ZM53.856 192.168C54.12 192.192 54.456 192.204 54.696 192.204C55.332 192.204 58.176 192.12 58.812 192.06C59.172 192.024 59.34 192 59.472 191.952L60.024 192.66C59.808 192.804 59.568 192.96 59.34 193.14C58.752 193.596 57.12 195 56.184 195.768C56.736 195.588 57.312 195.528 57.852 195.528C59.844 195.528 61.272 196.716 61.272 198.336C61.272 200.268 59.676 201.528 57.132 201.528C55.5 201.528 54.504 200.82 54.504 199.812C54.504 198.996 55.248 198.252 56.352 198.252C57.948 198.252 58.752 199.38 58.836 200.592L57.972 200.736C57.9 199.716 57.312 198.984 56.352 198.984C55.8 198.984 55.38 199.32 55.38 199.74C55.38 200.328 56.04 200.676 56.988 200.676C59.028 200.676 60.312 199.836 60.312 198.336C60.312 197.148 59.184 196.272 57.612 196.272C55.62 196.272 54.54 197.112 53.028 198.66L52.332 197.964C53.328 197.148 54.876 195.852 55.56 195.264C56.232 194.712 57.744 193.452 58.344 192.912C57.708 192.948 55.308 193.044 54.684 193.08C54.408 193.104 54.144 193.116 53.88 193.152L53.856 192.168ZM65.964 193.656H72.072V194.448H65.964V193.656ZM66.576 195.708H67.416V200.4H66.576V195.708ZM67.032 195.708H71.424V199.524H67.032V198.744H70.584V196.464H67.032V195.708ZM64.044 191.544H73.632V192.408H64.92V201.984H64.044V191.544ZM73.08 191.544H73.968V200.82C73.968 201.384 73.824 201.66 73.452 201.804C73.092 201.96 72.492 201.984 71.448 201.972C71.412 201.732 71.268 201.336 71.124 201.096C71.88 201.12 72.588 201.12 72.792 201.108C73.008 201.096 73.08 201.024 73.08 200.82V191.544ZM81.732 195.036H86.256V195.84H81.732V195.036ZM78.912 200.7H84.96V201.504H78.912V200.7ZM81.3 193.608H82.212V198H81.3V193.608ZM78.432 197.568H85.452V201.96H84.528V198.384H79.308V201.984H78.432V197.568ZM80.88 190.932H81.804V192.972H80.88V190.932ZM76.884 192.48H86.424V193.344H76.884V192.48ZM76.44 192.48H77.34V195.588C77.34 197.436 77.172 200.148 76.14 201.972C75.984 201.816 75.588 201.564 75.372 201.468C76.356 199.74 76.44 197.316 76.44 195.588V192.48ZM92.424 192.6H98.46V193.392H92.424V192.6ZM93.156 196.512H97.872V197.268H93.156V196.512ZM93.156 198.504H97.872V199.26H93.156V198.504ZM95.04 190.92H95.856V201.876H95.04V190.92ZM97.428 194.532H98.232V201.036C98.232 201.432 98.16 201.672 97.896 201.792C97.632 201.936 97.248 201.948 96.624 201.948C96.6 201.732 96.48 201.396 96.372 201.18C96.78 201.192 97.152 201.192 97.272 201.18C97.38 201.18 97.428 201.144 97.428 201.012V194.532ZM92.76 194.532H97.848V195.312H93.564V201.936H92.76V194.532ZM96.228 191.388L96.72 190.956C97.296 191.22 97.992 191.664 98.328 191.988L97.8 192.492C97.464 192.144 96.78 191.688 96.228 191.388ZM88.068 197.976H92.088V201.648H91.26V198.732H88.872V201.876H88.068V197.976ZM89.628 193.272H90.468V196.704H89.628V193.272ZM88.128 194.448H92.04V195.168H88.128V194.448ZM87.672 196.404H92.364V197.16H87.672V196.404ZM88.392 200.484H91.716V201.24H88.392V200.484ZM89.496 190.932H89.988V191.124H90.264V191.376C89.784 192.264 89.004 193.5 87.864 194.544C87.732 194.352 87.444 194.076 87.264 193.956C88.308 193.056 89.076 191.856 89.496 190.932ZM89.676 190.932H90.336C91.068 191.58 91.968 192.516 92.388 193.128L91.824 193.824C91.404 193.2 90.564 192.168 89.844 191.544H89.676V190.932ZM103.692 192.516C103.632 192.216 103.56 191.952 103.476 191.7L104.544 191.52C104.568 191.736 104.616 192.084 104.664 192.348C104.736 192.876 106.056 199.464 106.224 200.256C106.308 200.592 106.404 201 106.524 201.348L105.42 201.552C105.36 201.144 105.324 200.772 105.24 200.424C105.12 199.668 103.836 193.14 103.692 192.516ZM100.308 194.256C100.608 194.232 100.932 194.208 101.316 194.172C102.396 194.052 106.536 193.392 107.676 193.164C108.024 193.104 108.336 193.032 108.54 192.972L108.732 193.98C108.552 193.992 108.192 194.052 107.868 194.1C106.632 194.292 102.54 194.94 101.484 195.12C101.16 195.18 100.872 195.24 100.524 195.324L100.308 194.256ZM100.272 197.712C100.56 197.7 101.016 197.652 101.328 197.604C102.612 197.436 107.076 196.704 108.516 196.44C108.972 196.356 109.32 196.272 109.572 196.2L109.776 197.208C109.524 197.232 109.14 197.304 108.696 197.376C107.1 197.616 102.768 198.324 101.556 198.54C101.088 198.624 100.752 198.696 100.488 198.768L100.272 197.712ZM115.62 193.656C115.644 193.872 115.716 194.124 115.788 194.436C116.064 195.432 117.372 200.184 117.624 201C117.696 201.228 117.804 201.6 117.888 201.816L116.856 202.092C116.832 201.816 116.772 201.504 116.688 201.216C116.436 200.352 115.152 195.516 114.876 194.628C114.792 194.34 114.696 194.1 114.588 193.908L115.62 193.656ZM121.38 195.312C120.876 196.32 119.64 198.012 118.812 198.816L117.972 198.384C118.716 197.748 119.628 196.632 120.036 195.924C119.508 196.02 113.892 197.148 113.04 197.328L112.8 196.416C113.136 196.38 113.436 196.344 113.796 196.272C114.396 196.176 119.628 195.192 120.312 195.036C120.468 195 120.648 194.94 120.768 194.88L121.38 195.312ZM132.588 192.984C132.516 193.08 132.36 193.344 132.3 193.5C131.82 194.688 130.908 196.368 129.912 197.472C128.568 198.972 126.852 200.4 124.956 201.264L124.188 200.46C126.132 199.716 127.896 198.276 129.132 196.908C129.948 195.984 130.824 194.556 131.136 193.56C130.704 193.56 126.864 193.56 126.456 193.56C126.024 193.56 125.376 193.608 125.244 193.62V192.54C125.4 192.564 126.084 192.612 126.456 192.612C126.924 192.612 130.632 192.612 131.088 192.612C131.472 192.612 131.796 192.576 131.988 192.516L132.588 192.984ZM130.068 196.848C131.364 197.928 132.96 199.608 133.776 200.604L132.948 201.336C132.084 200.196 130.68 198.66 129.384 197.52L130.068 196.848ZM139.032 199.944C139.032 199.272 139.032 193.968 139.032 192.972C139.032 192.624 139.008 192.096 138.948 191.712H140.124C140.076 192.084 140.04 192.6 140.04 192.972C140.04 194.832 140.052 199.38 140.052 199.944C140.052 200.328 140.076 200.976 140.124 201.372H138.96C139.02 200.988 139.032 200.388 139.032 199.944ZM139.824 194.868C141.408 195.324 143.832 196.248 145.164 196.896L144.744 197.916C143.376 197.184 141.132 196.332 139.824 195.924V194.868Z" fill="#475A88"/>
</svg>
