<svg width="18" height="18" viewBox="0 0 18 18" fill="none" xmlns="http://www.w3.org/2000/svg">
<g clip-path="url(#clip0_2898_21693)">
<path d="M3.30469 0H2.46094C1.10398 0 0 1.10398 0 2.46094V15.5391C0 16.896 1.10398 18 2.46094 18H3.30469C4.66165 18 5.76562 16.896 5.76562 15.5391V2.46094C5.76562 1.10398 4.66165 0 3.30469 0ZM4.35938 15.5391C4.35938 16.1206 3.88624 16.5938 3.30469 16.5938H2.46094C1.87938 16.5938 1.40625 16.1206 1.40625 15.5391V2.46094C1.40625 1.87938 1.87938 1.40625 2.46094 1.40625H3.30469C3.88624 1.40625 4.35938 1.87938 4.35938 2.46094V15.5391Z" fill="#475A88"/>
<path d="M15.5391 0H9.70312C8.34616 0 7.24219 1.10398 7.24219 2.46094V3.30469C7.24219 4.66165 8.34616 5.76562 9.70312 5.76562H15.5391C16.896 5.76562 18 4.66165 18 3.30469V2.46094C18 1.10398 16.896 0 15.5391 0ZM16.5938 3.30469C16.5938 3.88624 16.1206 4.35938 15.5391 4.35938H9.70312C9.12157 4.35938 8.64844 3.88624 8.64844 3.30469V2.46094C8.64844 1.87938 9.12157 1.40625 9.70312 1.40625H15.5391C16.1206 1.40625 16.5938 1.87938 16.5938 2.46094V3.30469Z" fill="#475A88"/>
<path d="M15.5391 7.27734H9.70312C8.34616 7.27734 7.24219 8.38132 7.24219 9.73828V15.5391C7.24219 16.896 8.34616 18 9.70312 18H15.5391C16.896 18 18 16.896 18 15.5391C18 15.1507 17.6852 14.8359 17.2969 14.8359C16.9085 14.8359 16.5938 15.1507 16.5938 15.5391C16.5938 16.1206 16.1206 16.5938 15.5391 16.5938H9.70312C9.12157 16.5938 8.64844 16.1206 8.64844 15.5391V9.73828C8.64844 9.15673 9.12157 8.68359 9.70312 8.68359H15.5391C16.1206 8.68359 16.5938 9.15673 16.5938 9.73828V12.0234C16.5938 12.4118 16.9085 12.7266 17.2969 12.7266C17.6852 12.7266 18 12.4118 18 12.0234V9.73828C18 8.38132 16.896 7.27734 15.5391 7.27734Z" fill="#475A88"/>
</g>
<defs>
<clipPath id="clip0_2898_21693">
<rect width="18" height="18" fill="white"/>
</clipPath>
</defs>
</svg>
