<svg width="18" height="19" viewBox="0 0 18 19" fill="none" xmlns="http://www.w3.org/2000/svg">
<g clip-path="url(#clip0_3150_46652)">
<path d="M3.30469 0.820312H2.46094C1.10398 0.820312 0 1.92429 0 3.28125V16.3594C0 17.7163 1.10398 18.8203 2.46094 18.8203H3.30469C4.66165 18.8203 5.76562 17.7163 5.76562 16.3594V3.28125C5.76562 1.92429 4.66165 0.820312 3.30469 0.820312ZM4.35938 16.3594C4.35938 16.9409 3.88624 17.4141 3.30469 17.4141H2.46094C1.87938 17.4141 1.40625 16.9409 1.40625 16.3594V3.28125C1.40625 2.6997 1.87938 2.22656 2.46094 2.22656H3.30469C3.88624 2.22656 4.35938 2.6997 4.35938 3.28125V16.3594Z" fill="#5D5FEF"/>
<path d="M15.5391 0.820312H9.70312C8.34616 0.820312 7.24219 1.92429 7.24219 3.28125V4.125C7.24219 5.48196 8.34616 6.58594 9.70312 6.58594H15.5391C16.896 6.58594 18 5.48196 18 4.125V3.28125C18 1.92429 16.896 0.820312 15.5391 0.820312ZM16.5938 4.125C16.5938 4.70655 16.1206 5.17969 15.5391 5.17969H9.70312C9.12157 5.17969 8.64844 4.70655 8.64844 4.125V3.28125C8.64844 2.6997 9.12157 2.22656 9.70312 2.22656H15.5391C16.1206 2.22656 16.5938 2.6997 16.5938 3.28125V4.125Z" fill="#5D5FEF"/>
<path d="M15.5391 8.09766H9.70312C8.34616 8.09766 7.24219 9.20163 7.24219 10.5586V16.3594C7.24219 17.7163 8.34616 18.8203 9.70312 18.8203H15.5391C16.896 18.8203 18 17.7163 18 16.3594C18 15.971 17.6852 15.6562 17.2969 15.6562C16.9085 15.6562 16.5938 15.971 16.5938 16.3594C16.5938 16.9409 16.1206 17.4141 15.5391 17.4141H9.70312C9.12157 17.4141 8.64844 16.9409 8.64844 16.3594V10.5586C8.64844 9.97704 9.12157 9.50391 9.70312 9.50391H15.5391C16.1206 9.50391 16.5938 9.97704 16.5938 10.5586V12.8438C16.5938 13.2321 16.9085 13.5469 17.2969 13.5469C17.6852 13.5469 18 13.2321 18 12.8438V10.5586C18 9.20163 16.896 8.09766 15.5391 8.09766Z" fill="#5D5FEF"/>
</g>
<defs>
<clipPath id="clip0_3150_46652">
<rect width="18" height="18" fill="white" transform="translate(0 0.820312)"/>
</clipPath>
</defs>
</svg>
