<svg width="22" height="22" viewBox="0 0 22 22" fill="none" xmlns="http://www.w3.org/2000/svg">
<path d="M10.8287 3.79785C7.74434 3.79785 3.22852 5.58203 3.22852 9.94609C3.22852 14.7039 8.13398 15.8277 9.79102 16.1682C10.7508 16.365 9.32344 18.3625 10.4596 18.1902C11.5383 18.0262 17.6209 14.3799 18.351 10.5777C19.0687 6.85351 15.201 3.79785 10.8287 3.79785ZM7.96992 11.7795C7.9125 11.8369 7.83047 11.8656 7.71973 11.8656H6.28008C6.13652 11.8656 6.02988 11.8287 5.96836 11.7549C5.90684 11.6811 5.87402 11.5621 5.87402 11.398V8.49414C5.87402 8.33828 5.90273 8.22344 5.96426 8.14551C6.02578 8.06758 6.10371 8.03066 6.20215 8.03066C6.30059 8.03066 6.38262 8.06758 6.44414 8.14551C6.50566 8.22344 6.53848 8.33828 6.53848 8.49414V11.2381H7.72793C7.83457 11.2381 7.9166 11.2668 7.97402 11.3283C8.03145 11.3898 8.06016 11.4637 8.06016 11.5539C8.05605 11.6482 8.02734 11.7221 7.96992 11.7795ZM9.34395 11.4637C9.34395 11.6195 9.31113 11.7385 9.24961 11.8123C9.18809 11.8902 9.10605 11.9271 9.00762 11.9271C8.91328 11.9271 8.83535 11.8861 8.76973 11.8082C8.7082 11.7303 8.67539 11.6154 8.67539 11.4596V8.48594C8.67539 8.33008 8.7041 8.21523 8.76562 8.1373C8.82715 8.05937 8.90508 8.02246 9.00352 8.02246C9.10195 8.02246 9.18398 8.05937 9.24551 8.1373C9.30703 8.21523 9.33984 8.33008 9.33984 8.48594V11.4637H9.34395ZM12.8426 11.435C12.8426 11.7672 12.7236 11.9313 12.4857 11.9313C12.4242 11.9313 12.3709 11.923 12.3258 11.9025C12.2766 11.882 12.2314 11.8533 12.1904 11.8082C12.1494 11.7672 12.1084 11.7139 12.0756 11.6564C12.0387 11.599 12.0059 11.5416 11.9689 11.4801L10.7221 9.28164V11.4924C10.7221 11.6359 10.6934 11.7467 10.6359 11.8205C10.5785 11.8943 10.5047 11.9313 10.4104 11.9313C10.316 11.9313 10.2422 11.8943 10.1848 11.8205C10.1273 11.7467 10.0986 11.6359 10.0986 11.4965V8.58848C10.0986 8.46543 10.1109 8.36699 10.1355 8.29727C10.1643 8.21934 10.2094 8.15781 10.275 8.10859C10.3406 8.05937 10.4104 8.03477 10.4883 8.03477C10.5498 8.03477 10.599 8.04707 10.64 8.06758C10.6811 8.08809 10.718 8.1209 10.7508 8.15781C10.7836 8.19473 10.8164 8.24395 10.8492 8.30547C10.882 8.36699 10.9189 8.42852 10.9518 8.49414L12.2314 10.7172V8.47363C12.2314 8.32598 12.2602 8.21934 12.3135 8.14551C12.3668 8.07168 12.4406 8.03477 12.535 8.03477C12.6293 8.03477 12.7072 8.07168 12.7605 8.14551C12.8139 8.21934 12.8426 8.32598 12.8426 8.47363V11.435ZM15.8859 11.7836C15.8326 11.841 15.7547 11.8656 15.648 11.8656H13.9746C13.8311 11.8656 13.7244 11.8287 13.6629 11.7549C13.6014 11.6811 13.5686 11.5621 13.5686 11.398V8.56387C13.5686 8.45312 13.5809 8.36289 13.6096 8.29316C13.6383 8.22344 13.6834 8.17422 13.7408 8.14141C13.8023 8.10859 13.8803 8.09219 13.9705 8.09219H15.5906C15.6973 8.09219 15.7752 8.1209 15.8285 8.17422C15.8818 8.22754 15.9064 8.29727 15.9064 8.3875C15.9064 8.47773 15.8818 8.54746 15.8285 8.60078C15.7752 8.6541 15.6973 8.68281 15.5906 8.68281H14.2371V9.60977H15.5496C15.6521 9.60977 15.726 9.63438 15.7752 9.6877C15.8244 9.74102 15.849 9.81074 15.849 9.89688C15.849 9.98301 15.8244 10.0527 15.7752 10.1061C15.726 10.1594 15.648 10.1881 15.5455 10.1881H14.2371V11.2627H15.6521C15.7547 11.2627 15.8367 11.2914 15.89 11.3447C15.9434 11.4021 15.968 11.476 15.968 11.5662C15.9639 11.6523 15.9393 11.7262 15.8859 11.7836Z" fill="white"/>
</svg>
