<svg width="27" height="29" viewBox="0 0 27 29" fill="none" xmlns="http://www.w3.org/2000/svg">
<path fill-rule="evenodd" clip-rule="evenodd" d="M5.05817 18.9564C4.75239 18.7972 4.53763 18.5849 4.42058 18.325C4.19246 17.82 4.195 17.039 5.74425 14.7622C6.28461 13.9684 6.84469 13.2417 7.15855 12.8448C6.86741 12.3313 6.34627 11.3844 5.87282 10.3822C4.76782 8.04241 4.57228 6.8204 5.21863 6.29618C6.21577 5.48704 9.57723 6.88957 11.7497 7.93757C15.8314 4.2188 16.7895 4.71814 17.1094 4.88471C17.4289 5.05107 18.3867 5.54895 18.4601 11.4216C20.649 12.5923 23.8537 14.5623 23.7854 16.032C23.7162 17.505 20.3656 18.2074 18.0747 18.5153C17.9199 20.8794 17.4335 24.3435 15.9142 24.3974C15.6702 24.4061 15.4061 24.3376 15.1298 24.1937L15.1296 24.1936C13.733 23.4664 11.7664 20.4871 11.0536 19.3542C9.6918 19.4457 6.29045 19.5981 5.05817 18.9564Z" fill="#8B572A"/>
<path fill-rule="evenodd" clip-rule="evenodd" d="M6.17415 18.1281C5.90659 17.9888 5.71822 17.8041 5.61489 17.5789C5.4135 17.1412 5.41212 16.4665 6.75351 14.5084C7.22137 13.8256 7.70676 13.201 7.9788 12.8599C7.72238 12.4146 7.26327 11.5935 6.84553 10.7249C5.87053 8.69703 5.69427 7.64012 6.25586 7.19092C7.12224 6.49758 10.0619 7.72863 11.9624 8.64654C15.507 5.45708 16.3453 5.894 16.6252 6.03974C16.9048 6.18531 17.7429 6.62097 17.834 11.6952C19.7494 12.7192 22.5549 14.4396 22.5021 15.709C22.4485 16.9812 19.528 17.5688 17.5304 17.8217C17.4062 19.8633 16.9977 22.8535 15.6722 22.8913C15.4593 22.8974 15.2285 22.8367 14.9868 22.7108L14.9866 22.7107C13.7646 22.0744 12.0348 19.4891 11.4076 18.5062C10.2197 18.5775 7.2524 18.6895 6.17415 18.1281Z" fill="url(#paint0_linear_2085_86992)"/>
<defs>
<linearGradient id="paint0_linear_2085_86992" x1="8.50567" y1="1.8118" x2="1.4022" y2="15.4537" gradientUnits="userSpaceOnUse">
<stop stop-color="#FFE813"/>
<stop offset="1" stop-color="#FFAD00"/>
</linearGradient>
</defs>
</svg>
