<svg width="41" height="40" viewBox="0 0 41 40" fill="none" xmlns="http://www.w3.org/2000/svg">
<path fill-rule="evenodd" clip-rule="evenodd" d="M16.6136 29.5217C16.6358 29.5263 18.8272 29.9711 20.5002 29.9711C28.7713 29.9711 35.5 24.5947 35.5 17.9861C35.5 11.3764 28.7713 6 20.5002 6C12.229 6 5.50036 11.3764 5.5 17.9864C5.5 20.4815 6.45202 22.8735 8.2531 24.9048C8.69048 25.3974 8.87051 25.5659 8.89134 25.5854L8.8934 25.5874C9.59719 26.2003 10.0169 27.2425 9.8673 28.0095C9.8673 28.0095 8.81699 33.3836 8.83744 33.3779L14.2974 29.9349C14.8821 29.5665 15.9144 29.3776 16.6136 29.5217ZM20.5 20.3478C21.5806 20.3478 22.4565 19.4719 22.4565 18.3913C22.4565 17.3107 21.5806 16.4348 20.5 16.4348C19.4194 16.4348 18.5435 17.3107 18.5435 18.3913C18.5435 19.4719 19.4194 20.3478 20.5 20.3478ZM15.9348 18.3913C15.9348 19.4719 15.0588 20.3478 13.9783 20.3478C12.8977 20.3478 12.0217 19.4719 12.0217 18.3913C12.0217 17.3107 12.8977 16.4348 13.9783 16.4348C15.0588 16.4348 15.9348 17.3107 15.9348 18.3913ZM27.0217 20.3478C28.1023 20.3478 28.9783 19.4719 28.9783 18.3913C28.9783 17.3107 28.1023 16.4348 27.0217 16.4348C25.9412 16.4348 25.0652 17.3107 25.0652 18.3913C25.0652 19.4719 25.9412 20.3478 27.0217 20.3478Z" fill="url(#paint0_linear_2085_86497)"/>
<defs>
<linearGradient id="paint0_linear_2085_86497" x1="35.5" y1="33.3779" x2="5.01937" y2="32.8319" gradientUnits="userSpaceOnUse">
<stop stop-color="#B83AF3"/>
<stop offset="0.98" stop-color="#5E50FB"/>
</linearGradient>
</defs>
</svg>
