<svg width="20" height="20" viewBox="0 0 20 20" fill="none" xmlns="http://www.w3.org/2000/svg">
<path d="M11.7881 10L7.25133 5.46323C6.9166 5.1285 6.9166 4.58579 7.25133 4.25105C7.58607 3.91632 8.12878 3.91632 8.46351 4.25105L13.6064 9.39391C13.9411 9.72864 13.9411 10.2714 13.6064 10.6061L8.46351 15.7489C8.12878 16.0837 7.58607 16.0837 7.25133 15.7489C6.9166 15.4142 6.9166 14.8715 7.25133 14.5368L11.7881 10Z" fill="#D4D4D4"/>
<mask id="mask0_1988_78858" style="mask-type:luminance" maskUnits="userSpaceOnUse" x="7" y="4" width="7" height="12">
<path d="M11.7881 10L7.25133 5.46323C6.9166 5.1285 6.9166 4.58579 7.25133 4.25105C7.58607 3.91632 8.12878 3.91632 8.46351 4.25105L13.6064 9.39391C13.9411 9.72864 13.9411 10.2714 13.6064 10.6061L8.46351 15.7489C8.12878 16.0837 7.58607 16.0837 7.25133 15.7489C6.9166 15.4142 6.9166 14.8715 7.25133 14.5368L11.7881 10Z" fill="white"/>
</mask>
<g mask="url(#mask0_1988_78858)">
</g>
</svg>
