<svg width="41" height="40" viewBox="0 0 41 40" fill="none" xmlns="http://www.w3.org/2000/svg">
<path fill-rule="evenodd" clip-rule="evenodd" d="M23.0004 27.9257C23.0004 29.0494 21.8554 29.9994 20.5004 29.9994C19.1454 29.9994 18.0004 29.0494 18.0004 27.9257V27.4994H23.0004V27.9257ZM31.1517 24.0082L28.9004 21.7544V16.1694C28.9004 11.8182 25.7729 8.12316 21.6242 7.57316C19.2229 7.25441 16.7979 7.98691 14.9792 9.58191C13.1492 11.1844 12.1004 13.4907 12.1004 15.9082L12.0992 21.7544L9.84917 24.0094C9.26292 24.5957 9.08917 25.4707 9.40667 26.2369C9.72542 27.0032 10.4667 27.4994 11.2967 27.4994H15.5004V27.9257C15.5004 30.4482 17.7429 32.4994 20.5004 32.4994C23.2579 32.4994 25.5004 30.4482 25.5004 27.9257V27.4994H29.7029C30.5329 27.4994 31.2742 27.0044 31.5917 26.2369C31.9104 25.4707 31.7367 24.5957 31.1517 24.0082Z" fill="#231F20"/>
<mask id="mask0_2085_86628" style="mask-type:luminance" maskUnits="userSpaceOnUse" x="9" y="7" width="23" height="26">
<path fill-rule="evenodd" clip-rule="evenodd" d="M23.0004 27.9257C23.0004 29.0494 21.8554 29.9994 20.5004 29.9994C19.1454 29.9994 18.0004 29.0494 18.0004 27.9257V27.4994H23.0004V27.9257ZM31.1517 24.0082L28.9004 21.7544V16.1694C28.9004 11.8182 25.7729 8.12316 21.6242 7.57316C19.2229 7.25441 16.7979 7.98691 14.9792 9.58191C13.1492 11.1844 12.1004 13.4907 12.1004 15.9082L12.0992 21.7544L9.84917 24.0094C9.26292 24.5957 9.08917 25.4707 9.40667 26.2369C9.72542 27.0032 10.4667 27.4994 11.2967 27.4994H15.5004V27.9257C15.5004 30.4482 17.7429 32.4994 20.5004 32.4994C23.2579 32.4994 25.5004 30.4482 25.5004 27.9257V27.4994H29.7029C30.5329 27.4994 31.2742 27.0044 31.5917 26.2369C31.9104 25.4707 31.7367 24.5957 31.1517 24.0082Z" fill="white"/>
</mask>
<g mask="url(#mask0_2085_86628)">
<rect x="5.5" y="5" width="30" height="30" fill="url(#paint0_linear_2085_86628)"/>
<rect x="5.5" y="5" width="30" height="30" fill="url(#paint1_linear_2085_86628)"/>
</g>
<defs>
<linearGradient id="paint0_linear_2085_86628" x1="35.5" y1="35" x2="5.01774" y2="34.5017" gradientUnits="userSpaceOnUse">
<stop stop-color="#B83AF3"/>
<stop offset="0.98" stop-color="#5E50FB"/>
</linearGradient>
<linearGradient id="paint1_linear_2085_86628" x1="35.5" y1="35" x2="5.01774" y2="34.5017" gradientUnits="userSpaceOnUse">
<stop stop-color="#B83AF3"/>
<stop offset="0.98" stop-color="#5E50FB"/>
</linearGradient>
</defs>
</svg>
