<svg width="22" height="22" viewBox="0 0 22 22" fill="none" xmlns="http://www.w3.org/2000/svg">
<path d="M21.7983 20.8059L15.7319 14.7396C16.8313 13.4395 17.5365 11.8525 17.7647 10.1652C17.9929 8.47798 17.7345 6.76066 17.0199 5.21526C16.3054 3.66985 15.1644 2.36064 13.7311 1.44159C12.2979 0.522547 10.632 0.0318977 8.92937 0.027352C7.49109 0.0253971 6.07369 0.371371 4.79806 1.03576C3.52243 1.70015 2.42644 2.66324 1.60358 3.84287C0.780713 5.02251 0.255398 6.38368 0.0724417 7.81027C-0.110514 9.23686 0.0543183 10.6865 0.552879 12.0356C1.05144 13.3847 1.86893 14.5932 2.93562 15.558C4.00231 16.5228 5.28655 17.2153 6.67877 17.5763C8.07099 17.9374 9.52989 17.9563 10.931 17.6315C12.3321 17.3067 13.6339 16.6478 14.7253 15.711L20.7916 21.7773C20.939 21.8997 21.1229 21.9697 21.3144 21.9763C21.45 21.9763 21.5825 21.9361 21.6953 21.8608C21.808 21.7854 21.8959 21.6784 21.9478 21.5531C21.9997 21.4278 22.0133 21.29 21.9868 21.157C21.9604 21.024 21.8942 20.9018 21.7983 20.8059ZM8.96736 16.4888C7.47503 16.4888 6.01621 16.0463 4.7754 15.2172C3.53459 14.3881 2.56751 13.2096 1.99646 11.8309C1.42541 10.4521 1.27604 8.93502 1.56725 7.47137C1.85845 6.00773 2.57715 4.66332 3.63245 3.60814C4.68775 2.55297 6.03225 1.83444 7.49592 1.54341C8.9596 1.25238 10.4767 1.40193 11.8554 1.97314C13.2341 2.54435 14.4124 3.51158 15.2414 4.75249C16.0703 5.9934 16.5127 7.45227 16.5125 8.9446C16.5142 9.93587 16.3201 10.9177 15.9415 11.8338C15.5629 12.75 15.0072 13.5823 14.3063 14.2832C13.6053 14.9841 12.7728 15.5397 11.8567 15.9182C10.9405 16.2967 9.95863 16.4906 8.96736 16.4888Z" fill="#283754"/>
</svg>
