<svg width="23" height="22" viewBox="0 0 23 22" fill="none" xmlns="http://www.w3.org/2000/svg">
<path d="M21.8002 20.8059L15.7339 14.7396C16.8333 13.4395 17.5385 11.8525 17.7667 10.1652C17.9948 8.47798 17.7365 6.76066 17.0219 5.21526C16.3073 3.66985 15.1663 2.36064 13.7331 1.44159C12.2998 0.522547 10.6339 0.0318977 8.93132 0.027352C7.49305 0.0253971 6.07564 0.371371 4.80001 1.03576C3.52439 1.70015 2.42839 2.66324 1.60553 3.84287C0.782667 5.02251 0.257351 6.38368 0.0743948 7.81027C-0.108561 9.23686 0.0562714 10.6865 0.554832 12.0356C1.05339 13.3847 1.87089 14.5932 2.93758 15.558C4.00427 16.5228 5.2885 17.2153 6.68072 17.5763C8.07294 17.9374 9.53184 17.9563 10.933 17.6315C12.3341 17.3067 13.6359 16.6478 14.7272 15.711L20.7935 21.7773C20.9409 21.8997 21.1248 21.9697 21.3163 21.9763C21.4519 21.9763 21.5845 21.9361 21.6972 21.8608C21.81 21.7854 21.8979 21.6784 21.9498 21.5531C22.0017 21.4278 22.0152 21.29 21.9888 21.157C21.9623 21.024 21.8961 20.9018 21.8002 20.8059ZM8.96931 16.4888C7.47698 16.4888 6.01817 16.0463 4.77735 15.2172C3.53654 14.3881 2.56946 13.2096 1.99841 11.8309C1.42736 10.4521 1.278 8.93502 1.5692 7.47137C1.86041 6.00773 2.5791 4.66332 3.6344 3.60814C4.6897 2.55297 6.0342 1.83444 7.49788 1.54341C8.96155 1.25238 10.4787 1.40193 11.8573 1.97314C13.236 2.54435 14.4144 3.51158 15.2433 4.75249C16.0723 5.9934 16.5146 7.45227 16.5145 8.9446C16.5161 9.93587 16.3221 10.9177 15.9435 11.8338C15.5649 12.75 15.0092 13.5823 14.3082 14.2832C13.6072 14.9841 12.7748 15.5397 11.8586 15.9182C10.9425 16.2967 9.96058 16.4906 8.96931 16.4888Z" fill="#283754"/>
</svg>
