<svg width="22" height="23" viewBox="0 0 22 23" fill="none" xmlns="http://www.w3.org/2000/svg">
<path d="M21.7983 20.845L15.7319 14.7787C16.8313 13.4785 17.5365 11.8915 17.7647 10.2043C17.9929 8.51705 17.7345 6.79973 17.0199 5.25432C16.3054 3.70892 15.1644 2.3997 13.7311 1.48065C12.2979 0.56161 10.632 0.0709602 8.92937 0.0664145C7.49109 0.0644596 6.07369 0.410434 4.79806 1.07482C3.52243 1.73921 2.42644 2.7023 1.60358 3.88194C0.780713 5.06157 0.255398 6.42274 0.0724417 7.84933C-0.110514 9.27593 0.0543183 10.7256 0.552879 12.0747C1.05144 13.4238 1.86893 14.6323 2.93562 15.5971C4.00231 16.5619 5.28655 17.2543 6.67877 17.6154C8.07099 17.9764 9.52989 17.9953 10.931 17.6705C12.3321 17.3457 13.6339 16.6868 14.7253 15.7501L20.7916 21.8164C20.939 21.9388 21.1229 22.0088 21.3144 22.0154C21.45 22.0154 21.5825 21.9752 21.6953 21.8998C21.808 21.8245 21.8959 21.7174 21.9478 21.5922C21.9997 21.4669 22.0133 21.329 21.9868 21.196C21.9604 21.063 21.8942 20.9409 21.7983 20.845ZM8.96736 16.5279C7.47503 16.5279 6.01621 16.0854 4.7754 15.2563C3.53459 14.4271 2.56751 13.2487 1.99646 11.87C1.42541 10.4912 1.27604 8.97408 1.56725 7.51044C1.85845 6.0468 2.57715 4.70238 3.63245 3.64721C4.68775 2.59203 6.03225 1.8735 7.49592 1.58247C8.9596 1.29144 10.4767 1.44099 11.8554 2.0122C13.2341 2.58342 14.4124 3.55064 15.2414 4.79155C16.0703 6.03246 16.5127 7.49133 16.5125 8.98366C16.5142 9.97493 16.3201 10.9568 15.9415 11.8729C15.5629 12.789 15.0072 13.6214 14.3063 14.3223C13.6053 15.0232 12.7728 15.5788 11.8567 15.9573C10.9405 16.3358 9.95863 16.5297 8.96736 16.5279Z" fill="#283754"/>
</svg>
