<svg width="22" height="23" viewBox="0 0 22 23" fill="none" xmlns="http://www.w3.org/2000/svg">
<path d="M21.7983 21.304L15.7319 15.2376C16.8313 13.9375 17.5365 12.3505 17.7647 10.6633C17.9929 8.97603 17.7345 7.25871 17.0199 5.71331C16.3054 4.1679 15.1644 2.85868 13.7311 1.93964C12.2979 1.02059 10.632 0.529945 8.92937 0.525399C7.49109 0.523444 6.07369 0.869418 4.79806 1.53381C3.52243 2.1982 2.42644 3.16129 1.60358 4.34092C0.780713 5.52055 0.255398 6.88172 0.0724417 8.30832C-0.110514 9.73491 0.0543183 11.1846 0.552879 12.5337C1.05144 13.8828 1.86893 15.0913 2.93562 16.0561C4.00231 17.0209 5.28655 17.7133 6.67877 18.0744C8.07099 18.4354 9.52989 18.4543 10.931 18.1295C12.3321 17.8047 13.6339 17.1458 14.7253 16.209L20.7916 22.2754C20.939 22.3978 21.1229 22.4678 21.3144 22.4744C21.45 22.4744 21.5825 22.4342 21.6953 22.3588C21.808 22.2835 21.8959 22.1764 21.9478 22.0511C21.9997 21.9259 22.0133 21.788 21.9868 21.655C21.9604 21.522 21.8942 21.3998 21.7983 21.304ZM8.96736 16.9869C7.47503 16.9869 6.01621 16.5444 4.7754 15.7152C3.53459 14.8861 2.56751 13.7077 1.99646 12.3289C1.42541 10.9502 1.27604 9.43306 1.56725 7.96942C1.85845 6.50578 2.57715 5.16136 3.63245 4.10619C4.68775 3.05102 6.03225 2.33248 7.49592 2.04145C8.9596 1.75043 10.4767 1.89997 11.8554 2.47119C13.2341 3.0424 14.4124 4.00962 15.2414 5.25054C16.0703 6.49145 16.5127 7.95032 16.5125 9.44265C16.5142 10.4339 16.3201 11.4158 15.9415 12.3319C15.5629 13.248 15.0072 14.0804 14.3063 14.7813C13.6053 15.4822 12.7728 16.0378 11.8567 16.4163C10.9405 16.7948 9.95863 16.9887 8.96736 16.9869Z" fill="#283754"/>
</svg>
