<svg width="16" height="16" viewBox="0 0 16 16" fill="none" xmlns="http://www.w3.org/2000/svg">
<path d="M15.3625 14.6828L11.2263 10.5467C11.9759 9.66027 12.4567 8.57822 12.6123 7.42782C12.7679 6.27742 12.5917 5.10652 12.1045 4.05284C11.6173 2.99916 10.8393 2.10651 9.86213 1.47989C8.88491 0.853264 7.74907 0.51873 6.58821 0.515631C5.60756 0.514298 4.64115 0.750189 3.7714 1.20318C2.90166 1.65618 2.15439 2.31283 1.59335 3.11712C1.0323 3.92142 0.674135 4.84949 0.549392 5.82217C0.424649 6.79484 0.537035 7.78326 0.876963 8.7031C1.21689 9.62294 1.77427 10.4469 2.50156 11.1047C3.22885 11.7625 4.10446 12.2347 5.05371 12.4808C6.00295 12.727 6.99765 12.7399 7.95296 12.5184C8.90827 12.297 9.79584 11.8477 10.54 11.209L14.6761 15.3452C14.7766 15.4286 14.902 15.4763 15.0325 15.4808C15.125 15.4808 15.2154 15.4534 15.2922 15.4021C15.3691 15.3507 15.429 15.2777 15.4644 15.1923C15.4998 15.1069 15.5091 15.0129 15.491 14.9222C15.473 14.8315 15.4278 14.7482 15.3625 14.6828ZM6.61411 11.7394C5.59661 11.7394 4.60196 11.4376 3.75595 10.8723C2.90995 10.307 2.25057 9.50355 1.86122 8.5635C1.47187 7.62344 1.37003 6.58904 1.56858 5.5911C1.76713 4.59316 2.25715 3.67652 2.97667 2.95708C3.69619 2.23764 4.6129 1.74773 5.61086 1.54931C6.60882 1.35088 7.64321 1.45284 8.58322 1.8423C9.52323 2.23177 10.3266 2.89124 10.8918 3.73731C11.457 4.58339 11.7587 5.57807 11.7585 6.59557C11.7597 7.27144 11.6274 7.94088 11.3692 8.56551C11.1111 9.19014 10.7322 9.75766 10.2543 10.2355C9.77632 10.7134 9.20875 11.0923 8.58409 11.3503C7.95943 11.6084 7.28997 11.7406 6.61411 11.7394Z" fill="#283754"/>
</svg>
