<svg width="17" height="17" viewBox="0 0 17 17" fill="none" xmlns="http://www.w3.org/2000/svg">
<path fill-rule="evenodd" clip-rule="evenodd" d="M1.88434 4.7324C1.3418 5.50723 1.3418 6.60031 1.3418 8.78646C1.3418 10.9726 1.3418 12.0657 1.88434 12.8405C2.08507 13.1272 2.3344 13.3765 2.62107 13.5772C3.3959 14.1198 4.48898 14.1198 6.67513 14.1198H9.3418C11.528 14.1198 12.621 14.1198 13.3959 13.5772C13.6825 13.3765 13.9319 13.1272 14.1326 12.8405C14.6751 12.0657 14.6751 10.9726 14.6751 8.78646C14.6751 6.60031 14.6751 5.50723 14.1326 4.7324C13.9319 4.44573 13.6825 4.19639 13.3959 3.99567C12.621 3.45312 11.528 3.45312 9.3418 3.45312H6.67513C4.48898 3.45312 3.3959 3.45312 2.62107 3.99567C2.3344 4.19639 2.08507 4.44573 1.88434 4.7324ZM3.57399 5.67597C3.11851 5.36364 2.49607 5.47969 2.18373 5.93517C1.8714 6.39066 1.98745 7.0131 2.44294 7.32543L6.87741 10.3662C7.55902 10.8336 8.45791 10.8336 9.13952 10.3662L13.574 7.32543C14.0295 7.0131 14.1455 6.39066 13.8332 5.93517C13.5209 5.47969 12.8984 5.36364 12.4429 5.67597L8.00846 8.71675L3.57399 5.67597Z" fill="white"/>
</svg>
