<svg width="24" height="25" viewBox="0 0 24 25" fill="none" xmlns="http://www.w3.org/2000/svg">
<path d="M20 4.5C21.11 4.5 22 5.39 22 6.5V18.5C22 19.61 21.11 20.5 20 20.5H4C2.89 20.5 2 19.61 2 18.5V6.5C2 5.39 2.89 4.5 4 4.5H20ZM8.5 15.5V9.5H7.25V13L4.75 9.5H3.5V15.5H4.75V12L7.3 15.5H8.5ZM13.5 10.76V9.5H9.5V15.5H13.5V14.25H11V13.14H13.5V11.88H11V10.76H13.5ZM20.5 14.5V9.5H19.25V14H18.13V10.5H16.88V14H15.75V9.5H14.5V14.5C14.5 14.7652 14.6054 15.0196 14.7929 15.2071C14.9804 15.3946 15.2348 15.5 15.5 15.5H19.5C19.7652 15.5 20.0196 15.3946 20.2071 15.2071C20.3946 15.0196 20.5 14.7652 20.5 14.5Z" fill="#E30425"/>
</svg>
