<svg width="25" height="24" viewBox="0 0 25 24" fill="none" xmlns="http://www.w3.org/2000/svg">
<path d="M20.5 4C21.61 4 22.5 4.89 22.5 6V18C22.5 19.11 21.61 20 20.5 20H4.5C3.39 20 2.5 19.11 2.5 18V6C2.5 4.89 3.39 4 4.5 4H20.5ZM9 15V9H7.75V12.5L5.25 9H4V15H5.25V11.5L7.8 15H9ZM14 10.26V9H10V15H14V13.75H11.5V12.64H14V11.38H11.5V10.26H14ZM21 14V9H19.75V13.5H18.63V10H17.38V13.5H16.25V9H15V14C15 14.2652 15.1054 14.5196 15.2929 14.7071C15.4804 14.8946 15.7348 15 16 15H20C20.2652 15 20.5196 14.8946 20.7071 14.7071C20.8946 14.5196 21 14.2652 21 14Z" fill="#E30425"/>
</svg>
