<svg width="24" height="25" viewBox="0 0 24 25" fill="none" xmlns="http://www.w3.org/2000/svg">
<path d="M17 14.8203H19V17.8203H22V19.8203H19V22.8203H17V19.8203H14V17.8203H17V14.8203ZM20 11.8203V8.82031H4V11.8203H20ZM13 13.8203V15.5003C12.37 16.4503 12 17.5903 12 18.8203C12 19.9103 12.29 20.9403 12.8 21.8203H4C3.46957 21.8203 2.96086 21.6096 2.58579 21.2345C2.21071 20.8595 2 20.3507 2 19.8203V3.82031L3.67 5.49031L5.33 3.82031L7 5.49031L8.67 3.82031L10.33 5.49031L12 3.82031L13.67 5.49031L15.33 3.82031L17 5.49031L18.67 3.82031L20.33 5.49031L22 3.82031V14.3203C20.93 13.4003 19.53 12.8203 18 12.8203C16.77 12.8203 15.63 13.1903 14.68 13.8203H13ZM11 19.8203V13.8203H4V19.8203H11Z" fill="#475A88"/>
</svg>
