<svg width="24" height="25" viewBox="0 0 24 25" fill="none" xmlns="http://www.w3.org/2000/svg">
<path d="M12 2.82031C11.8 2.82031 11.6 2.92031 11.4 3.02031L3.5 7.42031C3.2 7.62031 3 7.92031 3 8.32031V17.3203C3 17.7203 3.2 18.0203 3.5 18.2203L11.4 22.6203C11.6 22.7203 11.8 22.8203 12 22.8203C12.2 22.8203 12.4 22.7203 12.6 22.6203L13.5 22.1203C13.2 21.5203 13.1 20.8203 13 20.1203V13.4203L19 10.0203V13.8203C19.7 13.8203 20.4 13.9203 21 14.1203V8.32031C21 7.92031 20.8 7.62031 20.5 7.42031L12.6 3.02031C12.4 2.92031 12.2 2.82031 12 2.82031ZM12 5.02031L18 8.32031L16 9.42031L10.1 6.02031L12 5.02031ZM8.1 7.12031L14 10.6203L12 11.7203L6 8.32031L8.1 7.12031ZM5 10.0203L11 13.4203V20.1203L5 16.7203V10.0203ZM21.3 16.6203L17.7 20.2203L16.1 18.6203L15 19.8203L17.8 22.8203L22.6 18.0203L21.3 16.6203Z" fill="#475A88"/>
</svg>
