<svg width="24" height="25" viewBox="0 0 24 25" fill="none" xmlns="http://www.w3.org/2000/svg">
<path d="M12 2.81934C11.8 2.81934 11.6 2.91934 11.4 3.01934L3.5 7.41934C3.2 7.61934 3 7.91934 3 8.31934V17.3193C3 17.7193 3.2 18.0193 3.5 18.2193L11.4 22.6193C11.6 22.7193 11.8 22.8193 12 22.8193C12.2 22.8193 12.4 22.7193 12.6 22.6193L13.5 22.1193C13.2 21.5193 13.1 20.8193 13 20.1193V13.4193L19 10.0193V13.8193C19.7 13.8193 20.4 13.9193 21 14.1193V8.31934C21 7.91934 20.8 7.61934 20.5 7.41934L12.6 3.01934C12.4 2.91934 12.2 2.81934 12 2.81934ZM12 5.01934L18 8.31934L16 9.41934L10.1 6.01934L12 5.01934ZM8.1 7.11934L14 10.6193L12 11.7193L6 8.31934L8.1 7.11934ZM5 10.0193L11 13.4193V20.1193L5 16.7193V10.0193ZM21.3 16.6193L17.7 20.2193L16.1 18.6193L15 19.8193L17.8 22.8193L22.6 18.0193L21.3 16.6193Z" fill="#7778E5"/>
</svg>
