<svg width="384" height="169" viewBox="0 0 384 169" fill="none" xmlns="http://www.w3.org/2000/svg">
<g opacity="0.4" clip-path="url(#clip0_1278_58460)">
<path d="M5.70312 52.7939C205.453 176.322 252.32 31.4858 370.766 51.9152V150.328C208.378 84.4997 205.453 227.359 5.70312 103.831V52.7939Z" fill="url(#paint0_linear_1278_58460)"/>
<path opacity="0.18" d="M5.70312 74.5412V103.831C205.453 227.359 208.378 84.4996 370.766 150.328V73.7358C252.32 53.2332 205.453 198.069 5.70312 74.5412Z" fill="url(#paint1_linear_1278_58460)"/>
<path d="M383.926 65.6078C184.103 189.136 157.416 29.8747 18.8633 64.8023V163.215C181.252 97.3136 184.103 240.173 383.926 116.718V65.6078Z" fill="url(#paint2_linear_1278_58460)"/>
<path opacity="0.28" d="M18.8633 90.6507V163.215C181.252 97.314 184.103 240.173 383.926 116.718V82.1567C176.938 195.653 157.416 55.6498 18.8633 90.6507Z" fill="url(#paint3_linear_1278_58460)"/>
<path opacity="0.14" d="M18.8633 64.8023V75.0536C157.416 40.0528 184.103 199.387 383.926 75.8591V65.6078C184.103 189.136 157.416 29.8747 18.8633 64.8023Z" fill="url(#paint4_linear_1278_58460)"/>
<path d="M207.866 122.063C193.828 122.063 180.302 121.185 167.068 119.281C140.893 115.473 115.887 107.931 88.4692 95.4099C63.3907 83.987 35.2414 67.8778 0 44.7392L0.219345 44.4463C35.4608 67.5849 63.5369 83.6209 88.6885 95.117C116.034 107.565 140.966 115.18 167.141 118.915C222.708 126.896 283.613 117.011 363.966 98.4121L364.04 98.7782C302.769 112.91 252.832 122.063 207.866 122.063Z" fill="#B0F9FF"/>
<path d="M199.97 118.842C189.953 118.842 180.302 118.329 170.797 117.377C144.768 114.668 119.689 108.297 91.9056 97.1673C66.2422 86.916 36.9962 72.1981 0 50.8168L0.219345 50.5239C37.2155 71.9052 66.3884 86.6231 92.0518 96.8744C119.835 107.931 144.914 114.302 170.87 117.011C224.097 122.503 282.005 111.885 364.04 91.6756L364.113 92.0417C316.296 103.831 283.759 110.567 255.318 114.595C235.138 117.377 217.005 118.842 199.97 118.842Z" fill="url(#paint5_linear_1278_58460)"/>
<path d="M192.146 115.986C186.224 115.986 180.375 115.839 174.526 115.473C148.643 113.862 123.491 108.59 95.2689 98.998C68.9475 89.9183 38.6778 76.5184 0 56.8212L0.14623 56.5283C38.8241 76.2255 69.0937 89.5522 95.4151 98.5587C123.637 108.224 148.789 113.423 174.599 115.034C225.487 118.183 278.349 107.345 364.186 84.8658L364.259 85.1587C288.219 105.149 238.062 115.986 192.146 115.986Z" fill="url(#paint6_linear_1278_58460)"/>
<path d="M183.957 113.496C182.056 113.496 180.228 113.496 178.401 113.423C152.664 112.911 127.366 108.81 98.7784 100.609C71.6527 92.7741 40.2864 80.8386 0 62.8989L0.14623 62.606C40.3595 80.5457 71.7258 92.5544 98.7784 100.316C127.293 108.517 152.591 112.618 178.327 113.13C202.602 113.643 228.484 110.934 259.778 104.563C288.512 98.7784 321.048 90.138 364.259 78.1294L364.332 78.4222C321.121 90.4309 288.585 99.0713 259.851 104.856C230.897 110.787 206.623 113.496 183.957 113.496Z" fill="url(#paint7_linear_1278_58460)"/>
<path d="M175.694 111.593C152.151 111.593 128.608 108.59 102.141 102.366C74.2109 95.7763 41.8209 85.1589 0.0722656 68.9032L0.145381 68.6104C41.894 84.7928 74.284 95.4102 102.214 102C131.094 108.81 156.465 111.739 182.055 111.153C233.309 109.982 285.44 94.6047 364.331 71.3196L364.404 71.6125C285.44 94.8976 233.309 110.275 181.982 111.446C179.935 111.593 177.815 111.593 175.694 111.593Z" fill="url(#paint8_linear_1278_58460)"/>
<path d="M166.994 110.201C122.832 110.201 74.4302 99.8768 0.0722656 74.9075L0.145381 74.6146C81.5224 101.854 131.752 111.666 179.35 109.615C227.679 107.492 274.254 92.8473 344.809 70.7338C351.17 68.7568 357.678 66.7065 364.477 64.583L364.551 64.8759C357.824 66.9994 351.244 69.0496 344.883 71.0267C274.327 93.1402 227.679 107.785 179.35 109.908C175.256 110.128 171.161 110.201 166.994 110.201Z" fill="url(#paint9_linear_1278_58460)"/>
<path d="M157.635 109.396C116.325 109.396 69.1659 100.755 0.0722656 80.9849L0.145381 80.7652C160.121 126.603 202.162 112.471 327.116 70.4407C338.96 66.4866 351.244 62.3128 364.551 57.9194L364.624 58.1391C351.317 62.5325 339.033 66.633 327.189 70.6603C256.194 94.5312 211.96 109.396 157.635 109.396Z" fill="url(#paint10_linear_1278_58460)"/>
<path d="M147.18 109.249C108.429 109.249 63.3899 102.293 0.0722656 86.9894L0.145381 86.7698C78.9633 105.808 129.486 111.885 174.744 107.785C219.125 103.758 258.461 89.479 312.931 69.7087C328.285 64.1437 345.76 57.7732 364.697 51.1831L364.77 51.4028C345.76 57.9929 328.359 64.3633 313.004 69.9283C258.534 89.6987 219.198 103.977 174.744 108.005C165.824 108.883 156.685 109.249 147.18 109.249Z" fill="url(#paint11_linear_1278_58460)"/>
<path d="M135.774 109.762C99.5087 109.762 56.5902 104.416 0.0722656 93.0667L0.145381 92.8471C77.3548 108.297 129.193 112.691 173.428 107.345C216.493 102.22 252.246 88.0875 301.745 68.61C320.17 61.3609 341.081 53.1599 364.843 44.373L364.916 44.5927C341.081 53.3795 320.243 61.5806 301.818 68.8297C252.319 88.3072 216.566 102.439 173.428 107.565C161.51 109.029 149.081 109.762 135.774 109.762Z" fill="url(#paint12_linear_1278_58460)"/>
<path d="M121.882 111.007C88.6145 111.007 49.5711 107.126 0.0722656 99.0713V98.8516C76.9892 111.3 128.608 113.789 172.697 107.199C214.811 100.902 247.64 86.7697 293.19 67.2923C313.809 58.4322 337.206 48.4006 364.916 37.6367L364.989 37.8564C337.279 48.6203 313.882 58.6519 293.263 67.5119C247.713 87.0626 214.884 101.195 172.697 107.492C157.05 109.835 140.307 111.007 121.882 111.007Z" fill="url(#paint13_linear_1278_58460)"/>
<path d="M106.162 112.984C104.407 112.984 102.653 112.984 100.825 112.984C72.4561 112.691 39.4813 110.128 0.0722656 105.149V104.929C39.4813 109.908 72.4561 112.471 100.825 112.764C127.658 113.057 151.128 111.299 172.624 107.345C214.007 99.8033 246.177 84.7924 286.829 65.6811C308.983 55.2833 334.135 43.4944 364.989 30.8999L365.062 31.1196C334.281 43.714 309.129 55.503 286.976 65.9008C246.25 85.0121 214.153 100.096 172.697 107.565C152.59 111.226 130.802 112.984 106.162 112.984Z" fill="url(#paint14_linear_1278_58460)"/>
<path d="M87.2985 115.766C61.7813 115.766 33.0471 114.229 0.0722656 111.153V111.007C76.1119 118.036 129.486 117.011 173.135 107.712C214.08 98.9248 244.203 83.4747 282.442 63.8507C305.62 51.9153 331.868 38.4422 365.135 24.1636L365.209 24.31C331.941 38.6618 305.693 52.0618 282.516 63.9972C244.349 83.6211 214.153 99.0713 173.209 107.858C148.496 113.13 120.639 115.766 87.2985 115.766Z" fill="url(#paint15_linear_1278_58460)"/>
<path d="M181.033 133.559C138.992 133.559 86.6418 128.507 19.9609 115.986L20.0341 115.62C247.129 158.309 308.838 114.228 358.41 78.7881C367.038 72.6374 375.154 66.8527 383.781 61.7271L384.001 62.0199C375.373 67.1456 367.257 72.9303 358.63 79.081C323.608 104.123 282.371 133.559 181.033 133.559Z" fill="#0072BE"/>
<path d="M185.859 132.168C139.942 132.168 85.033 125.651 19.8145 112.544L19.8876 112.178C114.864 131.29 187.906 136.415 243.181 127.775C291.51 120.233 319.147 103.831 345.834 87.9412C358.41 80.4723 370.328 73.3697 383.781 67.7314L383.927 68.0243C370.474 73.7358 358.629 80.7652 346.054 88.234C319.293 104.124 291.656 120.526 243.254 128.141C225.926 130.85 206.843 132.168 185.859 132.168Z" fill="#087DC4"/>
<path d="M190.465 130.923C144.11 130.923 87.8114 123.674 19.8145 109.103L19.8876 108.81C109.892 128.141 179.424 134.511 232.36 128.361C279.007 122.942 306.864 108.81 333.843 95.1903C350.002 87.0625 365.283 79.3008 383.854 73.7358L383.927 74.0287C365.356 79.5937 350.148 87.2822 333.99 95.41C306.937 109.03 279.007 123.162 232.36 128.654C219.418 130.191 205.453 130.923 190.465 130.923Z" fill="#1088CA"/>
<path d="M194.559 129.825C148.058 129.825 90.4433 121.844 19.668 105.661L19.7411 105.368C105.651 124.992 172.04 132.534 222.781 128.434C267.747 124.773 295.531 112.691 322.437 100.975C341.74 92.5544 359.945 84.6462 383.854 79.7402L383.927 80.0331C360.018 84.9391 341.813 92.8473 322.51 101.268C295.604 112.984 267.747 125.066 222.781 128.727C213.861 129.459 204.503 129.825 194.559 129.825Z" fill="#1893D0"/>
<path d="M197.704 128.873C178.767 128.873 158.149 127.408 135.117 124.479C101.485 120.232 63.684 112.91 19.5957 102.219L19.6688 101.927C63.7572 112.617 101.558 119.866 135.191 124.187C165.095 127.994 190.977 129.312 214.301 128.141C257.585 126.09 285.076 115.766 311.617 105.734C332.674 97.826 354.462 89.625 383.928 85.7441L384.001 86.037C354.609 89.9179 332.82 98.1189 311.763 106.027C285.149 115.985 257.658 126.31 214.301 128.433C208.89 128.726 203.407 128.873 197.704 128.873Z" fill="#209ED6"/>
<path d="M201.067 127.994C180.083 127.994 156.979 126.09 130.511 122.136C98.2672 117.377 61.929 109.688 19.4492 98.778L19.5223 98.4851C62.0021 109.395 98.3403 117.011 130.511 121.77C159.318 126.017 184.177 127.921 206.624 127.555C248.299 126.896 274.109 118.548 301.381 109.688C324.704 102.146 348.832 94.3114 383.854 91.7485V92.0414C348.832 94.6043 324.777 102.366 301.454 109.981C274.109 118.841 248.372 127.189 206.55 127.848C204.796 127.994 202.895 127.994 201.067 127.994Z" fill="#28A9DC"/>
<path d="M204.064 127.262C202.601 127.262 201.139 127.262 199.677 127.262C154.418 126.677 97.0963 116.498 19.375 95.4101L19.4481 95.1172C97.1694 116.206 154.418 126.31 199.75 126.969C239.963 127.482 265.115 120.526 291.802 113.13C317.099 106.101 343.274 98.9248 383.926 97.8997V98.1926C343.274 99.2177 317.099 106.394 291.875 113.423C266.138 120.526 241.791 127.262 204.064 127.262Z" fill="#31B5E1"/>
<path d="M206.77 126.676C202.53 126.676 198.07 126.603 193.39 126.383C150.033 124.479 94.6851 113.569 19.2305 91.9682L19.3036 91.7485C94.6851 113.349 150.033 124.26 193.39 126.164C232.141 127.848 256.708 122.136 282.737 116.059C309.716 109.762 337.573 103.245 383.928 104.05V104.27C337.573 103.538 309.716 109.981 282.81 116.278C259.852 121.624 238.064 126.676 206.77 126.676Z" fill="#39C0E7"/>
<path d="M209.328 126.237C170.285 126.237 115.887 117.743 19.1562 88.6L19.2294 88.3804C179.497 136.708 223.366 128.214 274.181 118.475C302.55 113.057 331.869 107.419 383.927 110.055V110.274C331.942 107.638 302.623 113.276 274.254 118.695C254.075 122.576 234.992 126.237 209.328 126.237Z" fill="#41CBED"/>
<path d="M211.522 125.944C202.675 125.944 193.097 125.505 182.349 124.406C142.647 120.306 90.7356 107.858 19.0098 85.1586L19.0829 84.939C90.7356 107.638 142.647 120.086 182.349 124.187C218.321 127.848 241.572 124.333 266.138 120.599C294.361 116.279 326.312 111.446 383.927 116.059V116.279C326.312 111.666 294.434 116.498 266.212 120.819C248.883 123.455 232.286 125.944 211.522 125.944Z" fill="#49D6F3"/>
<path d="M214.153 125.871C203.332 125.871 191.488 125.139 177.523 123.308C139.576 118.256 89.1999 105.076 18.8633 81.7172L18.9364 81.4976C89.1999 104.856 139.576 118.109 177.523 123.089C212.179 127.702 233.675 125.212 258.607 122.43C287.78 119.134 320.828 115.4 383.853 122.063V122.283C320.828 115.547 287.78 119.281 258.68 122.649C243.838 124.333 230.166 125.871 214.153 125.871Z" fill="#51E1F9"/>
<path d="M383.927 128.36C315.711 119.573 281.786 122.063 251.809 124.333C227.607 126.164 206.697 127.701 173.21 122.283C137.091 116.425 88.0309 102.439 18.791 78.3486L18.8641 78.2021C88.0309 102.293 137.091 116.278 173.21 122.136C206.623 127.555 227.534 126.017 251.735 124.187C281.713 121.99 315.711 119.427 383.927 128.214V128.36Z" fill="#59ECFF"/>
</g>
<defs>
<linearGradient id="paint0_linear_1278_58460" x1="370.749" y1="103.044" x2="5.68147" y2="103.044" gradientUnits="userSpaceOnUse">
<stop stop-color="#00BFA7"/>
<stop offset="0.9887" stop-color="white"/>
</linearGradient>
<linearGradient id="paint1_linear_1278_58460" x1="370.749" y1="113.921" x2="5.68147" y2="113.921" gradientUnits="userSpaceOnUse">
<stop stop-color="#00BFA7"/>
<stop offset="0.9887" stop-color="white"/>
</linearGradient>
<linearGradient id="paint2_linear_1278_58460" x1="18.841" y1="114.34" x2="383.908" y2="114.34" gradientUnits="userSpaceOnUse">
<stop stop-color="#00BFA7"/>
<stop offset="1" stop-color="#3364EB"/>
</linearGradient>
<linearGradient id="paint3_linear_1278_58460" x1="18.841" y1="125.581" x2="383.908" y2="125.581" gradientUnits="userSpaceOnUse">
<stop stop-color="#00BFA7"/>
<stop offset="1" stop-color="#3364EB"/>
</linearGradient>
<linearGradient id="paint4_linear_1278_58460" x1="18.841" y1="91.6432" x2="383.908" y2="91.6432" gradientUnits="userSpaceOnUse">
<stop stop-color="#00BFA7"/>
<stop offset="1" stop-color="#3364EB"/>
</linearGradient>
<linearGradient id="paint5_linear_1278_58460" x1="0.0128682" y1="84.6578" x2="364.144" y2="84.6578" gradientUnits="userSpaceOnUse">
<stop stop-color="#A0F4F7"/>
<stop offset="1" stop-color="#A5EBFD"/>
</linearGradient>
<linearGradient id="paint6_linear_1278_58460" x1="0.0246398" y1="86.2476" x2="364.251" y2="86.2476" gradientUnits="userSpaceOnUse">
<stop stop-color="#90EEEF"/>
<stop offset="1" stop-color="#99DEFB"/>
</linearGradient>
<linearGradient id="paint7_linear_1278_58460" x1="0.0356801" y1="88.0597" x2="364.357" y2="88.0597" gradientUnits="userSpaceOnUse">
<stop stop-color="#80E9E7"/>
<stop offset="1" stop-color="#8ED0FA"/>
</linearGradient>
<linearGradient id="paint8_linear_1278_58460" x1="0.0452131" y1="90.1233" x2="364.463" y2="90.1233" gradientUnits="userSpaceOnUse">
<stop stop-color="#70E4DF"/>
<stop offset="1" stop-color="#83C3F8"/>
</linearGradient>
<linearGradient id="paint9_linear_1278_58460" x1="0.0541331" y1="87.4441" x2="364.57" y2="87.4441" gradientUnits="userSpaceOnUse">
<stop stop-color="#60DFD7"/>
<stop offset="1" stop-color="#77B5F6"/>
</linearGradient>
<linearGradient id="paint10_linear_1278_58460" x1="0.0626876" y1="83.6643" x2="364.676" y2="83.6643" gradientUnits="userSpaceOnUse">
<stop stop-color="#50D9CF"/>
<stop offset="1" stop-color="#6CA8F4"/>
</linearGradient>
<linearGradient id="paint11_linear_1278_58460" x1="0.0698528" y1="80.2193" x2="364.781" y2="80.2193" gradientUnits="userSpaceOnUse">
<stop stop-color="#40D4C7"/>
<stop offset="1" stop-color="#609AF2"/>
</linearGradient>
<linearGradient id="paint12_linear_1278_58460" x1="0.076287" y1="77.0877" x2="364.887" y2="77.0877" gradientUnits="userSpaceOnUse">
<stop stop-color="#30CFBF"/>
<stop offset="1" stop-color="#558DF0"/>
</linearGradient>
<linearGradient id="paint13_linear_1278_58460" x1="0.0819899" y1="74.3466" x2="364.993" y2="74.3466" gradientUnits="userSpaceOnUse">
<stop stop-color="#20CAB7"/>
<stop offset="1" stop-color="#4A7FEF"/>
</linearGradient>
<linearGradient id="paint14_linear_1278_58460" x1="0.0865962" y1="71.9594" x2="365.097" y2="71.9594" gradientUnits="userSpaceOnUse">
<stop stop-color="#10C4AF"/>
<stop offset="1" stop-color="#3E72ED"/>
</linearGradient>
<linearGradient id="paint15_linear_1278_58460" x1="0.0905444" y1="69.9848" x2="365.203" y2="69.9848" gradientUnits="userSpaceOnUse">
<stop stop-color="#00BFA7"/>
<stop offset="1" stop-color="#3364EB"/>
</linearGradient>
<clipPath id="clip0_1278_58460">
<rect width="384" height="169" fill="white"/>
</clipPath>
</defs>
</svg>
