<svg width="24" height="25" viewBox="0 0 24 25" fill="none" xmlns="http://www.w3.org/2000/svg">
<g clip-path="url(#clip0_3132_8326)">
<path fill-rule="evenodd" clip-rule="evenodd" d="M11.5 21.0826H2.95C2.897 21.0826 2.846 21.0606 2.809 21.0236C2.771 20.9856 2.75 20.9356 2.75 20.8826C2.75 20.8816 2.75 19.4326 2.75 19.4326C2.75 18.6016 3.343 17.8696 4.257 17.2476C5.889 16.1336 8.53 15.4316 11.5 15.4316C11.914 15.4316 12.25 15.0956 12.25 14.6816C12.25 14.2686 11.914 13.9316 11.5 13.9316C8.178 13.9316 5.237 14.7626 3.411 16.0076C2.018 16.9576 1.25 18.1646 1.25 19.4316V20.8826C1.25 21.3326 1.429 21.7656 1.748 22.0846C2.067 22.4026 2.499 22.5826 2.95 22.5816C4.966 22.5826 11.5 22.5826 11.5 22.5826C11.914 22.5826 12.25 22.2456 12.25 21.8326C12.25 21.4186 11.914 21.0826 11.5 21.0826Z" fill="#595ADF"/>
<path fill-rule="evenodd" clip-rule="evenodd" d="M11.5 2.06982C8.464 2.06982 6 4.53382 6 7.56982C6 10.6058 8.464 13.0698 11.5 13.0698C14.536 13.0698 17 10.6058 17 7.56982C17 4.53382 14.536 2.06982 11.5 2.06982ZM11.5 3.56982C13.708 3.56982 15.5 5.36182 15.5 7.56982C15.5 9.77782 13.708 11.5698 11.5 11.5698C9.292 11.5698 7.5 9.77782 7.5 7.56982C7.5 5.36182 9.292 3.56982 11.5 3.56982Z" fill="#595ADF"/>
<g clip-path="url(#clip1_3132_8326)">
<path d="M14.8812 19.0753H14.3064V19.0707C14.3064 17.4695 15.5841 16.1222 17.2136 16.1297C18.008 16.1333 18.7377 16.4542 19.2578 16.9789L20.2064 16.0638C19.4405 15.2914 18.3823 14.814 17.2136 14.814C14.878 14.814 12.9847 16.7211 12.9814 19.0747H12.3999C12.0436 19.0747 11.8979 19.3129 12.0761 19.6046L13.3167 20.8344C13.5628 21.0805 13.7108 21.0881 13.9644 20.8344L15.2051 19.6046C15.3833 19.3132 15.2372 19.0753 14.8812 19.0753ZM22.4239 18.5634L21.1832 17.3362C20.9302 17.0832 20.7737 17.0983 20.5358 17.3362L19.2952 18.5634C19.117 18.8545 19.2624 19.0927 19.6187 19.0927H20.1926C20.1835 20.6835 18.91 22.019 17.2861 22.0114C16.492 22.0081 15.7626 21.6879 15.2419 21.1635L14.2933 22.0774C15.0594 22.8485 16.1176 23.3252 17.2861 23.3252C19.6145 23.3252 21.5025 21.4319 21.5176 19.093H22.1001C22.4567 19.0927 22.6021 18.8542 22.4239 18.5634Z" fill="#595ADF"/>
</g>
</g>
<defs>
<clipPath id="clip0_3132_8326">
<rect width="24" height="24" fill="white" transform="translate(0 0.819824)"/>
</clipPath>
<clipPath id="clip1_3132_8326">
<rect width="10.5" height="10.5" fill="white" transform="translate(12 13.8198)"/>
</clipPath>
</defs>
</svg>
