<svg width="104" height="104" viewBox="0 0 104 104" fill="none" xmlns="http://www.w3.org/2000/svg">
<g filter="url(#filter0_d_1277_54338)">
<path d="M14 39C14 21.3269 28.3269 7 46 7V7C63.6731 7 78 21.3269 78 39V62.1724C78 67.0478 74.0478 71 69.1724 71H46C28.3269 71 14 56.6731 14 39V39Z" fill="url(#paint0_linear_1277_54338)"/>
<path fill-rule="evenodd" clip-rule="evenodd" d="M41.085 19.0859C40.2025 19.1743 38.9605 19.423 37.9824 19.7071C32.6831 21.2462 28.2365 25.6929 26.7006 30.9891C25.5442 34.977 25.8213 38.9808 27.5171 42.7849L27.9236 43.6968L27.2293 47.8594C26.8473 50.1488 26.5486 52.0357 26.5654 52.0525C26.5821 52.0693 28.3942 51.7829 30.5922 51.416C32.7901 51.0492 34.6184 50.749 34.6549 50.749C34.6913 50.749 34.9345 51.0746 35.1952 51.4724C37.7976 55.4439 41.8863 58.0555 46.7547 58.8556C47.8177 59.0303 50.3878 59.0509 51.4469 58.8933C53.1035 58.6467 54.6709 58.1908 56.1908 57.5132L57.1026 57.1067L61.2653 57.8011C63.5547 58.183 65.4416 58.4817 65.4583 58.4651C65.475 58.4484 65.1762 56.5615 64.7943 54.2721L64.0999 50.1094L64.5064 49.1976C65.1841 47.6773 65.6403 46.109 65.8863 44.4537C66.0415 43.41 66.0216 40.9091 65.8495 39.8006C65.0897 34.9096 62.4822 30.8553 58.3288 28.107C57.4902 27.5521 57.4545 27.5164 56.9109 26.6895C56.1795 25.5769 55.7065 24.9896 54.7862 24.0516C51.1779 20.3739 46.2083 18.5728 41.085 19.0859ZM45.0342 21.5331C48.06 22.0013 50.8125 23.4065 53.0119 25.6058C54.915 27.509 56.1894 29.7581 56.8343 32.3521C57.1283 33.5343 57.228 34.4109 57.228 35.8122C57.228 37.2136 57.1283 38.0902 56.8343 39.2723C56.1894 41.8663 54.915 44.1154 53.0119 46.0187C48.5746 50.4558 41.9248 51.5256 36.2755 48.711L35.3371 48.2434L32.3852 48.7405C30.7616 49.014 29.4213 49.2257 29.4067 49.211C29.392 49.1964 29.6037 47.8561 29.8772 46.2325L30.3743 43.2806L29.9067 42.3422C28.1025 38.7208 27.8618 34.6407 29.2295 30.8624C29.9424 28.8928 31.068 27.1369 32.599 25.6058C34.5018 23.7031 36.7463 22.4311 39.3454 21.7827C40.0053 21.6181 40.5304 21.5335 41.7888 21.3896C42.2872 21.3326 44.3188 21.4225 45.0342 21.5331ZM37.6283 29.7852C36.3682 30.188 35.2896 31.2708 34.9017 32.5221C34.7917 32.8767 34.7418 33.2568 34.7404 33.7481C34.7381 34.5583 34.8207 34.9292 35.1647 35.6538C35.3834 36.1143 35.768 36.5267 39.1062 39.8788L42.8055 43.5934L46.5047 39.8788C49.8429 36.5267 50.2276 36.1143 50.4462 35.6538C50.7902 34.9292 50.8728 34.5583 50.8705 33.7481C50.8664 32.2696 50.2116 31.0766 48.95 30.2489C48.2908 29.8163 47.6403 29.6342 46.7547 29.6342C45.4596 29.6342 44.6329 30.0063 43.4986 31.0998L42.8055 31.768L42.1123 31.0998C40.9658 29.9946 40.149 29.6311 38.8284 29.6384C38.324 29.6412 37.9264 29.6899 37.6283 29.7852Z" fill="white"/>
</g>
<defs>
<filter id="filter0_d_1277_54338" x="0" y="0" width="104" height="104" filterUnits="userSpaceOnUse" color-interpolation-filters="sRGB">
<feFlood flood-opacity="0" result="BackgroundImageFix"/>
<feColorMatrix in="SourceAlpha" type="matrix" values="0 0 0 0 0 0 0 0 0 0 0 0 0 0 0 0 0 0 127 0" result="hardAlpha"/>
<feOffset dx="6" dy="13"/>
<feGaussianBlur stdDeviation="10"/>
<feComposite in2="hardAlpha" operator="out"/>
<feColorMatrix type="matrix" values="0 0 0 0 0.027451 0 0 0 0 0.027451 0 0 0 0 0.027451 0 0 0 0.1 0"/>
<feBlend mode="normal" in2="BackgroundImageFix" result="effect1_dropShadow_1277_54338"/>
<feBlend mode="normal" in="SourceGraphic" in2="effect1_dropShadow_1277_54338" result="shape"/>
</filter>
<linearGradient id="paint0_linear_1277_54338" x1="14" y1="7" x2="14" y2="71" gradientUnits="userSpaceOnUse">
<stop stop-color="#F2994A"/>
<stop offset="1" stop-color="#F2C94C"/>
</linearGradient>
</defs>
</svg>
