<svg width="64" height="64" viewBox="0 0 64 64" fill="none" xmlns="http://www.w3.org/2000/svg">
<path d="M0 32C0 14.3269 14.3269 0 32 0V0C49.6731 0 64 14.3269 64 32V55.1724C64 60.0478 60.0478 64 55.1724 64H32C14.3269 64 0 49.6731 0 32V32Z" fill="url(#paint0_linear_1277_54333)"/>
<path fill-rule="evenodd" clip-rule="evenodd" d="M19.6786 12.0136C19.6598 12.0328 19.4409 12.0801 19.1923 12.1185C18.7529 12.1864 18.3784 12.3281 18.2017 12.4934C18.154 12.538 18.0864 12.5745 18.0515 12.5745C17.9521 12.5745 17.542 13.0444 17.4998 13.2067C17.4789 13.2869 17.4396 13.3526 17.4125 13.3526C17.3288 13.3526 17.1976 14.0131 17.1999 14.4225C17.2026 14.8791 17.3348 15.8206 17.4094 15.9139C17.4378 15.9496 17.4824 16.1101 17.5083 16.2706C17.5341 16.431 17.5786 16.5915 17.6071 16.6272C17.6356 16.6629 17.6921 16.8525 17.7326 17.0487C17.9538 18.1187 17.9996 18.3385 18.0564 18.6049C18.0906 18.7654 18.1199 19.0482 18.1214 19.2333C18.123 19.4184 18.1508 19.5863 18.1833 19.6064C18.2158 19.6265 18.263 19.8981 18.2883 20.2101C18.3135 20.5219 18.3567 20.8064 18.3842 20.842C18.4116 20.8777 18.4548 21.0893 18.4801 21.3123C18.5053 21.5352 18.5504 21.7326 18.58 21.751C18.6097 21.7693 18.6539 21.9443 18.6784 22.1399C18.7028 22.3355 18.746 22.4955 18.7744 22.4955C18.8029 22.4955 18.8469 22.6195 18.8722 22.7711C18.8975 22.9227 18.9366 23.0613 18.9589 23.0791C18.9814 23.0969 19.0716 23.3231 19.1594 23.5817C19.2473 23.8402 19.3421 24.0518 19.3702 24.0518C19.3982 24.0518 19.4221 24.0883 19.4233 24.1328C19.4246 24.1774 19.4819 24.3306 19.5508 24.4732C19.6197 24.6159 19.6771 24.7667 19.6783 24.8083C19.6795 24.8499 19.7024 24.8936 19.7291 24.9056C19.7559 24.9174 19.8507 25.0731 19.9399 25.2514C20.029 25.4297 20.1181 25.5902 20.1378 25.608C20.1576 25.6258 20.2442 25.7571 20.3303 25.8998C20.4913 26.1664 20.5012 26.1804 20.7192 26.4447C20.7898 26.5304 20.8477 26.6197 20.8477 26.6431C20.8477 26.6666 20.9286 26.7715 21.0275 26.8763C21.1264 26.9812 21.2838 27.1703 21.3772 27.2967L21.5471 27.5265L21.4055 27.6534C21.3277 27.7231 21.1082 27.9845 20.918 28.2342C20.7277 28.4838 20.5465 28.6978 20.5153 28.7097C20.4841 28.7216 20.4586 28.7592 20.4586 28.7934C20.4586 28.8661 20.1892 29.2617 20.1182 29.2933C20.0914 29.3052 20.0696 29.3391 20.0696 29.3687C20.0696 29.3982 19.9674 29.5775 19.8426 29.7671C19.7178 29.9566 19.6157 30.1464 19.6157 30.1888C19.6157 30.2312 19.5937 30.2756 19.567 30.2876C19.5043 30.3155 19.0321 31.2699 19.0321 31.3688C19.0321 31.4101 19.0052 31.4439 18.9724 31.4439C18.9395 31.4439 18.8936 31.5311 18.8702 31.6377C18.8467 31.7443 18.8006 31.8482 18.7677 31.8685C18.7348 31.8888 18.7069 31.9548 18.7057 32.0151C18.7044 32.0754 18.6471 32.2415 18.5782 32.3842C18.5092 32.5268 18.4519 32.6929 18.4507 32.7532C18.4495 32.8135 18.4218 32.8793 18.3893 32.8994C18.3567 32.9196 18.3104 33.0524 18.2864 33.1947C18.2623 33.337 18.2187 33.4681 18.1896 33.4862C18.1603 33.5043 18.1164 33.6649 18.0918 33.8431C18.0673 34.0214 18.0242 34.1815 17.996 34.1989C17.9678 34.2163 17.924 34.3695 17.8987 34.5394C17.8734 34.7092 17.83 34.8774 17.8022 34.913C17.7743 34.9487 17.7305 35.1238 17.7047 35.3021C17.6789 35.4804 17.6387 35.6555 17.6154 35.6912C17.5269 35.8269 17.2398 37.5002 17.1036 38.674C16.9654 39.8655 16.9654 41.9172 17.1037 42.9536C17.2312 43.9099 17.335 44.4782 17.4059 44.6096C17.4356 44.6645 17.4806 44.8322 17.5059 44.9821C17.5312 45.1322 17.5761 45.2698 17.6055 45.288C17.635 45.3062 17.6788 45.4377 17.7028 45.5801C17.7269 45.7226 17.7732 45.8392 17.8058 45.8392C17.8383 45.8392 17.8649 45.8858 17.8649 45.9428C17.8649 45.9997 17.9889 46.2925 18.1405 46.5933C18.2921 46.8942 18.4448 47.1977 18.4801 47.2679C18.5153 47.338 18.5664 47.3954 18.5935 47.3954C18.6208 47.3954 18.643 47.4258 18.643 47.4628C18.643 47.5208 18.8703 47.8824 18.9674 47.979C18.9853 47.9968 19.0874 48.1418 19.1944 48.3013C19.3953 48.6008 20.8787 50.1188 20.9706 50.1188C21.0161 50.1188 21.1154 50.1915 21.4123 50.4418C21.4554 50.4782 21.5189 50.5079 21.5536 50.5079C21.5882 50.5079 21.6551 50.5444 21.7023 50.589C21.8206 50.7009 22.5918 51.0765 22.8092 51.1281C22.9072 51.1513 22.9875 51.1964 22.9875 51.2282C22.9875 51.26 23.0341 51.286 23.0912 51.286C23.1482 51.286 23.2868 51.3273 23.3992 51.3776C23.5116 51.428 23.8224 51.5309 24.0899 51.6063C24.3573 51.6818 24.6637 51.7709 24.7707 51.8044C24.8777 51.8378 25.3037 51.9003 25.7173 51.9432C26.6012 52.0348 27.0959 51.9662 27.4392 51.7044C27.6262 51.5617 27.6563 51.5001 27.6563 51.2592C27.6563 50.9977 27.6244 50.9476 27.1617 50.4818C26.8897 50.2081 26.6794 49.9718 26.6944 49.9567C26.7402 49.9109 27.0078 50.0004 27.0078 50.0616C27.0078 50.093 27.0497 50.1188 27.1009 50.1188C27.152 50.1188 27.2761 50.153 27.3765 50.1948C28.0006 50.4546 29.4302 50.7857 30.4121 50.8979C31.1043 50.9769 32.3582 50.977 33.0383 50.8979C33.7904 50.8105 35.2765 50.517 35.4112 50.4292C35.4503 50.4038 35.6035 50.3636 35.7516 50.3399C35.8998 50.3162 36.0211 50.2747 36.0211 50.2478C36.0211 50.2208 36.0794 50.1836 36.1507 50.1649C36.3486 50.1131 36.3063 50.2427 36.0373 50.512C35.7049 50.8448 35.6597 50.9076 35.61 51.1054C35.4815 51.6175 36.0376 51.9752 37.0005 51.9996C37.3468 52.0084 38.2737 51.8841 38.4527 51.8049C38.524 51.7733 38.7137 51.7185 38.8742 51.6832C39.3983 51.5677 39.7459 51.4691 39.9539 51.3767C40.0663 51.3268 40.2049 51.286 40.2619 51.286C40.3189 51.286 40.3656 51.2568 40.3656 51.2212C40.3656 51.1855 40.4021 51.1562 40.4466 51.156C40.5546 51.1556 41.3642 50.7378 41.7121 50.503C42.0156 50.2982 42.0309 50.2863 42.4081 49.9583C42.5508 49.8342 42.6877 49.7321 42.7125 49.7313C42.7932 49.7286 43.5725 48.9172 43.9346 48.4588C44.1289 48.2128 44.31 48.0017 44.3369 47.9898C44.3638 47.9779 44.3859 47.9403 44.3859 47.9061C44.3859 47.8465 44.6354 47.4621 44.7175 47.3954C44.7395 47.3776 44.7799 47.29 44.8073 47.2009C44.8348 47.1117 44.8752 47.0242 44.8972 47.0064C44.9599 46.9554 45.2288 46.3845 45.2288 46.3022C45.2288 46.2615 45.258 46.2282 45.2937 46.2282C45.3293 46.2282 45.3585 46.1816 45.3585 46.1245C45.3585 46.0675 45.3997 45.9289 45.4501 45.8165C45.5982 45.4859 45.8124 44.8114 45.8124 44.6756C45.8124 44.6065 45.8387 44.5337 45.8709 44.5138C45.903 44.4939 45.9485 44.2952 45.9717 44.0723C45.9951 43.8493 46.0398 43.6086 46.0712 43.5372C46.1593 43.337 46.2845 41.7455 46.2804 40.8786C46.2733 39.4056 46.1243 38.0356 45.783 36.3072C45.596 35.3598 45.5387 35.1064 45.4894 35.0078C45.4619 34.9529 45.4179 34.7808 45.3916 34.6253C45.3654 34.4699 45.3034 34.2458 45.2539 34.1274C45.2044 34.009 45.164 33.8383 45.164 33.7479C45.164 33.6576 45.1366 33.5838 45.1031 33.5838C45.0696 33.5838 45.0226 33.4524 44.9985 33.292C44.9744 33.1315 44.9321 33.0002 44.9045 33.0002C44.8768 33.0002 44.8353 32.8993 44.8121 32.7759C44.789 32.6526 44.7276 32.4703 44.6756 32.3707C44.6237 32.2711 44.581 32.1385 44.5808 32.0761C44.5806 32.0138 44.5535 31.9627 44.5207 31.9627C44.4879 31.9627 44.4414 31.8732 44.4173 31.7638C44.3933 31.6544 44.3328 31.4866 44.2829 31.3909C44.233 31.2952 44.192 31.1805 44.1917 31.1359C44.1915 31.0914 44.1645 31.0549 44.1316 31.0549C44.0988 31.0549 44.0527 30.9673 44.0292 30.8603C44.0058 30.7533 43.9596 30.6658 43.9268 30.6658C43.894 30.6658 43.8671 30.6334 43.8671 30.5938C43.8671 30.5541 43.7212 30.2802 43.5429 29.9849C43.3646 29.6897 43.2187 29.4182 43.2187 29.3815C43.2187 29.3449 43.1968 29.3052 43.17 29.2933C43.1126 29.2677 42.8296 28.8724 42.8296 28.8176C42.8296 28.7969 42.7999 28.7446 42.7635 28.7016C42.6131 28.5231 42.4672 28.3351 42.3757 28.2017C42.3222 28.1237 42.2266 27.999 42.1634 27.9245C42.0513 27.7927 42.0547 27.7823 42.293 27.5318C42.7258 27.0768 42.8419 26.9332 43.3487 26.2258C43.5268 25.9772 43.6726 25.7364 43.6726 25.6908C43.6726 25.6453 43.7018 25.608 43.7374 25.608C43.7731 25.608 43.8023 25.5663 43.8023 25.5153C43.8023 25.4644 43.8388 25.3842 43.8833 25.337C43.9722 25.2431 44.2985 24.5941 44.5133 24.0842C44.5884 23.9059 44.676 23.7125 44.7079 23.6545C44.7399 23.5964 44.7859 23.4433 44.8101 23.314C44.8344 23.1848 44.8768 23.0791 44.9045 23.0791C44.9321 23.0791 44.9744 22.9478 44.9985 22.7873C45.0226 22.6268 45.0633 22.4955 45.0892 22.4955C45.1342 22.4955 45.2181 22.1587 45.3637 21.3932C45.4011 21.197 45.4569 20.9782 45.4879 20.9069C45.5504 20.7632 45.6536 20.0643 45.7513 19.1237C45.7865 18.7849 45.8421 18.4347 45.8748 18.3455C45.9075 18.2564 45.9539 18.0229 45.9779 17.8268C46.0018 17.6306 46.0437 17.441 46.0709 17.4053C46.0981 17.3696 46.1402 17.2025 46.1646 17.034C46.189 16.8654 46.2326 16.7128 46.2615 16.695C46.2904 16.6771 46.3331 16.5439 46.3563 16.3988C46.3795 16.2538 46.4254 16.0854 46.4585 16.0245C46.6146 15.7369 46.7771 14.0968 46.661 13.9807C46.6222 13.942 46.5905 13.8354 46.5905 13.7439C46.5905 13.4357 46.1275 12.7441 45.7771 12.529C45.2771 12.2221 44.5848 12.0312 43.9644 12.0293C43.5958 12.0281 42.3559 12.1908 42.2785 12.2505C42.2428 12.2779 42.0898 12.3209 41.9383 12.3458C41.787 12.3708 41.6482 12.4153 41.63 12.4448C41.6118 12.4742 41.4804 12.5181 41.3379 12.5421C41.1954 12.5662 41.0788 12.6093 41.0788 12.638C41.0788 12.6667 40.9986 12.7093 40.9005 12.7328C40.6837 12.7846 39.524 13.3531 39.4045 13.4661C39.3574 13.5107 39.2771 13.5471 39.2262 13.5471C39.1752 13.5471 39.1335 13.5729 39.1335 13.6044C39.1335 13.6359 39.0825 13.6795 39.0201 13.7013C38.8161 13.7723 38.0239 14.3057 37.75 14.5564C37.7085 14.5943 37.6266 14.6527 37.568 14.6861C37.368 14.8 36.4222 15.6165 35.9919 16.0468C35.5098 16.529 34.7619 17.3956 34.6311 17.6238C34.5977 17.6819 34.5394 17.765 34.5015 17.8083C34.3141 18.0222 34.2703 18.0857 34.2703 18.1436C34.2703 18.1782 34.2338 18.2464 34.1892 18.295C34.0684 18.4269 33.9507 18.6156 33.8646 18.8157C33.8225 18.9137 33.7675 18.994 33.7425 18.994C33.7174 18.994 33.6777 19.0815 33.6543 19.1885C33.6308 19.2955 33.587 19.383 33.557 19.383C33.527 19.383 33.4832 19.4706 33.4597 19.5776C33.4363 19.6846 33.3925 19.7721 33.3625 19.7721C33.3325 19.7721 33.2887 19.8596 33.2652 19.9666C33.2417 20.0736 33.1956 20.1612 33.1628 20.1612C33.1299 20.1612 33.1031 20.2078 33.1031 20.2648C33.1031 20.3218 33.0619 20.4605 33.0115 20.5729C32.8634 20.9035 32.6492 21.578 32.6492 21.7138C32.6492 21.7829 32.6223 21.856 32.5894 21.8764C32.5566 21.8967 32.5094 22.1031 32.4845 22.335C32.4597 22.5669 32.4136 22.7726 32.3822 22.7921C32.3507 22.8115 32.325 22.9132 32.325 23.0181C32.325 23.208 32.3232 23.2088 31.9359 23.2088H31.5469V22.9927C31.5469 22.8738 31.525 22.7548 31.4982 22.7282C31.4715 22.7017 31.4147 22.4852 31.3721 22.2473C31.2529 21.5812 31.1371 21.1338 31.0841 21.1338C31.0577 21.1338 31.0164 21.0025 30.9923 20.842C30.9683 20.6815 30.9259 20.5502 30.8981 20.5502C30.8703 20.5502 30.828 20.47 30.8039 20.3719C30.78 20.2739 30.6746 20.0111 30.57 19.7881C30.4653 19.5651 30.3797 19.3536 30.3797 19.318C30.3797 19.2825 30.3533 19.2534 30.3212 19.2534C30.289 19.2534 30.2289 19.1731 30.1877 19.075C30.0596 18.7705 29.9619 18.6049 29.9104 18.6049C29.8832 18.6049 29.8609 18.5653 29.8609 18.5169C29.8609 18.4686 29.715 18.2338 29.5367 17.9952C29.3584 17.7567 29.2125 17.5494 29.2125 17.5347C29.2125 17.484 28.8544 17.1011 28.01 16.2489C27.1298 15.3605 27.0526 15.2909 26.3594 14.7609C26.1276 14.5837 25.9282 14.4131 25.9163 14.3819C25.9044 14.3507 25.8668 14.3252 25.8326 14.3252C25.7599 14.3252 25.3642 14.0558 25.3327 13.9848C25.3208 13.9581 25.2832 13.9362 25.249 13.9362C25.1953 13.9362 24.8317 13.7053 24.7383 13.612C24.7205 13.5941 24.56 13.5066 24.3817 13.4174C24.2033 13.3283 24.0428 13.2407 24.025 13.2229C23.9537 13.1516 23.1383 12.7721 22.9713 12.7324C22.8733 12.7092 22.793 12.6673 22.793 12.6395C22.793 12.6117 22.6836 12.5684 22.5498 12.5435C22.4161 12.5185 22.2775 12.4753 22.2418 12.4474C22.2062 12.4196 22.0603 12.3759 21.9176 12.3502C21.7749 12.3245 21.6291 12.28 21.5934 12.2514C21.5577 12.2226 21.2513 12.1668 20.9125 12.1272C20.5737 12.0876 20.1652 12.038 20.0047 12.0168C19.8442 11.9957 19.6975 11.9943 19.6786 12.0136ZM23.4901 18.0672C23.7487 18.1949 23.9602 18.3244 23.9602 18.3549C23.9602 18.3854 23.998 18.4104 24.0443 18.4104C24.1377 18.4104 24.3306 18.5468 24.6174 18.8157C24.722 18.9137 24.8286 18.994 24.8542 18.994C24.9737 18.994 26.3251 20.3916 26.7659 20.9711C26.7932 21.007 26.8735 21.1066 26.9442 21.1924C27.0148 21.2781 27.0727 21.3844 27.0727 21.4286C27.0727 21.4728 27.1164 21.5258 27.1699 21.5463C27.2234 21.5668 27.2672 21.6283 27.2672 21.683C27.2672 21.7376 27.2958 21.7822 27.3308 21.7822C27.3658 21.7822 27.4127 21.8552 27.4351 21.9444C27.4574 22.0335 27.4995 22.1065 27.5284 22.1065C27.5574 22.1065 27.6004 22.194 27.6238 22.301C27.6473 22.408 27.6911 22.4955 27.7211 22.4955C27.7511 22.4955 27.7949 22.5831 27.8184 22.6901C27.8418 22.797 27.8879 22.8846 27.9207 22.8846C27.9536 22.8846 27.9814 22.9211 27.9827 22.9656C27.9839 23.0103 28.0412 23.1634 28.1102 23.3061C28.1791 23.4487 28.2364 23.6148 28.2376 23.6751C28.2389 23.7354 28.2665 23.8012 28.299 23.8213C28.3316 23.8415 28.3779 23.9743 28.402 24.1166C28.426 24.2589 28.4706 24.3907 28.5011 24.4096C28.5316 24.4284 28.5762 24.5749 28.6002 24.735C28.6242 24.8951 28.6676 25.0407 28.6967 25.0587C28.7257 25.0766 28.7695 25.2513 28.7939 25.4469C28.8184 25.6425 28.8601 25.8025 28.8865 25.8025C28.9952 25.8025 29.2423 28.0649 29.1681 28.3807C29.1183 28.5931 29.0792 28.6313 28.8538 28.6881C28.7123 28.7237 28.5673 28.7714 28.5316 28.7939C28.496 28.8165 28.3719 28.8552 28.2561 28.8801C28.1402 28.905 28.0453 28.9522 28.0453 28.985C28.0453 29.0179 28.0172 29.0447 27.9827 29.0447C27.9148 29.0447 26.931 28.464 26.8781 28.3926C26.8603 28.3686 26.7833 28.3295 26.707 28.3057C26.6308 28.2819 26.4939 28.1934 26.4029 28.1091C26.3119 28.0248 26.21 27.9455 26.1763 27.9328C26.0499 27.8854 25.4742 27.369 24.8417 26.7357C24.1413 26.0343 23.9602 25.8213 23.9602 25.699C23.9602 25.6566 23.9164 25.6051 23.8629 25.5845C23.8094 25.564 23.7656 25.5026 23.7656 25.4479C23.7656 25.3933 23.737 25.3486 23.702 25.3486C23.6671 25.3486 23.6201 25.2757 23.5978 25.1865C23.5754 25.0974 23.531 25.0244 23.4993 25.0244C23.4674 25.0244 23.4405 24.988 23.4392 24.9434C23.438 24.8988 23.3807 24.7456 23.3117 24.6029C23.2428 24.4603 23.1855 24.3104 23.1843 24.2699C23.183 24.2294 23.1385 24.1127 23.0852 24.0105C23.0319 23.9084 22.9882 23.7755 22.9879 23.7152C22.9877 23.6549 22.96 23.5885 22.9264 23.5678C22.8929 23.547 22.8454 23.392 22.821 23.2235C22.7966 23.0549 22.754 22.8878 22.7264 22.8522C22.6987 22.8165 22.6459 22.6122 22.6091 22.3983C22.5018 21.7757 22.2582 20.8671 22.0909 20.465C22.049 20.3646 22.0149 20.2423 22.0149 20.1932C22.0149 20.1441 21.9874 20.087 21.9538 20.0662C21.9202 20.0454 21.8727 19.8905 21.8484 19.722C21.8239 19.5534 21.7764 19.3808 21.7427 19.3384C21.6518 19.2242 21.6544 18.2603 21.7457 18.2299C21.7868 18.2162 21.8203 18.1683 21.8203 18.1233C21.8203 18.0185 22.0096 17.8501 22.177 17.8059C22.4706 17.7283 23.0288 17.8393 23.4901 18.0672ZM41.9333 17.9344C41.9983 17.9933 42.0515 18.0783 42.0515 18.1233C42.0515 18.1683 42.0863 18.2166 42.1287 18.2308C42.2349 18.2662 42.2735 19.0248 42.1864 19.3668C42.1479 19.5184 42.0856 19.7653 42.0481 19.9155C42.0106 20.0656 41.9556 20.2188 41.9259 20.2559C41.8962 20.2929 41.8523 20.4254 41.8282 20.5502C41.8043 20.675 41.761 20.8355 41.7321 20.9069C41.6709 21.0582 41.5529 21.4971 41.4619 21.9119C41.4267 22.0724 41.3734 22.2486 41.3436 22.3035C41.3138 22.3584 41.2679 22.5335 41.2417 22.6925C41.2153 22.8516 41.1713 23.011 41.1437 23.0467C41.1161 23.0824 41.0731 23.2355 41.048 23.3871C41.0231 23.5387 40.976 23.6627 40.9435 23.6627C40.9109 23.6627 40.8841 23.7138 40.8839 23.7762C40.8837 23.8386 40.8427 23.9679 40.7928 24.0636C40.7428 24.1593 40.6823 24.3271 40.6583 24.4365C40.6343 24.5459 40.5901 24.6354 40.5601 24.6354C40.5301 24.6354 40.4863 24.7229 40.4628 24.8299C40.4394 24.9369 40.3933 25.0244 40.3604 25.0244C40.3276 25.0244 40.3007 25.0594 40.3007 25.1021C40.3007 25.1886 39.7707 26.0037 39.5502 26.2564C38.9749 26.9155 38.8226 27.08 38.6804 27.1954C38.5915 27.2674 38.4675 27.3775 38.4048 27.4398C38.3419 27.5022 38.2746 27.5533 38.255 27.5533C38.2355 27.5533 38.1553 27.6189 38.0767 27.6992C37.8974 27.8825 37.5372 28.1369 37.4571 28.1369C37.4239 28.1369 37.3799 28.1807 37.3593 28.2342C37.3388 28.2877 37.2773 28.3314 37.2227 28.3314C37.1681 28.3314 37.1234 28.3587 37.1234 28.3919C37.1234 28.4252 37.0578 28.4729 36.9775 28.4979C36.8972 28.523 36.817 28.5614 36.7992 28.5834C36.7813 28.6053 36.633 28.6929 36.4695 28.7781C36.2247 28.9057 36.1192 28.925 35.8712 28.8879C35.7057 28.863 35.5553 28.8185 35.5371 28.7891C35.5188 28.7596 35.3796 28.7162 35.2275 28.6925C34.7252 28.6145 34.7129 28.5878 34.7452 27.6407C34.7739 26.7994 34.8896 25.8895 34.9831 25.7701C35.0111 25.7345 35.0545 25.552 35.0797 25.3648C35.1048 25.1776 35.1518 25.0244 35.1842 25.0244C35.2165 25.0244 35.2431 24.9441 35.2433 24.8461C35.2436 24.7481 35.2874 24.5842 35.3406 24.4821C35.3939 24.3799 35.4377 24.2486 35.4379 24.1903C35.4381 24.1319 35.4819 24.0006 35.5351 23.8985C35.5884 23.7963 35.633 23.6796 35.6342 23.6391C35.6354 23.5986 35.6928 23.4487 35.7617 23.3061C35.8306 23.1634 35.8879 23.0103 35.8892 22.9656C35.8904 22.9211 35.9206 22.8846 35.9562 22.8846C35.9919 22.8846 36.0211 22.8513 36.0211 22.8107C36.0211 22.7373 36.2828 22.1688 36.3452 22.1065C36.3631 22.0886 36.4501 21.9355 36.5384 21.766C36.6269 21.5966 36.7197 21.458 36.7448 21.458C36.7699 21.458 36.811 21.3923 36.8363 21.3121C36.8614 21.2319 36.9468 21.1059 37.0258 21.0321C37.1049 20.9583 37.1811 20.8676 37.1951 20.8305C37.2358 20.7232 37.7125 20.1603 38.0346 19.8393C38.3358 19.5393 38.4037 19.4803 38.9714 19.0263C39.1498 18.8837 39.319 18.7306 39.3475 18.686C39.3761 18.6414 39.4417 18.6049 39.4934 18.6049C39.5451 18.6049 39.5876 18.583 39.5878 18.5563C39.5887 18.4477 40.6308 17.9014 40.9816 17.8257C41.3295 17.7505 41.788 17.803 41.9333 17.9344ZM32.1504 25.3648C32.1825 26.2057 32.3073 27.3316 32.3895 27.5209C32.4204 27.5922 32.4641 27.7891 32.4866 27.9586L32.5275 28.2666H31.9399C31.2958 28.2666 31.3097 28.2779 31.4237 27.8451C31.5859 27.2296 31.6906 26.4206 31.7197 25.5594L31.751 24.6354H31.9368H32.1226L32.1504 25.3648ZM22.7695 28.6232C22.7901 28.6767 22.8431 28.7205 22.8873 28.7205C22.9581 28.7205 23.0471 28.7816 23.3576 29.0435C23.4007 29.0799 23.4643 29.1096 23.4989 29.1096C23.5335 29.1096 23.6009 29.1461 23.6487 29.1906C23.6965 29.2352 23.8736 29.344 24.0424 29.4324C24.2111 29.5209 24.3492 29.6133 24.3492 29.638C24.3492 29.6627 24.4368 29.7021 24.5438 29.7256C24.6508 29.749 24.7383 29.7928 24.7383 29.8228C24.7383 29.8529 24.8255 29.8965 24.9321 29.9199C25.0387 29.9433 25.1425 29.9894 25.1629 30.0224C25.1832 30.0553 25.2506 30.0822 25.3127 30.0822C25.3749 30.0822 25.4584 30.115 25.4984 30.155C25.5788 30.2354 25.5387 30.4064 25.4393 30.4064C25.2474 30.4064 24.252 31.3688 23.9702 31.8266C23.7559 32.175 23.6421 32.7604 23.7559 32.9284C23.7896 32.9781 23.9587 33.0416 24.1318 33.0696C24.5207 33.1326 25.5817 33.0261 25.8237 32.8998C25.9222 32.8484 26.0359 32.8063 26.0764 32.806C26.1169 32.8058 26.2336 32.7621 26.3358 32.7088C26.4379 32.6555 26.5708 32.6118 26.6311 32.6115C26.6914 32.6113 26.7578 32.5836 26.7785 32.55C26.7993 32.5164 26.9543 32.469 27.1228 32.4446C27.2914 32.4201 27.4614 32.3747 27.5007 32.3436C27.5399 32.3125 27.715 32.268 27.8898 32.2446C28.0644 32.2212 28.222 32.1805 28.2398 32.154C28.2763 32.0999 28.8723 31.9865 29.6016 31.8948C29.869 31.8612 30.2854 31.8043 30.5268 31.7685C31.0928 31.6844 32.8437 31.6844 33.4099 31.7685C33.6513 31.8043 34.0968 31.8609 34.4 31.8944C35.1012 31.9717 35.7572 32.0827 35.9238 32.1521C35.9951 32.1819 36.1994 32.2367 36.3777 32.2739C37.0004 32.4038 37.3506 32.4981 37.3828 32.5444C37.4006 32.5701 37.5296 32.6091 37.6693 32.6312C37.8091 32.6533 37.9404 32.697 37.9611 32.7285C37.9819 32.7599 38.1132 32.8036 38.2529 32.8257C38.3927 32.8478 38.524 32.8888 38.5447 32.9168C38.619 33.0173 39.2537 33.1946 39.5313 33.1926C39.7207 33.1911 39.8681 33.1457 39.9765 33.0553C40.1251 32.9314 40.1384 32.8772 40.1354 32.4046C40.1335 32.0972 40.1028 31.871 40.0595 31.8442C40.0195 31.8195 39.9667 31.7193 39.9422 31.6216C39.9177 31.5239 39.8716 31.4439 39.8398 31.4439C39.808 31.4439 39.782 31.404 39.782 31.3553C39.782 31.2577 39.1731 30.6135 38.7966 30.3127C38.5769 30.1372 38.5668 30.115 38.6724 30.041C38.7357 29.9967 38.8654 29.9409 38.9605 29.9171C39.0557 29.8932 39.1335 29.8499 39.1335 29.821C39.1335 29.792 39.2211 29.749 39.3281 29.7256C39.4351 29.7021 39.5226 29.6624 39.5226 29.6374C39.5226 29.6124 39.6029 29.5574 39.7009 29.5152C39.901 29.4292 40.0897 29.3115 40.2216 29.1906C40.2702 29.1461 40.3517 29.1096 40.4026 29.1096C40.4536 29.1096 40.4955 29.0877 40.4956 29.0609C40.4962 28.9984 40.8711 28.7841 40.9706 28.7894C41.0534 28.7937 41.4679 29.332 41.4679 29.435C41.4679 29.47 41.4929 29.4986 41.5235 29.4986C41.5849 29.4986 42.0515 30.1927 42.0515 30.2841C42.0515 30.3157 42.0801 30.3416 42.1151 30.3416C42.1501 30.3416 42.197 30.4145 42.2194 30.5037C42.2417 30.5929 42.2838 30.6658 42.3128 30.6658C42.3417 30.6658 42.3847 30.7533 42.4081 30.8603C42.4316 30.9673 42.4754 31.0549 42.5054 31.0549C42.5354 31.0549 42.5792 31.1424 42.6027 31.2494C42.6261 31.3564 42.6699 31.4439 42.6999 31.4439C42.73 31.4439 42.7737 31.5315 42.7972 31.6385C42.8207 31.7454 42.8644 31.833 42.8945 31.833C42.9245 31.833 42.9686 31.9225 42.9927 32.0319C43.0167 32.1412 43.0772 32.3091 43.1271 32.4047C43.1771 32.5004 43.218 32.6298 43.2183 32.6922C43.2185 32.7545 43.2414 32.8056 43.2691 32.8056C43.2969 32.8056 43.3881 33.0318 43.4718 33.3082C43.5556 33.5845 43.6642 33.9027 43.7132 34.015C43.7622 34.1274 43.8023 34.2935 43.8023 34.3841C43.8023 34.4746 43.8281 34.5647 43.8597 34.5842C43.8912 34.6037 43.9378 34.7586 43.9632 34.9285C43.9886 35.0983 44.0284 35.2664 44.0517 35.3021C44.0988 35.3743 44.2275 35.9398 44.3321 36.5341C44.3697 36.7481 44.4261 36.9816 44.4574 37.0529C44.5598 37.2866 44.7315 38.6626 44.8418 40.1342C44.9019 40.9342 44.9043 41.3448 44.8513 41.7553C44.8123 42.0578 44.762 42.5532 44.7395 42.8564C44.717 43.1595 44.6756 43.4367 44.6475 43.4724C44.6194 43.508 44.5761 43.705 44.5513 43.9101C44.5265 44.1152 44.4829 44.2829 44.4544 44.2829C44.4259 44.2829 44.3834 44.4277 44.3599 44.6045C44.3365 44.7813 44.2922 44.9415 44.2616 44.9604C44.2311 44.9793 44.1868 45.0972 44.1633 45.2224C44.1398 45.3477 44.0928 45.4501 44.0587 45.4501C44.0247 45.4501 43.9968 45.4915 43.9968 45.5422C43.9968 45.6559 43.5369 46.5767 43.4652 46.6065C43.4366 46.6184 43.4132 46.6649 43.4132 46.71C43.4132 46.7551 43.3554 46.8621 43.2848 46.9478C43.0686 47.2098 43.0558 47.2264 42.8915 47.4536C42.4633 48.0461 41.8686 48.6453 41.3381 49.0189C41.2133 49.1067 41.0967 49.1932 41.0788 49.211C40.9999 49.29 40.6354 49.5163 40.398 49.6338C40.2553 49.7044 40.1237 49.7818 40.1055 49.8057C40.0873 49.8296 39.9871 49.8706 39.8829 49.8967C39.7787 49.9229 39.6184 49.9834 39.5269 50.0312C39.4354 50.079 39.3006 50.1182 39.2276 50.1184C39.1544 50.1186 39.0669 50.1456 39.033 50.1784C38.9319 50.276 38.3554 50.3402 38.3554 50.2538C38.3554 50.213 38.3992 50.1628 38.4527 50.1423C38.5062 50.1218 38.55 50.0777 38.55 50.0445C38.55 49.9729 38.8202 49.5773 38.8904 49.5461C38.9171 49.5341 38.939 49.4852 38.939 49.4372C38.939 49.3892 38.9755 49.3114 39.0201 49.2643C39.1321 49.1459 39.5076 48.3747 39.5592 48.1573C39.5825 48.0592 39.6238 47.979 39.6511 47.979C39.6783 47.979 39.7194 47.861 39.7425 47.7168C39.7656 47.5726 39.8119 47.4048 39.8454 47.3439C39.9144 47.2188 40.0046 46.8374 40.1552 46.0337C40.3037 45.2416 40.3033 42.7005 40.1545 41.981C39.9705 41.0905 39.8879 40.7814 39.834 40.7814C39.8054 40.7814 39.781 40.7303 39.7798 40.6679C39.7785 40.6055 39.7212 40.4377 39.6523 40.2951C39.5834 40.1524 39.526 40.016 39.5248 39.992C39.521 39.9162 38.8824 38.8763 38.729 38.6962C38.6484 38.6015 38.5386 38.4583 38.4851 38.3781C38.4316 38.2979 38.3367 38.1866 38.2744 38.1307C38.212 38.0748 38.1609 38.0084 38.1609 37.9831C38.1609 37.9578 37.9931 37.7647 37.788 37.5539C37.4204 37.1761 37.0066 36.7032 36.7205 36.334C36.5283 36.0857 36.4933 36.0413 36.3603 35.8755C36.2985 35.7986 36.2042 35.671 36.1507 35.592C36.0972 35.513 36.017 35.4102 35.9724 35.3636C35.9279 35.3171 35.8914 35.2596 35.8914 35.2359C35.8914 35.2122 35.8403 35.126 35.7779 35.0442C35.7155 34.9625 35.6206 34.8303 35.5672 34.7504C35.3956 34.4944 35.0109 34.1025 34.9312 34.1025C34.8886 34.1025 34.8539 34.0757 34.8539 34.0428C34.8539 34.01 34.7663 33.9639 34.6593 33.9404C34.5524 33.9169 34.4648 33.8708 34.4648 33.838C34.4648 33.7613 33.2522 33.7594 33.2048 33.8359C33.1852 33.8676 33.0902 33.9134 32.9937 33.9376C32.6606 34.0213 31.1578 35.2825 31.1578 35.4784C31.1578 35.5062 31.114 35.5291 31.0605 35.5291C31.007 35.5291 30.9633 35.5516 30.9633 35.5791C30.9633 35.6065 30.8247 35.6986 30.6553 35.7835C30.4858 35.8685 30.2698 35.9773 30.1752 36.0253C30.0805 36.0734 29.9564 36.1127 29.8996 36.1127C29.8426 36.1127 29.7961 36.1405 29.7961 36.1746C29.7961 36.2086 29.6867 36.2561 29.5529 36.2803C29.4192 36.3044 29.2775 36.3496 29.238 36.3807C29.0442 36.5336 27.8654 36.6915 26.8982 36.6941C26.4634 36.6953 26.0917 36.722 26.0723 36.7535C26.0528 36.785 25.876 36.8309 25.6794 36.8554C25.4828 36.88 25.3219 36.9272 25.3219 36.9603C25.3219 36.9934 25.2886 37.0205 25.248 37.0205C25.0636 37.0205 24.5515 37.3407 24.2743 37.6295C23.9955 37.9198 23.5063 38.7618 23.5063 38.9513C23.5063 38.9949 23.4829 39.0306 23.4542 39.0306C23.3916 39.0306 23.2767 39.4933 23.1321 40.3275C22.9843 41.1799 22.9862 44.3326 23.1353 45.5798C23.2465 46.5102 23.3792 47.2522 23.4553 47.3691C23.4807 47.4082 23.5209 47.5614 23.5446 47.7096C23.5683 47.8577 23.6108 47.979 23.6391 47.979C23.6673 47.979 23.7101 48.0685 23.7342 48.1779C23.7582 48.2873 23.8187 48.4551 23.8686 48.5507C23.9185 48.6464 23.9595 48.7444 23.9598 48.7684C23.9605 48.8487 24.6048 49.8893 24.7758 50.0864C24.9329 50.2674 24.9359 50.2823 24.8195 50.3003C24.6832 50.3213 23.6594 49.9973 23.1976 49.7869C22.8985 49.6507 22.2659 49.2805 22.2094 49.2088C22.1916 49.1861 22.1294 49.1409 22.0712 49.1082C21.6295 48.8606 20.3793 47.6086 20.2708 47.3052C20.2566 47.2657 20.2056 47.21 20.1573 47.1814C20.1091 47.1529 20.0696 47.0873 20.0696 47.0355C20.0696 46.9839 20.041 46.9415 20.006 46.9415C19.971 46.9415 19.9241 46.8686 19.9017 46.7794C19.8793 46.6902 19.8405 46.6173 19.8154 46.6173C19.7671 46.6173 19.3724 45.8532 19.1958 45.4177C19.138 45.275 19.0649 45.1108 19.0334 45.0528C19.0019 44.9948 18.9557 44.8343 18.9308 44.6962C18.9059 44.5581 18.8627 44.4159 18.8348 44.3802C18.7752 44.3038 18.6597 43.7725 18.5741 43.1806C18.5407 42.9488 18.4841 42.5969 18.4485 42.3986C18.3641 41.9292 18.3648 39.8712 18.4496 39.3074C18.486 39.066 18.5426 38.6351 18.5755 38.3497C18.68 37.4443 19.0851 35.4275 19.2267 35.1076C19.2582 35.0362 19.3029 34.854 19.3258 34.7026C19.3488 34.5513 19.3909 34.413 19.4193 34.3955C19.4477 34.3778 19.4906 34.2325 19.5146 34.0724C19.5387 33.9123 19.5832 33.7659 19.6138 33.747C19.6443 33.7282 19.6889 33.5962 19.713 33.4537C19.7371 33.3113 19.7833 33.1947 19.8159 33.1947C19.8485 33.1947 19.8752 33.1436 19.8754 33.0812C19.8757 33.0188 19.9167 32.8895 19.9666 32.7938C20.0165 32.6981 20.077 32.5303 20.101 32.4209C20.1251 32.3115 20.1692 32.222 20.1993 32.222C20.2293 32.222 20.273 32.1345 20.2965 32.0275C20.32 31.9205 20.3661 31.833 20.3989 31.833C20.4318 31.833 20.4586 31.7877 20.4586 31.7323C20.4586 31.619 20.7242 31.099 20.7991 31.0657C20.8258 31.0538 20.8477 31.0138 20.8477 30.9769C20.8477 30.8908 21.3103 30.1216 21.3792 30.093C21.4079 30.0811 21.4313 30.0346 21.4313 29.9896C21.4313 29.9446 21.4896 29.8549 21.561 29.7904C21.6323 29.7259 21.6907 29.6445 21.6907 29.6095C21.6907 29.5745 21.7594 29.4822 21.8434 29.4043C21.9275 29.3264 22.0077 29.2317 22.0217 29.1937C22.0734 29.0542 22.5687 28.5277 22.6491 28.5269C22.6948 28.5264 22.749 28.5697 22.7695 28.6232ZM34.227 35.3778C34.3578 35.5085 34.4648 35.6544 34.4648 35.702C34.4648 35.7495 34.492 35.7884 34.5253 35.7884C34.5586 35.7884 34.6059 35.8518 34.6305 35.9293C34.6551 36.0068 34.7014 36.1017 34.7333 36.1401C34.8908 36.3294 35.0252 36.503 35.1132 36.6311C35.1667 36.709 35.2981 36.8687 35.405 36.9861C35.512 37.1035 35.7309 37.3545 35.8914 37.5439C36.0519 37.7334 36.2343 37.9331 36.2966 37.9876C36.359 38.0421 36.4101 38.1078 36.4101 38.1334C36.4101 38.159 36.5342 38.3101 36.6857 38.4692C37.0497 38.8511 37.3454 39.2231 37.3713 39.3319C37.3828 39.3802 37.4169 39.4197 37.4471 39.4197C37.4772 39.4197 37.5684 39.5291 37.6497 39.6628C37.7309 39.7966 37.8151 39.9206 37.8367 39.9384C37.9043 39.9942 38.1609 40.4372 38.1604 40.4972C38.1595 40.6021 37.8146 40.7165 37.4996 40.7165C37.2423 40.7165 37.1882 40.6962 37.1882 40.599C37.1882 40.5344 37.2758 40.4168 37.3828 40.3377C37.523 40.2341 37.5773 40.1401 37.5773 40.0013C37.5773 39.8303 37.5554 39.8087 37.3815 39.8087C37.2738 39.8087 37.0631 39.8861 36.9134 39.9806C36.6816 40.1269 36.5611 40.1543 36.1048 40.1645C35.7081 40.1732 35.5377 40.2044 35.4493 40.2844C35.3837 40.3438 35.3092 40.3923 35.2837 40.3923C35.1887 40.3923 34.9819 40.6354 34.8233 40.9338C34.6852 41.1935 34.6593 41.3285 34.6593 41.7899C34.6593 42.0912 34.6853 42.3376 34.7172 42.3376C34.749 42.3376 34.7934 42.4113 34.8161 42.5014C34.862 42.6842 35.3416 43.1806 35.4723 43.1806C35.5185 43.1806 35.5668 43.2118 35.5795 43.25C35.6217 43.3766 36.4455 43.346 36.7121 43.208C36.9787 43.07 37.1882 42.8887 37.1882 42.7961C37.1882 42.7631 37.2267 42.6974 37.2736 42.6502C37.3555 42.5681 37.4854 42.1806 37.5579 41.802C37.582 41.6763 37.643 41.6108 37.7631 41.5818C37.9391 41.5393 38.3063 41.3117 38.3446 41.2214C38.4006 41.0893 38.55 41.1843 38.55 41.352C38.55 41.4519 38.5772 41.5613 38.6105 41.5952C38.6891 41.6752 38.8054 42.3959 38.8714 43.213C38.9275 43.9065 38.8873 45.3751 38.8094 45.4825C38.7835 45.5182 38.7442 45.7294 38.722 45.9518C38.6999 46.1742 38.6549 46.4077 38.6219 46.4705C38.5891 46.5334 38.528 46.7123 38.4863 46.8682C38.4338 47.0644 38.3179 47.2389 38.1097 47.4356C37.9443 47.5918 37.7882 47.7196 37.7626 47.7196C37.7371 47.7196 37.6769 47.7561 37.6288 47.8007C37.4645 47.953 37.1288 48.1735 37.0611 48.1735C37.0241 48.1735 36.9937 48.2004 36.9937 48.2333C36.9937 48.2661 36.9062 48.3122 36.7992 48.3356C36.6922 48.3591 36.6046 48.4029 36.6046 48.4329C36.6046 48.4629 36.5171 48.5067 36.4101 48.5302C36.3031 48.5536 36.2156 48.5997 36.2156 48.6326C36.2156 48.6654 36.1791 48.6925 36.1345 48.6927C36.09 48.6929 35.972 48.7356 35.8724 48.7875C35.7728 48.8395 35.5902 48.9009 35.4665 48.9242C35.3427 48.9474 35.2268 48.9902 35.2088 49.0193C35.1908 49.0485 35.016 49.0922 34.8204 49.1167C34.6248 49.1411 34.4648 49.1835 34.4648 49.2109C34.4648 49.2567 34.1911 49.3062 33.0383 49.469C32.5112 49.5435 30.8555 49.543 30.3797 49.4683C29.5173 49.3328 29.1715 49.2664 29.0504 49.2128C28.9791 49.1813 28.8077 49.1368 28.6696 49.114C28.5314 49.0911 28.371 49.0468 28.3129 49.0155C28.2549 48.9842 28.0323 48.901 27.8184 48.8306C27.6044 48.7602 27.3418 48.6567 27.2348 48.6006C27.1278 48.5444 27.0038 48.4984 26.9592 48.4981C26.9146 48.4979 26.8781 48.4686 26.8781 48.4329C26.8781 48.3972 26.841 48.3681 26.7956 48.3681C26.7502 48.3681 26.558 48.2659 26.3685 48.1411C26.1789 48.0163 25.9996 47.9142 25.9701 47.9142C25.9405 47.9142 25.9066 47.8923 25.8946 47.8655C25.8828 47.8387 25.7276 47.7002 25.5498 47.5575C25.0058 47.1209 24.7383 46.8128 24.7383 46.6224C24.7383 46.5269 24.7107 46.4209 24.6769 46.3871C24.5349 46.2446 24.4549 45.0303 24.4573 43.0509C24.4598 41.0636 24.5277 40.0582 24.669 39.9169C24.7071 39.8788 24.7383 39.7983 24.7383 39.738C24.7383 39.4627 25.2174 38.66 25.5031 38.4565C25.7956 38.2482 26.1751 38.1776 27.332 38.1163C27.9205 38.0851 28.4638 38.0324 28.5394 37.9991C28.615 37.9659 28.8193 37.9181 28.9933 37.8929C29.1674 37.8677 29.3389 37.8242 29.3746 37.7962C29.4103 37.7682 29.5534 37.724 29.6928 37.698C29.8321 37.6719 30.0218 37.6112 30.1143 37.5629C30.2067 37.5146 30.3318 37.475 30.3921 37.4748C30.4524 37.4746 30.5184 37.4475 30.5387 37.4145C30.559 37.3816 30.6629 37.3355 30.7694 37.3121C30.8761 37.2887 30.9633 37.245 30.9633 37.215C30.9633 37.185 31.0508 37.1412 31.1578 37.1177C31.2648 37.0943 31.3523 37.0513 31.3523 37.0223C31.3523 36.9934 31.4179 36.952 31.4982 36.9303C31.6507 36.8892 31.8658 36.7235 32.3767 36.2537C32.5444 36.0996 32.8123 35.8661 32.972 35.735C33.1316 35.6039 33.3213 35.4354 33.3935 35.3606C33.6733 35.0704 33.9248 35.0755 34.227 35.3778ZM25.9055 39.9743C25.9055 40.0689 25.9887 40.2288 26.0997 40.3472C26.3835 40.65 26.355 40.7165 25.9417 40.7165C25.7476 40.7165 25.5709 40.6874 25.5488 40.6517C25.4415 40.4781 24.9328 40.6807 24.9328 40.8971C24.9328 40.995 25.3336 41.4298 25.4239 41.4298C25.4748 41.4298 25.5164 41.457 25.5164 41.4904C25.5164 41.5236 25.5967 41.5601 25.6947 41.5714C25.8298 41.5869 25.8777 41.6312 25.892 41.754C25.9024 41.8432 25.9365 41.9745 25.968 42.0458C25.9994 42.1172 26.0431 42.2583 26.0652 42.3594C26.0872 42.4605 26.1405 42.5871 26.1837 42.6408C26.4153 42.9285 26.6905 43.1806 26.7733 43.1806C26.825 43.1806 26.8779 43.2125 26.891 43.2515C26.9334 43.3787 27.802 43.3447 28.0177 43.2074C28.6118 42.829 28.8319 42.4182 28.8302 41.6901C28.8296 41.3926 28.8026 41.1321 28.7701 41.1112C28.7377 41.0903 28.6923 41.0123 28.669 40.9378C28.6156 40.7664 28.3303 40.4564 28.0777 40.2955C27.9326 40.203 27.7468 40.1682 27.3458 40.1581C26.8792 40.1464 26.7794 40.1225 26.5882 39.9767C26.4464 39.8685 26.2857 39.8087 26.1368 39.8087C25.932 39.8087 25.9055 39.8277 25.9055 39.9743ZM30.4229 44.1316C30.3991 44.1554 30.3797 44.2585 30.3797 44.3607C30.3797 44.5577 30.6961 44.9314 30.8628 44.9314C30.9121 44.9314 30.9646 44.9679 30.9795 45.0124C30.9988 45.0703 31.1992 45.0935 31.6819 45.0935C32.4178 45.0935 32.5578 45.0431 32.9248 44.6467C33.125 44.4304 33.146 44.3165 33.0104 44.1811C32.8964 44.067 32.7974 44.0635 32.6792 44.1694C32.2413 44.5622 31.9252 44.697 31.5596 44.647C31.3921 44.6241 31.2453 44.5766 31.2335 44.5414C31.2215 44.5062 31.1764 44.4775 31.1332 44.4775C31.0898 44.4775 30.9829 44.3911 30.8954 44.2856C30.7466 44.1063 30.5216 44.033 30.4229 44.1316ZM29.6826 45.6928C29.5684 45.7316 29.5803 46.2304 29.7012 46.4729C29.7559 46.5827 29.9037 46.755 30.0295 46.8557C30.1552 46.9564 30.2965 47.0738 30.3435 47.1166C30.3904 47.1594 30.5126 47.2146 30.615 47.2391C30.7174 47.2636 30.8421 47.316 30.8921 47.3557C30.9484 47.4002 31.294 47.4265 31.7999 47.4245C32.4435 47.4221 32.658 47.3981 32.8113 47.3115C32.9183 47.2511 33.0273 47.2015 33.0535 47.2013C33.216 47.1999 33.7465 46.7815 33.8542 46.5698C33.9226 46.4354 34.0003 46.3158 34.0271 46.3039C34.1135 46.2655 34.0787 45.8329 33.9815 45.7356C33.8989 45.6531 33.8401 45.6653 33.5114 45.8332C32.8934 46.1487 32.7034 46.2111 32.2277 46.2545C31.3827 46.3315 30.7942 46.1975 29.8609 45.7154C29.8074 45.6878 29.7272 45.6776 29.6826 45.6928Z" fill="white"/>
<defs>
<linearGradient id="paint0_linear_1277_54333" x1="0" y1="0" x2="0" y2="64" gradientUnits="userSpaceOnUse">
<stop stop-color="#A770EF"/>
<stop offset="0.5" stop-color="#CF8BF3"/>
<stop offset="1" stop-color="#FDB99B"/>
</linearGradient>
</defs>
</svg>
