<svg width="104" height="104" viewBox="0 0 104 104" fill="none" xmlns="http://www.w3.org/2000/svg">
<g filter="url(#filter0_d_1277_54358)">
<path d="M14 39C14 21.3269 28.3269 7 46 7V7C63.6731 7 78 21.3269 78 39V62.1724C78 67.0478 74.0478 71 69.1724 71H46C28.3269 71 14 56.6731 14 39V39Z" fill="url(#paint0_linear_1277_54358)"/>
<path fill-rule="evenodd" clip-rule="evenodd" d="M59.7941 20.1418C59.7238 20.2219 59.5109 20.5353 59.3208 20.8382L58.9754 21.3888L58.461 21.4423C58.1781 21.4718 57.8204 21.4958 57.666 21.4958C57.3493 21.4958 57.0507 21.7374 57.0507 21.9936C57.0507 22.0841 57.2766 22.4196 57.5527 22.7391C57.8289 23.0586 58.0548 23.3852 58.0548 23.4651C58.0548 23.5448 57.9764 23.8883 57.8806 24.2283C57.5581 25.3728 57.8195 25.5821 58.9849 25.1123L59.7327 24.8107L60.384 25.2365C61.0953 25.7015 61.2985 25.7477 61.5268 25.4964C61.6575 25.3527 61.6717 25.2222 61.6339 24.5173L61.5902 23.704L62.2074 23.2181C62.7858 22.7627 62.8694 22.6429 62.828 22.3291C62.7968 22.0927 62.5944 21.9821 61.8541 21.7967L61.1121 21.6111L60.8415 20.9195C60.6927 20.5392 60.5274 20.1758 60.4741 20.112C60.3391 19.9499 59.947 19.9671 59.7941 20.1418ZM52.9767 24.3677C52.6978 24.4884 52.4482 24.8638 52.4482 25.1623C52.4482 25.6118 52.9264 26.0793 53.3854 26.0786C53.7269 26.0781 54.1047 25.7803 54.2106 25.4283C54.3392 25.0008 54.1477 24.5664 53.7471 24.3771C53.4126 24.219 53.3223 24.2179 52.9767 24.3677ZM39.0515 24.6879C38.3436 25.0569 38.2531 25.2847 37.5259 28.5277C37.1679 30.1245 36.8893 31.4454 36.9068 31.4628C36.9541 31.51 41.2658 28.7541 41.3277 28.6372C41.3569 28.5821 41.4844 28.0284 41.6112 27.4068C41.8336 26.316 41.8371 26.2606 41.709 25.8218C41.3831 24.7056 40.0824 24.1506 39.0515 24.6879ZM65.5959 25.5482C65.2911 25.7607 65.1398 26.2003 65.2533 26.543C65.5587 27.4643 66.8522 27.3215 66.9827 26.352C67.0258 26.0316 67.0037 25.9739 66.7349 25.7062C66.4986 25.4709 66.3749 25.4123 66.1152 25.4123C65.9367 25.4123 65.703 25.4734 65.5959 25.5482ZM59.4119 25.8914C59.3196 25.9716 59.1613 26.3185 59.0603 26.6622C58.9592 27.0059 58.7793 27.4661 58.6604 27.685C58.4054 28.1548 57.7985 28.743 57.3163 28.988C56.5718 29.3662 55.3302 29.507 54.331 29.3265C53.2692 29.1347 53.2051 29.1329 53.0325 29.2884C52.8418 29.4603 52.8182 29.7308 52.9752 29.9447C53.2452 30.3123 55.4484 30.5289 56.5486 30.296C58.2126 29.9438 59.4248 28.8464 59.9386 27.2269C60.2026 26.3946 60.2083 26.0479 59.9608 25.8753C59.7223 25.7088 59.6183 25.7119 59.4119 25.8914ZM46.4332 26.8399C46.2316 26.8769 45.9869 26.9578 45.8893 27.0196C45.7917 27.0815 44.3286 28.0058 42.6379 29.0736C40.7206 30.2846 39.5845 31.0507 39.6189 31.1094C39.8558 31.5148 42.2592 35.245 42.2836 35.245C42.3844 35.245 50.1052 30.2991 50.1052 30.2345C50.1052 30.1151 48.5244 27.6532 48.2795 27.3911C47.8531 26.9349 47.1154 26.7147 46.4332 26.8399ZM62.7987 29.6997C62.7318 29.7663 62.5166 30.0797 62.3205 30.3963L61.9639 30.9717L61.1681 31.0237C59.8813 31.1079 59.757 31.3866 60.5809 32.3399L61.0986 32.9389L60.9134 33.6544C60.695 34.4984 60.6903 34.6076 60.8641 34.7808C61.0555 34.9714 61.3093 34.9437 62.0637 34.6496L62.7361 34.3875L63.3919 34.8163C63.7526 35.0521 64.103 35.245 64.1706 35.245C64.2383 35.245 64.3827 35.1829 64.4916 35.107C64.6839 34.9727 64.688 34.9454 64.6377 34.1261L64.5859 33.2833L65.1906 32.7835C65.6682 32.3887 65.8006 32.2299 65.8205 32.0282C65.8547 31.6808 65.7079 31.5807 64.8481 31.3658L64.1238 31.1847L63.843 30.4859C63.6885 30.1015 63.5234 29.7402 63.476 29.6828C63.3588 29.541 62.9478 29.5513 62.7987 29.6997ZM36.4185 33.004C35.1785 33.7888 34.1558 34.4378 34.1459 34.4462C34.1359 34.4547 34.7334 35.4089 35.4735 36.5667C36.3912 38.0025 36.8556 38.6579 36.934 38.628C37.0841 38.5707 41.1608 35.9983 41.2987 35.8739C41.3817 35.7991 41.1263 35.3436 40.1041 33.7432C39.3891 32.6236 38.7746 31.6784 38.7385 31.6425C38.7026 31.6066 37.6585 32.2193 36.4185 33.004ZM54.1637 31.704C52.1055 32.1638 50.3209 33.4592 49.0556 35.4116C48.5871 36.1348 48.5573 36.2531 48.7745 36.5281C49.0833 36.919 49.3211 36.8083 49.8535 36.0257C50.107 35.653 50.4773 35.157 50.6764 34.9233C51.526 33.9261 53.0275 32.9837 54.2055 32.7081C55.3509 32.4403 56.9213 32.5853 58.2549 33.0822C58.8175 33.2918 59.1018 33.2281 59.1915 32.8724C59.2813 32.5158 59.059 32.3029 58.3366 32.0537C56.9922 31.5898 55.3069 31.4486 54.1637 31.704ZM29.8333 31.9474C28.7501 32.3324 28.2629 33.5501 28.7849 34.5679C29.0154 35.0171 29.6023 35.452 30.0883 35.5337C30.3944 35.5852 30.5159 35.5221 32.5799 34.2401C34.9577 32.7631 34.835 32.844 34.7818 32.791C34.7214 32.7308 30.5291 31.8282 30.3289 31.8322C30.229 31.8342 30.006 31.886 29.8333 31.9474ZM29.9799 37.0752C26.5637 39.2428 26.2814 39.4656 26.0926 40.1426C25.8713 40.936 25.9888 41.2721 27.0892 42.9927C27.7021 43.9511 27.9748 44.3107 28.0547 44.2656C28.1161 44.231 29.9192 43.0966 32.0618 41.7446C34.4187 40.2573 35.9432 39.2456 35.9214 39.1832C35.8842 39.0764 33.2832 34.9913 33.2578 34.9997C33.2499 35.0022 31.7749 35.9363 29.9799 37.0752ZM44.5248 36.5698C44.1991 36.7728 44.0801 36.9804 44.0801 37.3459C44.0801 38.1511 45.1016 38.5194 45.6232 37.9022C46.2608 37.1478 45.3569 36.0512 44.5248 36.5698ZM56.146 36.5815C55.9268 36.7847 55.9277 36.7647 56.0974 37.685L56.2323 38.4168L55.6788 38.9218C55.3744 39.1996 55.1034 39.5135 55.0767 39.6196C54.9632 40.0699 55.2863 40.2589 56.3713 40.3772L56.9052 40.4353L57.2262 41.1272C57.7627 42.2835 58.1112 42.294 58.6775 41.171L59.0493 40.4339L59.5772 40.3765C60.6094 40.2641 60.9 40.1128 60.9 39.6878C60.9 39.6046 60.6321 39.2863 60.3048 38.9803L59.7095 38.4241L59.8426 37.6502C59.9591 36.972 59.9606 36.8535 59.8542 36.6919C59.6376 36.3627 59.445 36.3759 58.6767 36.7731L57.9571 37.1451L57.2738 36.7797C56.8979 36.5788 56.5316 36.4137 56.4598 36.413C56.3879 36.4122 56.2467 36.4881 56.146 36.5815ZM50.8583 37.7074C49.5581 37.9846 47.7633 39.2019 47.2683 40.1421C47.1138 40.4355 47.311 40.779 47.6531 40.8121C47.8681 40.8328 47.9647 40.7846 48.1546 40.5621C48.8553 39.7405 49.5982 39.2007 50.5071 38.8528C51.2144 38.5821 52.5456 38.5015 53.6038 38.6654C54.3052 38.7741 54.3147 38.7732 54.4684 38.5842C54.9832 37.9512 54.1708 37.5717 52.3296 37.5848C51.8195 37.5884 51.1574 37.6436 50.8583 37.7074ZM64.2054 38.0082C63.8999 38.1755 63.7489 38.4408 63.747 38.8137C63.7423 39.728 64.9875 40.0083 65.409 39.1877C65.7905 38.4447 64.9366 37.6078 64.2054 38.0082ZM45.8638 40.7C45.585 40.8207 45.3353 41.1961 45.3353 41.4946C45.3353 41.9362 45.8123 42.4112 46.2558 42.4112C46.6679 42.4112 47.1763 41.9049 47.1763 41.4946C47.1763 41.2452 46.8898 40.8302 46.6342 40.7094C46.2997 40.5513 46.2095 40.5502 45.8638 40.7ZM30.8781 50.7705L30.9004 57.6318L31.1536 58.0396C31.3105 58.2922 31.5628 58.5434 31.8164 58.6997L32.2258 58.9518L34.9736 58.9759L37.7213 59L37.6999 51.4764L37.6785 43.9528L34.2671 43.931L30.8557 43.9093L30.8781 50.7705ZM38.7246 51.4511V58.9935H41.4028H44.0811L44.0596 51.4731L44.0383 43.9528L41.3814 43.9308L38.7246 43.9088V51.4511ZM45.0843 51.4516V58.9935H48.4846C50.8231 58.9935 51.9861 58.9633 52.2091 58.8968C52.6287 58.7716 53.158 58.317 53.3925 57.8805L53.5779 57.5353V50.744V43.9528L49.3311 43.9312L45.0843 43.9096V51.4516Z" fill="white"/>
</g>
<defs>
<filter id="filter0_d_1277_54358" x="0" y="0" width="104" height="104" filterUnits="userSpaceOnUse" color-interpolation-filters="sRGB">
<feFlood flood-opacity="0" result="BackgroundImageFix"/>
<feColorMatrix in="SourceAlpha" type="matrix" values="0 0 0 0 0 0 0 0 0 0 0 0 0 0 0 0 0 0 127 0" result="hardAlpha"/>
<feOffset dx="6" dy="13"/>
<feGaussianBlur stdDeviation="10"/>
<feComposite in2="hardAlpha" operator="out"/>
<feColorMatrix type="matrix" values="0 0 0 0 0.027451 0 0 0 0 0.027451 0 0 0 0 0.027451 0 0 0 0.1 0"/>
<feBlend mode="normal" in2="BackgroundImageFix" result="effect1_dropShadow_1277_54358"/>
<feBlend mode="normal" in="SourceGraphic" in2="effect1_dropShadow_1277_54358" result="shape"/>
</filter>
<linearGradient id="paint0_linear_1277_54358" x1="14" y1="7" x2="14" y2="71" gradientUnits="userSpaceOnUse">
<stop stop-color="#4776E6"/>
<stop offset="1" stop-color="#8E54E9"/>
</linearGradient>
</defs>
</svg>
