<svg width="80" height="81" viewBox="0 0 80 81" fill="none" xmlns="http://www.w3.org/2000/svg">
<g filter="url(#filter0_d_126_46592)">
<path d="M14 27.5C14 16.4543 22.9543 7.5 34 7.5C45.0457 7.5 54 16.4543 54 27.5V41.9828C54 45.0298 51.5298 47.5 48.4828 47.5H34C22.9543 47.5 14 38.5457 14 27.5Z" fill="url(#paint0_linear_126_46592)"/>
<path fill-rule="evenodd" clip-rule="evenodd" d="M33.0513 15.0143C32.2145 15.1098 31.8497 15.1661 31.3297 15.2798C26.6329 16.3073 22.9798 19.8709 21.8348 24.542C21.5653 25.6413 21.5 26.2192 21.5 27.5051C21.5 29.0931 21.6844 30.2196 22.1736 31.6206C23.7217 36.0539 27.4912 39.1593 32.2272 39.903C33.051 40.0323 34.9298 40.0323 35.7536 39.903C41.3438 39.0252 45.5102 34.8572 46.3889 29.2638C46.5176 28.4447 46.5173 26.5634 46.3882 25.7419C45.9666 23.0567 44.8286 20.7282 42.9953 18.7993C42.5405 18.3208 41.6085 17.5476 40.9778 17.1256C39.3809 16.057 37.7396 15.4217 35.7797 15.1133C35.2945 15.037 33.4414 14.9697 33.0513 15.0143ZM35.2003 16.731C37.1561 16.9599 38.9605 17.6752 40.5056 18.8345C41.0003 19.2057 41.9325 20.1012 42.3625 20.6183C43.4374 21.9108 44.2608 23.6234 44.6047 25.2815C45.6142 30.1496 43.2157 35.0595 38.764 37.2377C34.5782 39.2859 29.5645 38.4442 26.293 35.1441C22.0852 30.8997 22.1042 24.0293 26.3354 19.8247C28.6806 17.4941 31.9551 16.3514 35.2003 16.731ZM38.7744 20.7042C38.1055 20.8994 31.3506 23.3682 31.1318 23.4974C30.7559 23.7194 30.2047 24.2706 29.9827 24.6465C29.884 24.8137 29.2462 26.5066 28.4997 28.5832L27.1899 32.2265L27.186 32.67C27.1827 33.0539 27.2016 33.1531 27.3272 33.4088C27.4943 33.7491 27.7953 34.0422 28.1409 34.2014C28.3296 34.2882 28.4785 34.3116 28.8255 34.309L29.269 34.3057L32.9098 32.9974C35.0107 32.2425 36.6757 31.6153 36.8464 31.5144C37.2247 31.291 37.7756 30.7406 37.9981 30.3637C38.0968 30.1965 38.7346 28.5037 39.4811 26.4271L40.7909 22.7837L40.7948 22.3402C40.7981 21.9563 40.7792 21.8571 40.6536 21.6015C40.3781 21.0404 39.8734 20.717 39.2335 20.6914C39.0327 20.6834 38.8261 20.6892 38.7744 20.7042ZM34.6947 25.9964C35.0245 26.1528 35.3387 26.4653 35.5036 26.8008C35.6096 27.0162 35.6318 27.139 35.6315 27.5051C35.631 27.9093 35.6154 27.9777 35.4541 28.2773C35.2571 28.6435 35.0932 28.8018 34.7003 29.0054C34.4745 29.1224 34.3662 29.1437 33.9904 29.1451C33.6229 29.1464 33.5023 29.1247 33.2861 29.0184C31.9299 28.3515 32.0429 26.4377 33.4689 25.9195C33.7982 25.7999 34.3541 25.8347 34.6947 25.9964Z" fill="white"/>
</g>
<defs>
<filter id="filter0_d_126_46592" x="0" y="0.5" width="80" height="80" filterUnits="userSpaceOnUse" color-interpolation-filters="sRGB">
<feFlood flood-opacity="0" result="BackgroundImageFix"/>
<feColorMatrix in="SourceAlpha" type="matrix" values="0 0 0 0 0 0 0 0 0 0 0 0 0 0 0 0 0 0 127 0" result="hardAlpha"/>
<feOffset dx="6" dy="13"/>
<feGaussianBlur stdDeviation="10"/>
<feComposite in2="hardAlpha" operator="out"/>
<feColorMatrix type="matrix" values="0 0 0 0 0.027451 0 0 0 0 0.027451 0 0 0 0 0.027451 0 0 0 0.1 0"/>
<feBlend mode="normal" in2="BackgroundImageFix" result="effect1_dropShadow_126_46592"/>
<feBlend mode="normal" in="SourceGraphic" in2="effect1_dropShadow_126_46592" result="shape"/>
</filter>
<linearGradient id="paint0_linear_126_46592" x1="14" y1="7.5" x2="14" y2="47.5" gradientUnits="userSpaceOnUse">
<stop stop-color="#FF9966"/>
<stop offset="1" stop-color="#FF5E62"/>
</linearGradient>
</defs>
</svg>
