<svg width="80" height="60" viewBox="0 0 80 60" fill="none" xmlns="http://www.w3.org/2000/svg">
<g filter="url(#filter0_d_126_46296)">
<path d="M14 27.5C14 16.4543 22.9543 7.5 34 7.5C45.0457 7.5 54 16.4543 54 27.5V41.9828C54 45.0298 51.5298 47.5 48.4828 47.5H34C22.9543 47.5 14 38.5457 14 27.5Z" fill="url(#paint0_linear_126_46296)"/>
<path fill-rule="evenodd" clip-rule="evenodd" d="M30.9281 15.0537C30.3766 15.1089 29.6003 15.2644 28.989 15.4419C25.6769 16.4039 22.8978 19.1831 21.9379 22.4932C21.2151 24.9856 21.3883 27.488 22.4482 29.8656L22.7023 30.4355L22.2683 33.0371C22.0296 34.468 21.8429 35.6473 21.8534 35.6578C21.8638 35.6683 22.9964 35.4893 24.3701 35.26C25.7438 35.0307 26.8865 34.8431 26.9093 34.8431C26.9321 34.8431 27.084 35.0466 27.247 35.2953C28.8735 37.7775 31.4289 39.4097 34.4717 39.9097C35.1361 40.0189 36.7424 40.0318 37.4043 39.9333C38.4397 39.7792 39.4193 39.4942 40.3692 39.0708L40.9391 38.8167L43.5408 39.2507C44.9717 39.4894 46.151 39.6761 46.1614 39.6657C46.1719 39.6552 45.9851 38.4759 45.7464 37.045L45.3124 34.4434L45.5665 33.8735C45.9901 32.9233 46.2752 31.9431 46.4289 30.9085C46.5259 30.2562 46.5135 28.6932 46.4059 28.0004C45.9311 24.9435 44.3014 22.4095 41.7055 20.6919C41.1814 20.3451 41.159 20.3227 40.8193 19.806C40.3622 19.1106 40.0665 18.7435 39.4914 18.1572C37.2362 15.8587 34.1302 14.733 30.9281 15.0537ZM33.3964 16.5832C35.2875 16.8758 37.0078 17.7541 38.3824 19.1286C39.5719 20.3181 40.3684 21.7238 40.7714 23.3451C40.9552 24.0839 41.0175 24.6318 41.0175 25.5076C41.0175 26.3835 40.9552 26.9314 40.7714 27.6702C40.3684 29.2915 39.5719 30.6972 38.3824 31.8867C35.6092 34.6599 31.453 35.3285 27.9222 33.5694L27.3357 33.2771L25.4908 33.5878C24.476 33.7588 23.6383 33.8911 23.6292 33.8819C23.62 33.8727 23.7523 33.035 23.9232 32.0203L24.2339 30.1754L23.9417 29.5889C22.8141 27.3255 22.6636 24.7754 23.5184 22.414C23.964 21.183 24.6675 20.0855 25.6244 19.1286C26.8136 17.9394 28.2164 17.1445 29.8408 16.7392C30.2533 16.6363 30.5815 16.5835 31.368 16.4935C31.6795 16.4579 32.9493 16.514 33.3964 16.5832ZM28.7677 21.7408C27.9802 21.9925 27.306 22.6693 27.0636 23.4513C26.9948 23.673 26.9636 23.9105 26.9627 24.2175C26.9613 24.724 27.0129 24.9557 27.2279 25.4086C27.3646 25.6965 27.605 25.9542 29.6914 28.0492L32.0034 30.3709L34.3154 28.0492C36.4018 25.9542 36.6422 25.6965 36.7789 25.4086C36.9939 24.9557 37.0455 24.724 37.0441 24.2175C37.0415 23.2935 36.6322 22.5479 35.8438 22.0305C35.4317 21.7602 35.0252 21.6464 34.4717 21.6464C33.6622 21.6464 33.1456 21.8789 32.4366 22.5624L32.0034 22.98L31.5702 22.5624C30.8536 21.8716 30.3431 21.6444 29.5178 21.649C29.2025 21.6508 28.954 21.6812 28.7677 21.7408Z" fill="white"/>
</g>
<defs>
<filter id="filter0_d_126_46296" x="0" y="0.5" width="80" height="80" filterUnits="userSpaceOnUse" color-interpolation-filters="sRGB">
<feFlood flood-opacity="0" result="BackgroundImageFix"/>
<feColorMatrix in="SourceAlpha" type="matrix" values="0 0 0 0 0 0 0 0 0 0 0 0 0 0 0 0 0 0 127 0" result="hardAlpha"/>
<feOffset dx="6" dy="13"/>
<feGaussianBlur stdDeviation="10"/>
<feComposite in2="hardAlpha" operator="out"/>
<feColorMatrix type="matrix" values="0 0 0 0 0.027451 0 0 0 0 0.027451 0 0 0 0 0.027451 0 0 0 0.1 0"/>
<feBlend mode="normal" in2="BackgroundImageFix" result="effect1_dropShadow_126_46296"/>
<feBlend mode="normal" in="SourceGraphic" in2="effect1_dropShadow_126_46296" result="shape"/>
</filter>
<linearGradient id="paint0_linear_126_46296" x1="14" y1="7.5" x2="14" y2="47.5" gradientUnits="userSpaceOnUse">
<stop stop-color="#F2994A"/>
<stop offset="1" stop-color="#F2C94C"/>
</linearGradient>
</defs>
</svg>
