<svg width="30" height="30" viewBox="0 0 30 30" fill="none" xmlns="http://www.w3.org/2000/svg">
<rect width="30" height="30" rx="15" fill="#283754" fill-opacity="0.6"/>
<path d="M11.8741 22C12.1627 22 12.4003 21.9096 12.7058 21.7514L22.1938 16.8625C22.7793 16.5537 23 16.3503 23 16.0038C23 15.6573 22.7793 15.4463 22.1938 15.145L12.7058 10.2486C12.4003 10.0979 12.1627 10 11.8741 10C11.3395 10 11 10.3616 11 10.9341V21.0734C11 21.6384 11.3395 22 11.8741 22ZM12.2051 20.8475C12.1542 20.8475 12.1117 20.8098 12.1117 20.7345V11.2655C12.1117 11.1902 12.1542 11.1601 12.2051 11.1601C12.256 11.1601 12.29 11.1751 12.3324 11.1977L21.4554 15.8908C21.5064 15.9134 21.5573 15.951 21.5573 16.0038C21.5573 16.0565 21.5064 16.0866 21.4554 16.1168L12.3324 20.8098C12.29 20.8324 12.256 20.8475 12.2051 20.8475Z" fill="white"/>
</svg>
