<svg width="18" height="18" viewBox="0 0 18 18" fill="none" xmlns="http://www.w3.org/2000/svg">
<g clip-path="url(#clip0_2898_21490)">
<path d="M14.7616 9.79886V4.42217C14.7616 2.57678 13.2694 1.08081 11.4287 1.08081H4.03597C2.1953 1.08078 0.703125 2.57678 0.703125 4.42217V9.98708C0.703125 11.8325 2.1953 13.3284 4.03597 13.3284H5.429V14.2427C5.429 14.9319 6.17164 15.364 6.76849 15.0221L9.72475 13.3284" stroke="#475A88" stroke-width="1.5" stroke-miterlimit="10" stroke-linecap="round" stroke-linejoin="round"/>
<path d="M6.38135 5.61628C6.38135 5.54393 6.38637 5.47274 6.39608 5.40302C6.5012 4.64948 7.15524 4.07187 7.94091 4.08772C8.73573 4.10375 9.39413 4.74064 9.43534 5.53493C9.481 6.41517 8.78027 7.14512 7.90938 7.14512V8.10534" stroke="#475A88" stroke-width="1.5" stroke-miterlimit="10" stroke-linecap="round" stroke-linejoin="round"/>
<path d="M16.3414 11.0212C15.6612 10.1656 14.6064 9.62056 13.4367 9.63811C11.4422 9.66802 9.83656 11.3035 9.85365 13.3101C9.87028 15.2628 11.4471 16.8687 13.3982 16.918C14.0979 16.9357 14.7543 16.7557 15.3157 16.4298L16.4353 16.6705C16.9599 16.7832 17.4156 16.2965 17.2689 15.7801L16.9222 14.5594" stroke="#475A88" stroke-width="1.5" stroke-miterlimit="10" stroke-linecap="round" stroke-linejoin="round"/>
</g>
<defs>
<clipPath id="clip0_2898_21490">
<rect width="18" height="18" fill="white"/>
</clipPath>
</defs>
</svg>
