<svg width="25" height="24" viewBox="0 0 25 24" fill="none" xmlns="http://www.w3.org/2000/svg">
<g clip-path="url(#clip0_2085_85804)">
<path d="M12.5 2C6.97999 2 2.5 6.47999 2.5 12C2.5 17.52 6.97999 22 12.5 22C18.02 22 22.5 17.52 22.5 12C22.5 6.47999 18.02 2 12.5 2ZM12.5 20C8.07999 20 4.5 16.42 4.5 12C4.5 7.57999 8.07999 4 12.5 4C16.92 4 20.5 7.57999 20.5 12C20.5 16.42 16.92 20 12.5 20Z" fill="#595ADF"/>
<path d="M12.5 17C15.2614 17 17.5 14.7614 17.5 12C17.5 9.23858 15.2614 7 12.5 7C9.73858 7 7.5 9.23858 7.5 12C7.5 14.7614 9.73858 17 12.5 17Z" fill="#595ADF"/>
</g>
<defs>
<clipPath id="clip0_2085_85804">
<rect width="24" height="24" fill="white" transform="translate(0.5)"/>
</clipPath>
</defs>
</svg>
