<svg width="25" height="27" viewBox="0 0 25 27" fill="none" xmlns="http://www.w3.org/2000/svg">
<g filter="url(#filter0_ii_2075_173012)">
<rect x="0.666504" width="24" height="24" rx="12" fill="#8D7CF6"/>
</g>
<g filter="url(#filter1_dii_2075_173012)">
<path fill-rule="evenodd" clip-rule="evenodd" d="M11.2209 13.85C11.1831 13.8664 11.0637 13.9668 10.9555 14.0731L10.3288 14.6964L10.2111 14.6511C10.0488 14.5887 9.70256 14.573 9.5199 14.6198C9.21976 14.6967 9.17875 14.7281 8.49874 15.4029C7.83223 16.0642 7.76226 16.1502 7.6823 16.4063C7.4704 17.0851 7.89329 17.8038 8.59131 17.9513C8.77669 17.9905 9.01004 17.9786 9.19621 17.9205C9.45233 17.8405 9.53833 17.7705 10.1996 17.1039C10.8742 16.4238 10.9057 16.3828 10.9825 16.0826C11.0293 15.8999 11.0136 15.5536 10.9512 15.3913L10.9059 15.2736L11.5293 14.6467C11.6356 14.5385 11.7364 14.417 11.7531 14.3768C11.8142 14.2307 11.7726 14.0289 11.66 13.9254C11.5488 13.8231 11.3581 13.7904 11.2209 13.85Z" fill="url(#paint0_linear_2075_173012)"/>
<path fill-rule="evenodd" clip-rule="evenodd" d="M14.4613 6.91964C13.5322 7.0248 12.6318 7.49602 12.0187 8.19791C10.9913 9.37411 10.7776 11.0156 11.4701 12.4105C12.2497 13.9808 13.9796 14.8156 15.6917 14.4476C16.4271 14.2895 17.16 13.8771 17.6568 13.3416C19.0539 11.8358 19.0539 9.59641 17.6568 8.09064C17.16 7.55514 16.4271 7.14269 15.6917 6.98465C15.2989 6.90021 14.8449 6.87625 14.4613 6.91964ZM14.2223 8.70152C14.2951 8.677 14.4288 8.64303 14.5194 8.62599C14.61 8.60895 14.7612 8.59766 14.8555 8.60092C15.0573 8.60788 15.1523 8.65453 15.2426 8.79097C15.29 8.86263 15.2995 8.90056 15.2995 9.01804C15.2995 9.13553 15.29 9.17345 15.2426 9.24512C15.1546 9.37812 15.0661 9.42145 14.8382 9.44306C14.4781 9.47723 14.2221 9.59032 13.9919 9.81697C13.7663 10.0391 13.6473 10.3064 13.613 10.6683C13.5914 10.8962 13.548 10.9847 13.415 11.0727C13.3434 11.1201 13.3054 11.1296 13.1879 11.1296C13.0705 11.1296 13.0325 11.1201 12.9609 11.0727C12.9136 11.0414 12.8522 10.9793 12.8245 10.9348C12.7794 10.8623 12.7743 10.8303 12.7759 10.6309C12.7826 9.78089 13.3791 8.98519 14.2223 8.70152Z" fill="url(#paint1_linear_2075_173012)"/>
</g>
<defs>
<filter id="filter0_ii_2075_173012" x="0.666504" y="-12" width="24" height="48" filterUnits="userSpaceOnUse" color-interpolation-filters="sRGB">
<feFlood flood-opacity="0" result="BackgroundImageFix"/>
<feBlend mode="normal" in="SourceGraphic" in2="BackgroundImageFix" result="shape"/>
<feColorMatrix in="SourceAlpha" type="matrix" values="0 0 0 0 0 0 0 0 0 0 0 0 0 0 0 0 0 0 127 0" result="hardAlpha"/>
<feOffset dy="12"/>
<feGaussianBlur stdDeviation="11"/>
<feComposite in2="hardAlpha" operator="arithmetic" k2="-1" k3="1"/>
<feColorMatrix type="matrix" values="0 0 0 0 1 0 0 0 0 1 0 0 0 0 1 0 0 0 0.5 0"/>
<feBlend mode="normal" in2="shape" result="effect1_innerShadow_2075_173012"/>
<feColorMatrix in="SourceAlpha" type="matrix" values="0 0 0 0 0 0 0 0 0 0 0 0 0 0 0 0 0 0 127 0" result="hardAlpha"/>
<feOffset dy="-12"/>
<feGaussianBlur stdDeviation="6"/>
<feComposite in2="hardAlpha" operator="arithmetic" k2="-1" k3="1"/>
<feColorMatrix type="matrix" values="0 0 0 0 0.432564 0 0 0 0 0.436588 0 0 0 0 0.975798 0 0 0 1 0"/>
<feBlend mode="normal" in2="effect1_innerShadow_2075_173012" result="effect2_innerShadow_2075_173012"/>
</filter>
<filter id="filter1_dii_2075_173012" x="1.62744" y="3.89844" width="23.0771" height="23.0742" filterUnits="userSpaceOnUse" color-interpolation-filters="sRGB">
<feFlood flood-opacity="0" result="BackgroundImageFix"/>
<feColorMatrix in="SourceAlpha" type="matrix" values="0 0 0 0 0 0 0 0 0 0 0 0 0 0 0 0 0 0 127 0" result="hardAlpha"/>
<feOffset dy="3"/>
<feGaussianBlur stdDeviation="3"/>
<feColorMatrix type="matrix" values="0 0 0 0 0.281824 0 0 0 0 0.360673 0 0 0 0 0.786458 0 0 0 1 0"/>
<feBlend mode="normal" in2="BackgroundImageFix" result="effect1_dropShadow_2075_173012"/>
<feBlend mode="normal" in="SourceGraphic" in2="effect1_dropShadow_2075_173012" result="shape"/>
<feColorMatrix in="SourceAlpha" type="matrix" values="0 0 0 0 0 0 0 0 0 0 0 0 0 0 0 0 0 0 127 0" result="hardAlpha"/>
<feOffset dy="-2"/>
<feGaussianBlur stdDeviation="1"/>
<feComposite in2="hardAlpha" operator="arithmetic" k2="-1" k3="1"/>
<feColorMatrix type="matrix" values="0 0 0 0 0.333333 0 0 0 0 0.380392 0 0 0 0 0.858824 0 0 0 0.382594 0"/>
<feBlend mode="normal" in2="shape" result="effect2_innerShadow_2075_173012"/>
<feColorMatrix in="SourceAlpha" type="matrix" values="0 0 0 0 0 0 0 0 0 0 0 0 0 0 0 0 0 0 127 0" result="hardAlpha"/>
<feOffset/>
<feGaussianBlur stdDeviation="1"/>
<feComposite in2="hardAlpha" operator="arithmetic" k2="-1" k3="1"/>
<feColorMatrix type="matrix" values="0 0 0 0 1 0 0 0 0 1 0 0 0 0 1 0 0 0 1 0"/>
<feBlend mode="normal" in2="effect2_innerShadow_2075_173012" result="effect3_innerShadow_2075_173012"/>
</filter>
<linearGradient id="paint0_linear_2075_173012" x1="7.62744" y1="13.8203" x2="7.62744" y2="17.9742" gradientUnits="userSpaceOnUse">
<stop stop-color="#FDFDFF"/>
<stop offset="1" stop-color="#D9ECFF"/>
</linearGradient>
<linearGradient id="paint1_linear_2075_173012" x1="11.0679" y1="6.89844" x2="11.0679" y2="14.5338" gradientUnits="userSpaceOnUse">
<stop stop-color="#FDFDFF"/>
<stop offset="1" stop-color="#D9ECFF"/>
</linearGradient>
</defs>
</svg>
