<svg width="56" height="57" viewBox="0 0 56 57" fill="none" xmlns="http://www.w3.org/2000/svg">
<circle cx="28" cy="28.5" r="27.5" fill="url(#paint0_linear_2080_81833)" stroke="#A5A6F6"/>
<path fill-rule="evenodd" clip-rule="evenodd" d="M30.8202 16.6562C28.7669 16.8886 26.777 17.9299 25.4222 19.481C23.1519 22.0803 22.6795 25.7078 24.2099 28.7904C25.9328 32.2605 29.7556 34.1051 33.5392 33.2919C35.1643 32.9427 36.7838 32.0312 37.8817 30.8478C40.9691 27.5203 40.9691 22.5715 37.8817 19.244C36.7838 18.0606 35.1643 17.1491 33.5392 16.7999C32.6711 16.6133 31.6679 16.5603 30.8202 16.6562ZM33.0806 18.62C34.3895 18.8952 35.4038 19.4504 36.3787 20.4253C36.9836 21.0302 37.2783 21.4325 37.6336 22.1382C38.1048 23.0741 38.2967 23.9157 38.2967 25.0459C38.2967 26.1761 38.1048 27.0177 37.6336 27.9536C37.2783 28.6593 36.9836 29.0616 36.3787 29.6665C35.3987 30.6465 34.3993 31.1917 33.0566 31.4787C32.4129 31.6163 31.1867 31.6278 30.5639 31.5021C29.6631 31.3203 28.8164 30.9701 28.0532 30.4637C27.6046 30.1661 26.6408 29.2042 26.3498 28.7637C25.8334 27.9819 25.5281 27.2635 25.3255 26.3535C25.1693 25.6516 25.1693 24.4402 25.3255 23.7383C25.6128 22.4475 26.1398 21.4483 27.016 20.5332C27.5033 20.0243 27.9329 19.683 28.4987 19.3553C29.1981 18.9501 30.1031 18.6428 30.9235 18.5319C31.438 18.4623 32.5459 18.5076 33.0806 18.62ZM30.9487 20.4277C30.7485 20.4653 30.453 20.5404 30.2921 20.5946C28.4286 21.2215 27.1104 22.9799 27.0957 24.8583C27.0922 25.2988 27.1035 25.3696 27.2031 25.5298C27.2643 25.6282 27.3999 25.7654 27.5045 25.8346C27.6629 25.9394 27.7467 25.9604 28.0063 25.9604C28.2659 25.9604 28.3497 25.9394 28.5081 25.8346C28.802 25.6401 28.8978 25.4445 28.9455 24.9409C29.0214 24.1411 29.2843 23.5504 29.7828 23.0596C30.2917 22.5587 30.8574 22.3088 31.6532 22.2333C32.1567 22.1856 32.3523 22.0898 32.5468 21.7959C32.6516 21.6375 32.6726 21.5537 32.6726 21.2941C32.6726 21.0344 32.6516 20.9506 32.5468 20.7923C32.3473 20.4908 32.1373 20.3877 31.6914 20.3723C31.4831 20.3651 31.1488 20.39 30.9487 20.4277ZM24.5552 31.013C24.4673 31.0511 24.1895 31.2846 23.9378 31.5319L22.4803 32.9814L22.2066 32.8761C21.8292 32.7309 21.0237 32.6944 20.5989 32.8032C19.9008 32.982 19.8054 33.0552 18.2238 34.6243C16.6736 36.1623 16.5108 36.3623 16.3248 36.958C15.832 38.5364 16.8156 40.2079 18.4391 40.551C18.8703 40.6421 19.413 40.6144 19.846 40.4792C20.4417 40.2932 20.6418 40.1304 22.1797 38.5802C23.7488 36.9986 23.822 36.9032 24.0008 36.2051C24.1097 35.7803 24.0731 34.9749 23.9279 34.5974L23.8227 34.3237L25.2724 32.8659C25.5198 32.6141 25.7541 32.3317 25.7932 32.2383C25.9352 31.8983 25.8384 31.4291 25.5765 31.1884C25.3179 30.9506 24.8744 30.8744 24.5552 31.013ZM21.7455 34.7176C22.1739 34.9411 22.3362 35.5553 22.0808 35.9867C22.0165 36.0953 21.4083 36.7361 20.7291 37.4107C19.6406 38.492 19.4694 38.6439 19.2837 38.6935C18.5386 38.8926 17.9115 38.2654 18.1105 37.5203C18.1601 37.3346 18.3117 37.1639 19.3933 36.0758C20.0679 35.3972 20.6919 34.7971 20.7801 34.7423C21.0651 34.5652 21.4351 34.5557 21.7455 34.7176Z" fill="white"/>
<defs>
<linearGradient id="paint0_linear_2080_81833" x1="56" y1="56.5" x2="-0.900222" y2="55.5699" gradientUnits="userSpaceOnUse">
<stop stop-color="#B83AF3"/>
<stop offset="0.98" stop-color="#5E50FB"/>
</linearGradient>
</defs>
</svg>
