<svg width="42" height="42" viewBox="0 0 42 42" fill="none" xmlns="http://www.w3.org/2000/svg">
<path fill-rule="evenodd" clip-rule="evenodd" d="M32.6272 9.04822C35.7528 12.1738 37.5088 16.4131 37.5088 20.8333C37.5088 25.2536 35.7528 29.4928 32.6272 32.6184C29.5016 35.7441 25.2624 37.5 20.8421 37.5C16.4218 37.5 12.1826 35.7441 9.05701 32.6184C5.9314 29.4928 4.17546 25.2536 4.17546 20.8333C4.17546 16.4131 5.9314 12.1738 9.05701 9.04822C12.1826 5.92261 16.4218 4.16667 20.8421 4.16667C25.2624 4.16667 29.5016 5.92261 32.6272 9.04822ZM35.5735 35.5647C39.4805 31.6577 41.6755 26.3587 41.6755 20.8333C41.6755 18.0975 41.1366 15.3884 40.0896 12.8608C39.0426 10.3331 37.5081 8.0365 35.5735 6.10194C33.639 4.16739 31.3423 2.63282 28.8147 1.58584C26.2871 0.53887 23.578 0 20.8421 0C15.3168 0 10.0177 2.19493 6.11073 6.10194C2.20372 10.009 0.00878906 15.308 0.00878906 20.8333C0.00878906 26.3587 2.20372 31.6577 6.11073 35.5647C8.04529 37.4993 10.3419 39.0339 12.8695 40.0808C15.3972 41.1278 18.1062 41.6667 20.8421 41.6667C26.3675 41.6667 31.6665 39.4717 35.5735 35.5647ZM12.113 27.9583C13.988 30.2083 17.1963 31.7292 20.8421 31.7292C24.488 31.7292 27.6963 30.2083 29.5713 27.9583L26.613 25C25.6755 26.5 23.4463 27.5625 20.8421 27.5625C18.238 27.5625 16.0088 26.5 15.0713 25L12.113 27.9583Z" fill="#283754"/>
</svg>
