<svg width="42" height="43" viewBox="0 0 42 43" fill="none" xmlns="http://www.w3.org/2000/svg">
<path fill-rule="evenodd" clip-rule="evenodd" d="M32.6272 9.83338C35.7528 12.959 37.5088 17.1982 37.5088 21.6185C37.5088 26.0388 35.7528 30.278 32.6272 33.4036C29.5016 36.5292 25.2624 38.2852 20.8421 38.2852C16.4218 38.2852 12.1826 36.5292 9.05701 33.4036C5.9314 30.278 4.17546 26.0388 4.17546 21.6185C4.17546 17.1982 5.9314 12.959 9.05701 9.83338C12.1826 6.70777 16.4218 4.95182 20.8421 4.95182C25.2624 4.95182 29.5016 6.70777 32.6272 9.83338ZM35.5735 36.3499C39.4805 32.4429 41.6755 27.1438 41.6755 21.6185C41.6755 18.8826 41.1366 16.1735 40.0896 13.6459C39.0426 11.1183 37.5081 8.82165 35.5735 6.8871C33.639 4.95254 31.3423 3.41797 28.8147 2.371C26.2871 1.32403 23.578 0.785156 20.8421 0.785156C15.3168 0.785156 10.0177 2.98009 6.11073 6.8871C2.20372 10.7941 0.00878906 16.0931 0.00878906 21.6185C0.00878906 27.1438 2.20372 32.4429 6.11073 36.3499C8.04529 38.2844 10.3419 39.819 12.8695 40.866C15.3972 41.913 18.1062 42.4518 20.8421 42.4518C26.3675 42.4518 31.6665 40.2569 35.5735 36.3499ZM12.113 28.7435C13.988 30.9935 17.1963 32.5143 20.8421 32.5143C24.488 32.5143 27.6963 30.9935 29.5713 28.7435L26.613 25.7852C25.6755 27.2852 23.4463 28.3477 20.8421 28.3477C18.238 28.3477 16.0088 27.2852 15.0713 25.7852L12.113 28.7435Z" fill="#283754"/>
</svg>
