<svg width="42" height="43" viewBox="0 0 42 43" fill="none" xmlns="http://www.w3.org/2000/svg">
<path fill-rule="evenodd" clip-rule="evenodd" d="M32.6184 9.83338C35.7441 12.959 37.5 17.1982 37.5 21.6185C37.5 26.0388 35.7441 30.278 32.6184 33.4036C29.4928 36.5292 25.2536 38.2852 20.8333 38.2852C16.4131 38.2852 12.1738 36.5292 9.04822 33.4036C5.92261 30.278 4.16667 26.0388 4.16667 21.6185C4.16667 17.1982 5.92261 12.959 9.04822 9.83338C12.1738 6.70777 16.4131 4.95182 20.8333 4.95182C25.2536 4.95182 29.4928 6.70777 32.6184 9.83338ZM35.5647 36.3499C39.4717 32.4429 41.6667 27.1438 41.6667 21.6185C41.6667 18.8826 41.1278 16.1735 40.0808 13.6459C39.0339 11.1183 37.4993 8.82165 35.5647 6.8871C33.6302 4.95254 31.3335 3.41797 28.8059 2.371C26.2783 1.32403 23.5692 0.785156 20.8333 0.785156C15.308 0.785156 10.009 2.98009 6.10194 6.8871C2.19493 10.7941 0 16.0931 0 21.6185C0 27.1438 2.19493 32.4429 6.10194 36.3499C8.0365 38.2844 10.3331 39.819 12.8608 40.866C15.3884 41.913 18.0975 42.4518 20.8333 42.4518C26.3587 42.4518 31.6577 40.2569 35.5647 36.3499ZM12.1042 28.7435C13.9792 30.9935 17.1875 32.5143 20.8333 32.5143C24.4792 32.5143 27.6875 30.9935 29.5625 28.7435L26.6042 25.7852C25.6667 27.2852 23.4375 28.3477 20.8333 28.3477C18.2292 28.3477 16 27.2852 15.0625 25.7852L12.1042 28.7435Z" fill="#283754"/>
</svg>
