<svg width="24" height="25" viewBox="0 0 24 25" fill="none" xmlns="http://www.w3.org/2000/svg">
<path d="M17 21.8203L14.25 18.8203L15.41 17.6603L17 19.2503L20.59 15.6603L21.75 17.0703M12.8 21.8203H5C3.89 21.8203 3 20.9303 3 19.8203V5.82031C3 4.71031 3.89 3.82031 5 3.82031H19C20.11 3.82031 21 4.71031 21 5.82031V13.6203C20.39 13.2703 19.72 13.0203 19 12.9003V5.82031H5V19.8203H12.08C12.2 20.5403 12.45 21.2103 12.8 21.8203ZM12 17.8203H7V15.8203H12M14.68 13.8203H7V11.8203H17V12.9003C16.15 13.0403 15.37 13.3603 14.68 13.8203ZM17 9.82031H7V7.82031H17" fill="#475A88"/>
</svg>
