<svg width="25" height="25" viewBox="0 0 25 25" fill="none" xmlns="http://www.w3.org/2000/svg">
<path d="M17.5 21.3203L14.75 18.3203L15.91 17.1603L17.5 18.7503L21.09 15.1603L22.25 16.5703M13.3 21.3203H5.5C4.39 21.3203 3.5 20.4303 3.5 19.3203V5.32031C3.5 4.21031 4.39 3.32031 5.5 3.32031H19.5C20.61 3.32031 21.5 4.21031 21.5 5.32031V13.1203C20.89 12.7703 20.22 12.5203 19.5 12.4003V5.32031H5.5V19.3203H12.58C12.7 20.0403 12.95 20.7103 13.3 21.3203ZM12.5 17.3203H7.5V15.3203H12.5M15.18 13.3203H7.5V11.3203H17.5V12.4003C16.65 12.5403 15.87 12.8603 15.18 13.3203ZM17.5 9.32031H7.5V7.32031H17.5" fill="#475A88"/>
</svg>
