<svg width="24" height="25" viewBox="0 0 24 25" fill="none" xmlns="http://www.w3.org/2000/svg">
<g clip-path="url(#clip0_2939_120593)">
<path d="M14.72 9.11422L10.43 13.4142L8.78 11.7642C8.69036 11.6595 8.58004 11.5745 8.45597 11.5145C8.33191 11.4545 8.19678 11.4207 8.05906 11.4154C7.92134 11.4101 7.78401 11.4333 7.65568 11.4836C7.52736 11.5339 7.41081 11.6101 7.31335 11.7076C7.2159 11.805 7.13964 11.9216 7.08937 12.0499C7.03909 12.1782 7.01589 12.3156 7.02121 12.4533C7.02653 12.591 7.06026 12.7261 7.12028 12.8502C7.1803 12.9743 7.26532 13.0846 7.37 13.1742L9.72 15.5342C9.81344 15.6269 9.92426 15.7002 10.0461 15.75C10.1679 15.7998 10.2984 15.825 10.43 15.8242C10.6923 15.8231 10.9437 15.719 11.13 15.5342L16.13 10.5342C16.2237 10.4413 16.2981 10.3307 16.3489 10.2088C16.3997 10.0869 16.4258 9.95623 16.4258 9.82422C16.4258 9.69221 16.3997 9.5615 16.3489 9.43964C16.2981 9.31778 16.2237 9.20718 16.13 9.11422C15.9426 8.92797 15.6892 8.82343 15.425 8.82343C15.1608 8.82343 14.9074 8.92797 14.72 9.11422ZM12 2.32422C10.0222 2.32422 8.08879 2.91071 6.4443 4.00952C4.79981 5.10834 3.51809 6.67012 2.76121 8.49738C2.00433 10.3246 1.8063 12.3353 2.19215 14.2751C2.578 16.2149 3.53041 17.9968 4.92894 19.3953C6.32746 20.7938 8.10929 21.7462 10.0491 22.1321C11.9889 22.5179 13.9996 22.3199 15.8268 21.563C17.6541 20.8061 19.2159 19.5244 20.3147 17.8799C21.4135 16.2354 22 14.302 22 12.3242C22 11.011 21.7413 9.71064 21.2388 8.49738C20.7363 7.28413 19.9997 6.18174 19.0711 5.25315C18.1425 4.32457 17.0401 3.58797 15.8268 3.08542C14.6136 2.58288 13.3132 2.32422 12 2.32422ZM12 20.3242C10.4178 20.3242 8.87104 19.855 7.55544 18.976C6.23985 18.0969 5.21447 16.8475 4.60897 15.3857C4.00347 13.9239 3.84504 12.3153 4.15372 10.7635C4.4624 9.21165 5.22433 7.78618 6.34315 6.66736C7.46197 5.54854 8.88743 4.78662 10.4393 4.47794C11.9911 4.16926 13.5997 4.32768 15.0615 4.93318C16.5233 5.53868 17.7727 6.56406 18.6518 7.87966C19.5308 9.19525 20 10.742 20 12.3242C20 14.446 19.1572 16.4808 17.6569 17.9811C16.1566 19.4814 14.1217 20.3242 12 20.3242Z" fill="#00C853"/>
</g>
<defs>
<clipPath id="clip0_2939_120593">
<rect width="24" height="24" fill="white" transform="translate(0 0.324219)"/>
</clipPath>
</defs>
</svg>
