<svg width="17" height="16" viewBox="0 0 17 16" fill="none" xmlns="http://www.w3.org/2000/svg">
<g clip-path="url(#clip0_2521_118610)">
<path d="M16.5 3.039C15.905 3.3 15.271 3.473 14.61 3.557C15.29 3.151 15.809 2.513 16.053 1.744C15.419 2.122 14.719 2.389 13.973 2.538C13.371 1.897 12.513 1.5 11.577 1.5C9.761 1.5 8.299 2.974 8.299 4.781C8.299 5.041 8.321 5.291 8.375 5.529C5.648 5.396 3.235 4.089 1.614 2.098C1.331 2.589 1.165 3.151 1.165 3.756C1.165 4.892 1.75 5.899 2.622 6.482C2.095 6.472 1.578 6.319 1.14 6.078C1.14 6.088 1.14 6.101 1.14 6.114C1.14 7.708 2.277 9.032 3.768 9.337C3.501 9.41 3.21 9.445 2.908 9.445C2.698 9.445 2.486 9.433 2.287 9.389C2.712 10.688 3.918 11.643 5.352 11.674C4.236 12.547 2.819 13.073 1.285 13.073C1.016 13.073 0.758 13.061 0.5 13.028C1.953 13.965 3.675 14.5 5.532 14.5C11.568 14.5 14.868 9.5 14.868 5.166C14.868 5.021 14.863 4.881 14.856 4.742C15.507 4.28 16.054 3.703 16.5 3.039Z" fill="white"/>
</g>
<defs>
<clipPath id="clip0_2521_118610">
<rect width="16" height="16" fill="white" transform="translate(0.5)"/>
</clipPath>
</defs>
</svg>
