<svg width="11" height="11" viewBox="0 0 11 11" fill="none" xmlns="http://www.w3.org/2000/svg">
<path d="M10.7674 4.38717C10.7017 4.1838 10.5213 4.03936 10.3079 4.02012L7.40902 3.7569L6.26273 1.07391C6.17821 0.87728 5.98572 0.75 5.77185 0.75C5.55798 0.75 5.36549 0.87728 5.28097 1.07437L4.13468 3.7569L1.23536 4.02012C1.02234 4.03982 0.842413 4.1838 0.776282 4.38717C0.710152 4.59054 0.771225 4.81361 0.932375 4.95422L3.12357 6.87591L2.47744 9.72213C2.43016 9.9314 2.51138 10.1477 2.68502 10.2732C2.77836 10.3407 2.88755 10.375 2.99767 10.375C3.09261 10.375 3.18679 10.3494 3.27131 10.2988L5.77185 8.80435L8.27147 10.2988C8.45438 10.4089 8.68496 10.3988 8.85821 10.2732C9.03193 10.1473 9.11308 9.93094 9.0658 9.72213L8.41967 6.87591L10.6109 4.95461C10.772 4.81361 10.8335 4.59093 10.7674 4.38717Z" fill="#FFC107"/>
</svg>
