<svg width="41" height="42" viewBox="0 0 41 42" fill="none" xmlns="http://www.w3.org/2000/svg">
<path d="M20.5 0.785156C17.8079 0.785156 15.1422 1.3154 12.655 2.34563C10.1678 3.37585 7.90791 4.88587 6.00431 6.78947C2.15982 10.634 0 15.8482 0 21.2852C0 26.7221 2.15982 31.9363 6.00431 35.7808C7.90791 37.6844 10.1678 39.1945 12.655 40.2247C15.1422 41.2549 17.8079 41.7852 20.5 41.7852C25.9369 41.7852 31.1512 39.6253 34.9957 35.7808C38.8402 31.9363 41 26.7221 41 21.2852C41 18.5931 40.4698 15.9273 39.4395 13.4401C38.4093 10.953 36.8993 8.69307 34.9957 6.78947C33.0921 4.88587 30.8322 3.37585 28.345 2.34563C25.8578 1.3154 23.1921 0.785156 20.5 0.785156ZM20.5 37.6852C16.1504 37.6852 11.979 35.9573 8.90345 32.8817C5.82785 29.8061 4.1 25.6347 4.1 21.2852C4.1 16.9356 5.82785 12.7642 8.90345 9.68861C11.979 6.61301 16.1504 4.88516 20.5 4.88516C24.8496 4.88516 29.021 6.61301 32.0966 9.68861C35.1721 12.7642 36.9 16.9356 36.9 21.2852C36.9 25.6347 35.1721 29.8061 32.0966 32.8817C29.021 35.9573 24.8496 37.6852 20.5 37.6852ZM13.325 19.2352C12.5095 19.2352 11.7273 18.9112 11.1506 18.3345C10.574 17.7578 10.25 16.9757 10.25 16.1602C10.25 15.3446 10.574 14.5625 11.1506 13.9858C11.7273 13.4091 12.5095 13.0852 13.325 13.0852C14.1405 13.0852 14.9227 13.4091 15.4994 13.9858C16.076 14.5625 16.4 15.3446 16.4 16.1602C16.4 16.9757 16.076 17.7578 15.4994 18.3345C14.9227 18.9112 14.1405 19.2352 13.325 19.2352ZM30.75 16.1602C30.75 16.9757 30.426 17.7578 29.8494 18.3345C29.2727 18.9112 28.4905 19.2352 27.675 19.2352C26.8595 19.2352 26.0773 18.9112 25.5006 18.3345C24.924 17.7578 24.6 16.9757 24.6 16.1602C24.6 15.3446 24.924 14.5625 25.5006 13.9858C26.0773 13.4091 26.8595 13.0852 27.675 13.0852C28.4905 13.0852 29.2727 13.4091 29.8494 13.9858C30.426 14.5625 30.75 15.3446 30.75 16.1602ZM28.7 25.3852V29.4852H12.3V25.3852H28.7Z" fill="#283754"/>
</svg>
