<svg width="33" height="32" viewBox="0 0 33 32" fill="none" xmlns="http://www.w3.org/2000/svg">
<path d="M29.3 16C29.3 12.6052 27.9514 9.3495 25.551 6.94903C23.1505 4.54857 19.8948 3.2 16.5 3.2C13.1052 3.2 9.8495 4.54857 7.44903 6.94903C5.04857 9.3495 3.7 12.6052 3.7 16C3.7 19.3948 5.04857 22.6505 7.44903 25.051C9.8495 27.4514 13.1052 28.8 16.5 28.8C19.8948 28.8 23.1505 27.4514 25.551 25.051C27.9514 22.6505 29.3 19.3948 29.3 16ZM32.5 16C32.5 20.2435 30.8143 24.3131 27.8137 27.3137C24.8131 30.3143 20.7435 32 16.5 32C14.3989 32 12.3183 31.5861 10.3771 30.7821C8.43586 29.978 6.67203 28.7994 5.18629 27.3137C2.18571 24.3131 0.5 20.2435 0.5 16C0.5 11.7565 2.18571 7.68687 5.18629 4.68629C8.18687 1.68571 12.2565 0 16.5 0C18.6012 0 20.6817 0.413852 22.6229 1.21793C24.5641 2.022 26.328 3.20055 27.8137 4.68629C29.2994 6.17203 30.478 7.93586 31.2821 9.87706C32.0861 11.8183 32.5 13.8989 32.5 16ZM13.3 12C13.3 13.28 12.18 14.4 10.9 14.4C9.62 14.4 8.5 13.28 8.5 12C8.5 10.72 9.62 9.6 10.9 9.6C12.18 9.6 13.3 10.72 13.3 12ZM24.5 12C24.5 13.28 23.38 14.4 22.1 14.4C20.82 14.4 19.7 13.28 19.7 12C19.7 10.72 20.82 9.6 22.1 9.6C23.38 9.6 24.5 10.72 24.5 12ZM16.5 24.368C13.7 24.368 11.236 23.2 9.796 21.472L12.068 19.2C12.788 20.352 14.5 21.168 16.5 21.168C18.5 21.168 20.212 20.352 20.932 19.2L23.204 21.472C21.764 23.2 19.3 24.368 16.5 24.368Z" fill="#283754"/>
</svg>
