<svg width="24" height="25" viewBox="0 0 24 25" fill="none" xmlns="http://www.w3.org/2000/svg">
<path d="M20.4368 13.7513C20.7645 13.6849 21 13.3966 21 13.0622V11.2693C21 9.7184 19.7384 8.45676 18.1875 8.45676H5.8125C5.60898 8.45676 5.41068 8.479 5.21938 8.5202C5.30933 8.47887 5.40477 8.44632 5.50502 8.4238L16.4995 5.96025C17.0703 5.83665 17.6555 6.13356 17.8911 6.66681C18.0481 7.02194 18.4633 7.18248 18.8184 7.02565C19.1737 6.86868 19.3343 6.45354 19.1774 6.0984C18.6727 4.95638 17.4198 4.32054 16.1987 4.58655C16.1973 4.58682 16.196 4.5871 16.1946 4.58751L5.19754 7.05161C4.57626 7.19086 4.015 7.54118 3.61702 8.03818C3.21918 8.53503 3 9.15947 3 9.79613V13.0624C3 13.3968 3.23552 13.6849 3.56319 13.7513C4.05167 13.8505 4.40625 14.2851 4.40625 14.7849C4.40625 15.2846 4.05167 15.7193 3.56319 15.8184C3.23552 15.8849 3 16.1731 3 16.5075V18.3005C3 19.8514 4.26164 21.113 5.8125 21.113H18.1875C19.7384 21.113 21 19.8514 21 18.3005V16.5075C21 16.1731 20.7645 15.8849 20.4368 15.8184C19.9483 15.7193 19.5938 15.2846 19.5938 14.7849C19.5938 14.2851 19.9483 13.8505 20.4368 13.7513ZM19.5938 12.5612C18.7533 12.9616 18.1875 13.8215 18.1875 14.7849C18.1875 15.7484 18.7533 16.6082 19.5938 17.0085V18.3005C19.5938 19.0759 18.9629 19.7068 18.1875 19.7068H16.4648C16.4648 19.3184 16.1501 19.0036 15.7617 19.0036C15.3734 19.0036 15.0586 19.3184 15.0586 19.7068H5.8125C5.03714 19.7068 4.40625 19.0759 4.40625 18.3005V17.0085C5.2467 16.6082 5.8125 15.7482 5.8125 14.7849C5.8125 13.8215 5.2467 12.9616 4.40625 12.5612V11.2693C4.40625 10.4939 5.03714 9.86301 5.8125 9.86301H15.0586C15.0586 10.2514 15.3734 10.5661 15.7617 10.5661C16.1501 10.5661 16.4648 10.2514 16.4648 9.86301H18.1875C18.9629 9.86301 19.5938 10.4939 19.5938 11.2693V12.5612ZM16.4648 12.3239C16.4648 12.7123 16.1501 13.0271 15.7617 13.0271C15.3734 13.0271 15.0586 12.7123 15.0586 12.3239C15.0586 11.9356 15.3734 11.6208 15.7617 11.6208C16.1501 11.6208 16.4648 11.9356 16.4648 12.3239ZM16.4648 14.7849C16.4648 15.1732 16.1501 15.488 15.7617 15.488C15.3734 15.488 15.0586 15.1732 15.0586 14.7849C15.0586 14.3965 15.3734 14.0818 15.7617 14.0818C16.1501 14.0818 16.4648 14.3965 16.4648 14.7849ZM16.4648 17.2458C16.4648 17.6342 16.1501 17.9489 15.7617 17.9489C15.3734 17.9489 15.0586 17.6342 15.0586 17.2458C15.0586 16.8575 15.3734 16.5427 15.7617 16.5427C16.1501 16.5427 16.4648 16.8575 16.4648 17.2458ZM12.9186 14.6642L11.9444 15.3643C11.7994 15.4685 11.7388 15.6532 11.7941 15.8217L12.1663 16.9545C12.29 17.3315 11.854 17.6449 11.5298 17.412L10.5556 16.7116C10.4831 16.6596 10.3978 16.6335 10.3125 16.6335C10.2272 16.6335 10.1419 16.6596 10.0694 16.7116L9.09521 17.412C8.77098 17.6449 8.33496 17.3315 8.45869 16.9545L8.83086 15.8217C8.8862 15.6531 8.82564 15.4685 8.68062 15.3643L7.70641 14.6642C7.38231 14.4313 7.54889 13.906 7.94948 13.906H9.15372C9.33293 13.906 9.49168 13.81 9.54703 13.6413L9.91919 12.5011C9.98112 12.3127 10.1467 12.2185 10.3125 12.2185C10.4783 12.2185 10.644 12.3127 10.7058 12.5011L11.078 13.6413C11.1333 13.8098 11.2922 13.906 11.4713 13.906H12.6755C13.0761 13.906 13.2427 14.4313 12.9186 14.6642Z" fill="#595ADF"/>
</svg>
