<svg width="41" height="42" viewBox="0 0 41 42" fill="none" xmlns="http://www.w3.org/2000/svg">
<path d="M36.9 21.2852C36.9 16.9356 35.1721 12.7642 32.0966 9.68861C29.021 6.61301 24.8496 4.88516 20.5 4.88516C16.1504 4.88516 11.979 6.61301 8.90345 9.68861C5.82785 12.7642 4.1 16.9356 4.1 21.2852C4.1 25.6347 5.82785 29.8061 8.90345 32.8817C11.979 35.9573 16.1504 37.6852 20.5 37.6852C24.8496 37.6852 29.021 35.9573 32.0966 32.8817C35.1721 29.8061 36.9 25.6347 36.9 21.2852ZM41 21.2852C41 26.7221 38.8402 31.9364 34.9957 35.7808C31.1512 39.6253 25.9369 41.7852 20.5 41.7852C17.8079 41.7852 15.1422 41.2549 12.655 40.2247C10.1678 39.1945 7.90791 37.6844 6.00431 35.7808C2.15982 31.9364 0 26.7221 0 21.2852C0 15.8482 2.15982 10.634 6.00431 6.78947C9.84881 2.94497 15.0631 0.785156 20.5 0.785156C23.1921 0.785156 25.8578 1.3154 28.345 2.34563C30.8322 3.37585 33.0921 4.88587 34.9957 6.78947C36.8993 8.69307 38.4093 10.953 39.4395 13.4401C40.4698 15.9273 41 18.5931 41 21.2852ZM27.675 13.0852C29.315 13.0852 30.75 14.5202 30.75 16.1602C30.75 17.8002 29.315 19.2352 27.675 19.2352C26.035 19.2352 24.6 17.8002 24.6 16.1602C24.6 14.5202 26.035 13.0852 27.675 13.0852ZM16.4 16.1602C16.4 17.8002 14.965 19.2352 13.325 19.2352C11.685 19.2352 10.25 17.8002 10.25 16.1602C10.25 14.5202 11.685 13.0852 13.325 13.0852C14.965 13.0852 16.4 14.5202 16.4 16.1602ZM20.5 25.3852C24.0875 25.3852 27.2445 26.8612 29.0895 29.0957L26.1785 32.0067C25.256 30.5102 23.0625 29.4852 20.5 29.4852C17.9375 29.4852 15.744 30.5102 14.8215 32.0067L11.9105 29.0957C13.7555 26.8612 16.9125 25.3852 20.5 25.3852Z" fill="#283754"/>
</svg>
