<svg width="34" height="34" viewBox="0 0 34 34" fill="none" xmlns="http://www.w3.org/2000/svg">
<path d="M30.5 16.6667C30.5 13.1304 29.0952 9.73906 26.5948 7.23858C24.0943 4.73809 20.7029 3.33333 17.1667 3.33333C13.6304 3.33333 10.2391 4.73809 7.73858 7.23858C5.23809 9.73906 3.83333 13.1304 3.83333 16.6667C3.83333 20.2029 5.23809 23.5943 7.73858 26.0948C10.2391 28.5952 13.6304 30 17.1667 30C20.7029 30 24.0943 28.5952 26.5948 26.0948C29.0952 23.5943 30.5 20.2029 30.5 16.6667ZM33.8333 16.6667C33.8333 21.0869 32.0774 25.3262 28.9518 28.4518C25.8262 31.5774 21.5869 33.3333 17.1667 33.3333C14.978 33.3333 12.8107 32.9022 10.7886 32.0647C8.76652 31.2271 6.9292 29.9994 5.38155 28.4518C2.25595 25.3262 0.5 21.0869 0.5 16.6667C0.5 12.2464 2.25595 8.00716 5.38155 4.88155C8.50716 1.75595 12.7464 0 17.1667 0C19.3554 0 21.5226 0.431096 23.5447 1.26867C25.5668 2.10625 27.4041 3.33391 28.9518 4.88155C30.4994 6.4292 31.7271 8.26652 32.5647 10.2886C33.4022 12.3107 33.8333 14.478 33.8333 16.6667ZM13.8333 12.5C13.8333 13.8333 12.6667 15 11.3333 15C10 15 8.83333 13.8333 8.83333 12.5C8.83333 11.1667 10 10 11.3333 10C12.6667 10 13.8333 11.1667 13.8333 12.5ZM25.5 12.5C25.5 13.8333 24.3333 15 23 15C21.6667 15 20.5 13.8333 20.5 12.5C20.5 11.1667 21.6667 10 23 10C24.3333 10 25.5 11.1667 25.5 12.5ZM17.1667 25.3833C14.25 25.3833 11.6833 24.1667 10.1833 22.3667L12.55 20C13.3 21.2 15.0833 22.05 17.1667 22.05C19.25 22.05 21.0333 21.2 21.7833 20L24.15 22.3667C22.65 24.1667 20.0833 25.3833 17.1667 25.3833Z" fill="#8D7CF6"/>
</svg>
