<svg width="34" height="34" viewBox="0 0 34 34" fill="none" xmlns="http://www.w3.org/2000/svg">
<path d="M16.6667 0.666672C14.478 0.666672 12.3107 1.09777 10.2886 1.93535C8.26652 2.77292 6.4292 4.00058 4.88155 5.54823C1.75595 8.67383 0 12.9131 0 17.3333C0 21.7536 1.75595 25.9928 4.88155 29.1185C6.4292 30.6661 8.26652 31.8938 10.2886 32.7313C12.3107 33.5689 14.478 34 16.6667 34C21.0869 34 25.3262 32.2441 28.4518 29.1185C31.5774 25.9928 33.3333 21.7536 33.3333 17.3333C33.3333 15.1446 32.9022 12.9774 32.0647 10.9553C31.2271 8.93319 29.9994 7.09587 28.4518 5.54823C26.9041 4.00058 25.0668 2.77292 23.0447 1.93535C21.0226 1.09777 18.8554 0.666672 16.6667 0.666672ZM16.6667 30.6667C13.1304 30.6667 9.73906 29.2619 7.23858 26.7614C4.73809 24.2609 3.33333 20.8696 3.33333 17.3333C3.33333 13.7971 4.73809 10.4057 7.23858 7.90525C9.73906 5.40476 13.1304 4.00001 16.6667 4.00001C20.2029 4.00001 23.5943 5.40476 26.0948 7.90525C28.5952 10.4057 30 13.7971 30 17.3333C30 20.8696 28.5952 24.2609 26.0948 26.7614C23.5943 29.2619 20.2029 30.6667 16.6667 30.6667ZM10.8333 15.6667C10.1703 15.6667 9.53441 15.4033 9.06557 14.9344C8.59672 14.4656 8.33333 13.8297 8.33333 13.1667C8.33333 12.5036 8.59672 11.8677 9.06557 11.3989C9.53441 10.9301 10.1703 10.6667 10.8333 10.6667C11.4964 10.6667 12.1323 10.9301 12.6011 11.3989C13.0699 11.8677 13.3333 12.5036 13.3333 13.1667C13.3333 13.8297 13.0699 14.4656 12.6011 14.9344C12.1323 15.4033 11.4964 15.6667 10.8333 15.6667ZM25 13.1667C25 13.8297 24.7366 14.4656 24.2678 14.9344C23.7989 15.4033 23.163 15.6667 22.5 15.6667C21.837 15.6667 21.2011 15.4033 20.7322 14.9344C20.2634 14.4656 20 13.8297 20 13.1667C20 12.5036 20.2634 11.8677 20.7322 11.3989C21.2011 10.9301 21.837 10.6667 22.5 10.6667C23.163 10.6667 23.7989 10.9301 24.2678 11.3989C24.7366 11.8677 25 12.5036 25 13.1667ZM23.3333 20.6667V24H10V20.6667H23.3333Z" fill="#283754"/>
</svg>
