<svg width="41" height="41" viewBox="0 0 41 41" fill="none" xmlns="http://www.w3.org/2000/svg">
<path d="M36.9 20.5C36.9 16.1504 35.1721 11.979 32.0966 8.90345C29.021 5.82785 24.8496 4.1 20.5 4.1C16.1504 4.1 11.979 5.82785 8.90345 8.90345C5.82785 11.979 4.1 16.1504 4.1 20.5C4.1 24.8496 5.82785 29.021 8.90345 32.0966C11.979 35.1721 16.1504 36.9 20.5 36.9C24.8496 36.9 29.021 35.1721 32.0966 32.0966C35.1721 29.021 36.9 24.8496 36.9 20.5ZM41 20.5C41 25.9369 38.8402 31.1512 34.9957 34.9957C31.1512 38.8402 25.9369 41 20.5 41C17.8079 41 15.1422 40.4698 12.655 39.4395C10.1678 38.4093 7.90791 36.8993 6.00431 34.9957C2.15982 31.1512 0 25.9369 0 20.5C0 15.0631 2.15982 9.84881 6.00431 6.00431C9.84881 2.15982 15.0631 0 20.5 0C23.1921 0 25.8578 0.530248 28.345 1.56047C30.8322 2.59069 33.0921 4.10071 34.9957 6.00431C36.8993 7.90791 38.4093 10.1678 39.4395 12.655C40.4698 15.1422 41 17.8079 41 20.5ZM27.675 12.3C29.315 12.3 30.75 13.735 30.75 15.375C30.75 17.015 29.315 18.45 27.675 18.45C26.035 18.45 24.6 17.015 24.6 15.375C24.6 13.735 26.035 12.3 27.675 12.3ZM16.4 15.375C16.4 17.015 14.965 18.45 13.325 18.45C11.685 18.45 10.25 17.015 10.25 15.375C10.25 13.735 11.685 12.3 13.325 12.3C14.965 12.3 16.4 13.735 16.4 15.375ZM20.5 24.6C24.0875 24.6 27.2445 26.076 29.0895 28.3105L26.1785 31.2215C25.256 29.725 23.0625 28.7 20.5 28.7C17.9375 28.7 15.744 29.725 14.8215 31.2215L11.9105 28.3105C13.7555 26.076 16.9125 24.6 20.5 24.6Z" fill="#283754"/>
</svg>
