<svg width="34" height="34" viewBox="0 0 34 34" fill="none" xmlns="http://www.w3.org/2000/svg">
<path d="M30 16.6667C30 13.1304 28.5952 9.73906 26.0948 7.23858C23.5943 4.73809 20.2029 3.33333 16.6667 3.33333C13.1304 3.33333 9.73906 4.73809 7.23858 7.23858C4.73809 9.73906 3.33333 13.1304 3.33333 16.6667C3.33333 20.2029 4.73809 23.5943 7.23858 26.0948C9.73906 28.5952 13.1304 30 16.6667 30C20.2029 30 23.5943 28.5952 26.0948 26.0948C28.5952 23.5943 30 20.2029 30 16.6667ZM33.3333 16.6667C33.3333 21.0869 31.5774 25.3262 28.4518 28.4518C25.3262 31.5774 21.0869 33.3333 16.6667 33.3333C14.478 33.3333 12.3107 32.9022 10.2886 32.0647C8.26652 31.2271 6.4292 29.9994 4.88155 28.4518C1.75595 25.3262 0 21.0869 0 16.6667C0 12.2464 1.75595 8.00716 4.88155 4.88155C8.00716 1.75595 12.2464 0 16.6667 0C18.8554 0 21.0226 0.431096 23.0447 1.26867C25.0668 2.10625 26.9041 3.33391 28.4518 4.88155C29.9994 6.4292 31.2271 8.26652 32.0647 10.2886C32.9022 12.3107 33.3333 14.478 33.3333 16.6667ZM13.3333 12.5C13.3333 13.8333 12.1667 15 10.8333 15C9.5 15 8.33333 13.8333 8.33333 12.5C8.33333 11.1667 9.5 10 10.8333 10C12.1667 10 13.3333 11.1667 13.3333 12.5ZM25 12.5C25 13.8333 23.8333 15 22.5 15C21.1667 15 20 13.8333 20 12.5C20 11.1667 21.1667 10 22.5 10C23.8333 10 25 11.1667 25 12.5ZM16.6667 25.3833C13.75 25.3833 11.1833 24.1667 9.68333 22.3667L12.05 20C12.8 21.2 14.5833 22.05 16.6667 22.05C18.75 22.05 20.5333 21.2 21.2833 20L23.65 22.3667C22.15 24.1667 19.5833 25.3833 16.6667 25.3833Z" fill="#283754"/>
</svg>
