<svg width="18" height="18" viewBox="0 0 18 18" fill="none" xmlns="http://www.w3.org/2000/svg">
<path d="M17.4368 9.93176C17.7645 9.8653 18 9.57704 18 9.24265V7.44968C18 5.89882 16.7384 4.63718 15.1875 4.63718H2.8125C2.60898 4.63718 2.41068 4.65942 2.21938 4.70062C2.30933 4.65929 2.40477 4.62674 2.50502 4.60422L13.4995 2.14067C14.0703 2.01707 14.6555 2.31398 14.8911 2.84723C15.0481 3.20236 15.4633 3.3629 15.8184 3.20607C16.1737 3.0491 16.3343 2.63396 16.1774 2.27882C15.6727 1.1368 14.4198 0.500962 13.1987 0.766968C13.1973 0.767243 13.196 0.767517 13.1946 0.767929L2.19754 3.23203C1.57626 3.37128 1.015 3.7216 0.61702 4.2186C0.219177 4.71545 0 5.33989 0 5.97655V9.24278C0 9.57718 0.235519 9.8653 0.563187 9.93176C1.05167 10.0309 1.40625 10.4656 1.40625 10.9653C1.40625 11.465 1.05167 11.8997 0.563187 11.9988C0.235519 12.0653 0 12.3536 0 12.688V14.4809C0 16.0318 1.26164 17.2934 2.8125 17.2934H15.1875C16.7384 17.2934 18 16.0318 18 14.4809V12.688C18 12.3536 17.7645 12.0653 17.4368 11.9988C16.9483 11.8997 16.5938 11.465 16.5938 10.9653C16.5938 10.4656 16.9483 10.0309 17.4368 9.93176ZM16.5938 8.74167C15.7533 9.14198 15.1875 10.0019 15.1875 10.9653C15.1875 11.9288 15.7533 12.7886 16.5938 13.1889V14.4809C16.5938 15.2563 15.9629 15.8872 15.1875 15.8872H13.4648C13.4648 15.4988 13.1501 15.1841 12.7617 15.1841C12.3734 15.1841 12.0586 15.4988 12.0586 15.8872H2.8125C2.03714 15.8872 1.40625 15.2563 1.40625 14.4809V13.1889C2.2467 12.7886 2.8125 11.9287 2.8125 10.9653C2.8125 10.0019 2.2467 9.14198 1.40625 8.74167V7.44968C1.40625 6.67432 2.03714 6.04343 2.8125 6.04343H12.0586C12.0586 6.43179 12.3734 6.74655 12.7617 6.74655C13.1501 6.74655 13.4648 6.43179 13.4648 6.04343H15.1875C15.9629 6.04343 16.5938 6.67432 16.5938 7.44968V8.74167ZM13.4648 8.50436C13.4648 8.89273 13.1501 9.20749 12.7617 9.20749C12.3734 9.20749 12.0586 8.89273 12.0586 8.50436C12.0586 8.116 12.3734 7.80124 12.7617 7.80124C13.1501 7.80124 13.4648 8.116 13.4648 8.50436ZM13.4648 10.9653C13.4648 11.3537 13.1501 11.6684 12.7617 11.6684C12.3734 11.6684 12.0586 11.3537 12.0586 10.9653C12.0586 10.5769 12.3734 10.2622 12.7617 10.2622C13.1501 10.2622 13.4648 10.5769 13.4648 10.9653ZM13.4648 13.4262C13.4648 13.8146 13.1501 14.1294 12.7617 14.1294C12.3734 14.1294 12.0586 13.8146 12.0586 13.4262C12.0586 13.0379 12.3734 12.7231 12.7617 12.7231C13.1501 12.7231 13.4648 13.0379 13.4648 13.4262ZM9.91859 10.8446L8.94438 11.5447C8.79936 11.6489 8.7388 11.8336 8.79414 12.0021L9.16631 13.135C9.29004 13.5119 8.85402 13.8253 8.52979 13.5924L7.55557 12.892C7.48306 12.84 7.39778 12.8139 7.3125 12.8139C7.22722 12.8139 7.14194 12.84 7.06943 12.892L6.09521 13.5924C5.77098 13.8253 5.33496 13.5119 5.45869 13.135L5.83086 12.0021C5.8862 11.8335 5.82564 11.6489 5.68062 11.5447L4.70641 10.8446C4.38231 10.6117 4.54889 10.0864 4.94948 10.0864H6.15372C6.33293 10.0864 6.49168 9.9904 6.54703 9.82176L6.91919 8.68152C6.98112 8.4931 7.14674 8.3989 7.3125 8.3989C7.47826 8.3989 7.64401 8.4931 7.70581 8.68152L8.07797 9.82176C8.13332 9.99027 8.29221 10.0864 8.47128 10.0864H9.67552C10.0761 10.0864 10.2427 10.6117 9.91859 10.8446Z" fill="#475A88"/>
</svg>
