<svg width="20" height="20" viewBox="0 0 20 20" fill="none" xmlns="http://www.w3.org/2000/svg">
<path fill-rule="evenodd" clip-rule="evenodd" d="M9.5104 0.92386C9.2853 1.38042 9.0674 1.78206 9.0262 1.8163C8.985 1.8506 8.5468 1.936 8.0524 2.00611C7.5581 2.0763 7.12097 2.16394 7.0812 2.20102C7.03633 2.24281 7.28315 2.54476 7.7324 2.99757L8.456 3.72671L8.2937 4.67757C8.2044 5.20057 8.1553 5.65225 8.1843 5.68139C8.2135 5.71045 8.6371 5.52761 9.1258 5.27502L10.0142 4.81585L10.8867 5.26858C11.3664 5.51757 11.7879 5.70349 11.8232 5.68169C11.8584 5.65989 11.8139 5.20476 11.724 4.6703L11.5608 3.69862L12.2599 3.00251C12.6443 2.61967 12.9588 2.27038 12.9588 2.22626C12.9588 2.18042 12.5515 2.09001 12.0067 2.01495C11.4831 1.94274 11.0196 1.85457 10.9768 1.81884C10.9339 1.78319 10.7147 1.38042 10.4896 0.92386C10.2645 0.46731 10.0442 0.09375 10 0.09375C9.9558 0.09375 9.7355 0.46731 9.5104 0.92386ZM7.19101 8.16075C6.88914 8.26855 6.89139 8.22495 6.89139 14.0264C6.89139 18.7348 6.90816 19.6386 6.99768 19.761C7.0997 19.9007 7.21955 19.9065 9.9824 19.9065C12.312 19.9065 12.8844 19.8868 12.9847 19.8037C13.098 19.7097 13.1086 19.2136 13.1086 14.0213V8.34195L12.9421 8.22535C12.7984 8.12465 12.4012 8.10955 10.0395 8.11465C8.5346 8.11785 7.25281 8.13865 7.19101 8.16075ZM0.29963 12.0559C0.00366992 12.1616 0 12.2093 0 15.9765C0 19.5865 0.00150004 19.6224 0.15768 19.7638C0.30689 19.8988 0.46779 19.9065 3.16052 19.9065H6.00577L6.14891 19.7297C6.28547 19.5611 6.29213 19.3858 6.29213 15.9622V12.3715L6.10824 12.1877L5.92442 12.0038L3.16816 12.0098C1.65228 12.0131 0.36142 12.0337 0.29963 12.0559ZM13.9139 14.7813C13.7933 14.8516 13.7828 15.0521 13.7828 17.2792C13.7828 19.4404 13.7961 19.7119 13.9067 19.8037C14.0069 19.8868 14.5793 19.9065 16.9089 19.9065C19.6718 19.9065 19.7916 19.9007 19.8937 19.761C19.9801 19.6428 20 19.1792 20 17.282C20 15.1163 19.9901 14.9395 19.863 14.8244C19.7405 14.7136 19.4255 14.7007 16.8855 14.7027C15.0959 14.7042 13.9965 14.7333 13.9139 14.7813Z" fill="url(#paint0_linear_2103_81632)"/>
<defs>
<linearGradient id="paint0_linear_2103_81632" x1="10" y1="0.09375" x2="10" y2="19.9065" gradientUnits="userSpaceOnUse">
<stop stop-color="#E2F1FF"/>
<stop offset="1" stop-color="#B9D3EB"/>
</linearGradient>
</defs>
</svg>
