<svg width="34" height="34" viewBox="0 0 34 34" fill="none" xmlns="http://www.w3.org/2000/svg">
<path d="M30.6 17C30.6 13.3931 29.1671 9.93384 26.6167 7.38335C24.0662 4.83285 20.6069 3.4 17 3.4C13.3931 3.4 9.93384 4.83285 7.38335 7.38335C4.83285 9.93384 3.4 13.3931 3.4 17C3.4 20.6069 4.83285 24.0662 7.38335 26.6167C9.93384 29.1671 13.3931 30.6 17 30.6C20.6069 30.6 24.0662 29.1671 26.6167 26.6167C29.1671 24.0662 30.6 20.6069 30.6 17ZM34 17C34 21.5087 32.2089 25.8327 29.0208 29.0208C25.8327 32.2089 21.5087 34 17 34C14.7675 34 12.5569 33.5603 10.4944 32.706C8.43185 31.8516 6.55778 30.5994 4.97918 29.0208C1.79107 25.8327 0 21.5087 0 17C0 12.4913 1.79107 8.1673 4.97918 4.97918C8.1673 1.79107 12.4913 0 17 0C19.2325 0 21.4431 0.439718 23.5056 1.29405C25.5682 2.14838 27.4422 3.40059 29.0208 4.97918C30.5994 6.55778 31.8516 8.43185 32.706 10.4944C33.5603 12.5569 34 14.7675 34 17ZM22.95 10.2C24.31 10.2 25.5 11.39 25.5 12.75C25.5 14.11 24.31 15.3 22.95 15.3C21.59 15.3 20.4 14.11 20.4 12.75C20.4 11.39 21.59 10.2 22.95 10.2ZM13.6 12.75C13.6 14.11 12.41 15.3 11.05 15.3C9.69 15.3 8.5 14.11 8.5 12.75C8.5 11.39 9.69 10.2 11.05 10.2C12.41 10.2 13.6 11.39 13.6 12.75ZM17 20.4C19.975 20.4 22.593 21.624 24.123 23.477L21.709 25.891C20.944 24.65 19.125 23.8 17 23.8C14.875 23.8 13.056 24.65 12.291 25.891L9.877 23.477C11.407 21.624 14.025 20.4 17 20.4Z" fill="#2D3556"/>
</svg>
