<svg width="41" height="41" viewBox="0 0 41 41" fill="none" xmlns="http://www.w3.org/2000/svg">
<path d="M20.5 0C17.8079 0 15.1422 0.530248 12.655 1.56047C10.1678 2.59069 7.90791 4.10071 6.00431 6.00431C2.15982 9.84881 0 15.0631 0 20.5C0 25.9369 2.15982 31.1512 6.00431 34.9957C7.90791 36.8993 10.1678 38.4093 12.655 39.4395C15.1422 40.4698 17.8079 41 20.5 41C25.9369 41 31.1512 38.8402 34.9957 34.9957C38.8402 31.1512 41 25.9369 41 20.5C41 17.8079 40.4698 15.1422 39.4395 12.655C38.4093 10.1678 36.8993 7.90791 34.9957 6.00431C33.0921 4.10071 30.8322 2.59069 28.345 1.56047C25.8578 0.530248 23.1921 0 20.5 0ZM20.5 36.9C16.1504 36.9 11.979 35.1721 8.90345 32.0966C5.82785 29.021 4.1 24.8496 4.1 20.5C4.1 16.1504 5.82785 11.979 8.90345 8.90345C11.979 5.82785 16.1504 4.1 20.5 4.1C24.8496 4.1 29.021 5.82785 32.0966 8.90345C35.1721 11.979 36.9 16.1504 36.9 20.5C36.9 24.8496 35.1721 29.021 32.0966 32.0966C29.021 35.1721 24.8496 36.9 20.5 36.9ZM13.325 18.45C12.5095 18.45 11.7273 18.126 11.1506 17.5494C10.574 16.9727 10.25 16.1905 10.25 15.375C10.25 14.5595 10.574 13.7773 11.1506 13.2006C11.7273 12.624 12.5095 12.3 13.325 12.3C14.1405 12.3 14.9227 12.624 15.4994 13.2006C16.076 13.7773 16.4 14.5595 16.4 15.375C16.4 16.1905 16.076 16.9727 15.4994 17.5494C14.9227 18.126 14.1405 18.45 13.325 18.45ZM30.75 15.375C30.75 16.1905 30.426 16.9727 29.8494 17.5494C29.2727 18.126 28.4905 18.45 27.675 18.45C26.8595 18.45 26.0773 18.126 25.5006 17.5494C24.924 16.9727 24.6 16.1905 24.6 15.375C24.6 14.5595 24.924 13.7773 25.5006 13.2006C26.0773 12.624 26.8595 12.3 27.675 12.3C28.4905 12.3 29.2727 12.624 29.8494 13.2006C30.426 13.7773 30.75 14.5595 30.75 15.375ZM28.7 24.6V28.7H12.3V24.6H28.7Z" fill="#283754"/>
</svg>
