<svg width="23" height="21" viewBox="0 0 23 21" fill="none" xmlns="http://www.w3.org/2000/svg">
<path d="M20.0978 2.67974C19.6168 2.14721 19.0457 1.72477 18.4172 1.43656C17.7886 1.14834 17.1149 1 16.4345 1C15.7541 1 15.0804 1.14834 14.4518 1.43656C13.8232 1.72477 13.2522 2.14721 12.7712 2.67974L11.7729 3.7844L10.7747 2.67974C9.80313 1.60458 8.48539 1.00056 7.11138 1.00056C5.73737 1.00056 4.41963 1.60458 3.44806 2.67974C2.47649 3.7549 1.93066 5.21313 1.93066 6.73364C1.93066 8.25415 2.47649 9.71238 3.44806 10.7875L4.44629 11.8922L11.7729 20L19.0996 11.8922L20.0978 10.7875C20.579 10.2553 20.9608 9.62328 21.2212 8.9277C21.4817 8.23212 21.6157 7.48657 21.6157 6.73364C21.6157 5.98071 21.4817 5.23516 21.2212 4.53958C20.9608 3.84399 20.579 3.21201 20.0978 2.67974Z" fill="white" stroke="white" stroke-width="2" stroke-linecap="round" stroke-linejoin="round"/>
</svg>
