<svg width="42" height="42" viewBox="0 0 42 42" fill="none" xmlns="http://www.w3.org/2000/svg">
<path d="M20.5088 0.785156C17.8167 0.785156 15.151 1.3154 12.6638 2.34563C10.1766 3.37585 7.9167 4.88587 6.0131 6.78947C2.1686 10.634 0.00878906 15.8482 0.00878906 21.2852C0.00878906 26.7221 2.1686 31.9363 6.0131 35.7808C7.9167 37.6844 10.1766 39.1945 12.6638 40.2247C15.151 41.2549 17.8167 41.7852 20.5088 41.7852C25.9457 41.7852 31.16 39.6253 35.0045 35.7808C38.849 31.9363 41.0088 26.7221 41.0088 21.2852C41.0088 18.5931 40.4785 15.9273 39.4483 13.4401C38.4181 10.953 36.9081 8.69307 35.0045 6.78947C33.1009 4.88587 30.841 3.37585 28.3538 2.34563C25.8666 1.3154 23.2009 0.785156 20.5088 0.785156ZM20.5088 37.6852C16.1592 37.6852 11.9878 35.9573 8.91224 32.8817C5.83664 29.8061 4.10879 25.6347 4.10879 21.2852C4.10879 16.9356 5.83664 12.7642 8.91224 9.68861C11.9878 6.61301 16.1592 4.88516 20.5088 4.88516C24.8583 4.88516 29.0297 6.61301 32.1053 9.68861C35.1809 12.7642 36.9088 16.9356 36.9088 21.2852C36.9088 25.6347 35.1809 29.8061 32.1053 32.8817C29.0297 35.9573 24.8583 37.6852 20.5088 37.6852ZM13.3338 19.2352C12.5182 19.2352 11.7361 18.9112 11.1594 18.3345C10.5828 17.7578 10.2588 16.9757 10.2588 16.1602C10.2588 15.3446 10.5828 14.5625 11.1594 13.9858C11.7361 13.4091 12.5182 13.0852 13.3338 13.0852C14.1493 13.0852 14.9315 13.4091 15.5081 13.9858C16.0848 14.5625 16.4088 15.3446 16.4088 16.1602C16.4088 16.9757 16.0848 17.7578 15.5081 18.3345C14.9315 18.9112 14.1493 19.2352 13.3338 19.2352ZM30.7588 16.1602C30.7588 16.9757 30.4348 17.7578 29.8581 18.3345C29.2815 18.9112 28.4993 19.2352 27.6838 19.2352C26.8682 19.2352 26.0861 18.9112 25.5094 18.3345C24.9328 17.7578 24.6088 16.9757 24.6088 16.1602C24.6088 15.3446 24.9328 14.5625 25.5094 13.9858C26.0861 13.4091 26.8682 13.0852 27.6838 13.0852C28.4993 13.0852 29.2815 13.4091 29.8581 13.9858C30.4348 14.5625 30.7588 15.3446 30.7588 16.1602ZM28.7088 25.3852V29.4852H12.3088V25.3852H28.7088Z" fill="#283754"/>
</svg>
