<svg width="35" height="34" viewBox="0 0 35 34" fill="none" xmlns="http://www.w3.org/2000/svg">
<path d="M31.1 17C31.1 13.3931 29.6671 9.93384 27.1167 7.38335C24.5662 4.83285 21.1069 3.4 17.5 3.4C13.8931 3.4 10.4338 4.83285 7.88335 7.38335C5.33285 9.93384 3.9 13.3931 3.9 17C3.9 20.6069 5.33285 24.0662 7.88335 26.6167C10.4338 29.1671 13.8931 30.6 17.5 30.6C21.1069 30.6 24.5662 29.1671 27.1167 26.6167C29.6671 24.0662 31.1 20.6069 31.1 17ZM34.5 17C34.5 21.5087 32.7089 25.8327 29.5208 29.0208C26.3327 32.2089 22.0087 34 17.5 34C15.2675 34 13.0569 33.5603 10.9944 32.706C8.93185 31.8516 7.05778 30.5994 5.47918 29.0208C2.29107 25.8327 0.5 21.5087 0.5 17C0.5 12.4913 2.29107 8.1673 5.47918 4.97918C8.6673 1.79107 12.9913 0 17.5 0C19.7325 0 21.9431 0.439718 24.0056 1.29405C26.0682 2.14838 27.9422 3.40059 29.5208 4.97918C31.0994 6.55778 32.3516 8.43185 33.206 10.4944C34.0603 12.5569 34.5 14.7675 34.5 17ZM23.45 10.2C24.81 10.2 26 11.39 26 12.75C26 14.11 24.81 15.3 23.45 15.3C22.09 15.3 20.9 14.11 20.9 12.75C20.9 11.39 22.09 10.2 23.45 10.2ZM14.1 12.75C14.1 14.11 12.91 15.3 11.55 15.3C10.19 15.3 9 14.11 9 12.75C9 11.39 10.19 10.2 11.55 10.2C12.91 10.2 14.1 11.39 14.1 12.75ZM17.5 20.4C20.475 20.4 23.093 21.624 24.623 23.477L22.209 25.891C21.444 24.65 19.625 23.8 17.5 23.8C15.375 23.8 13.556 24.65 12.791 25.891L10.377 23.477C11.907 21.624 14.525 20.4 17.5 20.4Z" fill="#8D7CF6"/>
</svg>
