<svg width="20" height="24" viewBox="0 0 20 24" fill="none" xmlns="http://www.w3.org/2000/svg">
<path d="M17.5958 24H7.9958C7.5158 24 7.1958 23.68 7.1958 23.2C7.1958 22 6.6358 21.28 5.7558 20.16C5.2758 19.6 4.7158 18.88 4.1558 18C2.6358 15.6 1.2758 12.72 0.955799 11.68C0.635799 10.64 0.875799 9.92 1.1958 9.52C1.5158 9.04 2.1558 8.8 2.8758 8.8C3.8358 8.8 4.7958 9.6 5.6758 10.64V2.4C5.6758 1.04 6.7158 0 8.0758 0C9.4358 0 10.4758 1.04 10.4758 2.4V5.76C10.7158 5.68 10.9558 5.6 11.2758 5.6C12.1558 5.6 12.8758 6.08 13.2758 6.72C13.5958 6.48 13.9958 6.4 14.3958 6.4C15.5158 6.4 16.3958 7.12 16.7158 8.16C16.9558 8.08 17.2758 8 17.5958 8C18.9558 8 19.9958 9.04 19.9958 10.4V12.8C19.9958 14.88 19.5958 16.56 19.1958 18.16C18.7958 19.76 18.3958 21.28 18.3958 23.2C18.3958 23.68 18.0758 24 17.5958 24ZM8.7158 22.4H16.7958C16.8758 20.64 17.2758 19.2 17.5958 17.76C17.9958 16.16 18.3958 14.64 18.3958 12.8V10.4C18.3958 9.92 18.0758 9.6 17.5958 9.6C17.1158 9.6 16.7958 9.92 16.7958 10.4V11.2C16.7958 11.68 16.4758 12 15.9958 12C15.5158 12 15.1958 11.68 15.1958 11.2V8.8C15.1958 8.32 14.8758 8 14.3958 8C13.9158 8 13.5958 8.32 13.5958 8.8V10.4C13.5958 10.88 13.2758 11.2 12.7958 11.2C12.3158 11.2 11.9958 10.88 11.9958 10.4V8C11.9958 7.52 11.6758 7.2 11.1958 7.2C10.7158 7.2 10.3958 7.52 10.3958 8V9.6C10.3958 10.08 10.0758 10.4 9.5958 10.4C9.1158 10.4 8.7958 10.08 8.7958 9.6V2.4C8.7958 1.92 8.4758 1.6 7.9958 1.6C7.5158 1.6 7.1958 1.92 7.1958 2.4V14.4C7.1958 14.88 6.8758 15.2 6.3958 15.2C5.9158 15.2 5.5958 14.88 5.5958 14.4V13.76C4.8758 11.92 3.3558 10.4 2.7958 10.4C2.6358 10.4 2.4758 10.4 2.3958 10.48C2.3158 10.56 2.3158 10.8 2.3958 11.2C2.6358 12.08 3.8358 14.64 5.4358 17.2C5.9158 18 6.3958 18.56 6.8758 19.2C7.7558 20.16 8.5558 21.04 8.7158 22.4V22.4Z" fill="black"/>
</svg>
