<svg width="34" height="34" viewBox="0 0 34 34" fill="none" xmlns="http://www.w3.org/2000/svg">
<path d="M16.6667 0.666748C14.478 0.666748 12.3107 1.09784 10.2886 1.93542C8.26652 2.773 6.4292 4.00066 4.88155 5.5483C1.75595 8.67391 0 12.9131 0 17.3334C0 21.7537 1.75595 25.9929 4.88155 29.1185C6.4292 30.6662 8.26652 31.8938 10.2886 32.7314C12.3107 33.569 14.478 34.0001 16.6667 34.0001C21.0869 34.0001 25.3262 32.2441 28.4518 29.1185C31.5774 25.9929 33.3333 21.7537 33.3333 17.3334C33.3333 15.1447 32.9022 12.9774 32.0647 10.9554C31.2271 8.93326 29.9994 7.09594 28.4518 5.5483C26.9041 4.00066 25.0668 2.773 23.0447 1.93542C21.0226 1.09784 18.8554 0.666748 16.6667 0.666748ZM16.6667 30.6667C13.1304 30.6667 9.73906 29.262 7.23858 26.7615C4.73809 24.261 3.33333 20.8696 3.33333 17.3334C3.33333 13.7972 4.73809 10.4058 7.23858 7.90532C9.73906 5.40484 13.1304 4.00008 16.6667 4.00008C20.2029 4.00008 23.5943 5.40484 26.0948 7.90532C28.5952 10.4058 30 13.7972 30 17.3334C30 20.8696 28.5952 24.261 26.0948 26.7615C23.5943 29.262 20.2029 30.6667 16.6667 30.6667ZM10.8333 15.6667C10.1703 15.6667 9.53441 15.4034 9.06557 14.9345C8.59672 14.4657 8.33333 13.8298 8.33333 13.1667C8.33333 12.5037 8.59672 11.8678 9.06557 11.399C9.53441 10.9301 10.1703 10.6667 10.8333 10.6667C11.4964 10.6667 12.1323 10.9301 12.6011 11.399C13.0699 11.8678 13.3333 12.5037 13.3333 13.1667C13.3333 13.8298 13.0699 14.4657 12.6011 14.9345C12.1323 15.4034 11.4964 15.6667 10.8333 15.6667ZM25 13.1667C25 13.8298 24.7366 14.4657 24.2678 14.9345C23.7989 15.4034 23.163 15.6667 22.5 15.6667C21.837 15.6667 21.2011 15.4034 20.7322 14.9345C20.2634 14.4657 20 13.8298 20 13.1667C20 12.5037 20.2634 11.8678 20.7322 11.399C21.2011 10.9301 21.837 10.6667 22.5 10.6667C23.163 10.6667 23.7989 10.9301 24.2678 11.399C24.7366 11.8678 25 12.5037 25 13.1667ZM23.3333 20.6667V24.0001H10V20.6667H23.3333Z" fill="#283754"/>
</svg>
