<svg width="32" height="32" viewBox="0 0 32 32" fill="none" xmlns="http://www.w3.org/2000/svg">
<path d="M28.8 16C28.8 12.6052 27.4514 9.3495 25.051 6.94903C22.6505 4.54857 19.3948 3.2 16 3.2C12.6052 3.2 9.3495 4.54857 6.94903 6.94903C4.54857 9.3495 3.2 12.6052 3.2 16C3.2 19.3948 4.54857 22.6505 6.94903 25.051C9.3495 27.4514 12.6052 28.8 16 28.8C19.3948 28.8 22.6505 27.4514 25.051 25.051C27.4514 22.6505 28.8 19.3948 28.8 16ZM32 16C32 20.2435 30.3143 24.3131 27.3137 27.3137C24.3131 30.3143 20.2435 32 16 32C13.8989 32 11.8183 31.5861 9.87706 30.7821C7.93586 29.978 6.17203 28.7994 4.68629 27.3137C1.68571 24.3131 0 20.2435 0 16C0 11.7565 1.68571 7.68687 4.68629 4.68629C7.68687 1.68571 11.7565 0 16 0C18.1012 0 20.1817 0.413852 22.1229 1.21793C24.0641 2.022 25.828 3.20055 27.3137 4.68629C28.7994 6.17203 29.978 7.93586 30.7821 9.87706C31.5861 11.8183 32 13.8989 32 16ZM12.8 12C12.8 13.28 11.68 14.4 10.4 14.4C9.12 14.4 8 13.28 8 12C8 10.72 9.12 9.6 10.4 9.6C11.68 9.6 12.8 10.72 12.8 12ZM24 12C24 13.28 22.88 14.4 21.6 14.4C20.32 14.4 19.2 13.28 19.2 12C19.2 10.72 20.32 9.6 21.6 9.6C22.88 9.6 24 10.72 24 12ZM16 24.368C13.2 24.368 10.736 23.2 9.296 21.472L11.568 19.2C12.288 20.352 14 21.168 16 21.168C18 21.168 19.712 20.352 20.432 19.2L22.704 21.472C21.264 23.2 18.8 24.368 16 24.368Z" fill="#283754"/>
</svg>
