<svg width="42" height="42" viewBox="0 0 42 42" fill="none" xmlns="http://www.w3.org/2000/svg">
<path d="M36.9088 21.2852C36.9088 16.9356 35.1809 12.7642 32.1053 9.68861C29.0297 6.61301 24.8583 4.88516 20.5088 4.88516C16.1592 4.88516 11.9878 6.61301 8.91224 9.68861C5.83664 12.7642 4.10879 16.9356 4.10879 21.2852C4.10879 25.6347 5.83664 29.8061 8.91224 32.8817C11.9878 35.9573 16.1592 37.6852 20.5088 37.6852C24.8583 37.6852 29.0297 35.9573 32.1053 32.8817C35.1809 29.8061 36.9088 25.6347 36.9088 21.2852ZM41.0088 21.2852C41.0088 26.7221 38.849 31.9364 35.0045 35.7808C31.16 39.6253 25.9457 41.7852 20.5088 41.7852C17.8167 41.7852 15.151 41.2549 12.6638 40.2247C10.1766 39.1945 7.9167 37.6844 6.0131 35.7808C2.1686 31.9364 0.00878906 26.7221 0.00878906 21.2852C0.00878906 15.8482 2.1686 10.634 6.0131 6.78947C9.8576 2.94497 15.0719 0.785156 20.5088 0.785156C23.2009 0.785156 25.8666 1.3154 28.3538 2.34563C30.841 3.37585 33.1009 4.88587 35.0045 6.78947C36.9081 8.69307 38.4181 10.953 39.4483 13.4401C40.4785 15.9273 41.0088 18.5931 41.0088 21.2852ZM27.6838 13.0852C29.3238 13.0852 30.7588 14.5202 30.7588 16.1602C30.7588 17.8002 29.3238 19.2352 27.6838 19.2352C26.0438 19.2352 24.6088 17.8002 24.6088 16.1602C24.6088 14.5202 26.0438 13.0852 27.6838 13.0852ZM16.4088 16.1602C16.4088 17.8002 14.9738 19.2352 13.3338 19.2352C11.6938 19.2352 10.2588 17.8002 10.2588 16.1602C10.2588 14.5202 11.6938 13.0852 13.3338 13.0852C14.9738 13.0852 16.4088 14.5202 16.4088 16.1602ZM20.5088 25.3852C24.0963 25.3852 27.2533 26.8612 29.0983 29.0957L26.1873 32.0067C25.2648 30.5102 23.0713 29.4852 20.5088 29.4852C17.9463 29.4852 15.7528 30.5102 14.8303 32.0067L11.9193 29.0957C13.7643 26.8612 16.9213 25.3852 20.5088 25.3852Z" fill="#283754"/>
</svg>
