<svg width="21" height="19" viewBox="0 0 21 19" fill="none" xmlns="http://www.w3.org/2000/svg">
<path d="M19.0988 1.67974C18.6178 1.14721 18.0467 0.724775 17.4181 0.43656C16.7896 0.148345 16.1158 0 15.4355 0C14.7551 0 14.0814 0.148345 13.4528 0.43656C12.8242 0.724775 12.2531 1.14721 11.7721 1.67974L10.7739 2.7844L9.77568 1.67974C8.8041 0.604577 7.48637 0.000557294 6.11236 0.000557305C4.73835 0.000557316 3.42061 0.604577 2.44904 1.67974C1.47746 2.7549 0.931641 4.21313 0.931641 5.73364C0.931641 7.25415 1.47746 8.71238 2.44904 9.78754L3.44727 10.8922L10.7739 19L18.1005 10.8922L19.0988 9.78754C19.58 9.25526 19.9617 8.62328 20.2222 7.9277C20.4826 7.23212 20.6167 6.48657 20.6167 5.73364C20.6167 4.98071 20.4826 4.23516 20.2222 3.53958C19.9617 2.84399 19.58 2.21201 19.0988 1.67974Z" fill="#FF3D00"/>
</svg>
