<svg width="24" height="24" viewBox="0 0 24 24" fill="none" xmlns="http://www.w3.org/2000/svg">
<path fill-rule="evenodd" clip-rule="evenodd" d="M11.5 20.2631H2.95C2.897 20.2631 2.846 20.2411 2.809 20.2041C2.771 20.1661 2.75 20.1161 2.75 20.0631C2.75 20.0621 2.75 18.6131 2.75 18.6131C2.75 17.7821 3.343 17.0501 4.257 16.4281C5.889 15.3141 8.53 14.6121 11.5 14.6121C11.914 14.6121 12.25 14.2761 12.25 13.8621C12.25 13.4491 11.914 13.1121 11.5 13.1121C8.178 13.1121 5.237 13.9431 3.411 15.1881C2.018 16.1381 1.25 17.3451 1.25 18.6121V20.0631C1.25 20.5131 1.429 20.9461 1.748 21.2651C2.067 21.5831 2.499 21.7631 2.95 21.7621C4.966 21.7631 11.5 21.7631 11.5 21.7631C11.914 21.7631 12.25 21.4261 12.25 21.0131C12.25 20.5991 11.914 20.2631 11.5 20.2631Z" fill="#475A88"/>
<path fill-rule="evenodd" clip-rule="evenodd" d="M11.5 1.25C8.464 1.25 6 3.714 6 6.75C6 9.786 8.464 12.25 11.5 12.25C14.536 12.25 17 9.786 17 6.75C17 3.714 14.536 1.25 11.5 1.25ZM11.5 2.75C13.708 2.75 15.5 4.542 15.5 6.75C15.5 8.958 13.708 10.75 11.5 10.75C9.292 10.75 7.5 8.958 7.5 6.75C7.5 4.542 9.292 2.75 11.5 2.75Z" fill="#475A88"/>
<g clip-path="url(#clip0_2898_21653)">
<path d="M14.8812 18.2557H14.3064V18.2511C14.3064 16.6499 15.5841 15.3026 17.2136 15.3101C18.008 15.3137 18.7377 15.6347 19.2578 16.1593L20.2064 15.2442C19.4405 14.4718 18.3823 13.9944 17.2136 13.9944C14.878 13.9944 12.9847 15.9015 12.9814 18.2551H12.3999C12.0436 18.2551 11.8979 18.4933 12.0761 18.785L13.3167 20.0149C13.5628 20.2609 13.7108 20.2685 13.9644 20.0149L15.2051 18.785C15.3833 18.4936 15.2372 18.2557 14.8812 18.2557ZM22.4239 17.7439L21.1832 16.5166C20.9302 16.2637 20.7737 16.2787 20.5358 16.5166L19.2952 17.7439C19.117 18.0349 19.2624 18.2731 19.6187 18.2731H20.1926C20.1835 19.8639 18.91 21.1994 17.2861 21.1918C16.492 21.1885 15.7626 20.8683 15.2419 20.3439L14.2933 21.2578C15.0594 22.0289 16.1176 22.5057 17.2861 22.5057C19.6145 22.5057 21.5025 20.6124 21.5176 18.2735H22.1001C22.4567 18.2731 22.6021 18.0346 22.4239 17.7439Z" fill="#475A88"/>
</g>
<defs>
<clipPath id="clip0_2898_21653">
<rect width="10.5" height="10.5" fill="white" transform="translate(12 13)"/>
</clipPath>
</defs>
</svg>
