<svg width="24" height="24" viewBox="0 0 24 24" fill="none" xmlns="http://www.w3.org/2000/svg">
<path fill-rule="evenodd" clip-rule="evenodd" d="M11.5 20.2633H2.95C2.897 20.2633 2.846 20.2413 2.809 20.2043C2.771 20.1663 2.75 20.1163 2.75 20.0633C2.75 20.0623 2.75 18.6133 2.75 18.6133C2.75 17.7823 3.343 17.0503 4.257 16.4283C5.889 15.3143 8.53 14.6123 11.5 14.6123C11.914 14.6123 12.25 14.2763 12.25 13.8623C12.25 13.4493 11.914 13.1123 11.5 13.1123C8.178 13.1123 5.237 13.9433 3.411 15.1883C2.018 16.1383 1.25 17.3453 1.25 18.6123V20.0633C1.25 20.5133 1.429 20.9463 1.748 21.2653C2.067 21.5833 2.499 21.7633 2.95 21.7623C4.966 21.7633 11.5 21.7633 11.5 21.7633C11.914 21.7633 12.25 21.4263 12.25 21.0133C12.25 20.5993 11.914 20.2633 11.5 20.2633Z" fill="#595ADF"/>
<path fill-rule="evenodd" clip-rule="evenodd" d="M11.5 1.25C8.464 1.25 6 3.714 6 6.75C6 9.786 8.464 12.25 11.5 12.25C14.536 12.25 17 9.786 17 6.75C17 3.714 14.536 1.25 11.5 1.25ZM11.5 2.75C13.708 2.75 15.5 4.542 15.5 6.75C15.5 8.958 13.708 10.75 11.5 10.75C9.292 10.75 7.5 8.958 7.5 6.75C7.5 4.542 9.292 2.75 11.5 2.75Z" fill="#595ADF"/>
<path fill-rule="evenodd" clip-rule="evenodd" d="M18.25 17.5V15C18.25 14.586 17.914 14.25 17.5 14.25C17.086 14.25 16.75 14.586 16.75 15V17.5C16.75 17.914 17.086 18.25 17.5 18.25C17.914 18.25 18.25 17.914 18.25 17.5Z" fill="#595ADF"/>
<path d="M17.5 20.75C18.0523 20.75 18.5 20.3023 18.5 19.75C18.5 19.1977 18.0523 18.75 17.5 18.75C16.9477 18.75 16.5 19.1977 16.5 19.75C16.5 20.3023 16.9477 20.75 17.5 20.75Z" fill="#595ADF"/>
<path fill-rule="evenodd" clip-rule="evenodd" d="M17.5 12.25C14.602 12.25 12.25 14.602 12.25 17.5C12.25 20.398 14.602 22.75 17.5 22.75C20.398 22.75 22.75 20.398 22.75 17.5C22.75 14.602 20.398 12.25 17.5 12.25ZM17.5 13.75C19.57 13.75 21.25 15.43 21.25 17.5C21.25 19.57 19.57 21.25 17.5 21.25C15.43 21.25 13.75 19.57 13.75 17.5C13.75 15.43 15.43 13.75 17.5 13.75Z" fill="#595ADF"/>
</svg>
