<svg width="22" height="20" viewBox="0 0 22 20" fill="none" xmlns="http://www.w3.org/2000/svg">
<path d="M21.9976 9.99948C22.0024 10.1042 21.9861 10.2088 21.9497 10.3071C21.9132 10.4054 21.8574 10.4953 21.7854 10.5716C21.7135 10.6478 21.6269 10.7088 21.5309 10.7509C21.4349 10.7929 21.3314 10.8153 21.2266 10.8165H2.65956L9.58456 18.4355C9.65669 18.5148 9.71248 18.6075 9.74875 18.7084C9.78502 18.8093 9.80106 18.9163 9.79595 19.0234C9.79084 19.1305 9.76469 19.2355 9.71898 19.3324C9.67327 19.4294 9.60891 19.5164 9.52956 19.5885C9.37726 19.7227 9.18156 19.7973 8.97857 19.7985C8.86538 19.7982 8.75351 19.7742 8.65017 19.7281C8.54682 19.6819 8.4543 19.6146 8.37856 19.5305L0.213564 10.5485C0.0761844 10.3983 0 10.2021 0 9.99848C0 9.79491 0.0761844 9.59871 0.213564 9.44849L8.37856 0.466485C8.45079 0.387101 8.53795 0.322718 8.63506 0.277017C8.73216 0.231316 8.83732 0.205189 8.94453 0.200128C9.05173 0.195067 9.15889 0.211172 9.25987 0.247522C9.36085 0.283872 9.45368 0.339754 9.53306 0.411981C9.61245 0.484208 9.67683 0.571365 9.72253 0.668474C9.76823 0.765582 9.79436 0.870739 9.79942 0.977945C9.80448 1.08515 9.78838 1.1923 9.75203 1.29328C9.71568 1.39426 9.65979 1.4871 9.58756 1.56648L2.66356 9.18348H21.2266C21.3313 9.18472 21.4347 9.20701 21.5306 9.24902C21.6266 9.29104 21.7131 9.35193 21.785 9.42806C21.857 9.50419 21.9129 9.594 21.9494 9.69217C21.9859 9.79034 22.0023 9.89485 21.9976 9.99948Z" fill="#283754"/>
</svg>
