<svg width="24" height="18" viewBox="0 0 24 18" fill="none" xmlns="http://www.w3.org/2000/svg">
<path d="M20.9997 0H2.99971C2.31784 0 1.6639 0.270873 1.18174 0.753029C0.699583 1.23518 0.428711 1.88913 0.428711 2.571L0.428711 15.429C0.428711 16.1109 0.699583 16.7648 1.18174 17.247C1.6639 17.7291 2.31784 18 2.99971 18H20.9997C21.6816 18 22.3355 17.7291 22.8177 17.247C23.2998 16.7648 23.5707 16.1109 23.5707 15.429V2.571C23.5702 1.88929 23.2991 1.23565 22.8171 0.753613C22.3351 0.271571 21.6814 0.000529689 20.9997 0V0ZM2.96371 9.643C2.96371 9.47247 3.03146 9.30892 3.15204 9.18833C3.27263 9.06775 3.43618 9 3.60671 9H7.46371C7.63424 9 7.79779 9.06775 7.91838 9.18833C8.03897 9.30892 8.10671 9.47247 8.10671 9.643V10.929C8.10671 11.0995 8.03897 11.2631 7.91838 11.3837C7.79779 11.5043 7.63424 11.572 7.46371 11.572H3.60671C3.43618 11.572 3.27263 11.5043 3.15204 11.3837C3.03146 11.2631 2.96371 11.0995 2.96371 10.929V9.643ZM6.85671 15.107C6.85645 15.1921 6.82254 15.2735 6.7624 15.3337C6.70226 15.3938 6.62076 15.4277 6.53571 15.428H3.32171C3.23666 15.4277 3.15516 15.3938 3.09502 15.3337C3.03488 15.2735 3.00097 15.1921 3.00071 15.107V14.464C3.00071 14.3789 3.03453 14.2972 3.09473 14.237C3.15493 14.1768 3.23658 14.143 3.32171 14.143H6.53571C6.62085 14.143 6.70249 14.1768 6.76269 14.237C6.82289 14.2972 6.85671 14.3789 6.85671 14.464V15.107ZM14.5707 15.107C14.5707 15.1921 14.5369 15.2738 14.4767 15.334C14.4165 15.3942 14.3348 15.428 14.2497 15.428H8.46471C8.37966 15.4277 8.29816 15.3938 8.23802 15.3337C8.17788 15.2735 8.14397 15.1921 8.14371 15.107V14.464C8.14371 14.3789 8.17753 14.2972 8.23773 14.237C8.29793 14.1768 8.37958 14.143 8.46471 14.143H14.2147C14.2998 14.143 14.3815 14.1768 14.4417 14.237C14.5019 14.2972 14.5357 14.3789 14.5357 14.464L14.5707 15.107ZM15.8567 10.928C15.8567 11.0124 15.8401 11.0961 15.8078 11.1741C15.7755 11.2521 15.7281 11.323 15.6684 11.3827C15.6087 11.4424 15.5378 11.4897 15.4598 11.5221C15.3818 11.5544 15.2982 11.571 15.2137 11.571H10.0717C9.90135 11.571 9.73795 11.5034 9.61739 11.383C9.49684 11.2627 9.42898 11.0994 9.42871 10.929V9.643C9.42672 9.47802 9.48893 9.31873 9.60218 9.19875C9.71544 9.07878 9.87089 9.00751 10.0357 9H15.1787C15.3492 9 15.5128 9.06775 15.6334 9.18833C15.754 9.30892 15.8217 9.47247 15.8217 9.643L15.8567 10.928ZM20.9997 10.928C20.9997 11.0124 20.9831 11.0961 20.9508 11.1741C20.9185 11.2521 20.8711 11.323 20.8114 11.3827C20.7517 11.4424 20.6808 11.4897 20.6028 11.5221C20.5248 11.5544 20.4412 11.571 20.3567 11.571H17.7857C17.6153 11.5705 17.4521 11.5026 17.3316 11.3821C17.2112 11.2616 17.1432 11.0984 17.1427 10.928V9.643C17.1427 9.47247 17.2105 9.30892 17.331 9.18833C17.4516 9.06775 17.6152 9 17.7857 9H20.3567C20.5271 9.00053 20.6903 9.06844 20.8108 9.18891C20.9313 9.30938 20.9992 9.47263 20.9997 9.643V10.928ZM20.9997 5.785C20.9992 5.95537 20.9313 6.11861 20.8108 6.23909C20.6903 6.35956 20.5271 6.42747 20.3567 6.428H16.4997C16.3292 6.428 16.1656 6.36026 16.045 6.23967C15.9245 6.11908 15.8567 5.95553 15.8567 5.785V3.214C15.8567 3.04347 15.9245 2.87992 16.045 2.75933C16.1656 2.63874 16.3292 2.571 16.4997 2.571H20.3567C20.5271 2.57153 20.6903 2.63944 20.8108 2.75991C20.9313 2.88039 20.9992 3.04363 20.9997 3.214V5.785Z" fill="#99A4B9"/>
</svg>
