<svg width="24" height="24" viewBox="0 0 24 24" fill="none" xmlns="http://www.w3.org/2000/svg">
<g clip-path="url(#clip0_1759_78832)">
<g filter="url(#filter0_ii_1759_78832)">
<path fill-rule="evenodd" clip-rule="evenodd" d="M4.60063 2.05752C4.25025 2.13275 3.76043 2.38362 3.48185 2.63043C2.75135 3.27768 2.32094 4.15852 2.07268 5.51418C1.97568 6.04402 1.9758 7.6126 2.07288 8.2695C2.38019 10.3486 3.22089 12.3406 4.34608 13.6558C4.6501 14.0112 4.79619 14.112 5.00744 14.1122C5.18944 14.1124 9.78529 12.8897 10.0201 12.7786C10.2175 12.6852 10.2838 12.5903 10.3613 12.2902C10.5399 11.5988 10.5919 10.3152 10.4806 9.34427C9.98207 4.9934 7.168 1.5061 4.60063 2.05752ZM17.7803 4.55873C17.1381 4.74863 16.5731 5.1069 15.9692 5.70733C14.5519 7.11645 13.5095 9.49846 13.2516 11.9173C13.1719 12.6652 13.1983 13.7099 13.3135 14.3649C13.4039 14.879 13.4773 15.0647 13.6361 15.1807C13.7004 15.2277 14.6939 15.5137 16.196 15.9176C19.0412 16.6827 18.8648 16.66 19.2172 16.3074C19.5325 15.992 20.0135 15.3277 20.327 14.7748C20.9667 13.6464 21.4251 12.2848 21.6487 10.849C21.7749 10.0384 21.7746 8.55782 21.648 7.85214C21.4292 6.63233 21.0426 5.80957 20.401 5.19788C19.8596 4.68172 19.2912 4.45739 18.5344 4.46102C18.1961 4.46266 18.0343 4.48361 17.7803 4.55873ZM7.94219 14.6441C6.78144 14.9549 5.75681 15.2437 5.66524 15.2858C5.48741 15.3676 5.35852 15.5371 5.32021 15.7398C5.28242 15.9398 5.76935 17.6718 5.97563 18.0709C6.21958 18.5429 6.68541 19.0003 7.16788 19.2416C7.65517 19.4853 8.00652 19.5595 8.56157 19.5358C9.28706 19.5049 9.84242 19.2682 10.3603 18.7693C10.9853 18.1671 11.2883 17.3311 11.199 16.4554C11.1646 16.1171 10.7189 14.4729 10.6276 14.3474C10.5451 14.234 10.2492 14.0719 10.1323 14.0762C10.0885 14.0778 9.10294 14.3334 7.94219 14.6441ZM13.3727 16.5905C13.0997 16.7094 13.0558 16.8168 12.6691 18.3137C12.5375 18.8232 12.5289 18.8918 12.5444 19.3103C12.5576 19.6659 12.5832 19.8251 12.6672 20.0725C13.2348 21.7439 15.0831 22.4834 16.6489 21.6656C17.1497 21.404 17.6639 20.8391 17.8757 20.3179C18.0538 19.8797 18.4443 18.367 18.4225 18.1999C18.4007 18.0328 18.3115 17.8916 18.153 17.7733C18.0392 17.6883 13.8041 16.5369 13.6092 16.5379C13.5447 16.5382 13.4383 16.5619 13.3727 16.5905Z" fill="#B9D3EB"/>
</g>
</g>
<defs>
<filter id="filter0_ii_1759_78832" x="2" y="-10" width="19.7432" height="44" filterUnits="userSpaceOnUse" color-interpolation-filters="sRGB">
<feFlood flood-opacity="0" result="BackgroundImageFix"/>
<feBlend mode="normal" in="SourceGraphic" in2="BackgroundImageFix" result="shape"/>
<feColorMatrix in="SourceAlpha" type="matrix" values="0 0 0 0 0 0 0 0 0 0 0 0 0 0 0 0 0 0 127 0" result="hardAlpha"/>
<feOffset dy="12"/>
<feGaussianBlur stdDeviation="11"/>
<feComposite in2="hardAlpha" operator="arithmetic" k2="-1" k3="1"/>
<feColorMatrix type="matrix" values="0 0 0 0 1 0 0 0 0 1 0 0 0 0 1 0 0 0 0.5 0"/>
<feBlend mode="normal" in2="shape" result="effect1_innerShadow_1759_78832"/>
<feColorMatrix in="SourceAlpha" type="matrix" values="0 0 0 0 0 0 0 0 0 0 0 0 0 0 0 0 0 0 127 0" result="hardAlpha"/>
<feOffset dy="-12"/>
<feGaussianBlur stdDeviation="6"/>
<feComposite in2="hardAlpha" operator="arithmetic" k2="-1" k3="1"/>
<feColorMatrix type="matrix" values="0 0 0 0 0.613533 0 0 0 0 0.732716 0 0 0 0 0.842731 0 0 0 1 0"/>
<feBlend mode="normal" in2="effect1_innerShadow_1759_78832" result="effect2_innerShadow_1759_78832"/>
</filter>
<clipPath id="clip0_1759_78832">
<rect width="24" height="24" fill="white"/>
</clipPath>
</defs>
</svg>
