<svg width="69" height="24" viewBox="0 0 69 24" fill="none" xmlns="http://www.w3.org/2000/svg">
<path d="M20.3117 0H23.8602C24.4039 0 24.8454 0.441429 24.8454 0.985156V23.0164C24.8454 23.5592 24.4046 24 23.8617 24H20.3134C19.7696 24 19.3281 23.5585 19.3281 23.0147V0.983629C19.3281 0.440751 19.7689 0 20.3118 0H20.3117Z" fill="#06C755"/>
<path d="M48.2732 0H44.7264C44.1822 0 43.7412 0.440407 43.7412 0.983629V14.0733L33.6441 0.437319C33.6206 0.40224 33.5943 0.36925 33.5665 0.337522L33.5602 0.330555C33.5416 0.309744 33.5223 0.289633 33.5021 0.270417L33.4839 0.253922C33.4669 0.238656 33.4495 0.223756 33.4316 0.209614L33.4055 0.190135C33.3889 0.178036 33.3719 0.166224 33.3545 0.155056L33.3248 0.136999C33.3072 0.126726 33.2896 0.116889 33.2715 0.107728L33.2407 0.092829C33.2222 0.0841855 33.2034 0.0760011 33.1844 0.0685169L33.1529 0.0570152C33.1336 0.0501968 33.1141 0.0437916 33.0943 0.0382129L33.0601 0.0293857C33.0411 0.0247253 33.0222 0.0203749 33.0028 0.0168738L32.9616 0.0106179C32.9443 0.00816142 32.927 0.0057394 32.9095 0.00429307C32.8924 0.00280083 32.8753 0.00224984 32.858 0.00172182L32.8249 1.14788e-05H29.2781C28.734 1.14788e-05 28.293 0.440418 28.293 0.983641V23.0164C28.293 23.5596 28.734 24 29.2781 24H32.8249C33.3691 24 33.8102 23.5596 33.8102 23.0164V9.93085L43.92 23.584C43.9896 23.6824 44.0747 23.763 44.169 23.8271L44.1803 23.8348C44.2 23.848 44.2203 23.8601 44.2409 23.8716L44.269 23.8871C44.2843 23.8951 44.2999 23.9025 44.3158 23.9097C44.3314 23.9168 44.3471 23.9237 44.3631 23.93L44.3937 23.9413C44.4155 23.9491 44.4376 23.9563 44.4602 23.9626L44.4741 23.9663C44.5548 23.9875 44.6391 24 44.7264 24H48.2732C48.8173 24 49.2584 23.5596 49.2584 23.0164V0.983629C49.2584 0.440407 48.8173 0 48.2732 0V0Z" fill="#06C755"/>
<path d="M15.3095 18.4827H5.67248V0.983629C5.67248 0.440407 5.23136 0 4.68725 0H1.14043C0.596312 0 0.155273 0.440407 0.155273 0.983629V23.0164C0.155273 23.2808 0.260167 23.5202 0.430156 23.697L0.443483 23.7117L0.458187 23.725C0.63503 23.895 0.874385 24 1.13881 24H15.3095C15.8527 24 16.2932 23.5588 16.2932 23.0147V19.4679C16.2932 18.9238 15.8527 18.4827 15.3095 18.4827Z" fill="#06C755"/>
<path d="M67.8613 0H53.6906C53.4248 0 53.1841 0.106018 53.0071 0.277569L52.9954 0.288336L52.9796 0.305577C52.8111 0.482121 52.707 0.720513 52.707 0.983629V23.0164C52.707 23.2808 52.8119 23.5202 52.9819 23.697L52.9952 23.7117L53.0099 23.725C53.1868 23.895 53.4261 24 53.6906 24H67.8613C68.4044 24 68.8449 23.5588 68.8449 23.0147V19.4679C68.8449 18.9238 68.4044 18.4827 67.8613 18.4827H58.2242V14.7586H67.8613C68.4044 14.7586 68.8449 14.3175 68.8449 13.7734V10.2266C68.8449 9.68243 68.4044 9.2414 67.8613 9.2414H58.2242V5.51725H67.8613C68.4044 5.51725 68.8449 5.07613 68.8449 4.53199V0.985191C68.8449 0.441073 68.4044 0 67.8613 0H67.8613Z" fill="#06C755"/>
</svg>
