<svg width="17" height="16" viewBox="0 0 17 16" fill="none" xmlns="http://www.w3.org/2000/svg">
<path d="M6.56016 5.9987C6.7169 5.55314 7.02626 5.17744 7.43347 4.93812C7.84067 4.6988 8.31943 4.61132 8.78495 4.69117C9.25047 4.77102 9.67271 5.01305 9.97688 5.37438C10.2811 5.73572 10.4475 6.19305 10.4468 6.66536C10.4468 7.9987 8.44683 8.66536 8.44683 8.66536M8.50016 11.332H8.50683M15.1668 7.9987C15.1668 11.6806 12.1821 14.6654 8.50016 14.6654C4.81826 14.6654 1.8335 11.6806 1.8335 7.9987C1.8335 4.3168 4.81826 1.33203 8.50016 1.33203C12.1821 1.33203 15.1668 4.3168 15.1668 7.9987Z" stroke="#666666" stroke-width="1.33333" stroke-linecap="round" stroke-linejoin="round"/>
</svg>
