<svg width="16" height="16" viewBox="0 0 16 16" fill="none" xmlns="http://www.w3.org/2000/svg">
<g clip-path="url(#clip0_1874_51570)">
<path d="M6.06016 5.9987C6.2169 5.55314 6.52626 5.17744 6.93347 4.93812C7.34067 4.6988 7.81943 4.61132 8.28495 4.69117C8.75047 4.77102 9.17271 5.01305 9.47688 5.37438C9.78106 5.73572 9.94753 6.19305 9.94683 6.66536C9.94683 7.9987 7.94683 8.66536 7.94683 8.66536M8.00016 11.332H8.00683M14.6668 7.9987C14.6668 11.6806 11.6821 14.6654 8.00016 14.6654C4.31826 14.6654 1.3335 11.6806 1.3335 7.9987C1.3335 4.3168 4.31826 1.33203 8.00016 1.33203C11.6821 1.33203 14.6668 4.3168 14.6668 7.9987Z" stroke="#666666" stroke-width="1.33333" stroke-linecap="round" stroke-linejoin="round"/>
</g>
<defs>
<clipPath id="clip0_1874_51570">
<rect width="16" height="16" fill="white"/>
</clipPath>
</defs>
</svg>
