<svg width="25" height="24" viewBox="0 0 25 24" fill="none" xmlns="http://www.w3.org/2000/svg">
<path d="M15.0718 9.26745V13.0709C15.0718 13.178 14.9647 13.2316 14.8576 13.2316H14.2683C14.2147 13.2316 14.1612 13.178 14.1076 13.178L12.3934 10.821V13.0709C12.3934 13.178 12.2863 13.2316 12.2327 13.2316H11.5899C11.4827 13.2316 11.4291 13.178 11.4291 13.0709V9.26745C11.4291 9.16031 11.4827 9.10674 11.5899 9.10674H12.2327C12.2863 9.10674 12.3398 9.10674 12.3398 9.16031L14.1076 11.5173V9.26745C14.1076 9.16031 14.1612 9.10674 14.2683 9.10674H14.8576C14.9647 9.05317 15.0718 9.16031 15.0718 9.26745ZM10.6792 9.05317H10.0364C9.92922 9.05317 9.87565 9.16031 9.87565 9.26745V13.0709C9.87565 13.178 9.92922 13.2316 10.0364 13.2316H10.6792C10.7328 13.2316 10.8399 13.178 10.8399 13.0709V9.26745C10.8399 9.16031 10.7328 9.05317 10.6792 9.05317ZM9.17925 12.2673H7.51861V9.26745C7.51861 9.16031 7.46504 9.05317 7.3579 9.05317H6.71507C6.6615 9.05317 6.55436 9.16031 6.55436 9.26745V13.0709C6.55436 13.1244 6.60793 13.1244 6.60793 13.178C6.6615 13.178 6.6615 13.2316 6.71507 13.2316H9.17925C9.28639 13.2316 9.33996 13.1244 9.33996 13.0709V12.428C9.33996 12.3745 9.28639 12.2673 9.17925 12.2673ZM18.286 9.05317H15.8218C15.7147 9.05317 15.6611 9.16031 15.6611 9.26745V13.0709C15.6611 13.1244 15.7147 13.2316 15.8218 13.2316H18.286C18.3396 13.2316 18.4467 13.178 18.4467 13.0709V12.428C18.4467 12.3745 18.3396 12.2673 18.286 12.2673H16.6253V11.6245H18.286C18.3396 11.6245 18.4467 11.5709 18.4467 11.4638V10.821C18.4467 10.7674 18.3396 10.6602 18.286 10.6602H16.6253V10.0174H18.286C18.3396 10.0174 18.4467 9.96385 18.4467 9.85671V9.26745C18.4467 9.16031 18.3396 9.05317 18.286 9.05317ZM24.5 4.39266V19.6598C24.4464 22.0705 22.5179 24.0525 20.1073 23.9989H4.84015C2.42955 23.9989 0.447492 22.0705 0.501061 19.6598V4.33909C0.501061 1.98206 2.42955 0 4.84015 0H20.1609C22.5179 0.0535691 24.5 1.98206 24.5 4.39266ZM21.1787 10.9817C21.1787 7.07112 17.2682 3.85697 12.447 3.85697C7.62575 3.85697 3.7152 7.07112 3.7152 10.9817C3.7152 14.4636 6.82221 17.4099 11.0006 17.9456C12.0184 18.1599 11.9113 18.5349 11.697 19.9277C11.6434 20.142 11.4827 20.7848 12.447 20.4098C13.3576 20.0348 17.4825 17.4635 19.3038 15.3208C20.5895 13.928 21.1787 12.5352 21.1787 10.9817Z" fill="white"/>
</svg>
