<svg width="24" height="25" viewBox="0 0 24 25" fill="none" xmlns="http://www.w3.org/2000/svg">
<path d="M22.9983 12.3315C23.0031 12.4362 22.9868 12.5408 22.9504 12.6391C22.9139 12.7374 22.8581 12.8274 22.7861 12.9036C22.7142 12.9798 22.6276 13.0408 22.5316 13.0829C22.4356 13.125 22.3321 13.1473 22.2273 13.1485H3.6603L10.5853 20.7675C10.6574 20.8468 10.7132 20.9396 10.7495 21.0404C10.7857 21.1413 10.8018 21.2483 10.7967 21.3554C10.7916 21.4625 10.7654 21.5675 10.7197 21.6645C10.674 21.7614 10.6096 21.8484 10.5303 21.9205C10.378 22.0547 10.1823 22.1293 9.9793 22.1305C9.86611 22.1302 9.75424 22.1063 9.6509 22.0601C9.54755 22.0139 9.45503 21.9466 9.3793 21.8625L1.2143 12.8805C1.07692 12.7303 1.00073 12.5341 1.00073 12.3305C1.00073 12.1269 1.07692 11.9307 1.2143 11.7805L9.3793 2.79852C9.45152 2.71913 9.53868 2.65475 9.63579 2.60905C9.7329 2.56335 9.83805 2.53722 9.94526 2.53216C10.0525 2.5271 10.1596 2.5432 10.2606 2.57955C10.3616 2.6159 10.4544 2.67179 10.5338 2.74401C10.6132 2.81624 10.6776 2.9034 10.7233 3.0005C10.769 3.09761 10.7951 3.20277 10.8002 3.30998C10.8052 3.41718 10.7891 3.52433 10.7528 3.62531C10.7164 3.7263 10.6605 3.81913 10.5883 3.89851L3.6643 11.5155H22.2273C22.332 11.5167 22.4354 11.539 22.5314 11.5811C22.6273 11.6231 22.7138 11.684 22.7858 11.7601C22.8577 11.8362 22.9136 11.926 22.9501 12.0242C22.9866 12.1224 23.003 12.2269 22.9983 12.3315Z" fill="white"/>
</svg>
