<svg width="24" height="24" viewBox="0 0 24 24" fill="none" xmlns="http://www.w3.org/2000/svg">
<path d="M22.9985 11.9995C23.0034 12.1042 22.9871 12.2088 22.9506 12.3071C22.9142 12.4054 22.8583 12.4953 22.7864 12.5716C22.7144 12.6478 22.6279 12.7088 22.5319 12.7509C22.4359 12.7929 22.3324 12.8153 22.2275 12.8165H3.66054L10.5855 20.4355C10.6577 20.5148 10.7135 20.6075 10.7497 20.7084C10.786 20.8093 10.802 20.9163 10.7969 21.0234C10.7918 21.1305 10.7657 21.2355 10.72 21.3324C10.6742 21.4294 10.6099 21.5164 10.5305 21.5885C10.3782 21.7227 10.1825 21.7973 9.97954 21.7985C9.86636 21.7982 9.75449 21.7742 9.65114 21.7281C9.5478 21.6819 9.45528 21.6146 9.37954 21.5305L1.21454 12.5485C1.07716 12.3983 1.00098 12.2021 1.00098 11.9985C1.00098 11.7949 1.07716 11.5987 1.21454 11.4485L9.37954 2.46649C9.45177 2.3871 9.53892 2.32272 9.63603 2.27702C9.73314 2.23132 9.8383 2.20519 9.9455 2.20013C10.0527 2.19507 10.1599 2.21117 10.2608 2.24752C10.3618 2.28387 10.4547 2.33975 10.534 2.41198C10.6134 2.48421 10.6778 2.57137 10.7235 2.66847C10.7692 2.76558 10.7953 2.87074 10.8004 2.97794C10.8055 3.08515 10.7894 3.1923 10.753 3.29328C10.7167 3.39426 10.6608 3.4871 10.5885 3.56648L3.66454 11.1835H22.2275C22.3323 11.1847 22.4357 11.207 22.5316 11.249C22.6276 11.291 22.7141 11.3519 22.786 11.4281C22.8579 11.5042 22.9138 11.594 22.9503 11.6922C22.9868 11.7903 23.0032 11.8948 22.9985 11.9995Z" fill="#283754"/>
</svg>
