<svg width="24" height="25" viewBox="0 0 24 25" fill="none" xmlns="http://www.w3.org/2000/svg">
<path d="M22.9985 12.3315C23.0034 12.4362 22.9871 12.5408 22.9506 12.6391C22.9142 12.7374 22.8583 12.8274 22.7864 12.9036C22.7144 12.9798 22.6279 13.0408 22.5319 13.0829C22.4359 13.125 22.3324 13.1473 22.2275 13.1485H3.66054L10.5855 20.7675C10.6577 20.8468 10.7135 20.9396 10.7497 21.0404C10.786 21.1413 10.802 21.2483 10.7969 21.3554C10.7918 21.4625 10.7657 21.5675 10.72 21.6645C10.6742 21.7614 10.6099 21.8484 10.5305 21.9205C10.3782 22.0547 10.1825 22.1293 9.97954 22.1305C9.86636 22.1302 9.75449 22.1063 9.65114 22.0601C9.5478 22.0139 9.45528 21.9466 9.37954 21.8625L1.21454 12.8805C1.07716 12.7303 1.00098 12.5341 1.00098 12.3305C1.00098 12.1269 1.07716 11.9307 1.21454 11.7805L9.37954 2.79852C9.45177 2.71913 9.53892 2.65475 9.63603 2.60905C9.73314 2.56335 9.8383 2.53722 9.9455 2.53216C10.0527 2.5271 10.1599 2.5432 10.2608 2.57955C10.3618 2.6159 10.4547 2.67179 10.534 2.74401C10.6134 2.81624 10.6778 2.9034 10.7235 3.0005C10.7692 3.09761 10.7953 3.20277 10.8004 3.30998C10.8055 3.41718 10.7894 3.52433 10.753 3.62531C10.7167 3.7263 10.6608 3.81913 10.5885 3.89851L3.66454 11.5155H22.2275C22.3323 11.5167 22.4357 11.539 22.5316 11.5811C22.6276 11.6231 22.7141 11.684 22.786 11.7601C22.8579 11.8362 22.9138 11.926 22.9503 12.0242C22.9868 12.1224 23.0032 12.2269 22.9985 12.3315Z" fill="white"/>
</svg>
