<svg width="24" height="24" viewBox="0 0 24 24" fill="none" xmlns="http://www.w3.org/2000/svg">
<path d="M22.9983 11.9995C23.0031 12.1042 22.9868 12.2088 22.9504 12.3071C22.9139 12.4054 22.8581 12.4953 22.7861 12.5716C22.7142 12.6478 22.6276 12.7088 22.5316 12.7509C22.4356 12.7929 22.3321 12.8153 22.2273 12.8165H3.6603L10.5853 20.4355C10.6574 20.5148 10.7132 20.6075 10.7495 20.7084C10.7857 20.8093 10.8018 20.9163 10.7967 21.0234C10.7916 21.1305 10.7654 21.2355 10.7197 21.3324C10.674 21.4294 10.6096 21.5164 10.5303 21.5885C10.378 21.7227 10.1823 21.7973 9.9793 21.7985C9.86611 21.7982 9.75424 21.7742 9.6509 21.7281C9.54755 21.6819 9.45503 21.6146 9.3793 21.5305L1.2143 12.5485C1.07692 12.3983 1.00073 12.2021 1.00073 11.9985C1.00073 11.7949 1.07692 11.5987 1.2143 11.4485L9.3793 2.46649C9.45152 2.3871 9.53868 2.32272 9.63579 2.27702C9.7329 2.23132 9.83805 2.20519 9.94526 2.20013C10.0525 2.19507 10.1596 2.21117 10.2606 2.24752C10.3616 2.28387 10.4544 2.33975 10.5338 2.41198C10.6132 2.48421 10.6776 2.57137 10.7233 2.66847C10.769 2.76558 10.7951 2.87074 10.8002 2.97794C10.8052 3.08515 10.7891 3.1923 10.7528 3.29328C10.7164 3.39426 10.6605 3.4871 10.5883 3.56648L3.6643 11.1835H22.2273C22.332 11.1847 22.4354 11.207 22.5314 11.249C22.6273 11.291 22.7138 11.3519 22.7858 11.4281C22.8577 11.5042 22.9136 11.594 22.9501 11.6922C22.9866 11.7903 23.003 11.8948 22.9983 11.9995Z" fill="#283754"/>
</svg>
