<svg width="24" height="24" viewBox="0 0 24 24" fill="none" xmlns="http://www.w3.org/2000/svg">
<path d="M14.5718 9.26745V13.0709C14.5718 13.178 14.4647 13.2316 14.3576 13.2316H13.7683C13.7147 13.2316 13.6612 13.178 13.6076 13.178L11.8934 10.821V13.0709C11.8934 13.178 11.7863 13.2316 11.7327 13.2316H11.0899C10.9827 13.2316 10.9291 13.178 10.9291 13.0709V9.26745C10.9291 9.16031 10.9827 9.10674 11.0899 9.10674H11.7327C11.7863 9.10674 11.8398 9.10674 11.8398 9.16031L13.6076 11.5173V9.26745C13.6076 9.16031 13.6612 9.10674 13.7683 9.10674H14.3576C14.4647 9.05317 14.5718 9.16031 14.5718 9.26745ZM10.1792 9.05317H9.53635C9.42922 9.05317 9.37565 9.16031 9.37565 9.26745V13.0709C9.37565 13.178 9.42922 13.2316 9.53635 13.2316H10.1792C10.2328 13.2316 10.3399 13.178 10.3399 13.0709V9.26745C10.3399 9.16031 10.2328 9.05317 10.1792 9.05317ZM8.67925 12.2673H7.01861V9.26745C7.01861 9.16031 6.96504 9.05317 6.8579 9.05317H6.21507C6.1615 9.05317 6.05436 9.16031 6.05436 9.26745V13.0709C6.05436 13.1244 6.10793 13.1244 6.10793 13.178C6.1615 13.178 6.1615 13.2316 6.21507 13.2316H8.67925C8.78639 13.2316 8.83996 13.1244 8.83996 13.0709V12.428C8.83996 12.3745 8.78639 12.2673 8.67925 12.2673ZM17.786 9.05317H15.3218C15.2147 9.05317 15.1611 9.16031 15.1611 9.26745V13.0709C15.1611 13.1244 15.2147 13.2316 15.3218 13.2316H17.786C17.8396 13.2316 17.9467 13.178 17.9467 13.0709V12.428C17.9467 12.3745 17.8396 12.2673 17.786 12.2673H16.1253V11.6245H17.786C17.8396 11.6245 17.9467 11.5709 17.9467 11.4638V10.821C17.9467 10.7674 17.8396 10.6602 17.786 10.6602H16.1253V10.0174H17.786C17.8396 10.0174 17.9467 9.96385 17.9467 9.85671V9.26745C17.9467 9.16031 17.8396 9.05317 17.786 9.05317ZM24 4.39266V19.6598C23.9464 22.0705 22.0179 24.0525 19.6073 23.9989H4.34015C1.92955 23.9989 -0.0525081 22.0705 0.00106097 19.6598V4.33909C0.00106097 1.98206 1.92955 0 4.34015 0H19.6609C22.0179 0.0535691 24 1.98206 24 4.39266ZM20.6787 10.9817C20.6787 7.07112 16.7682 3.85697 11.947 3.85697C7.12575 3.85697 3.2152 7.07112 3.2152 10.9817C3.2152 14.4636 6.32221 17.4099 10.5006 17.9456C11.5184 18.1599 11.4113 18.5349 11.197 19.9277C11.1434 20.142 10.9827 20.7848 11.947 20.4098C12.8576 20.0348 16.9825 17.4635 18.8038 15.3208C20.0895 13.928 20.6787 12.5352 20.6787 10.9817Z" fill="white"/>
</svg>
