<svg width="157" height="161" viewBox="0 0 157 161" fill="none" xmlns="http://www.w3.org/2000/svg">
<mask id="mask0_1528_99357" style="mask-type:alpha" maskUnits="userSpaceOnUse" x="0" y="0" width="164" height="218">
<rect width="164" height="218" rx="12" fill="#7879F1"/>
</mask>
<g mask="url(#mask0_1528_99357)">
<circle cx="82" cy="80" r="60" fill="#8D7CF6"/>
<path d="M48.0467 122.399C45.8745 120.744 44.8727 117.957 45.6253 115.332C50.1102 99.6896 64.5202 88.2426 81.6036 88.2426C98.687 88.2426 113.097 99.6895 117.582 115.331C118.335 117.956 117.333 120.744 115.161 122.398C105.846 129.494 94.2168 133.707 81.6036 133.707C68.9904 133.707 57.3613 129.494 48.0467 122.399Z" fill="#F5F8FC"/>
<path d="M81.6038 83.2531C93.3159 83.2531 102.81 73.7586 102.81 62.0465C102.81 50.3344 93.3159 40.8398 81.6038 40.8398C69.8917 40.8398 60.3971 50.3344 60.3971 62.0465C60.3971 73.7586 69.8917 83.2531 81.6038 83.2531Z" fill="#F5F8FC"/>
</g>
</svg>
